<?xml version="1.0" encoding="UTF-8"?>
<svg version="1.1" xmlns="http://www.w3.org/2000/svg" width="616" height="1298" viewBox="705 301 616 1298">
<path d="M0 0 C0.99 0.33 1.98 0.66 3 1 C3 1.66 3 2.32 3 3 C16.86 3 30.72 3 45 3 C47.25153288 10.88036508 47.25153288 10.88036508 47.23046875 15.21875 C47.22853516 16.71378052 47.22853516 16.71378052 47.2265625 18.23901367 C47.20722656 19.8532019 47.20722656 19.8532019 47.1875 21.5 C47.18105469 22.63606689 47.17460938 23.77213379 47.16796875 24.94262695 C47.02427292 41.96497001 46.49559639 58.98496332 46 76 C45.34 76 44.68 76 44 76 C44.32508545 76.99418945 44.6501709 77.98837891 44.98510742 79.01269531 C46.10336391 82.94023631 46.26312452 86.73274583 46.23828125 90.796875 C46.25368044 92.26433238 46.26998251 93.73178052 46.28710938 95.19921875 C46.30363771 97.48604937 46.31243194 99.77219577 46.30541992 102.05908203 C46.30280795 104.28495296 46.33082423 106.50877746 46.36328125 108.734375 C46.34797112 109.76096222 46.34797112 109.76096222 46.33235168 110.80828857 C46.32280346 112.97780085 46.32280346 112.97780085 47 116 C49.43726455 117.87030456 49.43726455 117.87030456 52 119 C52 119.66 52 120.32 52 121 C52.66 121 53.32 121 54 121 C57.61601216 126.57468542 57.30720059 131.60567654 57 138 C57.98355469 138.08636719 58.96710938 138.17273438 59.98046875 138.26171875 C88.93746804 141.08126266 130.44575056 150.21697644 150.625 173 C155.27974539 177.40340925 161.32864596 176.57926999 167.359375 176.66137695 C184.22624418 177.00238917 199.47708344 187.13494272 210.95703125 199.02734375 C214.88782724 203.55110653 217.22393026 206.51332086 217.4140625 212.53125 C217.47231201 214.20018311 217.47231201 214.20018311 217.53173828 215.90283203 C217.56251465 217.08989746 217.59329102 218.27696289 217.625 219.5 C217.66222168 220.70640137 217.69944336 221.91280273 217.73779297 223.15576172 C217.94860113 230.47770241 218.09479092 237.80001633 218.125 245.125 C218.12967285 245.91712891 218.1343457 246.70925781 218.13916016 247.52539062 C218.12350662 252.87649338 218.12350662 252.87649338 217 254 C214.32941149 254.14115161 211.67567762 254.04247107 209 254 C209.00138269 254.92270895 209.00138269 254.92270895 209.00279331 255.86405849 C209.02585676 271.53706296 209.04186346 287.21006088 209.05181217 302.88307858 C209.0567628 310.46543459 209.06337249 318.04777865 209.07543945 325.63012695 C209.1238096 356.72021217 209.09751954 387.80801196 208.77514648 418.89672852 C208.07511651 487.21496117 207.90039003 555.52595166 207.90234375 623.84765625 C207.90236905 625.04884963 207.90239436 626.250043 207.90242043 627.48763618 C207.90331862 658.40444192 207.91399424 689.32124196 207.92797333 720.2380442 C207.93599849 738.1872603 207.9413933 756.13647586 207.94506836 774.08569336 C207.94533108 775.36519488 207.94559381 776.64469639 207.94586449 777.96297068 C207.94717032 784.38723119 207.94843384 790.8114917 207.94967639 797.23575222 C207.95990167 849.82383759 207.97738441 902.41191859 208 955 C209.59523155 955.65881639 211.19256508 956.31254473 212.79077148 956.96411133 C214.12470192 957.51099358 214.12470192 957.51099358 215.48558044 958.06892395 C218.38068963 959.14096733 220.9822546 959.55897177 224.0625 959.6875 C228.92625369 959.92625369 228.92625369 959.92625369 230 961 C230.23192865 962.51469448 230.41215238 964.03754562 230.5625 965.5625 C230.68818359 966.80193359 230.68818359 966.80193359 230.81640625 968.06640625 C230.87699219 968.70449219 230.93757813 969.34257813 231 970 C231.58383831 969.99815641 232.16767662 969.99631283 232.769207 969.99441338 C246.97412812 969.95024806 261.17903894 969.91715012 275.38401413 969.89637566 C282.25343033 969.8860623 289.12280071 969.87200086 295.9921875 969.84912109 C302.61870472 969.82706077 309.24518676 969.81543846 315.87174225 969.81024551 C318.40275066 969.8065437 320.93375639 969.79931522 323.46474457 969.78853989 C327.00357242 969.77406995 330.54220212 969.77202019 334.08105469 969.77294922 C335.13265778 969.76575867 336.18426086 969.75856812 337.26773071 969.75115967 C338.23244293 969.753909 339.19715515 969.75665833 340.19110107 969.75949097 C341.0280891 969.75764738 341.86507713 969.75580379 342.72742844 969.75390434 C345 970 345 970 349 972 C349.33 984.87 349.66 997.74 350 1011 C351.32 1011.33 352.64 1011.66 354 1012 C353.67 1013.65 353.34 1015.3 353 1017 C351.68 1017 350.36 1017 349 1017 C349 1031.19 349 1045.38 349 1060 C310.39 1060 271.78 1060 232 1060 C231.67 1063.63 231.34 1067.26 231 1071 C227.04566431 1071.98858392 224.0330527 1072.00635601 220.0234375 1071.83984375 C217.76927541 1071.79798541 217.76927541 1071.79798541 216 1074 C213.67724823 1074.40047444 211.34260643 1074.7397104 209 1075 C209.03029297 1075.88558594 209.06058594 1076.77117187 209.09179688 1077.68359375 C209.20575745 1081.05332015 209.31726184 1084.42311106 209.42724609 1087.79296875 C209.47480543 1089.23570849 209.52326989 1090.67841875 209.57275391 1092.12109375 C209.92518191 1102.4206223 210.04642357 1112.693968 210 1123 C216.93 1123 223.86 1123 231 1123 C232.92572521 1126.85145043 232.04883218 1131.80043252 232 1136 C238.27 1136 244.54 1136 251 1136 C251.02578125 1137.68609375 251.0515625 1139.3721875 251.078125 1141.109375 C251.13440214 1143.32294269 251.19174956 1145.53648336 251.25 1147.75 C251.27126953 1149.41675781 251.27126953 1149.41675781 251.29296875 1151.1171875 C251.32519531 1152.18710938 251.35742188 1153.25703125 251.390625 1154.359375 C251.41157227 1155.34389648 251.43251953 1156.32841797 251.45410156 1157.34277344 C252.39296394 1161.91279943 255.54867931 1163.67257127 259.1875 1166.3125 C262.74031214 1169.70740938 262.65917534 1171.15644959 263 1176 C262.90383126 1179.27077876 262.60186049 1182.49780371 262.25 1185.75 C262.17523437 1186.59949219 262.10046875 1187.44898438 262.0234375 1188.32421875 C261.93835937 1189.14019531 261.85328125 1189.95617188 261.765625 1190.796875 C261.65395996 1191.90047363 261.65395996 1191.90047363 261.54003906 1193.02636719 C260.84223824 1195.57655788 260.18348375 1196.49343968 258 1198 C255.1809082 1198.43237305 255.1809082 1198.43237305 251.80078125 1198.51171875 C250.16749878 1198.56138794 250.16749878 1198.56138794 248.5012207 1198.61206055 C247.11894287 1198.63695557 245.73666504 1198.66185059 244.3125 1198.6875 C239.919375 1198.790625 235.52625 1198.89375 231 1199 C231 1210.88 231 1222.76 231 1235 C239.00245768 1234.92110905 239.00245768 1234.92110905 247.00463867 1234.81982422 C248.50861206 1234.81233154 248.50861206 1234.81233154 250.04296875 1234.8046875 C251.06414795 1234.79421387 252.08532715 1234.78374023 253.13745117 1234.77294922 C256.12612167 1235.01000368 258.29423369 1235.74382898 261 1237 C261.28927276 1241.08905506 261.57389476 1245.17840665 261.85449219 1249.26806641 C261.95026685 1250.65487069 262.04724011 1252.0415928 262.14550781 1253.42822266 C263.42259106 1271.47679705 263.42259106 1271.47679705 263 1277 C262 1278 262 1278 259.86694336 1278.11352539 C258.49227905 1278.10567017 258.49227905 1278.10567017 257.08984375 1278.09765625 C255.60581055 1278.09282227 255.60581055 1278.09282227 254.09179688 1278.08789062 C253.05087891 1278.07951172 252.00996094 1278.07113281 250.9375 1278.0625 C249.89271484 1278.05798828 248.84792969 1278.05347656 247.77148438 1278.04882812 C245.18096546 1278.03699927 242.59047578 1278.01906319 240 1278 C240 1283.94 240 1289.88 240 1296 C237.68579271 1297.15710365 236.34114904 1297.13253337 233.765625 1297.14526367 C232.45416504 1297.15483345 232.45416504 1297.15483345 231.11621094 1297.16459656 C230.17036133 1297.16570938 229.22451172 1297.1668222 228.25 1297.16796875 C227.28094727 1297.17129715 226.31189453 1297.17462555 225.31347656 1297.17805481 C223.26237463 1297.1831227 221.21126444 1297.18546318 219.16015625 1297.18530273 C216.01288371 1297.18749104 212.86596055 1297.20565324 209.71875 1297.22460938 C207.72916787 1297.22754289 205.73958407 1297.22952797 203.75 1297.23046875 C202.33122559 1297.24124702 202.33122559 1297.24124702 200.88378906 1297.25224304 C200.00948242 1297.24916641 199.13517578 1297.24608978 198.234375 1297.24291992 C197.07760254 1297.24505745 197.07760254 1297.24505745 195.89746094 1297.24723816 C194 1297 194 1297 192 1295 C192 1289.39 192 1283.78 192 1278 C166.59 1278 141.18 1278 115 1278 C115 1283.61 115 1289.22 115 1295 C113 1297 113 1297 111.05784607 1297.24723816 C110.26588333 1297.24581314 109.47392059 1297.24438812 108.65795898 1297.24291992 C107.7604039 1297.24599655 106.86284882 1297.24907318 105.93809509 1297.25224304 C104.96723465 1297.24505753 103.99637421 1297.23787201 102.99609375 1297.23046875 C102.0024733 1297.23001053 101.00885284 1297.22955231 99.98512268 1297.2290802 C97.88272916 1297.22605609 95.78033791 1297.2181651 93.67797852 1297.20581055 C90.44734831 1297.18755565 87.21700451 1297.1853008 83.98632812 1297.18554688 C81.94791417 1297.1806318 79.90950217 1297.17480353 77.87109375 1297.16796875 C76.89820908 1297.16685593 75.9253244 1297.1657431 74.92295837 1297.16459656 C74.02855545 1297.15821671 73.13415253 1297.15183685 72.21264648 1297.14526367 C71.02589577 1297.13954597 71.02589577 1297.13954597 69.81517029 1297.13371277 C68 1297 68 1297 67 1296 C67 1290.06 67 1284.12 67 1278 C23.44 1278 -20.12 1278 -65 1278 C-65 1283.61 -65 1289.22 -65 1295 C-65.33 1295.66 -65.66 1296.32 -66 1297 C-81.51 1297 -97.02 1297 -113 1297 C-113.73371542 1291.86399205 -114.06272649 1288.50918422 -113.5625 1283.5625 C-113.46066406 1282.51191406 -113.35882812 1281.46132812 -113.25390625 1280.37890625 C-113.17011719 1279.59386719 -113.08632813 1278.80882812 -113 1278 C-113.66 1278.33 -114.32 1278.66 -115 1279 C-117.38047502 1279.09270774 -119.7313628 1279.12585532 -122.11181641 1279.11352539 C-123.20953117 1279.11374443 -123.20953117 1279.11374443 -124.329422 1279.1139679 C-126.75349876 1279.11327003 -129.17749912 1279.10548354 -131.6015625 1279.09765625 C-133.28022215 1279.09579162 -134.95888234 1279.09436793 -136.63754272 1279.09336853 C-141.05987038 1279.08954688 -145.48216528 1279.07971959 -149.90447998 1279.06866455 C-154.41548215 1279.05844286 -158.92648959 1279.05386928 -163.4375 1279.04882812 C-172.29168107 1279.03809702 -181.14583781 1279.02102481 -190 1279 C-189.98839844 1280.21558594 -189.97679687 1281.43117188 -189.96484375 1282.68359375 C-189.95546722 1284.26822764 -189.94636687 1285.85286318 -189.9375 1287.4375 C-189.92912109 1288.23994141 -189.92074219 1289.04238281 -189.91210938 1289.86914062 C-189.9034857 1291.91295221 -189.9477185 1293.95683902 -190 1296 C-191 1297 -191 1297 -192.90455627 1297.12025452 C-193.73728561 1297.11803391 -194.57001495 1297.11581329 -195.42797852 1297.11352539 C-196.36887833 1297.11344986 -197.30977814 1297.11337433 -198.27919006 1297.11329651 C-199.30209641 1297.10813522 -200.32500275 1297.10297394 -201.37890625 1297.09765625 C-202.42070541 1297.0962413 -203.46250458 1297.09482635 -204.53587341 1297.09336853 C-207.87811094 1297.0877508 -211.22028257 1297.0751953 -214.5625 1297.0625 C-216.82226466 1297.05748728 -219.08203037 1297.05292398 -221.34179688 1297.04882812 C-226.89455682 1297.03777561 -232.44726722 1297.0204991 -238 1297 C-238 1291.06 -238 1285.12 -238 1279 C-239.57652344 1279.01160156 -241.15304687 1279.02320313 -242.77734375 1279.03515625 C-244.83072799 1279.04453243 -246.8841135 1279.05363282 -248.9375 1279.0625 C-249.97841797 1279.07087891 -251.01933594 1279.07925781 -252.09179688 1279.08789062 C-253.08115234 1279.09111328 -254.07050781 1279.09433594 -255.08984375 1279.09765625 C-256.00628662 1279.10289307 -256.92272949 1279.10812988 -257.86694336 1279.11352539 C-260 1279 -260 1279 -261 1278 C-261.08874135 1274.89748799 -261.11518455 1271.8173188 -261.09765625 1268.71484375 C-261.0962413 1267.78402481 -261.09482635 1266.85320587 -261.09336853 1265.8941803 C-261.08775172 1262.90858809 -261.0751964 1259.92306971 -261.0625 1256.9375 C-261.05748716 1254.91862087 -261.05292388 1252.89974057 -261.04882812 1250.88085938 C-261.03777683 1245.92054428 -261.02050095 1240.96028468 -261 1236 C-257.82212459 1234.9407082 -255.57411057 1234.88541061 -252.23828125 1234.90234375 C-250.56088867 1234.90717773 -250.56088867 1234.90717773 -248.84960938 1234.91210938 C-247.68236328 1234.92048828 -246.51511719 1234.92886719 -245.3125 1234.9375 C-244.13365234 1234.94201172 -242.95480469 1234.94652344 -241.74023438 1234.95117188 C-238.82677211 1234.96296727 -235.91341137 1234.9794273 -233 1235 C-232.97494385 1234.05680908 -232.9498877 1233.11361816 -232.92407227 1232.1418457 C-232.82870191 1228.62871337 -232.72948275 1225.11573292 -232.62768555 1221.6027832 C-232.58448452 1220.08492245 -232.54279952 1218.56701774 -232.50268555 1217.04907227 C-232.44462188 1214.86200741 -232.38103344 1212.67516082 -232.31640625 1210.48828125 C-232.27974854 1209.17384033 -232.24309082 1207.85939941 -232.20532227 1206.50512695 C-232.03239364 1203.55300302 -231.67839286 1200.87049504 -231 1198 C-231.81267334 1198.00523682 -232.62534668 1198.01047363 -233.46264648 1198.01586914 C-237.12092322 1198.03656994 -240.77918767 1198.04963803 -244.4375 1198.0625 C-245.71689453 1198.07087891 -246.99628906 1198.07925781 -248.31445312 1198.08789062 C-249.52939453 1198.09111328 -250.74433594 1198.09433594 -251.99609375 1198.09765625 C-253.12200928 1198.10289307 -254.2479248 1198.10812988 -255.40795898 1198.11352539 C-258 1198 -258 1198 -259 1197 C-259.36687611 1192.80087761 -259.3718844 1188.58797374 -259.4375 1184.375 C-259.48326172 1183.19808594 -259.52902344 1182.02117187 -259.57617188 1180.80859375 C-259.70294492 1171.00848623 -259.70294492 1171.00848623 -256.41015625 1166.6640625 C-253.77527975 1164.10876679 -253.00362712 1164.00040951 -249.125 1163.5625 C-248.09375 1163.706875 -247.0625 1163.85125 -246 1164 C-246.00523682 1163.32420898 -246.01047363 1162.64841797 -246.01586914 1161.95214844 C-246.03668007 1158.88477511 -246.04967329 1155.81741667 -246.0625 1152.75 C-246.07087891 1151.68652344 -246.07925781 1150.62304688 -246.08789062 1149.52734375 C-246.09272461 1147.99013672 -246.09272461 1147.99013672 -246.09765625 1146.421875 C-246.10551147 1145.00793457 -246.10551147 1145.00793457 -246.11352539 1143.56542969 C-246 1141 -246 1141 -245 1137 C-240.05 1137 -235.1 1137 -230 1137 C-230 1132.05 -230 1127.1 -230 1122 C-222.41 1122 -214.82 1122 -207 1122 C-207.33 835.89 -207.66 549.78 -208 255 C-210.64 255 -213.28 255 -216 255 C-218.63978586 249.72042828 -217.31397671 241.22414333 -217.35009766 235.34423828 C-217.36661014 233.37536765 -217.39383757 231.40655578 -217.43212891 229.43798828 C-217.48719798 226.59115671 -217.50882122 223.74573169 -217.5234375 220.8984375 C-217.54610687 220.02730316 -217.56877625 219.15616882 -217.59213257 218.25863647 C-217.57127833 212.15748281 -216.17139918 207.60259504 -212 203 C-211.34 203 -210.68 203 -210 203 C-209.79375 202.46375 -209.5875 201.9275 -209.375 201.375 C-207.46749574 198.08021991 -204.95180616 195.40636372 -202 193 C-201.34 193 -200.68 193 -200 193 C-200 192.34 -200 191.68 -200 191 C-187.66246424 180.22597683 -173.2020629 174.57772047 -157.015625 175.02734375 C-154.19089477 175.00173091 -151.7397047 174.65448501 -149 174 C-149 173.34 -149 172.68 -149 172 C-144.64705882 168 -144.64705882 168 -141 168 C-141 167.34 -141 166.68 -141 166 C-114.62863284 150.76621923 -85.92906664 138.52993728 -55 138 C-55.10441406 136.82244141 -55.10441406 136.82244141 -55.2109375 135.62109375 C-55.70841082 125.96774245 -55.70841082 125.96774245 -52.25 121.875 C-50.0354038 119.62684931 -47.82334136 118.36944433 -45 117 C-44.98018066 115.96593018 -44.96036133 114.93186035 -44.93994141 113.86645508 C-44.86367773 110.01774381 -44.77499286 106.1694004 -44.68261719 102.32104492 C-44.64441304 100.65770752 -44.60954537 98.99428992 -44.578125 97.33081055 C-44.53228766 94.9350932 -44.47432533 92.53992391 -44.4140625 90.14453125 C-44.40251129 89.4047554 -44.39096008 88.66497955 -44.37905884 87.90278625 C-44.26418865 83.85394684 -43.78649164 80.65133817 -42 77 C-42.66 77 -43.32 77 -44 77 C-44.94930129 73.00487066 -45.12113477 69.29164046 -45.11352539 65.19018555 C-45.11367142 64.52621262 -45.11381744 63.86223969 -45.1139679 63.17814636 C-45.11327483 60.99763651 -45.10551099 58.81721356 -45.09765625 56.63671875 C-45.09578992 55.1192886 -45.09436703 53.60185785 -45.09336853 52.08442688 C-45.08956032 48.10108765 -45.07974459 44.1177852 -45.06866455 40.13446045 C-45.05841389 36.06555682 -45.05386309 31.99664721 -45.04882812 27.92773438 C-45.03812074 19.95180609 -45.02106478 11.97590763 -45 4 C-40.9839955 3.85438595 -36.96788504 3.71216006 -32.95166016 3.57275391 C-30.93255724 3.50201647 -28.91354238 3.42877926 -26.89453125 3.35546875 C-18.25610734 3.05759206 -9.64301273 2.93933545 -1 3 C-0.67 2.01 -0.34 1.02 0 0 Z " fill="#BFBFBF" transform="translate(967,301)"/>
<path d="M0 0 C0.99 0.33 1.98 0.66 3 1 C3 1.66 3 2.32 3 3 C16.86 3 30.72 3 45 3 C47.25153288 10.88036508 47.25153288 10.88036508 47.23046875 15.21875 C47.22853516 16.71378052 47.22853516 16.71378052 47.2265625 18.23901367 C47.20722656 19.8532019 47.20722656 19.8532019 47.1875 21.5 C47.18105469 22.63606689 47.17460938 23.77213379 47.16796875 24.94262695 C47.02427292 41.96497001 46.49559639 58.98496332 46 76 C45.34 76 44.68 76 44 76 C44.32508545 76.99418945 44.6501709 77.98837891 44.98510742 79.01269531 C46.10336391 82.94023631 46.26312452 86.73274583 46.23828125 90.796875 C46.25368044 92.26433238 46.26998251 93.73178052 46.28710938 95.19921875 C46.30363771 97.48604937 46.31243194 99.77219577 46.30541992 102.05908203 C46.30280795 104.28495296 46.33082423 106.50877746 46.36328125 108.734375 C46.34797112 109.76096222 46.34797112 109.76096222 46.33235168 110.80828857 C46.32280346 112.97780085 46.32280346 112.97780085 47 116 C49.43726455 117.87030456 49.43726455 117.87030456 52 119 C52 119.66 52 120.32 52 121 C52.66 121 53.32 121 54 121 C57.61601216 126.57468542 57.30720059 131.60567654 57 138 C57.98355469 138.08636719 58.96710938 138.17273438 59.98046875 138.26171875 C88.93746804 141.08126266 130.44575056 150.21697644 150.625 173 C155.27974539 177.40340925 161.32864596 176.57926999 167.359375 176.66137695 C184.22624418 177.00238917 199.47708344 187.13494272 210.95703125 199.02734375 C214.88782724 203.55110653 217.22393026 206.51332086 217.4140625 212.53125 C217.47231201 214.20018311 217.47231201 214.20018311 217.53173828 215.90283203 C217.56251465 217.08989746 217.59329102 218.27696289 217.625 219.5 C217.66222168 220.70640137 217.69944336 221.91280273 217.73779297 223.15576172 C217.94860113 230.47770241 218.09479092 237.80001633 218.125 245.125 C218.12967285 245.91712891 218.1343457 246.70925781 218.13916016 247.52539062 C218.12350662 252.87649338 218.12350662 252.87649338 217 254 C214.32941149 254.14115161 211.67567762 254.04247107 209 254 C209.00138269 254.92270895 209.00138269 254.92270895 209.00279331 255.86405849 C209.02585676 271.53706296 209.04186346 287.21006088 209.05181217 302.88307858 C209.0567628 310.46543459 209.06337249 318.04777865 209.07543945 325.63012695 C209.1238096 356.72021217 209.09751954 387.80801196 208.77514648 418.89672852 C208.07511651 487.21496117 207.90039003 555.52595166 207.90234375 623.84765625 C207.90236905 625.04884963 207.90239436 626.250043 207.90242043 627.48763618 C207.90331862 658.40444192 207.91399424 689.32124196 207.92797333 720.2380442 C207.93599849 738.1872603 207.9413933 756.13647586 207.94506836 774.08569336 C207.94533108 775.36519488 207.94559381 776.64469639 207.94586449 777.96297068 C207.94717032 784.38723119 207.94843384 790.8114917 207.94967639 797.23575222 C207.95990167 849.82383759 207.97738441 902.41191859 208 955 C209.59523155 955.65881639 211.19256508 956.31254473 212.79077148 956.96411133 C214.12470192 957.51099358 214.12470192 957.51099358 215.48558044 958.06892395 C218.38068963 959.14096733 220.9822546 959.55897177 224.0625 959.6875 C228.92625369 959.92625369 228.92625369 959.92625369 230 961 C230.23192865 962.51469448 230.41215238 964.03754562 230.5625 965.5625 C230.68818359 966.80193359 230.68818359 966.80193359 230.81640625 968.06640625 C230.87699219 968.70449219 230.93757813 969.34257813 231 970 C231.58383831 969.99815641 232.16767662 969.99631283 232.769207 969.99441338 C246.97412812 969.95024806 261.17903894 969.91715012 275.38401413 969.89637566 C282.25343033 969.8860623 289.12280071 969.87200086 295.9921875 969.84912109 C302.61870472 969.82706077 309.24518676 969.81543846 315.87174225 969.81024551 C318.40275066 969.8065437 320.93375639 969.79931522 323.46474457 969.78853989 C327.00357242 969.77406995 330.54220212 969.77202019 334.08105469 969.77294922 C335.13265778 969.76575867 336.18426086 969.75856812 337.26773071 969.75115967 C338.23244293 969.753909 339.19715515 969.75665833 340.19110107 969.75949097 C341.0280891 969.75764738 341.86507713 969.75580379 342.72742844 969.75390434 C345 970 345 970 349 972 C349.33 984.87 349.66 997.74 350 1011 C351.32 1011.33 352.64 1011.66 354 1012 C353.67 1013.65 353.34 1015.3 353 1017 C351.68 1017 350.36 1017 349 1017 C349 1031.19 349 1045.38 349 1060 C310.39 1060 271.78 1060 232 1060 C231.67 1063.63 231.34 1067.26 231 1071 C227.04566431 1071.98858392 224.0330527 1072.00635601 220.0234375 1071.83984375 C217.76927541 1071.79798541 217.76927541 1071.79798541 216 1074 C213.67724823 1074.40047444 211.34260643 1074.7397104 209 1075 C209.03029297 1075.88558594 209.06058594 1076.77117187 209.09179688 1077.68359375 C209.20575745 1081.05332015 209.31726184 1084.42311106 209.42724609 1087.79296875 C209.47480543 1089.23570849 209.52326989 1090.67841875 209.57275391 1092.12109375 C209.92518191 1102.4206223 210.04642357 1112.693968 210 1123 C216.93 1123 223.86 1123 231 1123 C232.92572521 1126.85145043 232.04883218 1131.80043252 232 1136 C238.27 1136 244.54 1136 251 1136 C251.02578125 1137.68609375 251.0515625 1139.3721875 251.078125 1141.109375 C251.13440214 1143.32294269 251.19174956 1145.53648336 251.25 1147.75 C251.27126953 1149.41675781 251.27126953 1149.41675781 251.29296875 1151.1171875 C251.32519531 1152.18710938 251.35742188 1153.25703125 251.390625 1154.359375 C251.41157227 1155.34389648 251.43251953 1156.32841797 251.45410156 1157.34277344 C252.39296394 1161.91279943 255.54867931 1163.67257127 259.1875 1166.3125 C262.74031214 1169.70740938 262.65917534 1171.15644959 263 1176 C262.90383126 1179.27077876 262.60186049 1182.49780371 262.25 1185.75 C262.17523437 1186.59949219 262.10046875 1187.44898438 262.0234375 1188.32421875 C261.93835937 1189.14019531 261.85328125 1189.95617188 261.765625 1190.796875 C261.65395996 1191.90047363 261.65395996 1191.90047363 261.54003906 1193.02636719 C260.84223824 1195.57655788 260.18348375 1196.49343968 258 1198 C255.1809082 1198.43237305 255.1809082 1198.43237305 251.80078125 1198.51171875 C250.16749878 1198.56138794 250.16749878 1198.56138794 248.5012207 1198.61206055 C247.11894287 1198.63695557 245.73666504 1198.66185059 244.3125 1198.6875 C239.919375 1198.790625 235.52625 1198.89375 231 1199 C231 1210.88 231 1222.76 231 1235 C239.00245768 1234.92110905 239.00245768 1234.92110905 247.00463867 1234.81982422 C248.50861206 1234.81233154 248.50861206 1234.81233154 250.04296875 1234.8046875 C251.06414795 1234.79421387 252.08532715 1234.78374023 253.13745117 1234.77294922 C256.12612167 1235.01000368 258.29423369 1235.74382898 261 1237 C261.28927276 1241.08905506 261.57389476 1245.17840665 261.85449219 1249.26806641 C261.95026685 1250.65487069 262.04724011 1252.0415928 262.14550781 1253.42822266 C263.42259106 1271.47679705 263.42259106 1271.47679705 263 1277 C262 1278 262 1278 259.86694336 1278.11352539 C258.49227905 1278.10567017 258.49227905 1278.10567017 257.08984375 1278.09765625 C255.60581055 1278.09282227 255.60581055 1278.09282227 254.09179688 1278.08789062 C253.05087891 1278.07951172 252.00996094 1278.07113281 250.9375 1278.0625 C249.89271484 1278.05798828 248.84792969 1278.05347656 247.77148438 1278.04882812 C245.18096546 1278.03699927 242.59047578 1278.01906319 240 1278 C240 1283.94 240 1289.88 240 1296 C237.68579271 1297.15710365 236.34114904 1297.13253337 233.765625 1297.14526367 C232.45416504 1297.15483345 232.45416504 1297.15483345 231.11621094 1297.16459656 C230.17036133 1297.16570938 229.22451172 1297.1668222 228.25 1297.16796875 C227.28094727 1297.17129715 226.31189453 1297.17462555 225.31347656 1297.17805481 C223.26237463 1297.1831227 221.21126444 1297.18546318 219.16015625 1297.18530273 C216.01288371 1297.18749104 212.86596055 1297.20565324 209.71875 1297.22460938 C207.72916787 1297.22754289 205.73958407 1297.22952797 203.75 1297.23046875 C202.33122559 1297.24124702 202.33122559 1297.24124702 200.88378906 1297.25224304 C200.00948242 1297.24916641 199.13517578 1297.24608978 198.234375 1297.24291992 C197.07760254 1297.24505745 197.07760254 1297.24505745 195.89746094 1297.24723816 C194 1297 194 1297 192 1295 C192 1289.39 192 1283.78 192 1278 C166.59 1278 141.18 1278 115 1278 C115 1283.61 115 1289.22 115 1295 C113 1297 113 1297 111.05784607 1297.24723816 C110.26588333 1297.24581314 109.47392059 1297.24438812 108.65795898 1297.24291992 C107.7604039 1297.24599655 106.86284882 1297.24907318 105.93809509 1297.25224304 C104.96723465 1297.24505753 103.99637421 1297.23787201 102.99609375 1297.23046875 C102.0024733 1297.23001053 101.00885284 1297.22955231 99.98512268 1297.2290802 C97.88272916 1297.22605609 95.78033791 1297.2181651 93.67797852 1297.20581055 C90.44734831 1297.18755565 87.21700451 1297.1853008 83.98632812 1297.18554688 C81.94791417 1297.1806318 79.90950217 1297.17480353 77.87109375 1297.16796875 C76.89820908 1297.16685593 75.9253244 1297.1657431 74.92295837 1297.16459656 C74.02855545 1297.15821671 73.13415253 1297.15183685 72.21264648 1297.14526367 C71.02589577 1297.13954597 71.02589577 1297.13954597 69.81517029 1297.13371277 C68 1297 68 1297 67 1296 C67 1290.06 67 1284.12 67 1278 C23.44 1278 -20.12 1278 -65 1278 C-65 1283.61 -65 1289.22 -65 1295 C-65.33 1295.66 -65.66 1296.32 -66 1297 C-81.51 1297 -97.02 1297 -113 1297 C-113.73371542 1291.86399205 -114.06272649 1288.50918422 -113.5625 1283.5625 C-113.46066406 1282.51191406 -113.35882812 1281.46132812 -113.25390625 1280.37890625 C-113.17011719 1279.59386719 -113.08632813 1278.80882812 -113 1278 C-113.66 1278.33 -114.32 1278.66 -115 1279 C-117.38047502 1279.09270774 -119.7313628 1279.12585532 -122.11181641 1279.11352539 C-123.20953117 1279.11374443 -123.20953117 1279.11374443 -124.329422 1279.1139679 C-126.75349876 1279.11327003 -129.17749912 1279.10548354 -131.6015625 1279.09765625 C-133.28022215 1279.09579162 -134.95888234 1279.09436793 -136.63754272 1279.09336853 C-141.05987038 1279.08954688 -145.48216528 1279.07971959 -149.90447998 1279.06866455 C-154.41548215 1279.05844286 -158.92648959 1279.05386928 -163.4375 1279.04882812 C-172.29168107 1279.03809702 -181.14583781 1279.02102481 -190 1279 C-189.98839844 1280.21558594 -189.97679687 1281.43117188 -189.96484375 1282.68359375 C-189.95546722 1284.26822764 -189.94636687 1285.85286318 -189.9375 1287.4375 C-189.92912109 1288.23994141 -189.92074219 1289.04238281 -189.91210938 1289.86914062 C-189.9034857 1291.91295221 -189.9477185 1293.95683902 -190 1296 C-191 1297 -191 1297 -192.90455627 1297.12025452 C-193.73728561 1297.11803391 -194.57001495 1297.11581329 -195.42797852 1297.11352539 C-196.36887833 1297.11344986 -197.30977814 1297.11337433 -198.27919006 1297.11329651 C-199.30209641 1297.10813522 -200.32500275 1297.10297394 -201.37890625 1297.09765625 C-202.42070541 1297.0962413 -203.46250458 1297.09482635 -204.53587341 1297.09336853 C-207.87811094 1297.0877508 -211.22028257 1297.0751953 -214.5625 1297.0625 C-216.82226466 1297.05748728 -219.08203037 1297.05292398 -221.34179688 1297.04882812 C-226.89455682 1297.03777561 -232.44726722 1297.0204991 -238 1297 C-238 1291.06 -238 1285.12 -238 1279 C-239.57652344 1279.01160156 -241.15304687 1279.02320313 -242.77734375 1279.03515625 C-244.83072799 1279.04453243 -246.8841135 1279.05363282 -248.9375 1279.0625 C-249.97841797 1279.07087891 -251.01933594 1279.07925781 -252.09179688 1279.08789062 C-253.08115234 1279.09111328 -254.07050781 1279.09433594 -255.08984375 1279.09765625 C-256.00628662 1279.10289307 -256.92272949 1279.10812988 -257.86694336 1279.11352539 C-260 1279 -260 1279 -261 1278 C-261.08874135 1274.89748799 -261.11518455 1271.8173188 -261.09765625 1268.71484375 C-261.0962413 1267.78402481 -261.09482635 1266.85320587 -261.09336853 1265.8941803 C-261.08775172 1262.90858809 -261.0751964 1259.92306971 -261.0625 1256.9375 C-261.05748716 1254.91862087 -261.05292388 1252.89974057 -261.04882812 1250.88085938 C-261.03777683 1245.92054428 -261.02050095 1240.96028468 -261 1236 C-257.82212459 1234.9407082 -255.57411057 1234.88541061 -252.23828125 1234.90234375 C-250.56088867 1234.90717773 -250.56088867 1234.90717773 -248.84960938 1234.91210938 C-247.68236328 1234.92048828 -246.51511719 1234.92886719 -245.3125 1234.9375 C-244.13365234 1234.94201172 -242.95480469 1234.94652344 -241.74023438 1234.95117188 C-238.82677211 1234.96296727 -235.91341137 1234.9794273 -233 1235 C-232.97494385 1234.05680908 -232.9498877 1233.11361816 -232.92407227 1232.1418457 C-232.82870191 1228.62871337 -232.72948275 1225.11573292 -232.62768555 1221.6027832 C-232.58448452 1220.08492245 -232.54279952 1218.56701774 -232.50268555 1217.04907227 C-232.44462188 1214.86200741 -232.38103344 1212.67516082 -232.31640625 1210.48828125 C-232.27974854 1209.17384033 -232.24309082 1207.85939941 -232.20532227 1206.50512695 C-232.03239364 1203.55300302 -231.67839286 1200.87049504 -231 1198 C-231.81267334 1198.00523682 -232.62534668 1198.01047363 -233.46264648 1198.01586914 C-237.12092322 1198.03656994 -240.77918767 1198.04963803 -244.4375 1198.0625 C-245.71689453 1198.07087891 -246.99628906 1198.07925781 -248.31445312 1198.08789062 C-249.52939453 1198.09111328 -250.74433594 1198.09433594 -251.99609375 1198.09765625 C-253.12200928 1198.10289307 -254.2479248 1198.10812988 -255.40795898 1198.11352539 C-258 1198 -258 1198 -259 1197 C-259.36687611 1192.80087761 -259.3718844 1188.58797374 -259.4375 1184.375 C-259.48326172 1183.19808594 -259.52902344 1182.02117187 -259.57617188 1180.80859375 C-259.70294492 1171.00848623 -259.70294492 1171.00848623 -256.41015625 1166.6640625 C-253.77527975 1164.10876679 -253.00362712 1164.00040951 -249.125 1163.5625 C-248.09375 1163.706875 -247.0625 1163.85125 -246 1164 C-246.00523682 1163.32420898 -246.01047363 1162.64841797 -246.01586914 1161.95214844 C-246.03668007 1158.88477511 -246.04967329 1155.81741667 -246.0625 1152.75 C-246.07087891 1151.68652344 -246.07925781 1150.62304688 -246.08789062 1149.52734375 C-246.09272461 1147.99013672 -246.09272461 1147.99013672 -246.09765625 1146.421875 C-246.10551147 1145.00793457 -246.10551147 1145.00793457 -246.11352539 1143.56542969 C-246 1141 -246 1141 -245 1137 C-240.05 1137 -235.1 1137 -230 1137 C-230 1132.05 -230 1127.1 -230 1122 C-222.41 1122 -214.82 1122 -207 1122 C-207.33 835.89 -207.66 549.78 -208 255 C-210.64 255 -213.28 255 -216 255 C-218.63978586 249.72042828 -217.31397671 241.22414333 -217.35009766 235.34423828 C-217.36661014 233.37536765 -217.39383757 231.40655578 -217.43212891 229.43798828 C-217.48719798 226.59115671 -217.50882122 223.74573169 -217.5234375 220.8984375 C-217.54610687 220.02730316 -217.56877625 219.15616882 -217.59213257 218.25863647 C-217.57127833 212.15748281 -216.17139918 207.60259504 -212 203 C-211.34 203 -210.68 203 -210 203 C-209.79375 202.46375 -209.5875 201.9275 -209.375 201.375 C-207.46749574 198.08021991 -204.95180616 195.40636372 -202 193 C-201.34 193 -200.68 193 -200 193 C-200 192.34 -200 191.68 -200 191 C-187.66246424 180.22597683 -173.2020629 174.57772047 -157.015625 175.02734375 C-154.19089477 175.00173091 -151.7397047 174.65448501 -149 174 C-149 173.34 -149 172.68 -149 172 C-144.64705882 168 -144.64705882 168 -141 168 C-141 167.34 -141 166.68 -141 166 C-114.62863284 150.76621923 -85.92906664 138.52993728 -55 138 C-55.10441406 136.82244141 -55.10441406 136.82244141 -55.2109375 135.62109375 C-55.70841082 125.96774245 -55.70841082 125.96774245 -52.25 121.875 C-50.0354038 119.62684931 -47.82334136 118.36944433 -45 117 C-44.98018066 115.96593018 -44.96036133 114.93186035 -44.93994141 113.86645508 C-44.86367773 110.01774381 -44.77499286 106.1694004 -44.68261719 102.32104492 C-44.64441304 100.65770752 -44.60954537 98.99428992 -44.578125 97.33081055 C-44.53228766 94.9350932 -44.47432533 92.53992391 -44.4140625 90.14453125 C-44.40251129 89.4047554 -44.39096008 88.66497955 -44.37905884 87.90278625 C-44.26418865 83.85394684 -43.78649164 80.65133817 -42 77 C-42.66 77 -43.32 77 -44 77 C-44.94930129 73.00487066 -45.12113477 69.29164046 -45.11352539 65.19018555 C-45.11367142 64.52621262 -45.11381744 63.86223969 -45.1139679 63.17814636 C-45.11327483 60.99763651 -45.10551099 58.81721356 -45.09765625 56.63671875 C-45.09578992 55.1192886 -45.09436703 53.60185785 -45.09336853 52.08442688 C-45.08956032 48.10108765 -45.07974459 44.1177852 -45.06866455 40.13446045 C-45.05841389 36.06555682 -45.05386309 31.99664721 -45.04882812 27.92773438 C-45.03812074 19.95180609 -45.02106478 11.97590763 -45 4 C-40.9839955 3.85438595 -36.96788504 3.71216006 -32.95166016 3.57275391 C-30.93255724 3.50201647 -28.91354238 3.42877926 -26.89453125 3.35546875 C-18.25610734 3.05759206 -9.64301273 2.93933545 -1 3 C-0.67 2.01 -0.34 1.02 0 0 Z M-203 254 C-203.86643467 331.09018033 -203.86643467 331.09018033 -203.92053413 408.17159653 C-203.87890985 416.66130746 -203.84687284 425.15104257 -203.81623887 433.64079933 C-203.76764661 447.08483027 -203.71505826 460.52884104 -203.6589582 473.97284265 C-203.50811235 510.12868305 -203.38279426 546.28461458 -203.26319927 582.44057041 C-203.25389616 585.24523012 -203.24451416 588.04988956 -203.23511171 590.85454893 C-203.04875665 646.5346941 -202.95295181 702.21427282 -202.96431574 757.89473188 C-202.9648436 760.50706028 -202.96531145 763.11938869 -202.9657681 765.73171711 C-202.9715 797.33816012 -202.98567694 828.94459829 -203.01858521 860.55102539 C-203.03742755 878.65120211 -203.05385038 896.75137766 -203.0625 914.8515625 C-203.06284495 915.57137515 -203.06318991 916.2911878 -203.06354532 917.03281295 C-203.08414145 962.29401564 -202.93332592 1007.55288027 -202.61044246 1052.81296746 C-202.57837303 1057.30940389 -202.5474841 1061.80584609 -202.51765215 1066.30229792 C-202.46662787 1073.98519826 -202.41007212 1081.66802983 -202.34712219 1089.350842 C-202.32683528 1091.89612043 -202.30806813 1094.44141149 -202.29090881 1096.98671293 C-202.26700356 1100.45485227 -202.23703412 1103.92288519 -202.20532227 1107.39096069 C-202.19956712 1108.40267448 -202.19381197 1109.41438827 -202.18788242 1110.45676005 C-202.17809329 1111.38500665 -202.16830416 1112.31325324 -202.15821838 1113.26962852 C-202.15176583 1114.06826234 -202.14531328 1114.86689616 -202.1386652 1115.689731 C-201.9879296 1118.20110223 -201.51695041 1120.54011218 -201 1123 C-200.58453045 1127.66249162 -200.30561499 1132.32845659 -200 1137 C-194.06 1137.33 -188.12 1137.66 -182 1138 C-182 1146.58 -182 1155.16 -182 1164 C-160.22 1164 -138.44 1164 -116 1164 C-116 1155.09 -116 1146.18 -116 1137 C-112.04 1137 -108.08 1137 -104 1137 C-103.67 1133.04 -103.34 1129.08 -103 1125 C-93.76 1125 -84.52 1125 -75 1125 C-74.67 1128.63 -74.34 1132.26 -74 1136 C-70.37 1136.33 -66.74 1136.66 -63 1137 C-62.67 1145.58 -62.34 1154.16 -62 1163 C-23.06 1163 15.88 1163 56 1163 C56.33 1154.75 56.66 1146.5 57 1138 C62.94 1137.67 68.88 1137.34 75 1137 C75 1132.38 75 1127.76 75 1123 C77.31 1123 79.62 1123 82 1123 C84.77576366 1120.85984814 84.77576366 1120.85984814 87 1118 C87.69480469 1117.23042969 88.38960937 1116.46085937 89.10546875 1115.66796875 C123.65279824 1074.50933043 138.48002378 1015.99339199 152 965 C152.21013733 964.21059021 152.42027466 963.42118042 152.63677979 962.60784912 C169.97334624 897.3598048 181.27664429 830.89343032 190 764 C190.12955078 763.00697876 190.25910156 762.01395752 190.39257812 760.99084473 C193.7618197 735.01042005 196.1308479 708.98844947 198.10546875 682.8671875 C198.17847198 681.90858322 198.25147522 680.94997894 198.32669067 679.96232605 C198.72816013 674.67277387 199.11452701 669.38250986 199.48681641 664.09082031 C199.65376326 661.81313578 199.82091304 659.53546611 199.98828125 657.2578125 C200.05991989 656.19118378 200.13155853 655.12455505 200.20536804 654.02560425 C200.31701042 652.53783981 200.31701042 652.53783981 200.4309082 651.02001953 C200.49268753 650.14556183 200.55446686 649.27110413 200.61811829 648.37014771 C201 646 201 646 202.00646305 644.36679649 C203.46435267 640.89382244 203.28761142 637.46726346 203.2784729 633.7611084 C203.2871615 632.50000803 203.2871615 632.50000803 203.29602563 631.21343088 C203.31307543 628.38378518 203.31590818 625.55430238 203.31884766 622.72460938 C203.32815323 620.69144291 203.33832284 618.65828025 203.34928894 616.62512207 C203.37680982 611.04482267 203.39184858 605.46454905 203.40471697 599.88419914 C203.42056075 593.88196003 203.44737061 587.87976847 203.4727478 581.87756348 C203.51449865 571.63388581 203.54879598 561.3902048 203.578125 551.14648438 C203.6072291 540.98760279 203.6413404 530.82876139 203.68261719 520.66992188 C204.04319256 431.77922665 204 342.89220556 204 254 C69.69 254 -64.62 254 -203 254 Z " fill="#0D0D0C" transform="translate(967,301)"/>
<path d="M0 0 C0.99 0.495 0.99 0.495 2 1 C2.06393028 63.02786702 2.07514669 125.05560961 2.00916511 187.08348197 C2.00313936 192.77710945 1.99784838 198.47073666 1.99347454 204.16436565 C1.97913212 222.6235736 1.94169926 241.08227903 1.84640503 259.54125977 C1.8214401 264.52079172 1.80791855 269.50014376 1.80471802 274.47973633 C1.80054403 280.22476091 1.77306433 285.96918349 1.72663116 291.71401787 C1.71392429 293.74559501 1.70916523 295.77724353 1.71382904 297.80885506 C1.73577789 310.00308685 0.29360883 320.48081369 -3.44111061 332.0941143 C-6.70143164 343.21223417 -6.63293114 355.48717986 -7 367 C-7.02868164 367.79680176 -7.05736328 368.59360352 -7.08691406 369.41455078 C-7.65827362 387.2026372 -8.43221502 413.69521966 2.03442383 428.96875 C4.89779353 433.93161279 4.60287224 439.0237916 4.609375 444.62109375 C4.62591125 445.72099136 4.64244751 446.82088898 4.65948486 447.95411682 C4.70786136 451.44863529 4.72931371 454.94271885 4.75 458.4375 C4.7781682 460.81447488 4.8080968 463.1914296 4.83984375 465.56835938 C4.91361762 471.37882757 4.9653208 477.18917398 5 483 C2.69 483.33 0.38 483.66 -2 484 C-2.33 487.63 -2.66 491.26 -3 495 C-8.28 495 -13.56 495 -19 495 C-19 503.58 -19 512.16 -19 521 C-37.81 521 -56.62 521 -76 521 C-76 512.75 -76 504.5 -76 496 C-82.6 496 -89.2 496 -96 496 C-96 491.38 -96 486.76 -96 482 C-103.59 482 -111.18 482 -119 482 C-117.74642004 478.23926012 -116.07854873 477.43993705 -113 475 C-104.66965334 465.67561197 -98.68131908 455.06770042 -93 444 C-92.56574707 443.15743652 -92.13149414 442.31487305 -91.68408203 441.44677734 C-57.08732427 373.55522238 -40.81099832 295.35559175 -27 221 C-26.76083862 219.71388824 -26.76083862 219.71388824 -26.5168457 218.40179443 C-14.8629337 155.42427571 -6.67230736 91.53711188 -2.98681641 27.59448242 C-2.44002212 18.28389158 -1.68493955 9.18780823 0 0 Z " fill="#8E8E8E" transform="translate(1168,942)"/>
<path d="M0 0 C0.86515143 -0.00115384 1.73030285 -0.00230769 2.62167099 -0.0034965 C5.53459991 -0.00615348 8.44747408 -0.00164851 11.3604002 0.00279331 C13.46423899 0.00235742 15.56807774 0.00148219 17.67191619 0.00020415 C23.46402741 -0.00203733 29.25612022 0.00197577 35.0482291 0.00698221 C41.29018999 0.01129146 47.53214979 0.00983994 53.77411175 0.00907993 C64.59237567 0.008555 75.41063216 0.01166377 86.22889423 0.01731777 C97.57611208 0.02323304 108.92332753 0.02708336 120.27054691 0.02817059 C120.97585373 0.02823933 121.68116054 0.02830806 122.40784028 0.02837889 C125.98967835 0.02871722 129.57151642 0.0290186 133.15335449 0.02930576 C158.52923069 0.03140666 183.90510376 0.03814537 209.2809782 0.04760838 C233.93462387 0.05679145 258.58826867 0.06387573 283.2419157 0.06811619 C284.00173253 0.06824771 284.76154936 0.06837924 285.54439094 0.06851475 C293.1747234 0.06983326 300.80505586 0.07110908 308.43538833 0.07235361 C323.97951464 0.07488988 339.52364091 0.07771114 355.06776714 0.08070469 C355.78247456 0.08084198 356.49718197 0.08097927 357.23354718 0.08112072 C404.96753919 0.09032273 452.70152936 0.10618887 500.43551922 0.12304783 C500.60834042 2.78943204 500.77374664 5.45598636 500.93551922 8.12304783 C500.98321453 8.84750095 501.03090984 9.57195408 501.08005047 10.31836033 C501.55289181 18.28911431 501.43551922 26.08379595 501.43551922 34.12304783 C331.81551922 34.12304783 162.19551922 34.12304783 -12.56448078 34.12304783 C-13.68948078 21.74804783 -13.68948078 21.74804783 -13.66213703 17.23632908 C-13.65891438 16.27920017 -13.65569172 15.32207127 -13.65237141 14.33593845 C-13.6439925 13.37880955 -13.63561359 12.42168064 -13.62698078 11.43554783 C-13.62246906 10.43587986 -13.61795734 9.43621189 -13.61330891 8.40625095 C-13.60169263 5.97844986 -13.58536246 3.55078383 -13.56448078 1.12304783 C-9.04985378 -0.00820439 -4.62241329 -0.01511325 0 0 Z " fill="#BFBFBF" transform="translate(723.5644807815552,1540.8769521713257)"/>
<path d="M0 0 C0 11.88 0 23.76 0 36 C-140.25 36 -280.5 36 -425 36 C-425 25.11 -425 14.22 -425 3 C-405.36779078 1.88774455 -385.76968118 1.79904859 -366.11271405 1.72952008 C-361.19462885 1.71106765 -356.27656957 1.68720038 -351.35850525 1.66392517 C-342.92054235 1.6246368 -334.48257133 1.58833309 -326.04458618 1.5541687 C-312.77799376 1.5003616 -299.51143229 1.4405493 -286.24487305 1.37915039 C-285.13637729 1.37402266 -284.02788153 1.36889493 -282.885795 1.36361182 C-278.39184283 1.34280491 -273.8978908 1.32196738 -269.40393919 1.30103976 C-263.75254936 1.27472456 -258.1011588 1.24859304 -252.44976616 1.22288704 C-221.64207974 1.08272771 -190.83467906 0.91821637 -160.02734375 0.71484375 C-158.68826918 0.70603235 -158.68826918 0.70603235 -157.3221426 0.69704294 C-141.28299616 0.59145326 -125.24386999 0.48296922 -109.20477295 0.37011719 C-100.16386855 0.30651635 -91.12295685 0.24410968 -82.08203125 0.18359375 C-81.02841951 0.17651531 -81.02841951 0.17651531 -79.95352268 0.16929388 C-53.30217394 -0.00890493 -26.65187337 -0.04812324 0 0 Z " fill="#BFBFBF" transform="translate(1180,515)"/>
<path d="M0 0 C0.64170484 -0.00156211 1.28340967 -0.00312423 1.94456011 -0.00473368 C4.10171494 -0.00873298 6.2587992 -0.00556275 8.41595459 -0.00241089 C9.97289412 -0.00373604 11.52983334 -0.00548329 13.08677197 -0.00761795 C17.36310791 -0.01213177 21.63942056 -0.01024898 25.91575694 -0.00719023 C29.56730865 -0.00535598 33.2188549 -0.00715049 36.87040633 -0.00897896 C48.82877795 -0.01491907 60.78713043 -0.00876861 72.74549913 -0.00015068 C76.88228449 0.00268394 81.01907009 0.0048394 85.15585583 0.0070219 C112.81846886 0.02194802 140.48102 0.05917521 168.14358896 0.11002254 C175.3843799 0.12326214 182.62517212 0.13492287 189.8659668 0.14590454 C210.77857205 0.17836752 231.69100944 0.22550548 252.60346031 0.31410027 C254.37595997 0.32158656 256.14845969 0.32905899 257.92095947 0.33651733 C258.79134814 0.34018551 259.66173681 0.34385368 260.55850089 0.347633 C266.66898036 0.37240321 272.77943422 0.38707292 278.88995361 0.39743042 C286.30854612 0.41015902 293.72692836 0.4366965 301.14539999 0.48139608 C304.90277045 0.50370196 308.65988698 0.51993594 312.41732979 0.51890182 C316.47651058 0.51802303 320.53488656 0.54807209 324.59393311 0.58108521 C326.34580114 0.57353871 326.34580114 0.57353871 328.13306046 0.56583977 C335.67794511 0.66170217 341.70878157 2.09604611 348.61029053 5.12698364 C349.76400146 5.63358521 350.9177124 6.14018677 352.10638428 6.66213989 C360.58471879 11.06456857 366.88831519 16.42553342 373.61029053 23.12698364 C374.40306396 23.81405396 375.1958374 24.50112427 376.01263428 25.20901489 C376.53986084 25.84194458 377.0670874 26.47487427 377.61029053 27.12698364 C377.21014404 29.24685669 377.21014404 29.24685669 376.61029053 31.12698364 C375.44434105 31.12365273 375.44434105 31.12365273 374.25483704 31.12025452 C316.93423305 30.96652355 259.61714138 31.21756614 202.29779053 31.56448364 C200.93804808 31.57269339 200.93804808 31.57269339 199.55083609 31.58106899 C158.93369602 31.82648739 118.31675635 32.09569675 77.70013428 32.41604614 C76.59293223 32.42477104 76.59293223 32.42477104 75.46336246 32.43367219 C60.98500478 32.54788897 46.50667554 32.6650039 32.02840328 32.7896204 C5.88838015 33.01443775 -20.24859337 33.20460687 -46.38970947 33.12698364 C-45.21242157 27.84252749 -42.09346346 24.96740752 -38.38970947 21.12698364 C-37.7116626 20.42315552 -37.03361572 19.71932739 -36.33502197 18.99417114 C-26.6457174 9.64013663 -13.84143238 0.00455619 0 0 Z " fill="#BFBFBF" transform="translate(801.3897094726563,480.8730163574219)"/>
<path d="M0 0 C23.1 0 46.2 0 70 0 C68.39125 6.249375 66.7825 12.49875 65.125 18.9375 C63.32107797 25.99255943 61.52540904 33.04967682 59.73419189 40.10797119 C59.26617725 41.95151078 58.79760817 43.79490977 58.32830811 45.63812256 C46.59372731 91.73705746 36.97142969 138.26490394 29.44604492 185.23272705 C28.85707491 188.88671052 28.25389767 192.5382849 27.65060425 196.18992615 C23.87528622 219.07420319 20.52863619 242.00210244 17.48413086 264.99511719 C16.12983927 275.16369991 14.65613792 285.29033832 12.92578125 295.40234375 C11.25353904 305.18125362 9.93770005 314.95068987 8.875 324.8125 C8.56466978 327.65289248 8.24942777 330.49268295 7.9296875 333.33203125 C7.85436798 334.0104306 7.77904846 334.68882996 7.70144653 335.38778687 C7.27878357 339.05864382 6.69867273 342.63535762 5.921875 346.24609375 C4.27593986 354.78368249 4.524598 363.58578242 4.375 372.25 C4.33672527 374.06772509 4.29766842 375.88543389 4.2578125 377.703125 C4.18722179 381.03801162 4.11921418 384.37289736 4.06005859 387.70800781 C4.04593933 388.43427368 4.03182007 389.16053955 4.01727295 389.90881348 C4.00083655 391.89872161 4.05636551 393.88883913 4.11572266 395.87792969 C4 399 4 399 2 402 C1.63566627 404.12337771 1.63566627 404.12337771 1.5859375 406.44921875 C1.54726563 407.29677734 1.50859375 408.14433594 1.46875 409.01757812 C1.4378125 409.89865234 1.406875 410.77972656 1.375 411.6875 C1.33632813 412.58017578 1.29765625 413.47285156 1.2578125 414.39257812 C1.16359782 416.5948462 1.07798412 418.79710722 1 421 C0.67 421 0.34 421 0 421 C-0.15231302 380.79779021 -0.29731272 340.59555962 -0.4332476 300.39329099 C-0.44950772 295.58616843 -0.46582499 290.77904607 -0.48217773 285.97192383 C-0.48543066 285.01539705 -0.48868358 284.05887028 -0.49203508 283.07335784 C-0.537618 269.70433544 -0.58626647 256.33532733 -0.6374263 242.96632515 C-0.72560939 219.92158469 -0.80772659 196.87683095 -0.87890625 173.83203125 C-0.88168644 172.93636769 -0.88446663 172.04070412 -0.88733107 171.11789924 C-1.06336783 114.06990956 -0.92915163 57.04254667 0 0 Z " fill="#8E8E8E" transform="translate(764,555)"/>
<path d="M0 0 C2.32306238 0.00066076 4.64612476 0.0013034 6.96918714 0.00194407 C46.12618258 0.0128641 85.28316891 0.03289646 124.44015443 0.06315851 C124.46903958 3.20897275 124.48691366 6.3547532 124.50265443 9.50065851 C124.51103334 10.39849054 124.51941225 11.29632257 124.52804506 12.22136164 C124.53126771 13.07536554 124.53449037 13.92936945 124.53781068 14.80925226 C124.5430475 15.60001154 124.54828432 16.39077082 124.55367982 17.2054925 C124.44015443 19.06315851 124.44015443 19.06315851 123.44015443 20.06315851 C120.3059869 20.16199197 117.1938904 20.19389548 114.0592798 20.18461847 C112.55158648 20.18602311 112.55158648 20.18602311 111.01343471 20.18745613 C107.58721585 20.18931068 104.16104671 20.1838342 100.73483217 20.17839289 C98.25550087 20.17798371 95.77616947 20.17796953 93.29683816 20.17831659 C87.12544287 20.17783655 80.95406817 20.17233324 74.78267823 20.16457582 C69.61787464 20.15819746 64.45307327 20.15405813 59.28826654 20.15127802 C-23.53883179 20.10558349 -106.36577029 19.85335578 -189.19249749 19.61777735 C-204.42960927 19.57447124 -219.66672353 19.53213195 -234.90383971 19.49040461 C-235.99446937 19.48741761 -237.08509903 19.48443061 -238.20877808 19.4813531 C-243.68623726 19.46635634 -249.16369648 19.45137484 -254.64115572 19.43640089 C-299.28072569 19.3143486 -343.9202881 19.18969732 -388.55984557 19.06315851 C-388.67254 12.95261611 -388.45588925 7.11145338 -387.55984557 1.06315851 C-353.60157387 0.88347803 -319.64323693 0.718545 -285.68484557 0.56315851 C-284.38809244 0.55720997 -283.09133931 0.55126143 -281.75529063 0.54513264 C-204.15564753 0.19000199 -126.55700069 -0.00193038 0 0 Z " fill="#BEBEBE" transform="translate(1100.5598455667496,1474.9368414878845)"/>
<path d="M0 0 C2.47937083 -0.00389744 4.95874101 -0.00823422 7.43811035 -0.01298523 C12.61891855 -0.02041321 17.79965857 -0.02018218 22.98046875 -0.01489258 C29.55480526 -0.00911851 36.12885814 -0.02599618 42.70314789 -0.04923725 C47.82191546 -0.06411704 52.94061709 -0.06482686 58.05940247 -0.06172752 C60.47980814 -0.06223414 62.90021816 -0.06734474 65.32060242 -0.07753944 C86.06013485 -0.15415679 106.41000707 0.88821794 126.21875 7.48828125 C127.44013672 7.88192871 128.66152344 8.27557617 129.91992188 8.68115234 C139.73439894 11.9158815 149.17234513 15.66820257 158.40625 20.30078125 C159.01871582 20.60226074 159.63118164 20.90374023 160.26220703 21.21435547 C167.52636335 24.81792747 174.39558001 28.80264901 180.40625 34.30078125 C180.40625 34.63078125 180.40625 34.96078125 180.40625 35.30078125 C116.64411375 35.37271756 52.88589403 35.21411853 -10.87522638 34.85539913 C-22.0233507 34.79279086 -33.17149137 34.73334196 -44.3196336 34.67402363 C-67.07769067 34.55286598 -89.835727 34.42816967 -112.59375 34.30078125 C-108.98166484 30.58836039 -105.55221455 27.83210943 -101.09375 25.17578125 C-99.43859375 24.18191406 -99.43859375 24.18191406 -97.75 23.16796875 C-96.18765625 22.24371094 -96.18765625 22.24371094 -94.59375 21.30078125 C-93.6759375 20.72585938 -92.758125 20.1509375 -91.8125 19.55859375 C-89.59375 18.30078125 -89.59375 18.30078125 -87.59375 18.30078125 C-87.59375 17.64078125 -87.59375 16.98078125 -87.59375 16.30078125 C-76.12507392 11.78370678 -64.65144967 7.80698568 -52.65625 4.92578125 C-51.1868396 4.5687915 -51.1868396 4.5687915 -49.68774414 4.20458984 C-33.07113454 0.3688176 -16.98560003 -0.0112089 0 0 Z " fill="#BFBFBF" transform="translate(934.59375,442.69921875)"/>
<path d="M0 0 C3.4375 0 3.4375 0 7 1 C18.42524609 15.68960211 15.29393558 45.41731512 15.19784164 62.7987442 C15.1873537 64.84098707 15.18026053 66.88321546 15.17422485 68.92547607 C15.0117551 123.00182366 12.94594256 177.03748073 9.62915039 231.01171875 C9.03840823 240.74364881 8.64335568 250.47484483 8.42919922 260.22265625 C7.83654218 281.21964858 7.83654218 281.21964858 1 288 C-2.0625 288.8125 -2.0625 288.8125 -5 288 C-9.13949133 284.09048041 -10.73659783 279.54429173 -11.31618214 273.94588852 C-11.34653396 272.85803181 -11.37688578 271.77017509 -11.40815735 270.64935303 C-11.44604213 269.39432102 -11.48392691 268.13928902 -11.52295971 266.84622574 C-11.55407817 265.46748431 -11.58457091 264.08872865 -11.61450195 262.70996094 C-11.65222447 261.24389046 -11.69013642 259.77782484 -11.72822285 258.31176376 C-12.15775253 240.6988496 -12.16474766 223.08082535 -12.16725707 205.46370792 C-12.16798024 202.59503305 -12.17013741 199.72636264 -12.17275429 196.8576889 C-12.18192242 186.78061123 -12.1860992 176.70354655 -12.18530273 166.62646484 C-12.1847011 157.33948841 -12.19529197 148.05256987 -12.2110464 138.76560807 C-12.22423925 130.69151745 -12.22948192 122.61744553 -12.22884732 114.54334426 C-12.22859619 109.76473789 -12.23123026 104.98618348 -12.24202538 100.2075882 C-12.40934373 20.49075183 -12.40934373 20.49075183 -2 2 C-1.34 1.34 -0.68 0.68 0 0 Z " fill="#D5D5D5" transform="translate(799,1116)"/>
<path d="M0 0 C2.0588313 -0.00072081 4.11765631 -0.00287349 6.17648602 -0.00549722 C13.37597598 -0.01465709 20.57544775 -0.0188418 27.77494335 -0.01804566 C34.46801034 -0.01743914 41.16099825 -0.02812593 47.85404515 -0.04378933 C53.63621689 -0.05683598 59.41836253 -0.06223117 65.20054889 -0.06159025 C68.6398681 -0.06133552 72.07911582 -0.06417663 75.51842022 -0.0747683 C79.32824428 -0.08619205 83.13795646 -0.08172062 86.94779491 -0.07566285 C88.08423443 -0.08128236 89.22067394 -0.08690187 90.39155102 -0.09269166 C91.42269024 -0.08849717 92.45382946 -0.08430268 93.51621532 -0.07998109 C94.41496506 -0.08052586 95.31371479 -0.08107062 96.23969936 -0.0816319 C98.39213085 0.16725707 98.39213085 0.16725707 100.39213085 2.16725707 C101.77402877 10.29351211 101.50608864 18.51301552 101.45463085 26.72975707 C101.44960451 28.13405235 101.44504361 29.53834937 101.44095898 30.9426477 C101.42924687 34.35086956 101.4113139 37.75906907 101.39213085 41.16725707 C96.44213085 41.49725707 91.49213085 41.82725707 86.39213085 42.16725707 C86.39213085 41.83725707 86.39213085 41.50725707 86.39213085 41.16725707 C85.36289249 41.17058799 85.36289249 41.17058799 84.31286144 41.1739862 C75.27679598 41.20173673 66.24073086 41.21933398 57.20463085 41.22975707 C56.4679203 41.23061309 55.73120975 41.23146911 54.97217464 41.23235106 C30.21251461 41.25767671 5.46121426 41.05304687 -19.29536915 40.66725707 C-20.06310532 40.65529925 -20.83084148 40.64334144 -21.62184238 40.63102126 C-30.95067453 40.48495294 -40.27926097 40.32745396 -49.60786915 40.16725707 C-49.60786915 27.29725707 -49.60786915 14.42725707 -49.60786915 1.16725707 C-33.05733506 0.28159942 -16.57247059 0.00327191 0 0 Z " fill="#07131C" transform="translate(942.6078691482544,1496.8327429294586)"/>
<path d="M0 0 C20.79 0 41.58 0 63 0 C63 26.73 63 53.46 63 81 C42.21 81 21.42 81 0 81 C0 54.27 0 27.54 0 0 Z " fill="#B67232" transform="translate(1247,1276)"/>
<path d="M0 0 C9.838125 0.020625 19.67625 0.04125 29.8125 0.0625 C29.8125 20.5225 29.8125 40.9825 29.8125 62.0625 C2.7525 62.0625 -24.3075 62.0625 -52.1875 62.0625 C-52.208125 53.11125 -52.22875 44.16 -52.25 34.9375 C-52.259104 32.1207373 -52.26820801 29.30397461 -52.27758789 26.40185547 C-52.2805094 24.1611333 -52.28305741 21.92041059 -52.28515625 19.6796875 C-52.29027222 18.52283447 -52.29538818 17.36598145 -52.30065918 16.17407227 C-52.30078003 15.05814697 -52.30090088 13.94222168 -52.30102539 12.79248047 C-52.303246 11.82873505 -52.30546661 10.86498962 -52.30775452 9.87203979 C-52.17919966 6.8685769 -51.73842001 4.01532758 -51.1875 1.0625 C-34.12909818 -0.15880942 -17.09200639 -0.05078747 0 0 Z " fill="#B67132" transform="translate(979.1875,310.9375)"/>
<path d="M0 0 C39.93 0 79.86 0 121 0 C121 12.87 121 25.74 121 39 C120.67 39 120.34 39 120 39 C120 26.46 120 13.92 120 1 C111.75 1 103.5 1 95 1 C95.01160156 3.73152344 95.02320313 6.46304687 95.03515625 9.27734375 C95.04294642 11.91170129 95.04902341 14.54605757 95.05493164 17.18041992 C95.05997231 19.01668875 95.06680477 20.85295354 95.07543945 22.68920898 C95.08751672 25.32276401 95.09323081 27.95626616 95.09765625 30.58984375 C95.10281754 31.41588608 95.10797882 32.24192841 95.11329651 33.09300232 C95.11349205 35.06236368 95.06204152 37.03161614 95 39 C93.13738962 40.86261038 90.47447533 40.12657958 87.99589539 40.13552856 C87.13301407 40.13350433 86.27013275 40.1314801 85.38110352 40.12939453 C84.02508026 40.13202301 84.02508026 40.13202301 82.6416626 40.13470459 C79.63739126 40.139125 76.63317825 40.13618421 73.62890625 40.1328125 C71.55004363 40.13348554 69.47118108 40.13445557 67.39231873 40.13571167 C63.02838392 40.13718895 58.66446954 40.13503335 54.30053711 40.13037109 C48.69685265 40.12467733 43.09321612 40.1279504 37.48953342 40.13394356 C33.19426612 40.13755138 28.89901024 40.1364095 24.6037426 40.13381577 C22.53720023 40.13314693 20.47065685 40.13397342 18.40411568 40.13629532 C15.51881272 40.13882506 12.63358811 40.13497649 9.74829102 40.12939453 C8.45700539 40.13243088 8.45700539 40.13243088 7.13963318 40.13552856 C1.22852626 40.11426313 1.22852626 40.11426313 -1 39 C-1.20992362 25.96141051 -0.5223974 13.05993496 0 0 Z " fill="#08131D" transform="translate(1073,1498)"/>
<path d="M0 0 C31.68 0 63.36 0 96 0 C96 13.2 96 26.4 96 40 C63.99 40 31.98 40 -1 40 C-1 2 -1 2 0 0 Z " fill="#07131C" transform="translate(768,1498)"/>
<path d="M0 0 C14.19 0 28.38 0 43 0 C43 26.73 43 53.46 43 81 C28.81 81 14.62 81 0 81 C0 54.27 0 27.54 0 0 Z " fill="#B87333" transform="translate(1197,1276)"/>
<path d="M0 0 C0.84914474 -0.00014603 1.69828949 -0.00029205 2.57316589 -0.0004425 C5.37595181 0.00025338 8.17867102 0.00803063 10.98144531 0.01586914 C12.92628951 0.01773447 14.87113417 0.01915783 16.815979 0.02015686 C21.9320404 0.02397297 27.04807336 0.03379555 32.16412354 0.04486084 C37.38577896 0.05509441 42.60743899 0.05965865 47.82910156 0.06469727 C58.07260363 0.07541861 68.31608461 0.09248419 78.55957031 0.11352539 C77.7801709 0.73283936 77.00077148 1.35215332 76.19775391 1.99023438 C67.33032229 9.12701512 59.93724414 17.49816976 55.96533203 28.29296875 C55.70050018 29.00956161 55.43566833 29.72615448 55.16281128 30.46446228 C54.96374176 31.00865311 54.76467224 31.55284393 54.55957031 32.11352539 C43.95547893 32.28512312 33.35131382 32.45161488 22.74707031 32.61352539 C21.9693779 32.62540264 21.19168549 32.63727989 20.39042664 32.64951706 C-2.55407038 32.99843226 -25.49273178 33.28418905 -48.44042969 33.11352539 C-47.26314179 27.82906924 -44.14418367 24.95394927 -40.44042969 21.11352539 C-39.76238281 20.40969727 -39.08433594 19.70586914 -38.38574219 18.98071289 C-27.70918487 8.67358662 -15.05307296 -0.06772332 0 0 Z " fill="#8E8E8E" transform="translate(803.4404296875,480.886474609375)"/>
<path d="M0 0 C4.55972829 0.01038545 9.11946242 0.01482963 13.67919922 0.01983643 C22.56332946 0.03043575 31.44743184 0.04741346 40.33154297 0.06866455 C40.33154297 0.72866455 40.33154297 1.38866455 40.33154297 2.06866455 C38.82763672 3.51397705 38.82763672 3.51397705 36.76904297 5.19366455 C27.08779822 13.48943081 21.84529658 21.77052691 18.33154297 34.06866455 C-7.40845703 34.06866455 -33.14845703 34.06866455 -59.66845703 34.06866455 C-59.66845703 23.17866455 -59.66845703 12.28866455 -59.66845703 1.06866455 C-39.77310781 -0.09571764 -19.92075085 -0.0502912 0 0 Z " fill="#8E8E8E" transform="translate(814.66845703125,516.9313354492188)"/>
<path d="M0 0 C0 10.89 0 21.78 0 33 C-26.4 33 -52.8 33 -80 33 C-80 22.44 -80 11.88 -80 1 C-72.23413079 0.86861369 -64.46826548 0.73754608 -56.7023468 0.60920715 C-53.08394028 0.54932856 -49.46554389 0.48894888 -45.84716797 0.42724609 C-30.56393561 0.16698421 -15.28606327 -0.0683176 0 0 Z " fill="#84340B" transform="translate(1008,385)"/>
<path d="M0 0 C38.44420169 -0.11903799 76.88836162 -0.21525308 115.33272552 -0.26155376 C118.40981741 -0.26529248 121.48690925 -0.26905847 124.56400108 -0.27283859 C125.7035568 -0.27422121 125.7035568 -0.27422121 126.86613385 -0.27563176 C138.38186774 -0.28986564 149.89754386 -0.31504221 161.41324425 -0.34589767 C174.59766082 -0.38118448 187.78201305 -0.40229545 200.96647847 -0.40466344 C207.7693475 -0.40625427 214.57206301 -0.41430098 221.37488747 -0.44006729 C227.64451563 -0.46312121 233.91387292 -0.46771974 240.18353248 -0.457425 C242.46768538 -0.45695129 244.75185137 -0.46333696 247.0359633 -0.4770261 C250.13284383 -0.49457655 253.22871876 -0.48772617 256.32559776 -0.47448349 C257.67927867 -0.49093709 257.67927867 -0.49093709 259.06030667 -0.50772309 C265.12773464 -0.44462943 265.12773464 -0.44462943 268.29762459 2.0437479 C268.99726263 3.01865822 268.99726263 3.01865822 269.71103477 4.0132637 C239.77361988 4.19586242 209.83611377 4.36000032 179.89853477 4.5132637 C178.16078159 4.52218651 178.16078159 4.52218651 176.38792229 4.53128958 C89.93079161 4.97397638 3.47528991 5.09734823 -102.80595869 5.07642221 C-105.29697811 5.07576158 -107.78799754 5.07511889 -110.27901697 5.07447815 C-152.61567219 5.06346742 -194.95231912 5.0432689 -237.28896523 5.0132637 C-236.95896523 4.0232637 -236.62896523 3.0332637 -236.28896523 2.0132637 C-214.03210228 1.1893999 -191.79611921 0.81804644 -169.52524614 0.71000385 C-165.90000289 0.69180714 -162.27477868 0.67064901 -158.6495508 0.64964068 C-146.54783637 0.57977562 -134.44607875 0.52110753 -122.34429169 0.465446 C-119.16252355 0.45075705 -115.9807568 0.43579572 -112.79899025 0.42076874 C-78.0239936 0.25713069 -43.24889959 0.13198668 -8.4736824 0.02603912 C-5.64912137 0.01743218 -2.82456059 0.00874912 0 0 Z " fill="#B9B9B9" transform="translate(952.2889652252197,1466.9867362976074)"/>
<path d="M0 0 C3.3 0 6.6 0 10 0 C10.13338726 8.55688909 10.2638917 17.11381611 10.39115143 25.6707983 C10.45038645 29.64831061 10.51045386 33.62580591 10.57275391 37.60327148 C10.91343813 59.40409094 11.07086911 81.19643598 11 103 C8.03 103 5.06 103 2 103 C-6.44838504 85.65311104 -8.23487451 66.67235589 -8.25 47.625 C-8.25067474 46.86499695 -8.25134949 46.1049939 -8.25204468 45.32196045 C-8.22933422 29.23744022 -7.29338884 14.70208817 0 0 Z " fill="#84340B" transform="translate(1183,1265)"/>
<path d="M0 0 C-2.04490709 2.14496371 -4.13725713 3.86634893 -6.5625 5.5625 C-16.91249102 13.28694183 -24.24630265 22.4926053 -30 34 C-51.12 34 -72.24 34 -94 34 C-90.03647924 30.03647924 -87.17428144 27.65991067 -82.5 24.875 C-80.84484375 23.88113281 -80.84484375 23.88113281 -79.15625 22.8671875 C-77.59390625 21.94292969 -77.59390625 21.94292969 -76 21 C-75.0821875 20.42507813 -74.164375 19.85015625 -73.21875 19.2578125 C-71 18 -71 18 -69 18 C-69 17.34 -69 16.68 -69 16 C-47.19882124 7.41334647 -23.68686532 -0.29832324 0 0 Z " fill="#8E8E8E" transform="translate(916,443)"/>
<path d="M0 0 C1.93252585 -0.01184352 3.8649976 -0.03168261 5.79745483 -0.05181885 C12.47357965 -0.05818009 18.45724861 0.27338963 24.87680054 2.17523193 C25.86680054 3.16523193 25.86680054 3.16523193 26.87680054 4.17523193 C26.74150085 6.19343567 26.74150085 6.19343567 25.87680054 8.17523193 C19.85393066 11.89537843 12.07618547 11.69125446 5.24008179 11.83538818 C4.13457977 11.87015762 3.02907776 11.90492706 1.89007568 11.94075012 C-0.46302505 12.01367991 -2.81631424 12.08073222 -5.16973877 12.14233398 C-11.27746088 12.30236432 -17.38382146 12.50384759 -23.49038696 12.70257568 C-24.68390274 12.74040161 -25.87741852 12.77822754 -27.10710144 12.81719971 C-36.23487267 13.1167476 -45.32943567 13.61744423 -54.43569946 14.30023193 C-82.08995873 16.32301153 -82.08995873 16.32301153 -91.12319946 13.17523193 C-91.78319946 12.51523193 -92.44319946 11.85523193 -93.12319946 11.17523193 C-92.77020939 7.73357873 -92.07738254 6.10650655 -90.12319946 3.17523193 C-88.20414734 2.74526978 -88.20414734 2.74526978 -85.8265686 2.66693115 C-84.93185852 2.63031372 -84.03714844 2.59369629 -83.11532593 2.55596924 C-81.65162567 2.51832458 -81.65162567 2.51832458 -80.15835571 2.47991943 C-79.14654236 2.44241577 -78.134729 2.40491211 -77.09225464 2.36627197 C-73.79038623 2.24710737 -70.48825211 2.14843562 -67.18569946 2.05023193 C-64.91832105 1.97291065 -62.65098639 1.89429565 -60.38369751 1.81439209 C-55.93834004 1.6594396 -51.49283937 1.51184061 -47.04702759 1.37054443 C-42.33642798 1.21888937 -37.62853501 1.03888135 -32.92007446 0.83148193 C-21.94921783 0.34827866 -10.98128338 0.06269486 0 0 Z " fill="#D5D5D5" transform="translate(1107.1231994628906,522.8247680664063)"/>
<path d="M0 0 C1.1875 3.5 1.1875 3.5 1 7 C-1.02583597 9.85117656 -2.87180838 10.71400737 -6.234375 11.56640625 C-16.80563655 13.01766325 -27.55967809 10.60876582 -38 9 C-46.70234682 7.70047544 -55.30503021 6.70694547 -64.10473633 6.51708984 C-69.11534988 6.32938106 -72.56958393 5.1632891 -77 3 C-76.67 1.35 -76.34 -0.3 -76 -2 C-54.85775676 -10.06298068 -18.57779231 -16.31220788 0 0 Z " fill="#D5D5D5" transform="translate(1205,1557)"/>
<path d="M0 0 C7.0996179 11.38967138 5.36055113 28.08378613 5 41 C4.98066406 41.71285156 4.96132812 42.42570313 4.94140625 43.16015625 C4.2405576 64.55665337 4.2405576 64.55665337 -2 72 C-5.3125 71.875 -5.3125 71.875 -9 71 C-13.72947888 64.22108027 -13.18020042 55.98403409 -13.23828125 48.046875 C-13.246353 46.99147522 -13.25442474 45.93607544 -13.26274109 44.84869385 C-13.27653838 42.61968609 -13.28727989 40.3906576 -13.29516602 38.16162109 C-13.30668594 35.89430501 -13.32713777 33.62701604 -13.35668945 31.35986328 C-13.39955798 28.06784813 -13.41556121 24.77663532 -13.42578125 21.484375 C-13.45204338 19.98230499 -13.45204338 19.98230499 -13.47883606 18.44989014 C-13.4582744 11.69646369 -12.33789282 5.95061211 -9 0 C-5.74489197 -1.62755402 -3.43821049 -0.90479223 0 0 Z " fill="#D5D5D5" transform="translate(1156,631)"/>
<path d="M0 0 C1.84828767 1.74093763 2.18588261 2.97786292 2.546875 5.45703125 C-0.44924582 8.37786543 -2.77919873 8.78689602 -6.90808105 8.73674011 C-7.61388306 8.7127565 -8.31968506 8.68877289 -9.046875 8.6640625 C-10.16503601 8.6442205 -10.16503601 8.6442205 -11.30578613 8.62397766 C-12.88725502 8.59467174 -14.46861555 8.55890707 -16.04980469 8.51715088 C-18.39014083 8.45860681 -20.72939716 8.42473287 -23.0703125 8.39990234 C-26.92166164 8.35692219 -30.77152171 8.28342017 -34.62207031 8.19458008 C-36.19031809 8.16090907 -37.75869947 8.13301594 -39.32714844 8.1105957 C-56.13248424 7.86631196 -56.13248424 7.86631196 -63.453125 4.45703125 C-65.453125 1.45703125 -65.453125 1.45703125 -65.328125 -0.98046875 C-64.25385351 -4.12654954 -62.95636077 -5.37034903 -60.453125 -7.54296875 C-40.75865723 -17.04336285 -17.92127827 -11.02603468 0 0 Z " fill="#D5D5D5" transform="translate(1073.453125,460.54296875)"/>
<path d="M0 0 C0 7.59 0 15.18 0 23 C-10.13884683 23.89132719 -20.19588551 24.11007735 -30.375 24.125 C-32.34666138 24.13176758 -32.34666138 24.13176758 -34.3581543 24.13867188 C-35.58832275 24.13673828 -36.81849121 24.13480469 -38.0859375 24.1328125 C-39.2001709 24.13168457 -40.3144043 24.13055664 -41.46240234 24.12939453 C-44 24 -44 24 -45 23 C-45.08700342 21.36527118 -45.10701063 19.72685945 -45.09765625 18.08984375 C-45.09443359 17.10048828 -45.09121094 16.11113281 -45.08789062 15.09179688 C-45.07951172 14.05087891 -45.07113281 13.00996094 -45.0625 11.9375 C-45.05798828 10.89271484 -45.05347656 9.84792969 -45.04882812 8.77148438 C-45.03699913 6.1809334 -45.02051689 3.59049441 -45 1 C-38.9127673 0.85728897 -32.82552764 0.71487989 -26.73828125 0.57275391 C-24.66633919 0.52433493 -22.59439908 0.47583262 -20.52246094 0.42724609 C-17.54883317 0.35752946 -14.5751986 0.28810998 -11.6015625 0.21875 C-10.67131256 0.19687622 -9.74106262 0.17500244 -8.78262329 0.15246582 C-7.92188202 0.13244507 -7.06114075 0.11242432 -6.17431641 0.09179688 C-5.41486725 0.07403198 -4.65541809 0.05626709 -3.87295532 0.03796387 C-2.58217333 0.01180036 -1.29104713 0 0 0 Z " fill="#919191" transform="translate(900,1441)"/>
<path d="M0 0 C0.99 0 1.98 0 3 0 C3 3.63 3 7.26 3 11 C11.91 11 20.82 11 30 11 C30 15.95 30 20.9 30 26 C21.42 26 12.84 26 4 26 C4 29.63 4 33.26 4 37 C-4.1095099 34.97262252 -10.95961658 29.44225915 -17.67578125 24.61328125 C-20.05778488 22.95989049 -22.49876475 21.46532543 -25 20 C-22.79439901 14.38574293 -17.9510809 11.97064854 -13 9 C-11.824375 8.0409375 -11.824375 8.0409375 -10.625 7.0625 C-7.56152828 4.6554865 -4.40082193 2.89661223 -1 1 C-0.67 0.67 -0.34 0.34 0 0 Z " fill="#030200" transform="translate(1275,1296)"/>
<path d="M0 0 C5.58036444 2.5692928 7.84114972 6.67767851 10.71875 11.96875 C12.92735934 15.47020383 15.69009998 18.53871075 18.390625 21.66796875 C20 24 20 24 20 28 C16.7 28 13.4 28 10 28 C10 36.91 10 45.82 10 55 C5.05 55 0.1 55 -5 55 C-5 46.42 -5 37.84 -5 29 C-8.96 29 -12.92 29 -17 29 C-15.7230401 24.42422702 -14.01026293 21.63002294 -11 18 C-10.05933075 16.37815647 -9.12104454 14.75463288 -8.21484375 13.11328125 C-5.6441195 8.6413783 -2.79151018 4.33625037 0 0 Z " fill="#030200" transform="translate(966,314)"/>
<path d="M0 0 C13.86 0 27.72 0 42 0 C42 7.26 42 14.52 42 22 C28.14 22 14.28 22 0 22 C0 14.74 0 7.48 0 0 Z " fill="#919191" transform="translate(1046,1442)"/>
<path d="M0 0 C13.2 0 26.4 0 40 0 C40 7.59 40 15.18 40 23 C26.8 23 13.6 23 0 23 C0 15.41 0 7.82 0 0 Z " fill="#929292" transform="translate(741,1442)"/>
<path d="M0 0 C7.92 0 15.84 0 24 0 C24.08715729 13.07359356 23.8483986 25.95587152 23 39 C15.41 39 7.82 39 0 39 C0 26.13 0 13.26 0 0 Z " fill="#BFBFBF" transform="translate(740,1498)"/>
<path d="M0 0 C2.31 0.33 4.62 0.66 7 1 C8.21741267 4.45713982 7.80634025 6.04756882 6.25 9.3125 C-5.1963886 36.16596529 -1.84245359 74.45271274 8.25 101.4375 C8.58515625 102.24058594 8.9203125 103.04367187 9.265625 103.87109375 C10 106 10 106 10 110 C5.545 110.495 5.545 110.495 1 111 C-11.95976641 77.75538182 -11.61861438 37.26631374 -2 3 C-1.34 2.01 -0.68 1.02 0 0 Z " fill="#84360F" transform="translate(1172,1261)"/>
<path d="M0 0 C13.2 0 26.4 0 40 0 C40 7.26 40 14.52 40 22 C26.8 22 13.6 22 0 22 C0 14.74 0 7.48 0 0 Z " fill="#929292" transform="translate(1153,1441)"/>
<path d="M0 0 C5.1665625 -0.0309375 5.1665625 -0.0309375 10.4375 -0.0625 C11.52474365 -0.071604 12.6119873 -0.08070801 13.73217773 -0.09008789 C15.00750366 -0.09383423 15.00750366 -0.09383423 16.30859375 -0.09765625 C17.62041626 -0.10551147 17.62041626 -0.10551147 18.95874023 -0.11352539 C21 0 21 0 22 1 C22.08861992 3.8116338 22.11522355 6.59858255 22.09765625 9.41015625 C22.0962413 10.25219101 22.09482635 11.09422577 22.09336853 11.96177673 C22.08775263 14.66205335 22.07519748 17.36224828 22.0625 20.0625 C22.05748705 21.88867068 22.05292379 23.71484266 22.04882812 25.54101562 C22.03862716 30.02740085 22.01905499 34.51360855 22 39 C14.74 39 7.48 39 0 39 C0 26.13 0 13.26 0 0 Z " fill="#BBBBBB" transform="translate(868,1498)"/>
<path d="M0 0 C7.26 0 14.52 0 22 0 C22.02290839 5.25111196 22.04283563 10.50205178 22.05493164 15.75317383 C22.05997218 17.54094021 22.06680454 19.32870245 22.07543945 21.11645508 C22.0875173 23.68051168 22.09323094 26.24451397 22.09765625 28.80859375 C22.10281754 29.6127623 22.10797882 30.41693085 22.11329651 31.24546814 C22.11349215 33.16401715 22.06201983 35.08245368 22 37 C21 38 21 38 18.95874023 38.11352539 C17.64691772 38.10567017 17.64691772 38.10567017 16.30859375 38.09765625 C15.03326782 38.09390991 15.03326782 38.09390991 13.73217773 38.09008789 C12.64493408 38.08098389 11.55769043 38.07187988 10.4375 38.0625 C6.993125 38.041875 3.54875 38.02125 0 38 C0 25.46 0 12.92 0 0 Z " fill="#C0C0C0" transform="translate(1047,1499)"/>
<path d="M0 0 C7.59 0 15.18 0 23 0 C23 12.54 23 25.08 23 38 C16.07 38 9.14 38 2 38 C1.38715791 32.48442121 0.85626204 27.27806209 0.68359375 21.77734375 C0.64169922 20.49794922 0.59980469 19.21855469 0.55664062 17.90039062 C0.51732422 16.59263672 0.47800781 15.28488281 0.4375 13.9375 C0.39420372 12.58136984 0.35058634 11.22524989 0.30664062 9.86914062 C0.20127932 6.57952639 0.10020702 3.28977527 0 0 Z " fill="#BFBFBF" transform="translate(1170,1499)"/>
<path d="M0 0 C33.66 0 67.32 0 102 0 C102 2.64 102 5.28 102 8 C68.34 8 34.68 8 0 8 C0 5.36 0 2.72 0 0 Z " fill="#85340B" transform="translate(917,431)"/>
<path d="M0 0 C2.5625 0.5625 2.5625 0.5625 4.6875 2.8125 C6.58286477 5.93910567 7.1180967 9.06068941 7.8125 12.625 C8.72578802 16.93301311 8.72578802 16.93301311 11.38671875 20.2734375 C12.77396074 21.07860198 14.18467086 21.84486189 15.6171875 22.56640625 C18.53574496 24.06084832 19.99725281 25.70422253 21.5625 28.5625 C21.5 32.25 21.5 32.25 20.5625 35.5625 C15.95785733 38.63226178 11.85988902 37.48838572 6.5625 36.5625 C-5.45235785 33.41949319 -5.45235785 33.41949319 -8.4375 29.5625 C-10.57344162 23.15467515 -12.24457272 15.6701153 -9.421875 9.25390625 C-4.40369929 1.0162383 -4.40369929 1.0162383 0 0 Z " fill="#D0A279" transform="translate(1210.4375,1314.4375)"/>
<path d="M0 0 C3.0099633 -0.00898915 6.01948414 -0.03021314 9.02929688 -0.06152344 C12.72461617 -0.09996158 16.41953941 -0.11875788 20.11505127 -0.12328148 C21.5056762 -0.12812263 22.89629596 -0.13966541 24.2868042 -0.15831947 C37.5324376 -0.32565503 37.5324376 -0.32565503 42.47167969 4.29516602 C42.14167969 5.28516602 41.81167969 6.27516602 41.47167969 7.29516602 C9.13167969 6.96516602 -23.20832031 6.63516602 -56.52832031 6.29516602 C-56.52832031 5.63516602 -56.52832031 4.97516602 -56.52832031 4.29516602 C-52.12965325 0.67886836 -47.77541666 0.75888585 -42.34082031 0.62719727 C-41.3944873 0.59479446 -40.4481543 0.56239166 -39.47314453 0.52900696 C-26.32027465 0.12590538 -13.1582316 0.03528364 0 0 Z " fill="#84340B" transform="translate(975.5283203125,420.704833984375)"/>
<path d="M0 0 C1.4883163 0.00574353 2.97660671 0.01875734 4.46484375 0.03515625 C7.08421875 0.05578125 9.70359375 0.07640625 12.40234375 0.09765625 C12.40234375 7.68765625 12.40234375 15.27765625 12.40234375 23.09765625 C8.47328125 23.12859375 8.47328125 23.12859375 4.46484375 23.16015625 C3.63863525 23.16926025 2.81242676 23.17836426 1.96118164 23.18774414 C0.10800616 23.1948957 -1.74514933 23.14794145 -3.59765625 23.09765625 C-5.2196614 21.4756511 -4.72756375 19.67742594 -4.73046875 17.44140625 C-4.73175781 16.50167969 -4.73304687 15.56195312 -4.734375 14.59375 C-4.73050781 13.60503906 -4.72664063 12.61632813 -4.72265625 11.59765625 C-4.72652344 10.60894531 -4.73039062 9.62023438 -4.734375 8.6015625 C-4.73308594 7.66183594 -4.73179688 6.72210937 -4.73046875 5.75390625 C-4.72934082 4.88572266 -4.72821289 4.01753906 -4.72705078 3.12304688 C-4.49873536 -0.4507356 -3.72835781 0.10120407 0 0 Z " fill="#8D8D8D" transform="translate(1201.59765625,1440.90234375)"/>
<path d="M0 0 C25.41 0 50.82 0 77 0 C76.67 1.65 76.34 3.3 76 5 C50.59 5 25.18 5 -1 5 C-0.67 3.35 -0.34 1.7 0 0 Z " fill="#83340B" transform="translate(930,377)"/>
<path d="M0 0 C4.95 0 9.9 0 15 0 C15 7.26 15 14.52 15 22 C10.05 22 5.1 22 0 22 C0 14.74 0 7.48 0 0 Z " fill="#929292" transform="translate(1027,1442)"/>
<path d="M0 0 C1.14994846 3.44984538 0.80355486 4.8345901 0.0390625 8.33984375 C-0.29738281 9.93602539 -0.29738281 9.93602539 -0.640625 11.56445312 C-0.88296875 12.67755859 -1.1253125 13.79066406 -1.375 14.9375 C-4.16877893 27.77813776 -5.1779241 40.05759803 -5.125 53.1875 C-5.12306641 54.35772705 -5.12113281 55.5279541 -5.11914062 56.73364258 C-5.07396644 65.85067241 -4.7177818 74.91236966 -4 84 C-5.485 84.495 -5.485 84.495 -7 85 C-9.72862315 60.85655764 -11.70460958 34.83898775 -6 11 C-5.8438623 10.28602051 -5.68772461 9.57204102 -5.52685547 8.83642578 C-4.25165525 3.236852 -4.25165525 3.236852 -1.875 1 C-1.25625 0.67 -0.6375 0.34 0 0 Z " fill="#040404" transform="translate(1170,1261)"/>
<path d="M0 0 C1.12148437 -0.01417969 2.24296875 -0.02835938 3.3984375 -0.04296875 C6.61188517 0.18656323 8.78868343 0.68167375 11.625 2.1875 C12.625 4.625 12.625 4.625 12.625 7.1875 C10.63978483 10.16532276 7.92361382 11.04841033 4.625 12.1875 C-2.37622509 12.99332112 -7.99427729 12.07688387 -14.375 9.1875 C-14.0405974 6.09427596 -13.8154882 4.59862232 -11.5 2.4375 C-7.6203163 0.15533312 -4.42209391 0.02529802 0 0 Z " fill="#D5D5D5" transform="translate(1094.375,1553.8125)"/>
<path d="M0 0 C2.375 0 2.375 0 5 1 C7.79472151 6.18450713 8.44928204 10.36058513 8.3125 16.1875 C8.31572266 16.88552734 8.31894531 17.58355469 8.32226562 18.30273438 C8.28339261 22.0168738 8.04507729 24.84683302 6 28 C3.6875 28.3125 3.6875 28.3125 1 28 C-3.40297724 22.65352764 -3.52131831 15.66542702 -3 9 C-1.64968153 1.64968153 -1.64968153 1.64968153 0 0 Z " fill="#D5D5D5" transform="translate(803,1026)"/>
<path d="M0 0 C3.63 0 7.26 0 11 0 C11 7.59 11 15.18 11 23 C7.37 23 3.74 23 0 23 C0 15.41 0 7.82 0 0 Z " fill="#929292" transform="translate(726,1442)"/>
<path d="M0 0 C0.99 0.33 1.98 0.66 3 1 C3 27.73 3 54.46 3 82 C2.01 82 1.02 82 0 82 C0 54.94 0 27.88 0 0 Z " fill="#B77233" transform="translate(1242,1275)"/>
<path d="M0 0 C-0.22265625 2.33203125 -0.22265625 2.33203125 -1 5 C-2.99609375 6.51171875 -2.99609375 6.51171875 -5.4375 7.6875 C-8.09680535 8.99794421 -9.89048445 9.89048445 -12 12 C-12.78147003 14.54192449 -13.39977155 17.10266762 -14.0234375 19.6875 C-15 22 -15 22 -17.1015625 23.3125 C-17.72804688 23.539375 -18.35453125 23.76625 -19 24 C-22.19854451 19.20218324 -22.29524804 14.77148822 -21.375 9.25 C-19.23594891 4.19406105 -16.00492939 2.29646173 -11.125 0.1875 C-7.04506242 -1.25521557 -4.17917054 -0.95772658 0 0 Z " fill="#AE785D" transform="translate(952,390)"/>
<path d="M0 0 C5.94 0 11.88 0 18 0 C18 4.29 18 8.58 18 13 C12.06 13 6.12 13 0 13 C0 8.71 0 4.42 0 0 Z " fill="#929292" transform="translate(1164,1581)"/>
<path d="M0 0 C6.27 0 12.54 0 19 0 C19 3.96 19 7.92 19 12 C12.73 12 6.46 12 0 12 C0 8.04 0 4.08 0 0 Z " fill="#929292" transform="translate(858,1582)"/>
<path d="M0 0 C0 3.96 0 7.92 0 12 C-6.27 12 -12.54 12 -19 12 C-19 8.37 -19 4.74 -19 1 C-15.74867031 -0.08377656 -12.91392439 -0.35588434 -9.5 -0.625 C-8.3553125 -0.72039062 -7.210625 -0.81578125 -6.03125 -0.9140625 C-3 -1 -3 -1 0 0 Z " fill="#919191" transform="translate(752,1582)"/>
<path d="M0 0 C3.7012469 1.14402177 5.18660854 1.94588106 7.4375 5.0625 C8.4375 7.4375 8.4375 7.4375 8.4375 10.0625 C6.60699883 13.86994242 5.52313885 15.66982212 1.5 17.125 C-3.04956057 17.03215183 -5.41890838 15.20609162 -8.5625 12.0625 C-9.13867676 7.70001885 -9.01950903 5.72724041 -6.5 2.0625 C-3.5625 0.0625 -3.5625 0.0625 0 0 Z " fill="#D5D5D5" transform="translate(803.5625,1075.9375)"/>
<path d="M0 0 C3 1 3 1 3.94921875 2.6796875 C6.59700359 10.5529948 7.48756058 18.27456701 4 26 C1.6875 25.875 1.6875 25.875 -1 25 C-4.19803961 20.43137198 -5.00953349 15.48175761 -5 10 C-4.18119263 5.76949524 -3.49098285 2.69757766 0 0 Z " fill="#D5D5D5" transform="translate(1150,743)"/>
<path d="M0 0 C5.28 0 10.56 0 16 0 C16 4.29 16 8.58 16 13 C10.72 13 5.44 13 0 13 C0 8.71 0 4.42 0 0 Z " fill="#929292" transform="translate(1186,1581)"/>
<path d="M0 0 C5.61 0 11.22 0 17 0 C17 3.96 17 7.92 17 12 C11.39 12 5.78 12 0 12 C0 8.04 0 4.08 0 0 Z " fill="#8D8D8D" transform="translate(1060,1582)"/>
<path d="M0 0 C5.61 0 11.22 0 17 0 C17 3.96 17 7.92 17 12 C11.39 12 5.78 12 0 12 C0 8.04 0 4.08 0 0 Z " fill="#909090" transform="translate(1039,1582)"/>
<path d="M0 0 C0.33 1.98 0.66 3.96 1 6 C0.46890625 6.268125 -0.0621875 6.53625 -0.609375 6.8125 C-6.33257216 9.98741229 -8.64725641 12.97606714 -11 19 C-11.58148404 20.33414087 -12.16468634 21.66753481 -12.75 23 C-13.1625 23.99 -13.575 24.98 -14 26 C-17.00172383 21.0011133 -16.48452124 15.64770074 -16 10 C-13.27879876 1.9796174 -8.11277307 -1.58728169 0 0 Z " fill="#D5D5D5" transform="translate(1066,1501)"/>
<path d="M0 0 C0 4.29 0 8.58 0 13 C-5.28 13 -10.56 13 -16 13 C-16 9.04 -16 5.08 -16 1 C-10.59255982 0.22750855 -5.46137814 -0.09752461 0 0 Z " fill="#919191" transform="translate(897,1581)"/>
<path d="M0 0 C7.26 0 14.52 0 22 0 C22 2.97 22 5.94 22 9 C14.74 9 7.48 9 0 9 C0 6.03 0 3.06 0 0 Z " fill="#929292" transform="translate(1046,1429)"/>
<path d="M0 0 C7.26 0 14.52 0 22 0 C22 2.97 22 5.94 22 9 C14.74 9 7.48 9 0 9 C0 6.03 0 3.06 0 0 Z " fill="#8D8D8D" transform="translate(867,1429)"/>
<path d="M0 0 C7.26 0 14.52 0 22 0 C22 2.97 22 5.94 22 9 C14.74 9 7.48 9 0 9 C0 6.03 0 3.06 0 0 Z " fill="#929292" transform="translate(741,1429)"/>
<path d="M0 0 C0 4.29 0 8.58 0 13 C-5.28 13 -10.56 13 -16 13 C-16 9.04 -16 5.08 -16 1 C-14.288125 0.835 -12.57625 0.67 -10.8125 0.5 C-9.84957031 0.4071875 -8.88664063 0.314375 -7.89453125 0.21875 C-5.26949639 0.0203668 -2.63252045 0 0 0 Z " fill="#919191" transform="translate(772,1581)"/>
<path d="M0 0 C8.25 0 16.5 0 25 0 C25 2.31 25 4.62 25 7 C16.75 7 8.5 7 0 7 C0 4.69 0 2.38 0 0 Z " fill="#929292" transform="translate(1169,1430)"/>
<path d="M0 0 C2.9375 1.25 2.9375 1.25 5 3 C5.8125 5.1875 5.8125 5.1875 6 7 C1.88718566 9.9911377 -0.95116128 10.53145671 -6 10 C-9.375 8.6875 -9.375 8.6875 -12 7 C-12.33 6.01 -12.66 5.02 -13 4 C-9.03471778 -0.14552232 -5.67800461 -0.60913459 0 0 Z " fill="#D5D5D5" transform="translate(1157,524)"/>
<path d="M0 0 C0.33 0 0.66 0 1 0 C1.33 3.96 1.66 7.92 2 12 C3.32 12.33 4.64 12.66 6 13 C5.67 14.65 5.34 16.3 5 18 C3.68 18 2.36 18 1 18 C1 32.19 1 46.38 1 61 C0.01 61 -0.98 61 -2 61 C-2 54.07 -2 47.14 -2 40 C-1.34 40 -0.68 40 0 40 C0 26.8 0 13.6 0 0 Z " fill="#201717" transform="translate(1315,1300)"/>
<path d="M0 0 C3.5 0.25 3.5 0.25 5.5 2.25 C5.9375 5.625 5.9375 5.625 5.5 9.25 C3.3125 11.75 3.3125 11.75 0.5 13.25 C-2.1875 13.25 -2.1875 13.25 -4.5 12.25 C-6.56195395 9.71942015 -6.51157376 8.39467202 -6.25 5.125 C-5.14460243 0.88764264 -4.40112727 0.31436623 0 0 Z " fill="#D0A278" transform="translate(1208.5,1299.75)"/>
<path d="M0 0 C1.8984375 0.57421875 1.8984375 0.57421875 4 2 C4.9765625 5.08203125 4.9765625 5.08203125 5.625 8.8125 C6.40101159 13.14447056 7.31929022 16.94065857 9 21 C9.125 23.8125 9.125 23.8125 9 26 C7.109375 25.78515625 7.109375 25.78515625 5 25 C3.953125 22.93359375 3.953125 22.93359375 3.25 20.4375 C3.00765625 19.61121094 2.7653125 18.78492188 2.515625 17.93359375 C2.34546875 17.29550781 2.1753125 16.65742187 2 16 C1.34 16 0.68 16 0 16 C-0.19389096 13.5211787 -0.38040123 11.04219069 -0.5625 8.5625 C-0.61857422 7.85544922 -0.67464844 7.14839844 -0.73242188 6.41992188 C-0.86190993 4.61572163 -0.93521608 2.80768048 -1 1 C-0.67 0.67 -0.34 0.34 0 0 Z " fill="#AC7559" transform="translate(1168,1341)"/>
<path d="M0 0 C0.99 0.33 1.98 0.66 3 1 C3.2137731 8.68395543 3.01670288 15.56340812 1 23 C-0.32 22.67 -1.64 22.34 -3 22 C-3.55353075 6.07061503 -3.55353075 6.07061503 0 0 Z " fill="#D5D5D5" transform="translate(758,1508)"/>
<path d="M0 0 C1.65 0.33 3.3 0.66 5 1 C5.22304441 2.74818591 5.4278645 4.49870323 5.625 6.25 C5.74101563 7.22453125 5.85703125 8.1990625 5.9765625 9.203125 C6.00112537 12.13429393 5.5312717 13.54528964 4 16 C0.125 15.125 0.125 15.125 -1 14 C-1.09919077 12.39836084 -1.12969898 10.79220082 -1.125 9.1875 C-1.12757812 8.31480469 -1.13015625 7.44210937 -1.1328125 6.54296875 C-1.01114834 4.21345785 -0.65514709 2.23061985 0 0 Z " fill="#B7B7B7" transform="translate(1034,1445)"/>
<path d="M0 0 C0.99 0.33 1.98 0.66 3 1 C3 1.66 3 2.32 3 3 C16.86 3 30.72 3 45 3 C45 3.33 45 3.66 45 4 C38.8661702 4.16964684 32.73218735 4.32995389 26.59790039 4.48217773 C24.51775799 4.53504501 22.43767513 4.59031915 20.35766602 4.64819336 C8.50201498 4.97632811 -3.18190328 5.12603624 -15 4 C-15 3.67 -15 3.34 -15 3 C-10.38 3 -5.76 3 -1 3 C-0.67 2.01 -0.34 1.02 0 0 Z " fill="#636363" transform="translate(967,301)"/>
<path d="M0 0 C13.81776765 -0.55353075 13.81776765 -0.55353075 19 3 C19 3.33 19 3.66 19 4 C11.08 4 3.16 4 -5 4 C-4.34 3.34 -3.68 2.68 -3 2 C-2.01 2 -1.02 2 0 2 C0 1.34 0 0.68 0 0 Z " fill="#212121" transform="translate(1186,1594)"/>
<path d="M0 0 C2.5 0.25 2.5 0.25 4.5 2.25 C4.4375 5.25 4.4375 5.25 3.5 8.25 C0.9375 9.625 0.9375 9.625 -1.5 10.25 C-3.78773145 8.43887927 -4.45209822 7.64279457 -4.8125 4.6875 C-4.37135174 1.24654355 -3.4515212 0.34515212 0 0 Z " fill="#D5D5D5" transform="translate(1152.5,717.75)"/>
<path d="M0 0 C7.75 -0.125 7.75 -0.125 10 1 C10.6875 3.5 10.6875 3.5 11 6 C10 7 10 7 6.6875 7.25 C2.90232794 6.99337817 1.66974142 6.56295176 -1 4 C-0.67 2.68 -0.34 1.36 0 0 Z " fill="#D5D5D5" transform="translate(1083,466)"/>
<path d="M0 0 C0.99 0 1.98 0 3 0 C3 6.93 3 13.86 3 21 C2.01 21 1.02 21 0 21 C0 14.07 0 7.14 0 0 Z " fill="#363636" transform="translate(1313,1340)"/>
<path d="M0 0 C0.66 0 1.32 0 2 0 C3.75747614 4.50353262 4.19294408 8.17639811 4 13 C2.0625 13.5625 2.0625 13.5625 0 14 C-1 13 -1 13 -1.1328125 10.8203125 C-1.13023437 9.93085937 -1.12765625 9.04140625 -1.125 8.125 C-1.12757813 7.24070312 -1.13015625 6.35640625 -1.1328125 5.4453125 C-1 3 -1 3 0 0 Z " fill="#B7B7B7" transform="translate(877,1446)"/>
<path d="M0 0 C-0.25 1.875 -0.25 1.875 -1 4 C-3.95545121 6.11103658 -6.43855901 6.19785783 -10 6 C-10.33 4.68 -10.66 3.36 -11 2 C-6.97107804 -0.96244261 -4.82799816 -1.2350693 0 0 Z " fill="#D5D5D5" transform="translate(1061,1528)"/>
<path d="M0 0 C0.99 0.66 1.98 1.32 3 2 C3.328125 4.09375 3.328125 4.09375 3.25 6.5 C3.23453125 7.2940625 3.2190625 8.088125 3.203125 8.90625 C3 11 3 11 2 13 C0.68 12.67 -0.64 12.34 -2 12 C-2.05395478 10.37536158 -2.09277195 8.75021459 -2.125 7.125 C-2.14820313 6.22007813 -2.17140625 5.31515625 -2.1953125 4.3828125 C-2 2 -2 2 0 0 Z " fill="#B7B7B7" transform="translate(1186,1443)"/>
<path d="M0 0 C0.66 0.33 1.32 0.66 2 1 C2.639375 0.835 3.27875 0.67 3.9375 0.5 C6 0 6 0 9 1 C8.07058594 1.51949219 7.14117188 2.03898437 6.18359375 2.57421875 C-0.10382594 6.11269637 -6.24950001 9.61866667 -12 14 C-12.66 13.67 -13.32 13.34 -14 13 C-13.38511719 12.52949219 -12.77023437 12.05898438 -12.13671875 11.57421875 C-10.92435547 10.64029297 -10.92435547 10.64029297 -9.6875 9.6875 C-8.88699219 9.07261719 -8.08648438 8.45773437 -7.26171875 7.82421875 C-5.36211558 6.29206904 -3.59614599 4.844091 -2 3 C-2 2.34 -2 1.68 -2 1 C-1.34 0.67 -0.68 0.34 0 0 Z " fill="#333333" transform="translate(838,460)"/>
<path d="M0 0 C0.66 0.33 1.32 0.66 2 1 C2.44921875 2.99609375 2.44921875 2.99609375 2.6875 5.4375 C2.77386719 6.24058594 2.86023438 7.04367187 2.94921875 7.87109375 C3 10 3 10 2 12 C0.68 11.67 -0.64 11.34 -2 11 C-2.28571429 3.57142857 -2.28571429 3.57142857 0 0 Z " fill="#B6B6B6" transform="translate(748,1447)"/>
<path d="M0 0 C1.4540625 0.0309375 1.4540625 0.0309375 2.9375 0.0625 C3.2675 1.3825 3.5975 2.7025 3.9375 4.0625 C1.9575 4.3925 -0.0225 4.7225 -2.0625 5.0625 C-2.7225 3.7425 -3.3825 2.4225 -4.0625 1.0625 C-3.0625 0.0625 -3.0625 0.0625 0 0 Z " fill="#AE785D" transform="translate(960.0625,387.9375)"/>
<path d="M0 0 C0.99 0.33 1.98 0.66 3 1 C2.67 2.32 2.34 3.64 2 5 C-3.61 4.67 -9.22 4.34 -15 4 C-15 3.67 -15 3.34 -15 3 C-10.38 3 -5.76 3 -1 3 C-0.67 2.01 -0.34 1.02 0 0 Z " fill="#CD5050" transform="translate(967,301)"/>
<path d="M0 0 C2.0625 0.4375 2.0625 0.4375 4 1 C3.67 2.65 3.34 4.3 3 6 C1.68 6 0.36 6 -1 6 C-1.042721 4.33388095 -1.04063832 2.66617115 -1 1 C-0.67 0.67 -0.34 0.34 0 0 Z " fill="#FF2727" transform="translate(1317,1312)"/>
</svg>
