<?xml version="1.0" encoding="UTF-8"?>
<svg version="1.1" xmlns="http://www.w3.org/2000/svg" width="654" height="1046" viewBox="727 483 654 1046">
<path d="M0 0 C1.65 0 3.3 0 5 0 C5 0.99 5 1.98 5 3 C14.9 3 24.8 3 35 3 C35.33 18.84 35.66 34.68 36 51 C48.04733384 52.4209113 48.04733384 52.4209113 60.1015625 53.78125 C61.18824219 53.90113281 62.27492188 54.02101563 63.39453125 54.14453125 C65.58677639 54.38575774 67.77950856 54.62259076 69.97265625 54.85546875 C75.5335634 55.47631433 80.63497179 56.35712055 86 58 C89.60214084 58.71991148 93.23205375 59.27839492 96.859375 59.85546875 C100.8529495 60.5210645 104.23864013 61.47248591 108 63 C111.08508466 63.79713808 114.19642123 64.46095796 117.3125 65.125 C118.14845703 65.30675781 118.98441406 65.48851562 119.84570312 65.67578125 C121.89629972 66.12105365 123.94803962 66.5610552 126 67 C126 67.66 126 68.32 126 69 C126.75023437 69.09796875 127.50046875 69.1959375 128.2734375 69.296875 C135.38651795 70.33606559 141.43565586 72.13496017 148 75 C149.53775668 75.59356406 151.07917618 76.17777399 152.625 76.75 C153.73875 77.1625 154.8525 77.575 156 78 C156 78.66 156 79.32 156 80 C157.19625 80.185625 158.3925 80.37125 159.625 80.5625 C166.60397782 82.06995921 172.74631472 85.67300385 179 89 C179 89.66 179 90.32 179 91 C179.86625 91.25007812 180.7325 91.50015625 181.625 91.7578125 C185.18989492 93.06989188 187.8789399 94.72114342 191 96.875 C191.99 97.55304688 192.98 98.23109375 194 98.9296875 C195.485 99.95449219 195.485 99.95449219 197 101 C198.010625 101.64195312 199.02125 102.28390625 200.0625 102.9453125 C203.08965855 105.06271329 205.44961404 107.3336874 208 110 C209.41925781 111.36705078 209.41925781 111.36705078 210.8671875 112.76171875 C225.27997315 126.70498621 235.69956989 142.68597512 236.38818359 163.35351562 C236.4075957 165.53767683 236.41051328 167.72203592 236.3984375 169.90625 C236.40130768 171.07458374 236.40417786 172.24291748 236.40713501 173.44665527 C236.40915925 175.8902231 236.40374556 178.33380774 236.39111328 180.77734375 C236.37491952 184.51859332 236.39107838 188.25878171 236.41015625 192 C236.4081758 194.38541904 236.40433625 196.77083743 236.3984375 199.15625 C236.40451019 200.27084595 236.41058289 201.38544189 236.4168396 202.53381348 C236.40738312 203.57259644 236.39792664 204.61137939 236.38818359 205.68164062 C236.38460342 207.04512634 236.38460342 207.04512634 236.38095093 208.43615723 C235.91373859 211.58054902 234.9292094 213.48577301 233 216 C232.01 216 231.02 216 230 216 C229.67 216.99 229.34 217.98 229 219 C225.9375 220.6875 225.9375 220.6875 223 222 C223.91523437 222.06058594 224.83046875 222.12117187 225.7734375 222.18359375 C226.96195313 222.26738281 228.15046875 222.35117187 229.375 222.4375 C231.15003906 222.55931641 231.15003906 222.55931641 232.9609375 222.68359375 C236 223 236 223 238 224 C237.67 248.42 237.34 272.84 237 298 C252.10749476 297.92105459 252.10749476 297.92105459 267.21484375 297.81982422 C269.12239355 297.81397769 271.02994586 297.80888251 272.9375 297.8046875 C273.91138672 297.79445557 274.88527344 297.78422363 275.88867188 297.77368164 C281.63934469 297.77222356 286.47023752 298.43761041 292 300 C292.99 300 293.98 300 295 300 C295.33 299.01 295.66 298.02 296 297 C302.27 297 308.54 297 315 297 C315.33 297.99 315.66 298.98 316 300 C316.66 300.33 317.32 300.66 318 301 C318 310.24 318 319.48 318 329 C319.65 329.33 321.3 329.66 323 330 C322.67 331.65 322.34 333.3 322 335 C321.01 335.33 320.02 335.66 319 336 C318.67 345.24 318.34 354.48 318 364 C317.01 364 316.02 364 315 364 C315 365.32 315 366.64 315 368 C308.73 368 302.46 368 296 368 C295.67 366.68 295.34 365.36 295 364 C293.35 364 291.7 364 290 364 C290 364.99 290 365.98 290 367 C287.51644959 368.24177521 285.86892378 368.12036681 283.09130859 368.11352539 C282.07040131 368.11344986 281.04949402 368.11337433 279.99765015 368.11329651 C278.33978989 368.10555458 278.33978989 368.10555458 276.6484375 368.09765625 C274.95468491 368.09553383 274.95468491 368.09553383 273.22671509 368.09336853 C269.60945012 368.08775744 265.99224636 368.07520303 262.375 368.0625 C259.92708423 368.05748643 257.47916748 368.05292328 255.03125 368.04882812 C249.02081234 368.0377844 243.01041054 368.02103544 237 368 C237.00222061 369.26019455 237.00444122 370.5203891 237.00672913 371.81877136 C237.03522659 388.60833886 237.05229614 405.39791236 237.0625 422.1875 C237.06315145 423.22989019 237.06315145 423.22989019 237.06381607 424.29333878 C237.09679251 478.65651795 236.82044154 533.01510837 236.3914423 587.37649059 C236.33267039 594.82390121 236.27532402 602.27132239 236.21875 609.71875 C236.21052786 610.79331086 236.21052786 610.79331086 236.20213962 611.88958001 C235.9604413 643.59317456 235.94436436 675.29563551 236 707 C236.69222751 706.99487239 237.38445501 706.98974478 238.09765911 706.98446178 C239.06749139 706.97727784 240.03732367 706.9700939 241.0365448 706.96269226 C242.10627439 706.9547379 243.17600397 706.94678354 244.2781496 706.93858814 C246.61313354 706.9213537 248.94811931 706.90436694 251.2831068 706.88762188 C258.52220187 706.83591183 258.52220187 706.83591183 265.76113892 706.76626587 C269.02447104 706.73256231 272.28730562 706.71689546 275.55078125 706.70703125 C276.63661499 706.69168335 277.72244873 706.67633545 278.84118652 706.66052246 C279.87626343 706.66015991 280.91134033 706.65979736 281.9777832 706.65942383 C282.87713089 706.65276199 283.77647858 706.64610016 284.70307922 706.63923645 C287.45704534 707.07178537 288.35907382 707.78134149 290 710 C290 710.66 290 711.32 290 712 C291.94999129 711.80528889 291.94999129 711.80528889 294 711 C295.1470525 708.99786055 295.1470525 708.99786055 296 707 C298.41696872 706.94588876 300.83271787 706.90627722 303.25 706.875 C303.93191406 706.85824219 304.61382813 706.84148438 305.31640625 706.82421875 C309.0608235 706.78786518 311.82352727 706.92055651 315 709 C315 709.99 315 710.98 315 712 C315.99 712 316.98 712 318 712 C318 720.91 318 729.82 318 739 C319.65 739.33 321.3 739.66 323 740 C323 741.65 323 743.3 323 745 C321.35 745.33 319.7 745.66 318 746 C318 755.24 318 764.48 318 774 C317.01 774.33 316.02 774.66 315 775 C314.67 775.99 314.34 776.98 314 778 C307.73 778 301.46 778 295 778 C295 777.01 295 776.02 295 775 C294.12628754 775.16265854 293.25257507 775.32531708 292.35238647 775.49290466 C289.28467944 775.95693825 286.45843369 776.12079445 283.36181641 776.11352539 C281.74081528 776.11341209 281.74081528 776.11341209 280.08706665 776.11329651 C278.93685028 776.10813522 277.78663391 776.10297394 276.6015625 776.09765625 C275.41146576 776.0962413 274.22136902 776.09482635 272.99520874 776.09336853 C269.20511328 776.0877842 265.41507752 776.07523451 261.625 776.0625 C259.0507821 776.05748298 256.47656328 776.05292042 253.90234375 776.04882812 C247.60154223 776.03781989 241.30077538 776.02109731 235 776 C235.16422455 776.68709549 235.3284491 777.37419098 235.49765015 778.08210754 C236.0605548 781.35173174 236.08559251 784.36832496 236.03759766 787.6862793 C236.02959641 788.33728607 236.02159515 788.98829285 236.01335144 789.6590271 C235.98560968 791.79753693 235.95008549 793.93583359 235.9140625 796.07421875 C235.89227927 797.56443309 235.87083033 799.05465235 235.84970093 800.5448761 C235.80430349 803.66092248 235.75508761 806.77687864 235.703125 809.89282227 C235.63672642 813.89101636 235.57951785 817.88927946 235.52509499 821.8876524 C235.48231296 824.9614085 235.43487661 828.035079 235.38599777 831.10874367 C235.3630747 832.58355417 235.34156831 834.05838738 235.32149124 835.53323936 C235.29276567 837.58956977 235.25782857 839.64570171 235.22119141 841.7019043 C235.20263092 842.87262985 235.18407043 844.04335541 235.16494751 845.2495575 C235 848 235 848 234 850 C231.49609375 850.4140625 231.49609375 850.4140625 228.4375 850.625 C227.42558594 850.69976563 226.41367188 850.77453125 225.37109375 850.8515625 C224.58863281 850.90054688 223.80617188 850.94953125 223 851 C223.66 851.33 224.32 851.66 225 852 C225 852.66 225 853.32 225 854 C225.763125 854.268125 226.52625 854.53625 227.3125 854.8125 C229.99658923 855.99849291 231.20358553 856.734914 233 859 C233.49194336 861.24658203 233.49194336 861.24658203 233.65234375 863.8828125 C233.71663574 864.86282227 233.78092773 865.84283203 233.84716797 866.85253906 C233.89760254 867.89120117 233.94803711 868.92986328 234 870 C234.05430176 871.03092773 234.10860352 872.06185547 234.16455078 873.12402344 C234.31970739 876.37383091 234.4451425 879.62362008 234.5625 882.875 C234.62727539 884.49728516 234.62727539 884.49728516 234.69335938 886.15234375 C235.51067798 907.92155999 233.41015627 925.96321966 219.1875 943.31640625 C217.26608063 946.04052385 216.67466764 948.76159534 216 952 C215.34 952 214.68 952 214 952 C213.67 953.32 213.34 954.64 213 956 C212.34 956 211.68 956 211 956 C210.71125 956.598125 210.4225 957.19625 210.125 957.8125 C209 960 209 960 207 963 C206.34 963 205.68 963 205 963 C204.77570312 963.53367187 204.55140625 964.06734375 204.3203125 964.6171875 C202.56098726 967.7923011 200.24657237 970.40088034 197.875 973.125 C196.88044636 974.2829411 195.88696618 975.44180501 194.89453125 976.6015625 C194.4042041 977.17422852 193.91387695 977.74689453 193.40869141 978.33691406 C189.43136607 983.03250162 185.60753279 987.86859712 181.90234375 992.78125 C181.27457031 993.5134375 180.64679688 994.245625 180 995 C179.34 995 178.68 995 178 995 C177.64228516 995.82177734 177.64228516 995.82177734 177.27734375 996.66015625 C175.687567 999.57231611 173.70276681 1001.9036209 171.5625 1004.4375 C166.1622237 1010.25626183 166.1622237 1010.25626183 164 1017.5 C165.37362765 1020.93406913 167.16672119 1022.63278691 170 1025 C173.14398181 1025.7391116 173.14398181 1025.7391116 176.62406921 1025.61904907 C177.60228794 1025.62840754 177.60228794 1025.62840754 178.60026866 1025.63795507 C180.77800048 1025.65283671 182.95392692 1025.63225716 185.1315918 1025.61181641 C186.69557327 1025.61535842 188.25955104 1025.62113695 189.82351685 1025.62898254 C193.18707582 1025.64115351 196.55012748 1025.63770453 199.91367149 1025.62215042 C205.22854817 1025.59784484 210.54297992 1025.6093227 215.85786438 1025.62582397 C225.21634104 1025.65031187 234.57461529 1025.64451711 243.93310547 1025.63201904 C258.03507053 1025.61342355 272.13699818 1025.61821552 286.23893481 1025.65205324 C291.52635 1025.66359383 296.81344261 1025.65909327 302.10083997 1025.64203286 C305.38306637 1025.63415926 308.66519794 1025.63837069 311.94742203 1025.64574242 C313.47368431 1025.64655555 314.9999592 1025.64216669 316.5261898 1025.63229942 C318.60336392 1025.61951558 320.6797113 1025.62491199 322.75688171 1025.63491821 C323.92106471 1025.63303308 325.08524771 1025.63114796 326.28470898 1025.6292057 C327.62877803 1025.81274888 327.62877803 1025.81274888 329 1026 C331.16721782 1029.25082673 331.27221018 1030.29232153 331.25 1034.0625 C331.25515625 1034.94035156 331.2603125 1035.81820313 331.265625 1036.72265625 C331 1039 331 1039 329 1041 C327.15806472 1041.31553513 327.15806472 1041.31553513 324.90402031 1041.40672398 C324.06487056 1041.44439206 323.22572081 1041.48206014 322.36114228 1041.52086967 C320.99791472 1041.56595628 320.99791472 1041.56595628 319.60714722 1041.61195374 C318.6634716 1041.64943476 317.71979599 1041.68691578 316.74752414 1041.72553259 C307.26134345 1042.077871 297.77742195 1042.17671636 288.28564453 1042.20874023 C286.42200565 1042.21831745 284.55836836 1042.22821002 282.69473267 1042.23838806 C276.67411281 1042.26924878 270.65348106 1042.28994035 264.6328125 1042.30859375 C263.08780571 1042.31353973 263.08780571 1042.31353973 261.51158667 1042.31858563 C251.78078863 1042.34927717 242.04998683 1042.37593506 232.31915474 1042.39300442 C219.93652566 1042.41499995 207.55432456 1042.45728719 195.17186654 1042.52644199 C186.42151477 1042.57364411 177.67127899 1042.59793037 168.9208039 1042.6052013 C163.70881516 1042.61015084 158.49731441 1042.62517402 153.28546524 1042.6649456 C148.39804739 1042.70177222 143.51139767 1042.71023485 138.62386703 1042.69693947 C136.83359451 1042.69699343 135.04328798 1042.70729493 133.25314331 1042.7286911 C118.04674483 1042.90073032 118.04674483 1042.90073032 113.521698 1039.13221741 C112.12158012 1037.56265354 112.12158012 1037.56265354 111 1036 C110.2575 1035.071875 109.515 1034.14375 108.75 1033.1875 C104.82741171 1026.04278562 103.48955801 1019.08614786 103 1011 C101.26969709 1011.28484846 99.54079286 1011.57819938 97.8125 1011.875 C96.84957031 1012.03742187 95.88664062 1012.19984375 94.89453125 1012.3671875 C92.05362357 1012.89070084 92.05362357 1012.89070084 89.75 1013.9765625 C85.66741025 1015.49593539 81.49130568 1015.92362573 77.1875 1016.5 C69.94009837 1017.4775432 69.94009837 1017.4775432 62.80078125 1019.03125 C59.16875514 1019.95698738 55.71010943 1020.53623632 52 1021 C51.97494385 1021.65597168 51.9498877 1022.31194336 51.92407227 1022.98779297 C51.8082674 1025.95040183 51.68547114 1028.91268031 51.5625 1031.875 C51.50352539 1033.42380859 51.50352539 1033.42380859 51.44335938 1035.00390625 C51.40146484 1035.99003906 51.35957031 1036.97617188 51.31640625 1037.9921875 C51.27974854 1038.90339355 51.24309082 1039.81459961 51.20532227 1040.75341797 C51 1043 51 1043 50 1045 C38.28273212 1045.02312215 26.56546963 1045.04091443 14.84818363 1045.05181217 C9.40797688 1045.05704128 3.96778569 1045.06413943 -1.47241211 1045.07543945 C-6.71785702 1045.08626735 -11.96328692 1045.09227662 -17.20874214 1045.09487724 C-19.21470946 1045.09673167 -21.22067592 1045.10035262 -23.22663689 1045.10573006 C-26.02602824 1045.11293919 -28.82535679 1045.113991 -31.62475586 1045.11352539 C-32.46272705 1045.11712067 -33.30069824 1045.12071594 -34.1640625 1045.12442017 C-39.88594784 1045.11405216 -39.88594784 1045.11405216 -41 1044 C-41.97497128 1036.69373375 -42.11766566 1029.3587002 -42 1022 C-42.66499512 1022.01595215 -43.32999023 1022.0319043 -44.01513672 1022.04833984 C-50.84413817 1022.14038135 -57.37343453 1021.61257076 -64.125 1020.625 C-65.04925781 1020.49867188 -65.97351563 1020.37234375 -66.92578125 1020.2421875 C-72.01547633 1019.52431795 -76.98953617 1018.58995408 -81.99511719 1017.42822266 C-84.67345094 1016.8561577 -87.33370778 1016.58225004 -90.0625 1016.375 C-91.00222656 1016.30023437 -91.94195313 1016.22546875 -92.91015625 1016.1484375 C-93.59980469 1016.09945312 -94.28945313 1016.05046875 -95 1016 C-95.14695312 1016.94359375 -95.14695312 1016.94359375 -95.296875 1017.90625 C-96.89325657 1027.0441583 -99.6366608 1034.11615659 -106.82618523 1040.29417419 C-113.9648049 1044.13095817 -122.58644075 1043.02755855 -130.48266602 1042.90820312 C-132.57263604 1042.90594469 -134.6626124 1042.9072168 -136.75257874 1042.91174316 C-142.40945016 1042.91403367 -148.06495788 1042.86708001 -153.72151303 1042.8111515 C-159.63913594 1042.76105917 -165.55679191 1042.7564352 -171.47459412 1042.74694824 C-182.67312398 1042.72210728 -193.87102727 1042.65649023 -205.06928152 1042.57615232 C-217.821275 1042.48665828 -230.57329879 1042.44272826 -243.32552826 1042.40258884 C-269.55071103 1042.3190225 -295.77529392 1042.17673937 -322 1042 C-322 1036.72 -322 1031.44 -322 1026 C-320.0611644 1025.98969254 -318.1223288 1025.97938507 -316.1247406 1025.96876526 C-297.86415112 1025.87106182 -279.60359558 1025.76838786 -261.3430624 1025.66066074 C-251.95487634 1025.60540315 -242.56668647 1025.55193352 -233.1784668 1025.50268555 C-224.99487497 1025.45975216 -216.81131027 1025.4134513 -208.62776047 1025.36312145 C-204.29540723 1025.33659415 -199.96305911 1025.31174317 -195.63067436 1025.29092598 C-191.55054341 1025.27126764 -187.47046375 1025.24709703 -183.39037895 1025.21950912 C-181.89526303 1025.2101872 -180.40013588 1025.20249473 -178.90500259 1025.19658089 C-176.85799438 1025.18823648 -174.81110792 1025.17393785 -172.7641449 1025.15821838 C-171.6201998 1025.15176583 -170.47625471 1025.14531328 -169.29764462 1025.1386652 C-162.8601116 1025.23445098 -162.8601116 1025.23445098 -157.5625 1022.4375 C-156.74314132 1018.8869457 -156.29222934 1015.58174852 -157 1012 C-159.16666667 1009.16666667 -159.16666667 1009.16666667 -162 1007 C-163.36984198 1005.70420353 -164.7151049 1004.38007251 -166 1003 C-166 1002.34 -166 1001.68 -166 1001 C-166.59296875 1000.7421875 -167.1859375 1000.484375 -167.796875 1000.21875 C-170.17660965 998.90230105 -171.50978792 997.57419218 -173.25 995.5 C-173.77078125 994.8915625 -174.2915625 994.283125 -174.828125 993.65625 C-176 992 -176 992 -176 990 C-176.99 989.67 -177.98 989.34 -179 989 C-179 988.34 -179 987.68 -179 987 C-179.66 987 -180.32 987 -181 987 C-186 981.52380952 -186 981.52380952 -186 979 C-186.66 979 -187.32 979 -188 979 C-189.69140625 977.35546875 -189.69140625 977.35546875 -191.5625 975.1875 C-192.18253906 974.47980469 -192.80257812 973.77210938 -193.44140625 973.04296875 C-195 971 -195 971 -196 968 C-196.639375 967.690625 -197.27875 967.38125 -197.9375 967.0625 C-200.50051718 965.74215782 -200.7407337 964.5185326 -202 962 C-202.88558594 961.61328125 -202.88558594 961.61328125 -203.7890625 961.21875 C-213.92203826 955.63308139 -221.47366758 938.56972167 -225 928 C-227.47570142 919.20605764 -228.50704805 910.84295641 -228.609375 901.7265625 C-228.62647522 900.51858002 -228.64357544 899.31059753 -228.66119385 898.06600952 C-228.6893023 895.53676053 -228.7090485 893.00740567 -228.72070312 890.47802734 C-228.75009617 886.61235219 -228.84346905 882.75129305 -228.9375 878.88671875 C-228.95707017 876.41669477 -228.97282941 873.94663702 -228.984375 871.4765625 C-229.02141541 870.32854156 -229.05845581 869.18052063 -229.09661865 867.99771118 C-229.03119667 860.15958701 -229.03119667 860.15958701 -225.92980957 856.67205811 C-223.69132531 854.91831005 -221.47383145 853.39749735 -219 852 C-220.299375 851.87625 -221.59875 851.7525 -222.9375 851.625 C-225.15234375 851.4140625 -225.15234375 851.4140625 -227 851 C-228.68332134 847.63335732 -228.14295938 843.82187674 -228.1386652 840.11889267 C-228.14150742 839.18291721 -228.14434964 838.24694174 -228.14727798 837.28260338 C-228.15567574 834.11008549 -228.15689722 830.93760387 -228.15821838 827.76507568 C-228.16278063 825.48114823 -228.16778015 823.19722161 -228.17318195 820.91329598 C-228.1868172 814.60702698 -228.19419737 808.30076339 -228.20060861 801.99448347 C-228.20728711 795.89817381 -228.2196006 789.80187422 -228.23132664 783.7055726 C-228.25518756 771.21474855 -228.2743751 758.72392133 -228.29092598 746.23308563 C-228.30738664 733.81998014 -228.32587272 721.40688041 -228.34705925 708.99378204 C-228.34837686 708.22101767 -228.34969446 707.4482533 -228.351052 706.65207183 C-228.35775563 702.72617272 -228.36449412 698.80027368 -228.37124526 694.87437466 C-228.41908791 667.01228413 -228.4622254 639.15018808 -228.50268555 611.28808594 C-228.54178273 584.37011268 -228.58319413 557.45214459 -228.62768555 530.53417969 C-228.62972934 529.29692785 -228.62972934 529.29692785 -228.63181442 528.03468103 C-228.64414763 520.56950371 -228.65650376 513.10432642 -228.66888306 505.63914917 C-228.75145575 455.82553795 -228.83225172 406.01192238 -228.90568299 356.19829676 C-228.90775255 354.7943657 -228.9098222 353.39043465 -228.91189194 351.9865036 C-228.91341159 350.9553606 -228.91341159 350.9553606 -228.91496194 349.90338643 C-228.92181136 345.27010908 -228.92889361 340.63683213 -228.93608284 336.0035553 C-228.99433069 298.33566953 -229.00953773 260.6679196 -229 223 C-225.37 223 -221.74 223 -218 223 C-218 222.34 -218 221.68 -218 221 C-218.53625 220.773125 -219.0725 220.54625 -219.625 220.3125 C-226.14698228 216.70824663 -226.14698228 216.70824663 -228 214 C-228.90859336 209.48998659 -228.79223486 205.02807688 -228.7265625 200.44140625 C-228.72552323 199.09203595 -228.72656663 197.74266261 -228.72958374 196.39329529 C-228.72940448 193.56260002 -228.70861448 190.73304597 -228.67236328 187.90258789 C-228.62737699 184.31528413 -228.62582959 180.72967407 -228.63939857 177.14216709 C-228.64616667 174.35092246 -228.63264877 171.56004709 -228.61314011 168.76887321 C-228.60192047 166.81620729 -228.60427959 164.863478 -228.60708618 162.91078186 C-228.30802897 143.70848088 -220.85073603 128.68564771 -208.515625 114.43359375 C-207 113 -207 113 -205 113 C-204.7525 112.38125 -204.505 111.7625 -204.25 111.125 C-202.77229238 108.61289704 -201.56044823 108.23892656 -199 107 C-198.505 105.515 -198.505 105.515 -198 104 C-195.4375 102.8125 -195.4375 102.8125 -193 102 C-193 101.34 -193 100.68 -193 100 C-191.34765625 98.703125 -191.34765625 98.703125 -189.0625 97.25 C-185.4850938 94.96762798 -185.4850938 94.96762798 -181.99609375 92.5546875 C-176.98507157 88.96557964 -171.67817133 86.26065996 -166.125 83.625 C-165.37476563 83.26680176 -164.62453125 82.90860352 -163.8515625 82.53955078 C-163.14 82.20938965 -162.4284375 81.87922852 -161.6953125 81.5390625 C-161.05609863 81.24209473 -160.41688477 80.94512695 -159.75830078 80.63916016 C-158 80 -158 80 -155 80 C-155 79.34 -155 78.68 -155 78 C-153.06441401 77.32779649 -151.12645628 76.66241923 -149.1875 76 C-148.10855469 75.62875 -147.02960938 75.2575 -145.91796875 74.875 C-143 74 -143 74 -140 74 C-140 73.34 -140 72.68 -140 72 C-139.0821875 71.74605469 -138.164375 71.49210938 -137.21875 71.23046875 C-129.51114117 69.13162994 -129.51114117 69.13162994 -122 66.4375 C-117.28778017 64.56077176 -112.32814844 63.72392235 -107.3671875 62.74609375 C-104.04855249 62.07883608 -104.04855249 62.07883608 -101.12890625 61.00390625 C-97.15144771 59.7277429 -93.18513784 59.12267227 -89.0625 58.5 C-87.51109236 58.26450693 -85.96029217 58.02497382 -84.41015625 57.78125 C-83.73090088 57.67876953 -83.05164551 57.57628906 -82.35180664 57.47070312 C-79.84230932 57.01130017 -79.84230932 57.01130017 -76.85058594 56.01586914 C-72.22140374 54.79458921 -67.7403095 54.35719418 -62.98046875 53.96484375 C-61.57079582 53.83946983 -61.57079582 53.83946983 -60.13264465 53.71156311 C-57.15145229 53.44710787 -54.1695908 53.19160757 -51.1875 52.9375 C-48.1876611 52.67884765 -45.18803939 52.41820806 -42.188797 52.15272522 C-40.32725679 51.98822075 -38.46534982 51.82780571 -36.60307312 51.67185974 C-35.76492569 51.59830765 -34.92677826 51.52475555 -34.06323242 51.44897461 C-33.3248967 51.38616806 -32.58656097 51.32336151 -31.82585144 51.25865173 C-29.90590541 51.08517766 -29.90590541 51.08517766 -28 50 C-28.00444122 49.4406778 -28.00888245 48.88135559 -28.01345825 48.30508423 C-28.05761149 42.49801176 -28.08783294 36.69098675 -28.10986328 30.88378906 C-28.11993789 28.71482406 -28.13359798 26.54587269 -28.15087891 24.37695312 C-28.17506323 21.26428874 -28.18646832 18.15180349 -28.1953125 15.0390625 C-28.20563507 14.065065 -28.21595764 13.0910675 -28.22659302 12.08755493 C-28.22674408 11.18677216 -28.22689514 10.28598938 -28.22705078 9.35791016 C-28.231492 8.56293121 -28.23593323 7.76795227 -28.24050903 6.94888306 C-28 5 -28 5 -26 3 C-23.38623047 2.77294922 -23.38623047 2.77294922 -20.1171875 2.8046875 C-18.36728516 2.81435547 -18.36728516 2.81435547 -16.58203125 2.82421875 C-15.35871094 2.84097656 -14.13539063 2.85773438 -12.875 2.875 C-11.64394531 2.88402344 -10.41289063 2.89304687 -9.14453125 2.90234375 C-6.09616185 2.92597452 -3.04817618 2.95891946 0 3 C0 2.01 0 1.02 0 0 Z " fill="#0E0E0E" transform="translate(1049,483)"/>
<path d="M0 0 C150.15 0 300.3 0 455 0 C455 32.67 455 65.34 455 99 C452.03 99 449.06 99 446 99 C446 95.37 446 91.74 446 88 C439.88704651 91.19212774 433.77743921 94.39048691 427.67236328 97.59765625 C426.03110121 98.45892149 424.38903097 99.31865138 422.74560547 100.17578125 C420.91097571 101.13274564 419.08028619 102.0972541 417.25 103.0625 C416.24453125 103.58972656 415.2390625 104.11695313 414.203125 104.66015625 C411.87377678 105.80925925 411.87377678 105.80925925 411 108 C412.25103516 108.38091797 412.25103516 108.38091797 413.52734375 108.76953125 C417.38429441 110.13616731 420.92298501 111.83226965 424.5625 113.6875 C425.2534375 114.03619141 425.944375 114.38488281 426.65625 114.74414062 C433.16686553 118.04723272 439.59776949 121.49192849 446 125 C446 121.37 446 117.74 446 114 C448.64 114 451.28 114 454 114 C454 188.58 454 263.16 454 340 C451.69 338.02 449.38 336.04 447 334 C444.41705456 332.4015558 444.41705456 332.4015558 441.86328125 331.26171875 C440.95642578 330.83439453 440.04957031 330.40707031 439.11523438 329.96679688 C437.72788086 329.33354492 437.72788086 329.33354492 436.3125 328.6875 C435.37599609 328.24599609 434.43949219 327.80449219 433.47460938 327.34960938 C422.52735557 322.24714204 409.73274726 320.67886137 398 324.5 C385.07845606 330.10596214 378.17250899 340.34888035 371.75 352.25 C364.87170032 364.62398286 358.42239313 375.71678348 344 380 C327.65334601 382.11350678 313.87588709 376.85369214 301 367 C291.76081381 359.51725028 283.43695114 350.88435898 276.57763672 341.17675781 C270.72083612 333.01100334 263.68022692 327.94719605 255 323 C254.02675781 322.42378906 253.05351563 321.84757812 252.05078125 321.25390625 C248.30064487 319.71255698 244.92990682 319.5062753 240.9375 319.5625 C240.1952417 319.56862305 239.4529834 319.57474609 238.68823242 319.58105469 C223.30288758 320.01048997 213.54339096 326.90977296 203.2421875 337.515625 C196.94617976 344.18112534 191.86633239 351.36704046 187.37719727 359.33984375 C179.07564052 374.07514744 169.03545503 384.5711937 152.3515625 389.26953125 C136.15102139 392.80041842 119.7101662 386.45747282 106 378 C103.13110313 375.89942248 100.44754046 373.68789009 97.76171875 371.359375 C83.98202438 359.58718915 66.909668 348.11791427 48.1484375 348.6484375 C39.05020736 349.6643689 30.62146172 353.00370843 23 358 C22.26265625 358.45632813 21.5253125 358.91265625 20.765625 359.3828125 C12.59345452 364.99061224 7.62500724 373.58042764 3.3671875 382.37109375 C2 385 2 385 0 386 C0 258.62 0 131.24 0 0 Z " fill="#BFBFBF" transform="translate(826,711)"/>
<path d="M0 0 C7.70489332 5.51937069 13.45588086 11.40455651 19.08129883 19.0246582 C27.44269882 30.11604968 37.8014278 40.96033951 50.25 47.328125 C51.30960938 47.87855469 52.36921875 48.42898438 53.4609375 48.99609375 C59.94395113 52.17715288 66.05403697 54.53936008 73.25 55.328125 C73.96285156 55.42222656 74.67570312 55.51632812 75.41015625 55.61328125 C84.56808862 56.26148336 94.4649136 51.91810084 101.48046875 46.1875 C105.10546311 42.37845515 107.61653012 37.84816377 110.25 33.328125 C111.16245889 31.9087445 112.07866288 30.49175867 113 29.078125 C114.51918102 26.66213712 115.54977715 24.57868212 116.625 21.890625 C121.33340983 11.56834191 129.72253361 3.37725678 140.171875 -0.9453125 C152.76356445 -5.34767009 165.42204177 -2.33219867 177.15234375 3.09375 C178.48044996 3.74736787 179.80476278 4.40875507 181.125 5.078125 C181.73142334 5.37654297 182.33784668 5.67496094 182.96264648 5.98242188 C188.14004546 8.76112743 192.50633095 12.04534595 195.25 17.328125 C196.18536514 23.4909152 195.91965747 29.57107247 195.71875 35.78515625 C195.68422587 37.67871552 195.65336163 39.57234448 195.62585449 41.46601868 C195.56198087 45.57033101 195.47925866 49.67369783 195.38427734 53.77740479 C195.2359318 60.5081097 195.1738281 67.2381182 195.12890625 73.97021484 C195.12102081 75.12821657 195.11313538 76.2862183 195.10501099 77.47931099 C195.08898826 79.84563122 195.07306892 82.21195216 195.05725098 84.57827377 C195.0137954 90.55163673 194.95431611 96.52482842 194.89453125 102.49804688 C194.8827182 103.68656691 194.87090515 104.87508694 194.85873413 106.09962273 C194.83469482 108.51488173 194.81059584 110.93014013 194.78643799 113.34539795 C194.72458108 119.57595365 194.6651463 125.80653249 194.60546875 132.03710938 C194.48926381 144.13413752 194.37051406 156.23113907 194.25 168.328125 C193.92 168.328125 193.59 168.328125 193.25 168.328125 C192.92 171.958125 192.59 175.588125 192.25 179.328125 C180.7 179.328125 169.15 179.328125 157.25 179.328125 C157.25 184.278125 157.25 189.228125 157.25 194.328125 C168.8 194.328125 180.35 194.328125 192.25 194.328125 C192.83901881 201.39635077 193.39851066 208.17632582 193.36352539 215.21777344 C193.36367142 216.01931854 193.36381744 216.82086365 193.3639679 217.646698 C193.36328231 220.24366151 193.35555487 222.84054934 193.34765625 225.4375 C193.34578724 227.25880901 193.34436562 229.08011853 193.34336853 230.90142822 C193.33958138 235.65569488 193.32978432 240.40993016 193.31866455 245.16418457 C193.30836793 250.03132707 193.30385337 254.89847471 193.29882812 259.765625 C193.28815801 269.28647199 193.27112823 278.80729587 193.25 288.328125 C122.37574484 288.95211791 51.50079085 289.47568918 -19.375 289.890625 C-20.3096578 289.89610824 -21.24431561 289.90159147 -22.20729637 289.90724087 C-100.38848534 290.36483624 -178.56771165 290.44954963 -256.75 290.328125 C-257.01241145 265.22195412 -257.27326092 240.11576742 -257.53230286 215.00956154 C-257.65264379 203.34962839 -257.77347617 191.68970074 -257.89550781 180.02978516 C-258.00199671 169.8548288 -258.10752042 159.67986295 -258.21193409 149.50488508 C-258.26713877 144.12841839 -258.32279343 138.75195729 -258.37960815 133.37550735 C-258.49114197 122.79225894 -258.59607286 112.20904704 -258.6816721 101.62555397 C-258.72546111 96.43359675 -258.79608727 91.24287479 -258.88232422 86.05145264 C-258.9101927 83.71838808 -258.93773337 81.38531958 -258.96484375 79.05224609 C-258.98833389 78.06092997 -259.01182404 77.06961384 -259.036026 76.04825783 C-259.11068316 66.85034178 -256.35037903 59.57899474 -251.5625 51.828125 C-251.16450195 51.18157959 -250.76650391 50.53503418 -250.35644531 49.86889648 C-241.27468618 35.43525741 -229.44514947 27.28400379 -212.75 23.328125 C-211.69232422 23.03228516 -211.69232422 23.03228516 -210.61328125 22.73046875 C-204.07292709 21.31819102 -197.83311585 24.19224189 -191.75 26.328125 C-189.75069049 26.99685956 -187.75089948 27.66416286 -185.75 28.328125 C-185.75 28.988125 -185.75 29.648125 -185.75 30.328125 C-184.63625 30.51375 -184.63625 30.51375 -183.5 30.703125 C-179.57639016 31.59485451 -177.44130789 32.63183471 -174.58203125 35.51171875 C-159.36716397 50.64264194 -138.55454845 64.31592664 -116.4296875 65.46484375 C-111.31452597 65.20386612 -106.60508191 63.89217823 -101.75 62.328125 C-100.88246094 62.06 -100.01492188 61.791875 -99.12109375 61.515625 C-83.93328827 56.19157425 -74.86104125 42.93943547 -67.375 29.390625 C-59.36175209 15.18968926 -48.15022449 1.24282228 -32.29296875 -3.98046875 C-20.37117207 -7.22187891 -10.42525714 -6.86875093 0 0 Z " fill="#4B7295" transform="translate(1084.75,1038.671875)"/>
<path d="M0 0 C3.47361791 0.81824442 6.9575519 1.57855973 10.44482422 2.33642578 C50.32905428 11.13595245 91.56246369 24.18420871 121.95263672 52.73095703 C124.1226945 54.78880971 124.1226945 54.78880971 126.60107422 56.61376953 C138.59070815 66.66363218 145.36466195 81.64223712 148.13623047 96.73876953 C148.18228597 98.31751078 148.19612572 99.89747678 148.17993164 101.47680664 C148.17362228 102.27775253 148.16731293 103.07869843 148.16081238 103.90391541 C148.15270035 104.50941727 148.14458832 105.11491913 148.13623047 105.73876953 C105.36963047 105.76196995 62.60303123 105.77943316 19.83642612 105.78983486 C14.71687847 105.79108466 9.59733083 105.79237907 4.4777832 105.79370117 C3.45913525 105.79396348 2.44048729 105.79422579 1.39097122 105.79449605 C-12.82814982 105.79824958 -27.04726802 105.80439141 -41.26638721 105.81250386 C-65.79494132 105.82649552 -90.32349244 105.83570978 -114.85205078 105.83642578 C-115.80748994 105.83646435 -116.76292909 105.83650293 -117.74732095 105.83654267 C-181.45794323 105.83826348 -245.15791194 105.58106495 -308.86376953 104.73876953 C-309.35876953 98.30376953 -309.35876953 98.30376953 -309.86376953 91.73876953 C-310.19376953 96.68876953 -310.52376953 101.63876953 -310.86376953 106.73876953 C-311.19376953 106.73876953 -311.52376953 106.73876953 -311.86376953 106.73876953 C-312.85932833 85.44487308 -306.24504014 69.19280516 -292.37939453 53.17236328 C-290.86376953 51.73876953 -290.86376953 51.73876953 -288.86376953 51.73876953 C-288.61626953 51.12001953 -288.36876953 50.50126953 -288.11376953 49.86376953 C-286.63606191 47.35166657 -285.42421776 46.9776961 -282.86376953 45.73876953 C-282.53376953 44.74876953 -282.20376953 43.75876953 -281.86376953 42.73876953 C-279.30126953 41.55126953 -279.30126953 41.55126953 -276.86376953 40.73876953 C-276.86376953 40.07876953 -276.86376953 39.41876953 -276.86376953 38.73876953 C-275.21142578 37.44189453 -275.21142578 37.44189453 -272.92626953 35.98876953 C-269.34886334 33.70639751 -269.34886334 33.70639751 -265.85986328 31.29345703 C-260.8488411 27.70434917 -255.54194086 24.9994295 -249.98876953 22.36376953 C-248.86341797 21.82647217 -248.86341797 21.82647217 -247.71533203 21.27832031 C-246.64798828 20.78307861 -246.64798828 20.78307861 -245.55908203 20.27783203 C-244.91986816 19.98086426 -244.2806543 19.68389648 -243.62207031 19.37792969 C-241.86376953 18.73876953 -241.86376953 18.73876953 -238.86376953 18.73876953 C-238.86376953 18.07876953 -238.86376953 17.41876953 -238.86376953 16.73876953 C-236.92818354 16.06656602 -234.99022581 15.40118876 -233.05126953 14.73876953 C-231.97232422 14.36751953 -230.89337891 13.99626953 -229.78173828 13.61376953 C-226.86376953 12.73876953 -226.86376953 12.73876953 -223.86376953 12.73876953 C-223.86376953 12.07876953 -223.86376953 11.41876953 -223.86376953 10.73876953 C-222.94595703 10.48482422 -222.02814453 10.23087891 -221.08251953 9.96923828 C-213.3749107 7.87039947 -213.3749107 7.87039947 -205.86376953 5.17626953 C-200.10596408 2.8906331 -193.91828104 1.93954481 -187.86376953 0.73876953 C-186.89826172 0.54541016 -185.93275391 0.35205078 -184.93798828 0.15283203 C-184.25349609 0.01619141 -183.56900391 -0.12044922 -182.86376953 -0.26123047 C-183.52376953 0.39876953 -184.18376953 1.05876953 -184.86376953 1.73876953 C-176.91317004 2.06503603 -169.54356366 0.80317622 -161.73876953 -0.63623047 C-159.12102039 -1.10273391 -156.50210333 -1.56236898 -153.88330078 -2.02294922 C-152.71645752 -2.23137451 -151.54961426 -2.4397998 -150.34741211 -2.65454102 C-144.20111852 -3.72494115 -138.07582692 -4.67906114 -131.86376953 -5.26123047 C-130.91775879 -5.35001465 -129.97174805 -5.43879883 -128.99707031 -5.53027344 C-86.63471651 -9.29934708 -41.57384005 -9.89002411 0 0 Z " fill="#433E40" transform="translate(1132.86376953125,544.26123046875)"/>
<path d="M0 0 C0.1709418 14.39627277 -6.80172824 29.96207389 -16 41 C-16.66 41 -17.32 41 -18 41 C-18.66 39.02 -19.32 37.04 -20 35 C-26.19042968 34.79518653 -32.37313069 34.6850284 -38.56689453 34.65820312 C-40.66789641 34.63628747 -42.76880423 34.5895883 -44.86865234 34.51660156 C-57.73739845 33.69456279 -57.73739845 33.69456279 -68.91333008 38.95727539 C-71.59986909 41.85734474 -73.82231139 44.99889971 -75.92938232 48.33764648 C-77.26733598 50.41509393 -78.818484 52.21828284 -80.48046875 54.04296875 C-84.94699943 59.22909402 -89.37857645 64.43117249 -93.6875 69.75 C-97.2327839 74.11932286 -100.94630352 78.29419338 -104.734375 82.453125 C-107.14584243 85.16394701 -109.45587659 87.939319 -111.75 90.75 C-112.87921875 92.12091797 -112.87921875 92.12091797 -114.03125 93.51953125 C-115.94634224 95.8498714 -115.94634224 95.8498714 -117.21875 97.88671875 C-123.45617725 107.26648624 -143.59341736 108.35640644 -153.93359375 110.4765625 C-177.08999553 115.04966514 -200.3906299 117.80039048 -224 118 C-226.18099449 118.03878784 -228.36198401 118.07785562 -230.54296875 118.1171875 C-260.96657897 118.52428904 -291.71693043 116.14818838 -321.5625 110.0625 C-322.6148584 109.86261475 -322.6148584 109.86261475 -323.68847656 109.65869141 C-328.49997918 108.57749567 -330.82470367 106.69846914 -334 103 C-334.44996338 102.48655029 -334.89992676 101.97310059 -335.36352539 101.4440918 C-336.84312686 99.74775429 -338.29812215 98.03260572 -339.75 96.3125 C-343.33785874 92.08964152 -346.95330117 87.90764951 -350.6875 83.8125 C-353.6791816 80.52057795 -356.52524423 77.15408693 -359.3125 73.6875 C-362.76016651 69.418673 -366.37554183 65.37558467 -370.125 61.375 C-373.47866137 57.79560138 -376.71545094 54.22236501 -379.6875 50.3125 C-380.20143311 49.66249023 -380.71536621 49.01248047 -381.24487305 48.34277344 C-383 46 -383 46 -384.48144531 43.4309082 C-387.12076595 39.54018554 -389.58810983 36.58914199 -394.32168579 35.43289185 C-401.20973271 34.55447081 -408.13455846 34.75072238 -415.0625 34.875 C-417.18945383 34.87694375 -419.31641683 34.87438361 -421.44335938 34.8671875 C-426.63046537 34.85939452 -431.81365291 34.91300526 -437 35 C-437.28617188 35.78761719 -437.57234375 36.57523438 -437.8671875 37.38671875 C-439.13509714 40.31165514 -440.34692407 41.31971858 -443 43 C-450.85766555 33.34629661 -455.14507663 20.6465932 -455.04296875 8.2265625 C-455.03676514 7.24510254 -455.03056152 6.26364258 -455.02416992 5.25244141 C-455.01619385 4.50913574 -455.00821777 3.76583008 -455 3 C-433.53950231 2.04118793 -412.10505586 1.80320136 -390.62636709 1.7148484 C-385.8354952 1.6941675 -381.04464994 1.66840797 -376.25379944 1.64332581 C-366.90828588 1.5951627 -357.56275667 1.55149889 -348.21721412 1.50938266 C-337.29538415 1.45996048 -326.37357962 1.40571344 -315.45177381 1.35125155 C-295.94084671 1.25409828 -276.42990291 1.16087339 -256.91894531 1.07006836 C-238.05988375 0.98229067 -219.2008347 0.89230055 -200.34179688 0.79956055 C-199.18027798 0.79384928 -198.01875909 0.78813801 -196.82204266 0.78225368 C-192.15071318 0.75927826 -187.47938374 0.73629491 -182.80805437 0.71329921 C-162.55389619 0.61364189 -142.29972983 0.51566203 -122.04556173 0.41804543 C-118.79223572 0.40235905 -115.53890984 0.38664433 -112.28558397 0.37092662 C-99.8978568 0.31113364 -87.51012585 0.2522299 -75.12238884 0.19450951 C-71.38738158 0.17708301 -67.65237604 0.15934339 -63.91737175 0.14129257 C-42.61138214 0.03853168 -21.30626523 -0.02664197 0 0 Z " fill="#443E40" transform="translate(1280,1385)"/>
<path d="M0 0 C150.15 0 300.3 0 455 0 C455 10.89 455 21.78 455 33 C448.25013291 34.12497785 448.25013291 34.12497785 444.63923836 34.11466789 C443.40772041 34.11488003 443.40772041 34.11488003 442.15132332 34.11509645 C441.26398947 34.11013678 440.37665562 34.1051771 439.46243286 34.10006714 C438.50614361 34.09880062 437.54985435 34.0975341 436.56458664 34.0962292 C433.35438959 34.09083784 430.14425914 34.07830227 426.93408203 34.06591797 C424.62141457 34.06078276 422.30874596 34.05614461 419.99607658 34.05196381 C414.98422086 34.04211642 409.97238399 34.02934654 404.96054077 34.01444626 C396.89647074 33.99091261 388.83240296 33.97594375 380.76831055 33.96304321 C379.37763619 33.96078619 377.98696184 33.95852736 376.59628749 33.95626676 C374.48201971 33.95283952 372.36775191 33.94942515 370.25348406 33.94604784 C365.18189338 33.93791494 360.11030427 33.92906177 355.03871536 33.91989708 C322.10915653 33.86070167 289.17961656 33.82332408 256.25 33.8359375 C255.50620411 33.83621795 254.76240822 33.8364984 253.99607307 33.83678734 C198.3625588 33.85969221 142.74804562 34.36775246 87.125 35.5 C86.24003247 35.51796222 85.35506495 35.53592443 84.44328022 35.55443096 C69.23836561 35.86372584 54.0336367 36.18242173 38.82983398 36.54263306 C37.52726591 36.57343019 36.22469784 36.60422733 34.882658 36.63595772 C32.50328559 36.69280908 30.12393554 36.75060936 27.74461555 36.80961418 C26.17661359 36.84747882 26.17661359 36.84747882 24.57693481 36.8861084 C23.68570986 36.90823143 22.7944849 36.93035446 21.87625313 36.95314789 C18.25023189 37.01221319 14.62649565 37.00706959 11 37 C11.00092179 38.13809616 11.00184359 39.27619232 11.00279331 40.44877625 C11.02485163 67.98488493 11.04113374 95.52099291 11.05106533 123.0571087 C11.0523148 126.50845009 11.05360924 129.95979145 11.05493164 133.41113281 C11.05519395 134.09771733 11.05545626 134.78430184 11.05572652 135.49169195 C11.05971982 145.68554481 11.06673205 155.87939235 11.07543945 166.07324219 C11.10234983 198.65363 11.08985813 231.23366848 11.02007473 263.81399918 C11.00247183 272.43753171 10.99674226 281.06102168 10.99530029 289.68457031 C10.99279035 300.00723861 10.96771169 310.32957059 10.91369122 320.65210247 C10.88662306 325.89343905 10.8687845 331.13435203 10.87660408 336.37576294 C10.88337582 341.17525274 10.86228359 345.97379027 10.81904721 350.77308273 C10.80820927 352.50438483 10.80735585 354.23578523 10.81765628 355.96709061 C10.86972529 365.8134679 10.19206087 372.92193741 4 381 C3.46091727 381.91190598 2.92183455 382.82381195 2.36641598 383.76335144 C1.9154987 384.50144547 1.46458143 385.23953949 1 386 C0.67 386 0.34 386 0 386 C0 258.62 0 131.24 0 0 Z " fill="#949292" transform="translate(826,711)"/>
<path d="M0 0 C72.87414444 -0.05958779 145.74725226 -0.00890913 218.62109375 0.21875 C219.49851071 0.22148658 220.37592768 0.22422317 221.27993304 0.22704268 C243.56551083 0.29664101 265.85107474 0.3702437 288.13663447 0.44538212 C301.03859622 0.48884313 313.94056141 0.53115599 326.8425293 0.57275391 C328.23204665 0.5772344 328.23204665 0.5772344 329.64963507 0.58180541 C334.30297032 0.59680443 338.95630562 0.61178547 343.60964096 0.62675762 C381.40643668 0.74839189 419.20322129 0.87319544 457 1 C457 10.24 457 19.48 457 29 C306.19 29 155.38 29 0 29 C0 19.43 0 9.86 0 0 Z " fill="#443E40" transform="translate(824,655)"/>
<path d="M0 0 C0 8.91 0 17.82 0 27 C-43.27007508 27.85390574 -86.5334207 28.25559257 -129.81072675 28.49062446 C-139.04526997 28.54088069 -148.279791 28.59479739 -157.51431324 28.64874845 C-174.03784775 28.74516654 -190.56139823 28.83848261 -207.08496094 28.92993164 C-222.95574311 29.01777081 -238.82651042 29.10785503 -254.69726562 29.20043945 C-255.67633805 29.20615072 -256.65541048 29.21186199 -257.66415177 29.21774632 C-258.64188373 29.22345001 -259.61961569 29.2291537 -260.62697589 29.23503023 C-278.94067796 29.34184959 -297.25439125 29.44662314 -315.56811061 29.55043279 C-321.04576566 29.5815168 -326.52341858 29.61294863 -332.00106996 29.64467499 C-373.00127666 29.88209914 -413.99895157 30.06555472 -455 30 C-454.67 20.43 -454.34 10.86 -454 1 C-396.30749899 0.87259318 -338.61499796 0.74519757 -280.92249689 0.61781773 C-274.11914832 0.60279655 -267.31579974 0.58777525 -260.51245117 0.57275391 C-259.83541819 0.57125906 -259.15838521 0.56976422 -258.46083608 0.56822408 C-236.49650617 0.51972829 -214.53217628 0.47122532 -192.56784639 0.42271865 C-169.36723668 0.37148179 -146.16662694 0.32025305 -122.96601719 0.26903296 C-109.05923869 0.23833063 -95.15246022 0.20762173 -81.24568176 0.17690456 C-71.7233165 0.15587226 -62.20095124 0.13484801 -52.67858595 0.11383021 C-47.17581299 0.10168423 -41.67304004 0.08953457 -36.17026711 0.07737541 C-31.1413822 0.06626345 -26.11249726 0.0551615 -21.08361232 0.0440678 C-19.25588116 0.04003401 -17.42815001 0.03599642 -15.60041887 0.03195482 C-13.13285151 0.02649891 -10.66528411 0.02105633 -8.19771671 0.01561737 C-7.11150451 0.01321085 -7.11150451 0.01321085 -6.00334862 0.01075572 C-1.1141458 0 -1.1141458 0 0 0 Z " fill="#443E40" transform="translate(1279,1352)"/>
<path d="M0 0 C0 9.9 0 19.8 0 30 C-70.87427871 30.62212534 -141.74919925 31.14756412 -212.625 31.5625 C-214.0269867 31.57072485 -214.0269867 31.57072485 -215.45729637 31.57911587 C-293.63854513 32.03671159 -371.81766452 32.11628419 -450 32 C-450 23.75 -450 15.5 -450 7 C-398.44936303 6.10423638 -346.89866544 5.21204176 -295.34788236 4.32472411 C-289.24071019 4.21960133 -283.13353853 4.1144486 -277.02636719 4.00927734 C-275.81070755 3.98834304 -274.59504791 3.96740874 -273.3425501 3.94584006 C-253.74363144 3.60826511 -234.14475545 3.26827248 -214.54589456 2.92736214 C-194.38632406 2.57675335 -174.22670896 2.22879885 -154.06705141 1.88323069 C-141.66050401 1.67048165 -129.25399451 1.45574287 -116.84752792 1.23833191 C-108.3018724 1.08877767 -99.75617425 0.94183682 -91.2104407 0.79681146 C-86.30430757 0.71347907 -81.3981986 0.62912953 -76.49213791 0.54162788 C-50.99193621 0.08775471 -25.50420725 -0.07928186 0 0 Z " fill="#3B6386" transform="translate(1278,1297)"/>
<path d="M0 0 C10.95691482 9.28955821 16.57304186 24.14645711 17.75 38.171875 C18.20072429 46.34125269 17.69653927 54.29971664 16.9375 62.4375 C16.85072998 63.37045898 16.76395996 64.30341797 16.67456055 65.26464844 C16.00298943 72.05353171 16.00298943 72.05353171 14.875 75.4375 C7.945 75.4375 1.015 75.4375 -6.125 75.4375 C-6.125 80.3875 -6.125 85.3375 -6.125 90.4375 C-0.515 90.4375 5.095 90.4375 10.875 90.4375 C5.5271293 106.48111211 -4.10078194 116.87983903 -19.125 124.4375 C-45.19998566 136.43108283 -75.42762779 134.76889409 -102.125 125.4375 C-108.2028274 122.99035134 -113.44039854 119.96440219 -117.125 114.4375 C-117.83711566 109.6265791 -117.67730245 105.58628909 -115.5625 101.1875 C-109.90372274 94.80323847 -103.92619603 91.01198672 -96.1875 87.5 C-95.26670654 87.06961426 -94.34591309 86.63922852 -93.3972168 86.19580078 C-88.4570242 83.90175794 -83.47903118 81.73302532 -78.44677734 79.65039062 C-62.7744755 73.11486937 -51.93604616 62.05780884 -44.8515625 46.671875 C-41.10037948 37.16250657 -39.25607698 27.22768365 -37.35546875 17.21142578 C-34.83991258 4.49214492 -34.83991258 4.49214492 -29.125 -0.20703125 C-28.135 -0.78517578 -28.135 -0.78517578 -27.125 -1.375 C-26.465 -1.77332031 -25.805 -2.17164063 -25.125 -2.58203125 C-16.54676905 -6.78737494 -8.038307 -4.0191535 0 0 Z " fill="#7895AE" transform="translate(1248.125,1142.5625)"/>
<path d="M0 0 C9.1313741 -0.00129038 18.26274497 -0.00504982 27.39411789 -0.00973773 C39.69190304 -0.01581726 51.98967711 -0.01587363 64.28746277 -0.01148868 C68.82561023 -0.01001371 73.36374916 -0.01071749 77.90189606 -0.01332736 C83.11783695 -0.01617683 88.33375358 -0.01431546 93.54969186 -0.00853896 C95.4467896 -0.00723358 97.34388937 -0.00763737 99.24098629 -0.00984168 C101.80312166 -0.0125444 104.36517569 -0.00918251 106.92730576 -0.00415301 C107.67952294 -0.00638358 108.43174012 -0.00861414 109.20675176 -0.0109123 C114.28509998 0.00865525 114.28509998 0.00865525 115.39927536 1.12283063 C115.58677536 4.56033063 115.58677536 4.56033063 115.39927536 8.12283063 C112.94848246 10.57362353 111.61117781 10.36246491 108.26684538 10.38677469 C107.54561677 10.38180651 106.82438816 10.37683833 106.08130413 10.3717196 C105.31446276 10.37432688 104.54762139 10.37693417 103.7575424 10.37962046 C101.16090141 10.38596942 98.56449778 10.37792727 95.96786362 10.37006879 C94.09831472 10.37165547 92.22876639 10.37411765 90.35921967 10.3773852 C85.20072839 10.38382724 80.04231502 10.3777086 74.88382882 10.36962092 C69.32891643 10.36306562 63.77401306 10.36798763 58.21909958 10.37150311 C47.32897069 10.37655496 36.43887207 10.37089123 25.54874694 10.36165281 C12.88061546 10.35129062 0.21249061 10.35133842 -12.4556443 10.35182539 C-35.73345492 10.35234164 -59.01124872 10.34229213 -82.289053 10.32732295 C-103.55692697 10.31369672 -124.8247897 10.30746171 -146.092668 10.30813336 C-147.45834289 10.30817377 -148.82401779 10.30821413 -150.18969268 10.30825444 C-150.86484386 10.30827479 -151.53999504 10.30829514 -152.23560535 10.30831611 C-155.63394377 10.3084169 -159.03228219 10.30850748 -162.43062061 10.30858636 C-163.10100296 10.30860307 -163.7713853 10.30861979 -164.46208227 10.30863701 C-186.02053292 10.3090801 -207.57898163 10.30196311 -229.13743069 10.29422351 C-237.97907798 10.29120089 -246.8207243 10.29014321 -255.66237205 10.28969121 C-266.42864064 10.28901066 -277.19490029 10.28456817 -287.96116508 10.2753584 C-293.45990453 10.27072597 -298.9586325 10.2677002 -304.45737404 10.26895261 C-309.48248858 10.27004169 -314.50757766 10.26656606 -319.53268688 10.25930408 C-321.35901145 10.25747969 -323.18533863 10.25737109 -325.01166333 10.25907137 C-327.47733799 10.26111417 -329.94292736 10.25711242 -332.40859455 10.25146508 C-333.49394921 10.25454806 -333.49394921 10.25454806 -334.60123023 10.25769332 C-339.48656974 10.23698552 -339.48656974 10.23698552 -340.60072464 9.12283063 C-340.74187625 6.45224212 -340.64319571 3.79850825 -340.60072464 1.12283063 C-250.61392288 0.62380713 -160.62644411 0.14856326 0 0 Z " fill="#453F41" transform="translate(1165.6007246375084,685.8771693706512)"/>
<path d="M0 0 C1.08380569 0.00394052 1.08380569 0.00394052 2.18950644 0.00796065 C3.33595457 0.00622988 3.33595457 0.00622988 4.50556326 0.00446415 C7.09950655 0.00179031 9.69338936 0.00632591 12.28732958 0.01075396 C14.15260255 0.01031841 16.01787546 0.00944382 17.88314804 0.00816479 C23.03440779 0.00591655 28.18564696 0.00994558 33.33690408 0.01494285 C38.88226892 0.01924248 44.4276325 0.01780128 49.97299853 0.01704058 C59.58923327 0.01651503 69.20546125 0.01966502 78.82169428 0.02527842 C92.72532729 0.03338929 106.62895702 0.03600821 120.53259214 0.03726641 C143.08775709 0.03945758 165.64291814 0.04611087 188.19808093 0.05556902 C210.11442188 0.06474871 232.03076187 0.07183465 253.94710436 0.07607684 C254.62228611 0.07620836 255.29746786 0.07633989 255.99310966 0.0764754 C262.77336679 0.07779388 269.55362394 0.0790697 276.33388109 0.08031426 C333.22505896 0.09076097 390.11623285 0.10841238 447.0074071 0.13100848 C447.3374071 2.11100848 447.6674071 4.09100848 448.0074071 6.13100848 C223.2774071 6.62600848 223.2774071 6.62600848 -5.9925929 7.13100848 C-5.9925929 0.0207138 -5.9925929 0.0207138 0 0 Z " fill="#453F41" transform="translate(830.9925929009914,1342.868991523981)"/>
<path d="M0 0 C16.5 0 33 0 50 0 C50 19.8 50 39.6 50 60 C33.5 60 17 60 0 60 C0 53.07 0 46.14 0 39 C6.93 39 13.86 39 21 39 C21 34.05 21 29.1 21 24 C14.07 24 7.14 24 0 24 C0 16.08 0 8.16 0 0 Z " fill="#B77232" transform="translate(1285,786)"/>
<path d="M0 0 C16.5 0 33 0 50 0 C50 19.8 50 39.6 50 60 C33.5 60 17 60 0 60 C0 46 0 46 3.3671875 42.62109375 C5.5390625 41.46655273 5.5390625 41.46655273 7.875 40.4375 C8.6484375 40.04312744 9.421875 39.64875488 10.21875 39.24243164 C12.45857634 38.11104779 14.72251509 37.0529076 17 36 C19.00176514 34.98263231 21.0021911 33.96261477 23 32.9375 C24.1446875 32.39416016 24.1446875 32.39416016 25.3125 31.83984375 C26.98887138 31.11712384 26.98887138 31.11712384 28 30 C27.40050537 29.71801758 26.80101074 29.43603516 26.18334961 29.14550781 C23.43333568 27.84994805 20.68541309 26.55000938 17.9375 25.25 C16.99455078 24.8065625 16.05160156 24.363125 15.08007812 23.90625 C9.92070531 21.46139041 4.90996811 18.91465514 0 16 C0 10.72 0 5.44 0 0 Z " fill="#B77232" transform="translate(1284,1195)"/>
<path d="M0 0 C5.63706757 -0.32401348 11.26861303 -0.55837872 16.9128418 -0.71411133 C18.82721412 -0.77906814 20.74095188 -0.86748095 22.65307617 -0.98071289 C38.06753776 -1.86993137 38.06753776 -1.86993137 42.92150879 1.22528076 C46.72018445 4.64184516 49.30623098 8.69526063 52 13 C53.51734906 14.93597496 55.05521093 16.85629741 56.625 18.75 C57.35203125 19.64589844 58.0790625 20.54179688 58.828125 21.46484375 C60.90609701 23.89039021 63.07528271 26.09841048 65.375 28.3125 C69.61989351 32.4394798 73.16289239 36.91871572 76.7487793 41.60961914 C80.45678772 46.4199203 84.43917562 50.89187128 88.64794922 55.26879883 C92 58.79834002 92 58.79834002 92 61 C56.13708421 63.42767636 56.13708421 63.42767636 48.828125 58.1640625 C45.97733454 55.3594277 43.84846111 52.20107697 41.94238281 48.69580078 C40.71725951 46.49121361 39.16588944 44.76454181 37.4375 42.9375 C36.91285156 42.33164063 36.38820313 41.72578125 35.84765625 41.1015625 C29.25701224 33.60522745 22.43025824 26.37052461 15.3125 19.375 C9.80060449 13.93951026 4.47243375 8.34461532 0 2 C0 1.34 0 0.68 0 0 Z " fill="#443E40" transform="translate(840,1431)"/>
<path d="M0 0 C17.82 0 35.64 0 54 0 C54 14.52 54 29.04 54 44 C36.18 44.33 18.36 44.66 0 45 C0 30.15 0 15.3 0 0 Z " fill="#443E40" transform="translate(1026,490)"/>
<path d="M0 0 C0.83759354 0.02064514 1.67518707 0.04129028 2.53816223 0.06256104 C3.8302636 0.07105072 3.8302636 0.07105072 5.14846802 0.07971191 C7.90002497 0.10210474 10.65028011 0.15230523 13.40144348 0.20318604 C15.26665905 0.22324734 17.13189503 0.24149875 18.99714661 0.25787354 C23.5699139 0.30197891 28.14170798 0.37102547 32.71394348 0.45318604 C30.93820916 4.25020819 28.68186465 6.78520547 25.77644348 9.82818604 C21.64991063 14.21711144 17.82175441 18.73949646 14.15144348 23.51568604 C10.09390205 28.78941363 5.79992173 33.71084259 1.26472473 38.58599854 C-2.16599267 42.442272 -5.31861443 46.49023597 -8.44425964 50.59576416 C-9.08717957 51.43397705 -9.08717957 51.43397705 -9.74308777 52.28912354 C-10.11409607 52.77945068 -10.48510437 53.26977783 -10.86735535 53.77496338 C-11.33552673 54.32877686 -11.80369812 54.88259033 -12.28605652 55.45318604 C-12.98198914 56.33337402 -13.67792175 57.21356201 -14.39494324 58.12042236 C-18.35454186 61.3153189 -21.15123386 61.09961323 -26.08683777 60.94146729 C-27.34140022 60.93085518 -27.34140022 60.93085518 -28.62130737 60.92002869 C-31.28131703 60.89213589 -33.93918791 60.82941085 -36.59855652 60.76568604 C-38.40646873 60.74059638 -40.21441408 60.71778437 -42.02238464 60.69732666 C-46.44442724 60.64232645 -50.86487982 60.55609246 -55.28605652 60.45318604 C-53.6349621 56.96182844 -51.68493925 54.53226487 -49.03605652 51.70318604 C-46.28876597 48.71091417 -43.66736298 45.74420508 -41.28605652 42.45318604 C-38.32168624 38.37512968 -34.96062847 34.72730141 -31.56340027 31.00787354 C-28.7511692 27.85315807 -26.14951401 24.56176108 -23.53605652 21.24224854 C-20.25338349 17.17310176 -16.83430872 13.22451504 -13.40983582 9.2744751 C-12.67374084 8.42321045 -12.67374084 8.42321045 -11.92277527 7.55474854 C-11.48666931 7.05281982 -11.05056335 6.55089111 -10.60124207 6.03375244 C-9.18257481 4.44568559 -9.18257481 4.44568559 -8.17277527 2.28375244 C-5.62145006 -0.19164047 -3.44236368 -0.00133236 0 0 Z " fill="#443E40" transform="translate(1229.2860565185547,1430.5468139648438)"/>
<path d="M0 0 C7.59156901 3.12594018 12.70996014 11.47961282 17.41015625 17.9375 C20.67906968 22.17825256 24.39241926 26.04823311 28 30 C32.94109513 35.55027124 37.75592967 41.21034736 42.58813477 46.85522461 C45.29692089 50.01810194 48.00998941 53.17657045 50.75 56.3125 C51.27207031 56.9209375 51.79414062 57.529375 52.33203125 58.15625 C54.03939994 60.08957334 54.03939994 60.08957334 56.19921875 62.09375 C60.17351537 66.03336689 62.53396662 68.76311365 62.75 74.5 C62.12948411 82.28366427 58.96939378 89.773286 53 95 C49.76104259 95.73828697 49.76104259 95.73828697 46.02079773 95.7215271 C44.98533435 95.72921692 44.98533435 95.72921692 43.92895252 95.7370621 C41.62184232 95.74692524 39.31736579 95.71398689 37.01049805 95.68115234 C35.3546098 95.67945946 33.69871705 95.68041077 32.04283142 95.68380737 C27.55114027 95.68552889 23.0604105 95.65025413 18.56894279 95.60836363 C13.87379566 95.57085541 9.17862649 95.5673312 4.48335266 95.56021118 C-4.40610118 95.54156257 -13.29511229 95.49232541 -22.18437117 95.43211424 C-32.30515093 95.36504953 -42.42595184 95.33206021 -52.54689848 95.30194163 C-73.3648461 95.23922634 -94.18239516 95.13369103 -115 95 C-115 92.69 -115 90.38 -115 88 C-113.7700177 87.99283494 -113.7700177 87.99283494 -112.51518726 87.98552513 C-92.56806497 87.86728105 -72.6214271 87.71621789 -52.67483234 87.52857018 C-43.02879008 87.43861747 -33.3828961 87.35979736 -23.73657227 87.30712891 C-15.32933993 87.26119765 -6.92257614 87.19443546 1.4842847 87.10259688 C5.93626136 87.05469154 10.38777347 87.01726168 14.84000206 87.00477219 C19.03062119 86.99268749 23.22005144 86.95275623 27.41023064 86.89144897 C28.94803872 86.87386003 30.4860021 86.86644933 32.02390671 86.86998367 C39.8676167 87.19790695 39.8676167 87.19790695 47.01212502 84.67757034 C49.59139964 81.67217071 50.93172483 78.69640673 51.3125 74.8125 C50.66431004 66.90458244 45.57876805 62.2363121 40.40625 56.65234375 C38.099721 54.10991974 35.95061065 51.49710534 33.8125 48.8125 C30.06758779 44.17562971 26.09174446 39.82740891 22 35.5 C17.15424417 30.36999592 12.50387187 25.16836682 8.11328125 19.63671875 C6.58707317 17.73248501 5.01587496 15.86401301 3.41796875 14.01953125 C2.57878906 13.04371094 1.73960937 12.06789063 0.875 11.0625 C-0.27355469 9.74958984 -0.27355469 9.74958984 -1.4453125 8.41015625 C-3 6 -3 6 -2.8671875 3.80859375 C-2 2 -2 2 0 0 Z " fill="#443E40" transform="translate(887,1425)"/>
<path d="M0 0 C7.23126222 5.32526214 13.73428588 11.5646838 18.59130859 19.171875 C18.59130859 19.831875 18.59130859 20.491875 18.59130859 21.171875 C15.65770026 19.80634239 13.20494656 18.21971603 10.65380859 16.234375 C9.31490814 15.1935995 7.95981278 14.173406 6.59130859 13.171875 C5.84107422 12.62273437 5.09083984 12.07359375 4.31787109 11.5078125 C0.82881457 9.79827478 -2.29016765 9.67640156 -6.09619141 9.734375 C-7.1651062 9.7489978 -7.1651062 9.7489978 -8.25561523 9.76391602 C-14.3433939 9.96755528 -19.08515098 11.11403338 -24.40869141 14.171875 C-25.30716797 14.66558594 -26.20564453 15.15929688 -27.13134766 15.66796875 C-35.26283615 20.71473774 -41.73957909 27.3132173 -48.40869141 34.109375 C-76.50997246 62.74019097 -76.50997246 62.74019097 -92.32666016 63.26953125 C-93.40560547 63.25792969 -94.48455078 63.24632812 -95.59619141 63.234375 C-96.68287109 63.22535156 -97.76955078 63.21632813 -98.88916016 63.20703125 C-99.72060547 63.19542969 -100.55205078 63.18382812 -101.40869141 63.171875 C-101.73869141 62.511875 -102.06869141 61.851875 -102.40869141 61.171875 C-101.62365234 60.80835938 -100.83861328 60.44484375 -100.02978516 60.0703125 C-98.97919922 59.56757812 -97.92861328 59.06484375 -96.84619141 58.546875 C-95.81365234 58.05960938 -94.78111328 57.57234375 -93.71728516 57.0703125 C-87.03051112 53.23350945 -82.33761882 48.28881838 -77.90869141 42.046875 C-77.43222168 41.38872803 -76.95575195 40.73058105 -76.46484375 40.05249023 C-73.73758506 36.22905309 -71.29913638 32.35387818 -69.03369141 28.234375 C-61.0204435 14.03343926 -49.8089159 0.08657228 -33.95166016 -5.13671875 C-21.1263245 -8.62379158 -10.89129863 -7.64078244 0 0 Z " fill="#345B7E" transform="translate(1086.40869140625,1039.828125)"/>
<path d="M0 0 C2.475 2.475 2.475 2.475 5 5 C-1.54255209 13.95431638 -8.57464601 22.46709163 -15.98828125 30.7109375 C-18.11854601 33.13488925 -20.15679409 35.61713369 -22.1875 38.125 C-25.85138232 42.64168252 -29.61873861 47.05231679 -33.4375 51.4375 C-34.54430427 52.71611689 -35.65107532 53.99476254 -36.7578125 55.2734375 C-38.8367936 57.67226185 -40.93645527 60.04987767 -43.0546875 62.4140625 C-43.97440392 63.4631512 -44.89369928 64.51260924 -45.8125 65.5625 C-46.62332031 66.47128906 -47.43414063 67.38007812 -48.26953125 68.31640625 C-50.35777177 71.5548289 -50.52145007 73.21315869 -50 77 C-49.1164318 79.25329588 -49.1164318 79.25329588 -47.75 81.1875 C-47.33234375 81.84105469 -46.9146875 82.49460937 -46.484375 83.16796875 C-43.97433749 86.26588347 -42.11113559 87.85401355 -38.07149887 88.38476086 C-36.9247884 88.38936982 -35.77807793 88.39397879 -34.59661865 88.39872742 C-32.61945862 88.41753464 -32.61945862 88.41753464 -30.60235596 88.4367218 C-29.14343237 88.43554776 -27.68450899 88.43408861 -26.22558594 88.43237305 C-24.68806164 88.44138991 -23.15054454 88.45171694 -21.61303711 88.46325684 C-17.43983442 88.49086206 -13.266768 88.50011611 -9.09348583 88.50611091 C-4.73188553 88.51548543 -0.37038738 88.54168805 3.9911499 88.56611633 C12.25000004 88.60981043 20.50883038 88.6383395 28.76776099 88.66143972 C38.17039375 88.6884758 47.57292388 88.73238828 56.97548342 88.77772844 C76.3169348 88.87061639 95.65841332 88.94227811 115 89 C115 91.64 115 94.28 115 97 C93.7378259 97.0562915 72.47606429 97.06693971 51.21385098 97.02334595 C41.34123461 97.00416676 31.46903274 96.99988756 21.59643555 97.03076172 C12.99077942 97.05763595 4.38566023 97.05647557 -4.21997589 97.02174091 C-8.7762392 97.00432728 -13.33154077 97.00089126 -17.88775826 97.03103638 C-22.17857487 97.05898236 -26.46768689 97.04937408 -30.7584095 97.01126289 C-32.33093406 97.00385925 -33.90359201 97.0100441 -35.47599411 97.03101921 C-47.306029 97.17750262 -47.306029 97.17750262 -51.46208 94.28857422 C-57.11361319 88.04008363 -59.80164689 80.84581276 -59.45703125 72.421875 C-58.61183378 67.94305079 -55.99467886 65.30931678 -53 62 C-52.12553253 60.97552641 -51.25472223 59.9479248 -50.38671875 58.91796875 C-46.21606964 53.98471493 -41.97700425 49.11161117 -37.71875 44.25390625 C-32.4410835 38.22161433 -27.27072767 32.16060345 -22.375 25.8125 C-18.00560818 20.14708865 -13.34445011 14.87086924 -8.4609375 9.64453125 C-5.54098943 6.50674579 -2.7581426 3.27995336 0 0 Z " fill="#443E40" transform="translate(1216,1424)"/>
<path d="M0 0 C0 0.99 0 1.98 0 3 C-3.95010848 6.20925024 -7.24252407 6.3735639 -12.22138691 6.36914349 C-13.30131384 6.37433579 -13.30131384 6.37433579 -14.40305749 6.37963298 C-16.82224317 6.38759135 -19.24083321 6.37410084 -21.6599884 6.36076355 C-23.40909566 6.36207149 -25.15820235 6.36469769 -26.9073059 6.36853105 C-31.71894991 6.37525028 -36.5303942 6.36322357 -41.34201276 6.34819686 C-46.52874907 6.33526149 -51.71547379 6.33962419 -56.90222168 6.34190369 C-65.89035022 6.343478 -74.87841352 6.33405224 -83.86652565 6.31719017 C-96.86187442 6.29282621 -109.85719159 6.28499756 -122.85256072 6.2812262 C-143.93582335 6.27465763 -165.01905119 6.25468545 -186.10229492 6.22631836 C-206.58471502 6.19878829 -227.06712568 6.17754956 -247.54956055 6.16479492 C-249.44283881 6.16361267 -249.44283881 6.16361267 -251.37436513 6.16240653 C-257.70627404 6.15849146 -264.03818301 6.15470033 -270.37009203 6.15097082 C-322.91341874 6.11986228 -375.45670767 6.06701543 -428 6 C-428.66 4.68 -429.32 3.36 -430 2 C-429.36965033 1.99826375 -428.73930065 1.9965275 -428.08984947 1.99473864 C-390.12167283 1.89006927 -352.15350837 1.78166945 -314.18535495 1.66888306 C-309.55293202 1.65512521 -304.92050901 1.64139637 -300.28808594 1.62768555 C-299.36644921 1.62495724 -298.44481248 1.62222894 -297.49524736 1.61941796 C-284.66490115 1.5814962 -271.83455141 1.54512134 -259.00419712 1.51004235 C-236.83611923 1.44943172 -214.6680527 1.38565552 -192.5 1.31640625 C-191.19872823 1.31235168 -191.19872823 1.31235168 -189.87116814 1.3082152 C-126.57798422 1.11039945 -63.28991376 0.6900241 0 0 Z " fill="#453F41" transform="translate(1267,701)"/>
<path d="M0 0 C0 0.66 0 1.32 0 2 C1.65 2.66 3.3 3.32 5 4 C5 4.33 5 4.66 5 5 C-32.18094275 5.03055767 -69.3618882 5.05073985 -106.54284155 5.06185675 C-108.68048104 5.06249789 -110.81812052 5.0631568 -112.95576 5.06381607 C-192.34688503 5.08790845 -271.73503457 4.98781072 -351.125 4.5 C-352.58777665 4.49103943 -352.58777665 4.49103943 -354.08010435 4.48189783 C-378.05349844 4.33478672 -402.02679943 4.17590469 -426 4 C-426 3.34 -426 2.68 -426 2 C-422.09541181 0.6984706 -418.38287418 0.84648797 -414.31240845 0.84178162 C-412.96062685 0.83437438 -412.96062685 0.83437438 -411.58153653 0.82681751 C-408.53954838 0.81138342 -405.49758159 0.80305866 -402.45556641 0.79467773 C-400.26955038 0.78509365 -398.08353618 0.77508597 -395.89752388 0.76468754 C-389.89715358 0.73745747 -383.8967754 0.71650293 -377.89637661 0.69668961 C-371.49700534 0.67460546 -365.09765675 0.64714631 -358.69830322 0.6204834 C-346.30025818 0.56983405 -333.90219865 0.52497358 -321.50412369 0.48234785 C-311.52131626 0.44797543 -301.5385194 0.41130374 -291.5557251 0.37332153 C-206.43429547 0.050389 -121.31364786 -0.11123212 0 0 Z " fill="#443E40" transform="translate(1264,1332)"/>
<path d="M0 0 C0 6.93 0 13.86 0 21 C-27.39 21 -54.78 21 -83 21 C-83 14.73 -83 8.46 -83 2 C-81.23527344 2.02320313 -79.47054687 2.04640625 -77.65234375 2.0703125 C-55.33173285 2.26154665 -33.09403982 1.38159754 -10.8014679 0.30490112 C-9.54380867 0.24485397 -9.54380867 0.24485397 -8.26074219 0.18359375 C-7.53119324 0.14806396 -6.80164429 0.11253418 -6.04998779 0.07592773 C-4.03454833 0.00127961 -2.01682141 0 0 0 Z " fill="#443E40" transform="translate(1095,1503)"/>
<path d="M0 0 C0 0.66 0 1.32 0 2 C0.7425 2.12375 1.485 2.2475 2.25 2.375 C4.80141485 2.95486701 6.7267573 3.73708739 9 5 C9 5.66 9 6.32 9 7 C7.27716797 7.03867188 7.27716797 7.03867188 5.51953125 7.078125 C-16.23027369 7.78086886 -33.96938467 15.0639895 -49.0625 31.125 C-58.01016749 41.6861813 -64.5697999 53.3235395 -70 66 C-70.99 66 -71.98 66 -73 66 C-73.0879568 61.854303 -73.14071153 57.70884988 -73.1875 53.5625 C-73.21263672 52.39783203 -73.23777344 51.23316406 -73.26367188 50.03320312 C-73.3511993 39.67579169 -71.21719892 32.24941013 -65.8125 23.5 C-65.41450195 22.85345459 -65.01650391 22.20690918 -64.60644531 21.54077148 C-55.55056211 7.14825704 -43.69181408 -1.11767268 -27 -5 C-17.37342195 -6.99842886 -8.92808216 -3.49654929 0 0 Z " fill="#345B7E" transform="translate(899,1067)"/>
<path d="M0 0 C1.60354494 1.08137388 3.18020763 2.20229585 4.75512695 3.32495117 C5.57368164 3.85217773 6.39223633 4.3794043 7.2355957 4.92260742 C13.4038529 9.19125975 17.57602134 14.92062059 22.0637207 20.82495117 C34.07194564 36.59134526 49.60140223 51.63162153 69.75512695 55.32495117 C80.20450911 56.50205549 88.96799762 55.74530907 97.75512695 49.32495117 C100.03969908 47.14934713 102.06661443 44.93559182 104.03637695 42.47338867 C105.80836452 40.25840421 107.7198813 38.29771122 109.75512695 36.32495117 C110.08512695 37.31495117 110.41512695 38.30495117 110.75512695 39.32495117 C105.02635546 49.99520684 96.71990704 55.89789793 85.43481445 59.63354492 C72.33150926 63.01442687 59.08746823 57.32964457 47.8371582 50.91088867 C41.68766681 47.17293454 36.7762359 42.43104363 31.75512695 37.32495117 C30.33780273 35.97723633 30.33780273 35.97723633 28.8918457 34.60229492 C24.13993439 30.03441337 19.94686057 25.40889739 16.06762695 20.07495117 C8.940403 10.33775788 -1.51798692 0.80472751 -13.83862305 -1.28442383 C-27.36668364 -1.5837172 -39.30765215 1.95467462 -49.32299805 11.25463867 C-57.16750566 19.70502289 -64.23815422 29.52671038 -69.86987305 39.57495117 C-77.93492716 53.79390913 -88.21211516 63.38829148 -103.9050293 68.41479492 C-120.21408868 72.85925204 -135.67656743 66.71949567 -150.24487305 59.32495117 C-154.19784638 56.95119315 -157.69279092 54.25666966 -161.24487305 51.32495117 C-162.5629749 50.28828004 -163.88347207 49.25465028 -165.20581055 48.22338867 C-176.05101355 39.71267017 -176.05101355 39.71267017 -177.24487305 37.32495117 C-179.12751186 36.42151433 -179.12751186 36.42151433 -181.30737305 35.69995117 C-182.04084961 35.43956055 -182.77432617 35.17916992 -183.5300293 34.91088867 C-184.09592773 34.7175293 -184.66182617 34.52416992 -185.24487305 34.32495117 C-185.24487305 33.66495117 -185.24487305 33.00495117 -185.24487305 32.32495117 C-186.11370117 32.20635742 -186.9825293 32.08776367 -187.87768555 31.96557617 C-191.19647995 31.33415821 -193.97976235 30.29837092 -197.11987305 29.07495117 C-207.37584438 25.87069103 -217.21257943 28.61716028 -226.68237305 33.07495117 C-234.55406226 37.41132271 -240.92510004 42.18887008 -246.0534668 49.62573242 C-247.24487305 51.32495117 -247.24487305 51.32495117 -249.24487305 53.32495117 C-250.23487305 53.32495117 -251.22487305 53.32495117 -252.24487305 53.32495117 C-247.83914363 41.28824546 -237.84114011 33.8023067 -226.55737305 28.44995117 C-213.93896004 23.15663385 -202.89099746 22.88484737 -189.9128418 27.78198242 C-178.4184231 32.61722777 -168.67670264 40.08786941 -159.05737305 47.91088867 C-145.86500523 58.54476079 -129.57633331 66.40865751 -112.2175293 65.70776367 C-102.8121187 64.49655442 -94.57810211 61.33847111 -87.24487305 55.32495117 C-86.51913086 54.73456055 -85.79338867 54.14416992 -85.0456543 53.53588867 C-79.34114354 48.37893131 -75.84449363 42.51433762 -72.10742188 35.90454102 C-67.83957781 28.42989653 -62.90978805 21.79551072 -57.24487305 15.32495117 C-56.70314453 14.70394531 -56.16141602 14.08293945 -55.60327148 13.44311523 C-48.00263642 4.89619893 -41.56573784 -0.78838957 -30.24487305 -3.67504883 C-29.31674805 -3.95735352 -29.31674805 -3.95735352 -28.36987305 -4.24536133 C-18.08116193 -6.32579924 -8.87978103 -5.66183883 0 0 Z " fill="#040505" transform="translate(1084.244873046875,1034.675048828125)"/>
<path d="M0 0 C-0.66 0.99 -1.32 1.98 -2 3 C-4.80457361 3.31485495 -7.39198519 3.43014746 -10.20153809 3.42146301 C-11.06651114 3.43056397 -11.93148419 3.43966492 -12.82266855 3.44904166 C-15.76401587 3.47620027 -18.70502262 3.48172681 -21.64648438 3.48754883 C-23.77725116 3.50256976 -25.90800923 3.51887195 -28.03875732 3.53634453 C-33.9620051 3.58088987 -39.88520864 3.60624933 -45.80857658 3.62850928 C-52.2391873 3.65572892 -58.66968784 3.69973312 -65.10021973 3.74116516 C-78.04092164 3.82201417 -90.98167009 3.88321851 -103.92250299 3.93861777 C-114.29810416 3.98308618 -124.67367491 4.03191442 -135.04923999 4.08412631 C-174.58281314 4.2829485 -214.11642382 4.44697843 -253.65028381 4.5767498 C-257.27743534 4.58867132 -260.90458682 4.60060654 -264.53173828 4.61254883 C-265.43132904 4.61550221 -266.33091981 4.6184556 -267.2577709 4.62149848 C-282.13663076 4.67053938 -297.01544175 4.72870662 -311.89425462 4.79024651 C-327.41073401 4.8542887 -342.92722598 4.91084217 -358.4437604 4.95981437 C-367.06399027 4.98719804 -375.68418149 5.01776234 -384.30436707 5.05682945 C-391.55035456 5.08964504 -398.79632527 5.11570419 -406.04236794 5.13268574 C-409.7256489 5.14152333 -413.40884304 5.15364269 -417.09207726 5.17449379 C-421.07379502 5.19694594 -425.05545192 5.20391692 -429.03723145 5.20927429 C-430.78623001 5.22282606 -430.78623001 5.22282606 -432.57056189 5.2366516 C-433.63212578 5.2355362 -434.69368968 5.2344208 -435.78742218 5.2332716 C-437.16261922 5.23815429 -437.16261922 5.23815429 -438.56559801 5.24313563 C-441.14663029 4.98535532 -442.77985713 4.30674723 -445 3 C-445 2.34 -445 1.68 -445 1 C-397.55224806 0.87159449 -350.10449371 0.74411268 -302.65673611 0.61781773 C-297.01611181 0.60280293 -291.37548754 0.58778071 -285.73486328 0.57275391 C-284.61222692 0.56976329 -283.48959056 0.56677268 -282.33293492 0.56369144 C-264.31192815 0.51566735 -246.29092304 0.46704715 -228.2699185 0.41819459 C-209.68768721 0.36783434 -191.10545422 0.31814262 -172.52321959 0.26903296 C-162.12426855 0.24153215 -151.72531844 0.21374943 -141.32637024 0.18519592 C-94.21746564 0.05600415 -47.1090995 -0.03795951 0 0 Z " fill="#433E40" transform="translate(1275,697)"/>
<path d="M0 0 C5.52013044 3.08039076 8.60528998 6.87836995 10.625 12.9375 C11.40859962 19.23987984 10.93984893 24.03453978 7.16015625 29.24609375 C2.38997157 34.50179341 -2.8074984 35.65006155 -9.6640625 36.03515625 C-16.53625376 35.78759893 -21.59627823 32.82482908 -26.375 27.9375 C-29.39480302 23.56722606 -31.07991169 19.30201774 -30.75390625 13.94921875 C-29.71072047 8.41065509 -27.35389935 4.34831986 -22.8125 1 C-15.84473977 -3.5779271 -7.45468621 -3.40881454 0 0 Z " fill="#7895AE" transform="translate(1256.375,1086.0625)"/>
<path d="M0 0 C0.60642334 0.29841797 1.21284668 0.59683594 1.83764648 0.90429688 C6.96505623 3.65617325 11.47520203 6.97166429 14.125 12.25 C14.96028477 17.78543067 14.7895967 23.17235822 14.5625 28.75 C14.52733479 30.25513561 14.49540494 31.76035048 14.46679688 33.265625 C14.39019428 36.92874806 14.26970277 40.58886095 14.125 44.25 C13.795 44.25 13.465 44.25 13.125 44.25 C13.19203125 43.47398438 13.2590625 42.69796875 13.328125 41.8984375 C13.46999746 31.99101102 9.80105308 27.17863804 3.25 20.35546875 C2.21111754 19.3175183 1.1697217 18.28207291 0.125 17.25 C-0.596875 16.50363281 -1.31875 15.75726562 -2.0625 14.98828125 C-10.11938926 7.25031052 -20.83706443 3.69685305 -31.8125 3 C-41.17324102 3.33299079 -49.13380272 5.86593933 -56.875 11.25 C-57.89220607 12.57025361 -58.896625 13.90071866 -59.875 15.25 C-60.535 15.25 -61.195 15.25 -61.875 15.25 C-62.205 16.24 -62.535 17.23 -62.875 18.25 C-63.535 18.25 -64.195 18.25 -64.875 18.25 C-61.5572937 9.06993887 -54.10156043 0.63042637 -45.5078125 -4.03515625 C-29.86952044 -11.18775213 -14.79044036 -7.49886149 0 0 Z " fill="#345B7E" transform="translate(1265.875,1043.75)"/>
<path d="M0 0 C0.598125 0.474375 1.19625 0.94875 1.8125 1.4375 C6.06376153 3.75671757 6.06376153 3.75671757 16 4 C16 24.13 16 44.26 16 65 C12.04 65 8.08 65 4 65 C4 44.87 4 24.74 4 4 C1.69 3.67 -0.62 3.34 -3 3 C-2.01 2.67 -1.02 2.34 0 2 C0 1.34 0 0.68 0 0 Z " fill="#B67234" transform="translate(1344,781)"/>
<path d="M0 0 C3.96 0 7.92 0 12 0 C12 20.13 12 40.26 12 61 C8.04 61 4.08 61 0 61 C0 40.87 0 20.74 0 0 Z " fill="#B87333" transform="translate(1348,1195)"/>
<path d="M0 0 C17.82 0 35.64 0 54 0 C54 0.66 54 1.32 54 2 C53.24493164 2.12004395 52.48986328 2.24008789 51.71191406 2.36376953 C48.2209929 2.93065758 44.73583047 3.5276372 41.25 4.125 C40.06277344 4.31320312 38.87554688 4.50140625 37.65234375 4.6953125 C27.70146653 6.4353566 16.32111878 9.50599664 10 18 C5.92694307 24.65959673 4.87182257 32.04890052 3.61328125 39.62109375 C3 43 3 43 2 45 C1.34 45 0.68 45 0 45 C0 30.15 0 15.3 0 0 Z " fill="#393436" transform="translate(1026,490)"/>
<path d="M0 0 C0.83920486 0.00424484 1.67840973 0.00848969 2.54304504 0.01286316 C5.2230337 0.02965411 7.90226995 0.06730645 10.58203125 0.10546875 C12.39907768 0.12051508 14.2161359 0.13420357 16.03320312 0.14648438 C20.48726901 0.17955893 24.94077257 0.23134362 29.39453125 0.29296875 C29.34570312 2.28271484 29.296875 4.27246094 29.24804688 6.26220703 C29.4559865 9.14494335 30.75478389 10.96999332 32.39453125 13.29296875 C32.39453125 13.95296875 32.39453125 14.61296875 32.39453125 15.29296875 C26.91369488 15.44136685 21.43402883 15.55020638 15.95166016 15.62255859 C14.08719514 15.65271953 12.22287188 15.69365566 10.35888672 15.74560547 C7.67770447 15.81845592 4.99839802 15.85242993 2.31640625 15.87890625 C1.06775787 15.92535782 1.06775787 15.92535782 -0.20611572 15.9727478 C-2.49040245 15.97407413 -4.40535386 15.91003908 -6.60546875 15.29296875 C-9.86929551 11.5872053 -11.49487274 8.26978914 -11.60546875 3.29296875 C-8.52879477 -0.7573036 -4.69479974 -0.0891159 0 0 Z " fill="#443E40" transform="translate(1179.60546875,1493.70703125)"/>
<path d="M0 0 C12.21 0 24.42 0 37 0 C38.11567273 5.57836365 37.50003502 7.09252385 35 12 C33 14 33 14 29.28466797 14.22705078 C27.68713948 14.22673351 26.08958973 14.21539982 24.4921875 14.1953125 C23.23125778 14.19106766 23.23125778 14.19106766 21.94485474 14.18673706 C19.25475954 14.1755243 16.5649949 14.15041803 13.875 14.125 C12.05339022 14.1149716 10.23177523 14.10584551 8.41015625 14.09765625 C3.93997642 14.07558142 -0.52995571 14.04104434 -5 14 C-4.72285156 13.49210937 -4.44570313 12.98421875 -4.16015625 12.4609375 C-3.61681641 11.42839844 -3.61681641 11.42839844 -3.0625 10.375 C-2.70285156 9.70210937 -2.34320312 9.02921875 -1.97265625 8.3359375 C-0.67963272 5.48008455 -0.67963272 5.48008455 0 0 Z " fill="#443E40" transform="translate(898,1495)"/>
<path d="M0 0 C1.65 0 3.3 0 5 0 C4.9375 1.8125 4.9375 1.8125 4 4 C0.84889137 5.64717042 -2.33713529 6.76684119 -5.6875 7.9453125 C-27.64843556 15.95657216 -47.45073103 28.50095643 -64 45 C-64.73605469 45.71285156 -65.47210937 46.42570313 -66.23046875 47.16015625 C-75.22380831 56.46661015 -80.73587178 68.33503278 -83 81 C-83.33 81 -83.66 81 -84 81 C-84.495 78.525 -84.495 78.525 -85 76 C-85.99 76.99 -85.99 76.99 -87 78 C-85.34266911 66.32890142 -80.3584906 57.05771152 -73 48 C-72.12021484 46.89205078 -72.12021484 46.89205078 -71.22265625 45.76171875 C-69.87784468 44.12098288 -68.4475012 42.55089414 -67 41 C-66.34 41 -65.68 41 -65 41 C-64.7525 40.38125 -64.505 39.7625 -64.25 39.125 C-62.77229238 36.61289704 -61.56044823 36.23892656 -59 35 C-58.67 34.01 -58.34 33.02 -58 32 C-55.4375 30.8125 -55.4375 30.8125 -53 30 C-53 29.34 -53 28.68 -53 28 C-51.34765625 26.703125 -51.34765625 26.703125 -49.0625 25.25 C-45.4850938 22.96762798 -45.4850938 22.96762798 -41.99609375 20.5546875 C-36.98507157 16.96557964 -31.67817133 14.26065996 -26.125 11.625 C-25.37476563 11.26680176 -24.62453125 10.90860352 -23.8515625 10.53955078 C-23.14 10.20938965 -22.4284375 9.87922852 -21.6953125 9.5390625 C-21.05609863 9.24209473 -20.41688477 8.94512695 -19.75830078 8.63916016 C-18 8 -18 8 -15 8 C-15 7.34 -15 6.68 -15 6 C-13.06441401 5.32779649 -11.12645628 4.66241923 -9.1875 4 C-8.10855469 3.62875 -7.02960938 3.2575 -5.91796875 2.875 C-3 2 -3 2 0 2 C0 1.34 0 0.68 0 0 Z " fill="#282728" transform="translate(909,555)"/>
<path d="M0 0 C1.98 0 3.96 0 6 0 C6 17.82 6 35.64 6 54 C4.02 54 2.04 54 0 54 C0 36.18 0 18.36 0 0 Z " fill="#A05C1D" transform="translate(1338,1199)"/>
<path d="M0 0 C12.87 0 25.74 0 39 0 C39 2.31 39 4.62 39 7 C38 8 38 8 34.39819336 8.11352539 C32.79540144 8.11336625 31.1926044 8.10767063 29.58984375 8.09765625 C28.74780899 8.0962413 27.90577423 8.09482635 27.03822327 8.09336853 C24.33794665 8.08775263 21.63775172 8.07519748 18.9375 8.0625 C17.11132932 8.05748705 15.28515734 8.05292379 13.45898438 8.04882812 C8.97262458 8.03777804 4.48632616 8.02050279 0 8 C0 5.36 0 2.72 0 0 Z " fill="#433E40" transform="translate(730,1513)"/>
<path d="M0 0 C0 2.64 0 5.28 0 8 C-13.2 8 -26.4 8 -40 8 C-40 5.69 -40 3.38 -40 1 C-35.26777475 0.85643725 -30.53551585 0.71405943 -25.80322266 0.57275391 C-24.19514007 0.52457287 -22.58706696 0.47607458 -20.97900391 0.42724609 C-18.66050629 0.35690158 -16.34197641 0.28771819 -14.0234375 0.21875 C-13.31069672 0.19687622 -12.59795593 0.17500244 -11.86361694 0.15246582 C-7.9075072 0.03603213 -3.95777099 -0.02165675 0 0 Z " fill="#443E40" transform="translate(1375,1512)"/>
<path d="M0 0 C1.65 0 3.3 0 5 0 C5 18.15 5 36.3 5 55 C3.35 55 1.7 55 0 55 C0 36.85 0 18.7 0 0 Z " fill="#AE692A" transform="translate(1339,788)"/>
<path d="M0 0 C1.32 0 2.64 0 4 0 C4 20.13 4 40.26 4 61 C2.68 61 1.36 61 0 61 C0 40.87 0 20.74 0 0 Z " fill="#9E5B1C" transform="translate(1356,1195)"/>
<path d="M0 0 C1.32 0 2.64 0 4 0 C4 20.13 4 40.26 4 61 C2.68 61 1.36 61 0 61 C0 40.87 0 20.74 0 0 Z " fill="#9F5C1D" transform="translate(1356,785)"/>
<path d="M0 0 C0.96413818 -0.00193359 1.92827637 -0.00386719 2.92163086 -0.00585938 C3.95425049 -0.00134766 4.98687012 0.00316406 6.05078125 0.0078125 C7.61034546 0.01071289 7.61034546 0.01071289 9.20141602 0.01367188 C16.96127808 0.05702642 24.63647254 0.38289692 32.36328125 1.1328125 C32.85828125 4.1028125 32.85828125 4.1028125 33.36328125 7.1328125 C28.29047322 7.11342016 23.21940684 7.0617928 18.1472168 6.98022461 C16.42172739 6.95702339 14.69609595 6.94264388 12.97045898 6.93725586 C10.48982008 6.92798111 8.01142154 6.887029 5.53125 6.83984375 C4.3732917 6.84574272 4.3732917 6.84574272 3.19194031 6.85176086 C1.00854492 6.79223633 1.00854492 6.79223633 -2.63671875 6.1328125 C-4.6472168 3.58862305 -4.6472168 3.58862305 -5.63671875 1.1328125 C-4.01690382 -0.48700243 -2.23567899 0.00290106 0 0 Z " fill="#443E40" transform="translate(1225.63671875,1421.8671875)"/>
<path d="M0 0 C0.66 0 1.32 0 2 0 C2 7.26 2 14.52 2 22 C8.93 22 15.86 22 23 22 C23 28.27 23 34.54 23 41 C16.07 41 9.14 41 2 41 C2 47.27 2 53.54 2 60 C1.34 60 0.68 60 0 60 C0 53.07 0 46.14 0 39 C6.93 39 13.86 39 21 39 C21 34.05 21 29.1 21 24 C14.07 24 7.14 24 0 24 C0 16.08 0 8.16 0 0 Z " fill="#9F5B1C" transform="translate(1285,786)"/>
<path d="M0 0 C13.2 0 26.4 0 40 0 C39 4 39 4 38 5 C35.04294679 5.08868299 32.10934944 5.11520296 29.15234375 5.09765625 C27.82270348 5.09553383 27.82270348 5.09553383 26.46620178 5.09336853 C23.62326746 5.08775215 20.78041069 5.07519691 17.9375 5.0625 C16.01497509 5.05748711 14.09244896 5.05292384 12.16992188 5.04882812 C7.44658451 5.03777741 2.72330542 5.02050183 -2 5 C-1.34 3.35 -0.68 1.7 0 0 Z " fill="#443E40" transform="translate(844,1423)"/>
<path d="M0 0 C0.99 0 1.98 0 3 0 C3 17.82 3 35.64 3 54 C2.01 54 1.02 54 0 54 C0 36.18 0 18.36 0 0 Z " fill="#B87333" transform="translate(1338,1199)"/>
<path d="M0 0 C5.57352816 1.60148455 10.42314012 4.20168049 15.5 6.9375 C17.15596815 7.82214239 18.81221195 8.706269 20.46875 9.58984375 C21.63277344 10.21221924 21.63277344 10.21221924 22.8203125 10.84716797 C25.52534394 12.27785328 28.25423272 13.64940343 31 15 C29.65877064 19.02368807 27.17135693 19.89068949 23.62890625 21.79296875 C22.99137924 22.14386063 22.35385223 22.4947525 21.69700623 22.85627747 C20.34852457 23.59604078 18.99754052 24.33125808 17.64428711 25.06225586 C15.56882972 26.18407867 13.50175007 27.32022326 11.43554688 28.45898438 C10.12546798 29.17533569 8.81493588 29.89085891 7.50390625 30.60546875 C6.88302628 30.94603806 6.2621463 31.28660736 5.62245178 31.63749695 C1.2326375 34 1.2326375 34 -1 34 C-1 33.34 -1 32.68 -1 32 C0.40185547 30.93432617 0.40185547 30.93432617 2.3671875 29.79296875 C3.08390625 29.37329834 3.800625 28.95362793 4.5390625 28.52124023 C5.30992188 28.08110596 6.08078125 27.64097168 6.875 27.1875 C7.6484375 26.73898682 8.421875 26.29047363 9.21875 25.82836914 C14.16406119 22.98305788 19.15634051 20.28727756 24.3125 17.83984375 C25.98887138 17.11712384 25.98887138 17.11712384 27 16 C26.40050537 15.71801758 25.80101074 15.43603516 25.18334961 15.14550781 C22.43333568 13.84994805 19.68541309 12.55000938 16.9375 11.25 C15.99455078 10.8065625 15.05160156 10.363125 14.08007812 9.90625 C8.92070531 7.46139041 3.90996811 4.91465514 -1 2 C-0.67 1.34 -0.34 0.68 0 0 Z " fill="#995A1E" transform="translate(1285,1209)"/>
<path d="M0 0 C0.33 0.99 0.66 1.98 1 3 C-0.91197039 3.70045456 -2.82980435 4.384919 -4.75 5.0625 C-5.81734375 5.44535156 -6.8846875 5.82820312 -7.984375 6.22265625 C-10.92280042 6.98010011 -12.22348948 7.07151741 -15 6 C-10.09817422 0.74804381 -7.24200793 -0.27853877 0 0 Z " fill="#282727" transform="translate(931,550)"/>
<path d="M0 0 C0.33 0 0.66 0 1 0 C1 6.27 1 12.54 1 19 C0.67 19 0.34 19 0 19 C-0.33 14.71 -0.66 10.42 -1 6 C-1.33 10.95 -1.66 15.9 -2 21 C-2.33 21 -2.66 21 -3 21 C-3.08132187 18.43685501 -3.14064175 15.87631582 -3.1875 13.3125 C-3.21263672 12.59126953 -3.23777344 11.87003906 -3.26367188 11.12695312 C-3.3264142 6.54676323 -2.84865767 3.63795829 0 0 Z " fill="#595858" transform="translate(824,630)"/>
<path d="M0 0 C1.65 0.33 3.3 0.66 5 1 C5 2.65 5 4.3 5 6 C3.35 6.33 1.7 6.66 0 7 C-1.125 2.25 -1.125 2.25 0 0 Z " fill="#FA2929" transform="translate(1367,1222)"/>
<path d="M0 0 C3 3 3 3 3.29296875 6.13671875 C3.25816406 7.30847656 3.22335937 8.48023438 3.1875 9.6875 C3.16042969 10.86699219 3.13335938 12.04648438 3.10546875 13.26171875 C3.07066406 14.16535156 3.03585937 15.06898437 3 16 C2.01 16.33 1.02 16.66 0 17 C0 11.39 0 5.78 0 0 Z " fill="#0D151D" transform="translate(825,1312)"/>
<path d="M0 0 C2.475 0.495 2.475 0.495 5 1 C4.67 2.65 4.34 4.3 4 6 C2.68 6.33 1.36 6.66 0 7 C0 4.69 0 2.38 0 0 Z " fill="#FF4040" transform="translate(1367,812)"/>
<path d="M0 0 C0.66 0.66 1.32 1.32 2 2 C2.33 1.34 2.66 0.68 3 0 C3.66 0.33 4.32 0.66 5 1 C4.34 4.63 3.68 8.26 3 12 C2.67 12 2.34 12 2 12 C1.67 10.35 1.34 8.7 1 7 C0.67 7 0.34 7 0 7 C0 4.69 0 2.38 0 0 Z " fill="#1B1B1B" transform="translate(1280,825)"/>
<path d="M0 0 C1.32 0 2.64 0 4 0 C4.33 0.99 4.66 1.98 5 3 C2.69 3.33 0.38 3.66 -2 4 C-1.34 2.68 -0.68 1.36 0 0 Z " fill="#100F10" transform="translate(927,550)"/>
<path d="M0 0 C1.65 0 3.3 0 5 0 C4.67 1.32 4.34 2.64 4 4 C2.68 3.67 1.36 3.34 0 3 C0 2.01 0 1.02 0 0 Z " fill="#F72222" transform="translate(1049,483)"/>
</svg>
