<?xml version="1.0" encoding="UTF-8"?>
<svg version="1.1" xmlns="http://www.w3.org/2000/svg" width="306" height="976" viewBox="872 549 306 976">
<path d="M0 0 C0.33 2.64 0.66 5.28 1 8 C2.15367569 7.98747192 3.30735138 7.97494385 4.49598694 7.96203613 C15.56507413 7.84211313 26.63418368 7.72446694 37.70331669 7.60884857 C43.38905599 7.54939262 49.07478573 7.48923303 54.76049805 7.42724609 C55.85492533 7.41538773 56.94935261 7.40352936 58.07694435 7.39131165 C60.27920567 7.36742016 62.48146476 7.34332152 64.68372154 7.3190155 C70.14642999 7.26004565 75.60900462 7.20942344 81.07192993 7.17553711 C83.22259688 7.16154861 85.3732622 7.14730925 87.52392578 7.1328125 C88.57212809 7.12578812 89.62033039 7.11876373 90.7002964 7.11152649 C96.76888304 7.06018161 102.82827837 6.92888648 108.89326954 6.71459198 C112.53652389 6.58983671 116.18018154 6.50118121 119.82458305 6.41749573 C121.50172262 6.36892657 123.17845502 6.30250553 124.85411263 6.21690369 C129.68824152 5.97199048 134.26135416 5.82855403 139 7 C142.16046328 9.94368151 143.57384015 12.97309386 145 17 C145.60045806 18.33500759 146.20409198 19.66859667 146.8125 21 C147.204375 21.99 147.59625 22.98 148 24 C148.33 24.66 148.66 25.32 149 26 C149.04022391 28.3329866 149.04320247 30.66706666 149 33 C149.66 33 150.32 33 151 33 C153.12728009 36.4756336 153.24717015 39.21488943 153.24050903 43.25152588 C153.24463303 45.17820099 153.24463303 45.17820099 153.24884033 47.14379883 C153.24176247 48.56494234 153.23449286 49.98608491 153.22705078 51.40722656 C153.22648657 52.9053344 153.22680342 54.40344278 153.22793579 55.90155029 C153.22850992 59.96734788 153.2167459 64.03302761 153.20278788 68.0987978 C153.19029053 72.34822811 153.1891108 76.59766108 153.18673706 80.84710693 C153.18051936 88.89350757 153.16410462 96.9398539 153.14403808 104.98623061 C153.1216881 114.1469637 153.11068792 123.30769937 153.10064721 132.46845293 C153.07973865 151.31233275 153.04455704 170.15616201 153 189 C149.16296197 190.06664539 145.82059267 190.0261694 141.828125 189.87890625 C141.1457074 189.85529526 140.46328979 189.83168427 139.76019287 189.80735779 C137.58989942 189.7310504 135.41999286 189.64688594 133.25 189.5625 C131.77475824 189.50924627 130.29949784 189.45650611 128.82421875 189.40429688 C125.21591088 189.2754805 121.6079079 189.13961806 118 189 C118.01879211 190.52404953 118.01879211 190.52404953 118.03796387 192.07888794 C118.15709937 201.75524301 118.27479301 211.43161474 118.39115143 221.10800362 C118.45098568 226.08014929 118.51129057 231.05228824 118.57275391 236.02441406 C119.07348751 276.5809249 119.07348751 276.5809249 119 296 C126.92 296 134.84 296 143 296 C144.42513531 298.85027061 144.12474824 301.26530354 144.12597656 304.45214844 C144.12877876 305.44831932 144.12877876 305.44831932 144.13163757 306.46461487 C144.13565014 307.91434083 144.13771719 309.36407316 144.13809967 310.81380463 C144.14154388 313.94465229 144.16298509 317.07529776 144.18333054 320.20607376 C144.22099246 326.02330786 144.25267007 331.84034477 144.25048828 337.65771484 C144.25164997 359.4321109 144.38072661 381.69610011 150.52612543 402.80739963 C151.10336125 405.47824873 151.13334095 407.94886386 151.14260101 410.68261909 C151.14890895 411.84845343 151.15521689 413.01428776 151.16171598 414.21545041 C151.16357798 415.4973135 151.16543998 416.7791766 151.1673584 418.09988403 C151.17280629 419.47486563 151.17866992 420.84984562 151.18491411 422.22482383 C151.20076102 426.00791534 151.21027956 429.79100037 151.21867895 433.5741148 C151.22668623 436.81856713 151.2383766 440.063002 151.25009376 443.30744274 C151.29201467 454.93670985 151.31922956 466.56599755 151.34375 478.1953125 C151.3457249 479.11439603 151.3476998 480.03347955 151.34973454 480.98041409 C151.38893477 499.25341088 151.42261055 517.52641463 151.44481659 535.79944038 C151.44978546 539.81811661 151.45482981 543.83679273 151.45996094 547.85546875 C151.46186694 549.3536014 151.46186694 549.3536014 151.46381146 550.88199936 C151.48511216 567.01443302 151.53404503 583.14666122 151.59420508 599.27899183 C151.65556095 615.87008389 151.69003882 632.46107059 151.6992898 649.05227458 C151.70517271 658.35575436 151.72264913 667.65888728 151.77067566 676.96225357 C151.81159993 684.89701552 151.82803309 692.83137398 151.81402284 700.76623662 C151.8076241 704.80414764 151.81187409 708.8412025 151.84789658 712.87897682 C152.00464029 731.38467047 150.58627755 748.06465987 144.62971544 765.80945861 C143.8618595 768.10066226 143.8618595 768.10066226 144 771 C145.98 771.66 147.96 772.32 150 773 C150 773.66 150 774.32 150 775 C150.804375 775.28875 151.60875 775.5775 152.4375 775.875 C155 777 155 777 156 779 C156.08378613 780.82224498 156.10160006 782.64765969 156.08901978 784.4717865 C156.08342545 785.63559341 156.07783112 786.79940033 156.07206726 787.99847412 C156.06069229 789.28280334 156.04931732 790.56713257 156.03759766 791.89038086 C156.029091 793.25258632 156.02101957 794.61479456 156.01335144 795.977005 C155.99107822 799.69403725 155.96238608 803.41099536 155.93239641 807.12797236 C155.90163623 811.04871761 155.87604691 814.96949712 155.84970093 818.89027405 C155.8043961 825.51078183 155.75498191 832.13124948 155.703125 838.75170898 C155.64396288 846.31046331 155.59087698 853.86924012 155.54135668 861.42806333 C155.49314412 868.76639102 155.44050803 876.10468115 155.38599777 883.44296455 C155.36315585 886.52609066 155.34169362 889.60922115 155.32149124 892.69236565 C155.1766074 914.47291497 154.70564357 936.23035027 154 958 C153.01 958.33 152.02 958.66 151 959 C150.31513275 960.32407669 149.65129797 961.65909241 149 963 C146.87113317 965.62234965 145.68327547 966.86020163 142.33187866 967.54589844 C141.29729523 967.5668457 140.26271179 967.58779297 139.19677734 967.609375 C137.98688141 967.64168213 136.77698547 967.67398926 135.53042603 967.70727539 C134.17393782 967.72225666 132.81744094 967.73646797 131.4609375 967.75 C130.01237913 967.7781458 128.56384192 967.80739842 127.11532593 967.83764648 C104.9577093 968.24851722 82.78495226 968.06780037 60.625 968 C52.73856269 967.97628055 44.85214367 967.95604977 36.96567917 967.94406128 C33.83961035 967.93760441 30.71360339 967.9251239 27.58755493 967.91235352 C25.69329888 967.90872564 23.79904226 967.90537334 21.90478516 967.90234375 C21.04169235 967.89717743 20.17859955 967.89201111 19.28935242 967.88668823 C15.93728905 967.8863889 13.20287903 967.93237366 10 969 C9.855625 969.804375 9.71125 970.60875 9.5625 971.4375 C9 974 9 974 8 975 C5.5625 975.25 5.5625 975.25 3 975 C1 972 1 972 1 969 C0.01 969 -0.98 969 -2 969 C-2 968.34 -2 967.68 -2 967 C-3.22519852 967.01474869 -4.45039703 967.02949738 -5.71272278 967.04469299 C-17.43051239 967.18481497 -29.14836836 967.31733272 -40.86632252 967.4429636 C-46.88627241 967.50773422 -52.90617262 967.5749109 -58.92602539 967.64819336 C-105.04920599 968.20625236 -105.04920599 968.20625236 -126.69921875 967.65234375 C-127.43201365 967.63624117 -128.16480854 967.62013859 -128.91980934 967.60354805 C-130.93209907 967.55660448 -132.94399369 967.49352628 -134.95581055 967.42944336 C-136.06151901 967.39523788 -137.16722748 967.36103241 -138.30644226 967.32579041 C-141 967 -141 967 -144 965 C-144 964.34 -144 963.68 -144 963 C-144.639375 962.814375 -145.27875 962.62875 -145.9375 962.4375 C-148 961 -148 961 -148.61706543 958.09077454 C-149.19082443 953.11118245 -149.16862434 948.11668517 -149.18945312 943.11010742 C-149.19774643 942.03182175 -149.20603973 940.95353607 -149.21458435 939.84257507 C-149.24111428 936.2635558 -149.26106367 932.68452894 -149.28125 929.10546875 C-149.29934997 926.5639867 -149.31795543 924.0225082 -149.33703613 921.48103333 C-149.39166822 914.06135922 -149.43980128 906.64165549 -149.48697662 899.22193146 C-149.55017839 889.34894237 -149.61825536 879.47598949 -149.69036865 869.60306168 C-149.70928387 866.98045425 -149.72755411 864.3578421 -149.74517822 861.73522568 C-149.84150868 847.58837655 -149.98653376 833.44524707 -150.28086376 819.30121696 C-150.32375551 817.23955136 -150.36556609 815.17786625 -150.40714264 813.11617374 C-150.53894898 806.63450741 -150.68285346 800.15337942 -150.84558105 793.67240906 C-150.89545461 791.36795807 -150.94499377 789.06349981 -150.99414062 786.7590332 C-151.02475082 785.7065999 -151.05536102 784.6541666 -151.0868988 783.56984138 C-151.1054744 782.61027472 -151.12404999 781.65070805 -151.14318848 780.6620636 C-151.16388649 779.82894811 -151.1845845 778.99583261 -151.20590973 778.1374712 C-151 776 -151 776 -149 773 C-147.1953125 772.26953125 -147.1953125 772.26953125 -145.125 771.8125 C-144.10792969 771.57466797 -144.10792969 771.57466797 -143.0703125 771.33203125 C-141 771 -141 771 -137 771 C-137.18175781 770.35417969 -137.36351562 769.70835937 -137.55078125 769.04296875 C-143.08373974 748.30146795 -143.4748518 728.00557738 -143.50611091 706.69817734 C-143.51567523 702.30955657 -143.54193255 697.92103084 -143.56611633 693.5324707 C-143.60963378 685.18149368 -143.63822135 676.83053517 -143.66143972 668.47947979 C-143.68801734 659.20275427 -143.73229054 649.92614173 -143.77771878 640.64949262 C-143.9794016 599.09999926 -144.08090134 557.54995043 -144 516 C-143.99778316 514.77166191 -143.99556633 513.54332382 -143.99328232 512.27776337 C-143.96454381 496.90023985 -143.91227913 481.52306974 -143.81608868 466.14581108 C-143.77612982 459.70843982 -143.74406923 453.27122211 -143.72900391 446.83374023 C-143.71373814 440.4047887 -143.67924129 433.97619438 -143.63169098 427.54740334 C-143.61711824 425.15691029 -143.60897329 422.76636701 -143.60811615 420.3758297 C-143.59906739 407.87031337 -142.94342431 396.09933772 -140.43837547 383.83421135 C-138.65294829 374.89252756 -138.43082861 366.20420215 -138.4609375 357.11328125 C-138.45098594 355.42553967 -138.43902823 353.73780889 -138.42520142 352.0500946 C-138.39340757 347.6900046 -138.38249431 343.33016518 -138.37835693 338.9699707 C-138.36946213 331.92852424 -138.33411948 324.88727661 -138.2861824 317.84599876 C-138.27363835 315.40240658 -138.27434815 312.95907483 -138.27645874 310.51545715 C-138.26988475 309.03024084 -138.26287976 307.54502634 -138.25537109 306.05981445 C-138.25411224 304.76493607 -138.25285339 303.47005768 -138.2515564 302.13594055 C-138 299 -138 299 -136 296 C-128.74 296 -121.48 296 -114 296 C-114 261.02 -114 226.04 -114 190 C-123.24 190 -132.48 190 -142 190 C-142 190.66 -142 191.32 -142 192 C-142.99 192 -143.98 192 -145 192 C-145 191.34 -145 190.68 -145 190 C-145.66 190 -146.32 190 -147 190 C-147.09336639 170.10313239 -147.16394139 150.20630911 -147.20724869 130.309268 C-147.22788988 121.07109449 -147.2560401 111.83305695 -147.30175781 102.5949707 C-147.34157806 94.54474878 -147.36742148 86.4946253 -147.37635398 78.44430763 C-147.38157693 74.1801366 -147.39388473 69.91624727 -147.42292023 65.65216637 C-147.45001352 61.64092032 -147.45845747 57.63007275 -147.45243073 53.6187439 C-147.45353371 52.14449208 -147.46152408 50.67022732 -147.4768219 49.19605446 C-147.49665045 47.18721209 -147.48957127 45.17815725 -147.48101807 43.16923523 C-147.48470524 42.043726 -147.48839241 40.91821676 -147.49219131 39.75860119 C-147 37 -147 37 -145.00802231 35.25578022 C-144.34537495 34.84137275 -143.68272758 34.42696527 -143 34 C-142.3078631 31.73699105 -142.3078631 31.73699105 -142.25 29.3125 C-142.19328125 28.50425781 -142.1365625 27.69601562 -142.078125 26.86328125 C-142.05234375 26.24839844 -142.0265625 25.63351562 -142 25 C-141.34 25 -140.68 25 -140 25 C-140.03480469 24.43152344 -140.06960938 23.86304688 -140.10546875 23.27734375 C-140.30234711 17.66162304 -139.59867192 13.98945008 -137 9 C-136 8 -136 8 -133.94039822 7.87695217 C-133.02690137 7.87787396 -132.11340452 7.87879576 -131.17222595 7.87974548 C-130.12749619 7.87837082 -129.08276642 7.87699615 -128.00637817 7.87557983 C-126.85048187 7.87917511 -125.69458557 7.88277039 -124.50366211 7.88647461 C-123.29407333 7.88632858 -122.08448456 7.88618256 -120.83824158 7.8860321 C-117.51193649 7.88661107 -114.18569281 7.89164027 -110.8593986 7.89860606 C-107.38670071 7.90484022 -103.91400207 7.90544345 -100.44129944 7.90663147 C-93.86103807 7.9097446 -87.28079324 7.91795775 -80.70053917 7.92798096 C-73.21093888 7.93914266 -65.72133782 7.94465269 -58.2317313 7.94967639 C-42.82114461 7.96014038 -27.41057443 7.97773947 -12 8 C-11.88011719 6.88753906 -11.76023437 5.77507813 -11.63671875 4.62890625 C-11 1 -11 1 -8.8125 -1.0625 C-5.18959346 -2.27013551 -3.42790732 -1.51465672 0 0 Z " fill="#202020" transform="translate(1022,550)"/>
<path d="M0 0 C31.75409373 -0.02290202 63.50818508 -0.0405555 95.26228516 -0.05106533 C99.02658205 -0.05231577 102.79087892 -0.05361011 106.55517578 -0.05493164 C107.30445663 -0.05519395 108.05373747 -0.05545626 108.8257238 -0.05572652 C120.89598175 -0.06005639 132.96623484 -0.0679289 145.03648993 -0.0771528 C157.45772115 -0.08656445 169.87894985 -0.09207136 182.30018449 -0.09408849 C189.94062413 -0.09544826 197.58105006 -0.09971359 205.22148547 -0.10791647 C211.11879809 -0.11391836 217.01610399 -0.11444026 222.91341972 -0.11310768 C225.30436982 -0.11337883 227.69532053 -0.11531367 230.08626747 -0.11920547 C231.19977262 -0.12092632 232.31327778 -0.12264717 233.46052551 -0.12442017 C234.41818093 -0.12643779 235.37583635 -0.12845541 236.36251163 -0.13053417 C251.29713956 -0.08865102 266.03517383 0.46554192 281 1 C281 109.57 281 218.14 281 330 C217 330 217 330 215 329 C215 328.34 215 327.68 215 327 C214.04351563 327.16757813 213.08703125 327.33515625 212.1015625 327.5078125 C181.79603575 331.7764105 149.36813753 318.54375282 125.48046875 300.703125 C111.79636631 290.20721362 99.73070234 278.51636913 89 265 C88.36707031 264.24589844 87.73414063 263.49179688 87.08203125 262.71484375 C41.41174363 207.81633307 20.71869167 133.95235991 8 65 C7.79536133 63.91106445 7.59072266 62.82212891 7.37988281 61.70019531 C4.95099439 48.65710686 3.26714249 35.54976755 1.75 22.375 C1.66078278 21.60285156 1.57156555 20.83070313 1.47964478 20.03515625 C1.22642374 17.82342279 0.97905828 15.61113032 0.734375 13.3984375 C0.59225586 12.11630371 0.45013672 10.83416992 0.30371094 9.51318359 C0.0273252 6.3160849 -0.02188636 3.20585878 0 0 Z " fill="#B2BBC3" transform="translate(887,958)"/>
<path d="M0 0 C0.95306612 0.00042423 1.90613225 0.00084846 2.88807917 0.00128555 C27.571229 0.01245719 52.25436569 0.03271444 76.9375 0.0625 C76.9375 2.0425 76.9375 4.0225 76.9375 6.0625 C77.5975 6.0625 78.2575 6.0625 78.9375 6.0625 C78.9375 8.7025 78.9375 11.3425 78.9375 14.0625 C80.9175 14.5575 80.9175 14.5575 82.9375 15.0625 C82.97488281 15.68898438 83.01226563 16.31546875 83.05078125 16.9609375 C83.11652344 17.77820313 83.18226563 18.59546875 83.25 19.4375 C83.30800781 20.24960937 83.36601563 21.06171875 83.42578125 21.8984375 C83.76740528 24.44171338 83.76740528 24.44171338 86.9375 26.0625 C87.2799926 28.92913554 87.42550622 31.58703433 87.44702148 34.46142578 C87.46484995 35.33499096 87.48267841 36.20855614 87.50104713 37.10859299 C87.55615257 40.03328921 87.5890149 42.95777926 87.62109375 45.8828125 C87.6538675 47.95298508 87.68744727 50.02314503 87.7217865 52.09329224 C88.0765938 75.2526755 88.05342924 98.41587171 88.00616455 121.57727051 C87.99565591 127.30541591 87.99131007 133.03356635 87.98632812 138.76171875 C87.9758244 149.86199152 87.95892194 160.96224327 87.9375 172.0625 C64.31831897 172.1962056 40.69912152 172.32662373 17.0799036 172.45365143 C6.10021709 172.51276975 -4.87946289 172.57277945 -15.85913086 172.63525391 C-78.26084249 172.98965548 -140.65979522 173.1327441 -203.0625 173.0625 C-203.28637967 154.33925938 -203.48734322 135.61590724 -203.66090012 116.89213085 C-203.74201904 108.19868346 -203.83068381 99.50543448 -203.93701172 90.81225586 C-204.02964979 83.23677769 -204.10823299 75.66130764 -204.16982102 68.08551103 C-204.20293696 64.07277006 -204.24316947 60.060381 -204.3002243 56.04790306 C-204.35367697 52.2731532 -204.38837075 48.49870091 -204.40852928 44.72363091 C-204.41927131 43.3364065 -204.4369339 41.94921623 -204.46194649 40.56217575 C-204.49501366 38.67170394 -204.50102001 36.78081597 -204.5055542 34.89006042 C-204.51661572 33.83092029 -204.52767723 32.77178015 -204.53907394 31.68054485 C-204.0625 29.0625 -204.0625 29.0625 -202.06850052 27.33743763 C-201.07553026 26.7063435 -201.07553026 26.7063435 -200.0625 26.0625 C-199.44298742 23.82874272 -199.44298742 23.82874272 -199.4375 21.4375 C-199.3359375 19.0234375 -199.3359375 19.0234375 -199.0625 17.0625 C-198.4025 16.7325 -197.7425 16.4025 -197.0625 16.0625 C-197.08570313 15.48242188 -197.10890625 14.90234375 -197.1328125 14.3046875 C-197.15085937 13.52351562 -197.16890625 12.74234375 -197.1875 11.9375 C-197.21070313 11.17179688 -197.23390625 10.40609375 -197.2578125 9.6171875 C-197.02264262 6.54116541 -196.07259105 3.96694865 -195.0625 1.0625 C-181.04188219 0.87654798 -167.02104 0.71319086 -153 0.5625 C-151.34376554 0.54468412 -151.34376554 0.54468412 -149.65407181 0.52650833 C-99.76974998 -0.00243314 -49.88662434 -0.02285907 0 0 Z " fill="#605959" transform="translate(1083.0625,562.9375)"/>
<path d="M0 0 C0 36.3 0 72.6 0 110 C-73.92 110 -147.84 110 -224 110 C-224 74.03 -224 38.06 -224 1 C-157.22945313 0.36257234 -157.22945313 0.36257234 -139.3125 0.22265625 C-138.65080685 0.21747522 -137.98911369 0.21229418 -137.30736923 0.20695615 C-91.53806588 -0.14934464 -45.7709593 -0.06269994 0 0 Z " fill="#85939E" transform="translate(1136,738)"/>
<path d="M0 0 C2.91307641 0.01606744 5.82475829 0.00004766 8.73779297 -0.01904297 C26.10120978 -0.03993143 43.40767959 1.45730725 60.10888672 6.45361328 C61.47110352 6.83743164 61.47110352 6.83743164 62.86083984 7.22900391 C67.03034166 8.42072779 71.0247129 9.76487219 75.04638672 11.39111328 C76.04290944 42.02192102 76.1730693 72.63024737 76.11505127 103.27526855 C76.10460082 109.40502564 76.10020843 115.53478726 76.09521484 121.66455078 C76.08466633 133.5734163 76.06772788 145.48226253 76.04638672 157.39111328 C74.47439318 158.19279395 72.90053889 158.9908265 71.32592773 159.78735352 C70.44969254 160.23215561 69.57345734 160.6769577 68.67066956 161.13523865 C32.26647439 178.55680032 -19.25887777 177.31977898 -56.69641113 164.56536865 C-59.95590797 163.39028602 -63.1414854 162.10188593 -66.33447266 160.75732422 C-67.39323608 160.31257751 -68.45199951 159.86783081 -69.54284668 159.40960693 C-70.33839966 159.07350403 -71.13395264 158.73740112 -71.95361328 158.39111328 C-72.13016545 147.66209215 -72.29596957 136.93292793 -72.45361328 126.20361328 C-72.46549053 125.39563923 -72.47736778 124.58766518 -72.48960495 123.75520706 C-72.86593124 97.94559906 -73.04530036 72.14093412 -73.01611328 46.32861328 C-73.01525726 45.56601322 -73.01440125 44.80341316 -73.01351929 44.01770401 C-73.00239081 34.80881486 -72.98272952 25.59996459 -72.95361328 16.39111328 C-70.4621268 15.1095554 -67.96698726 13.83614467 -65.46923828 12.56689453 C-64.77523926 12.20889771 -64.08124023 11.85090088 -63.36621094 11.48205566 C-43.80894558 1.58444773 -21.58248392 -0.14082598 0 0 Z " fill="#F3C475" transform="translate(948.95361328125,1332.60888671875)"/>
<path d="M0 0 C0.03210056 8.95831377 0.05146785 17.91663749 0.0625 26.875 C0.06378403 27.90992584 0.06378403 27.90992584 0.06509399 28.96575928 C0.09416491 55.64665496 -0.15526064 82.32152147 -0.5 109 C-0.51793673 110.38863377 -0.51793673 110.38863377 -0.53623581 111.80532074 C-0.68408144 123.20364175 -0.83868112 134.6018618 -1 146 C-3.55375167 147.28704414 -6.10857742 148.57187459 -8.6640625 149.85546875 C-9.38215088 150.21765503 -10.10023926 150.57984131 -10.84008789 150.95300293 C-29.33474195 160.23205321 -48.03017252 161.59381325 -68.4375 161.5 C-69.44380463 161.49856995 -70.45010925 161.49713989 -71.48690796 161.4956665 C-95.28053856 161.4121627 -118.68657492 158.76058346 -140.22192383 147.90454102 C-140.93238358 147.54707291 -141.64284332 147.1896048 -142.37483215 146.82130432 C-142.91113754 146.5502739 -143.44744293 146.27924347 -144 146 C-144.73128605 117.06943531 -145.39171085 88.13500075 -145.60014153 59.19536209 C-145.64196565 53.5252689 -145.70441083 47.85680665 -145.80932617 42.1875 C-145.91272187 36.56692179 -145.96755257 30.94782364 -145.98771095 25.32635117 C-146.00357981 23.21546209 -146.03666478 21.10462472 -146.08786583 18.99429703 C-146.46533706 2.75315283 -146.46533706 2.75315283 -142.86099243 -1.55914307 C-140.24664376 -3.16796838 -137.9302869 -4.11923112 -135 -5 C-133.51426865 -5.69445842 -132.03391213 -6.40069585 -130.5625 -7.125 C-89.94288689 -22.51024173 -39.44869393 -14.6133134 0 0 Z " fill="#F3C476" transform="translate(1173,1345)"/>
<path d="M0 0 C0.91644287 0.00523682 1.83288574 0.01047363 2.77709961 0.01586914 C4.26113281 0.02070312 4.26113281 0.02070312 5.77514648 0.02563477 C6.81606445 0.03401367 7.85698242 0.04239258 8.92944336 0.05102539 C10.49662109 0.05779297 10.49662109 0.05779297 12.09545898 0.06469727 C14.68600996 0.07652627 17.27644895 0.0930085 19.86694336 0.11352539 C19.86694336 2.09352539 19.86694336 4.07352539 19.86694336 6.11352539 C20.52694336 6.11352539 21.18694336 6.11352539 21.86694336 6.11352539 C21.86694336 8.75352539 21.86694336 11.39352539 21.86694336 14.11352539 C23.84694336 14.60852539 23.84694336 14.60852539 25.86694336 15.11352539 C25.90432617 15.74000977 25.94170898 16.36649414 25.98022461 17.01196289 C26.0459668 17.82922852 26.11170898 18.64649414 26.17944336 19.48852539 C26.23745117 20.30063477 26.29545898 21.11274414 26.35522461 21.94946289 C26.69684864 24.49273877 26.69684864 24.49273877 29.86694336 26.11352539 C30.20943596 28.98016093 30.35494958 31.63805972 30.37646484 34.51245117 C30.39429331 35.38601635 30.41212177 36.25958153 30.43049049 37.15961838 C30.48559593 40.0843146 30.51845826 43.00880465 30.55053711 45.93383789 C30.58331086 48.00401047 30.61689063 50.07417043 30.65122986 52.14431763 C31.00603716 75.30370089 30.98287259 98.4668971 30.93560791 121.6282959 C30.92509927 127.3564413 30.92075343 133.08459174 30.91577148 138.81274414 C30.90526776 149.91301691 30.8883653 161.01326866 30.86694336 172.11352539 C7.24776233 172.24723099 -16.37143512 172.37764912 -39.99065304 172.50467682 C-50.97033955 172.56379514 -61.95001953 172.62380484 -72.9296875 172.6862793 C-135.33139913 173.04068087 -197.73035186 173.18376949 -260.13305664 173.11352539 C-260.13305664 170.47352539 -260.13305664 167.83352539 -260.13305664 165.11352539 C-256.63559986 164.39429991 -253.13443303 163.77249529 -249.60961914 163.20336914 C-192.50657891 153.71441152 -137.04836475 133.26516525 -88.13305664 102.11352539 C-87.02317383 101.4084082 -85.91329102 100.70329102 -84.76977539 99.97680664 C-68.10441512 89.09465749 -52.59594331 76.77648456 -38.13305664 63.11352539 C-37.26551758 62.30012695 -36.39797852 61.48672852 -35.50415039 60.64868164 C-19.79715227 45.48245654 -6.10970465 25.6966681 -3.49243164 3.63305664 C-2.99697932 0.15950502 -2.99697932 0.15950502 0 0 Z " fill="#454040" transform="translate(1140.133056640625,562.886474609375)"/>
<path d="M0 0 C89.76 0 179.52 0 272 0 C272 22.44 272 44.88 272 68 C234.43259565 68.5248284 234.43259565 68.5248284 220.36694336 68.71142578 C219.50180803 68.72290531 218.6366727 68.73438485 217.74532115 68.74621224 C211.3093895 68.83147781 204.87344743 68.91593435 198.4375 69 C197.07323938 69.01784562 197.07323938 69.01784562 195.68141794 69.03605175 C145.59916821 69.69027498 95.52452652 70.19763595 45.4375 70.125 C44.24800121 70.12328796 43.05850243 70.12157593 41.83295822 70.11981201 C27.8885266 70.09815314 13.94438491 70.05265344 0 70 C0 46.9 0 23.8 0 0 Z " fill="#B2BBC3" transform="translate(889,852)"/>
<path d="M0 0 C1.32 0 2.64 0 4 0 C4.1451001 1.21953369 4.2902002 2.43906738 4.43969727 3.69555664 C12.63549955 72.11217518 25.190016 139.32417115 55 202 C55.41330566 202.87575684 55.82661133 203.75151367 56.25244141 204.65380859 C65.59435468 224.31785095 76.61906789 242.81020421 90 260 C90.74636719 260.9590625 91.49273438 261.918125 92.26171875 262.90625 C114.67446985 290.9121293 141.95477349 313.24462204 177 323 C178.155 323.32742188 179.31 323.65484375 180.5 323.9921875 C193.00917057 327.08997738 206.16688466 327.0873001 219 327 C219 327.66 219 328.32 219 329 C219.66 329.33 220.32 329.66 221 330 C148.4 330 75.8 330 1 330 C-0.15372046 219.24283613 -0.15372046 219.24283613 -0.10139394 177.01477432 C-0.09480981 170.71322016 -0.09453074 164.4116645 -0.09336853 158.11010742 C-0.09035214 146.36228174 -0.08228122 134.61446621 -0.07201904 122.86664486 C-0.06400966 113.47847959 -0.058582 104.09031618 -0.05493164 94.70214844 C-0.05453756 93.69154517 -0.05453756 93.69154517 -0.05413551 92.66052568 C-0.05282925 89.27623392 -0.05156584 85.89194215 -0.05032361 82.50765038 C-0.04017446 55.00509479 -0.02268643 27.50254791 0 0 Z " fill="#868D93" transform="translate(883,958)"/>
<path d="M0 0 C1.59863134 5.52454332 2.75149035 10.88914397 3.625 16.5625 C3.7590625 17.38685547 3.893125 18.21121094 4.03125 19.06054688 C4.22074219 20.27000977 4.22074219 20.27000977 4.4140625 21.50390625 C4.5270166 22.22392822 4.6399707 22.9439502 4.75634766 23.68579102 C5.0491635 26.46695473 5.01490554 29.20515228 5 32 C-16.83332677 32.03157541 -38.66665388 32.05129204 -60.5 32.0625 C-61.32131849 32.0629343 -62.14263699 32.06336861 -62.98884392 32.06381607 C-115.41125216 32.09077304 -167.82923954 31.91871454 -220.25 31.5 C-220.99963894 31.49402628 -221.74927788 31.48805257 -222.52163315 31.48189783 C-241.3478475 31.33167388 -260.1739676 31.1716196 -279 31 C-278.37922374 24.52432348 -277.33183542 18.28837757 -275.9375 11.9375 C-275.75123047 11.07189453 -275.56496094 10.20628906 -275.37304688 9.31445312 C-274.91933733 7.20877549 -274.46023996 5.10425993 -274 3 C-243.09716896 2.24911126 -212.19923272 1.7683512 -181.28867698 1.49474788 C-175.55130405 1.44337094 -169.81396159 1.38876999 -164.07661438 1.33460999 C-154.48932536 1.24454171 -144.90201935 1.15654177 -135.31469727 1.07006836 C-123.05838128 0.9595132 -110.80209955 0.84553748 -98.545825 0.73049068 C-87.89778401 0.6305536 -77.24973015 0.53201457 -66.60167336 0.43377614 C-63.22369743 0.40256989 -59.845723 0.37120379 -56.46774864 0.33982658 C-51.15585272 0.29058805 -45.84394947 0.24222413 -40.53203964 0.19450951 C-38.59923247 0.17703703 -36.66642758 0.15931003 -34.73362541 0.14129257 C-23.15535629 0.03359599 -11.57877849 -0.02279164 0 0 Z " fill="#B2BBC3" transform="translate(1162,923)"/>
<path d="M0 0 C35.8393476 -0.03005948 71.67699937 0.03326605 107.51596451 0.20192909 C113.7283309 0.23088354 119.94070389 0.25835414 126.15307617 0.28601074 C137.81369393 0.33813308 149.47430557 0.39150774 161.13491535 0.4453826 C170.45371065 0.48839239 179.77250852 0.53079399 189.09130859 0.57275391 C190.08631181 0.5772344 190.08631181 0.5772344 191.10141611 0.58180541 C194.43164472 0.59679814 197.76187338 0.61177989 201.09210205 0.62675762 C228.39474203 0.74958307 255.69737371 0.8741721 283 1 C282.48275065 5.47036384 281.92854035 9.79132991 280.80859375 14.15625 C280.47504883 15.47109375 280.47504883 15.47109375 280.13476562 16.8125 C279.90466797 17.699375 279.67457031 18.58625 279.4375 19.5 C279.20353516 20.4178125 278.96957031 21.335625 278.72851562 22.28125 C278.15666285 24.52197923 277.58041707 26.76147688 277 29 C252.31439705 29.13275879 227.6287827 29.26320179 202.94315434 29.39115143 C191.47178144 29.45065901 180.00041288 29.51083453 168.52905273 29.57275391 C114.0189296 29.86659157 59.51098366 30.08855416 5 30 C3.42925575 23.34141024 2.29927277 16.71392842 1.375 9.9375 C1.2409375 8.97650391 1.106875 8.01550781 0.96875 7.02539062 C0.64258935 4.68402313 0.31973298 2.34225236 0 0 Z " fill="#B2BBC3" transform="translate(884,1291)"/>
<path d="M0 0 C5.57880595 2.99350563 7.84583599 8.30901851 10 14 C12.88015908 25.74145555 12.12961918 37.96252403 11.97949219 49.94641113 C11.75096049 69.62604593 12.12470615 89.11988683 13.5 108.75 C15.10173039 132.02949167 15.31310074 155.26056596 15.31185913 178.58564758 C15.31249507 181.41554849 15.31700357 184.24542167 15.32226562 187.07531738 C15.32912515 191.57597618 15.32356506 196.07646077 15.30808067 200.57709694 C15.30329915 202.24355297 15.30141186 203.91002041 15.30274391 205.57648277 C15.30825599 235.9224445 15.30825599 235.9224445 6.4375 245.875 C1.86795627 249.85870479 1.86795627 249.85870479 -1.6875 250.4375 C-6.89015304 249.75035715 -11.10991302 247.13947991 -14.58372498 243.20730591 C-16.22626286 240.64736274 -16.40993632 239.21574884 -16.49243164 236.19873047 C-16.52586166 235.23725098 -16.55929169 234.27577148 -16.59373474 233.28515625 C-16.61565384 232.23972656 -16.63757294 231.19429687 -16.66015625 230.1171875 C-16.69492569 229.01648926 -16.72969513 227.91579102 -16.76551819 226.78173828 C-16.87768012 223.14641776 -16.97008814 219.5108718 -17.0625 215.875 C-17.17482154 212.03278832 -17.29175289 208.19073323 -17.40881348 204.34866333 C-17.48824397 201.72768195 -17.5659445 199.10664761 -17.64196777 196.48556519 C-17.88146632 188.34065052 -18.18646377 180.20202927 -18.56640625 172.0625 C-20.48975006 130.58024142 -21.01087374 89.1231632 -18.40003967 47.65881348 C-18.14990822 43.66958823 -17.93368649 39.68118365 -17.7565918 35.68798828 C-17.69579689 34.34463913 -17.69579689 34.34463913 -17.6337738 32.97415161 C-17.55730259 31.25141114 -17.4847477 29.52849047 -17.41688538 27.8053894 C-16.9616982 17.6789149 -15.5005878 8.5005878 -8.125 1.125 C-5.16637753 -0.44132954 -3.30585902 -0.47226557 0 0 Z " fill="#CDD3D8" transform="translate(1143,1019)"/>
<path d="M0 0 C3 1 3 1 4.08398438 2.78735352 C4.41720703 3.56006592 4.75042969 4.33277832 5.09375 5.12890625 C5.47837402 5.9912085 5.86299805 6.85351074 6.25927734 7.74194336 C6.66871582 8.67272705 7.0781543 9.60351074 7.5 10.5625 C24.71525231 48.05921327 57.83643307 77.7539759 96 93 C113.70348525 99.43550135 130.26332807 101.33625134 149 101 C148 104 148 104 145.2890625 105.4296875 C121.60330012 114.77268545 97.72202788 118.61856007 72.3125 118.5 C71.35698242 118.49923462 70.40146484 118.49846924 69.41699219 118.49768066 C47.25643577 118.4338627 27.14991643 115.01168709 6.61914062 106.36621094 C5.5603772 105.92146423 4.50161377 105.47671753 3.4107666 105.01849365 C2.61521362 104.68239075 1.81966064 104.34628784 1 104 C0.86693492 95.01741189 0.7364296 86.03479075 0.60884857 77.05212307 C0.54947978 72.87725998 0.48935591 68.70241117 0.42724609 64.52758789 C0.1078817 43.01665721 -0.07635071 21.51342627 0 0 Z " fill="#C8A254" transform="translate(876,1387)"/>
<path d="M0 0 C0.85932129 0.08910645 1.71864258 0.17821289 2.60400391 0.27001953 C12.30305863 1.35833192 20.70719056 3.08219056 27.8125 10.1875 C28.25 12.5625 28.25 12.5625 27.8125 15.1875 C19.31676632 24.50540146 2.10135619 24.37421534 -9.55859375 25.00390625 C-11.12312035 25.0959861 -11.12312035 25.0959861 -12.71925354 25.18992615 C-16.02085343 25.38264667 -19.32288327 25.56637388 -22.625 25.75 C-24.80146531 25.87638587 -26.97789796 26.00333536 -29.15429688 26.13085938 C-34.49473398 26.44122092 -39.83580505 26.7375768 -45.17752075 27.02505493 C-47.11387546 27.12955774 -49.05014341 27.23568748 -50.98629761 27.34384155 C-63.6639909 28.04867888 -76.311543 28.37388716 -89.0090332 28.37280273 C-91.88442427 28.37500723 -94.75944078 28.39332597 -97.63476562 28.41210938 C-133.47654708 28.52073648 -133.47654708 28.52073648 -145.25 21.3125 C-147.1875 19.1875 -147.1875 19.1875 -148.3125 16.75 C-148.1875 14.1875 -148.1875 14.1875 -146.046875 11.66015625 C-128.63535073 -3.39653072 -88.63042081 1.27531034 -66.89031982 0.59082031 C-63.10300303 0.4691841 -59.31606268 0.33756315 -55.5290966 0.20551777 C-50.9544107 0.04627981 -46.37957049 -0.10826003 -41.8046875 -0.26171875 C-40.53034159 -0.30472894 -40.53034159 -0.30472894 -39.23025131 -0.34860802 C-12.03244438 -1.25453342 -12.03244438 -1.25453342 0 0 Z " fill="#979393" transform="translate(1054.1875,569.8125)"/>
<path d="M0 0 C0.66 0 1.32 0 2 0 C2.12528076 0.90951416 2.25056152 1.81902832 2.37963867 2.75610352 C7.28609689 38.05367572 13.43849088 73.59133655 29 106 C29.5254541 107.10239014 29.5254541 107.10239014 30.06152344 108.22705078 C39.59202901 127.91743494 53.3792269 147.38887151 74.625 155.3125 C82.22669006 157.64916726 90.11161037 158.28967108 98 159 C98 159.66 98 160.32 98 161 C32.47410286 162.37030542 32.47410286 162.37030542 3.77807617 147.90454102 C3.06761642 147.54707291 2.35715668 147.1896048 1.62516785 146.82130432 C1.08886246 146.5502739 0.55255707 146.27924347 0 146 C-0.84729076 115.85841582 -1.16142124 85.73677638 -1.13037109 55.58374023 C-1.12452461 49.82537467 -1.12806868 44.0670542 -1.13394356 38.30869007 C-1.13753419 33.82311146 -1.13642012 29.33754387 -1.13381577 24.85196495 C-1.1331499 22.72319216 -1.13396301 20.59441836 -1.13629532 18.46564674 C-1.13881269 15.53932572 -1.1350013 12.61308271 -1.12939453 9.68676758 C-1.13141876 8.81506424 -1.13344299 7.9433609 -1.13552856 7.04524231 C-1.11429461 1.11429461 -1.11429461 1.11429461 0 0 Z " fill="#C8A254" transform="translate(1029,1345)"/>
<path d="M0 0 C3.38099842 2.68148151 5.56451372 4.97934368 6.48828125 9.265625 C6.71292965 13.1424145 6.5035534 15.2057479 4.3828125 18.55078125 C1.56491825 21.44720698 -1.09897673 22.84460587 -4.75 24.5625 C-5.68380493 25.0107312 -5.68380493 25.0107312 -6.63647461 25.46801758 C-8.41917684 26.32281413 -10.20941025 27.1618516 -12 28 C-19.97351755 31.78278507 -25.13686796 35.85497596 -30.375 42.875 C-40.49899797 56.07666615 -40.49899797 56.07666615 -48 58 C-51.76763565 58.48097476 -53.63176435 58.18036032 -57.0625 56.5 C-63.05112696 51.40329621 -65.59463487 45.89096287 -66.23828125 38.125 C-66.48848335 27.59017468 -64.80279552 17.0544336 -57.80859375 8.76953125 C-50.65164426 1.76715951 -42.40954697 -1.89181416 -33 -5 C-32.27941406 -5.2475 -31.55882812 -5.495 -30.81640625 -5.75 C-19.02843619 -9.27903885 -9.94082778 -6.8841923 0 0 Z " fill="#AFB8BF" transform="translate(987,754)"/>
<path d="M0 0 C8.14479918 -0.08810667 16.28980825 -0.14960826 24.43487197 -0.20739162 C30.09576912 -0.24905699 35.75581132 -0.30425837 41.41619807 -0.39187992 C46.61117 -0.47193704 51.80509165 -0.51512333 57.00064975 -0.52884853 C58.85092095 -0.54038913 60.70117233 -0.56557347 62.55103046 -0.60633647 C72.54488858 -0.82016831 79.44249172 -0.48380851 87.62777644 5.96262753 C90.44637335 9.53746046 90.29322285 12.7520441 89.83364803 17.14486325 C89.70603084 17.84611325 89.57841365 18.54736325 89.44692928 19.26986325 C88.56968196 19.0059277 88.56968196 19.0059277 87.67471248 18.73666012 C85.91887943 18.20906647 84.16274743 17.68246721 82.40640193 17.156582 C80.47571189 16.57810763 78.54566573 15.99747861 76.61636287 15.4143945 C62.30282277 11.11863166 48.31826332 7.82151078 33.44692928 6.26986325 C31.68542537 6.07457028 31.68542537 6.07457028 29.88833553 5.875332 C26.73801441 5.58035811 23.60848833 5.39511109 20.44692928 5.26986325 C19.15657771 5.21701169 17.86622615 5.16416012 16.53677303 5.109707 C-5.67589711 4.51012309 -29.33529923 7.29532991 -49.52377385 17.03695309 C-56.55194522 20.42567348 -56.55194522 20.42567348 -59.73666447 19.9300195 C-61.74057072 18.95736325 -61.74057072 18.95736325 -63.89291447 17.687832 C-97.11639462 -0.02160015 -150.53550106 4.05353615 -185.30258244 14.54769528 C-190.38632154 16.17903616 -195.36824127 18.06908469 -200.33041447 20.03548825 C-203.55307072 21.26986325 -203.55307072 21.26986325 -207.55307072 22.26986325 C-207.55307072 16.65986325 -207.55307072 11.04986325 -207.55307072 5.26986325 C-198.30071381 1.67721633 -190.41649538 0.68464482 -180.55868596 0.72396481 C-179.08321248 0.71522415 -177.60774842 0.70475429 -176.13229817 0.69271576 C-172.13112912 0.6649925 -168.13026833 0.66155386 -164.12901729 0.66247213 C-159.85117617 0.65910084 -155.5734697 0.6326888 -151.29570073 0.60914242 C-143.04223324 0.56738345 -134.7888498 0.54649828 -126.53529072 0.53414983 C-119.89385448 0.52404181 -113.2524641 0.50764276 -106.61105412 0.4864465 C-105.67016033 0.48345026 -104.72926654 0.48045402 -103.75986081 0.47736698 C-101.85723377 0.4712646 -99.95460682 0.46513435 -98.05197996 0.45897627 C-85.69238035 0.41923403 -73.33278891 0.3836031 -60.97314519 0.36106503 C-40.64742145 0.32249299 -20.32455665 0.22211087 0 0 Z " fill="#F1C376" transform="translate(1083.5530707240105,1322.7301367521286)"/>
<path d="M0 0 C7.49307266 3.4099768 15.39425037 5.27704063 23.375 7.1875 C24.62659912 7.48930176 25.87819824 7.79110352 27.16772461 8.10205078 C33.62473505 9.60864353 39.94999679 10.8680386 46.5625 11.375 C47.6659375 11.47941406 48.769375 11.58382813 49.90625 11.69140625 C76.35503817 13.75362612 109.96628945 13.97714538 132.5625 -1.625 C133.88479584 -1.99973005 135.21764233 -2.34172147 136.5625 -2.625 C136.78227188 -0.96450132 136.93542323 0.7048482 137.0625 2.375 C137.1553125 3.303125 137.248125 4.23125 137.34375 5.1875 C136.08630208 10.3178875 132.82649622 13.37406833 128.5625 16.375 C124.67834582 17.48765886 120.98675556 17.44150307 116.96626282 17.36395264 C115.24008414 17.37843913 115.24008414 17.37843913 113.47903317 17.39321828 C109.63133233 17.41572328 105.78630122 17.38115641 101.9387207 17.34667969 C99.17717991 17.34654293 96.41571992 17.35840862 93.65420532 17.36968994 C86.93828347 17.38981816 80.2231518 17.36734491 73.50732819 17.33028874 C65.68543215 17.28868531 57.86370546 17.28903521 50.04171958 17.29097906 C36.0868099 17.29297992 22.13226743 17.25637667 8.17749023 17.19824219 C-5.36294237 17.14186308 -18.90305193 17.1135606 -32.44360352 17.11621094 C-33.27802047 17.11637076 -34.11243742 17.11653059 -34.97213974 17.11669526 C-36.22160587 17.11693738 -36.22160587 17.11693738 -37.49631375 17.1171844 C-52.91622858 17.11994356 -68.33600623 17.09638911 -83.7558766 17.06057154 C-89.20836134 17.04850721 -94.66082088 17.04425346 -100.11331749 17.04244232 C-106.7555915 17.03971402 -113.39763419 17.02185857 -120.03981002 16.98511109 C-123.42883667 16.96664254 -126.81756749 16.95445563 -130.20664787 16.95948792 C-133.87886738 16.96144511 -137.55012764 16.93888615 -141.22221375 16.90985107 C-142.29554905 16.91604548 -143.36888436 16.92223989 -144.47474498 16.92862201 C-148.92317594 16.87030563 -151.68938802 16.80066554 -155.60793781 14.571064 C-158.2308397 11.4227368 -157.98920368 8.51849985 -157.75 4.625 C-157.71616211 3.57892578 -157.71616211 3.57892578 -157.68164062 2.51171875 C-157.62297048 0.79855065 -157.53329256 -0.91350623 -157.4375 -2.625 C-154.65840682 -1.51547611 -151.8842424 -0.39718805 -149.1171875 0.7421875 C-138.76261947 4.89884029 -128.42561476 7.49989509 -117.4375 9.375 C-116.76203125 9.49359375 -116.0865625 9.6121875 -115.390625 9.734375 C-81.78732169 15.37972996 -46.21964666 10.53578784 -14.66259766 -1.8840332 C-8.30819348 -4.3179264 -5.86298718 -2.8514398 0 0 Z " fill="#F2C476" transform="translate(1035.4375,1496.625)"/>
<path d="M0 0 C0.66 0 1.32 0 2 0 C2 15.51 2 31.02 2 47 C-68.62 47 -139.24 47 -212 47 C-211.67 46.01 -211.34 45.02 -211 44 C-194.94082582 42.33978301 -178.94621282 41.4926957 -162.8125 41 C-160.3185859 40.91850614 -157.82468977 40.8364607 -155.33081055 40.75390625 C-142.01653671 40.31881056 -128.70110635 39.93107083 -115.3848362 39.56277466 C-113.12809572 39.50008599 -110.87137931 39.43659572 -108.6146698 39.37280273 C-107.87329679 39.3518605 -107.13192377 39.33091827 -106.36808491 39.30934143 C-104.87870829 39.26725884 -103.38933285 39.22513457 -101.89995861 39.18296814 C-98.2865677 39.08125902 -94.67314247 38.98265641 -91.05947876 38.89111328 C-49.49989942 39.96724348 -49.49989942 39.96724348 -12.1015625 25.44140625 C-5.63050936 18.59260128 -2.74416272 8.81020663 0 0 Z " fill="#6E7983" transform="translate(1134,801)"/>
<path d="M0 0 C-0.33 2.64 -0.66 5.28 -1 8 C-25.68560295 8.13275879 -50.3712173 8.26320179 -75.05684566 8.39115143 C-86.52821856 8.45065901 -97.99958712 8.51083453 -109.47094727 8.57275391 C-163.9810704 8.86659157 -218.48901634 9.08855416 -273 9 C-273.33 6.69 -273.66 4.38 -274 2 C-182.67306023 0.79317109 -91.3361831 -0.30395998 0 0 Z " fill="#858C92" transform="translate(1162,1312)"/>
<path d="M0 0 C2.375 0.0625 2.375 0.0625 5 1 C17.20124269 21.21308627 12.9230925 57.46804156 7.625 79.5 C6.59020243 83.3399717 5.04595963 85.42264954 2 88 C-0.125 88 -0.125 88 -2 87 C-5.5530979 82.13786603 -5.14857811 74.8102735 -5.53515625 69.01953125 C-5.57831467 68.37307648 -5.62147308 67.7266217 -5.66593933 67.06057739 C-5.80263361 64.97814375 -5.93366058 62.89543384 -6.0625 60.8125 C-6.10669067 60.09957794 -6.15088135 59.38665588 -6.19641113 58.65213013 C-8.93263355 13.79457025 -8.93263355 13.79457025 -1 1 C-0.67 0.67 -0.34 0.34 0 0 Z " fill="#F7D9A5" transform="translate(1154,1391)"/>
<path d="M0 0 C1.0625 3.25 1.0625 3.25 1 7 C-1.39738593 10.97067045 -2.89121681 12.47955075 -7.0625 14.4375 C-15.05237191 15.57891027 -22.88365076 14.95352735 -30 11 C-31.41441874 8.17116253 -31.31900332 6.12623255 -31 3 C-24.46137576 -3.06948528 -7.37371126 -5.20094716 0 0 Z " fill="#979393" transform="translate(1126,573)"/>
<path d="M0 0 C0 3 0 3 -1.64990234 5.63671875 C-6.16525312 9.80888644 -12.8364503 8.79076629 -18.6015625 8.8125 C-20.04556946 8.83551887 -21.48955016 8.86023524 -22.9335022 8.88647461 C-27.95560975 8.96561998 -32.97735475 8.98434294 -38 9 C-39.93859876 9.00843467 -41.87719739 9.01689911 -43.8157959 9.02539062 C-59.00233785 9.08340835 -74.18848257 9.04646452 -89.375 9 C-97.26143731 8.97628055 -105.14785633 8.95604977 -113.03432083 8.94406128 C-116.16038965 8.93760441 -119.28639661 8.9251239 -122.41244507 8.91235352 C-124.30670112 8.90872564 -126.20095774 8.90537334 -128.09521484 8.90234375 C-128.95830765 8.89717743 -129.82140045 8.89201111 -130.71064758 8.88668823 C-134.06271095 8.8863889 -136.79712097 8.93237366 -140 10 C-140.144375 10.804375 -140.28875 11.60875 -140.4375 12.4375 C-141 15 -141 15 -142 16 C-144.4375 16.25 -144.4375 16.25 -147 16 C-149 13 -149 13 -149 10 C-149.99 10 -150.98 10 -152 10 C-152 9.34 -152 8.68 -152 8 C-153.22519852 8.01474869 -154.45039703 8.02949738 -155.71272278 8.04469299 C-167.43051239 8.18481497 -179.14836836 8.31733272 -190.86632252 8.4429636 C-196.88627241 8.50773422 -202.90617262 8.5749109 -208.92602539 8.64819336 C-236.31081646 8.97977216 -263.63198983 9.14846078 -291 8 C-291 7.67 -291 7.34 -291 7 C-290.39922697 7.00016235 -289.79845394 7.0003247 -289.17947567 7.00049198 C-253.58106371 7.0093522 -217.98280432 6.98704661 -182.38444494 6.92420971 C-178.11111471 6.91669357 -173.83778408 6.9094381 -169.56445312 6.90234375 C-168.71370178 6.900927 -167.86295043 6.89951025 -166.98641874 6.89805056 C-153.20705038 6.87572563 -139.42775689 6.87452277 -125.6483755 6.88111137 C-111.51182301 6.88740113 -97.37542813 6.87102578 -83.23892319 6.83356392 C-74.51426585 6.81115927 -65.78996739 6.80648155 -57.06529815 6.82440336 C-51.08428605 6.83499656 -45.10356914 6.82359504 -39.12261777 6.79483847 C-35.67058465 6.7788924 -32.21925359 6.77270111 -28.76722527 6.79260826 C-25.02453822 6.80913641 -21.28379507 6.78897874 -17.54122925 6.75949097 C-15.90406442 6.77987012 -15.90406442 6.77987012 -14.23382556 6.80066097 C-9.17893451 6.72303153 -5.97917444 6.61422649 -2.27867317 2.95253181 C-1.52671103 1.97819632 -0.77474888 1.00386082 0 0 Z " fill="#A1A1A1" transform="translate(1172,1509)"/>
<path d="M0 0 C-0.33 0.99 -0.66 1.98 -1 3 C-1 2.34 -1 1.68 -1 1 C-4.34252724 0.92572162 -6.8035914 0.93453047 -10 2 C-10.20086443 5.71599191 -10.1519437 6.77208445 -8 10 C-20.09454479 10.13242979 -32.18910888 10.26292744 -44.28369904 10.39115143 C-49.90349832 10.45078781 -55.52328975 10.51101864 -61.14306641 10.57275391 C-86.42940403 10.85009739 -111.7119364 11.09393246 -137 11 C-137 12.98 -137 14.96 -137 17 C-137.66 17 -138.32 17 -139 17 C-139 20.3 -139 23.6 -139 27 C-139.99 27.33 -140.98 27.66 -142 28 C-142 27.01 -142 26.02 -142 25 C-141.34 25 -140.68 25 -140 25 C-140.03480469 24.43152344 -140.06960938 23.86304688 -140.10546875 23.27734375 C-140.30234711 17.66162304 -139.59867192 13.98945008 -137 9 C-136 8 -136 8 -133.94039822 7.87695217 C-133.02690137 7.87787396 -132.11340452 7.87879576 -131.17222595 7.87974548 C-130.12749619 7.87837082 -129.08276642 7.87699615 -128.00637817 7.87557983 C-126.85048187 7.87917511 -125.69458557 7.88277039 -124.50366211 7.88647461 C-123.29407333 7.88632858 -122.08448456 7.88618256 -120.83824158 7.8860321 C-117.51193649 7.88661107 -114.18569281 7.89164027 -110.8593986 7.89860606 C-107.38670071 7.90484022 -103.91400207 7.90544345 -100.44129944 7.90663147 C-93.86103807 7.9097446 -87.28079324 7.91795775 -80.70053917 7.92798096 C-73.21093888 7.93914266 -65.72133782 7.94465269 -58.2317313 7.94967639 C-42.82114461 7.96014038 -27.41057443 7.97773947 -12 8 C-11.88011719 6.88753906 -11.76023437 5.77507813 -11.63671875 4.62890625 C-11 1 -11 1 -8.8125 -1.0625 C-5.18959346 -2.27013551 -3.42790732 -1.51465672 0 0 Z " fill="#F9F8F8" transform="translate(1022,550)"/>
<path d="M0 0 C3.05117423 0.96352871 3.70905622 2.0520966 5.375 4.75 C7.11645237 11.74887505 6.5995708 18.28665325 3.375 24.75 C1.375 26.75 1.375 26.75 -1.5625 27.125 C-4.625 26.75 -4.625 26.75 -6.28515625 25.1484375 C-9.05882748 20.18332341 -8.27914491 14.23992647 -7.625 8.75 C-6.11123302 4.45164931 -4.52346238 1.29241782 0 0 Z " fill="#F7D9A5" transform="translate(1158.625,1354.25)"/>
<path d="M0 0 C0.33 1.32 0.66 2.64 1 4 C2.15367569 3.98747192 3.30735138 3.97494385 4.49598694 3.96203613 C15.56507413 3.84211313 26.63418368 3.72446694 37.70331669 3.60884857 C43.38905599 3.54939262 49.07478573 3.48923303 54.76049805 3.42724609 C56.96728509 3.40331464 59.1740722 3.37938884 61.38085938 3.35546875 C62.47084921 3.34352982 63.56083904 3.33159088 64.68385887 3.31929016 C70.14577994 3.26068483 75.60762606 3.20902368 81.06973267 3.17114258 C83.21982911 3.15587731 85.36992475 3.14049744 87.52001953 3.125 C88.56801538 3.11756271 89.61601124 3.11012543 90.69576454 3.10246277 C96.77276391 3.05158052 102.84434455 2.93982624 108.91905689 2.76616669 C112.57220863 2.66546865 116.22560277 2.59408409 119.87951469 2.52735901 C121.56325744 2.4887218 123.24674239 2.43585622 124.92955208 2.36778259 C137.59166634 1.86058808 137.59166634 1.86058808 141.16091919 4.74829102 C142.56448671 6.85797935 143.46852193 8.52474835 144 11 C143.67 11.66 143.34 12.32 143 13 C142.01 12.505 142.01 12.505 141 12 C140.26924352 9.6859378 139.59861742 7.35171131 139 5 C138.06849121 5.03029297 137.13698242 5.06058594 136.17724609 5.09179688 C104.80815619 6.07113393 73.44349953 6.08746003 42.0625 6.0625 C40.97869804 6.06164398 39.89489609 6.06078796 38.77825165 6.05990601 C25.18548512 6.04838454 11.59274192 6.02812357 -2 6 C-1.34 4.02 -0.68 2.04 0 0 Z " fill="#FDFDFD" transform="translate(1022,554)"/>
<path d="M0 0 C2.69990662 1.79993774 4.5418865 3.083773 6 6 C6.55881444 10.09797257 6.1370529 11.76872323 4 15.375 C0.49769585 18.43951613 0.49769585 18.43951613 -3 18.625 C-7.04224862 18.28114142 -9.32851887 17.15720498 -12 14 C-13.125 10.625 -13.125 10.625 -13 7 C-9.81321552 1.40125707 -6.36295869 -0.62381948 0 0 Z " fill="#CDD3D8" transform="translate(1146,986)"/>
<path d="M0 0 C0.66 0 1.32 0 2 0 C2 0.66 2 1.32 2 2 C3.98 2.66 5.96 3.32 8 4 C8 4.66 8 5.32 8 6 C8.804375 6.28875 9.60875 6.5775 10.4375 6.875 C13 8 13 8 14 10 C14.08380838 11.83122438 14.10159752 13.66560497 14.08901978 15.498703 C14.08342545 16.66829056 14.07783112 17.83787811 14.07206726 19.04290771 C14.06069229 20.33352112 14.04931732 21.62413452 14.03759766 22.95385742 C14.02909135 24.32255297 14.02101988 25.69125128 14.01335144 27.05995178 C13.99108359 30.79324373 13.96239478 34.52646178 13.93239641 38.25969863 C13.90165484 42.19299284 13.87605728 46.12632103 13.84970093 50.05964661 C13.8044068 56.69693908 13.75498422 63.33419133 13.703125 69.97143555 C13.64386306 77.56207918 13.59081415 85.15274552 13.54135668 92.74345893 C13.49325885 100.10315861 13.44059487 107.4628194 13.38599777 114.82247353 C13.36308648 117.92006977 13.34163338 121.01767042 13.32149124 124.11528587 C13.18738567 144.42478465 12.76118703 164.70383194 12 185 C11.67 185 11.34 185 11 185 C10.82847938 165.2709068 11.01412743 145.55607882 11.41828966 125.83107996 C11.43304826 125.11036483 11.44780686 124.38964971 11.4630127 123.64709473 C11.48539418 122.55530607 11.48539418 122.55530607 11.50822783 121.44146109 C11.70799104 111.57590776 11.8611945 101.7095395 12.01291656 91.84314728 C12.13611041 83.95417671 12.28306894 76.06674612 12.47802734 68.17919922 C12.65075364 61.18630502 12.78065953 54.19410737 12.86002898 47.19950891 C12.90320166 43.52892846 12.96707194 39.8615436 13.08356476 36.19249725 C14.54417872 20.77509236 14.54417872 20.77509236 9.26208496 7.24963379 C6.45322063 4.88374017 3.36266244 3.46017116 0 2 C0 1.34 0 0.68 0 0 Z " fill="#E9E9E9" transform="translate(1164,1319)"/>
<path d="M0 0 C5.38732394 0.59859155 5.38732394 0.59859155 7.8125 2.1875 C9.56489338 4.86220568 9.93611062 6.80553105 10 10 C8.5 12.9375 8.5 12.9375 6 15 C2.4569417 15 0.09983854 14.67409459 -2.9375 12.8125 C-4.5681027 10.03088363 -4.44339036 8.16707399 -4 5 C-2 2.125 -2 2.125 0 0 Z " fill="#AEB7BE" transform="translate(928,819)"/>
<path d="M0 0 C0.33 1.32 0.66 2.64 1 4 C1.70666306 3.99738159 2.41332611 3.99476318 3.1414032 3.99206543 C22.34432758 3.93132497 41.53269653 4.1242892 60.7321167 4.46356201 C64.28036466 4.5257097 67.82866096 4.58497097 71.37695312 4.64453125 C78.25134971 4.7603197 85.12569144 4.87910057 92 5 C92 5.33 92 5.66 92 6 C60.98 6 29.96 6 -2 6 C-1.34 4.02 -0.68 2.04 0 0 Z " fill="#E5E5E5" transform="translate(1022,554)"/>
<path d="M0 0 C14.52 0 29.04 0 44 0 C44 0.33 44 0.66 44 1 C42.87980469 1.06058594 41.75960938 1.12117188 40.60546875 1.18359375 C39.13280016 1.26801424 37.66014456 1.35266149 36.1875 1.4375 C35.08051758 1.49647461 35.08051758 1.49647461 33.95117188 1.55664062 C30.76928658 1.74381035 28.03837622 1.98720793 25 3 C24.855625 3.804375 24.71125 4.60875 24.5625 5.4375 C24 8 24 8 23 9 C20.5625 9.25 20.5625 9.25 18 9 C16 6 16 6 16 3 C15.01 3 14.02 3 13 3 C13 2.34 13 1.68 13 1 C8.71 1 4.42 1 0 1 C0 0.67 0 0.34 0 0 Z " fill="#BCB7B7" transform="translate(1007,1516)"/>
<path d="M0 0 C3.5 -0.3125 3.5 -0.3125 7 0 C9 2 9 2 9.375 4.875 C9 8 9 8 7.3125 10.4375 C5 12 5 12 2.375 11.875 C0 11 0 11 -2 9 C-2.34490322 4.94738713 -2.30163882 3.45245824 0 0 Z " fill="#969292" transform="translate(1086,584)"/>
<path d="M0 0 C0.928125 0.20625 1.85625 0.4125 2.8125 0.625 C3.4375 3.4375 3.4375 3.4375 3.8125 6.625 C2.8225 8.11 2.8225 8.11 1.8125 9.625 C-1.37709781 10.0321827 -3.34750247 10.13983719 -6.125 8.4375 C-7.1875 6.625 -7.1875 6.625 -7.0625 4.0625 C-5.66026783 0.15628182 -4.01760903 -0.47265989 0 0 Z " fill="#FF0808" transform="translate(1018.1875,550.375)"/>
<path d="M0 0 C2.5 0.125 2.5 0.125 3.5 1.125 C3.625 4.125 3.625 4.125 3.5 7.125 C2.5 8.125 2.5 8.125 0 8.25 C-2.5 8.125 -2.5 8.125 -3.5 7.125 C-3.625 4.125 -3.625 4.125 -3.5 1.125 C-2.5 0.125 -2.5 0.125 0 0 Z " fill="#FF3131" transform="translate(1027.5,1516.875)"/>
<path d="M0 0 C0.66 0 1.32 0 2 0 C2 0.66 2 1.32 2 2 C3.98 2.66 5.96 3.32 8 4 C8 4.66 8 5.32 8 6 C8.804375 6.28875 9.60875 6.5775 10.4375 6.875 C13 8 13 8 14 10 C14.08400529 11.59447464 14.10727467 13.19240545 14.09765625 14.7890625 C14.09443359 15.73007813 14.09121094 16.67109375 14.08789062 17.640625 C14.07951172 18.62546875 14.07113281 19.6103125 14.0625 20.625 C14.05798828 21.61757812 14.05347656 22.61015625 14.04882812 23.6328125 C14.03702145 26.0886016 14.020554 28.54427104 14 31 C13.67 31 13.34 31 13 31 C13.03254883 30.44127197 13.06509766 29.88254395 13.09863281 29.30688477 C13.93759506 18.82393703 13.93759506 18.82393703 10.77490234 9.20166016 C7.58724549 6.11892134 3.84757074 4.17042452 0 2 C0 1.34 0 0.68 0 0 Z " fill="#F5F5F5" transform="translate(1164,1319)"/>
<path d="M0 0 C-2.55509071 3.12288864 -5.1034941 4.10080633 -9 5 C-12.875 4.625 -12.875 4.625 -16 4 C-13.20344553 2.54120507 -10.41743581 1.34614948 -7.4375 0.3125 C-6.67308594 0.04050781 -5.90867187 -0.23148438 -5.12109375 -0.51171875 C-3 -1 -3 -1 0 0 Z " fill="#241E0D" transform="translate(1015,1496)"/>
<path d="M0 0 C-0.33 0.99 -0.66 1.98 -1 3 C-1 2.34 -1 1.68 -1 1 C-4.34252724 0.92572162 -6.8035914 0.93453047 -10 2 C-10.33 2.66 -10.66 3.32 -11 4 C-10.65518813 1.41391095 -10.36805155 0.29989386 -8.3125 -1.375 C-5.06676305 -2.2522262 -3.04679062 -1.24641434 0 0 Z " fill="#FFF4F4" transform="translate(1022,550)"/>
<path d="M0 0 C2.31 0 4.62 0 7 0 C7 0.66 7 1.32 7 2 C4.36 2.66 1.72 3.32 -1 4 C-0.67 2.68 -0.34 1.36 0 0 Z " fill="#100D06" transform="translate(995,1500)"/>
</svg>
