<?xml version="1.0" encoding="UTF-8"?>
<svg version="1.1" xmlns="http://www.w3.org/2000/svg" width="637" height="572" viewBox="735 736 637 572">
<path d="M0 0 C0.80370529 -0.00175232 1.60741058 -0.00350464 2.43547058 -0.00531006 C5.08916388 -0.00970723 7.74279041 -0.00679808 10.39648438 -0.00341797 C12.24206556 -0.00409162 14.08764666 -0.00506216 15.93322754 -0.00631714 C19.80005743 -0.00779122 23.66686421 -0.00564884 27.53369141 -0.00097656 C32.49027598 0.00472054 37.44680639 0.00144 42.40338898 -0.00454903 C46.21405444 -0.00816244 50.02470707 -0.00701245 53.83537292 -0.00442123 C55.66301988 -0.00375413 57.490668 -0.00457285 59.3183136 -0.00690079 C61.87239673 -0.00944007 64.42639215 -0.00556866 66.98046875 0 C67.73591476 -0.00202423 68.49136078 -0.00404846 69.2696991 -0.00613403 C72.75598459 0.00794821 75.57717874 0.27613062 78.99023438 1.12939453 C78.99023438 4.09939453 78.99023438 7.06939453 78.99023438 10.12939453 C293.82023437 10.62439453 293.82023437 10.62439453 512.99023438 11.12939453 C512.99023438 8.15939453 512.99023438 5.18939453 512.99023438 2.12939453 C513.32023437 1.46939453 513.65023437 0.80939453 513.99023438 0.12939453 C543.67337479 -0.0122755 573.31745219 0.3358692 602.99023438 1.12939453 C604.15533387 3.45959353 604.11355589 4.79939452 604.11048889 7.39407349 C604.11186356 8.28872314 604.11323822 9.1833728 604.11465454 10.10513306 C604.11105927 11.08912079 604.10746399 12.07310852 604.10375977 13.08691406 C604.10390579 14.12108459 604.10405182 15.15525513 604.10420227 16.22076416 C604.10350361 19.65126619 604.09571338 23.08171444 604.08789062 26.51220703 C604.08602628 28.88589447 604.08460245 31.2595823 604.08360291 33.63327026 C604.07977904 39.89028988 604.06994984 46.1472864 604.05889893 52.40429688 C604.04868201 58.78531583 604.04410468 65.16633851 604.0390625 71.54736328 C604.02832748 84.0747169 604.01144398 96.60205449 603.99023438 109.12939453 C604.93898438 109.08814453 605.88773438 109.04689453 606.86523438 109.00439453 C609.99023438 109.12939453 609.99023438 109.12939453 611.99023438 111.12939453 C612.3551095 113.97542047 612.39222812 115.51582513 610.80273438 117.94189453 C608.43808882 119.49114507 606.76489856 119.21567705 603.99023438 119.12939453 C604.03114952 121.0295356 604.03114952 121.0295356 604.07289124 122.96806335 C604.329125 134.90118538 604.5795746 146.83441662 604.8243494 158.76777935 C604.95037914 164.90295073 605.07845237 171.03806531 605.21118164 177.1730957 C605.33917712 183.09278577 605.46182314 189.01256462 605.5807476 194.93244362 C605.62708127 197.1919231 605.67534832 199.45136377 605.72557259 201.71076012 C605.79554282 204.87325484 605.85866225 208.0358172 605.92016602 211.19848633 C605.94246277 212.13428528 605.96475952 213.07008423 605.98773193 214.03424072 C606.06236342 218.21221762 606.08342374 222.05616864 604.99023438 226.12939453 C586.8516865 227.3072913 568.72869862 227.25013139 550.5625 227.19805908 C546.53906796 227.18765863 542.51562923 227.18322638 538.4921875 227.17822266 C530.65818541 227.16763513 522.82421554 227.1506664 514.99023438 227.12939453 C513.13246672 223.99441161 512.78882962 221.75468021 512.99023438 218.12939453 C505.41825946 218.19077967 497.84658406 218.26801008 490.27498531 218.36510944 C486.75862385 218.40971359 483.24237557 218.44899091 479.72583008 218.47583008 C475.67695337 218.50697096 471.62868899 218.56175553 467.58007812 218.61767578 C466.32565414 218.6240657 465.07123016 218.63045563 463.77879333 218.63703918 C457.44104304 218.74329048 452.57945004 219.03388437 446.99023438 222.12939453 C446.40297603 226.67831634 445.9536406 230.54982307 448.54882812 234.50439453 C449.81149886 235.88647276 451.11408738 237.23344268 452.45898438 238.53564453 C453.99023438 240.12939453 453.99023438 240.12939453 453.99023438 242.12939453 C454.60898438 242.37689453 455.22773437 242.62439453 455.86523438 242.87939453 C458.39382064 244.36679822 458.70862442 245.56617462 459.99023438 248.12939453 C460.60382813 248.42894043 461.21742188 248.72848633 461.84960938 249.03710938 C464.25474647 250.26436569 465.48720428 251.5662512 467.24023438 253.60595703 C473.7317595 261.44377596 473.7317595 261.44377596 482.43164062 265.97705078 C485.52399955 265.86635636 485.52399955 265.86635636 488.44726562 265.39892578 C491.31230962 265.09525752 492.37438506 265.43267645 494.74023438 267.00439453 C495.48273437 267.70564453 496.22523438 268.40689453 496.99023438 269.12939453 C496.99023438 269.78939453 496.99023438 270.44939453 496.99023438 271.12939453 C497.98023438 271.45939453 498.97023438 271.78939453 499.99023438 272.12939453 C501.42773438 273.59033203 501.42773438 273.59033203 502.99023438 275.50439453 C506.56588191 279.74903418 510.43027986 283.61140553 514.43359375 287.44726562 C515.65530592 288.63864858 516.82746609 289.88041739 517.99023438 291.12939453 C517.99023438 291.78939453 517.99023438 292.44939453 517.99023438 293.12939453 C518.65023437 293.12939453 519.31023438 293.12939453 519.99023438 293.12939453 C519.99023438 293.78939453 519.99023438 294.44939453 519.99023438 295.12939453 C520.98023438 295.45939453 521.97023438 295.78939453 522.99023438 296.12939453 C524.63085937 297.61767578 524.63085937 297.61767578 526.24023438 299.44189453 C527.05234375 300.33328125 527.05234375 300.33328125 527.88085938 301.24267578 C528.99023438 303.12939453 528.99023438 303.12939453 528.66210938 305.23486328 C528.44039062 305.86005859 528.21867187 306.48525391 527.99023438 307.12939453 C527.77234592 309.24963212 527.77234592 309.24963212 529.45117188 310.82080078 C530.0828125 311.43826172 530.71445313 312.05572266 531.36523438 312.69189453 C531.99171875 313.31193359 532.61820313 313.93197266 533.26367188 314.57080078 C534.92013177 316.20574852 534.92013177 316.20574852 536.99023438 317.12939453 C536.99023438 317.78939453 536.99023438 318.44939453 536.99023438 319.12939453 C537.65023437 319.12939453 538.31023438 319.12939453 538.99023438 319.12939453 C541.11523438 321.00439453 541.11523438 321.00439453 542.99023438 323.12939453 C542.99023438 323.78939453 542.99023438 324.44939453 542.99023438 325.12939453 C543.98023438 325.45939453 544.97023438 325.78939453 545.99023438 326.12939453 C545.47246817 330.23386845 543.34395994 332.08638976 540.42773438 334.87939453 C539.60144531 335.67861328 538.77515625 336.47783203 537.92382812 337.30126953 C536.96669922 338.20619141 536.96669922 338.20619141 535.99023438 339.12939453 C537.29378201 341.99232626 538.3183059 343.45746606 540.61523438 345.75439453 C542.99023438 348.12939453 542.99023438 348.12939453 542.99023438 350.12939453 C543.58283051 350.39634628 544.17542664 350.66329803 544.78598022 350.93833923 C547.02955669 352.15064211 548.47464396 353.37779685 550.25830078 355.1862793 C550.87218658 355.80354385 551.48607239 356.42080841 552.11856079 357.05677795 C552.7697287 357.72140549 553.42089661 358.38603302 554.09179688 359.07080078 C554.76947113 359.75367661 555.44714539 360.43655243 556.14535522 361.14012146 C558.30678729 363.31934931 560.46140845 365.50515092 562.61523438 367.69189453 C564.77706383 369.88132283 566.94032607 372.06928555 569.10653687 374.25437927 C570.45372067 375.61384014 571.79822259 376.97596484 573.13980103 378.34095764 C573.74738251 378.95507004 574.35496399 379.56918243 574.98095703 380.2019043 C575.51516266 380.74436295 576.04936829 381.28682159 576.59976196 381.84571838 C577.98195873 383.24113959 577.98195873 383.24113959 579.99023438 384.12939453 C579.99023438 384.78939453 579.99023438 385.44939453 579.99023438 386.12939453 C580.65023437 386.12939453 581.31023438 386.12939453 581.99023438 386.12939453 C584.9887166 392.12635898 583.70846182 402.39655399 582.04882812 408.71142578 C578.73995358 416.95768053 574.30601419 422.28272042 567.44335938 427.83251953 C565.85735827 429.08720156 565.85735827 429.08720156 564.99023438 431.12939453 C566.44429687 431.09845703 566.44429687 431.09845703 567.92773438 431.06689453 C570.99023438 431.12939453 570.99023438 431.12939453 571.99023438 432.12939453 C572.0308727 433.79556568 572.03295538 435.46327548 571.99023438 437.12939453 C574.30023437 437.12939453 576.61023437 437.12939453 578.99023438 437.12939453 C580.34463105 439.83818788 580.05524888 442.13872721 579.99023438 445.12939453 C582.30023437 445.12939453 584.61023437 445.12939453 586.99023438 445.12939453 C587.32023437 447.10939453 587.65023437 449.08939453 587.99023438 451.12939453 C589.64023438 451.45939453 591.29023437 451.78939453 592.99023438 452.12939453 C593.75976562 453.83251953 593.75976562 453.83251953 593.99023438 456.12939453 C592.18945312 458.48876953 592.18945312 458.48876953 589.67773438 460.87939453 C588.85660156 461.67861328 588.03546875 462.47783203 587.18945312 463.30126953 C584.99023438 465.12939453 584.99023438 465.12939453 582.99023438 465.12939453 C582.76335938 465.68626953 582.53648437 466.24314453 582.30273438 466.81689453 C580.63126671 469.76186137 578.43747086 471.81095997 575.99023438 474.12939453 C577.99867529 479.05920406 581.63128512 482.22342836 585.99023438 485.12939453 C585.99023438 485.78939453 585.99023438 486.44939453 585.99023438 487.12939453 C586.65023437 487.12939453 587.31023438 487.12939453 587.99023438 487.12939453 C590.11523438 489.00439453 590.11523438 489.00439453 591.99023438 491.12939453 C591.99023438 491.78939453 591.99023438 492.44939453 591.99023438 493.12939453 C592.91835937 493.50064453 592.91835937 493.50064453 593.86523438 493.87939453 C596.39382064 495.36679822 596.70862442 496.56617462 597.99023438 499.12939453 C599.30556848 499.83090605 600.64141029 500.49465379 601.99023438 501.12939453 C604.24023438 503.12939453 604.24023438 503.12939453 605.99023438 505.12939453 C605.99023438 505.78939453 605.99023438 506.44939453 605.99023438 507.12939453 C606.82554687 507.46970703 606.82554687 507.46970703 607.67773438 507.81689453 C610.71686001 509.54180368 612.74776783 511.45089282 614.99023438 514.12939453 C615.55273438 516.62939453 615.55273438 516.62939453 614.99023438 519.12939453 C613.11523438 521.94189453 613.11523438 521.94189453 610.99023438 524.12939453 C610.33023438 524.12939453 609.67023437 524.12939453 608.99023438 524.12939453 C608.99023438 524.78939453 608.99023438 525.44939453 608.99023438 526.12939453 C607.11523438 528.25439453 607.11523438 528.25439453 604.99023438 530.12939453 C604.33023438 530.12939453 603.67023437 530.12939453 602.99023438 530.12939453 C602.99023438 530.78939453 602.99023438 531.44939453 602.99023438 532.12939453 C602.33023438 532.12939453 601.67023437 532.12939453 600.99023438 532.12939453 C600.7181868 532.72675919 600.44613922 533.32412384 600.16584778 533.93959045 C599.01458195 536.08404253 597.89885622 537.46322105 596.18041992 539.16625977 C595.61610764 539.73042099 595.05179535 540.29458221 594.47038269 540.87583923 C593.86205093 541.47384842 593.25371918 542.0718576 592.62695312 542.68798828 C591.68345757 543.627239 591.68345757 543.627239 590.72090149 544.58546448 C588.71116722 546.58402707 586.69460308 548.57553449 584.67773438 550.56689453 C583.33157142 551.90301995 581.9858632 553.23960368 580.640625 554.57666016 C577.61152892 557.58585308 574.58031078 560.59282813 571.53744507 563.58810425 C570.08799474 565.03200825 568.67026969 566.50756349 567.25512695 567.98510742 C564.99023438 570.12939453 564.99023438 570.12939453 561.99023438 571.12939453 C560.22357178 569.97485352 560.22357178 569.97485352 558.29394531 568.18798828 C557.23427551 567.21128174 557.23427551 567.21128174 556.15319824 566.21484375 C552.74920099 562.93283635 549.42254239 559.58630307 546.13085938 556.19189453 C544.67181483 554.70563717 543.21216215 553.21997659 541.75195312 551.73486328 C539.47911756 549.41851901 537.21041707 547.09863569 534.95166016 544.76855469 C532.75182456 542.50247323 530.53670185 540.25234184 528.31835938 538.00439453 C527.64226624 537.29935791 526.9661731 536.59432129 526.26959229 535.86791992 C525.63503113 535.22975342 525.00046997 534.59158691 524.34667969 533.93408203 C523.79345032 533.3667334 523.24022095 532.79938477 522.67022705 532.21484375 C521.03548408 530.91874481 521.03548408 530.91874481 518.94476318 531.28393555 C516.30386647 532.42629264 514.79794368 534.35412452 512.92871094 536.48583984 C506.53827034 543.74940505 506.53827034 543.74940505 501.75976562 544.92236328 C499.07138695 544.88410692 496.61736754 544.68791891 493.99023438 544.12939453 C493.66023438 542.14939453 493.33023438 540.16939453 492.99023438 538.12939453 C492.02085937 537.98501953 491.05148437 537.84064453 490.05273438 537.69189453 C486.99023438 537.12939453 486.99023438 537.12939453 485.99023438 536.12939453 C485.94942655 534.12981089 485.94769081 532.12894199 485.99023438 530.12939453 C484.28867188 530.16033203 484.28867188 530.16033203 482.55273438 530.19189453 C478.99023438 530.12939453 478.99023438 530.12939453 477.99023438 529.12939453 C477.949305 526.7964202 477.94781714 524.46234229 477.99023438 522.12939453 C474.69023438 522.12939453 471.39023438 522.12939453 467.99023438 522.12939453 C467.99023438 522.78939453 467.99023438 523.44939453 467.99023438 524.12939453 C467.33023437 524.12939453 466.67023438 524.12939453 465.99023438 524.12939453 C465.66023438 525.44939453 465.33023437 526.76939453 464.99023438 528.12939453 C464.33023437 528.12939453 463.67023438 528.12939453 462.99023438 528.12939453 C462.68085937 528.99564453 462.68085937 528.99564453 462.36523438 529.87939453 C459.65295179 534.31767513 454.81382857 536.55938811 449.99023438 538.12939453 C447.16359732 538.44721541 444.50615645 538.63467931 441.67773438 538.69189453 C440.95650391 538.74152344 440.23527344 538.79115234 439.4921875 538.84228516 C434.9975325 538.92693785 432.56199999 538.14665341 429.22924805 535.08764648 C428.53469009 534.45223434 427.84013214 533.8168222 427.12452698 533.16215515 C423.64023419 529.84361619 420.22393288 526.46590956 416.84179688 523.04345703 C416.10319427 522.30106781 415.36459167 521.55867859 414.60360718 520.79379272 C412.2716816 518.44976335 409.94306181 516.10249332 407.61523438 513.75439453 C404.52693815 510.63956764 401.43538386 507.52802825 398.34179688 504.41845703 C397.63350739 503.7018692 396.9252179 502.98528137 396.19546509 502.24697876 C395.21336563 501.25992447 395.21336563 501.25992447 394.21142578 500.25292969 C393.6359903 499.67225739 393.06055481 499.09158508 392.46768188 498.49331665 C391.01614641 497.02647482 391.01614641 497.02647482 388.99023438 496.12939453 C388.99023438 495.46939453 388.99023438 494.80939453 388.99023438 494.12939453 C387.01023437 493.46939453 385.03023437 492.80939453 382.99023438 492.12939453 C382.45914062 492.71849609 381.92804688 493.30759766 381.38085938 493.91455078 C380.67445313 494.66607422 379.96804688 495.41759766 379.24023438 496.19189453 C378.54414062 496.94599609 377.84804687 497.70009766 377.13085938 498.47705078 C374.99023438 500.12939453 374.99023438 500.12939453 373.11328125 499.97119141 C370.38875288 498.89090463 368.92818511 497.40684414 366.88085938 495.31298828 C366.12675781 494.54921875 365.37265625 493.78544922 364.59570312 492.99853516 C363.81839844 492.19609375 363.04109375 491.39365234 362.24023438 490.56689453 C361.44746094 489.76058594 360.6546875 488.95427734 359.83789062 488.12353516 C357.88176391 486.13205675 355.93297718 484.13391732 353.99023438 482.12939453 C353.08015625 482.51869141 352.17007812 482.90798828 351.23242188 483.30908203 C347.99023438 484.12939453 347.99023438 484.12939453 345.93554688 483.07470703 C345.33484375 482.47400391 344.73414063 481.87330078 344.11523438 481.25439453 C343.4475 480.60341797 342.77976562 479.95244141 342.09179688 479.28173828 C341.39828125 478.57146484 340.70476562 477.86119141 339.99023438 477.12939453 C339.23484375 476.40880859 338.47945312 475.68822266 337.70117188 474.94580078 C333.62595731 471.02178676 333.62595731 471.02178676 331.99023438 469.12939453 C331.99023438 468.46939453 331.99023438 467.80939453 331.99023438 467.12939453 C331.00023437 466.79939453 330.01023437 466.46939453 328.99023438 466.12939453 C328.99023438 465.46939453 328.99023438 464.80939453 328.99023438 464.12939453 C328.00023437 463.79939453 327.01023437 463.46939453 325.99023438 463.12939453 C325.99023438 462.46939453 325.99023438 461.80939453 325.99023438 461.12939453 C325.00023437 460.79939453 324.01023437 460.46939453 322.99023438 460.12939453 C321.30664062 458.42236328 321.30664062 458.42236328 319.55273438 456.31689453 C317.63017289 454.0407118 315.75255485 451.89796973 313.61523438 449.81689453 C310.945392 447.04436591 310.85285781 444.36154744 310.86523438 440.69189453 C310.86265625 439.93005859 310.86007812 439.16822266 310.85742188 438.38330078 C310.99023438 436.12939453 310.99023438 436.12939453 311.58789062 433.94580078 C311.72066406 433.34638672 311.8534375 432.74697266 311.99023438 432.12939453 C310.59434684 430.48345314 310.59434684 430.48345314 308.99023438 429.12939453 C308.99023438 428.46939453 308.99023438 427.80939453 308.99023438 427.12939453 C308.37148437 426.88189453 307.75273438 426.63439453 307.11523438 426.37939453 C304.58664811 424.89199084 304.27184433 423.69261444 302.99023438 421.12939453 C302.33023437 420.79939453 301.67023438 420.46939453 300.99023438 420.12939453 C298.46177909 418.86516689 298.22600673 417.60093925 296.99023438 415.12939453 C295.67490027 414.42788301 294.33905846 413.76413528 292.99023438 413.12939453 C290.74023438 411.12939453 290.74023438 411.12939453 288.99023438 409.12939453 C288.99023438 408.46939453 288.99023438 407.80939453 288.99023438 407.12939453 C288.39740378 406.86160344 287.80457319 406.59381235 287.19377804 406.31790638 C284.96361318 405.11503602 283.51505975 403.90086203 281.73353577 402.11320496 C281.11261551 401.49503403 280.49169525 400.8768631 279.85195923 400.23995972 C279.18224091 399.56305084 278.51252258 398.88614197 277.82250977 398.1887207 C277.1081929 397.47469589 276.39387604 396.76067108 275.65791321 396.02500916 C273.29646782 393.66217002 270.9421896 391.29232132 268.58789062 388.92236328 C266.94692457 387.27766534 265.30551508 385.63340971 263.66368103 383.98957825 C259.3391664 379.65742513 255.02068627 375.31930457 250.70343018 370.97991943 C246.31889687 366.57499248 241.92876252 362.17565596 237.5390625 357.77587891 C230.44359735 350.66282788 223.35160552 343.54633573 216.26403809 336.42541504 C212.84364791 332.98917528 209.42010782 329.55617567 205.99023438 326.12939453 C200.99023438 321.12939453 200.99023438 321.12939453 198.67773438 318.75439453 C195.75997522 315.90449024 192.69608808 313.29083634 189.56445312 310.68017578 C189.04496094 310.16841797 188.52546875 309.65666016 187.99023438 309.12939453 C187.99023438 308.46939453 187.99023438 307.80939453 187.99023438 307.12939453 C187.33023438 307.12939453 186.67023438 307.12939453 185.99023438 307.12939453 C185.99023438 306.46939453 185.99023438 305.80939453 185.99023438 305.12939453 C185.00023437 304.79939453 184.01023437 304.46939453 182.99023438 304.12939453 C182.99023438 303.46939453 182.99023438 302.80939453 182.99023438 302.12939453 C182.00023437 301.79939453 181.01023437 301.46939453 179.99023438 301.12939453 C179.99023438 300.46939453 179.99023438 299.80939453 179.99023438 299.12939453 C179.00023437 298.79939453 178.01023437 298.46939453 176.99023438 298.12939453 C176.99023438 297.46939453 176.99023438 296.80939453 176.99023438 296.12939453 C176.00023437 295.79939453 175.01023437 295.46939453 173.99023438 295.12939453 C173.99023438 294.46939453 173.99023438 293.80939453 173.99023438 293.12939453 C173.00023437 292.79939453 172.01023437 292.46939453 170.99023438 292.12939453 C168.30273437 289.69189453 168.30273437 289.69189453 165.99023438 287.12939453 C165.99023438 286.46939453 165.99023438 285.80939453 165.99023438 285.12939453 C165.00023437 284.79939453 164.01023437 284.46939453 162.99023438 284.12939453 C161.30273438 282.69189453 161.30273438 282.69189453 159.99023438 281.12939453 C159.99023438 280.46939453 159.99023438 279.80939453 159.99023438 279.12939453 C159.00023437 278.79939453 158.01023437 278.46939453 156.99023438 278.12939453 C155.30273438 276.69189453 155.30273438 276.69189453 153.99023438 275.12939453 C153.99023438 274.46939453 153.99023438 273.80939453 153.99023438 273.12939453 C153.37148438 272.88189453 152.75273438 272.63439453 152.11523438 272.37939453 C149.63954751 270.92310814 149.03898435 269.75126947 147.99023438 267.12939453 C147.33023438 267.12939453 146.67023438 267.12939453 145.99023438 267.12939453 C145.99023438 266.46939453 145.99023438 265.80939453 145.99023438 265.12939453 C145.33023438 265.12939453 144.67023438 265.12939453 143.99023438 265.12939453 C141.86523438 263.25439453 141.86523438 263.25439453 139.99023438 261.12939453 C139.99023438 260.46939453 139.99023438 259.80939453 139.99023438 259.12939453 C139.00023437 258.79939453 138.01023437 258.46939453 136.99023438 258.12939453 C135.30273438 256.69189453 135.30273438 256.69189453 133.99023438 255.12939453 C133.99023438 254.46939453 133.99023438 253.80939453 133.99023438 253.12939453 C133.00023437 252.79939453 132.01023437 252.46939453 130.99023438 252.12939453 C129.30273438 250.69189453 129.30273438 250.69189453 127.99023438 249.12939453 C127.99023438 248.46939453 127.99023438 247.80939453 127.99023438 247.12939453 C127.33023438 247.12939453 126.67023438 247.12939453 125.99023438 247.12939453 C125.99023438 246.46939453 125.99023438 245.80939453 125.99023438 245.12939453 C125.00023437 244.79939453 124.01023437 244.46939453 122.99023438 244.12939453 C121.30273438 242.69189453 121.30273438 242.69189453 119.99023438 241.12939453 C119.99023438 240.46939453 119.99023438 239.80939453 119.99023438 239.12939453 C119.00023437 238.79939453 118.01023437 238.46939453 116.99023438 238.12939453 C115.30273438 236.69189453 115.30273438 236.69189453 113.99023438 235.12939453 C113.99023438 234.46939453 113.99023438 233.80939453 113.99023438 233.12939453 C113.39855469 232.86771484 112.806875 232.60603516 112.19726562 232.33642578 C109.8732406 231.06541032 108.47325625 229.74954457 106.67773438 227.81689453 C98.70089825 219.65296843 91.31329334 217.10507762 79.99023438 216.12939453 C79.92964844 216.83966797 79.8690625 217.54994141 79.80664062 218.28173828 C79.68095703 219.66039062 79.68095703 219.66039062 79.55273438 221.06689453 C79.47152344 221.98341797 79.3903125 222.89994141 79.30664062 223.84423828 C78.99023438 226.12939453 78.99023438 226.12939453 77.99023438 227.12939453 C75.19030131 227.22458943 72.41520621 227.25492091 69.61499023 227.24291992 C68.72277299 227.24304046 67.83055574 227.24316099 66.91130161 227.24328518 C64.00920218 227.24253588 61.10716614 227.2349069 58.20507812 227.22705078 C56.41898632 227.22558141 54.63289408 227.22456067 52.84680176 227.22399902 C46.20710608 227.21874554 39.56741961 227.20478447 32.92773438 227.19189453 C18.09835937 227.17126953 3.26898437 227.15064453 -12.00976562 227.12939453 C-12.33976563 192.14939453 -12.66976562 157.16939453 -13.00976562 121.12939453 C-14.98976563 121.12939453 -16.96976563 121.12939453 -19.00976562 121.12939453 C-21.00976562 119.12939453 -21.00976562 119.12939453 -21.25976562 116.62939453 C-21.00976562 114.12939453 -21.00976562 114.12939453 -19.00976562 112.12939453 C-17.02976562 112.12939453 -15.04976562 112.12939453 -13.00976562 112.12939453 C-12.51476562 57.18439453 -12.51476562 57.18439453 -12.00976562 1.12939453 C-7.89752649 0.10133475 -4.19551331 -0.01124195 0 0 Z " fill="#0B0B0B" transform="translate(757.009765625,736.87060546875)"/>
<path d="M0 0 C142.89 0 285.78 0 433 0 C434.47367912 4.42103735 433.54929782 8.30854415 432.9375 12.875 C432.73386841 14.39673828 432.73386841 14.39673828 432.52612305 15.94921875 C425.28849691 67.24448876 409.30167319 119.22064847 388.3125 166.5625 C387.80219238 167.72120605 387.29188477 168.87991211 386.76611328 170.07373047 C374.71178358 196.64410821 374.71178358 196.64410821 366 201 C362.90798243 206.49692013 362.36268115 210.87559849 364 217 C366.30124363 222.6329484 369.80083633 226.1936664 374.07421875 230.3671875 C374.7580513 231.04677521 375.44188385 231.72636292 376.1464386 232.42654419 C378.31981867 234.58320894 380.5034238 236.7291734 382.6875 238.875 C384.1680064 240.3404504 385.64783186 241.80658906 387.12695312 243.2734375 C390.74346602 246.8569759 394.3691825 250.43095804 398 254 C394.07302104 258.70861857 389.98045494 263.14791097 385.61328125 267.44921875 C384.73774849 268.31907158 384.73774849 268.31907158 383.8445282 269.20649719 C382.00296071 271.03598024 380.15815977 272.86214611 378.3125 274.6875 C375.86818056 277.1051576 373.427243 279.52615771 370.98828125 281.94921875 C370.43199539 282.49720627 369.87570953 283.04519379 369.30256653 283.60978699 C367.15631021 285.74243485 365.12659436 287.82773528 363.33251953 290.26904297 C361.11945851 293.14383275 357.84386505 294.13697719 354.5625 295.4375 C353.81967773 295.7368042 353.07685547 296.0361084 352.31152344 296.34448242 C286.3400793 321.93543768 207.86143204 299.34836488 146.00488281 272.30786133 C122.89898227 261.99350419 100.42659661 250.68723042 78.74169922 237.64208984 C76.15279045 236.091511 73.55061635 234.56688152 70.94140625 233.05078125 C55.79287016 224.19492264 41.19010426 214.40085653 26.984375 204.1015625 C18.45088759 198.09237896 10.7874259 198.34842824 0 197 C0 131.99 0 66.98 0 0 Z " fill="#3E5F79" transform="translate(836,752)"/>
<path d="M0 0 C4.25275757 0.60026486 7.41557253 3.0852418 10.87109375 5.453125 C11.87619995 6.13097046 11.87619995 6.13097046 12.90161133 6.82250977 C14.33770925 7.79122189 15.77222161 8.76228795 17.20529175 9.73547363 C20.94977292 12.27605893 24.70899204 14.79459863 28.46875 17.3125 C29.21031845 17.80937317 29.9518869 18.30624634 30.71592712 18.81817627 C45.38261355 28.6237773 60.44292606 37.68235651 76 46 C77.31025146 46.70141113 77.31025146 46.70141113 78.64697266 47.41699219 C119.92851749 69.4251115 163.12419229 88.04068023 209 98 C209.83821289 98.18997559 210.67642578 98.37995117 211.54003906 98.57568359 C222.89253178 101.12433817 234.30870519 102.60175957 245.875 103.75 C247.14609619 103.87785889 248.41719238 104.00571777 249.72680664 104.13745117 C278.89173041 106.82456501 306.67148788 103.27387674 334 93 C335.99661328 92.3232579 337.99538701 91.65266469 340 91 C335.33395581 96.65000038 330.29561358 101.82535897 325.09293365 106.98223114 C323.61084367 108.45139663 322.13204168 109.92380447 320.6539917 111.39703369 C317.52215307 114.51753518 314.3863641 117.6340479 311.25 120.75 C307.59893947 124.37741466 303.9495406 128.00646999 300.30431366 131.63974762 C298.84946412 133.08813072 297.39163105 134.53346411 295.93365479 135.97869873 C295.05223816 136.85681213 294.17082153 137.73492554 293.26269531 138.63964844 C292.4858136 139.41129333 291.70893188 140.18293823 290.9085083 140.97796631 C288.84458131 143.05142683 288.84458131 143.05142683 287 146 C286.34 146 285.68 146 285 146 C284.74863281 146.57878906 284.49726562 147.15757812 284.23828125 147.75390625 C282.84407086 150.28283677 281.26209642 151.9343046 279.1875 153.9375 C278.52105469 154.58589844 277.85460938 155.23429687 277.16796875 155.90234375 C276.45253906 156.59457031 275.73710938 157.28679687 275 158 C273.33174152 159.66507333 271.66531004 161.33197781 270 163 C252.66666667 180.33333333 235.33333333 197.66666667 218 215 C212.38874679 210.33078051 207.21398013 205.34469379 202.07055664 200.16821289 C201.20456345 199.30075943 200.33857025 198.43330597 199.44633484 197.53956604 C197.57535589 195.66479595 195.70530247 193.78915537 193.83677864 191.91194344 C190.87537582 188.93691492 187.91007016 185.96579663 184.94419861 182.995224 C178.11323719 176.15226485 171.28731059 169.30429067 164.46144867 162.45624542 C158.20337694 156.1779362 151.94421787 149.90072104 145.68098158 143.62756342 C142.7397016 140.6813349 139.80086918 137.73269404 136.86395848 134.78211033 C134.59759519 132.50646142 132.32793843 130.23410068 130.05883789 127.96118164 C129.25703094 127.15420837 128.455224 126.34723511 127.62911987 125.51580811 C124.20542174 122.09179162 120.76659152 118.74721201 117.09179688 115.5927887 C111.96322217 111.17376606 107.23947948 106.35540769 102.47241211 101.55419922 C101.43850156 100.51672481 100.40435058 99.47948998 99.36997986 98.44247437 C97.15770235 96.22368869 94.94694657 94.00340213 92.73734856 91.78194809 C89.23889645 88.26507671 85.73598975 84.75266473 82.23231506 81.24099731 C72.27502629 71.25965013 62.32371894 61.27235199 52.37670898 51.28076172 C46.87176137 45.7512208 41.36318944 40.22531591 35.85075003 34.70324337 C32.37125296 31.21722912 28.89629764 27.72677064 25.42470729 24.23288321 C23.26099517 22.05739477 21.09306838 19.88614427 18.92395973 17.71603775 C17.9237217 16.7136628 16.92519274 15.70957887 15.92856598 14.70361328 C10.87663246 9.60620207 5.94780659 5.01891303 0 1 C0 0.67 0 0.34 0 0 Z " fill="#2C4255" transform="translate(857,953)"/>
<path d="M0 0 C3.04015145 1.95123592 5.46230469 4.44427489 8 7 C9.35158203 8.29744141 9.35158203 8.29744141 10.73046875 9.62109375 C15.89123103 14.6362774 15.89123103 14.6362774 18 17 C18 17.66 18 18.32 18 19 C18.99 19.33 19.98 19.66 21 20 C22.61328125 21.63671875 22.61328125 21.63671875 24.3125 23.6875 C27.38656536 27.31751335 30.59601162 30.67903572 34 34 C32.70830946 36.83844361 31.35252304 38.89774525 29.15139008 41.10029221 C28.27467643 41.98482909 28.27467643 41.98482909 27.38025141 42.8872354 C26.41635374 43.8444409 26.41635374 43.8444409 25.4329834 44.82098389 C24.75073244 45.50635483 24.06848147 46.19172577 23.36555624 46.89786553 C21.07331979 49.19809299 18.77398418 51.49108956 16.47460938 53.78417969 C14.83184437 55.429654 13.18950532 57.07555365 11.54756165 58.72184753 C7.0833648 63.19517626 2.6128475 67.66213847 -1.85908318 72.12773418 C-6.05780189 76.32191068 -10.25251542 80.52008662 -14.447496 84.7180014 C-23.26005906 93.53626787 -32.07874285 102.34839282 -40.89952856 111.15843323 C-48.47409679 118.72406002 -56.04339755 126.29492361 -63.60888672 133.86962891 C-72.39026356 142.661698 -81.17486178 151.4505275 -89.96466017 160.23417783 C-94.61916907 164.88556149 -99.27229904 169.53830296 -103.92195129 174.19454193 C-108.29057901 178.56892558 -112.66402915 182.93842861 -117.04133034 187.30413246 C-118.65157238 188.91171882 -120.26009425 190.52103021 -121.86681175 192.13213921 C-124.05096541 194.32171385 -126.24111359 196.50510445 -128.4329834 198.68695068 C-129.07558184 199.33401057 -129.71818028 199.98107046 -130.38025141 200.64773822 C-134.77169972 205 -134.77169972 205 -137 205 C-137.33 205.99 -137.66 206.98 -138 208 C-140.0625 209.1875 -140.0625 209.1875 -142 210 C-145.00831496 207.01669981 -148.01310394 204.02990259 -151.01489258 201.04003906 C-152.03317292 200.02673848 -153.05235474 199.01434288 -154.07250977 198.00292969 C-159.43505746 192.68513571 -164.73105535 187.35582355 -169.6328125 181.60205078 C-170.86341164 180.16005228 -172.1475589 178.76416734 -173.4375 177.375 C-175.48491197 174.2629338 -175.68551032 172.65605504 -175 169 C-172.875 166.5625 -172.875 166.5625 -170 164 C-168.41128941 162.14326734 -166.86788367 160.25603547 -165.33203125 158.35546875 C-164.89246094 157.90816406 -164.45289063 157.46085937 -164 157 C-163.34 157 -162.68 157 -162 157 C-161.74605469 156.40703125 -161.49210937 155.8140625 -161.23046875 155.203125 C-159.86373626 152.75602301 -158.48257018 151.50652046 -156.3125 149.75 C-153.52964175 147.40025207 -151.08204242 145.04615898 -148.75 142.25 C-145.44045508 138.35159461 -141.77376234 134.98457854 -137.97680664 131.56616211 C-133.59572578 127.59743418 -129.37117908 123.48836593 -125.1875 119.3125 C-124.57777344 118.70720459 -123.96804688 118.10190918 -123.33984375 117.47827148 C-120.35239006 114.481482 -117.47793023 111.43314217 -114.72290039 108.22070312 C-111.26227111 104.24917624 -107.62988721 100.50099128 -103.890625 96.79296875 C-103.21809692 96.12190094 -102.54556885 95.45083313 -101.85266113 94.75942993 C-100.40627216 93.3168177 -98.95873019 91.87536071 -97.51013184 90.43496704 C-95.21169248 88.14940713 -92.91649291 85.86063672 -90.62207031 83.57104492 C-84.925614 77.88788781 -79.22370741 72.21020913 -73.52197266 66.53234863 C-68.69378244 61.7239539 -63.86768926 56.91347257 -59.04431152 52.10025024 C-56.79364201 49.8560172 -54.53995969 47.61484077 -52.28613281 45.3737793 C-50.8937308 43.98501306 -49.50147082 42.5961044 -48.109375 41.20703125 C-47.49098755 40.59381012 -46.8726001 39.98058899 -46.23547363 39.3487854 C-42.51951778 35.63327468 -39.00373561 31.79456325 -35.57993031 27.80788326 C-33.14136081 25.01747602 -30.54264859 22.39930373 -27.91796875 19.78515625 C-27.37771561 19.24394638 -26.83746246 18.70273651 -26.28083801 18.14512634 C-25.15532971 17.01894541 -24.02858943 15.89399439 -22.90063477 14.77026367 C-21.17019863 13.04525287 -19.4452551 11.31487572 -17.72070312 9.58398438 C-16.62011271 8.48405367 -15.51921272 7.38443262 -14.41796875 6.28515625 C-13.90340622 5.76856949 -13.38884369 5.25198273 -12.85868835 4.71974182 C-8.5183118 0.40800133 -6.25514576 -0.80711558 0 0 Z " fill="#818080" transform="translate(1247,1006)"/>
<path d="M0 0 C2.25 0.125 2.25 0.125 3.25 1.125 C3.29063832 2.79117115 3.292721 4.45888095 3.25 6.125 C5.56 6.125 7.87 6.125 10.25 6.125 C11.60439668 8.83379335 11.31501451 11.13433268 11.25 14.125 C13.56 14.125 15.87 14.125 18.25 14.125 C18.745 17.095 18.745 17.095 19.25 20.125 C20.9 20.455 22.55 20.785 24.25 21.125 C25.01953125 22.828125 25.01953125 22.828125 25.25 25.125 C23.44921875 27.484375 23.44921875 27.484375 20.9375 29.875 C20.11636719 30.67421875 19.29523438 31.4734375 18.44921875 32.296875 C16.25 34.125 16.25 34.125 14.25 34.125 C14.023125 34.681875 13.79625 35.23875 13.5625 35.8125 C11.89103234 38.75746684 9.69723648 40.80656544 7.25 43.125 C9.25844092 48.05480953 12.89105074 51.21903383 17.25 54.125 C17.25 54.785 17.25 55.445 17.25 56.125 C17.91 56.125 18.57 56.125 19.25 56.125 C21.375 58 21.375 58 23.25 60.125 C23.25 60.785 23.25 61.445 23.25 62.125 C24.178125 62.49625 24.178125 62.49625 25.125 62.875 C27.65358627 64.36240369 27.96839004 65.56178009 29.25 68.125 C30.5653341 68.82651152 31.90117592 69.49025925 33.25 70.125 C35.5 72.125 35.5 72.125 37.25 74.125 C37.25 74.785 37.25 75.445 37.25 76.125 C37.806875 76.351875 38.36375 76.57875 38.9375 76.8125 C41.97662564 78.53740914 44.00753345 80.44649829 46.25 83.125 C46.8125 85.625 46.8125 85.625 46.25 88.125 C44.375 90.9375 44.375 90.9375 42.25 93.125 C41.59 93.125 40.93 93.125 40.25 93.125 C40.25 93.785 40.25 94.445 40.25 95.125 C38.375 97.25 38.375 97.25 36.25 99.125 C35.59 99.125 34.93 99.125 34.25 99.125 C34.25 99.785 34.25 100.445 34.25 101.125 C33.59 101.125 32.93 101.125 32.25 101.125 C31.97795242 101.72236465 31.70590485 102.31972931 31.4256134 102.93519592 C30.27434758 105.079648 29.15862184 106.45882652 27.44018555 108.16186523 C26.87587326 108.72602646 26.31156097 109.29018768 25.73014832 109.8714447 C25.12181656 110.46945389 24.5134848 111.06746307 23.88671875 111.68359375 C23.25772171 112.30976089 22.62872467 112.93592804 21.98066711 113.58106995 C19.97093284 115.57963254 17.95436871 117.57113995 15.9375 119.5625 C14.59133705 120.89862542 13.24562882 122.23520915 11.90039062 123.57226562 C8.87129454 126.58145855 5.84007641 129.5884336 2.79721069 132.58370972 C1.34776036 134.02761372 -0.06996468 135.50316896 -1.48510742 136.98071289 C-3.75 139.125 -3.75 139.125 -6.75 140.125 C-8.5166626 138.97045898 -8.5166626 138.97045898 -10.44628906 137.18359375 C-11.1527356 136.53245605 -11.85918213 135.88131836 -12.58703613 135.21044922 C-15.99103339 131.92844182 -19.31769198 128.58190854 -22.609375 125.1875 C-24.06841955 123.70124264 -25.52807222 122.21558206 -26.98828125 120.73046875 C-29.26111681 118.41412448 -31.52981731 116.09424116 -33.78857422 113.76416016 C-35.98840982 111.4980787 -38.20353252 109.24794731 -40.421875 107 C-41.09796814 106.29496338 -41.77406128 105.58992676 -42.47064209 104.86352539 C-43.10520325 104.22535889 -43.7397644 103.58719238 -44.39355469 102.9296875 C-44.94678406 102.36233887 -45.50001343 101.79499023 -46.07000732 101.21044922 C-47.7047503 99.91435027 -47.7047503 99.91435027 -49.79547119 100.27954102 C-52.43636791 101.42189811 -53.9422907 103.34972999 -55.81152344 105.48144531 C-62.20196403 112.74501052 -62.20196403 112.74501052 -66.98046875 113.91796875 C-69.66884742 113.87971239 -72.12286683 113.68352437 -74.75 113.125 C-75.08 111.145 -75.41 109.165 -75.75 107.125 C-76.719375 106.980625 -77.68875 106.83625 -78.6875 106.6875 C-81.75 106.125 -81.75 106.125 -82.75 105.125 C-82.79080783 103.12541636 -82.79254356 101.12454746 -82.75 99.125 C-83.884375 99.145625 -85.01875 99.16625 -86.1875 99.1875 C-89.75 99.125 -89.75 99.125 -90.75 98.125 C-90.79092937 95.79202567 -90.79241723 93.45794775 -90.75 91.125 C-94.05 91.125 -97.35 91.125 -100.75 91.125 C-100.75 90.795 -100.75 90.465 -100.75 90.125 C-99.1 90.125 -97.45 90.125 -95.75 90.125 C-95.64277115 89.52430191 -95.5355423 88.92360382 -95.42506409 88.30470276 C-94.65661023 85.82345539 -93.87044135 84.95777398 -91.94897461 83.24975586 C-91.06587364 82.44895348 -91.06587364 82.44895348 -90.16493225 81.63197327 C-89.52140305 81.06119553 -88.87787384 80.49041779 -88.21484375 79.90234375 C-86.83603324 78.64824466 -85.45965529 77.39146703 -84.08544922 76.13232422 C-83.36959656 75.47641296 -82.6537439 74.82050171 -81.91619873 74.14471436 C-78.38138394 70.84893356 -74.97159593 67.43272999 -71.56640625 64.00390625 C-70.54865616 62.98108047 -70.54865616 62.98108047 -69.51034546 61.93759155 C-67.44228224 59.8563129 -65.37694695 57.77236535 -63.3125 55.6875 C-60.54599041 52.89411556 -57.7759623 50.10428542 -55.00390625 47.31640625 C-54.08648399 46.38653648 -54.08648399 46.38653648 -53.15052795 45.43788147 C-50.11709198 42.38750945 -47.03093444 39.46283299 -43.77197266 36.65356445 C-39.68493107 33.12224888 -35.90981007 29.34554697 -32.14453125 25.4765625 C-30.73546553 24.04514016 -29.32594729 22.61416316 -27.91601562 21.18359375 C-25.72584764 18.95616206 -23.53895826 16.72582425 -21.35961914 14.48779297 C-19.23446673 12.30828337 -17.0969314 10.14158089 -14.95703125 7.9765625 C-14.30797318 7.30372223 -13.6589151 6.63088196 -12.9901886 5.93765259 C-8.67811821 1.60081135 -6.14475907 0.27930723 0 0 Z " fill="#161616" transform="translate(1325.75,1167.875)"/>
<path d="M0 0 C2.625 2.4375 2.625 2.4375 4 5 C4.0625 8.0625 4.0625 8.0625 3 11 C-0.31776787 14.22809846 -3.78584123 16.80253949 -8.47050476 17.22032166 C-9.39378067 17.20683182 -10.31705658 17.19334198 -11.26831055 17.17944336 C-12.3200798 17.16960922 -13.37184906 17.15977509 -14.45549011 17.14964294 C-15.58779556 17.12990921 -16.72010101 17.11017548 -17.88671875 17.08984375 C-20.29361769 17.0694129 -22.70051883 17.04923875 -25.10742188 17.02929688 C-28.89486952 16.98589827 -32.68217137 16.93757602 -36.46948242 16.88354492 C-40.12938957 16.83503926 -43.78910522 16.80530938 -47.44921875 16.77734375 C-48.57140305 16.75558578 -49.69358734 16.73382782 -50.84977722 16.71141052 C-61.1333058 16.64704297 -68.59878303 19.55242362 -77.609375 24.2109375 C-79.2536688 25.04620824 -80.89804038 25.88132589 -82.54248047 26.71630859 C-83.39243591 27.15062195 -84.24239136 27.5849353 -85.11810303 28.03240967 C-133.17009033 52.54481812 -133.17009033 52.54481812 -156 59 C-156.87140625 59.26167969 -157.7428125 59.52335938 -158.640625 59.79296875 C-168.9223203 62.39836433 -183.4089318 63.1392841 -193.046875 58.3203125 C-197.82995248 55.08695212 -201.02989014 51.56891577 -202.25 45.8125 C-202.57399915 37.50121748 -197.54624886 30.38934653 -192.19995117 24.44165039 C-154.53489178 -14.63133006 -45.08827198 -32.83826201 0 0 Z " fill="#778EA0" transform="translate(1108,785)"/>
<path d="M0 0 C1.11812749 0.95089561 2.23519044 1.90304306 3.35180664 2.85571289 C4.2850753 3.65085045 4.2850753 3.65085045 5.23719788 4.46205139 C8.15150699 7.00462698 10.80457457 9.78535862 13.49609375 12.55859375 C15.44495163 14.45880619 17.4075029 16.23279664 19.46875 18.00390625 C24.93759093 22.75839221 30.16155978 27.75740754 35.33959961 32.82470703 C36.49651024 33.94964975 37.66139068 35.06644905 38.83374023 36.17529297 C40.54537973 37.79589539 42.22951566 39.44109568 43.91015625 41.09375 C44.43706558 41.5825061 44.96397491 42.07126221 45.5068512 42.5748291 C46.94555664 44.02148438 46.94555664 44.02148438 49 47 C48.91061178 50.96937057 48.18818761 54.26184062 46.3984375 57.796875 C46.07713867 58.43971436 45.75583984 59.08255371 45.42480469 59.74487305 C45.07836914 60.40656494 44.73193359 61.06825684 44.375 61.75 C43.83214355 62.80151245 43.83214355 62.80151245 43.27832031 63.87426758 C31.25694382 86.85026827 11.81568039 107.47664001 -13.15234375 116.18359375 C-16.87988157 117.25225686 -19.1838476 117.79503175 -23 117 C-24.74314052 115.38028203 -26.36263395 113.72327055 -28 112 C-29.44046571 110.55294068 -30.88462356 109.10955258 -32.33129883 107.66870117 C-44.55419922 95.44580078 -56.77709961 83.22290039 -69 71 C-67.72113231 68.19612942 -66.39618952 66.14751465 -64.21591187 63.97540283 C-63.36616539 63.12153236 -63.36616539 63.12153236 -62.49925232 62.25041199 C-61.57028893 61.33223442 -61.57028893 61.33223442 -60.62255859 60.39550781 C-59.96877731 59.74143448 -59.31499603 59.08736115 -58.6414032 58.41346741 C-56.48178862 56.25524486 -54.3151788 54.10419064 -52.1484375 51.953125 C-50.64870384 50.45712191 -49.14941147 48.96067631 -47.65054321 47.46380615 C-43.70610188 43.52699775 -39.75569106 39.59623266 -35.80401611 35.66668701 C-31.77197847 31.65511502 -27.74560286 27.63786906 -23.71875 23.62109375 C-15.81803787 15.74182555 -7.9110091 7.86892875 0 0 Z " fill="#818080" transform="translate(1250,1117)"/>
<path d="M0 0 C27.72 0 55.44 0 84 0 C84 25.08 84 50.16 84 76 C56.28 76 28.56 76 0 76 C0 50.92 0 25.84 0 0 Z " fill="#818080" transform="translate(1274,851)"/>
<path d="M0 0 C27.72 0 55.44 0 84 0 C84 24.75 84 49.5 84 75 C56.28 75 28.56 75 0 75 C0 50.25 0 25.5 0 0 Z " fill="#818080" transform="translate(749,774)"/>
<path d="M0 0 C27.39 0 54.78 0 83 0 C83 24.42 83 48.84 83 74 C55.61 74 28.22 74 0 74 C0 49.58 0 25.16 0 0 Z " fill="#818080" transform="translate(1274,774)"/>
<path d="M0 0 C27.72 0 55.44 0 84 0 C84 24.09 84 48.18 84 73 C56.28 73 28.56 73 0 73 C0 48.91 0 24.82 0 0 Z " fill="#818080" transform="translate(749,853)"/>
<path d="M0 0 C3.55265581 1.34925025 5.89055011 2.52299544 8.55078125 5.2578125 C9.16630859 5.88300781 9.78183594 6.50820312 10.41601562 7.15234375 C11.04185547 7.80332031 11.66769531 8.45429687 12.3125 9.125 C12.95767578 9.78371094 13.60285156 10.44242188 14.26757812 11.12109375 C15.85207478 12.74080144 17.42912099 14.36710005 19 16 C15.9996895 20.6368435 13.062254 24.29098548 9 28 C8.34 28 7.68 28 7 28 C6.34 29.32 5.68 30.64 5 32 C4.34 32 3.68 32 3 32 C2.79375 32.53625 2.5875 33.0725 2.375 33.625 C0.46749574 36.91978009 -2.04819384 39.59363628 -5 42 C-5.66 42 -6.32 42 -7 42 C-7.25974609 42.58426758 -7.51949219 43.16853516 -7.78710938 43.77050781 C-9.084656 46.15561164 -10.49341122 47.75190637 -12.40625 49.671875 C-13.39818359 50.66767578 -13.39818359 50.66767578 -14.41015625 51.68359375 C-15.09980469 52.36550781 -15.78945312 53.04742188 -16.5 53.75 C-17.18964844 54.44738281 -17.87929687 55.14476562 -18.58984375 55.86328125 C-19.25113281 56.52199219 -19.91242188 57.18070313 -20.59375 57.859375 C-21.19896484 58.46233398 -21.80417969 59.06529297 -22.42773438 59.68652344 C-24 61 -24 61 -26 61 C-26.20625 61.556875 -26.4125 62.11375 -26.625 62.6875 C-28.17141577 65.28829016 -30.07183562 66.84784486 -32.421875 68.71875 C-36.84919375 72.31320681 -40.38818919 76.62780797 -44 81 C-45.6875 82.875 -45.6875 82.875 -47 84 C-47.66 84 -48.32 84 -49 84 C-49.20367188 84.52980469 -49.40734375 85.05960938 -49.6171875 85.60546875 C-51.60076257 89.04030355 -54.3015155 91.5526075 -57.125 94.3125 C-57.71539063 94.89644531 -58.30578125 95.48039062 -58.9140625 96.08203125 C-62.44336559 99.54941674 -66.06359504 102.85261071 -69.83203125 106.05859375 C-72.88512991 108.79262985 -75.78515145 111.66988 -78.6875 114.5625 C-79.23470703 115.10519531 -79.78191406 115.64789062 -80.34570312 116.20703125 C-82.92912175 118.79988989 -85.3954837 121.42086243 -87.71484375 124.25390625 C-89.77972382 126.73529205 -91.91654851 128.60815586 -94.42649841 130.61633301 C-96.15186318 132.1335417 -97.57136289 133.7561333 -99.05102539 135.51367188 C-103.55873642 140.72424293 -108.42525667 145.55012206 -113.30859375 150.40625 C-114.2853001 151.38108645 -115.26178234 152.35614749 -116.23805237 153.3314209 C-118.78227461 155.87186301 -121.32948736 158.40928509 -123.87738037 160.94604492 C-126.48715882 163.54551127 -129.09403482 166.14788494 -131.70117188 168.75 C-136.79797872 173.83614918 -141.89795508 178.9191047 -147 184 C-150.11966041 182.51136264 -152.24012613 180.99711308 -154.671875 178.5234375 C-155.66767578 177.51796875 -155.66767578 177.51796875 -156.68359375 176.4921875 C-157.70646484 175.44417969 -157.70646484 175.44417969 -158.75 174.375 C-159.44738281 173.66859375 -160.14476562 172.9621875 -160.86328125 172.234375 C-162.58012488 170.49401297 -164.29211832 168.74915019 -166 167 C-164.49634599 163.48316644 -162.46566858 161.21776358 -159.76904297 158.52612305 C-158.89408173 157.64808517 -158.01912048 156.7700473 -157.11764526 155.86540222 C-156.15933607 154.91399636 -155.20084549 153.96277316 -154.2421875 153.01171875 C-153.25493461 152.02565957 -152.26805286 151.03922867 -151.28152466 150.05244446 C-149.21159502 147.98407803 -147.13835479 145.9191089 -145.0625 143.85668945 C-142.42163291 141.23271145 -139.78729446 138.60230084 -137.15524101 135.96948528 C-135.11529634 133.92981483 -133.07273752 131.89277889 -131.02933121 129.85657692 C-130.0584707 128.88886706 -129.08818695 127.92057816 -128.11852646 126.95166588 C-123.08101915 121.92229055 -118.01479453 117.00427859 -112.57424927 112.41023254 C-110.82260864 110.91903022 -110.82260864 110.91903022 -109 108.5 C-107.24840082 106.31050103 -105.624504 104.75655676 -103.49975586 102.96141052 C-98.43612064 98.57454552 -93.72995166 93.86242039 -89.00390625 89.11743164 C-88.0275843 88.14082697 -87.05104082 87.16444372 -86.07429504 86.18826294 C-83.44657671 83.56082929 -80.82193395 80.9303433 -78.19786835 78.29926229 C-75.44638234 75.54148767 -72.69202824 72.78658051 -69.93798828 70.03135681 C-64.7336369 64.82390826 -59.53183797 59.61391787 -54.33097076 54.4029898 C-48.40543996 48.46624752 -42.47703953 42.53237434 -36.5484066 36.59873021 C-24.36242798 24.40232378 -12.18002457 12.20235244 0 0 Z " fill="#131313" transform="translate(1279,1048)"/>
<path d="M0 0 C0.66 0 1.32 0 2 0 C2 65.67 2 131.34 2 199 C-26.71 199.495 -26.71 199.495 -56 200 C-62.05670046 201.29529335 -62.05670046 201.29529335 -68 203 C-67 200 -67 200 -64.67578125 198.171875 C-23.64162249 164.86531694 -7.09746455 63.25234162 -1 13 C-0.60421975 8.67007181 -0.27607404 4.33912536 0 0 Z " fill="#2C4356" transform="translate(1269,752)"/>
<path d="M0 0 C10.88356835 5.21300419 19.69607641 16.57413882 28.125 25.0625 C29.37997204 26.32250102 30.63517886 27.58226824 31.890625 28.84179688 C34.92979084 31.89184853 37.96578227 34.9450262 41 38 C36.50093607 44.47062177 31.30673263 49.94318441 25.69921875 55.4609375 C24.38374809 56.7686058 24.38374809 56.7686058 23.04170227 58.10269165 C20.26172241 60.86496956 17.47509552 63.62040946 14.6875 66.375 C11.8824382 69.15136889 9.07992353 71.93028915 6.27973938 74.71157837 C4.54190796 76.43713954 2.80141059 78.16002069 1.05802917 79.87997437 C0.27664078 80.65483185 -0.50474762 81.42968933 -1.30981445 82.22802734 C-2.00009232 82.91005219 -2.69037018 83.59207703 -3.40156555 84.29476929 C-5.0806618 85.92348112 -5.0806618 85.92348112 -6 88 C-9.22745524 86.58098338 -11.37258107 84.87144235 -13.85058594 82.37646484 C-14.59105164 81.63584808 -15.33151733 80.89523132 -16.09442139 80.13217163 C-17.27744843 78.93366074 -17.27744843 78.93366074 -18.484375 77.7109375 C-19.29996887 76.89251373 -20.11556274 76.07408997 -20.95587158 75.23086548 C-23.55864562 72.61690027 -26.15437762 69.99606495 -28.75 67.375 C-30.5138634 65.60110546 -32.2781809 63.82766234 -34.04296875 62.0546875 C-38.36726136 57.70834858 -42.6857933 53.35634919 -47 49 C-45.4819272 45.4252101 -43.38425289 43.14188276 -40.64208984 40.41503906 C-39.74130707 39.51440735 -38.84052429 38.61377563 -37.91244507 37.68585205 C-36.92871592 36.71233519 -35.9448775 35.73892875 -34.9609375 34.765625 C-33.95444872 33.76286839 -32.94840211 32.75966778 -31.94277954 31.75604248 C-29.30037853 29.12126187 -26.65202572 26.49254389 -24.00238037 23.86505127 C-21.29743948 21.18060312 -18.59818179 18.49045378 -15.8984375 15.80078125 C-10.60449826 10.52826382 -5.30425717 5.26213943 0 0 Z " fill="#828181" transform="translate(1327,1215)"/>
<path d="M0 0 C3.4882431 1.50756889 5.8470659 3.53413442 8.58496094 6.15161133 C9.48559265 7.01043411 10.38622437 7.8692569 11.31414795 8.75410461 C15.40348167 12.70520275 19.47269679 16.67667396 23.52783203 20.6628418 C25.66624621 22.76121806 27.8213469 24.83981547 29.99365234 26.90307617 C32.6277045 29.40515267 35.22774652 31.93836007 37.80756378 34.49628258 C38.7900638 35.45993985 39.78359316 36.41249599 40.78844452 37.35282326 C48.56338548 44.6540889 48.56338548 44.6540889 49.6348877 50.41122437 C49.75931589 60.74756128 47.30090038 69.47786022 40 77 C34.19631198 81.43283897 28.49651996 82.14137131 21.375 82.125 C20.24835938 82.12757812 19.12171875 82.13015625 17.9609375 82.1328125 C14.71616954 81.98726882 12.7554038 81.76443165 10.42956543 79.41079712 C9.60494812 78.41395401 9.60494812 78.41395401 8.76367188 77.39697266 C5.27533703 73.28813648 1.5972053 69.4519341 -2.21875 65.6484375 C-2.88032104 64.98590973 -3.54189209 64.32338196 -4.22351074 63.64077759 C-5.61050769 62.25310567 -6.998746 60.86667347 -8.38818359 59.48144531 C-10.4982256 57.37676989 -12.60286153 55.26679451 -14.70703125 53.15625 C-16.06478361 51.79915838 -17.4228461 50.44237695 -18.78125 49.0859375 C-19.40124878 48.46391449 -20.02124756 47.84189148 -20.66003418 47.20101929 C-24.61934412 43.26259628 -28.72080307 39.5890702 -33 36 C-32.4165115 32.62704442 -31.36898894 30.99994201 -28.94897461 28.60839844 C-28.30838608 27.9680365 -27.66779755 27.32767456 -27.00779724 26.66790771 C-26.31299759 25.98859192 -25.61819794 25.30927612 -24.90234375 24.609375 C-24.19348526 23.90476135 -23.48462677 23.20014771 -22.75428772 22.47418213 C-20.4889672 20.22565215 -18.21343792 17.98777762 -15.9375 15.75 C-14.39970665 14.22725292 -12.86258869 12.70382346 -11.32617188 11.1796875 C-7.55858198 7.4451719 -3.78255735 3.7193515 0 0 Z " fill="#818080" transform="translate(1287,1080)"/>
<path d="M0 0 C3.49568101 1.50963383 5.85776973 3.54460687 8.60083008 6.16748047 C9.50468948 7.02953094 10.40854889 7.89158142 11.33979797 8.77975464 C15.43882214 12.74068616 19.51785301 16.7218617 23.58276367 20.71777344 C25.72803123 22.82295849 27.89000911 24.90836256 30.0690918 26.97851562 C32.70950849 29.48718477 35.31613338 32.02678009 37.90244102 34.59115982 C38.88857506 35.55841665 39.88576245 36.51454531 40.89417458 37.45855331 C48.70551439 44.79646531 48.70551439 44.79646531 49.42318726 50.16656494 C48.76114574 59.70869135 45.63191134 68.35223797 38.9609375 75.3046875 C32.66757218 80.74556509 25.84995339 81.79831057 17.66741943 81.68383789 C10.84679697 80.41204442 6.87476697 75.59118247 2.3515625 70.71875 C1.32093294 69.66195376 0.28712781 68.60824612 -0.74966431 67.55749512 C-3.44838477 64.80574109 -6.10238295 62.0146288 -8.74871826 59.21258545 C-11.46517045 56.35197625 -14.22254343 53.53140626 -16.9765625 50.70703125 C-22.35815531 45.17604254 -27.69305761 39.6027574 -33 34 C-29.03627475 29.24914133 -24.90205218 24.76386888 -20.5078125 20.41015625 C-19.91700897 19.82076767 -19.32620544 19.23137909 -18.71749878 18.62413025 C-16.85569596 16.76786273 -14.99042255 14.91512915 -13.125 13.0625 C-11.85132989 11.79385328 -10.57789029 10.5249751 -9.3046875 9.25585938 C-6.20577957 6.16789446 -3.10375699 3.08309071 0 0 Z " fill="#818080" transform="translate(1177,1190)"/>
<path d="M0 0 C27.72 0 55.44 0 84 0 C84 10.23 84 20.46 84 31 C56.28 31 28.56 31 0 31 C0 20.77 0 10.54 0 0 Z " fill="#818080" transform="translate(749,929)"/>
<path d="M0 0 C27.72 0 55.44 0 84 0 C84 9.9 84 19.8 84 30 C56.28 30 28.56 30 0 30 C0 20.1 0 10.2 0 0 Z " fill="#818080" transform="translate(1274,930)"/>
<path d="M0 0 C10.80458457 -0.02255075 21.60915363 -0.04091493 32.41375637 -0.05181217 C37.4302247 -0.05704107 42.44667615 -0.06413883 47.46313477 -0.07543945 C52.30009694 -0.0862681 57.13704284 -0.09227679 61.97401619 -0.09487724 C63.82368285 -0.09673153 65.67334857 -0.10035222 67.52300835 -0.10573006 C70.10447014 -0.1129402 72.68586382 -0.11399095 75.26733398 -0.11352539 C76.03985001 -0.11712067 76.81236603 -0.12071594 77.60829163 -0.12442017 C82.88594784 -0.11405216 82.88594784 -0.11405216 84 1 C84 10.24 84 19.48 84 29 C56.28 29 28.56 29 0 29 C0 19.43 0 9.86 0 0 Z " fill="#5B5A5A" transform="translate(749,741)"/>
<path d="M0 0 C27.67747576 -0.14800789 55.32951712 0.42566826 83 1 C83 10.24 83 19.48 83 29 C55.61 29 28.22 29 0 29 C0 19.43 0 9.86 0 0 Z " fill="#818080" transform="translate(1274,741)"/>
<path d="M0 0 C11.88 0 23.76 0 36 0 C36 24.75 36 49.5 36 75 C31.38 75 26.76 75 22 75 C21.47792969 72.78410156 20.95585938 70.56820312 20.41796875 68.28515625 C15.61627033 48.19449472 9.92360572 28.63273893 3.09399414 9.13916016 C2.03557431 6.10207867 1.0170603 3.05118089 0 0 Z " fill="#5E5D5D" transform="translate(797,774)"/>
<path d="M0 0 C3.4882431 1.50756889 5.8470659 3.53413442 8.58496094 6.15161133 C9.48559265 7.01043411 10.38622437 7.8692569 11.31414795 8.75410461 C15.40348167 12.70520275 19.47269679 16.67667396 23.52783203 20.6628418 C25.66624621 22.76121806 27.8213469 24.83981547 29.99365234 26.90307617 C32.6277045 29.40515267 35.22774652 31.93836007 37.80756378 34.49628258 C38.7900638 35.45993985 39.78359316 36.41249599 40.78844452 37.35282326 C48.56338548 44.6540889 48.56338548 44.6540889 49.6348877 50.41122437 C49.75931589 60.74756128 47.30090038 69.47786022 40 77 C34.19631198 81.43283897 28.49651996 82.14137131 21.375 82.125 C20.24835938 82.12757812 19.12171875 82.13015625 17.9609375 82.1328125 C15 82 15 82 12 81 C10.8125 78.4375 10.8125 78.4375 10 76 C11.26953125 74.53515625 12.5390625 73.0703125 13.80859375 71.60546875 C19.03109225 64.56793799 16.76287617 49.01256527 15.71582031 40.76025391 C14.92871822 36.66120349 13.5637083 32.85897604 12 29 C11.73735352 28.35095703 11.47470703 27.70191406 11.20410156 27.03320312 C8.11029383 19.48473751 4.69870347 12.11236886 0.84765625 4.91796875 C0 3 0 3 0 0 Z " fill="#5E5D5D" transform="translate(1287,1080)"/>
<path d="M0 0 C0.27800477 2.96930317 0.34596465 4.50664186 -1.39552307 6.99006653 C-2.04947556 7.62989975 -2.70342804 8.26973297 -3.37719727 8.92895508 C-4.48448936 10.03083916 -4.48448936 10.03083916 -5.614151 11.15498352 C-6.42339523 11.93528427 -7.23263947 12.71558502 -8.06640625 13.51953125 C-8.89325424 14.33693283 -9.72010223 15.15433441 -10.57200623 15.99650574 C-13.22398603 18.61385401 -15.8924466 21.21360315 -18.5625 23.8125 C-21.20413058 26.40396541 -23.84221005 28.99896633 -26.47801208 31.59635925 C-28.11895412 33.21117104 -29.7638141 34.8220146 -31.41322327 36.42817688 C-35.5216639 40.44899719 -39.40438848 44.55638407 -43.14958191 48.91532898 C-46.86686741 53.10320274 -50.87312526 57.01505915 -54.8359375 60.96875 C-55.75589508 61.88966431 -56.67585266 62.81057861 -57.62368774 63.75939941 C-59.55333548 65.69050868 -61.48474845 67.61982933 -63.41748047 69.54785156 C-65.8991993 72.02381758 -68.37632554 74.5043227 -70.85219383 76.98613739 C-73.21935736 79.3577637 -75.59030139 81.72559475 -77.9609375 84.09375 C-78.85251556 84.98735229 -79.74409363 85.88095459 -80.66268921 86.80163574 C-81.48089142 87.61668579 -82.29909363 88.43173584 -83.14208984 89.27148438 C-83.86488129 89.99348022 -84.58767273 90.71547607 -85.33236694 91.45935059 C-87 93 -87 93 -88 93 C-88 91.02 -88 89.04 -88 87 C-90.64 87 -93.28 87 -96 87 C-94.43403125 82.97448049 -91.58776216 80.5847921 -88.42578125 77.80078125 C-83.06212706 72.96403933 -77.8853635 67.97681812 -72.79296875 62.85546875 C-71.73953781 61.79708298 -71.73953781 61.79708298 -70.66482544 60.71731567 C-68.50371267 58.54268846 -66.34517074 56.36554214 -64.1875 54.1875 C-61.30899632 51.28215117 -58.42700481 48.38032469 -55.54296875 45.48046875 C-54.90320602 44.83240768 -54.2634433 44.18434662 -53.60429382 43.51664734 C-50.49565965 40.39140069 -47.34027982 37.38931197 -43.99731445 34.51489258 C-39.91663158 30.99152969 -36.21058198 27.18741136 -32.5 23.28125 C-31.10539045 21.83996068 -29.70951999 20.39989054 -28.3125 18.9609375 C-26.14169872 16.722052 -23.97879751 14.47758239 -21.8359375 12.21191406 C-19.74464817 10.00560382 -17.62579209 7.82926792 -15.5 5.65625 C-14.86642578 4.97308716 -14.23285156 4.28992432 -13.58007812 3.58605957 C-8.8933925 -1.13044036 -6.46065399 -1.6759108 0 0 Z " fill="#999898" transform="translate(1326,1170)"/>
<path d="M0 0 C3.34625024 2.52676039 4.67977847 4.03933542 6 8 C6.49591967 14.91188042 4.92076234 20.64463647 3 27.25 C0.17636914 37.47220735 -1.33627231 46.48677459 1 57 C-0.5625 58.25 -0.5625 58.25 -3 59 C-10.78880302 55.68254686 -15.69125224 49.69027637 -19.1875 42.0859375 C-23.36971276 31.34891052 -23.17879315 20.33808249 -19.2109375 9.57421875 C-15.37280536 1.41509269 -8.69578681 -1.38688785 0 0 Z " fill="#778EA0" transform="translate(1187,933)"/>
<path d="M0 0 C0.4302691 3.06566736 0.67554803 5.03482158 0 8 C-1.51250553 9.68171024 -1.51250553 9.68171024 -3.52223206 11.27442932 C-7.99147608 14.96678148 -12.06201283 18.93458374 -16.14428711 23.04663086 C-16.9143811 23.81818512 -17.6844751 24.58973938 -18.47790527 25.38467407 C-20.1349768 27.04552654 -21.79089301 28.70753236 -23.4457531 30.3705883 C-26.06126301 32.99892941 -28.67994369 35.62407429 -31.29945374 38.24842834 C-36.84828768 43.80864486 -42.39318077 49.37278228 -47.9375 54.9375 C-54.38724491 61.41089957 -60.8386704 67.8826115 -67.2942524 74.35019112 C-69.88057559 76.94302082 -72.4638835 79.53882986 -75.04710388 82.13475037 C-76.61841428 83.70969005 -78.18986343 85.28449132 -79.76147461 86.85913086 C-80.48401932 87.58684189 -81.20656403 88.31455292 -81.95100403 89.0643158 C-82.93280136 90.04621887 -82.93280136 90.04621887 -83.93443298 91.04795837 C-84.50569381 91.62143981 -85.07695463 92.19492125 -85.66552639 92.78578091 C-87 94 -87 94 -88 94 C-88 92.35 -88 90.7 -88 89 C-89.98 89 -91.96 89 -94 89 C-89.32481266 83.33780168 -84.27389766 78.15309382 -79.06056404 72.98539925 C-77.5644852 71.50227238 -76.07171765 70.01587962 -74.57969666 68.52867126 C-70.87498237 64.83721287 -67.16481712 61.15124915 -63.45477295 57.46514893 C-60.31113594 54.34138184 -57.1696516 51.21547854 -54.03088188 48.0868206 C-52.57352839 46.63586006 -51.11315397 45.18799054 -49.65260315 43.74024963 C-45.130396 39.23462058 -40.7509291 34.68319864 -36.59495544 29.83763123 C-32.25166817 24.83350378 -27.53956134 20.15441921 -22.89355469 15.43359375 C-21.62400564 14.13720019 -20.36167895 12.83369685 -19.10644531 11.5234375 C-17.27510428 9.61313475 -15.42190583 7.72669739 -13.5625 5.84375 C-13.00812256 5.25638062 -12.45374512 4.66901123 -11.88256836 4.06384277 C-8.01559557 0.2162889 -5.66323089 -0.6694211 0 0 Z " fill="#999898" transform="translate(1334,1176)"/>
<path d="M0 0 C29.205 0.495 29.205 0.495 59 1 C59 10.24 59 19.48 59 29 C48.44 29 37.88 29 27 29 C27 26.36 27 23.72 27 21 C22.14814783 10.41414071 10.14478143 5.19784059 0 1 C0 0.67 0 0.34 0 0 Z " fill="#5E5D5D" transform="translate(1298,741)"/>
<path d="M0 0 C6.249375 -0.1546875 6.249375 -0.1546875 12.625 -0.3125 C13.92775879 -0.35802002 15.23051758 -0.40354004 16.57275391 -0.45043945 C26.13667446 -0.56519465 26.13667446 -0.56519465 29.5859375 2.23828125 C30.38257813 3.14964844 31.17921875 4.06101562 32 5 C32.70125 5.7321875 33.4025 6.464375 34.125 7.21875 C39.75895319 14.07339305 42.04822431 19.43781935 46 28 C30.82 28 15.64 28 0 28 C0 18.76 0 9.52 0 0 Z " fill="#818080" transform="translate(749,742)"/>
<path d="M0 0 C8.91 0 17.82 0 27 0 C27 24.42 27 48.84 27 74 C23.37 74 19.74 74 16 74 C14.8129882 70.43896461 15.34927473 68.66692486 16 65 C17.24983706 44.18540589 13.81291339 22.99268788 3 5 C2.01 3.35 1.02 1.7 0 0 Z " fill="#5E5D5D" transform="translate(1330,774)"/>
<path d="M0 0 C0.25088012 2.88065129 0.34979844 4.48288117 -1.29789257 6.91871834 C-1.91084336 7.5296578 -2.52379416 8.14059727 -3.15531921 8.77005005 C-3.85488235 9.47937683 -4.5544455 10.18870361 -5.27520752 10.91952515 C-6.44161774 12.06368393 -6.44161774 12.06368393 -7.6315918 13.23095703 C-8.44286026 14.04616821 -9.25412872 14.86137939 -10.08998108 15.70129395 C-12.78106671 18.39910467 -15.4897023 21.07852291 -18.19921875 23.7578125 C-20.07148763 25.62583227 -21.942798 27.49481319 -23.81318665 29.36471558 C-27.73842009 33.28531995 -31.67303966 37.19629564 -35.61401367 41.10107422 C-40.16523377 45.61060388 -44.7043103 50.1320585 -49.23638409 54.66082489 C-53.60001176 59.02119445 -57.96953478 63.37559172 -62.34232521 67.72677231 C-64.20092593 69.57649148 -66.05845393 71.42728916 -67.9148922 73.27917862 C-70.51199686 75.86723839 -73.11566031 78.44850608 -75.72143555 81.02783203 C-76.87266403 82.17806351 -76.87266403 82.17806351 -78.04714966 83.35153198 C-81.48770095 86.74399338 -84.63886026 89.79645486 -89 92 C-89 90.68 -89 89.36 -89 88 C-90.65 88 -92.3 88 -94 88 C-94 87.34 -94 86.68 -94 86 C-92.51739693 84.5374012 -92.51739693 84.5374012 -90.47537231 82.8442688 C-86.24351951 79.24299809 -82.30611221 75.43468319 -78.39404297 71.49169922 C-77.68074829 70.77694427 -76.96745361 70.06218933 -76.23254395 69.32577515 C-74.69825682 67.78770914 -73.16512499 66.24848996 -71.63305283 64.70821762 C-69.20521198 62.26751612 -66.77417602 59.83003725 -64.34231567 57.39334106 C-59.1837221 52.22336996 -54.02907641 47.04947387 -48.875 41.875 C-42.89223984 35.86859806 -36.90785032 29.8638385 -30.91922379 23.86328506 C-28.52976866 21.46737025 -26.14335624 19.06845311 -23.75704956 16.66940308 C-22.28723775 15.19595759 -20.81728471 13.72265296 -19.34716797 12.24951172 C-18.36044601 11.25504028 -18.36044601 11.25504028 -17.35379028 10.24047852 C-6.35769495 -0.75686845 -6.35769495 -0.75686845 0 0 Z " fill="#979696" transform="translate(1342,1184)"/>
<path d="M0 0 C2.49804654 1.23313239 4.96725353 2.50838581 7.43359375 3.8046875 C20.7814602 10.75830626 34.32762619 16.99660121 49.7421875 13.3515625 C51.8715771 12.64642037 53.92138134 11.8392749 56 11 C57.3280013 10.64602056 58.66027758 10.30664758 60 10 C58.46728453 13.65031725 56.27846123 15.93939751 53.46484375 18.6953125 C52.57345703 19.57574219 51.68207031 20.45617188 50.76367188 21.36328125 C49.83103516 22.27464844 48.89839844 23.18601562 47.9375 24.125 C46.09027833 25.93789615 44.24511579 27.75289358 42.40234375 29.5703125 C41.58241943 30.37227051 40.76249512 31.17422852 39.91772461 32.00048828 C37.9485366 33.85596361 37.9485366 33.85596361 37 36 C33.96167743 34.64052727 31.86255442 33.11126454 29.51660156 30.75952148 C28.85621887 30.10221542 28.19583618 29.44490936 27.51544189 28.76768494 C26.81425232 28.05930984 26.11306274 27.35093475 25.390625 26.62109375 C24.66381531 25.89382584 23.93700562 25.16655792 23.18817139 24.41725159 C21.6561141 22.88217714 20.12648406 21.3446769 18.59912109 19.80493164 C16.25021599 17.43771767 13.89335453 15.07865581 11.53515625 12.72070312 C10.04900526 11.22963886 8.56331205 9.73811816 7.078125 8.24609375 C6.3688385 7.53569443 5.659552 6.8252951 4.92877197 6.09336853 C4.28099792 5.43921463 3.63322388 4.78506073 2.96582031 4.11108398 C2.39164368 3.53309555 1.81746704 2.95510712 1.22589111 2.35960388 C0 1 0 1 0 0 Z " fill="#5E5D5D" transform="translate(1284,1267)"/>
<path d="M0 0 C1.4375 1.875 1.4375 1.875 1.9375 4.75 C1.31309109 8.65255567 0.15141713 10.01941019 -2.5625 12.875 C-5.76953125 14.68359375 -5.76953125 14.68359375 -9.375 16.3125 C-13.50014606 18.23381545 -17.21310317 20.11135174 -20.5625 23.25 C-23.74121289 26.03137378 -25.3682614 26.875 -29.5625 26.875 C-31.93410148 24.50339852 -31.88233352 23.86878878 -31.9375 20.625 C-31.76193809 14.83145704 -29.59023081 11.91838897 -25.5390625 7.8359375 C-18.39298876 1.1288717 -9.96710657 -4.37580289 0 0 Z " fill="#778EA0" transform="translate(904.5625,790.125)"/>
<path d="M0 0 C0.82455688 0.15106705 1.64911377 0.30213409 2.49865723 0.45777893 C-1.37169463 5.08444081 -5.38258857 9.48454714 -9.65515137 13.74098206 C-10.23814499 14.325728 -10.82113861 14.91047394 -11.42179871 15.51293945 C-13.32863757 17.42413989 -15.23906422 19.3317053 -17.14978027 21.23902893 C-18.48982074 22.57974417 -19.82971283 23.92060772 -21.16946411 25.26161194 C-23.97020031 28.06381749 -26.77272419 30.86421936 -29.57653809 33.66334534 C-33.15278213 37.23389812 -36.72452471 40.80891475 -40.2949276 44.38530731 C-43.05906755 47.15307823 -45.82560642 49.91844145 -48.59285355 52.68310547 C-49.90996112 53.99955049 -51.22633885 55.31672618 -52.5419426 56.63467407 C-64.99742412 69.1074763 -64.99742412 69.1074763 -70.90367126 74.06655884 C-74.46180749 77.16491202 -77.63725181 80.71085259 -80.8314209 84.17848206 C-84.872402 88.37544795 -84.872402 88.37544795 -88.39587402 88.83668518 C-89.09067871 88.71164612 -89.7854834 88.58660706 -90.50134277 88.45777893 C-86.0491675 83.13793628 -81.36416325 78.15106606 -76.4798584 73.22755432 C-75.69858078 72.43649292 -74.91730316 71.64543152 -74.11235046 70.83039856 C-71.54726003 68.23559039 -68.9780943 65.64488264 -66.40759277 63.05543518 C-65.08662346 61.72460813 -65.08662346 61.72460813 -63.7389679 60.36689568 C-60.04019534 56.6423075 -56.34026132 52.91888445 -52.6361618 49.19959354 C-47.34481538 43.88627778 -42.06383067 38.56310199 -36.79623842 33.22623259 C-32.6315616 29.00866111 -28.45056426 24.80752177 -24.26371765 20.61195183 C-22.48835657 18.82801421 -20.71814766 17.03893395 -18.95320129 15.24469185 C-16.49021315 12.74300002 -14.00917411 10.2606886 -11.52282715 7.78224182 C-10.79641525 7.03582932 -10.07000336 6.28941681 -9.32157898 5.52038574 C-4.29056052 0.56096427 -4.29056052 0.56096427 0 0 Z " fill="#999898" transform="translate(1345.5013427734375,1190.542221069336)"/>
<path d="M0 0 C4.29 0 8.58 0 13 0 C13 24.09 13 48.18 13 73 C12.01 73 11.02 73 10 73 C9.90501221 72.06655762 9.81002441 71.13311523 9.7121582 70.17138672 C7.63283052 49.90757438 5.0550759 29.86954684 1.48681641 9.81005859 C0.9214938 6.54683734 0.43609711 3.282709 0 0 Z " fill="#5E5D5D" transform="translate(820,853)"/>
<path d="M0 0 C1.20917163 0.82320163 2.39199254 1.68519206 3.5625 2.5625 C4.22378906 3.03816406 4.88507813 3.51382812 5.56640625 4.00390625 C7 6 7 6 6.94140625 9.23046875 C5.89069595 13.43766973 4.37698213 16.92621414 2.375 20.75 C2.0130957 21.4510083 1.65119141 22.1520166 1.27832031 22.87426758 C-9.43814839 43.35624752 -27.65283699 65.44073509 -50.375 73.0625 C-51.57125 73.371875 -52.7675 73.68125 -54 74 C-54 73.34 -54 72.68 -54 72 C-51.875 70.484375 -51.875 70.484375 -49 68.75 C-44.11405466 65.71734427 -39.48698549 62.59309385 -35 59 C-34.278125 58.47148438 -33.55625 57.94296875 -32.8125 57.3984375 C-17.32611355 45.01951675 -2.75068148 21.65009811 -0.15625 1.80859375 C-0.1046875 1.21175781 -0.053125 0.61492187 0 0 Z " fill="#5D5C5C" transform="translate(1292,1158)"/>
<path d="M0 0 C6.27415625 4.38670261 13.55544642 11.11089284 17 18 C17.25 21.5 17.25 21.5 17 25 C14 27 14 27 10.875 26.9375 C3.05174545 25.04477712 -2.33037878 21.60473644 -6.84765625 14.91015625 C-9.7518018 10.09616583 -10.22130355 6.64324063 -10 1 C-6.37007159 -1.37341473 -4.09552478 -1.33892156 0 0 Z " fill="#A7A6A6" transform="translate(1332,1231)"/>
<path d="M0 0 C0.69268982 0.00091141 1.38537964 0.00182281 2.09906006 0.00276184 C2.8144696 -0.00152328 3.52987915 -0.00580841 4.26696777 -0.01022339 C5.78341616 -0.01597142 7.29989212 -0.01646346 8.81634521 -0.01213074 C11.12331109 -0.00898773 13.42897319 -0.03236229 15.73577881 -0.05778503 C17.21103762 -0.06005987 18.68629985 -0.06076067 20.16156006 -0.05973816 C20.84615295 -0.06894791 21.53074585 -0.07815765 22.23608398 -0.08764648 C26.84082228 -0.04377528 29.94056571 0.981663 33.89593506 3.30354309 C33.89593506 4.62354309 33.89593506 5.94354309 33.89593506 7.30354309 C29.77218927 9.28955462 26.57079206 9.50085691 22.02093506 9.35041809 C20.70609131 9.30787903 19.39124756 9.26533997 18.03656006 9.22151184 C17.35657959 9.19363586 16.67659912 9.16575989 15.97601318 9.13703918 C13.90266742 9.05381333 11.82945816 8.99192136 9.75531006 8.93244934 C-1.8073105 8.51302095 -1.8073105 8.51302095 -6.10406494 6.30354309 C-7.04156494 4.30354309 -7.04156494 4.30354309 -7.10406494 2.30354309 C-4.66744319 -0.13307866 -3.3281113 0.04947786 0 0 Z " fill="#A7A6A6" transform="translate(764.1040649414063,947.6964569091797)"/>
<path d="M0 0 C3.96 0 7.92 0 12 0 C12 14.19 12 28.38 12 43 C11.34 43 10.68 43 10 43 C9.82984375 41.82566406 9.6596875 40.65132812 9.484375 39.44140625 C8.24991117 31.15038657 6.8956473 22.91833323 5 14.75 C4.8462793 14.07267822 4.69255859 13.39535645 4.53417969 12.69750977 C3.45348235 8.19963848 1.9107181 4.1905522 0 0 Z " fill="#5E5D5D" transform="translate(1346,851)"/>
<path d="M0 0 C1.93166016 0.01740234 1.93166016 0.01740234 3.90234375 0.03515625 C5.19269531 0.04417969 6.48304687 0.05320312 7.8125 0.0625 C8.81152344 0.07410156 9.81054688 0.08570313 10.83984375 0.09765625 C10.83984375 0.75765625 10.83984375 1.41765625 10.83984375 2.09765625 C9.38867188 3.52758789 9.38867188 3.52758789 7.37109375 5.1953125 C2.79128612 9.08956251 -1.43683337 13.26099707 -5.66015625 17.53515625 C-6.3871875 18.26669922 -7.11421875 18.99824219 -7.86328125 19.75195312 C-9.63125124 21.53155449 -11.39682003 23.31346543 -13.16015625 25.09765625 C-13.49015625 24.10765625 -13.82015625 23.11765625 -14.16015625 22.09765625 C-13.0859375 20.00390625 -13.0859375 20.00390625 -11.47265625 17.59765625 C-8.54738151 12.97844335 -6.64251911 8.42645252 -4.921875 3.25 C-3.74375024 -0.07895764 -3.73496307 0.11541913 0 0 Z " fill="#4F4E4E" transform="translate(1306.16015625,1164.90234375)"/>
<path d="M0 0 C0.99 0.33 1.98 0.66 3 1 C3.226875 1.61875 3.45375 2.2375 3.6875 2.875 C5.55985385 5.90643004 7.92313818 6.31870115 11.22265625 7.38671875 C13 8 13 8 14 9 C14.375 11.375 14.375 11.375 14 14 C12.0625 15.9375 12.0625 15.9375 9 17 C5.76783605 16.87182798 2.96837627 16.29496893 0 15 C-2.60410515 11.35425279 -2.32377253 7.37092917 -2 3 C-1.34 2.01 -0.68 1.02 0 0 Z " fill="#A7A6A6" transform="translate(1283,902)"/>
<path d="M0 0 C-17.47572816 16.10679612 -17.47572816 16.10679612 -24 21 C-23.34 16.05 -22.68 11.1 -22 6 C-20.081875 5.38125 -20.081875 5.38125 -18.125 4.75 C-13.69444412 3.29184237 -9.43494321 1.5429275 -5.1640625 -0.328125 C-3 -1 -3 -1 0 0 Z " fill="#4D4C4C" transform="translate(1251,1232)"/>
<path d="M0 0 C3.85636159 0.17139385 5.56799795 0.60122887 8.4375 3.25 C10 6 10 6 9.75 8.8125 C9.5025 9.534375 9.255 10.25625 9 11 C6.3125 11.375 6.3125 11.375 3 11 C0.66022392 9.19199121 -0.36642107 7.57412437 -2 5 C-1.8726702 2.64439872 -1.65621618 1.65621618 0 0 Z " fill="#778EA0" transform="translate(1195,994)"/>
<path d="M0 0 C3.0625 0.1875 3.0625 0.1875 5.0625 2.1875 C5.42737512 5.03352594 5.46449375 6.5739306 3.875 9 C1.50267475 10.55428206 -0.15791345 10.41287188 -2.9375 10.1875 C-3.13162181 8.70918779 -3.31762131 7.22980684 -3.5 5.75 C-3.60441406 4.92628906 -3.70882813 4.10257813 -3.81640625 3.25390625 C-3.85636719 2.57199219 -3.89632813 1.89007812 -3.9375 1.1875 C-2.9375 0.1875 -2.9375 0.1875 0 0 Z " fill="#FC2525" transform="translate(1363.9375,845.8125)"/>
<path d="M0 0 C2.9375 0.1875 2.9375 0.1875 3.9375 1.1875 C4.0625 4.6875 4.0625 4.6875 3.9375 8.1875 C2.9375 9.1875 2.9375 9.1875 0 9.375 C-3.0625 9.1875 -3.0625 9.1875 -5.0625 7.1875 C-5.3125 4.6875 -5.3125 4.6875 -5.0625 2.1875 C-3.0625 0.1875 -3.0625 0.1875 0 0 Z " fill="#FF3232" transform="translate(741.0625,848.8125)"/>
<path d="M0 0 C1.32 0.66 2.64 1.32 4 2 C3.67 3.32 3.34 4.64 3 6 C1.68 6 0.36 6 -1 6 C-1.625 4.125 -1.625 4.125 -2 2 C-1.34 1.34 -0.68 0.68 0 0 Z " fill="#A5A4A4" transform="translate(1352,1257)"/>
<path d="M0 0 C0 0.99 0 1.98 0 3 C-1 4 -1 4 -3.5625 4.0625 C-4.7690625 4.0315625 -4.7690625 4.0315625 -6 4 C-6 2.68 -6 1.36 -6 0 C-3.50907189 -1.24546405 -2.58919267 -0.7767578 0 0 Z " fill="#A6A5A5" transform="translate(812,951)"/>
</svg>
