<?xml version="1.0" encoding="UTF-8"?>
<svg version="1.1" xmlns="http://www.w3.org/2000/svg" width="123" height="1349" viewBox="890 255 123 1349">
<path d="M0 0 C0.00423194 0.60721862 0.00846388 1.21443724 0.01282406 1.84005642 C0.11599511 16.59476729 0.22461227 31.34943105 0.33933926 46.10405636 C0.39468746 53.23919451 0.44817201 60.37433767 0.49731445 67.50952148 C0.5447005 74.3889354 0.59722018 81.26829456 0.65294075 88.14764595 C0.67339959 90.77880131 0.69210668 93.40997086 0.70907402 96.04115105 C0.73304016 99.71230098 0.76310502 103.38335212 0.79467773 107.05444336 C0.8004332 108.15423523 0.80618866 109.2540271 0.81211853 110.387146 C0.82190735 111.38139084 0.83169617 112.37563568 0.84178162 113.40000916 C0.84823417 114.26925994 0.85468672 115.13851072 0.8613348 116.03410244 C0.78432526 118.00285923 0.78432526 118.00285923 2 119 C2.09436529 121.23929886 2.11742327 123.4816175 2.11352539 125.72290039 C2.11367142 126.4253035 2.11381744 127.1277066 2.1139679 127.85139465 C2.11326872 130.18351278 2.10547617 132.515552 2.09765625 134.84765625 C2.09579208 136.46048438 2.09436818 138.07331307 2.09336853 139.68614197 C2.08954323 143.93915357 2.07971285 148.19213124 2.06866455 152.44512939 C2.05845069 156.7817743 2.05387096 161.11842467 2.04882812 165.45507812 C2.03809059 173.97006769 2.02101403 182.48502963 2 191 C6.29 191 10.58 191 15 191 C15.45672344 243.75383614 14.28002009 296.49024003 13.28987158 349.23201124 C13.11434259 358.58634786 12.94104589 367.94072311 12.76930046 377.29512978 C12.75080247 378.30243146 12.75080247 378.30243146 12.73193078 379.33008267 C12.68184829 382.0574577 12.63177541 384.7848329 12.58171691 387.51220837 C12.11590213 412.88993997 11.64409835 438.26755693 11.1693446 463.64512272 C10.74835529 486.1506173 10.33238857 508.65619946 9.9206543 531.16186523 C9.814623 536.95734033 9.70858528 542.7528153 9.60249424 548.5482893 C9.58942925 549.26199797 9.57636425 549.97570665 9.56290335 550.71104286 C9.21683635 569.61147862 8.8667372 588.51183967 8.51538509 607.41217786 C8.47762684 609.44356065 8.43987036 611.47494346 8.40211646 613.50632633 C8.37707963 614.85344484 8.35203993 616.20056329 8.32699733 617.54768169 C8.14046491 627.58411183 7.95599219 637.62057841 7.77249336 647.65706444 C7.56441651 659.03414637 7.35320873 670.41116507 7.13797326 681.78811391 C7.02832766 687.58768488 6.92007624 693.38727294 6.81558418 699.18693924 C6.71997153 704.49146283 6.62035477 709.7958954 6.5175091 715.10028354 C6.48098124 717.02057158 6.44592612 718.9408883 6.41247661 720.86123242 C6.36686166 723.46738302 6.31590594 726.0733767 6.26360416 728.67940044 C6.24588602 729.80132893 6.24588602 729.80132893 6.22780994 730.94592264 C6.13174084 735.38772521 5.7098734 739.62505088 5 744 C5.66 744 6.32 744 7 744 C7.495 745.485 7.495 745.485 8 747 C7.01 747.33 6.02 747.66 5 748 C5.0070862 749.34877543 5.0070862 749.34877543 5.01431555 750.72479886 C5.1423961 779.52030471 4.71162149 808.2952235 4.16922915 837.08499682 C4.05869021 842.99056462 3.95159012 848.89619466 3.8443328 854.80182276 C3.61201005 867.586167 3.375674 880.37043453 3.13752759 893.15467148 C2.92935559 904.33041159 2.72257322 915.50617638 2.51711845 926.68196678 C2.49654094 927.80112708 2.49654094 927.80112708 2.47554772 928.94289667 C2.41984281 931.97261834 2.36414349 935.00234011 2.30845301 938.03206204 C1.78821458 966.33322239 1.26385607 994.63430506 0.73756868 1022.9353535 C0.27094786 1048.02918742 -0.19208665 1073.12308511 -0.65209961 1098.21704102 C-1.17065229 1126.50363867 -1.69135776 1154.79019531 -2.21558195 1183.07668847 C-2.27149253 1186.09384701 -2.32739842 1189.11100563 -2.38330269 1192.12816429 C-2.39706677 1192.87090472 -2.41083085 1193.61364516 -2.42501203 1194.37889287 C-2.63211955 1205.55680882 -2.83761081 1216.73475373 -3.04231071 1227.912714 C-3.27495218 1240.61586489 -3.51000876 1253.31896859 -3.74819653 1266.02201674 C-3.86948072 1272.4952152 -3.98971814 1278.9684284 -4.10704041 1285.44169998 C-4.21461555 1291.37544854 -4.32531416 1297.3091306 -4.4384231 1303.24277618 C-4.47862932 1305.37984933 -4.51773181 1307.51694362 -4.55556857 1309.65406004 C-4.73147743 1319.55681567 -4.9573543 1329.45051185 -5.46874332 1339.34241009 C-5.50608881 1340.10648005 -5.5434343 1340.87055001 -5.58191147 1341.6577736 C-5.87878396 1346.87878396 -5.87878396 1346.87878396 -7 1348 C-10.06991722 1348.07058032 -13.11625576 1348.07552372 -16.18554688 1348.03759766 C-17.14969009 1348.02959641 -18.11383331 1348.02159515 -19.10719299 1348.01335144 C-22.31111528 1347.98535021 -25.51490668 1347.94992035 -28.71875 1347.9140625 C-30.93452671 1347.89230945 -33.1503064 1347.87085925 -35.36608887 1347.84970093 C-40.01672342 1347.80412563 -44.66730146 1347.75489198 -49.31787109 1347.703125 C-55.29375629 1347.63689471 -61.26968742 1347.57963391 -67.24568939 1347.52509499 C-71.8231805 1347.48234797 -76.40061345 1347.43489747 -80.9780426 1347.38599777 C-83.1821598 1347.36302029 -85.38629289 1347.34152076 -87.59043884 1347.32149124 C-90.66518468 1347.29283861 -93.73979419 1347.25788376 -96.81445312 1347.22119141 C-97.73500992 1347.2138649 -98.65556671 1347.20653839 -99.60401917 1347.19898987 C-105.88573343 1347.11426657 -105.88573343 1347.11426657 -107 1346 C-107.1032957 1344.4262288 -107.13328084 1342.84764796 -107.13638306 1341.27049351 C-107.13896307 1340.20664761 -107.14154308 1339.14280171 -107.14420128 1338.04671806 C-107.13995958 1336.83332396 -107.13571789 1335.61992986 -107.13134766 1334.36976624 C-107.12857126 1333.0554336 -107.12579487 1331.74110096 -107.12293434 1330.38694006 C-107.03863316 1308.6145635 -106.46210174 1286.84451601 -105.98548412 1265.07816637 C-105.85132273 1258.92172102 -105.72023625 1252.76521079 -105.58904988 1246.60870146 C-105.32111393 1234.03935124 -105.05024511 1221.47006591 -104.77764893 1208.90081596 C-104.50816795 1196.47460586 -104.24008951 1184.04836674 -103.97381592 1171.62208748 C-103.95717976 1170.8457484 -103.9405436 1170.06940932 -103.92340331 1169.26954482 C-103.83890208 1165.32586268 -103.75442657 1161.38217999 -103.66996169 1157.43849707 C-103.07351322 1129.59200017 -102.47418225 1101.74556601 -101.87304688 1073.89916992 C-101.28977889 1046.87999071 -100.70756498 1019.86078917 -100.12695312 992.84155273 C-100.10902445 992.00725441 -100.09109578 991.17295609 -100.07262382 990.313376 C-99.68078403 972.07917485 -99.28916735 953.84496891 -98.8976181 935.61076151 C-98.77667999 929.97880753 -98.6557338 924.34685372 -98.53478599 918.71489995 C-98.46653249 915.53666187 -98.39828374 912.35842369 -98.33003831 909.18018544 C-97.91206964 889.71560801 -97.49328179 870.25104846 -97.07339397 850.78651232 C-97.05713996 850.03303293 -97.04088596 849.27955353 -97.0241394 848.50324142 C-96.99986001 847.37774423 -96.99986001 847.37774423 -96.97509012 846.22950971 C-96.77179267 836.80457474 -96.56885459 827.37963202 -96.36596251 817.9546883 C-96.19241888 809.8940029 -96.01840273 801.83332791 -95.84404647 793.77266004 C-95.73863145 788.89410717 -95.63365682 784.0155449 -95.5288136 779.13697971 C-95.48055234 776.89553706 -95.432105 774.65409841 -95.3834579 772.41266411 C-95.31761572 769.37792045 -95.25242818 766.34316343 -95.18740845 763.30840206 C-95.15853023 761.98850459 -95.15853023 761.98850459 -95.12906861 760.64194253 C-95.04655368 756.76046503 -94.97629184 752.88264955 -95 749 C-95.99 748.67 -96.98 748.34 -98 748 C-97.34 746.68 -96.68 745.36 -96 744 C-95.67 744 -95.34 744 -95 744 C-94.97959974 743.05659685 -94.95919949 742.1131937 -94.93818104 741.14120257 C-93.71919943 684.77001861 -92.49992873 628.39884091 -91.28030796 572.02767078 C-91.13267057 565.20383135 -90.98503577 558.37999186 -90.83740234 551.55615234 C-90.82271543 550.87730333 -90.80802853 550.19845433 -90.79289656 549.49903413 C-90.32171411 527.7202815 -89.85070092 505.94152521 -89.37978096 484.16276691 C-88.87955873 461.02890349 -88.37913208 437.89504451 -87.87850654 414.76118982 C-87.60667313 402.19953667 -87.33492579 389.63788168 -87.06341934 377.07622147 C-85.72994857 315.38367341 -84.3799669 253.69152657 -83 192 C-78.19793311 191.16898363 -73.86030792 190.91620159 -69 191 C-69.01160156 189.89914062 -69.02320313 188.79828125 -69.03515625 187.6640625 C-69.119969 175.07654554 -68.91065223 162.49928048 -68.62667847 149.91546631 C-68.58402533 148.01937942 -68.54277708 146.12326039 -68.50296021 144.22711182 C-68.44528858 141.51716809 -68.38171825 138.80742544 -68.31640625 136.09765625 C-68.29132996 134.87833656 -68.29132996 134.87833656 -68.26574707 133.63438416 C-67.93693308 120.93693308 -67.93693308 120.93693308 -66 119 C-65.88206058 116.28315622 -65.82770223 113.58990857 -65.81396484 110.87182617 C-65.7965304 109.10532013 -65.77897714 107.33881525 -65.76132202 105.5723114 C-65.75357128 104.63081427 -65.74582054 103.68931713 -65.73783493 102.71928978 C-65.69220225 97.75465719 -65.61512413 92.79047724 -65.54296875 87.82617188 C-65.45235276 81.49898995 -65.37131725 75.17218061 -65.32763672 68.84448242 C-65.29157746 63.73979873 -65.22191407 58.63655075 -65.12956619 53.53258705 C-65.10053845 51.58506949 -65.08394518 49.63732593 -65.07993698 47.68959618 C-65.0726745 44.96363449 -65.02255655 42.24159263 -64.96240234 39.51635742 C-64.97043884 38.70944458 -64.97847534 37.90253174 -64.98675537 37.07116699 C-64.91098022 34.81510925 -64.91098022 34.81510925 -64 31 C-61.77027528 29.02229899 -59.7977714 28.20343791 -57 27 C-56.33162109 26.64969727 -55.66324219 26.29939453 -54.97460938 25.93847656 C-54.43642578 25.67518555 -53.89824219 25.41189453 -53.34375 25.140625 C-52.41079102 24.68042969 -52.41079102 24.68042969 -51.45898438 24.2109375 C-50.48928711 23.73527344 -50.48928711 23.73527344 -49.5 23.25 C-43.4947666 20.27810775 -37.5651449 17.1929674 -31.66845703 14.01196289 C-26.29147126 11.12458546 -20.84396554 8.38995636 -15.36523438 5.70117188 C-12.59560298 4.33482039 -9.93937648 2.96038906 -7.3515625 1.26953125 C-4.6474704 -0.19031914 -3.02124022 -0.1018783 0 0 Z " fill="#BFBFBF" transform="translate(998,256)"/>
<path d="M0 0 C0.00423194 0.60721862 0.00846388 1.21443724 0.01282406 1.84005642 C0.11599511 16.59476729 0.22461227 31.34943105 0.33933926 46.10405636 C0.39468746 53.23919451 0.44817201 60.37433767 0.49731445 67.50952148 C0.5447005 74.3889354 0.59722018 81.26829456 0.65294075 88.14764595 C0.67339959 90.77880131 0.69210668 93.40997086 0.70907402 96.04115105 C0.73304016 99.71230098 0.76310502 103.38335212 0.79467773 107.05444336 C0.8004332 108.15423523 0.80618866 109.2540271 0.81211853 110.387146 C0.82190735 111.38139084 0.83169617 112.37563568 0.84178162 113.40000916 C0.84823417 114.26925994 0.85468672 115.13851072 0.8613348 116.03410244 C0.78432526 118.00285923 0.78432526 118.00285923 2 119 C2.09436529 121.23929886 2.11742327 123.4816175 2.11352539 125.72290039 C2.11367142 126.4253035 2.11381744 127.1277066 2.1139679 127.85139465 C2.11326872 130.18351278 2.10547617 132.515552 2.09765625 134.84765625 C2.09579208 136.46048438 2.09436818 138.07331307 2.09336853 139.68614197 C2.08954323 143.93915357 2.07971285 148.19213124 2.06866455 152.44512939 C2.05845069 156.7817743 2.05387096 161.11842467 2.04882812 165.45507812 C2.03809059 173.97006769 2.02101403 182.48502963 2 191 C6.29 191 10.58 191 15 191 C15.45672344 243.75383614 14.28002009 296.49024003 13.28987158 349.23201124 C13.11434259 358.58634786 12.94104589 367.94072311 12.76930046 377.29512978 C12.75080247 378.30243146 12.75080247 378.30243146 12.73193078 379.33008267 C12.68184829 382.0574577 12.63177541 384.7848329 12.58171691 387.51220837 C12.11590213 412.88993997 11.64409835 438.26755693 11.1693446 463.64512272 C10.74835529 486.1506173 10.33238857 508.65619946 9.9206543 531.16186523 C9.814623 536.95734033 9.70858528 542.7528153 9.60249424 548.5482893 C9.58942925 549.26199797 9.57636425 549.97570665 9.56290335 550.71104286 C9.21683635 569.61147862 8.8667372 588.51183967 8.51538509 607.41217786 C8.47762684 609.44356065 8.43987036 611.47494346 8.40211646 613.50632633 C8.37707963 614.85344484 8.35203993 616.20056329 8.32699733 617.54768169 C8.14046491 627.58411183 7.95599219 637.62057841 7.77249336 647.65706444 C7.56441651 659.03414637 7.35320873 670.41116507 7.13797326 681.78811391 C7.02832766 687.58768488 6.92007624 693.38727294 6.81558418 699.18693924 C6.71997153 704.49146283 6.62035477 709.7958954 6.5175091 715.10028354 C6.48098124 717.02057158 6.44592612 718.9408883 6.41247661 720.86123242 C6.36686166 723.46738302 6.31590594 726.0733767 6.26360416 728.67940044 C6.24588602 729.80132893 6.24588602 729.80132893 6.22780994 730.94592264 C6.13174084 735.38772521 5.7098734 739.62505088 5 744 C5.66 744 6.32 744 7 744 C7.495 745.485 7.495 745.485 8 747 C7.01 747.33 6.02 747.66 5 748 C5.0070862 749.34877543 5.0070862 749.34877543 5.01431555 750.72479886 C5.1423961 779.52030471 4.71162149 808.2952235 4.16922915 837.08499682 C4.05869021 842.99056462 3.95159012 848.89619466 3.8443328 854.80182276 C3.61201005 867.586167 3.375674 880.37043453 3.13752759 893.15467148 C2.92935559 904.33041159 2.72257322 915.50617638 2.51711845 926.68196678 C2.49654094 927.80112708 2.49654094 927.80112708 2.47554772 928.94289667 C2.41984281 931.97261834 2.36414349 935.00234011 2.30845301 938.03206204 C1.78821458 966.33322239 1.26385607 994.63430506 0.73756868 1022.9353535 C0.27094786 1048.02918742 -0.19208665 1073.12308511 -0.65209961 1098.21704102 C-1.17065229 1126.50363867 -1.69135776 1154.79019531 -2.21558195 1183.07668847 C-2.27149253 1186.09384701 -2.32739842 1189.11100563 -2.38330269 1192.12816429 C-2.39706677 1192.87090472 -2.41083085 1193.61364516 -2.42501203 1194.37889287 C-2.63211955 1205.55680882 -2.83761081 1216.73475373 -3.04231071 1227.912714 C-3.27495218 1240.61586489 -3.51000876 1253.31896859 -3.74819653 1266.02201674 C-3.86948072 1272.4952152 -3.98971814 1278.9684284 -4.10704041 1285.44169998 C-4.21461555 1291.37544854 -4.32531416 1297.3091306 -4.4384231 1303.24277618 C-4.47862932 1305.37984933 -4.51773181 1307.51694362 -4.55556857 1309.65406004 C-4.73147743 1319.55681567 -4.9573543 1329.45051185 -5.46874332 1339.34241009 C-5.50608881 1340.10648005 -5.5434343 1340.87055001 -5.58191147 1341.6577736 C-5.87878396 1346.87878396 -5.87878396 1346.87878396 -7 1348 C-10.06991722 1348.07058032 -13.11625576 1348.07552372 -16.18554688 1348.03759766 C-17.14969009 1348.02959641 -18.11383331 1348.02159515 -19.10719299 1348.01335144 C-22.31111528 1347.98535021 -25.51490668 1347.94992035 -28.71875 1347.9140625 C-30.93452671 1347.89230945 -33.1503064 1347.87085925 -35.36608887 1347.84970093 C-40.01672342 1347.80412563 -44.66730146 1347.75489198 -49.31787109 1347.703125 C-55.29375629 1347.63689471 -61.26968742 1347.57963391 -67.24568939 1347.52509499 C-71.8231805 1347.48234797 -76.40061345 1347.43489747 -80.9780426 1347.38599777 C-83.1821598 1347.36302029 -85.38629289 1347.34152076 -87.59043884 1347.32149124 C-90.66518468 1347.29283861 -93.73979419 1347.25788376 -96.81445312 1347.22119141 C-97.73500992 1347.2138649 -98.65556671 1347.20653839 -99.60401917 1347.19898987 C-105.88573343 1347.11426657 -105.88573343 1347.11426657 -107 1346 C-107.1032957 1344.4262288 -107.13328084 1342.84764796 -107.13638306 1341.27049351 C-107.13896307 1340.20664761 -107.14154308 1339.14280171 -107.14420128 1338.04671806 C-107.13995958 1336.83332396 -107.13571789 1335.61992986 -107.13134766 1334.36976624 C-107.12857126 1333.0554336 -107.12579487 1331.74110096 -107.12293434 1330.38694006 C-107.03863316 1308.6145635 -106.46210174 1286.84451601 -105.98548412 1265.07816637 C-105.85132273 1258.92172102 -105.72023625 1252.76521079 -105.58904988 1246.60870146 C-105.32111393 1234.03935124 -105.05024511 1221.47006591 -104.77764893 1208.90081596 C-104.50816795 1196.47460586 -104.24008951 1184.04836674 -103.97381592 1171.62208748 C-103.95717976 1170.8457484 -103.9405436 1170.06940932 -103.92340331 1169.26954482 C-103.83890208 1165.32586268 -103.75442657 1161.38217999 -103.66996169 1157.43849707 C-103.07351322 1129.59200017 -102.47418225 1101.74556601 -101.87304688 1073.89916992 C-101.28977889 1046.87999071 -100.70756498 1019.86078917 -100.12695312 992.84155273 C-100.10902445 992.00725441 -100.09109578 991.17295609 -100.07262382 990.313376 C-99.68078403 972.07917485 -99.28916735 953.84496891 -98.8976181 935.61076151 C-98.77667999 929.97880753 -98.6557338 924.34685372 -98.53478599 918.71489995 C-98.46653249 915.53666187 -98.39828374 912.35842369 -98.33003831 909.18018544 C-97.91206964 889.71560801 -97.49328179 870.25104846 -97.07339397 850.78651232 C-97.05713996 850.03303293 -97.04088596 849.27955353 -97.0241394 848.50324142 C-96.99986001 847.37774423 -96.99986001 847.37774423 -96.97509012 846.22950971 C-96.77179267 836.80457474 -96.56885459 827.37963202 -96.36596251 817.9546883 C-96.19241888 809.8940029 -96.01840273 801.83332791 -95.84404647 793.77266004 C-95.73863145 788.89410717 -95.63365682 784.0155449 -95.5288136 779.13697971 C-95.48055234 776.89553706 -95.432105 774.65409841 -95.3834579 772.41266411 C-95.31761572 769.37792045 -95.25242818 766.34316343 -95.18740845 763.30840206 C-95.15853023 761.98850459 -95.15853023 761.98850459 -95.12906861 760.64194253 C-95.04655368 756.76046503 -94.97629184 752.88264955 -95 749 C-95.99 748.67 -96.98 748.34 -98 748 C-97.34 746.68 -96.68 745.36 -96 744 C-95.67 744 -95.34 744 -95 744 C-94.97959974 743.05659685 -94.95919949 742.1131937 -94.93818104 741.14120257 C-93.71919943 684.77001861 -92.49992873 628.39884091 -91.28030796 572.02767078 C-91.13267057 565.20383135 -90.98503577 558.37999186 -90.83740234 551.55615234 C-90.82271543 550.87730333 -90.80802853 550.19845433 -90.79289656 549.49903413 C-90.32171411 527.7202815 -89.85070092 505.94152521 -89.37978096 484.16276691 C-88.87955873 461.02890349 -88.37913208 437.89504451 -87.87850654 414.76118982 C-87.60667313 402.19953667 -87.33492579 389.63788168 -87.06341934 377.07622147 C-85.72994857 315.38367341 -84.3799669 253.69152657 -83 192 C-78.19793311 191.16898363 -73.86030792 190.91620159 -69 191 C-69.01160156 189.89914062 -69.02320313 188.79828125 -69.03515625 187.6640625 C-69.119969 175.07654554 -68.91065223 162.49928048 -68.62667847 149.91546631 C-68.58402533 148.01937942 -68.54277708 146.12326039 -68.50296021 144.22711182 C-68.44528858 141.51716809 -68.38171825 138.80742544 -68.31640625 136.09765625 C-68.29132996 134.87833656 -68.29132996 134.87833656 -68.26574707 133.63438416 C-67.93693308 120.93693308 -67.93693308 120.93693308 -66 119 C-65.88206058 116.28315622 -65.82770223 113.58990857 -65.81396484 110.87182617 C-65.7965304 109.10532013 -65.77897714 107.33881525 -65.76132202 105.5723114 C-65.75357128 104.63081427 -65.74582054 103.68931713 -65.73783493 102.71928978 C-65.69220225 97.75465719 -65.61512413 92.79047724 -65.54296875 87.82617188 C-65.45235276 81.49898995 -65.37131725 75.17218061 -65.32763672 68.84448242 C-65.29157746 63.73979873 -65.22191407 58.63655075 -65.12956619 53.53258705 C-65.10053845 51.58506949 -65.08394518 49.63732593 -65.07993698 47.68959618 C-65.0726745 44.96363449 -65.02255655 42.24159263 -64.96240234 39.51635742 C-64.97043884 38.70944458 -64.97847534 37.90253174 -64.98675537 37.07116699 C-64.91098022 34.81510925 -64.91098022 34.81510925 -64 31 C-61.77027528 29.02229899 -59.7977714 28.20343791 -57 27 C-56.33162109 26.64969727 -55.66324219 26.29939453 -54.97460938 25.93847656 C-54.43642578 25.67518555 -53.89824219 25.41189453 -53.34375 25.140625 C-52.41079102 24.68042969 -52.41079102 24.68042969 -51.45898438 24.2109375 C-50.48928711 23.73527344 -50.48928711 23.73527344 -49.5 23.25 C-43.4947666 20.27810775 -37.5651449 17.1929674 -31.66845703 14.01196289 C-26.29147126 11.12458546 -20.84396554 8.38995636 -15.36523438 5.70117188 C-12.59560298 4.33482039 -9.93937648 2.96038906 -7.3515625 1.26953125 C-4.6474704 -0.19031914 -3.02124022 -0.1018783 0 0 Z M-79 196 C-79.80285193 213.31834901 -80.29262589 230.63154195 -80.64501953 247.96435547 C-80.70243306 250.71047905 -80.7606036 253.45658649 -80.81873798 256.20269489 C-80.94378708 262.12799354 -81.06703908 268.05332733 -81.18905449 273.97868919 C-81.37033271 282.78124435 -81.55455317 291.58373628 -81.73937386 300.38621768 C-82.05047393 315.20620084 -82.35938393 330.02622885 -82.66708374 344.84628296 C-83.10957211 366.15654741 -83.55556226 387.46673777 -84.0023229 408.77691303 C-84.18206236 417.35086215 -84.36171046 425.92481318 -84.54136658 434.49876404 C-84.56129764 435.44989876 -84.5812287 436.40103347 -84.60176373 437.38099045 C-84.90828362 452.00891325 -85.21430793 466.63684637 -85.52003479 481.26478577 C-87.17482863 560.43732955 -88.84291934 639.60958951 -90.52005127 718.78166315 C-90.65058508 724.94400107 -90.78104835 731.10634049 -90.91147995 737.26868057 C-92.68857341 821.22540445 -94.48740697 905.18139987 -96.41918945 989.13473511 C-96.64480958 998.94006631 -96.86984739 1008.74541066 -97.09375 1018.55078125 C-97.11189947 1019.34549072 -97.13004894 1020.14020019 -97.1487484 1020.95899177 C-98.42270575 1076.7910409 -99.55067175 1132.62633786 -100.6940918 1188.46118164 C-100.73462547 1190.43971317 -100.7751598 1192.41824469 -100.81569481 1194.3967762 C-100.99002356 1202.90776697 -101.16416457 1211.41876134 -101.33734334 1219.9297756 C-101.71543874 1238.50201714 -102.10945763 1257.07360729 -102.5449028 1275.64460945 C-102.91253074 1291.36952984 -103.13612873 1307.08234707 -103.0625 1322.8125 C-103.05743681 1324.8235665 -103.05288303 1326.83463434 -103.04882812 1328.84570312 C-103.03917163 1333.56386846 -103.01955945 1338.28182644 -103 1343 C-94.75 1343 -86.5 1343 -78 1343 C-77.34 1339.04 -76.68 1335.08 -76 1331 C-75.5629176 1328.66691273 -75.11400487 1326.335968 -74.64648438 1324.00878906 C-74.39823914 1322.76677734 -74.1499939 1321.52476563 -73.89422607 1320.24511719 C-73.76417931 1319.59877319 -73.63413254 1318.9524292 -73.50014496 1318.28649902 C-72.9311648 1315.45714006 -72.36717639 1312.62679192 -71.80285263 1309.79650116 C-71.50184107 1308.28684629 -71.20064273 1306.77722866 -70.89926529 1305.26764679 C-64.40150412 1272.71582579 -58.25215277 1240.12354576 -52.59320068 1207.4140625 C-51.99531039 1203.97300975 -51.39060364 1200.53322227 -50.78369141 1197.09375 C-43.39767118 1155.20963549 -37.16517257 1113.1899295 -31.28930664 1071.07170105 C-31.0152351 1069.10909727 -30.74007154 1067.14664607 -30.46484375 1065.1842041 C-18.96567836 983.17123569 -10.82514458 900.60397787 -1.12567139 728.39916992 C-1.01361356 725.3682208 -0.89813404 722.33742543 -0.78173828 719.30664062 C2.49517947 632.13916915 0.2117767 543.94217846 -66.75 216.625 C-67.18562256 215.70404541 -67.62124512 214.78309082 -68.07006836 213.83422852 C-71.03100437 207.70210257 -74.18250436 201.65019773 -78 196 C-78.33 196 -78.66 196 -79 196 Z " fill="#969696" transform="translate(998,256)"/>
<path d="M0 0 C0.00423194 0.60721862 0.00846388 1.21443724 0.01282406 1.84005642 C0.11599511 16.59476729 0.22461227 31.34943105 0.33933926 46.10405636 C0.39468746 53.23919451 0.44817201 60.37433767 0.49731445 67.50952148 C0.5447005 74.3889354 0.59722018 81.26829456 0.65294075 88.14764595 C0.67339959 90.77880131 0.69210668 93.40997086 0.70907402 96.04115105 C0.73304016 99.71230098 0.76310502 103.38335212 0.79467773 107.05444336 C0.8004332 108.15423523 0.80618866 109.2540271 0.81211853 110.387146 C0.82190735 111.38139084 0.83169617 112.37563568 0.84178162 113.40000916 C0.84823417 114.26925994 0.85468672 115.13851072 0.8613348 116.03410244 C0.78432526 118.00285923 0.78432526 118.00285923 2 119 C2.09436529 121.23929886 2.11742327 123.4816175 2.11352539 125.72290039 C2.11367142 126.4253035 2.11381744 127.1277066 2.1139679 127.85139465 C2.11326872 130.18351278 2.10547617 132.515552 2.09765625 134.84765625 C2.09579208 136.46048438 2.09436818 138.07331307 2.09336853 139.68614197 C2.08954323 143.93915357 2.07971285 148.19213124 2.06866455 152.44512939 C2.05845069 156.7817743 2.05387096 161.11842467 2.04882812 165.45507812 C2.03809059 173.97006769 2.02101403 182.48502963 2 191 C6.29 191 10.58 191 15 191 C15.45672344 243.75383614 14.28002009 296.49024003 13.28987158 349.23201124 C13.11434259 358.58634786 12.94104589 367.94072311 12.76930046 377.29512978 C12.75080247 378.30243146 12.75080247 378.30243146 12.73193078 379.33008267 C12.68184829 382.0574577 12.63177541 384.7848329 12.58171691 387.51220837 C12.11590213 412.88993997 11.64409835 438.26755693 11.1693446 463.64512272 C10.74835529 486.1506173 10.33238857 508.65619946 9.9206543 531.16186523 C9.814623 536.95734033 9.70858528 542.7528153 9.60249424 548.5482893 C9.58942925 549.26199797 9.57636425 549.97570665 9.56290335 550.71104286 C9.21683635 569.61147862 8.8667372 588.51183967 8.51538509 607.41217786 C8.47762684 609.44356065 8.43987036 611.47494346 8.40211646 613.50632633 C8.37707963 614.85344484 8.35203993 616.20056329 8.32699733 617.54768169 C8.14046491 627.58411183 7.95599219 637.62057841 7.77249336 647.65706444 C7.56441651 659.03414637 7.35320873 670.41116507 7.13797326 681.78811391 C7.02832766 687.58768488 6.92007624 693.38727294 6.81558418 699.18693924 C6.71997153 704.49146283 6.62035477 709.7958954 6.5175091 715.10028354 C6.48098124 717.02057158 6.44592612 718.9408883 6.41247661 720.86123242 C6.36686166 723.46738302 6.31590594 726.0733767 6.26360416 728.67940044 C6.24588602 729.80132893 6.24588602 729.80132893 6.22780994 730.94592264 C6.13174084 735.38772521 5.7098734 739.62505088 5 744 C5.66 744 6.32 744 7 744 C7.495 745.485 7.495 745.485 8 747 C7.01 747.33 6.02 747.66 5 748 C5.0070862 749.34877543 5.0070862 749.34877543 5.01431555 750.72479886 C5.1423961 779.52030471 4.71162149 808.2952235 4.16922915 837.08499682 C4.05869021 842.99056462 3.95159012 848.89619466 3.8443328 854.80182276 C3.61201005 867.586167 3.375674 880.37043453 3.13752759 893.15467148 C2.92935559 904.33041159 2.72257322 915.50617638 2.51711845 926.68196678 C2.49654094 927.80112708 2.49654094 927.80112708 2.47554772 928.94289667 C2.41984281 931.97261834 2.36414349 935.00234011 2.30845301 938.03206204 C1.78821458 966.33322239 1.26385607 994.63430506 0.73756868 1022.9353535 C0.27094786 1048.02918742 -0.19208665 1073.12308511 -0.65209961 1098.21704102 C-1.17065229 1126.50363867 -1.69135776 1154.79019531 -2.21558195 1183.07668847 C-2.27149253 1186.09384701 -2.32739842 1189.11100563 -2.38330269 1192.12816429 C-2.39706677 1192.87090472 -2.41083085 1193.61364516 -2.42501203 1194.37889287 C-2.63211955 1205.55680882 -2.83761081 1216.73475373 -3.04231071 1227.912714 C-3.27495218 1240.61586489 -3.51000876 1253.31896859 -3.74819653 1266.02201674 C-3.86948072 1272.4952152 -3.98971814 1278.9684284 -4.10704041 1285.44169998 C-4.21461555 1291.37544854 -4.32531416 1297.3091306 -4.4384231 1303.24277618 C-4.47862932 1305.37984933 -4.51773181 1307.51694362 -4.55556857 1309.65406004 C-4.73147743 1319.55681567 -4.9573543 1329.45051185 -5.46874332 1339.34241009 C-5.50608881 1340.10648005 -5.5434343 1340.87055001 -5.58191147 1341.6577736 C-5.87878396 1346.87878396 -5.87878396 1346.87878396 -7 1348 C-10.06991722 1348.07058032 -13.11625576 1348.07552372 -16.18554688 1348.03759766 C-17.14969009 1348.02959641 -18.11383331 1348.02159515 -19.10719299 1348.01335144 C-22.31111528 1347.98535021 -25.51490668 1347.94992035 -28.71875 1347.9140625 C-30.93452671 1347.89230945 -33.1503064 1347.87085925 -35.36608887 1347.84970093 C-40.01672342 1347.80412563 -44.66730146 1347.75489198 -49.31787109 1347.703125 C-55.29375629 1347.63689471 -61.26968742 1347.57963391 -67.24568939 1347.52509499 C-71.8231805 1347.48234797 -76.40061345 1347.43489747 -80.9780426 1347.38599777 C-83.1821598 1347.36302029 -85.38629289 1347.34152076 -87.59043884 1347.32149124 C-90.66518468 1347.29283861 -93.73979419 1347.25788376 -96.81445312 1347.22119141 C-97.73500992 1347.2138649 -98.65556671 1347.20653839 -99.60401917 1347.19898987 C-105.88573343 1347.11426657 -105.88573343 1347.11426657 -107 1346 C-107.1032957 1344.4262288 -107.13328084 1342.84764796 -107.13638306 1341.27049351 C-107.13896307 1340.20664761 -107.14154308 1339.14280171 -107.14420128 1338.04671806 C-107.13995958 1336.83332396 -107.13571789 1335.61992986 -107.13134766 1334.36976624 C-107.12857126 1333.0554336 -107.12579487 1331.74110096 -107.12293434 1330.38694006 C-107.03863316 1308.6145635 -106.46210174 1286.84451601 -105.98548412 1265.07816637 C-105.85132273 1258.92172102 -105.72023625 1252.76521079 -105.58904988 1246.60870146 C-105.32111393 1234.03935124 -105.05024511 1221.47006591 -104.77764893 1208.90081596 C-104.50816795 1196.47460586 -104.24008951 1184.04836674 -103.97381592 1171.62208748 C-103.95717976 1170.8457484 -103.9405436 1170.06940932 -103.92340331 1169.26954482 C-103.83890208 1165.32586268 -103.75442657 1161.38217999 -103.66996169 1157.43849707 C-103.07351322 1129.59200017 -102.47418225 1101.74556601 -101.87304688 1073.89916992 C-101.28977889 1046.87999071 -100.70756498 1019.86078917 -100.12695312 992.84155273 C-100.10902445 992.00725441 -100.09109578 991.17295609 -100.07262382 990.313376 C-99.68078403 972.07917485 -99.28916735 953.84496891 -98.8976181 935.61076151 C-98.77667999 929.97880753 -98.6557338 924.34685372 -98.53478599 918.71489995 C-98.46653249 915.53666187 -98.39828374 912.35842369 -98.33003831 909.18018544 C-97.91206964 889.71560801 -97.49328179 870.25104846 -97.07339397 850.78651232 C-97.05713996 850.03303293 -97.04088596 849.27955353 -97.0241394 848.50324142 C-96.99986001 847.37774423 -96.99986001 847.37774423 -96.97509012 846.22950971 C-96.77179267 836.80457474 -96.56885459 827.37963202 -96.36596251 817.9546883 C-96.19241888 809.8940029 -96.01840273 801.83332791 -95.84404647 793.77266004 C-95.73863145 788.89410717 -95.63365682 784.0155449 -95.5288136 779.13697971 C-95.48055234 776.89553706 -95.432105 774.65409841 -95.3834579 772.41266411 C-95.31761572 769.37792045 -95.25242818 766.34316343 -95.18740845 763.30840206 C-95.15853023 761.98850459 -95.15853023 761.98850459 -95.12906861 760.64194253 C-95.04655368 756.76046503 -94.97629184 752.88264955 -95 749 C-95.99 748.67 -96.98 748.34 -98 748 C-97.34 746.68 -96.68 745.36 -96 744 C-95.67 744 -95.34 744 -95 744 C-94.97959974 743.05659685 -94.95919949 742.1131937 -94.93818104 741.14120257 C-93.71919943 684.77001861 -92.49992873 628.39884091 -91.28030796 572.02767078 C-91.13267057 565.20383135 -90.98503577 558.37999186 -90.83740234 551.55615234 C-90.82271543 550.87730333 -90.80802853 550.19845433 -90.79289656 549.49903413 C-90.32171411 527.7202815 -89.85070092 505.94152521 -89.37978096 484.16276691 C-88.87955873 461.02890349 -88.37913208 437.89504451 -87.87850654 414.76118982 C-87.60667313 402.19953667 -87.33492579 389.63788168 -87.06341934 377.07622147 C-85.72994857 315.38367341 -84.3799669 253.69152657 -83 192 C-78.19793311 191.16898363 -73.86030792 190.91620159 -69 191 C-69.01160156 189.89914062 -69.02320313 188.79828125 -69.03515625 187.6640625 C-69.119969 175.07654554 -68.91065223 162.49928048 -68.62667847 149.91546631 C-68.58402533 148.01937942 -68.54277708 146.12326039 -68.50296021 144.22711182 C-68.44528858 141.51716809 -68.38171825 138.80742544 -68.31640625 136.09765625 C-68.29132996 134.87833656 -68.29132996 134.87833656 -68.26574707 133.63438416 C-67.93693308 120.93693308 -67.93693308 120.93693308 -66 119 C-65.88206058 116.28315622 -65.82770223 113.58990857 -65.81396484 110.87182617 C-65.7965304 109.10532013 -65.77897714 107.33881525 -65.76132202 105.5723114 C-65.75357128 104.63081427 -65.74582054 103.68931713 -65.73783493 102.71928978 C-65.69220225 97.75465719 -65.61512413 92.79047724 -65.54296875 87.82617188 C-65.45235276 81.49898995 -65.37131725 75.17218061 -65.32763672 68.84448242 C-65.29157746 63.73979873 -65.22191407 58.63655075 -65.12956619 53.53258705 C-65.10053845 51.58506949 -65.08394518 49.63732593 -65.07993698 47.68959618 C-65.0726745 44.96363449 -65.02255655 42.24159263 -64.96240234 39.51635742 C-64.97043884 38.70944458 -64.97847534 37.90253174 -64.98675537 37.07116699 C-64.91098022 34.81510925 -64.91098022 34.81510925 -64 31 C-61.77027528 29.02229899 -59.7977714 28.20343791 -57 27 C-56.33162109 26.64969727 -55.66324219 26.29939453 -54.97460938 25.93847656 C-54.43642578 25.67518555 -53.89824219 25.41189453 -53.34375 25.140625 C-52.41079102 24.68042969 -52.41079102 24.68042969 -51.45898438 24.2109375 C-50.48928711 23.73527344 -50.48928711 23.73527344 -49.5 23.25 C-43.4947666 20.27810775 -37.5651449 17.1929674 -31.66845703 14.01196289 C-26.29147126 11.12458546 -20.84396554 8.38995636 -15.36523438 5.70117188 C-12.59560298 4.33482039 -9.93937648 2.96038906 -7.3515625 1.26953125 C-4.6474704 -0.19031914 -3.02124022 -0.1018783 0 0 Z M-79 195 C-79.79958147 214.19356524 -79.79958147 214.19356524 -80.33889771 233.38975525 C-80.37563413 235.10549032 -80.37563413 235.10549032 -80.4131127 236.8558867 C-80.4926471 240.59650828 -80.56885537 244.33718926 -80.64501953 248.07788086 C-80.70245384 250.8241515 -80.76061332 253.57040668 -80.81873798 256.31666279 C-80.94371814 262.23921685 -81.06697953 268.16180462 -81.18905449 274.08441925 C-81.37042234 282.88297651 -81.55461123 291.6814732 -81.73937386 300.47995974 C-82.05039245 315.29384369 -82.35931672 330.10777058 -82.66708374 344.92172241 C-83.10967096 366.2233655 -83.55562563 387.52493734 -84.0023229 408.82649459 C-84.16194639 416.43884632 -84.32150038 424.05119951 -84.48105388 431.66355271 C-84.52128927 433.58319663 -84.56152589 435.50284052 -84.60176373 437.42248439 C-84.90826324 452.04517209 -85.21429093 466.66786961 -85.52003479 481.29057312 C-87.1753277 560.45440415 -88.84318452 639.61796709 -90.52005127 718.781344 C-90.6505829 724.94385575 -90.78104636 731.10636893 -90.91147995 737.26888275 C-92.68855349 821.22553961 -94.48740852 905.1814673 -96.41918945 989.13473511 C-96.64480958 998.94006631 -96.86984739 1008.74541066 -97.09375 1018.55078125 C-97.11189947 1019.34549072 -97.13004894 1020.14020019 -97.1487484 1020.95899177 C-98.42270575 1076.7910409 -99.55067175 1132.62633786 -100.6940918 1188.46118164 C-100.73462547 1190.43971317 -100.7751598 1192.41824469 -100.81569481 1194.3967762 C-100.99002356 1202.90776697 -101.16416457 1211.41876134 -101.33734334 1219.9297756 C-101.71543874 1238.50201714 -102.10945763 1257.07360729 -102.5449028 1275.64460945 C-102.91253074 1291.36952984 -103.13612873 1307.08234707 -103.0625 1322.8125 C-103.05743681 1324.8235665 -103.05288303 1326.83463434 -103.04882812 1328.84570312 C-103.03828921 1333.56383842 -103.02133995 1338.28190174 -103 1343 C-97.32797724 1343.15044304 -91.65580215 1343.29192585 -85.98339844 1343.42724609 C-84.08035142 1343.47365428 -82.17734905 1343.52195897 -80.27441406 1343.57275391 C-56.52115866 1344.20325744 -32.75940186 1344.04720507 -9 1344 C-8.77174461 1331.69207904 -8.54352316 1319.38415744 -8.31546021 1307.07623291 C-8.29377059 1305.90571009 -8.29377059 1305.90571009 -8.2716428 1304.71154034 C-8.21095405 1301.43631589 -8.15026618 1298.16109142 -8.08958173 1294.88586688 C-7.91092951 1285.24384526 -7.73220416 1275.601825 -7.55328369 1265.95980835 C-7.34526141 1254.74925014 -7.13739109 1243.53868912 -6.9296875 1232.328125 C-6.91163197 1231.35362971 -6.89357644 1230.37913441 -6.87497377 1229.37510896 C-6.29443346 1198.03784313 -5.71947014 1166.70047757 -5.14741468 1135.36305577 C-4.99051598 1126.76916816 -4.83335632 1118.17528535 -4.67602539 1109.58140564 C-4.65382384 1108.36864887 -4.63162229 1107.1558921 -4.60874796 1105.90638512 C-4.51924432 1101.01759728 -4.4297313 1096.12880962 -4.34018612 1091.24002254 C-4.07564989 1076.79725563 -3.81196236 1062.35447386 -3.54972136 1047.91166508 C-3.38284713 1038.72534856 -3.2149049 1029.53905192 -3.04620302 1020.35276878 C-2.94845008 1015.02783805 -2.85114811 1009.70290019 -2.75516129 1004.37793732 C-2.37950136 983.55286185 -1.96339962 962.73062853 -1.40955603 941.90946841 C-1.05572049 928.59313006 -0.78062867 915.27746195 -0.58473396 901.95774078 C-0.53225137 898.39251069 -0.47712571 894.82732829 -0.42149353 891.262146 C-0.3416218 886.1332214 -0.26260226 881.00428489 -0.18432617 875.87533569 C0.02518246 862.18240628 0.2430734 848.48961092 0.46484375 834.796875 C0.47594791 834.11065307 0.48705207 833.42443115 0.49849272 832.71741462 C0.89951171 807.97239165 1.38549622 783.22993525 1.93754196 758.48783875 C2.68691993 724.88908645 3.32365316 691.29007885 3.875 657.6875 C4.0377656 647.77862418 4.20151887 637.86976524 4.3671875 627.9609375 C4.37837459 627.29171941 4.38956167 626.62250133 4.40108776 625.9330039 C5.18548808 579.06881676 6.06775715 532.20631751 6.93468952 485.3436017 C7.02017948 480.72146862 7.10559394 476.09933415 7.19100857 471.47719967 C7.46025172 456.90796907 7.72997812 442.33874744 8 427.76953125 C8.03054615 426.12103259 8.03054615 426.12103259 8.0617094 424.43923092 C8.5301941 399.15820703 9.00150071 373.87723956 9.47933912 348.5963906 C9.61592872 341.36555705 9.75208745 334.13471536 9.88827491 326.90387422 C9.99586653 321.19452033 10.10380341 315.48517343 10.21261597 309.77584267 C10.62784093 287.98406841 11.02935972 266.19238337 11.34619141 244.39892578 C11.35801728 243.5854788 11.36984315 242.77203182 11.38202739 241.93393493 C11.60753137 226.28954293 11.79985406 210.64474075 12 195 C-18.03 195 -48.06 195 -79 195 Z " fill="#0D0D0D" transform="translate(998,256)"/>
<path d="M0 0 C3.52412012 0.24028092 5.48436726 0.54824277 8.17578125 2.90625 C10.72502081 7.22958562 11.90865244 11.6702744 13.1875 16.5 C13.44724609 17.43714844 13.70699219 18.37429688 13.97460938 19.33984375 C17.10981057 30.76266981 17.10981057 30.76266981 17.16113281 36.70068359 C17.17074036 37.60708588 17.1803479 38.51348816 17.19024658 39.44735718 C17.19449646 40.42121368 17.19874634 41.39507019 17.203125 42.3984375 C17.20882507 43.42442047 17.21452515 44.45040344 17.22039795 45.50747681 C17.22984235 47.68791682 17.23637971 49.86837107 17.24023438 52.04882812 C17.24978291 55.30105758 17.28074337 58.55261059 17.3125 61.8046875 C17.40875684 80.54905435 15.76122269 98.91613473 11.125 117.125 C10.74190674 118.68045532 10.74190674 118.68045532 10.35107422 120.26733398 C8.45262784 127.75826248 6.17266316 134.93871873 3 142 C4.15628906 142.61294922 4.15628906 142.61294922 5.3359375 143.23828125 C11.25299515 147.15117421 12.99218671 154.15660542 14.36474609 160.83325195 C16.54922961 172.41046086 17.15540417 183.97674279 17.16796875 195.7421875 C17.17211288 196.97847397 17.17625702 198.21476044 17.18052673 199.48851013 C17.18861461 202.8988032 17.19107196 206.30897778 17.18888092 209.71927261 C17.18748615 211.89662002 17.18758505 214.07396446 17.18768311 216.25131226 C17.17347583 259.17626993 16.15375465 302.09266015 15 345 C14.98124062 345.70383064 14.96248123 346.40766129 14.94315338 347.13282013 C14.26059486 372.65588855 12.65461377 398.05675969 10.5625 423.5 C10.40737442 425.39313934 10.40737442 425.39313934 10.24911499 427.32452393 C9.21237313 439.81151279 8.06281049 452.27117298 6.45703125 464.69921875 C6.33961075 465.60865234 6.22219025 466.51808594 6.10121155 467.45507812 C2.28495827 495.71504173 2.28495827 495.71504173 -6 504 C-9.3125 504.5 -9.3125 504.5 -13 504 C-21.46665308 497.10853819 -22.75272787 483.24986009 -24 473 C-24.08830078 472.31599121 -24.17660156 471.63198242 -24.26757812 470.92724609 C-25.37847659 460.94688705 -25.15188737 450.90189718 -25.125 440.875 C-25.12378143 439.88603729 -25.12256287 438.89707458 -25.12130737 437.87814331 C-25.10440097 426.18234419 -25.0079907 414.50983738 -24.42626953 402.82641602 C-23.80861579 390.11322123 -23.63395066 377.38523306 -23.39282227 364.66040039 C-23.35622992 362.81134874 -23.31904011 360.96230881 -23.28125 359.11328125 C-23.26231689 358.18543823 -23.24338379 357.25759521 -23.22387695 356.30163574 C-23.10356309 350.98445722 -22.89407423 345.68124366 -22.60487366 340.37075806 C-22.05255168 330.09529436 -21.93234372 319.84577907 -21.97265625 309.55859375 C-21.97529354 308.82784449 -21.97793083 308.09709522 -21.98064804 307.34420204 C-22.00687052 300.52488164 -22.04519868 293.70565593 -22.09594727 286.88647461 C-22.21623662 270.11846009 -22.12895932 253.50177992 -20.68629456 236.78208923 C-20.00092341 228.64896008 -20.02511193 220.65452591 -20.25 212.5 C-20.49002313 190.82745643 -16.84262454 160.82591037 -3 143 C-2.34 143 -1.68 143 -1 143 C-1 142.34 -1 141.68 -1 141 C-1.598125 140.835 -2.19625 140.67 -2.8125 140.5 C-8.2886582 136.74492009 -9.06227852 127.13884715 -10.30859375 121.03125 C-11.68729897 113.41518374 -12.34420808 105.70555503 -13 98 C-13.1134375 96.74703125 -13.226875 95.4940625 -13.34375 94.203125 C-14.10107276 84.06341478 -14.10402533 73.91277132 -14.125 63.75 C-14.12767883 63.02070282 -14.13035767 62.29140564 -14.13311768 61.54000854 C-14.16967924 48.4031421 -13.94558686 35.66791819 -10.375 22.9375 C-9.98610596 21.52186768 -9.98610596 21.52186768 -9.58935547 20.07763672 C-7.42777606 12.62678653 -4.52720963 6.34880877 0 0 Z " fill="#D2D2D2" transform="translate(937,784)"/>
<path d="M0 0 C0 37.62 0 75.24 0 114 C-28.215 114.495 -28.215 114.495 -57 115 C-57.04010881 97.92256029 -57.04010881 97.92256029 -57.04882812 90.54296875 C-57.05476482 85.54246943 -57.06172392 80.54198873 -57.07543945 75.54150391 C-57.08644761 71.50198668 -57.09231406 67.46248946 -57.09487724 63.42295837 C-57.09669967 61.89549953 -57.1002567 60.36804156 -57.10573006 58.84059143 C-57.12032968 54.59029506 -57.09041898 50.34421141 -57.01521683 46.09456825 C-56.9994779 43.92813414 -57.0531807 41.76946939 -57.10910034 39.60380554 C-57.19249831 29.49354867 -57.19249831 29.49354867 -54.22596741 25.77810669 C-51.69034278 24.00619317 -49.22048026 22.79341859 -46.375 21.58203125 C-45.39893799 21.10601974 -44.42287598 20.63000824 -43.41723633 20.13957214 C-40.30286535 18.63672549 -37.15637808 17.22464009 -34 15.8125 C-31.90999731 14.82549129 -29.82271486 13.83270053 -27.73828125 12.83398438 C-23.88678422 10.99421224 -20.02124925 9.19385081 -16.13671875 7.42504883 C-11.88443264 5.47044459 -7.82535588 3.28489222 -3.78833008 0.91947937 C-2 0 -2 0 0 0 Z " fill="#CCCCCC" transform="translate(994,261)"/>
<path d="M0 0 C20.46 0 40.92 0 62 0 C62 22.44 62 44.88 62 68 C41.21 68.33 20.42 68.66 -1 69 C-1.020625 63.18375 -1.04125 57.3675 -1.0625 51.375 C-1.071604 49.6120459 -1.08070801 47.8490918 -1.09008789 46.03271484 C-1.11556062 30.64554557 -0.51387363 15.41620879 0 0 Z " fill="#BFBFBF" transform="translate(934,379)"/>
<path d="M0 0 C0 28.05 0 56.1 0 85 C-0.99 85.495 -0.99 85.495 -2 86 C-2.50789062 84.94941406 -3.01578125 83.89882813 -3.5390625 82.81640625 C-10.49025981 68.57451481 -18.40634114 56.99911225 -30 46 C-30.56976562 45.45859375 -31.13953125 44.9171875 -31.7265625 44.359375 C-38.93657239 37.75259303 -46.72747349 33.09084217 -56 30 C-56 29.34 -56 28.68 -56 28 C-55.45622208 27.72295731 -54.91244415 27.44591461 -54.35218811 27.16047668 C-48.65656158 24.25827665 -42.96210873 21.3537834 -37.26831055 18.44799805 C-35.14751278 17.36603748 -33.02642348 16.28464813 -30.9050293 15.20385742 C-27.84345601 13.64394376 -24.78296153 12.08193078 -21.72265625 10.51953125 C-20.78478775 10.04224075 -19.84691925 9.56495026 -18.88063049 9.07319641 C-13.7767573 6.4647214 -8.74775896 3.77239561 -3.78709412 0.89970398 C-2 0 -2 0 0 0 Z " fill="#B0B0B0" transform="translate(994,261)"/>
<path d="M0 0 C4.00708724 3.7307364 4.05924101 8.3788318 4.25 13.5625 C4.1841537 19.82730526 3.52804644 27.78557536 -0.453125 32.84765625 C-2 34 -2 34 -4.4375 34 C-7.91953894 32.64115554 -9.0386462 31.17874581 -11 28 C-13.72790361 20.46579004 -13.56497389 12.98356989 -10.625 5.5 C-7.52851612 0.73617865 -6.00068125 -0.87509935 0 0 Z " fill="#D2D2D2" transform="translate(942,713)"/>
<path d="M0 0 C20.46 0 40.92 0 62 0 C62 4.29 62 8.58 62 13 C58 11 58 11 56.02734375 10 C46.2515369 5.32223074 36.33662565 4.65776489 25.625 4.75 C24.53388916 4.75386719 23.44277832 4.75773437 22.31860352 4.76171875 C14.71798571 4.84329354 7.43935417 5.34352353 0 7 C0 4.69 0 2.38 0 0 Z " fill="#979797" transform="translate(934,379)"/>
<path d="M0 0 C0.66 0 1.32 0 2 0 C2.29132812 1.08796875 2.58265625 2.1759375 2.8828125 3.296875 C5.15030699 11.50424974 7.59006378 18.94895232 11.86328125 26.38671875 C13.21866011 29.50269283 13.42805923 31.6366775 13 35 C10 37 10 37 7.5625 36.9375 C2.94734861 35.24902998 1.43512942 31.83917817 -0.75 27.625 C-3.74979556 19.00263681 -2.7949134 8.55942228 0 0 Z " fill="#D2D2D2" transform="translate(943,394)"/>
<path d="M0 0 C1.65 0.33 3.3 0.66 5 1 C4.6875 2.9375 4.6875 2.9375 4 5 C3.01 5.33 2.02 5.66 1 6 C0.34 5.67 -0.32 5.34 -1 5 C-0.67 3.35 -0.34 1.7 0 0 Z " fill="#C3C3C3" transform="translate(936,960)"/>
</svg>
