<?xml version="1.0" encoding="UTF-8"?>
<svg version="1.1" xmlns="http://www.w3.org/2000/svg" width="166" height="660" viewBox="981 646 166 660">
<path d="M0 0 C2.765625 1.7890625 2.765625 1.7890625 4.75 3.375 C4.75 4.035 4.75 4.695 4.75 5.375 C5.62011719 5.73464844 5.62011719 5.73464844 6.5078125 6.1015625 C17.40888034 12.29276131 22.63916826 27.8673316 25.78631592 39.20300293 C27.7853861 47.33211286 28.52490774 55.7145113 29.4765625 64.015625 C29.71169627 65.99285369 29.94783081 67.9699636 30.18490601 69.94696045 C30.80253391 75.12056311 31.4063672 80.29568348 32.00726318 85.47125244 C32.6159604 90.69150035 33.23841381 95.9101057 33.859375 101.12890625 C34.77204198 108.81853143 35.68027618 116.50865364 36.57666016 124.20019531 C36.67685204 125.05956349 36.77704391 125.91893167 36.88027191 126.80434132 C37.36703678 131.00049521 37.84290328 135.19750653 38.29928589 139.39707947 C38.3870397 140.20224628 38.47479351 141.0074131 38.56520653 141.83697891 C38.72693763 143.32913584 38.88675784 144.82150194 39.04409218 146.31412888 C39.56940584 151.16934431 40.28999406 155.97252375 41.1171875 160.78515625 C41.25151184 161.56757187 41.38583618 162.34998749 41.52423096 163.15611267 C41.68867706 164.08225121 41.68867706 164.08225121 41.85644531 165.02709961 C50.33432264 213.40770997 51.86989651 262.36826154 52.75 311.375 C53.41 311.375 54.07 311.375 54.75 311.375 C55.41 313.025 56.07 314.675 56.75 316.375 C55.43 316.375 54.11 316.375 52.75 316.375 C52.73382629 317.02596146 52.71765259 317.67692291 52.70098877 318.34761047 C51.40198347 369.82250719 48.90924278 420.92935272 40.71118164 471.84130859 C36.9004455 495.63154527 33.68801429 519.49456883 30.49694824 543.37475586 C29.34296956 552.00803386 28.18454412 560.64071243 27.02342796 569.27303314 C26.62399797 572.24829852 26.22706246 575.2238887 25.83039856 578.19952393 C21.02088736 614.13087916 21.02088736 614.13087916 8.75 629.375 C8.31816406 629.95894531 7.88632813 630.54289062 7.44140625 631.14453125 C2.12125931 638.12147135 -5.32573177 642.87660643 -13.25 646.375 C-15.0134375 647.2103125 -15.0134375 647.2103125 -16.8125 648.0625 C-28.63869968 652.57795806 -45.4354555 651.94192816 -57.09765625 647.22265625 C-64.6675811 643.76786122 -70.38270389 639.22103779 -76.25 633.375 C-76.91902344 632.76269531 -77.58804688 632.15039062 -78.27734375 631.51953125 C-80.75677018 628.82407559 -82.52512103 625.85932279 -84.3125 622.6875 C-84.65087891 622.11322266 -84.98925781 621.53894531 -85.33789062 620.94726562 C-89.61040828 613.4517656 -91.63810407 605.87693862 -92.33178711 597.31665039 C-92.40918845 596.45923532 -92.48658979 595.60182024 -92.56633663 594.71842289 C-93.51381948 583.92728005 -94.23247698 573.11750614 -94.94140625 562.30859375 C-95.09306089 560.01880173 -95.24474931 557.72901195 -95.39646912 555.43922424 C-95.71245174 550.65487961 -96.02541276 545.8703476 -96.33666992 541.08569336 C-96.64992636 536.27767432 -96.96897435 531.4700996 -97.29370117 526.6628418 C-99.03079342 500.92906564 -100.51537025 475.25379198 -100.96534729 449.46270752 C-101.17836061 437.28947485 -101.72134978 425.19676281 -102.75 413.0625 C-104.23005063 394.75920725 -105.23235268 376.50639017 -105.4609375 358.140625 C-105.48253937 356.47601982 -105.48253937 356.47601982 -105.50457764 354.77778625 C-105.56181247 350.22086504 -105.6172122 345.66409422 -105.65136719 341.10693359 C-105.67874478 337.72202446 -105.72447579 334.33778113 -105.7734375 330.953125 C-105.77669037 329.91690002 -105.77994324 328.88067505 -105.78329468 327.81304932 C-105.79986115 326.86315125 -105.81642761 325.91325317 -105.83349609 324.93457031 C-105.84158295 324.09935852 -105.8496698 323.26414673 -105.85800171 322.40362549 C-105.98736115 321.73417908 -106.11672058 321.06473267 -106.25 320.375 C-107.24 319.715 -108.23 319.055 -109.25 318.375 C-108.59 316.395 -107.93 314.415 -107.25 312.375 C-106.59 312.375 -105.93 312.375 -105.25 312.375 C-105.26571045 311.75423584 -105.2814209 311.13347168 -105.29760742 310.49389648 C-105.69252769 291.73934949 -104.90628249 273.09898183 -103.875 254.375 C-103.81178558 253.20661591 -103.74857117 252.03823181 -103.68344116 250.83444214 C-103.06100442 239.44862554 -102.36035288 228.09544737 -101.2109375 216.75 C-100.35400887 208.12546924 -100.05248029 199.54559525 -99.86328125 190.8828125 C-99.36119008 169.02070866 -97.62170572 147.23375732 -95.97631836 125.43359375 C-95.52330461 119.42576617 -95.08741947 113.41682949 -94.6559248 107.40742302 C-94.31470201 102.68956197 -93.96280123 97.97253962 -93.6080265 93.25568008 C-93.44303868 91.04208735 -93.28151858 88.82823267 -93.12392235 86.61410141 C-89.62787836 37.78280875 -89.62787836 37.78280875 -76.25 18.375 C-75.72664062 17.60542969 -75.20328125 16.83585938 -74.6640625 16.04296875 C-57.41499444 -7.7251133 -25.14756041 -15.26702336 0 0 Z " fill="#060504" transform="translate(1090.25,654.625)"/>
<path d="M0 0 C24.42 0 48.84 0 74 0 C84.88623959 23.32765627 87.91876335 42.55654448 87.66707563 67.93526554 C87.63650181 71.71406561 87.64176496 75.49285856 87.64233398 79.27175903 C87.6386928 85.7900086 87.61356203 92.30787448 87.57324982 98.8259964 C87.51515183 108.25391998 87.49298907 117.68167605 87.47943112 127.10975668 C87.45665011 142.41898201 87.40858692 157.72801227 87.34277344 173.03710938 C87.27904001 187.88149049 87.22242439 202.72585777 87.17871094 217.5703125 C87.17600379 218.48771415 87.17329664 219.40511581 87.17050746 220.35031751 C87.14123432 230.3633078 87.11477291 240.37630257 87.09164047 250.38930893 C87.08858532 251.70815673 87.08858532 251.70815673 87.08546846 253.05364792 C87.07736594 256.56753075 87.06929302 260.0814136 87.06157967 263.59529731 C87.03894447 273.87439902 87.00754701 284.1533851 86.96028802 294.43240461 C86.93091893 300.8639045 86.90795924 307.29540444 86.89007643 313.7269465 C86.87942319 317.4379455 86.86528676 321.14885345 86.84233856 324.85979843 C86.81750659 328.87710666 86.80796391 332.89430545 86.79986572 336.91168213 C86.78994732 338.08985386 86.78002892 339.26802559 86.76980996 340.4818995 C86.77023282 342.09142357 86.77023282 342.09142357 86.77066422 343.73346329 C86.76665234 344.66064108 86.76264046 345.58781888 86.75850701 346.54309297 C87.0157715 349.16045644 87.79900816 350.69417227 89 353 C88.86328125 356.28271484 88.86328125 356.28271484 88.3125 360.2109375 C88.21509521 360.92316971 88.11769043 361.63540192 88.01733398 362.36921692 C87.69240755 364.70674009 87.34748354 367.04073064 87 369.375 C86.88462891 370.17467194 86.76925781 370.97434387 86.65039062 371.79824829 C85.03639177 382.97962103 83.18488038 394.10354434 81 405.1875 C80.77570313 406.33460449 80.55140625 407.48170898 80.3203125 408.66357422 C78.39598924 418.01627176 75.72081823 426.74921803 73 436 C49.24 436 25.48 436 1 436 C-2.32179341 427.69551647 -4.81005262 419.86478311 -6.9375 411.25 C-7.10919708 410.56334259 -7.28089417 409.87668518 -7.45779419 409.16921997 C-11.16920973 394.24680549 -13.77087061 379.21304471 -16 364 C-16.17232934 363.02445821 -16.34465868 362.04891642 -16.52221012 361.04381275 C-17.26423596 355.80221673 -17.12312876 350.54087113 -17.0901947 345.25822449 C-17.08637911 344.11455231 -17.08256351 342.97088013 -17.0786323 341.79255122 C-17.02047246 329.1492835 -16.79811115 316.50926225 -16.55688477 303.8684082 C-16.50905086 301.2682582 -16.46141912 298.66810446 -16.41397095 296.06794739 C-16.29940666 289.81260999 -16.18225399 283.55732385 -16.06404395 277.30205438 C-15.96791636 272.21366937 -15.87267438 267.12526848 -15.77802849 262.0368557 C-15.7644404 261.30646319 -15.75085232 260.57607068 -15.73685248 259.82354506 C-15.70923259 258.33886893 -15.68161332 256.85419279 -15.65399467 255.36951663 C-15.39647892 241.53328144 -15.13582955 227.69710662 -14.87418371 213.860949 C-14.63556336 201.23720239 -14.40091925 188.61338548 -14.16812576 175.98953018 C-13.92791097 162.96518973 -13.68501713 149.94090174 -13.43925327 136.91666478 C-13.30178181 129.62892875 -13.16533631 122.34117716 -13.03170967 115.05336952 C-12.90620166 108.21010399 -12.77690304 101.36691871 -12.6451149 94.52377129 C-12.59751935 92.02254674 -12.551132 89.52129886 -12.50608253 87.02002716 C-12.28265465 74.65419682 -12.03002428 62.32903024 -11 50 C-11.66 50 -12.32 50 -13 50 C-12.01099269 42.07088964 -10.18715897 34.41287874 -8.1875 26.6875 C-7.95144043 25.76445068 -7.71538086 24.84140137 -7.47216797 23.89038086 C-5.33095054 15.76037984 -2.67555589 8.02666766 0 0 Z " fill="#A5421E" transform="translate(1025,757)"/>
<path d="M0 0 C13.2 0 26.4 0 40 0 C50.88623959 23.32765627 53.91876335 42.55654448 53.66707563 67.93526554 C53.63650181 71.71406561 53.64176496 75.49285856 53.64233398 79.27175903 C53.6386928 85.7900086 53.61356203 92.30787448 53.57324982 98.8259964 C53.51515183 108.25391998 53.49298907 117.68167605 53.47943112 127.10975668 C53.45665011 142.41898201 53.40858692 157.72801227 53.34277344 173.03710938 C53.27904001 187.88149049 53.22242439 202.72585777 53.17871094 217.5703125 C53.17600379 218.48771415 53.17329664 219.40511581 53.17050746 220.35031751 C53.14123432 230.3633078 53.11477291 240.37630257 53.09164047 250.38930893 C53.08858532 251.70815673 53.08858532 251.70815673 53.08546846 253.05364792 C53.07736594 256.56753075 53.06929302 260.0814136 53.06157967 263.59529731 C53.03894447 273.87439902 53.00754701 284.1533851 52.96028802 294.43240461 C52.93091893 300.8639045 52.90795924 307.29540444 52.89007643 313.7269465 C52.87942319 317.4379455 52.86528676 321.14885345 52.84233856 324.85979843 C52.81750659 328.87710666 52.80796391 332.89430545 52.79986572 336.91168213 C52.78994732 338.08985386 52.78002892 339.26802559 52.76980996 340.4818995 C52.77023282 342.09142357 52.77023282 342.09142357 52.77066422 343.73346329 C52.76665234 344.66064108 52.76264046 345.58781888 52.75850701 346.54309297 C53.0157715 349.16045644 53.79900816 350.69417227 55 353 C54.86328125 356.28271484 54.86328125 356.28271484 54.3125 360.2109375 C54.21509521 360.92316971 54.11769043 361.63540192 54.01733398 362.36921692 C53.69240755 364.70674009 53.34748354 367.04073064 53 369.375 C52.88462891 370.17467194 52.76925781 370.97434387 52.65039062 371.79824829 C51.03639177 382.97962103 49.18488038 394.10354434 47 405.1875 C46.77570313 406.33460449 46.55140625 407.48170898 46.3203125 408.66357422 C44.39598924 418.01627176 41.72081823 426.74921803 39 436 C15.24 436 -8.52 436 -33 436 C-34.98 431.05 -34.98 431.05 -37 426 C-36.34 425.67 -35.68 425.34 -35 425 C-34.26649129 423.30217238 -34.26649129 423.30217238 -33.69140625 421.20703125 C-31.80262388 415.21230295 -29.3559436 409.48432198 -26.9375 403.6875 C-21.14945887 389.61914401 -15.92065716 375.39458326 -11 361 C-10.59426758 359.82083008 -10.18853516 358.64166016 -9.77050781 357.42675781 C13.27235458 289.94278412 27.73956794 217.81907111 27.39111328 146.36816406 C27.37392316 142.81584498 27.38428253 139.26419588 27.40143585 135.7118988 C27.57315362 93.69467815 24.2301882 42.42734346 -1.1640625 7.04296875 C-2 5 -2 5 0 0 Z " fill="#8C3819" transform="translate(1059,757)"/>
<path d="M0 0 C6.72796542 7.30464817 10.72255525 15.98970663 10.43359375 25.984375 C9.32552349 36.74848605 4.17563968 44.38164355 -4.0703125 51.125 C-6.50389474 52.87106797 -9.08953204 54.14318116 -11.8125 55.375 C-12.1425 55.705 -12.4725 56.035 -12.8125 56.375 C-11.8225 56.890625 -10.8325 57.40625 -9.8125 57.9375 C-8.8225 58.741875 -7.8325 59.54625 -6.8125 60.375 C-6.8125 62.685 -6.8125 64.995 -6.8125 67.375 C-17.0425 67.375 -27.2725 67.375 -37.8125 67.375 C-37.8125 68.035 -37.8125 68.695 -37.8125 69.375 C-32.97297165 69.4799075 -28.13896232 69.51817907 -23.29833984 69.49707031 C-21.65531735 69.4990067 -20.01221108 69.51855557 -18.36962891 69.55664062 C-8.6237695 70.0223222 -8.6237695 70.0223222 -0.03198242 66.24023438 C1.99671567 63.70805179 3.59251025 61.1948976 5.1875 58.375 C6.39380764 56.77418239 7.61975761 55.18774172 8.875 53.625 C9.39449219 52.94953125 9.91398437 52.2740625 10.44921875 51.578125 C12.1875 49.375 12.1875 49.375 14.828125 46.51953125 C18.66315255 41.40827765 18.65317701 36.35334577 17.83642578 30.22216797 C15.32765783 19.21492497 9.86466272 8.60007381 5.1875 -1.625 C10.15096192 -1.625 12.79481098 2.00739556 16.1875 5.375 C26.52435856 16.32898445 33.1875 32.2690803 33.1875 47.375 C32.42824219 47.61734375 31.66898438 47.8596875 30.88671875 48.109375 C29.89285156 48.44453125 28.89898438 48.7796875 27.875 49.125 C26.39580078 49.61226562 26.39580078 49.61226562 24.88671875 50.109375 C21.9217803 51.49959216 20.83273553 52.58502131 19.1875 55.375 C18.15042529 58.48622414 18.08768454 60.80147037 18 64.0625 C17.4287634 71.55204652 14.48400104 75.45524193 9 80.3125 C-4.15224586 85.28112621 -22.39426893 82.6446412 -36.125 81.625 C-37.58341309 81.53255005 -37.58341309 81.53255005 -39.07128906 81.43823242 C-44.72865003 80.9618387 -48.30396116 80.0997467 -52.8125 76.375 C-53.42738281 75.91480469 -54.04226563 75.45460938 -54.67578125 74.98046875 C-58.80275916 70.94248228 -59.21998638 67.52477793 -59.5 61.8125 C-59.50580078 59.92337891 -59.50580078 59.92337891 -59.51171875 57.99609375 C-59.83770533 54.07155404 -60.75348769 51.70649194 -62.8125 48.375 C-65.95591993 46.80329004 -69.37021451 47.14324217 -72.8125 47.375 C-74.2975 47.87 -74.2975 47.87 -75.8125 48.375 C-75.74018284 33.00760437 -67.57573512 17.85732721 -57 7.125 C-45.05500237 -4.625 -45.05500237 -4.625 -39.8125 -4.625 C-41.49499582 -0.56721597 -44.32936849 2.48571296 -47.1875 5.75 C-50.72518942 9.7984788 -53.91986022 13.83725703 -56.8125 18.375 C-56.07 17.611875 -55.3275 16.84875 -54.5625 16.0625 C-52.3861677 13.9356298 -50.29082204 12.1190044 -47.8125 10.375 C-48.1425 11.6125 -48.4725 12.85 -48.8125 14.125 C-50.11421773 19.87272546 -49.99105667 25.5123892 -49.8125 31.375 C-49.4825 31.045 -49.1525 30.715 -48.8125 30.375 C-48.84536009 28.56172045 -48.91461408 26.7490661 -49 24.9375 C-49.05145376 16.27268622 -46.46246327 9.2617051 -40.51171875 2.90625 C-28.3812642 -8.02510215 -13.73285525 -7.93453859 0 0 Z " fill="#87341F" transform="translate(1080.8125,659.625)"/>
<path d="M0 0 C3.33962056 0.27830171 4.67444173 0.64143284 6.96484375 3.1640625 C21.88137993 23.94986916 25.34678096 54.14631891 28.5 78.9375 C28.60672028 79.77056671 28.71344055 80.60363342 28.82339478 81.46194458 C29.4718416 86.54237924 30.1029157 91.62474154 30.72076416 96.70898438 C30.97212334 98.77128347 31.22865914 100.83295004 31.48583984 102.89453125 C40.29261334 175.10012274 38.96277787 251.75904624 31 324 C30.85634524 325.35377884 30.7132892 326.70762134 30.57080078 328.06152344 C21.09144216 417.56656283 21.09144216 417.56656283 0 436 C-0.66 436 -1.32 436 -2 436 C-1.78085938 435.19304687 -1.56171875 434.38609375 -1.3359375 433.5546875 C11.6726519 383.74130858 15.93871418 332.70026771 19.80725098 281.53381348 C19.96842203 279.41511325 20.13536384 277.29685305 20.30371094 275.17871094 C22.2410707 249.13366038 22.16154537 223.0046473 22.13037109 196.90527344 C22.12464993 192.0748751 22.12808698 187.24453151 22.13379765 182.41413498 C22.19533364 153.69147231 22.19533364 153.69147231 21 125 C20.9421936 124.07753479 20.88438721 123.15506958 20.8248291 122.20465088 C20.38371389 115.29786844 19.86919317 108.39837058 19.3125 101.5 C19.18619705 99.93023911 19.18619705 99.93023911 19.05734253 98.32876587 C15.22538641 51.43792549 15.22538641 51.43792549 2.015625 6.53125 C1.14170141 4.35316351 0.49655194 2.28845676 0 0 Z " fill="#A5421E" transform="translate(1103,757)"/>
<path d="M0 0 C0.99 0 1.98 0 3 0 C3.33 0.66 3.66 1.32 4 2 C15.88 2 27.76 2 40 2 C40 5.3 40 8.6 40 12 C32.56711955 12.10789665 25.27931346 11.92229528 17.87890625 11.22265625 C13.58310743 10.89041672 9.305295 10.9142751 5 11 C7.97 11.495 7.97 11.495 11 12 C9.04783565 13.95216435 7.46800047 14.84826645 5 16 C6.051875 15.67 7.10375 15.34 8.1875 15 C16.3665833 12.97345351 24.63989961 12.62133065 32 17 C38.49416239 21.79835738 44.30685466 26.863496 46 35 C47.24504151 45.5383871 46.43006589 54.12730128 40 63 C34.65732481 68.98222194 28.312045 74.29270968 20.18359375 75.375 C10.65231265 75.76452873 3.49440302 73.33545418 -3.875 67.3125 C-12.09558992 59.3969143 -12.68509959 51.06874948 -13 40 C-13.33 43.63 -13.66 47.26 -14 51 C-19.1369863 44.15068493 -19.1369863 44.15068493 -18.6875 40.375 C-18 38 -18 38 -17 36 C-17.99 36.495 -17.99 36.495 -19 37 C-19.79351642 33.44921443 -19.82184351 30.55526777 -19 27 C-16.13614152 22.80667145 -12.82734805 19.17334417 -9.359375 15.47607422 C-7.58240145 13.54655158 -5.96143204 11.52552453 -4.375 9.4375 C-3.92898438 8.85871094 -3.48296875 8.27992187 -3.0234375 7.68359375 C-1.88167037 5.80534324 -1.463417 4.13783882 -1 2 C-0.67 1.34 -0.34 0.68 0 0 Z " fill="#040404" transform="translate(1039,1221)"/>
<path d="M0 0 C2.64 0 5.28 0 8 0 C7.33405467 3.85398151 6.20813216 7.32726506 4.875 11 C-6.47538072 44.25758635 -10.83337356 80.15075824 -14 115 C-14.13849365 116.42940918 -14.13849365 116.42940918 -14.27978516 117.88769531 C-21.58564568 193.57904306 -19.18276817 270.60619162 -10 346 C-9.84450684 347.28696777 -9.68901367 348.57393555 -9.52880859 349.89990234 C-7.63788394 364.91606872 -4.54483404 379.73288849 -1.5625 394.5625 C-1.37522339 395.50066559 -1.18794678 396.43883118 -0.99499512 397.40542603 C1.0667251 407.67335602 3.31497596 417.78457701 6.45420837 427.78334045 C7.35062749 430.65010831 8 432.97367277 8 436 C2.64270714 434.28349807 1.18769624 431.90092878 -1.46484375 427.125 C-41.38776304 345.8569709 -29.74666476 218.6081284 -21.39111328 108.71728516 C-20.9840914 104.84879874 -20.61211466 100.97803675 -20.24609375 97.10546875 C-19.99842671 94.54937907 -19.7497721 91.99338484 -19.5 89.4375 C-19.39373291 88.32600586 -19.28746582 87.21451172 -19.17797852 86.06933594 C-18.32016408 77.70047576 -16.93793119 69.47859483 -15.40771484 61.21243286 C-15.00256548 59.0139214 -14.60737599 56.81383331 -14.21484375 54.61303711 C-6.90932198 13.81864396 -6.90932198 13.81864396 0 0 Z " fill="#A4411E" transform="translate(1014,757)"/>
<path d="M0 0 C0.82915421 -0.0033284 1.65830841 -0.0066568 2.5125885 -0.01008606 C4.27018684 -0.01514554 6.02779477 -0.01749469 7.78540039 -0.01733398 C10.43197258 -0.01949798 13.07811214 -0.03760108 15.72460938 -0.05664062 C42.69717432 -0.14800841 42.69717432 -0.14800841 51.53515625 6.16796875 C54.0986347 8.80265493 55.71884621 11.51285453 57.41015625 14.73046875 C59.49573116 18.42652622 61.66340081 20.26861702 65.53515625 22.16796875 C68.53685331 22.74767457 71.48746443 22.99707014 74.53515625 23.16796875 C74.9863586 41.0175336 71.06798696 58.80636124 59.16015625 72.54296875 C57.64042713 74.10626515 56.09915283 75.64896022 54.53515625 77.16796875 C53.82488281 77.88726563 53.11460938 78.6065625 52.3828125 79.34765625 C41.72302819 89.56408606 29.48894915 93.62597255 14.9765625 93.4375 C9.34218769 92.99621525 3.97283554 91.66310806 -1.46484375 90.16796875 C-1.46484375 89.50796875 -1.46484375 88.84796875 -1.46484375 88.16796875 C-0.4068457 88.24128418 0.65115234 88.31459961 1.74121094 88.39013672 C5.72043627 88.64626617 9.69896553 88.80515402 13.68408203 88.93701172 C15.39789776 89.0068255 17.1108975 89.10193891 18.82177734 89.22412109 C28.56144109 90.10046303 28.56144109 90.10046303 37.45397949 86.84231567 C40.92790635 83.58784355 43.61243893 79.87301802 46.25527954 75.9344635 C48.30901705 73.09988068 50.78057865 70.79581481 53.28515625 68.35546875 C58.07718701 62.48561877 59.05996389 57.14839137 58.3984375 49.81640625 C57.07717933 41.1114267 53.21323441 33.08998325 49.53515625 25.16796875 C48.72111328 23.36585937 48.72111328 23.36585937 47.890625 21.52734375 C47.06025015 19.69908328 46.21583685 17.87701973 45.34765625 16.06640625 C44.53515625 14.16796875 44.53515625 14.16796875 44.53515625 12.16796875 C30.34515625 12.16796875 16.15515625 12.16796875 1.53515625 12.16796875 C0.87515625 13.48796875 0.21515625 14.80796875 -0.46484375 16.16796875 C-1.48280158 17.58791726 -2.53667754 18.98251931 -3.6171875 20.35546875 C-4.22884766 21.13664062 -4.84050781 21.9178125 -5.47070312 22.72265625 C-6.10814453 23.52960938 -6.74558594 24.3365625 -7.40234375 25.16796875 C-8.66169769 26.77194752 -9.92082026 28.37610798 -11.1796875 29.98046875 C-12.01681274 31.04201172 -12.01681274 31.04201172 -12.87084961 32.125 C-13.96755668 33.53061262 -15.02402495 34.96825527 -16.04516602 36.4296875 C-16.51365967 37.00332031 -16.98215332 37.57695313 -17.46484375 38.16796875 C-18.12484375 38.16796875 -18.78484375 38.16796875 -19.46484375 38.16796875 C-19.71928369 50.73094099 -17.06325146 59.77026883 -11.51806641 70.96484375 C-9.82570965 74.50490573 -8.39201108 78.13966622 -6.96484375 81.79296875 C-6.71001221 82.4389502 -6.45518066 83.08493164 -6.19262695 83.75048828 C-5.61336992 85.22167526 -5.03854272 86.69460548 -4.46484375 88.16796875 C-11.44318118 86.24360864 -15.40129907 82.14282077 -20.46484375 77.16796875 C-21.109375 76.54792969 -21.75390625 75.92789062 -22.41796875 75.2890625 C-34.60142774 62.58423927 -36.81296575 47.1081015 -36.53515625 30.24609375 C-36.50035156 28.72242188 -36.50035156 28.72242188 -36.46484375 27.16796875 C-35.34464844 26.87019531 -34.22445312 26.57242187 -33.0703125 26.265625 C-29.08425212 25.05210066 -28.3795936 24.72393277 -26.46484375 21.16796875 C-25.85647816 19.75310016 -25.25283324 18.33619799 -24.65234375 16.91796875 C-21.94753381 10.63783532 -18.28346859 4.93685075 -12.46484375 1.16796875 C-8.34962094 -0.08297046 -4.26503102 0.00599536 0 0 Z " fill="#87341F" transform="translate(1037.46484375,1208.83203125)"/>
<path d="M0 0 C0.89203125 0.03609375 1.7840625 0.0721875 2.703125 0.109375 C3.71632813 0.17898438 3.71632813 0.17898438 4.75 0.25 C6.97254207 3.89275568 7.24434669 7.36309478 7.6875 11.5625 C8.31390428 16.95462954 9.22685206 21.42310829 11.75 26.25 C12.08 27.24 12.41 28.23 12.75 29.25 C14.60513787 30.24437748 14.60513787 30.24437748 16.875 30.875 C17.99261719 31.23464844 17.99261719 31.23464844 19.1328125 31.6015625 C25.17890568 33.09954976 31.30314935 33.49871906 37.5 33.8125 C38.31839355 33.8542334 39.13678711 33.8959668 39.97998047 33.93896484 C45.94507199 34.21781381 51.90357361 34.35534931 57.875 34.375 C59.00953613 34.38188843 59.00953613 34.38188843 60.16699219 34.38891602 C70.78756696 34.68533204 70.78756696 34.68533204 80.125 30.5 C80.75148438 30.01015625 81.37796875 29.5203125 82.0234375 29.015625 C86.15524525 24.79033743 87.10782098 21.12130339 87.625 15.3125 C88.36915742 9.29617648 89.18781897 6.2419084 93.75 2.25 C96.96451269 0.64274365 100.18612536 1.19251815 103.75 1.25 C103.85546143 2.34127197 103.96092285 3.43254395 104.06958008 4.55688477 C104.56252181 9.64255346 105.06124934 14.72764392 105.5625 19.8125 C105.69730774 21.18098587 105.69730774 21.18098587 105.83483887 22.57711792 C106.98920853 34.24251018 108.20977362 45.88047742 109.88598633 57.48461914 C110.54505846 62.13230159 110.87605602 66.55441322 110.75 71.25 C108.57514832 69.07514832 108.08461107 67.73321106 107.0625 64.875 C104.41929143 58.03258083 100.98414897 50.48414897 95.75 45.25 C93.79488066 44.92010236 93.79488066 44.92010236 91.52368164 44.93115234 C90.64008972 44.91128769 89.7564978 44.89142303 88.84613037 44.87095642 C87.87725891 44.85940018 86.90838745 44.84784393 85.91015625 44.8359375 C84.89624817 44.81652603 83.88234009 44.79711456 82.83770752 44.77711487 C79.49605906 44.71631532 76.15439211 44.6702765 72.8125 44.625 C70.51390877 44.58710721 68.21532476 44.54877361 65.91674805 44.51000977 C44.52838445 44.16996996 23.1403373 44.14182511 1.75 44.25 C-1.12372501 50.33843135 -3.38279726 56.4105803 -5.25 62.875 C-5.50563721 63.74817871 -5.76127441 64.62135742 -6.0246582 65.52099609 C-6.77392698 68.09523753 -7.5125731 70.67234612 -8.25 73.25 C-8.55236572 74.28447266 -8.55236572 74.28447266 -8.86083984 75.33984375 C-11.8332054 85.53081135 -13.66584991 95.77300738 -15.25 106.25 C-15.58 106.25 -15.91 106.25 -16.25 106.25 C-16.35231844 97.94364129 -16.10909467 89.76692526 -15.3984375 81.4921875 C-15.21229108 79.21068727 -15.02711708 76.92910754 -14.84277344 74.64746094 C-14.7452478 73.44939819 -14.64772217 72.25133545 -14.54724121 71.01696777 C-14.13177565 65.7517309 -13.76254572 60.48354253 -13.39361572 55.21490479 C-13.05396915 50.36973876 -12.69720709 45.5258719 -12.33743668 40.68216324 C-12.07475061 37.13538683 -11.81935516 33.58834438 -11.578125 30.04003906 C-11.3389526 26.52691309 -11.08198217 23.01550342 -10.81254196 19.50457382 C-10.66728493 17.55114795 -10.54053799 15.59637369 -10.41421509 13.64163208 C-10.32086884 12.46454681 -10.22752258 11.28746155 -10.13134766 10.07470703 C-10.05743805 9.04282257 -9.98352844 8.01093811 -9.90737915 6.94778442 C-8.56637087 1.44448962 -5.40648272 -0.28455172 0 0 Z " fill="#73220A" transform="translate(1012.25,709.75)"/>
<path d="M0 0 C6.72796542 7.30464817 10.72255525 15.98970663 10.43359375 25.984375 C9.31753728 36.82606643 4.10428448 44.11958617 -3.90625 51.1484375 C-10.50019803 55.39126472 -18.27832686 55.27173474 -25.8125 54.375 C-34.96440222 51.4566912 -41.41511713 46.37873331 -46.12109375 38.0625 C-49.88247662 29.94103663 -50.22996922 21.48681604 -47.1875 13.0625 C-43.05557403 4.0473888 -36.60849337 -1.37100258 -27.4375 -4.9375 C-17.28055304 -6.86381753 -8.97312738 -5.1844736 0 0 Z " fill="#0E0E0E" transform="translate(1080.8125,659.625)"/>
<path d="M0 0 C0.99 0.33 1.98 0.66 3 1 C3.10022461 1.5576001 3.20044922 2.1152002 3.30371094 2.68969727 C8.15191956 34.86474516 8.15191956 34.86474516 24.18359375 62.15234375 C26 64 26 64 26 66 C36.68396087 66.03152931 47.36717941 66.02533654 58.05107117 65.97153378 C63.01261165 65.94772162 67.97348151 65.93670241 72.93505859 65.95532227 C77.7271137 65.97282856 82.51796647 65.95620407 87.30987549 65.91632271 C89.13419524 65.90705806 90.95861966 65.90990779 92.78289795 65.92530632 C104.14416217 66.38385691 104.14416217 66.38385691 114.0456543 61.66015625 C116.98255486 58.42562485 118.98280671 55.02015774 120.8125 51.0625 C121.09746338 50.45712402 121.38242676 49.85174805 121.67602539 49.22802734 C123.68596828 44.89776145 125.46390127 40.51793744 127 36 C128.14224686 39.47432478 127.88764152 42.1797677 127.37915039 45.77832031 C127.13878807 47.51967255 127.13878807 47.51967255 126.89356995 49.29620361 C126.62334267 51.1682547 126.62334267 51.1682547 126.34765625 53.078125 C126.16867294 54.35983582 125.98968964 55.64154663 125.80528259 56.96209717 C125.33030825 60.36279192 124.84620028 63.76212531 124.36016846 67.16125488 C123.8654408 70.63276807 123.37937647 74.10549267 122.89257812 77.578125 C121.93685308 84.38662623 120.97147186 91.19372828 120 98 C115.64224251 99.22199257 113.44027672 98.53842695 109.36328125 96.63671875 C105.59115274 94.02428595 103.49457431 90.38121391 100.94140625 86.62890625 C95.56128739 79.34355416 87.8497883 77.70344722 79.22528076 76.28161621 C72.34447591 75.41082893 65.36213844 75.56165849 58.43896484 75.60888672 C55.60856837 75.62509409 52.77957443 75.60889187 49.94921875 75.58984375 C48.12499689 75.5918244 46.3007759 75.59566439 44.4765625 75.6015625 C43.22632797 75.59245346 43.22632797 75.59245346 41.95083618 75.5831604 C35.8889173 75.65525937 29.72677644 76.38852066 25.15234375 80.76953125 C24.75144531 81.44371094 24.35054687 82.11789062 23.9375 82.8125 C23.23560547 83.98039062 23.23560547 83.98039062 22.51953125 85.171875 C19.54129859 90.71490957 16.72644129 96.32932477 14 102 C12.02 102 10.04 102 8 102 C6.23208811 97.39744827 5.63988351 93.16537115 5.47265625 88.28125 C5.42254898 87.14884384 5.42254898 87.14884384 5.37142944 85.99356079 C5.29935489 84.35492771 5.23092331 82.71613118 5.16574097 81.07720947 C4.98722392 76.6208793 4.77823778 72.16597754 4.5703125 67.7109375 C4.5269426 66.77192596 4.48357269 65.83291443 4.43888855 64.865448 C3.90695625 53.6101701 3.1780086 42.36816089 2.4375 31.125 C2.34131882 29.64422974 2.34131882 29.64422974 2.24319458 28.13354492 C2.05888626 25.29981558 1.87184866 22.46628215 1.68359375 19.6328125 C1.60242813 18.39127914 1.60242813 18.39127914 1.5196228 17.12466431 C1.13258906 11.40291967 0.60064601 5.70314826 0 0 Z " fill="#73220B" transform="translate(993,1131)"/>
<path d="M0 0 C1.875 0.3125 1.875 0.3125 4 1 C8.12627654 7.18941481 7.14679978 15.16578412 7.1328125 22.36328125 C7.13424759 24.0205146 7.13424759 24.0205146 7.13571167 25.71122742 C7.13639118 28.05545102 7.13455289 30.39967652 7.13037109 32.74389648 C7.12511678 36.23490962 7.13027274 39.72578825 7.13671875 43.21679688 C7.14416401 63.97298227 6.8543767 84.77828394 4.6875 105.4375 C4.55851318 106.68466797 4.42952637 107.93183594 4.29663086 109.21679688 C3.49536637 116.53453985 2.51899031 123.78240945 1.0625 131 C0.91707764 131.74048584 0.77165527 132.48097168 0.62182617 133.24389648 C-0.43823437 137.99370769 -2.13356529 141.17010812 -5 145 C-7.3125 144.8125 -7.3125 144.8125 -10 144 C-13.15701339 140.0058323 -13.42809771 136.4039862 -13.36328125 131.4921875 C-13.36464081 130.75100677 -13.36600037 130.00982605 -13.36740112 129.2461853 C-13.36591155 126.78874005 -13.34045179 124.33227788 -13.3125 121.875 C-13.30175153 120.1337896 -13.29109247 118.39257865 -13.28051758 116.65136719 C-13.06264376 91.10490106 -11.82090453 65.55301983 -9.80020142 40.08679199 C-9.68646591 38.65096291 -9.57621439 37.21485202 -9.47006226 35.77844238 C-8.8821958 27.98448986 -7.84468274 20.44311373 -6.1484375 12.8203125 C-5.99766754 12.11260712 -5.84689758 11.40490173 -5.69155884 10.67575073 C-4.63365232 6.23700784 -3.09821407 3.33984396 0 0 Z " fill="#C78973" transform="translate(1031,918)"/>
<path d="M0 0 C0.33 0 0.66 0 1 0 C1.16134266 27.66860906 0.71764732 55.32102994 0.2252152 82.98457408 C0.13715299 87.94917771 0.05087626 92.91381181 -0.03546149 97.87844568 C-0.23888599 109.57160161 -0.44546664 121.26469877 -0.65405273 132.95776367 C-0.85699041 144.33749526 -1.05511699 155.71730027 -1.25006884 167.09717112 C-1.43971617 178.16453753 -1.63294752 189.23183694 -1.82977968 200.29907805 C-1.93981652 206.48860092 -2.04843643 212.67814047 -2.15348625 218.86775017 C-2.25189026 224.65722235 -2.35481042 230.44659649 -2.46128654 236.23592567 C-2.49961221 238.36162823 -2.53631079 240.48736082 -2.57129288 242.61312103 C-2.619133 245.50491019 -2.67275299 248.39653489 -2.72789001 251.28819275 C-2.74054097 252.13561647 -2.75319192 252.98304019 -2.76622623 253.85614341 C-2.83398547 257.14207574 -2.95399882 259.86199647 -4 263 C-4.66 263 -5.32 263 -6 263 C-9.39188131 220.72281702 -10.38364969 178.59676402 -10.3125 136.1875 C-10.31111023 134.97139542 -10.30972046 133.75529083 -10.30828857 132.50233459 C-10.29863274 124.32829912 -10.27386625 116.15442976 -10.23828125 107.98046875 C-10.23470423 106.91296827 -10.2311272 105.8454678 -10.22744179 104.74561882 C-10.21590658 101.73945332 -10.19761759 98.73341025 -10.17700195 95.72729492 C-10.17432312 94.85443974 -10.17164429 93.98158455 -10.16888428 93.08227921 C-10.12419501 87.96888354 -9.70961049 83.06434422 -9 78 C-8.82346189 75.70338051 -8.66840838 73.4050058 -8.53515625 71.10546875 C-8.42022827 69.19193604 -8.42022827 69.19193604 -8.30297852 67.23974609 C-8.26391388 66.57803406 -8.22484924 65.91632202 -8.18460083 65.23455811 C-7.21504795 48.97970476 -5.72765027 32.88261248 -3.5 16.75 C-3.38148682 15.87972168 -3.26297363 15.00944336 -3.14086914 14.11279297 C-2.44305884 9.2551237 -1.46849708 4.68399932 0 0 Z " fill="#823C23" transform="translate(1009,820)"/>
<path d="M0 0 C0.99 0 1.98 0 3 0 C3.33 0.66 3.66 1.32 4 2 C15.88 2 27.76 2 40 2 C40 5.3 40 8.6 40 12 C32.56711955 12.10789665 25.27931346 11.92229528 17.87890625 11.22265625 C13.58310743 10.89041672 9.305295 10.9142751 5 11 C7.97 11.495 7.97 11.495 11 12 C9.04783565 13.95216435 7.46800047 14.84826645 5 16 C6.051875 15.67 7.10375 15.34 8.1875 15 C16.3665833 12.97345351 24.63989961 12.62133065 32 17 C38.49416239 21.79835738 44.30685466 26.863496 46 35 C47.24504151 45.5383871 46.43006589 54.12730128 40 63 C34.65732481 68.98222194 28.312045 74.29270968 20.18359375 75.375 C10.65231265 75.76452873 3.49440302 73.33545418 -3.875 67.3125 C-12.09558992 59.3969143 -12.68509959 51.06874948 -13 40 C-13.33 43.63 -13.66 47.26 -14 51 C-19.1369863 44.15068493 -19.1369863 44.15068493 -18.6875 40.375 C-18 38 -18 38 -17 36 C-17.99 36.495 -17.99 36.495 -19 37 C-19.79351642 33.44921443 -19.82184351 30.55526777 -19 27 C-16.13614152 22.80667145 -12.82734805 19.17334417 -9.359375 15.47607422 C-7.58240145 13.54655158 -5.96143204 11.52552453 -4.375 9.4375 C-3.92898438 8.85871094 -3.48296875 8.27992187 -3.0234375 7.68359375 C-1.88167037 5.80534324 -1.463417 4.13783882 -1 2 C-0.67 1.34 -0.34 0.68 0 0 Z M-0.3125 28.0625 C-5.17349873 33.9665083 -7.46171755 40.00801917 -6.875 47.6875 C-5.7406786 54.52963012 -3.33761022 59.4926847 2 64 C8.38370038 68.50165326 13.03660519 70.52218982 21 70 C28.41295899 68.4518068 33.58775777 65.24006431 38.3203125 59.359375 C42.30259676 52.95430242 41.89821051 45.24927419 41 38 C38.8365309 31.61926163 33.41498182 26.79458954 28 23 C18.13446132 18.20270251 7.15599892 20.37673566 -0.3125 28.0625 Z " fill="#717171" transform="translate(1039,1221)"/>
<path d="M0 0 C0.33 0 0.66 0 1 0 C2.82597677 10.21329673 4.2387256 20.38630164 5.03125 30.734375 C5.11559296 31.81869308 5.19993591 32.90301117 5.28683472 34.02018738 C6.12348571 45.10895816 6.69372314 56.20122165 7.125 67.3125 C7.16702545 68.37317688 7.2090509 69.43385376 7.25234985 70.52667236 C8.33722218 98.67738619 8.29362811 126.8338316 8 155 C7.99033203 155.93245544 7.98066406 156.86491089 7.97070312 157.82562256 C7.54205124 195.89080336 5.64615933 234.20824955 1 272 C0.34 272 -0.32 272 -1 272 C-0.67 182.24 -0.34 92.48 0 0 Z " fill="#823C24" transform="translate(1115,822)"/>
<path d="M0 0 C1 2 1 2 0.0625 4.875 C-1.599171 10.12766471 -1.16099034 15.55316026 -1 21 C-0.34 21 0.32 21 1 21 C1.35191406 21.79664063 1.70382812 22.59328125 2.06640625 23.4140625 C6.38866113 32.69054687 10.78468962 38.26744392 20.3125 42.25390625 C25.74738527 43.76271887 31.38792934 43.84033938 37 44 C36.505 44.99 36.505 44.99 36 46 C36.99 46.515625 37.98 47.03125 39 47.5625 C39.99 48.366875 40.98 49.17125 42 50 C42 52.31 42 54.62 42 57 C31.77 57 21.54 57 11 57 C11 57.66 11 58.32 11 59 C8.36 59 5.72 59 3 59 C1.04727753 54.39573815 -0.89630699 49.78821123 -2.8203125 45.171875 C-4.12250888 42.05439167 -5.45987166 38.96196576 -6.8671875 35.890625 C-10.52088381 27.73193699 -12.60165891 19.98915546 -11 11 C-9.62109375 9.265625 -9.62109375 9.265625 -8 8 C-7.175 7.175 -6.35 6.35 -5.5 5.5 C-3.66666667 3.66666667 -1.83333333 1.83333333 0 0 Z " fill="#020101" transform="translate(1032,670)"/>
<path d="M0 0 C6.72796542 7.30464817 10.72255525 15.98970663 10.43359375 25.984375 C9.31753728 36.82606643 4.10428448 44.11958617 -3.90625 51.1484375 C-10.50019803 55.39126472 -18.27832686 55.27173474 -25.8125 54.375 C-34.96440222 51.4566912 -41.41511713 46.37873331 -46.12109375 38.0625 C-49.88247662 29.94103663 -50.22996922 21.48681604 -47.1875 13.0625 C-43.05557403 4.0473888 -36.60849337 -1.37100258 -27.4375 -4.9375 C-17.28055304 -6.86381753 -8.97312738 -5.1844736 0 0 Z M-39.25 7.8125 C-39.765625 8.658125 -40.28125 9.50375 -40.8125 10.375 C-41.369375 11.261875 -41.92625 12.14875 -42.5 13.0625 C-45.26247692 20.03446557 -45.5097382 26.34584243 -42.75 33.34375 C-39.74276946 39.85941618 -36.07889969 43.14529503 -29.8125 46.375 C-23.5136886 48.4746038 -15.49004343 48.58560109 -9.375 45.8125 C-3.10388634 42.05512388 1.06698353 36.32558177 3.1875 29.375 C4.17744463 22.13984909 2.96205642 15.65190858 -0.8125 9.375 C-5.30142387 4.30504631 -9.95572826 0.85520094 -16.79296875 0.00390625 C-25.82264702 -0.18306638 -32.71704592 1.27954592 -39.25 7.8125 Z " fill="#717171" transform="translate(1080.8125,659.625)"/>
<path d="M0 0 C13.2 0 26.4 0 40 0 C41.5675 3.403125 43.135 6.80625 44.75 10.3125 C45.2356543 11.36091064 45.72130859 12.40932129 46.22167969 13.48950195 C57.4929389 38.12990527 57.4929389 38.12990527 54 50 C50.79862132 55.89197249 45.86852843 60.48019661 41 65 C40.47825195 65.4959668 39.95650391 65.99193359 39.41894531 66.50292969 C36.68500609 69.09192846 33.87997291 71.57540742 31 74 C30.67 74.33 30.34 74.66 30 75 C28.33382885 75.04063832 26.66611905 75.042721 25 75 C25.37502444 72.39721847 25.71650247 71.25365569 27.70703125 69.47265625 C28.40183594 69.00730469 29.09664062 68.54195312 29.8125 68.0625 C35.98680251 63.6381335 40.00648081 58.38715233 42 51 C43.05338536 41.62583674 43.01233827 32.77577236 37 25 C32.07345768 19.72601618 27.41307891 15.38871679 19.984375 14.734375 C13.33475867 14.76649875 7.42374133 15.25796845 1 17 C3 14 3 14 6 13 C3.525 12.01 3.525 12.01 1 11 C1 10.67 1 10.34 1 10 C9.11857178 9.85307599 17.10138252 10.29891893 25.1875 11 C26.90163086 11.14308594 26.90163086 11.14308594 28.65039062 11.2890625 C31.43396138 11.52199729 34.21711439 11.75904088 37 12 C37 8.7 37 5.4 37 2 C24.79 2.33 12.58 2.66 0 3 C0 2.01 0 1.02 0 0 Z " fill="#020101" transform="translate(1042,1221)"/>
<path d="M0 0 C4.94894266 4.58682491 7.10586445 8.51951973 7.61328125 15.18359375 C7.54387447 18.17876323 6.7528988 20.6440851 5.5625 23.375 C4.9025 23.375 4.2425 23.375 3.5625 23.375 C3.253125 24.24125 3.253125 24.24125 2.9375 25.125 C0.97801398 28.33143167 -1.12875885 29.62698581 -4.4375 31.375 C-10.256208 32.23703081 -14.71871629 30.7191815 -19.4375 27.375 C-23.59177821 22.2620422 -24.87108778 18.10278054 -24.78515625 11.53515625 C-23.9819671 6.54455402 -20.90970257 2.76060241 -17.3125 -0.625 C-11.4549741 -2.66240031 -5.61018206 -2.65208606 0 0 Z " fill="#5B5C57" transform="translate(1065.4375,1256.625)"/>
<path d="M0 0 C0.99 0 1.98 0 3 0 C3.33 0.66 3.66 1.32 4 2 C15.88 2 27.76 2 40 2 C40 5.3 40 8.6 40 12 C32.56711955 12.10789665 25.27931346 11.92229528 17.87890625 11.22265625 C13.58310743 10.89041672 9.305295 10.9142751 5 11 C7.97 11.495 7.97 11.495 11 12 C9.04783565 13.95216435 7.46800047 14.84826645 5 16 C5 16.66 5 17.32 5 18 C3.4609375 18.97265625 3.4609375 18.97265625 1.375 20.0625 C-3.66380562 23.08934436 -6.13958681 26.96669133 -9 32 C-9.60521484 32.97646484 -9.60521484 32.97646484 -10.22265625 33.97265625 C-13.34927623 39.43023306 -13.77156935 44.78668639 -14 51 C-19.143277 44.20352682 -19.143277 44.20352682 -18.6875 40.375 C-18 38 -18 38 -17 36 C-17.99 36.495 -17.99 36.495 -19 37 C-19.79351642 33.44921443 -19.82184351 30.55526777 -19 27 C-16.13614152 22.80667145 -12.82734805 19.17334417 -9.359375 15.47607422 C-7.58240145 13.54655158 -5.96143204 11.52552453 -4.375 9.4375 C-3.92898438 8.85871094 -3.48296875 8.27992187 -3.0234375 7.68359375 C-1.88167037 5.80534324 -1.463417 4.13783882 -1 2 C-0.67 1.34 -0.34 0.68 0 0 Z " fill="#030303" transform="translate(1039,1221)"/>
<path d="M0 0 C2.8125 1.3125 2.8125 1.3125 5 3 C5.5775 3.391875 6.155 3.78375 6.75 4.1875 C8.83130621 7.20539401 9.09820078 10.43203849 9 14 C7.81698306 18.24494313 6.88982796 20.32203584 3.375 23 C-1.03474904 24.30659231 -4.5891901 24.34842439 -9 23 C-12.24044458 20.43464804 -13.69560167 18.913195 -15 15 C-15.3711875 9.98896872 -15.11788946 7.00871501 -12 3 C-8.6133738 -0.6374874 -4.70835464 -0.70343944 0 0 Z " fill="#5C5C58" transform="translate(1063,666)"/>
<path d="M0 0 C5.45713761 4.04447433 8.29726433 9.24375342 9.66015625 15.85546875 C10.10156933 22.25029928 7.3450958 27.16075575 4.1875 32.5625 C3.8575 31.9025 3.5275 31.2425 3.1875 30.5625 C3.6825 29.5725 3.6825 29.5725 4.1875 28.5625 C4.69327159 22.06528029 5.08411175 16.07150282 1.1875 10.5625 C-2.41475807 6.50995967 -4.51500815 4.74269544 -10 4.3125 C-16.41518782 4.73316805 -20.9207494 6.16361116 -25.25 11.0625 C-28.86205202 15.55049924 -29.37790071 19.91791626 -28.8125 25.5625 C-27.98186757 28.9574686 -26.94987857 32.25868605 -25.8125 35.5625 C-30.73416048 31.30592878 -33.17622397 27.05129662 -34.09765625 20.55078125 C-34.41185286 13.59747357 -32.35520134 7.90504835 -27.6875 2.75 C-19.74600909 -4.52553779 -9.26496764 -5.40840565 0 0 Z " fill="#909090" transform="translate(1068.8125,1248.4375)"/>
<path d="M0 0 C3.70384557 3.33346101 5.61427859 6.00189266 6.2578125 11.00390625 C6.64527625 18.43029472 4.32961875 24.17993519 -0.375 29.875 C-5.89680914 34.34503597 -11.59878231 36.52205319 -18.71484375 36.40234375 C-24.2334062 35.43069942 -29.17250679 32.21552259 -32.7109375 27.92578125 C-36.7129631 21.66827879 -37.50358118 16.35462752 -37 9 C-36 5.875 -36 5.875 -35 4 C-34.1089459 6.6731623 -33.88649383 8.43324955 -33.75 11.1875 C-33.1780023 16.35230278 -31.60984372 20.2105195 -28 24 C-22.9805167 27.33692242 -18.02821135 28.7672269 -12 28 C-5.80099491 26.56030784 -2.59461801 24.22853529 1 19 C3.08708012 12.73875963 2.54971958 6.055584 0 0 Z " fill="#929292" transform="translate(1076,669)"/>
<path d="M0 0 C11.88 0 23.76 0 36 0 C36 3.3 36 6.6 36 10 C24.24855547 10.39910566 12.67755012 9.1823775 1 8 C0.67 5.36 0.34 2.72 0 0 Z " fill="#5B5C57" transform="translate(1043,1223)"/>
<path d="M0 0 C1.83984375 0.54296875 1.83984375 0.54296875 4 2 C5.0326934 4.47202812 5.838035 6.75369938 6.5625 9.3125 C8.13482792 14.68300019 8.13482792 14.68300019 10.62890625 19.6796875 C13.27896322 24.1643993 12.59227589 29.41201188 11.4609375 34.35546875 C10.41833914 37.50044953 9.58720366 39.59734606 6.8125 41.5 C5.9153125 41.7475 5.9153125 41.7475 5 42 C1.19031041 38.22086942 1.48989455 34.23875671 1.375 29.1875 C1.32325687 27.61838972 1.26860814 26.04937235 1.2109375 24.48046875 C1.16972778 23.33856079 1.16972778 23.33856079 1.12768555 22.17358398 C0.94645713 19.08854271 0.43735714 16.05794424 0 13 C-0.06400078 10.68829193 -0.08633991 8.37497096 -0.0625 6.0625 C-0.05347656 4.91910156 -0.04445313 3.77570313 -0.03515625 2.59765625 C-0.02355469 1.74042969 -0.01195312 0.88320312 0 0 Z " fill="#A87667" transform="translate(1001,1175)"/>
<path d="M0 0 C0.66 0.33 1.32 0.66 2 1 C3.2637863 4.79135889 3.16194722 8.35403819 3.16796875 12.3046875 C3.1721582 13.13208939 3.17634766 13.95949127 3.18066406 14.81196594 C3.19046669 17.49969193 3.19045163 20.18725906 3.1875 22.875 C3.18722809 23.78504791 3.18695618 24.69509583 3.18667603 25.63272095 C3.13429222 63.52129593 3.13429222 63.52129593 -2 78 C-2.99 78.495 -2.99 78.495 -4 79 C-5.14074116 74.7503375 -4.79896114 71.38785337 -4.125 67.0625 C-1.67100572 51.18066375 -1.71949078 35.13643042 -1.44775391 19.10522461 C-1.39630446 16.14688159 -1.33906186 13.18869319 -1.28125 10.23046875 C-1.26767456 9.31710251 -1.25409912 8.40373627 -1.2401123 7.46269226 C-1.11308574 1.11308574 -1.11308574 1.11308574 0 0 Z " fill="#C78972" transform="translate(1131,992)"/>
<path d="M0 0 C4.96622349 -0.02465098 9.93241166 -0.04283649 14.89868164 -0.05493164 C16.58944316 -0.0599719 18.28020029 -0.06680405 19.97094727 -0.07543945 C22.39600707 -0.08751857 24.82100944 -0.09323123 27.24609375 -0.09765625 C28.38672523 -0.10539818 28.38672523 -0.10539818 29.55039978 -0.11329651 C31.3673257 -0.11349238 33.18413127 -0.06197277 35 0 C36 1 36 1 36 8 C24.12 8 12.24 8 0 8 C0 5.36 0 2.72 0 0 Z " fill="#5B5C57" transform="translate(1038,719)"/>
<path d="M0 0 C0.99 0.33 1.98 0.66 3 1 C1.35729636 8.54616983 -1.7411893 12.53511593 -8 17 C-13.73277911 19.86638956 -21.58390284 19.16385461 -27.875 19.125 C-28.68509521 19.12161621 -29.49519043 19.11823242 -30.32983398 19.11474609 C-64.24954831 18.83363446 -64.24954831 18.83363446 -73 13 C-77 7.94736842 -77 7.94736842 -77 4 C-74.08246466 5.3163717 -72.08072933 6.7597735 -69.8125 9 C-57.89341963 19.29147485 -30.6456768 15.60359161 -15.6875 14.75 C-11.22359282 14.24556467 -8.40052408 13.06876563 -5 10 C-2.53236595 6.79874501 -0.62110978 4.03721354 0 0 Z " fill="#020100" transform="translate(1098,726)"/>
<path d="M0 0 C1 2 1 2 0.0625 4.875 C-1.599171 10.12766471 -1.16099034 15.55316026 -1 21 C-0.34 21 0.32 21 1 21 C1.35191406 21.79664063 1.70382812 22.59328125 2.06640625 23.4140625 C5.96669476 31.7849167 9.62107556 37.01177832 18 41 C17 44 17 44 16 45 C14.48071962 45.07179964 12.95832518 45.08392007 11.4375 45.0625 C10.61121094 45.05347656 9.78492188 45.04445313 8.93359375 45.03515625 C8.29550781 45.02355469 7.65742187 45.01195312 7 45 C-7.69968548 16.6079679 -7.69968548 16.6079679 -8 9 C-6.34765625 6.54296875 -6.34765625 6.54296875 -4.0625 4.1875 C-3.31097656 3.39730469 -2.55945312 2.60710938 -1.78515625 1.79296875 C-1.19605469 1.20128906 -0.60695313 0.60960937 0 0 Z " fill="#090A09" transform="translate(1032,670)"/>
<path d="M0 0 C0.33 0 0.66 0 1 0 C1.65752232 5.15282795 1.61207035 8.84226452 -1.6328125 13.0625 C-2.77600479 14.39321753 -3.94103076 15.7054288 -5.125 17 C-6.32460594 18.38282732 -7.52125441 19.76822612 -8.71484375 21.15625 C-9.28702637 21.81367187 -9.85920898 22.47109375 -10.44873047 23.1484375 C-12.92666171 26.10604382 -14.96153877 29.29530891 -16.94921875 32.59375 C-17.29597656 33.0578125 -17.64273437 33.521875 -18 34 C-18.66 34 -19.32 34 -20 34 C-20.69178354 29.48419079 -20.92897361 25.62115003 -18.60546875 21.56640625 C-16.49516394 18.94894061 -14.27266827 16.47798721 -12 14 C-10.50525679 12.2492175 -9.02845192 10.48424034 -7.55200195 8.71801758 C-1.58399748 1.58399748 -1.58399748 1.58399748 0 0 Z " fill="#595A55" transform="translate(1096,693)"/>
<path d="M0 0 C3.77941867 0.27995694 6.12831184 1.34949962 9.375 3.25 C9.045 3.91 8.715 4.57 8.375 5.25 C7.715 4.92 7.055 4.59 6.375 4.25 C4.75334248 4.12851695 3.12615673 4.07456348 1.5 4.0625 C0.63632813 4.04832031 -0.22734375 4.03414062 -1.1171875 4.01953125 C-5.15924394 4.3909975 -6.97592608 5.54794045 -9.73046875 8.52734375 C-10.41753906 9.40519531 -11.10460938 10.28304688 -11.8125 11.1875 C-12.50730469 12.06277344 -13.20210937 12.93804688 -13.91796875 13.83984375 C-16.92396248 18.08400424 -17.1303004 22.20541765 -16.625 27.25 C-15.79436757 30.6449686 -14.76237857 33.94618605 -13.625 37.25 C-18.54666048 32.99342878 -20.98872397 28.73879662 -21.91015625 22.23828125 C-22.22730378 15.21966848 -20.10838468 9.53791893 -15.4375 4.3125 C-10.6108605 -0.15849238 -6.21443667 0.42858184 0 0 Z " fill="#939393" transform="translate(1056.625,1246.75)"/>
<path d="M0 0 C0.99 0.33 1.98 0.66 3 1 C2.98839844 1.67546875 2.97679687 2.3509375 2.96484375 3.046875 C2.95582031 3.93890625 2.94679688 4.8309375 2.9375 5.75 C2.92589844 6.63171875 2.91429687 7.5134375 2.90234375 8.421875 C2.99259156 10.80441731 3.40089448 12.7087644 4 15 C4.13671105 16.51696689 4.21908019 18.03969915 4.25 19.5625 C4.28867187 20.70912109 4.28867187 20.70912109 4.328125 21.87890625 C4 24 4 24 2.734375 25.83984375 C1 27 1 27 -1.046875 26.90234375 C-4.12992859 25.47797299 -4.861906 23.3978117 -6.25 20.41015625 C-7.52967975 16.29785206 -7.3139823 12.25620449 -7 8 C-6.34 8 -5.68 8 -5 8 C-4.731875 7.236875 -4.46375 6.47375 -4.1875 5.6875 C-3.05575888 3.12619116 -2.08776599 1.80307062 0 0 Z " fill="#A87566" transform="translate(1013,715)"/>
<path d="M0 0 C3.17112356 1.34532515 3.72270345 2.68500821 5.0625 5.875 C6.92472565 16.17829767 6.92472565 16.17829767 4.0625 20.875 C0.02097594 20.64183515 -2.27552764 20.4521041 -5.375 17.75 C-7.36595712 14.0866389 -7.43590106 12.00460876 -6.9375 7.875 C-6.1454157 5.33225804 -5.17907834 3.26265066 -3.9375 0.875 C-1.9375 -0.125 -1.9375 -0.125 0 0 Z " fill="#C68670" transform="translate(1033.9375,881.125)"/>
<path d="M0 0 C0.66 0.33 1.32 0.66 2 1 C2.45621329 6.17802082 1.46898305 8.41377119 -1.75 12.4375 C-2.55953125 13.46230469 -3.3690625 14.48710938 -4.203125 15.54296875 C-4.87118164 16.36740479 -4.87118164 16.36740479 -5.55273438 17.20849609 C-7.13152563 19.16280956 -8.68383962 21.13648659 -10.234375 23.11328125 C-11.32201984 24.492895 -12.41055077 25.87181069 -13.5 27.25 C-14.02819336 27.91829834 -14.55638672 28.58659668 -15.10058594 29.27514648 C-16.3766508 30.86939298 -17.68516926 32.43757127 -19 34 C-19.33 34 -19.66 34 -20 34 C-20.79322274 30.45052854 -20.81816045 27.5544526 -20 24 C-17.15709358 19.81629019 -13.85953247 16.21166313 -10.40234375 12.53222656 C-7.85127191 9.74487857 -5.62159304 6.71403092 -3.33984375 3.70703125 C-2 2 -2 2 0 0 Z " fill="#5C5D58" transform="translate(1040,1224)"/>
<path d="M0 0 C2.88737883 1.44368941 3.11967208 3.27293913 4.25 6.25 C4.62640625 7.20390625 5.0028125 8.1578125 5.390625 9.140625 C6.12804085 12.60080705 5.6665561 13.92289491 4 17 C3.04840308 18.38860746 2.04776124 19.74494023 1 21.0625 C-0.53578802 23.00143237 -1.86212411 24.69086123 -2.87109375 26.953125 C-4.44648316 29.8095404 -6.61069554 31.5531954 -9.0625 33.6875 C-9.96097656 34.47511719 -10.85945313 35.26273438 -11.78515625 36.07421875 C-12.51605469 36.70972656 -13.24695312 37.34523438 -14 38 C-14.495 38.495 -14.495 38.495 -15 39 C-16.66617115 39.04063832 -18.33388095 39.042721 -20 39 C-19.62497556 36.39721847 -19.28349753 35.25365569 -17.29296875 33.47265625 C-16.59816406 33.00730469 -15.90335938 32.54195312 -15.1875 32.0625 C-8.45047812 27.23150388 -5.49170721 21.36979186 -2 14 C-1.34 14 -0.68 14 0 14 C0 9.38 0 4.76 0 0 Z " fill="#030303" transform="translate(1087,1257)"/>
<path d="M0 0 C4.42326378 1.35155282 6.40412982 3.19890438 9 7 C10.67561557 12.02684672 10.57826653 16.28540388 8.4375 21.125 C6.0980863 25.30020361 3.49957861 28.20182586 -1 30 C-6.18286064 30.86253793 -11.16359128 30.79878818 -15.9375 28.4375 C-20.26299911 24.99475581 -22.54658453 21.94953774 -23.37890625 16.53515625 C-23.65014468 10.7166544 -22.74514025 7.44735405 -19 3 C-19 6 -19 6 -20 9 C-20.50171564 15.12093081 -20.08833623 18.1167095 -16 23 C-13.1058937 25.99746724 -10.16274764 26.68906027 -6.02734375 27.06640625 C-2.7613363 26.9594272 -0.67233753 25.80227415 2 24 C4.94265179 20.75293595 5.918002 18.08647349 6.25 13.6875 C5.87092379 8.09612584 3.46459704 4.2895011 0 0 Z " fill="#BABABA" transform="translate(1067,665)"/>
<path d="M0 0 C3.44061164 3.85348504 4.90566667 8.4885247 6.6875 13.25 C7.00783203 14.09046875 7.32816406 14.9309375 7.65820312 15.796875 C8.44454323 17.86248483 9.22491769 19.93014538 10 22 C10.38999191 14.40237976 9.60758587 8.15533979 7 1 C7.66 1 8.32 1 9 1 C13.43210716 9.05298041 15.34044955 18.97164152 13 28 C10.55941571 32.73683296 6.8742644 36.4093871 3 40 C2.34 39.34 1.68 38.68 1 38 C1.91845703 37.07380859 1.91845703 37.07380859 2.85546875 36.12890625 C7.45225561 31.48324864 7.45225561 31.48324864 8.8984375 25.47265625 C8.08820999 23.19720423 7.1055585 21.1443663 6 19 C5.67 17.68 5.34 16.36 5 15 C4.67 19.29 4.34 23.58 4 28 C3.34 28 2.68 28 2 28 C1.96261719 27.01 1.92523437 26.02 1.88671875 25 C1.55372743 17.8682103 1.07782966 11.55711537 -2 5 C-1.01 5 -0.02 5 1 5 C0.67 3.35 0.34 1.7 0 0 Z " fill="#030202" transform="translate(1083,1243)"/>
<path d="M0 0 C3.79433026 2.08479684 6.2519749 4.73160961 8.4375 8.4375 C9.4574184 13.08379494 9.48303111 16.70344282 7.8125 21.1875 C5.01850708 25.52300625 2.62366826 27.54898104 -2.375 28.9375 C-6.79918058 29.01377898 -9.16660455 28.20065294 -13 26 C-16.64772945 22.46508693 -18.87877301 19.43047844 -19.3125 14.3125 C-19.24264358 9.50987122 -17.81198578 6.87598039 -15 3 C-10.76924168 -0.85745612 -5.44091903 -1.05089402 0 0 Z M-16 7 C-17.36562792 11.09688375 -17.81508236 14.79839167 -16.28125 18.94140625 C-14.84218649 21.72088778 -13.4009928 23.72503351 -10.8125 25.5 C-5.26547437 26.48613789 -0.73944357 26.15962904 4 23 C6.63322398 19.05016403 7.3090541 15.72165985 7 11 C5.5797027 7.73331621 3.73781644 5.2815137 1 3 C-6.49309213 0.50230262 -10.71223371 1.45429389 -16 7 Z " fill="#040404" transform="translate(1065,664)"/>
<path d="M0 0 C4.94894266 4.58682491 7.10586445 8.51951973 7.61328125 15.18359375 C7.54387447 18.17876323 6.7528988 20.6440851 5.5625 23.375 C4.5625 20.375 4.5625 20.375 5.25 17.1875 C5.6554103 12.24149434 4.38468865 9.37836026 1.5625 5.375 C-2.00631009 2.11208791 -5.55233835 1.85247744 -10.22265625 2.0234375 C-14.76288214 2.74410828 -17.45584655 5.19701586 -20.3125 8.625 C-22.09996464 12.99435801 -22.22211126 16.892865 -20.81640625 21.33984375 C-19.10336397 24.94103931 -17.32330839 26.77572719 -13.625 28.3125 C-9.79742913 29.49021411 -6.41726171 29.62373511 -2.4375 29.375 C-4.4375 31.375 -4.4375 31.375 -7.5625 31.75 C-12.25762521 31.29563304 -15.59244731 30.09997213 -19.4375 27.375 C-23.59177821 22.2620422 -24.87108778 18.10278054 -24.78515625 11.53515625 C-23.9819671 6.54455402 -20.90970257 2.76060241 -17.3125 -0.625 C-11.4549741 -2.66240031 -5.61018206 -2.65208606 0 0 Z " fill="#B8B8B8" transform="translate(1065.4375,1256.625)"/>
<path d="M0 0 C3.75692575 4.68166551 5.83466029 9.9564911 8.1875 15.4375 C8.65091797 16.45521484 9.11433594 17.47292969 9.59179688 18.52148438 C12.87881065 26.20409241 13.58570342 32.68436365 13 41 C9.37535518 37.37535518 8.02622345 32.19748289 6.14941406 27.49047852 C5.38748667 25.59358677 4.60052732 23.70843277 3.8125 21.82226562 C0.80861861 14.30858877 -0.80821715 8.10201144 0 0 Z " fill="#595A55" transform="translate(1081,1226)"/>
<path d="M0 0 C4.36129438 1.89913782 6.58499446 4.29967815 9 8.375 C10.11203654 12.40613247 10.04784365 14.96983212 9 19 C8.34 19.33 7.68 19.66 7 20 C7.0928125 18.205625 7.0928125 18.205625 7.1875 16.375 C7.17278786 12.21882059 6.36405429 9.50532188 4 6 C1.11067212 3.59222677 -0.69478136 3.03884601 -4.4375 2.5625 C-8.73866297 3.090713 -10.76049769 4.137184 -14 7 C-16.32318497 11.5453619 -16.27168806 15.09491748 -15 20 C-12.50545712 23.29636023 -10.0065427 24.99836432 -6 26 C-3.26710039 25.86259164 -0.70784676 25.45895708 2 25 C1.67 25.99 1.34 26.98 1 28 C-4.74196667 29.31586736 -8.81600383 28.95262391 -14 26 C-17.68685075 22.21861462 -18.87984501 19.46589086 -19.3125 14.1875 C-19.23978205 9.78402422 -17.90966369 7.36908427 -15 4 C-10.30368683 -0.15023025 -6.06649846 -1.20274926 0 0 Z " fill="#050505" transform="translate(1062,1258)"/>
<path d="M0 0 C3.85852878 3.85852878 5.4819304 9.4850511 7.625 14.4375 C8.140625 15.57638672 8.65625 16.71527344 9.1875 17.88867188 C12.33255997 25.17306342 13.77711142 31.06523057 13 39 C10.11020666 37.55510333 9.85997972 35.6883934 8.65234375 32.72265625 C8.21212891 31.65208984 7.77191406 30.58152344 7.31835938 29.47851562 C6.86267578 28.35123047 6.40699219 27.22394531 5.9375 26.0625 C5.03035235 23.8448866 4.12281963 21.62743067 3.21484375 19.41015625 C2.81386475 18.42152588 2.41288574 17.43289551 1.99975586 16.41430664 C1.38172516 14.92182664 0.72242072 13.44484145 0 12 C-0.07065617 9.95944995 -0.08421976 7.91665743 -0.0625 5.875 C-0.05347656 4.77929688 -0.04445313 3.68359375 -0.03515625 2.5546875 C-0.02355469 1.71164062 -0.01195312 0.86859375 0 0 Z " fill="#575853" transform="translate(1023,685)"/>
<path d="M0 0 C5.53890913 3.38488891 7.36285339 7.9564907 9 14 C10.27801928 21.64444868 8.35771765 27.66547309 4 34 C-0.24100643 38.67573374 -4.66323018 41.79066689 -11.11328125 42.1953125 C-12.69689453 42.16050781 -12.69689453 42.16050781 -14.3125 42.125 C-15.38113281 42.10695313 -16.44976563 42.08890625 -17.55078125 42.0703125 C-18.76314453 42.03550781 -18.76314453 42.03550781 -20 42 C-20 41.34 -20 40.68 -20 40 C-18.83984375 39.85304688 -18.83984375 39.85304688 -17.65625 39.703125 C-9.71269888 38.5627142 -2.91292758 37.5261755 2.375 31.125 C5.49876754 25.11775473 6.95669948 19.75384274 6 13 C4.59458306 9.12184478 2.92258673 5.92258673 0 3 C0 2.01 0 1.02 0 0 Z " fill="#050505" transform="translate(1075,665)"/>
<path d="M0 0 C1.875 0.3125 1.875 0.3125 4 1 C4.66 1.99 5.32 2.98 6 4 C8.17528363 4.32612375 8.17528363 4.32612375 10.5625 4.125 C12.04055167 4.05405352 13.52025793 4.00579155 15 4 C15.33 4.33 15.66 4.66 16 5 C15.6875 8.5 15.6875 8.5 15 12 C12.09704195 13.45147903 10.22738221 13.37239025 7 13 C2.91129176 10.24798484 0.15800514 7.88935505 -1 3 C-0.67 2.01 -0.34 1.02 0 0 Z " fill="#979895" transform="translate(1051,675)"/>
<path d="M0 0 C0.66 0 1.32 0 2 0 C1.47483747 7.35227537 -0.10602805 13.17837735 -5.5 18.4375 C-7.75962489 19.84976556 -9.38559915 20.61268136 -12 21 C-12.33 19.68 -12.66 18.36 -13 17 C-12.54109375 16.67128906 -12.0821875 16.34257813 -11.609375 16.00390625 C-6.48394039 12.03061766 -4.17031136 8.06608765 -2 2 C-1.34 2 -0.68 2 0 2 C0 1.34 0 0.68 0 0 Z " fill="#9C9C9C" transform="translate(1085,687)"/>
<path d="M0 0 C0.78375 0.04125 1.5675 0.0825 2.375 0.125 C3.09903222 2.94068086 3.44200596 4.81975062 2.8125 7.6875 C2.29268302 10.58362317 2.83681103 11.68199399 4.375 14.125 C1.625 14.4375 1.625 14.4375 -1.625 14.125 C-4.0625 12.0625 -4.0625 12.0625 -5.625 9.125 C-5.32427243 0.25353678 -5.32427243 0.25353678 0 0 Z " fill="#979895" transform="translate(1055.625,1265.875)"/>
<path d="M0 0 C0.99 0.33 1.98 0.66 3 1 C4.61371538 5.84114615 4.97689633 11.18611383 3.28125 16.0703125 C0.57857584 21.10513292 -2.78256061 24.07606692 -8 26.25 C-10.81646501 26.95411625 -13.11480631 27.16971728 -16 27 C-16 26.34 -16 25.68 -16 25 C-15.40832031 24.84144531 -14.81664062 24.68289063 -14.20703125 24.51953125 C-7.536225 22.54984784 -3.9709289 20.12630101 -0.1875 14.125 C1.62556288 9.35378189 1.55282722 4.85258507 0 0 Z " fill="#040404" transform="translate(1075,671)"/>
<path d="M0 0 C0.66 0 1.32 0 2 0 C4.81657588 5.4078257 5.58628166 9.06346107 4 15 C2.625 18.4375 2.625 18.4375 1 21 C0.01 21.33 -0.98 21.66 -2 22 C-1.9278125 21.32195312 -1.855625 20.64390625 -1.78125 19.9453125 C-1.21124462 14.2294252 -0.91754665 8.64221416 -1.0625 2.8984375 C-1 1 -1 1 0 0 Z " fill="#B48072" transform="translate(1104,1238)"/>
<path d="M0 0 C2.88737883 1.44368941 3.11967208 3.27293913 4.25 6.25 C4.62640625 7.20390625 5.0028125 8.1578125 5.390625 9.140625 C6.13515052 12.63416782 5.73114766 13.9086649 4 17 C2.0546875 19.45703125 2.0546875 19.45703125 -0.125 21.8125 C-0.84945313 22.60269531 -1.57390625 23.39289063 -2.3203125 24.20703125 C-2.87460938 24.79871094 -3.42890625 25.39039063 -4 26 C-4.33 25.34 -4.66 24.68 -5 24 C-4.02616054 22.31791365 -3.02304948 20.65261839 -2 19 C-0.71867971 15.2002226 -0.66653445 11.22243357 -0.4375 7.25 C-0.39431641 6.55261719 -0.35113281 5.85523438 -0.30664062 5.13671875 C-0.20110404 3.42468078 -0.1001009 1.71236439 0 0 Z " fill="#636460" transform="translate(1087,1257)"/>
<path d="M0 0 C1.36884778 2.73769555 0.3507797 4.15736256 -0.51074219 6.94970703 C-1.37863665 10.58672184 -1.20783378 14.21953782 -1.125 17.9375 C-1.11146484 19.10635742 -1.11146484 19.10635742 -1.09765625 20.29882812 C-1.07433691 22.19935447 -1.03847586 24.09972008 -1 26 C-3.45403559 23.00140897 -4.94472572 20.12087155 -6.3125 16.5 C-6.67988281 15.5615625 -7.04726562 14.623125 -7.42578125 13.65625 C-8 11 -8 11 -7.30078125 8.890625 C-5.92669479 6.89345429 -4.48136184 5.06588729 -2.875 3.25 C-2.33617187 2.63640625 -1.79734375 2.0228125 -1.2421875 1.390625 C-0.62730469 0.70226562 -0.62730469 0.70226562 0 0 Z " fill="#575853" transform="translate(1032,670)"/>
<path d="M0 0 C0.845625 0.495 1.69125 0.99 2.5625 1.5 C2.2325 2.16 1.9025 2.82 1.5625 3.5 C0.9025 3.17 0.2425 2.84 -0.4375 2.5 C-6.65154994 1.795433 -11.32865675 2.37188462 -16.74609375 5.52734375 C-18.4375 6.5 -18.4375 6.5 -21.4375 7.5 C-21.375 5.75 -21.375 5.75 -20.4375 3.5 C-14.17324579 -1.12169912 -7.4240261 -3.23957503 0 0 Z " fill="#BABABA" transform="translate(1063.4375,1248.5)"/>
<path d="M0 0 C0.99 0 1.98 0 3 0 C3.33449533 1.64559756 3.66756499 3.29148498 4 4.9375 C4.2784375 6.31228516 4.2784375 6.31228516 4.5625 7.71484375 C5 10 5 10 5 11 C7.97 11.495 7.97 11.495 11 12 C8.84733158 14.15266842 7.15226256 14.93474462 4.375 16.125 C3.55773438 16.47820312 2.74046875 16.83140625 1.8984375 17.1953125 C1.27195312 17.46085937 0.64546875 17.72640625 0 18 C0.875 11.125 0.875 11.125 2 10 C2.04080783 8.00041636 2.04254356 5.99954746 2 4 C1.01 4.33 0.02 4.66 -1 5 C-1 2 -1 2 0 0 Z " fill="#0B0A09" transform="translate(1039,1221)"/>
<path d="M0 0 C0.66 0 1.32 0 2 0 C3.296875 1.390625 3.296875 1.390625 4.75 3.25 C6.78795304 5.73469644 8.64600944 7.611731 11.375 9.3125 C12.24125 9.869375 13.1075 10.42625 14 11 C14 11.66 14 12.32 14 13 C11.36 13 8.72 13 6 13 C4.99491199 11.21118264 3.99607264 9.41885304 3 7.625 C2.1646875 6.12839844 2.1646875 6.12839844 1.3125 4.6015625 C0 2 0 2 0 0 Z " fill="#585954" transform="translate(1033,702)"/>
<path d="M0 0 C2.97 0 5.94 0 9 0 C13.42857143 8.42857143 13.42857143 8.42857143 14 13 C13.360625 12.319375 12.72125 11.63875 12.0625 10.9375 C8.91134117 7.75901898 5.36696837 5.1350823 1.79296875 2.453125 C1.20128906 1.97359375 0.60960937 1.4940625 0 1 C0 0.67 0 0.34 0 0 Z " fill="#565753" transform="translate(1070,1235)"/>
<path d="M0 0 C4.96237667 -0.40509197 8.25977435 0.0479054 12.421875 2.64453125 C15.16124609 4.99740691 16.44628214 7.76826686 18 11 C17.01 11 16.02 11 15 11 C13.65080468 9.34614767 12.31866272 7.678298 11 6 C7.6312863 3.67674917 4.00518216 3.4621364 0 3 C0 2.01 0 1.02 0 0 Z " fill="#0B0B0B" transform="translate(1055,1252)"/>
<path d="M0 0 C1.47740847 2.95481694 0.65436719 5.14803564 0.125 8.375 C-0.05804687 9.51710938 -0.24109375 10.65921875 -0.4296875 11.8359375 C-0.86731196 14.26385404 -1.35550148 16.62121456 -2 19 C-5.97314292 12.12799744 -5.97314292 12.12799744 -6.0625 8.375 C-4.56302083 5.02322304 -2.46620559 2.71914975 0 0 Z " fill="#585954" transform="translate(1026,1253)"/>
<path d="M0 0 C0.66 0.33 1.32 0.66 2 1 C2.50423019 6.29441695 1.18923033 8.81413519 -2 13 C-2.66 12.67 -3.32 12.34 -4 12 C-4 11.01 -4 10.02 -4 9 C-4.66 8.34 -5.32 7.68 -6 7 C-4.02 4.69 -2.04 2.38 0 0 Z " fill="#595955" transform="translate(1040,1224)"/>
<path d="M0 0 C1.44037669 0.93307421 2.87718985 1.87165077 4.3125 2.8125 C5.11300781 3.33457031 5.91351562 3.85664062 6.73828125 4.39453125 C8.7237402 5.80389849 10.3491852 7.22096657 12 9 C4.62468514 9.3627204 4.62468514 9.3627204 2.0625 7.875 C0.61408488 5.31897331 0.32184417 2.89659753 0 0 Z " fill="#575853" transform="translate(1031,1287)"/>
<path d="M0 0 C2.31 0 4.62 0 7 0 C7 3.3 7 6.6 7 10 C5.35 10 3.7 10 2 10 C2.33 7.69 2.66 5.38 3 3 C2.01 2.67 1.02 2.34 0 2 C0 1.34 0 0.68 0 0 Z " fill="#5A5B56" transform="translate(1072,1223)"/>
<path d="M0 0 C2.76757806 1.1275318 4.25608767 2.26282682 6.375 4.4375 C9.08948016 7.08734968 11.55193133 8.47643477 15 10 C15 10.33 15 10.66 15 11 C9.92917009 11.69942482 9.92917009 11.69942482 7 11 C3.60472097 7.89429701 1.44747523 4.3424257 0 0 Z " fill="#A2A2A2" transform="translate(1035,1282)"/>
<path d="M0 0 C2.12493141 -0.02693575 4.24995912 -0.04636628 6.375 -0.0625 C7.55835938 -0.07410156 8.74171875 -0.08570313 9.9609375 -0.09765625 C13 0 13 0 15 1 C15 1.66 15 2.32 15 3 C9.55306686 3.09688221 4.36095333 3.12862175 -1 2 C-0.67 1.34 -0.34 0.68 0 0 Z " fill="#969794" transform="translate(1055,723)"/>
<path d="M0 0 C0.99 0.495 0.99 0.495 2 1 C2.6328125 3.06640625 2.6328125 3.06640625 3.125 5.5625 C3.29257813 6.38878906 3.46015625 7.21507812 3.6328125 8.06640625 C3.75398438 8.70449219 3.87515625 9.34257813 4 10 C3.34 10 2.68 10 2 10 C1.67 11.32 1.34 12.64 1 14 C0.67 14 0.34 14 0 14 C0 9.38 0 4.76 0 0 Z " fill="#595A55" transform="translate(1087,1257)"/>
<path d="M0 0 C3.10095424 0.0130019 6.00328533 0.1672846 9 1 C11.125 3.9375 11.125 3.9375 12 7 C11.67 7.66 11.34 8.32 11 9 C10.54109375 8.60167969 10.0821875 8.20335937 9.609375 7.79296875 C6.47728415 5.08857938 3.36122541 2.42008229 0 0 Z " fill="#51514D" transform="translate(1074,654)"/>
<path d="M0 0 C0.66 0.33 1.32 0.66 2 1 C0.62035577 2.51490346 -0.77940317 4.01150613 -2.1875 5.5 C-2.96480469 6.3353125 -3.74210937 7.170625 -4.54296875 8.03125 C-7 10 -7 10 -9.80078125 10.28125 C-10.52652344 10.1884375 -11.25226563 10.095625 -12 10 C-9.62226815 7.49914935 -7.04733058 5.41316697 -4.3125 3.3125 C-3.50425781 2.68988281 -2.69601562 2.06726562 -1.86328125 1.42578125 C-1.24839844 0.95527344 -0.63351562 0.48476562 0 0 Z " fill="#575853" transform="translate(1079,1286)"/>
<path d="M0 0 C2.31 0.33 4.62 0.66 7 1 C8.125 5.75 8.125 5.75 7 8 C6.34 8 5.68 8 5 8 C5 6.35 5 4.7 5 3 C3.35 2.67 1.7 2.34 0 2 C0 1.34 0 0.68 0 0 Z " fill="#949592" transform="translate(1068,1224)"/>
<path d="M0 0 C0.66 0.33 1.32 0.66 2 1 C-0.31537955 4.72114571 -2.28579473 7.61229661 -6 10 C-5.49477778 5.62140745 -2.82172778 3.18348776 0 0 Z " fill="#959693" transform="translate(1035,1233)"/>
<path d="M0 0 C2.05078125 0.03255208 4.1015625 0.06510417 6.15234375 0.09765625 C3.99967533 2.25032467 2.30460631 3.03240087 -0.47265625 4.22265625 C-1.28992187 4.57585937 -2.1071875 4.9290625 -2.94921875 5.29296875 C-3.57570313 5.55851562 -4.2021875 5.8240625 -4.84765625 6.09765625 C-2.55432956 0.13500685 -2.55432956 0.13500685 0 0 Z " fill="#585954" transform="translate(1043.84765625,1232.90234375)"/>
<path d="M0 0 C0 2.97 0 5.94 0 9 C-0.99 9 -1.98 9 -3 9 C-3.6875 6.1875 -3.6875 6.1875 -4 3 C-1.8 0 -1.8 0 0 0 Z " fill="#6F706B" transform="translate(1097,693)"/>
<path d="M0 0 C0.66 0 1.32 0 2 0 C2 2.64 2 5.28 2 8 C0.68 7.34 -0.64 6.68 -2 6 C-1.34 4.02 -0.68 2.04 0 0 Z " fill="#FD3636" transform="translate(983,967)"/>
<path d="M0 0 C1.9451 2.91765 2.45276317 4.62537285 3 8 C1.68 8.99 0.36 9.98 -1 11 C-0.67 7.37 -0.34 3.74 0 0 Z " fill="#555651" transform="translate(1094,682)"/>
<path d="M0 0 C0.66 0.33 1.32 0.66 2 1 C1.67 2.98 1.34 4.96 1 7 C0.01 7 -0.98 7 -2 7 C-2.125 4.625 -2.125 4.625 -2 2 C-1.34 1.34 -0.68 0.68 0 0 Z " fill="#C78872" transform="translate(1126,1079)"/>
<path d="M0 0 C0.33 0.66 0.66 1.32 1 2 C-0.61594832 4.04119788 -2.2856382 6.04072937 -4 8 C-4.66 8 -5.32 8 -6 8 C-4.73058503 4.08597051 -3.48832306 2.20927127 0 0 Z " fill="#3A3A3A" transform="translate(1069,1278)"/>
<path d="M0 0 C-0.66 1.32 -1.32 2.64 -2 4 C-4.31 4 -6.62 4 -9 4 C-8 2 -8 2 -5.0625 0.875 C-2 0 -2 0 0 0 Z " fill="#545551" transform="translate(1076,713)"/>
<path d="M0 0 C0.66 0 1.32 0 2 0 C2.66 1.65 3.32 3.3 4 5 C2.68 5 1.36 5 0 5 C-0.5625 3.0625 -0.5625 3.0625 -1 1 C-0.67 0.67 -0.34 0.34 0 0 Z " fill="#FD0505" transform="translate(1143,966)"/>
<path d="M0 0 C0.9075 0.226875 1.815 0.45375 2.75 0.6875 C2.75 1.3475 2.75 2.0075 2.75 2.6875 C-0.55 2.6875 -3.85 2.6875 -7.25 2.6875 C-3.25 -0.3125 -3.25 -0.3125 0 0 Z " fill="#898A86" transform="translate(1067.25,723.3125)"/>
</svg>
