<?xml version="1.0" encoding="UTF-8"?>
<svg version="1.1" xmlns="http://www.w3.org/2000/svg" width="1111" height="793" viewBox="495 625 1111 793">
<path d="M0 0 C1.24056152 0.00112793 2.48112305 0.00225586 3.75927734 0.00341797 C5.12468086 0.0159234 6.49007814 0.02912586 7.85546875 0.04296875 C9.26253091 0.05122939 10.6695948 0.05919904 12.07666016 0.06689453 C16.73244593 0.09922367 21.38759182 0.16195501 26.04296875 0.23046875 C27.31687469 0.24850555 27.31687469 0.24850555 28.61651611 0.26690674 C33.86477005 0.34338558 39.11237734 0.4369691 44.35995483 0.5508728 C46.06499502 0.58726365 47.77009821 0.62081373 49.47525024 0.65151978 C51.87057223 0.69650935 54.2652188 0.75451987 56.66015625 0.81640625 C57.73922997 0.83375572 57.73922997 0.83375572 58.84010315 0.85145569 C63.81393086 1.00143086 63.81393086 1.00143086 66.04296875 3.23046875 C66.23828125 5.61328125 66.23828125 5.61328125 66.16796875 8.35546875 C66.14992188 9.26554688 66.131875 10.175625 66.11328125 11.11328125 C66.07847656 12.16128906 66.07847656 12.16128906 66.04296875 13.23046875 C67.36296875 13.56046875 68.68296875 13.89046875 70.04296875 14.23046875 C70.94054283 32.91242291 71.16969854 51.53295007 71.04296875 70.23046875 C71.70296875 70.23046875 72.36296875 70.23046875 73.04296875 70.23046875 C73.51734375 71.03484375 73.99171875 71.83921875 74.48046875 72.66796875 C75.84280547 75.52227635 75.84280547 75.52227635 79.04296875 76.23046875 C81.88703705 76.35079985 84.70841822 76.41585679 87.5534668 76.43579102 C88.85622559 76.45064041 88.85622559 76.45064041 90.18530273 76.46578979 C93.05840318 76.49739819 95.93152017 76.52215967 98.8046875 76.546875 C100.79580619 76.56744509 102.78692052 76.58844158 104.7780304 76.60984802 C110.02064483 76.66506296 115.26329863 76.71447483 120.50598145 76.76269531 C125.85493477 76.81291452 131.20383086 76.8685984 136.55273438 76.92382812 C147.04943029 77.03140265 157.54617587 77.13284923 168.04296875 77.23046875 C168.04296875 77.89046875 168.04296875 78.55046875 168.04296875 79.23046875 C168.70296875 79.23046875 169.36296875 79.23046875 170.04296875 79.23046875 C170.04296875 82.20046875 170.04296875 85.17046875 170.04296875 88.23046875 C170.73003906 88.20726562 171.41710938 88.1840625 172.125 88.16015625 C173.02605469 88.14210938 173.92710937 88.1240625 174.85546875 88.10546875 C175.74878906 88.08226562 176.64210938 88.0590625 177.5625 88.03515625 C180.04296875 88.23046875 180.04296875 88.23046875 183.04296875 90.23046875 C183.33496531 92.9505364 183.4390217 95.43947781 183.40625 98.16015625 C183.4067485 98.94689728 183.40724701 99.73363831 183.40776062 100.54421997 C183.40541811 102.21033245 183.39567912 103.87644833 183.37915039 105.54248047 C183.35562517 108.08853986 183.35857941 110.63354755 183.36523438 113.1796875 C183.35965529 114.79818331 183.35254396 116.41667471 183.34375 118.03515625 C183.34466141 118.79569305 183.34557281 119.55622986 183.34651184 120.33981323 C183.29195222 124.42656836 182.92026065 126.47588494 181.04296875 130.23046875 C174.77296875 130.23046875 168.50296875 130.23046875 162.04296875 130.23046875 C162.04804443 133.22367188 162.05312012 136.216875 162.05834961 139.30078125 C162.1056132 176.04802934 161.9275758 212.79272434 161.68715441 249.53905678 C161.63106264 258.11412541 161.57925314 266.68920613 161.53097683 275.26432228 C161.49273906 282.01196876 161.45082945 288.75958613 161.4060902 295.50719261 C161.37973189 299.49386072 161.35487079 303.48052375 161.33389473 307.46722412 C161.31430626 311.17133552 161.29015694 314.87538919 161.26247787 318.5794487 C161.2487202 320.57448146 161.23970879 322.56954519 161.23085022 324.56460571 C161.2210614 325.75693817 161.21127258 326.94927063 161.20118713 328.17773438 C161.19150831 329.7234613 161.19150831 329.7234613 161.18163395 331.30041504 C161.03750993 334.34581594 160.57228684 337.23059616 160.04296875 340.23046875 C159.92228415 342.64942257 159.84329537 345.07066989 159.796875 347.4921875 C159.76397387 348.87175203 159.73076167 350.25130916 159.69726562 351.63085938 C159.64969067 353.78356468 159.6051381 355.93623234 159.56616211 358.08911133 C159.5264927 360.18208849 159.47498693 362.27451436 159.421875 364.3671875 C159.39681885 365.61201904 159.3717627 366.85685059 159.34594727 368.1394043 C159.04296875 371.23046875 159.04296875 371.23046875 157.04296875 374.23046875 C156.38296875 374.23046875 155.72296875 374.23046875 155.04296875 374.23046875 C154.79546875 375.11734375 154.54796875 376.00421875 154.29296875 376.91796875 C152.99764046 380.35058873 151.41899962 382.47120709 149.04296875 385.23046875 C148.71296875 385.89046875 148.38296875 386.55046875 148.04296875 387.23046875 C147.38296875 387.23046875 146.72296875 387.23046875 146.04296875 387.23046875 C146.04522461 388.43582275 146.04748047 389.64117676 146.04980469 390.88305664 C146.04243218 395.37827347 145.95660621 399.86922956 145.84765625 404.36303711 C145.81143707 406.30351209 145.79618149 408.24450082 145.80273438 410.18530273 C145.83511612 425.96735727 145.83511612 425.96735727 142.78344727 429.82098389 C139.55024354 432.53034867 135.96160996 433.83547826 132.04296875 435.23046875 C132.89439957 435.70703918 133.74583038 436.18360962 134.62306213 436.67462158 C143.38335533 442.24339784 143.38335533 442.24339784 145.13619995 447.52380371 C145.47830274 451.42991408 145.47612582 455.24280433 145.3203125 459.15234375 C145.30551072 460.5847767 145.29563365 462.01726813 145.29042053 463.44976807 C145.26761464 466.437018 145.20634159 469.41989304 145.11303711 472.40576172 C144.99387845 476.22465878 144.94013629 480.04073348 144.91110897 483.86127853 C144.881149 487.52117811 144.82161205 491.18040017 144.7578125 494.83984375 C144.74253163 495.87901066 144.74253163 495.87901066 144.72694206 496.93917084 C144.69205057 498.90608775 144.63350244 500.87254168 144.57397461 502.83886719 C144.54444199 503.9553363 144.51490936 505.07180542 144.48448181 506.22210693 C143.99337079 509.56841707 142.94172024 511.4642661 141.04296875 514.23046875 C140.36200453 515.55655697 139.68966289 516.88733476 139.04296875 518.23046875 C138.38296875 518.23046875 137.72296875 518.23046875 137.04296875 518.23046875 C135.76984935 523.18313515 135.83633644 528.12383576 135.76171875 533.203125 C135.74330933 534.16318954 135.7248999 535.12325409 135.70593262 536.1124115 C135.62748216 540.20967807 135.55952232 544.30710283 135.49072266 548.40454102 C135.43892553 551.39998291 135.38171221 554.39528791 135.32421875 557.390625 C135.31064331 558.31674088 135.29706787 559.24285675 135.28308105 560.19703674 C135.25800476 561.4937455 135.25800476 561.4937455 135.23242188 562.81665039 C135.2198938 563.57434219 135.20736572 564.332034 135.19445801 565.11268616 C135.04075998 567.26134678 134.58632321 569.15076611 134.04296875 571.23046875 C133.36866451 579.50514505 133.03613733 586.45401038 137.94921875 593.49609375 C139.04296875 595.23046875 139.04296875 595.23046875 139.04296875 598.23046875 C138.38296875 598.23046875 137.72296875 598.23046875 137.04296875 598.23046875 C136.71296875 600.21046875 136.38296875 602.19046875 136.04296875 604.23046875 C136.67686523 604.22523193 137.31076172 604.21999512 137.96386719 604.21459961 C163.77732914 604.02941404 163.77732914 604.02941404 171.04296875 605.23046875 C172.04296875 606.23046875 172.04296875 606.23046875 172.15649414 607.99633789 C172.15125732 608.74520264 172.14602051 609.49406738 172.140625 610.265625 C172.13740234 611.07451172 172.13417969 611.88339844 172.13085938 612.71679688 C172.12248047 613.56693359 172.11410156 614.41707031 172.10546875 615.29296875 C172.10095703 616.14697266 172.09644531 617.00097656 172.09179688 617.88085938 C172.07997248 619.99742538 172.06203644 622.1139556 172.04296875 624.23046875 C174.42031147 623.99582194 176.79363715 623.74282583 179.16796875 623.48046875 C180.13669922 623.38765625 180.13669922 623.38765625 181.125 623.29296875 C185.64363298 622.77655355 189.58549161 621.69592904 193.88256836 620.20532227 C204.27769696 617.22201101 214.74437185 617.71743402 225.4765625 617.8046875 C227.86713401 617.80927543 230.25770935 617.81212977 232.64828491 617.81341553 C238.52208652 617.82134489 244.39562431 617.84826291 250.26930809 617.88359606 C257.2816065 617.92483841 264.2939182 617.94310788 271.30630767 617.96124089 C286.09971884 618.00062206 300.89290395 618.07038354 315.68614864 618.14958286 C327.1281147 618.2108073 338.57009366 618.26628346 350.01210833 618.31762576 C412.55668061 618.59858093 475.10225985 618.89771842 537.64453125 619.51953125 C538.7138023 619.53015972 539.78307335 619.54078819 540.88474655 619.55173874 C559.93793102 619.74395944 578.99026012 619.99273442 598.04296875 620.23046875 C598.04296875 644.98046875 598.04296875 669.73046875 598.04296875 695.23046875 C600.02296875 695.56046875 602.00296875 695.89046875 604.04296875 696.23046875 C604.73046875 698.04296875 604.73046875 698.04296875 605.04296875 700.23046875 C603.85546875 701.98046875 603.85546875 701.98046875 602.04296875 703.23046875 C600.72296875 703.23046875 599.40296875 703.23046875 598.04296875 703.23046875 C598.04740997 704.17816132 598.0518512 705.12585388 598.056427 706.1022644 C598.09691486 715.01960979 598.12692508 723.93693661 598.14659309 732.85435295 C598.15704441 737.43923641 598.1712281 742.02404586 598.19384766 746.60888672 C598.21552811 751.03089249 598.22752721 755.45282694 598.23272324 759.87488174 C598.23642764 761.56463876 598.24366112 763.25439173 598.25442886 764.9441185 C598.26888018 767.30511764 598.27094939 769.66581945 598.27001953 772.02685547 C598.27721008 772.73032104 598.28440063 773.43378662 598.29180908 774.15856934 C598.27107307 779.00236443 598.27107307 779.00236443 596.04296875 781.23046875 C593.93901092 781.46719235 593.93901092 781.46719235 591.27659321 781.44812298 C590.26382826 781.44575498 589.25106331 781.44338699 588.20760852 781.44094723 C587.08603939 781.42802177 585.96447026 781.41509632 584.80891418 781.40177917 C583.62310609 781.39602649 582.437298 781.3902738 581.21555632 781.38434678 C577.91042355 781.36626128 574.60558595 781.33909004 571.30056274 781.30817306 C567.73589253 781.27700768 564.17115681 781.25742512 560.60641479 781.23643494 C553.5936667 781.19331067 546.58103899 781.13945048 539.56839357 781.08220383 C531.32179086 781.01535135 523.07512379 780.95963948 514.8284361 780.90445713 C500.00592191 780.80494197 485.18349071 780.69611716 470.36108398 780.58178711 C456.17622401 780.47238971 441.99134162 780.36801677 427.80639648 780.27026367 C426.94435892 780.2643143 426.08232135 780.25836493 425.19416143 780.25223528 C420.85824499 780.22231798 416.52232813 780.19246191 412.18641114 780.16262412 C390.16846189 780.01099584 368.15056812 779.85565907 346.13284302 779.67404175 C345.31850786 779.66733359 344.50417271 779.66062543 343.66516073 779.65371399 C336.44089487 779.59414496 329.21663199 779.53422576 321.99237657 779.47340369 C304.31576896 779.32481214 286.63962065 779.19968222 268.96246433 779.13421535 C261.64884968 779.10683686 254.33535674 779.06439022 247.02185339 779.015935 C241.62643814 778.98128887 236.23151682 778.96602075 230.8359971 778.96811247 C227.64801567 778.96429807 224.46043209 778.9402979 221.27260041 778.91021132 C219.21261909 778.89657289 217.1525187 778.90706397 215.09252739 778.91909981 C206.56508927 778.8098649 199.47311406 777.15249017 191.50840473 774.3485136 C187.07816151 772.91919543 183.67407946 772.71122274 179.04296875 772.91796875 C178.0065625 772.95180664 178.0065625 772.95180664 176.94921875 772.98632812 C175.31276473 773.04314945 173.67748507 773.1326586 172.04296875 773.23046875 C172.05457031 774.43445312 172.06617188 775.6384375 172.078125 776.87890625 C172.08750309 778.45442554 172.09660327 780.0299465 172.10546875 781.60546875 C172.11384766 782.39953125 172.12222656 783.19359375 172.13085938 784.01171875 C172.15625 790.00390625 172.15625 790.00390625 171.04296875 792.23046875 C164.76276941 792.38309987 158.48305138 792.48788354 152.20141602 792.56005859 C150.06646857 792.59015791 147.93164404 792.63104788 145.79711914 792.68310547 C142.72120796 792.75622198 139.64693672 792.78999396 136.5703125 792.81640625 C135.14802589 792.86285782 135.14802589 792.86285782 133.69700623 792.9102478 C127.78074863 792.91322553 124.65388483 791.94890003 120.40667725 787.75811768 C118.62608332 785.76346677 116.93231501 783.76647356 115.35546875 781.60546875 C113.61065677 779.23185818 111.95109058 777.14102983 109.8359375 775.08203125 C108.04296875 773.23046875 108.04296875 773.23046875 108.04296875 771.23046875 C106.72296875 770.90046875 105.40296875 770.57046875 104.04296875 770.23046875 C104.04296875 737.56046875 104.04296875 704.89046875 104.04296875 671.23046875 C102.06296875 671.23046875 100.08296875 671.23046875 98.04296875 671.23046875 C97.38296875 670.90046875 96.72296875 670.57046875 96.04296875 670.23046875 C95.71296875 671.55046875 95.38296875 672.87046875 95.04296875 674.23046875 C94.38296875 674.23046875 93.72296875 674.23046875 93.04296875 674.23046875 C92.89859375 675.01421875 92.75421875 675.79796875 92.60546875 676.60546875 C92.04296875 679.23046875 92.04296875 679.23046875 91.04296875 681.23046875 C90.38296875 681.23046875 89.72296875 681.23046875 89.04296875 681.23046875 C88.85734375 682.15859375 88.67171875 683.08671875 88.48046875 684.04296875 C86.88956573 687.57062327 85.82080619 688.26843531 82.30102539 689.64770508 C76.66257336 691.1028878 70.63177936 690.66638635 64.84765625 690.66992188 C58.25989655 690.78962428 54.50254938 691.54098653 49.04296875 695.23046875 C33.40717325 700.93330398 12.93042275 697.06713946 -1.95703125 691.23046875 C-2.61703125 690.90046875 -3.27703125 690.57046875 -3.95703125 690.23046875 C-5.73447742 690.11281016 -7.51582728 690.05158511 -9.296875 690.01953125 C-10.35970703 689.99117187 -11.42253906 689.9628125 -12.51757812 689.93359375 C-14.76480866 689.88160461 -17.01223055 689.83730533 -19.25976562 689.80078125 C-20.32388672 689.76984375 -21.38800781 689.73890625 -22.484375 689.70703125 C-23.46140381 689.68721191 -24.43843262 689.66739258 -25.44506836 689.64697266 C-28.35717624 689.16412145 -29.18198558 688.53313762 -30.95703125 686.23046875 C-32.07226542 684.4287279 -33.13143754 682.59155942 -34.14453125 680.73046875 C-34.67433594 679.77140625 -35.20414063 678.81234375 -35.75 677.82421875 C-36.95703125 675.23046875 -36.95703125 675.23046875 -36.95703125 672.23046875 C-37.61703125 672.23046875 -38.27703125 672.23046875 -38.95703125 672.23046875 C-38.95703125 671.57046875 -38.95703125 670.91046875 -38.95703125 670.23046875 C-40.38752808 670.2461792 -40.38752808 670.2461792 -41.84692383 670.26220703 C-45.38594813 670.29841376 -48.92495605 670.32137159 -52.46411133 670.34033203 C-53.99571486 670.3503881 -55.5272992 670.36403475 -57.05883789 670.38134766 C-59.26062761 670.40561373 -61.46216344 670.41695563 -63.6640625 670.42578125 C-64.34853958 670.43610382 -65.03301666 670.44642639 -65.73823547 670.45706177 C-69.38764786 670.45792257 -70.82851627 670.31614541 -73.95703125 668.23046875 C-74.25 665.41015625 -74.25 665.41015625 -74.14453125 662.10546875 C-74.11746094 661.00976562 -74.09039063 659.9140625 -74.0625 658.78515625 C-74.01029297 657.52058594 -74.01029297 657.52058594 -73.95703125 656.23046875 C-75.09245361 656.23570557 -76.22787598 656.24094238 -77.39770508 656.24633789 C-81.60765801 656.26442913 -85.81760749 656.27591589 -90.02758789 656.28540039 C-91.85018491 656.29043115 -93.6727779 656.29725644 -95.49536133 656.3059082 C-98.11410519 656.31802872 -100.73279572 656.32370961 -103.3515625 656.328125 C-104.57514214 656.33586693 -104.57514214 656.33586693 -105.82344055 656.34376526 C-109.12717054 656.34409335 -111.80026263 656.28272496 -114.95703125 655.23046875 C-115.91322858 651.23250983 -116.06099045 647.52242953 -116.01953125 643.41796875 C-116.01050781 642.25652344 -116.00148438 641.09507812 -115.9921875 639.8984375 C-115.97478516 638.57779297 -115.97478516 638.57779297 -115.95703125 637.23046875 C-117.7054834 637.24926086 -117.7054834 637.24926086 -119.48925781 637.26843262 C-135.97832888 637.4432299 -152.46761703 637.59235246 -168.95703125 637.73046875 C-169.66427385 637.73641729 -170.37151645 637.74236583 -171.10019064 637.74849463 C-241.85663814 638.34129562 -312.61410165 638.31533866 -383.37242508 638.29362726 C-385.52586619 638.29296681 -387.6793073 638.29232404 -389.83274841 638.2916832 C-426.87418282 638.28053941 -463.91560583 638.25901519 -500.95703125 638.23046875 C-500.95703125 619.75046875 -500.95703125 601.27046875 -500.95703125 582.23046875 C-502.27703125 581.90046875 -503.59703125 581.57046875 -504.95703125 581.23046875 C-505.64453125 578.91796875 -505.64453125 578.91796875 -505.95703125 576.23046875 C-504.64453125 574.41796875 -504.64453125 574.41796875 -502.95703125 573.23046875 C-502.29703125 573.23046875 -501.63703125 573.23046875 -500.95703125 573.23046875 C-500.95703125 555.08046875 -500.95703125 536.93046875 -500.95703125 518.23046875 C-466.36023764 518.18841248 -431.76945923 518.32403068 -397.17385827 518.58579376 C-392.23960599 518.62311343 -387.30534883 518.65972005 -382.37108803 518.69589424 C-381.65356338 518.70115624 -380.93603873 518.70641824 -380.19677091 518.71183969 C-378.73635981 518.72254865 -377.27594871 518.73325692 -375.81553761 518.7439645 C-362.27806981 518.84331164 -348.74061993 518.94494415 -335.20317505 519.04735935 C-323.76787018 519.13380735 -312.33255025 519.21796092 -300.8972168 519.30053711 C-168.92705049 520.25416827 -168.92705049 520.25416827 -115.95703125 521.23046875 C-115.96863281 520.22886719 -115.98023438 519.22726562 -115.9921875 518.1953125 C-116.00157523 516.85286647 -116.01067437 515.51041839 -116.01953125 514.16796875 C-116.03113281 512.85699219 -116.04273438 511.54601563 -116.0546875 510.1953125 C-115.95703125 506.23046875 -115.95703125 506.23046875 -114.95703125 499.23046875 C-100.60203125 498.73546875 -100.60203125 498.73546875 -85.95703125 498.23046875 C-85.94027344 494.28078125 -85.92351562 490.33109375 -85.90625 486.26171875 C-85.85276737 482.42215528 -85.78067271 478.58335929 -85.70678711 474.74414062 C-85.65941044 472.08132888 -85.64348666 469.42360713 -85.64135742 466.75976562 C-85.63490793 462.92446948 -85.55849026 459.09586146 -85.46875 455.26171875 C-85.48177658 454.07807739 -85.49480316 452.89443604 -85.50822449 451.67492676 C-85.32665873 446.48616131 -85.14947505 443.44034456 -81.40811157 439.64428711 C-78.66640262 437.63832881 -75.93310741 435.86435508 -72.95703125 434.23046875 C-73.81167969 433.60398437 -74.66632813 432.9775 -75.546875 432.33203125 C-76.66291736 431.50672261 -77.77879423 430.68119013 -78.89453125 429.85546875 C-79.45849609 429.44296875 -80.02246094 429.03046875 -80.60351562 428.60546875 C-84.84375 425.45703125 -84.84375 425.45703125 -85.95703125 423.23046875 C-85.94683238 420.98356459 -85.87448535 418.73684152 -85.7734375 416.4921875 C-85.73147694 415.09967527 -85.6918445 413.70709133 -85.65429688 412.31445312 C-85.59330311 410.13204283 -85.52137528 407.95357263 -85.40844727 405.77319336 C-84.89524663 395.467698 -86.16233582 389.15718422 -92.22241211 380.68286133 C-93.95703125 378.23046875 -93.95703125 378.23046875 -93.95703125 376.23046875 C-94.61703125 376.23046875 -95.27703125 376.23046875 -95.95703125 376.23046875 C-98.95703125 370.48046875 -98.95703125 370.48046875 -98.95703125 368.23046875 C-99.61703125 368.23046875 -100.27703125 368.23046875 -100.95703125 368.23046875 C-102.0360173 364.99351059 -102.08283531 362.66067847 -102.08401489 359.25547791 C-102.08683472 358.00361694 -102.08965454 356.75175598 -102.09255981 355.46195984 C-102.09061464 354.06961045 -102.08856641 352.67726121 -102.08642578 351.28491211 C-102.08778144 349.81834876 -102.0895623 348.35178575 -102.09173584 346.88522339 C-102.09631905 342.87435354 -102.09450955 338.86350929 -102.09135675 334.85263896 C-102.08880421 330.580434 -102.09118174 326.30823106 -102.09274292 322.036026 C-102.09457017 314.78483702 -102.09215833 307.53365815 -102.08740234 300.2824707 C-102.08267826 292.99991173 -102.08247162 285.71737329 -102.08740234 278.43481445 C-102.12008112 229.02506696 -101.77658785 179.63362951 -100.95703125 130.23046875 C-101.84225464 130.25403442 -101.84225464 130.25403442 -102.74536133 130.27807617 C-105.41998711 130.34044814 -108.09445989 130.37946532 -110.76953125 130.41796875 C-111.69830078 130.44310547 -112.62707031 130.46824219 -113.58398438 130.49414062 C-114.92299805 130.50864258 -114.92299805 130.50864258 -116.2890625 130.5234375 C-117.52233276 130.54700317 -117.52233276 130.54700317 -118.78051758 130.57104492 C-121.48708728 130.14752672 -122.34895073 129.41794002 -123.95703125 127.23046875 C-124.31347656 124.15527344 -124.31347656 124.15527344 -124.28515625 120.40234375 C-124.28328308 119.73511292 -124.28140991 119.06788208 -124.27947998 118.38043213 C-124.27276218 116.96825161 -124.25885284 115.55608962 -124.23828125 114.14404297 C-124.20734367 112.00209889 -124.19732787 109.86089466 -124.19140625 107.71875 C-124.10744851 95.13205459 -124.10744851 95.13205459 -122.95703125 89.23046875 C-120.00000703 86.45265812 -117.56081506 86.07074381 -113.64453125 86.04296875 C-112.42765625 86.10484375 -111.21078125 86.16671875 -109.95703125 86.23046875 C-109.95703125 83.26046875 -109.95703125 80.29046875 -109.95703125 77.23046875 C-106.7285588 75.61623252 -103.20068786 76.1134441 -99.65527344 76.13623047 C-97.87514259 76.13901752 -96.09501155 76.14168734 -94.31488037 76.14425659 C-93.36832329 76.14730679 -92.4217662 76.15035698 -91.44652557 76.1534996 C-86.44347841 76.16481725 -81.44052342 76.144348 -76.4375 76.12890625 C-70.06640051 76.11061081 -63.69578534 76.10192157 -57.32470703 76.13085938 C-52.18029977 76.15339367 -47.03694763 76.14197182 -41.89261627 76.10785294 C-39.93265341 76.10108109 -37.97260603 76.10677088 -36.0127182 76.12520981 C-33.26608618 76.14938219 -30.52288026 76.13016414 -27.77636719 76.10107422 C-26.56511421 76.12715508 -26.56511421 76.12715508 -25.32939148 76.15376282 C-21.87340681 76.07773637 -19.78868369 75.97413314 -17.14936066 73.614048 C-15.51934182 71.71482566 -15.51934182 71.71482566 -14.15478897 69.73111153 C-13.75952892 69.23589941 -13.36426888 68.74068729 -12.95703125 68.23046875 C-12.29703125 68.23046875 -11.63703125 68.23046875 -10.95703125 68.23046875 C-10.95925186 67.55839386 -10.96147247 66.88631897 -10.96376038 66.19387817 C-10.98582947 59.2189385 -11.00094468 52.24400868 -11.01196289 45.26904297 C-11.01700155 42.66357012 -11.02383255 40.05810012 -11.0324707 37.45263672 C-11.04455669 33.71451111 -11.05026413 29.97642278 -11.0546875 26.23828125 C-11.06242943 24.48198898 -11.06242943 24.48198898 -11.07032776 22.69021606 C-11.07044106 21.06876175 -11.07044106 21.06876175 -11.07055664 19.41455078 C-11.07277725 18.45968781 -11.07499786 17.50482483 -11.07728577 16.52102661 C-10.95703125 14.23046875 -10.95703125 14.23046875 -9.95703125 12.23046875 C-9.72344327 9.66965233 -9.57540056 7.11041841 -9.43359375 4.54296875 C-8.40011878 -0.47192619 -4.24324102 -0.01609799 0 0 Z " fill="#111110" transform="translate(1000.95703125,625.76953125)"/>
<path d="M0 0 C10.62515987 0.07352329 21.2503678 0.13852083 31.87558532 0.20307851 C53.61040336 0.3353139 75.34514674 0.47738226 97.07985413 0.62664449 C97.08273127 2.61474617 97.08560804 4.60284785 97.08848333 6.59094954 C97.09105787 8.36892264 97.09363844 10.14689573 97.09622455 11.92486882 C97.10339385 16.8601784 97.11045308 21.7954881 97.1173135 26.73079813 C97.13390653 38.83929591 97.13390653 38.83929591 97.15776551 50.94778097 C97.27117336 103.84558203 96.56516322 156.72795383 96.07985413 209.62664449 C12.25985413 209.95664449 -71.56014587 210.28664449 -157.92014587 210.62664449 C-157.92014587 177.20325332 -157.92014587 177.20325332 -157.84421813 163.76482809 C-157.83593442 162.19533985 -157.82770694 160.62585131 -157.81952941 159.05636251 C-157.79309767 154.04592859 -157.76496083 149.03550504 -157.73655212 144.02508199 C-157.73169005 143.16190878 -157.72682797 142.29873557 -157.72181857 141.40940559 C-157.67572554 133.22717648 -157.62907993 125.04495076 -157.58080661 116.8627342 C-157.51986201 106.52898903 -157.46195058 96.19523679 -157.40815395 85.86145186 C-157.36965397 78.51369024 -157.32770508 71.16595299 -157.28326732 63.81822491 C-157.25701114 59.46244558 -157.23216722 55.10667012 -157.21107185 50.75086248 C-157.04157022 16.18746847 -157.04157022 16.18746847 -155.92014587 0.62664449 C-103.93920111 -0.45199033 -51.98866054 -0.36120633 0 0 Z " fill="#433D3F" transform="translate(1060.920145869255,754.3733555078506)"/>
<path d="M0 0 C88.22410302 -0.07991314 88.22410302 -0.07991314 110.47265625 -0.06640625 C111.72023268 -0.06569402 111.72023268 -0.06569402 112.99301267 -0.06496739 C160.33436735 -0.03600642 207.66029856 0.44388016 255 1 C255 51.16 255 101.32 255 153 C179.40086465 153 179.40086465 153 151.38410425 152.83100247 C148.84895586 152.81582955 146.31380474 152.80121834 143.77865219 152.78675652 C134.83191451 152.73568689 125.88519082 152.68270263 116.93847656 152.62768555 C108.74373899 152.57734873 100.54898359 152.53169468 92.35420811 152.48800808 C85.15251615 152.44940023 77.95084805 152.40748449 70.74918926 152.36312145 C66.51776889 152.33710918 62.2863516 152.31227948 58.05490494 152.29092598 C54.10599821 152.27089538 50.15713706 152.24663842 46.20827293 152.21950912 C44.79084171 152.21041703 43.37340098 152.20265276 41.9559536 152.19658089 C27.94908168 152.13486707 14.01215158 151.51896858 0 151 C0 101.17 0 51.34 0 0 Z " fill="#B77333" transform="translate(1208,1248)"/>
<path d="M0 0 C65.91692382 -0.07837922 65.91692382 -0.07837922 85.7421875 -0.0625 C86.77582058 -0.06169371 86.77582058 -0.06169371 87.83033514 -0.06087112 C119.88081317 -0.03458976 151.92984483 0.14008072 183.97931057 0.38955754 C188.77095661 0.42683551 193.56261356 0.4622953 198.35427856 0.49703979 C204.8665796 0.54449427 211.37882929 0.59701612 217.89106369 0.65287781 C220.25809158 0.67278673 222.62512911 0.69159336 224.99217606 0.70909119 C242.68214713 0.84249401 260.30958693 1.41031956 278 2 C278 37.64 278 73.28 278 110 C241.59940164 110.2624142 241.59940164 110.2624142 227.89111328 110.35571289 C226.62641091 110.36432254 226.62641091 110.36432254 225.33615899 110.37310612 C219.05744181 110.41577548 212.77872167 110.45799569 206.5 110.5 C205.61224727 110.50594854 204.72449453 110.51189708 203.8098402 110.51802588 C163.46981398 110.7879233 123.13009117 111.03891441 82.7890625 111.06640625 C80.82344927 111.06778752 80.82344927 111.06778752 78.81812668 111.0691967 C52.54540548 111.08339978 26.27268223 111.03275896 0 111 C0 74.37 0 37.74 0 0 Z " fill="#B77333" transform="translate(595,1149)"/>
<path d="M0 0 C8.99998218 -0.0312342 17.99997217 -0.05119508 27 -0.0625 C27.67657528 -0.06335602 28.35315056 -0.06421204 29.05022812 -0.06509399 C58.37592955 -0.09778994 87.68117877 0.35117697 117 1 C117.03087106 14.14582254 117.05107194 27.29164606 117.0625 40.4375 C117.06335602 41.41517963 117.06421204 42.39285927 117.06509399 43.40016556 C117.08635729 70.91667759 116.9684641 98.42472983 116.5 125.9375 C116.48804218 126.64028454 116.47608437 127.34306908 116.46376419 128.06715012 C116.32128777 136.37833475 116.16762514 144.68928316 116 153 C86.88906671 153.11902193 57.79382721 153.00027908 28.6875 152.5 C27.64347645 152.48206327 27.64347645 152.48206327 26.57836151 152.46376419 C18.05210312 152.31660485 9.52598816 152.16207344 1 152 C0.82484418 139.60427643 0.65879912 127.20844378 0.5 114.8125 C0.48812275 113.88575344 0.4762455 112.95900688 0.46400833 112.00417709 C0.11323929 84.43967335 -0.09402742 56.87928793 -0.0625 29.3125 C-0.06164398 28.55846012 -0.06078796 27.80442024 -0.05990601 27.02753067 C-0.04888567 18.01832918 -0.02941489 9.00916163 0 0 Z " fill="#A15F22" transform="translate(1478,1249)"/>
<path d="M0 0 C0.99 0 1.98 0 3 0 C10.16912877 24.41984487 8.2634253 49.27055839 -3.55859375 71.99609375 C-17.09711927 94.36550402 -37.61798222 109.7089346 -63 116 C-88.37794562 120.25125953 -113.80111488 116.14653938 -135.05859375 101.2578125 C-150.9693623 89.04476573 -165.17254665 72.95347385 -170 53 C-169.52198773 47.74186504 -167.08996796 45.4585389 -163.3984375 41.93359375 C-155.14177061 35.27716034 -146.42892163 32.98440868 -136 34 C-132.10907308 34.84992191 -128.3000239 35.95904575 -124.49584961 37.13330078 C-110.71724083 41.36463551 -94.43968201 42.30293543 -81.30078125 35.62890625 C-75.31030458 31.98214892 -69.93928697 27.5911377 -64.48632812 23.20703125 C-60.2091052 19.82070208 -55.79689136 16.81559633 -51.125 14 C-50.53106445 13.6385791 -49.93712891 13.2771582 -49.32519531 12.90478516 C-40.90653769 7.96462129 -34.28668188 6.60112248 -24.5 6.9375 C-12.46262634 7.65823235 -12.46262634 7.65823235 -2.1875 2.375 C-1.465625 1.59125 -0.74375 0.8075 0 0 Z " fill="#92D4C9" transform="translate(1114,1193)"/>
<path d="M0 0 C13.241128 10.6546686 23.78389382 24.6996682 29 41 C27.7764437 41.96548612 26.54585189 42.92205898 25.3125 43.875 C24.62800781 44.40867187 23.94351562 44.94234375 23.23828125 45.4921875 C19.07550778 48.29642931 15.64887175 49.2522946 10.6484375 49.0546875 C9.63136719 49.03019531 8.61429688 49.00570313 7.56640625 48.98046875 C5.46193863 48.91092086 3.35772915 48.83298506 1.25390625 48.74609375 C-15.95228814 48.37816255 -28.9619685 58.42275885 -41.92578125 68.6015625 C-55.81727418 79.43939815 -67.25985529 83.66109891 -85 82 C-91.37408633 80.90758583 -97.6001747 79.22645078 -103.84057617 77.55004883 C-113.81841545 75.0084918 -121.72984602 75.4834335 -131 80 C-135.83180495 83.17455478 -139.96074904 86.87942184 -144 91 C-149.42012553 76.45238308 -147.93667907 55.19725555 -142 41 C-141.649375 40.01128906 -141.29875 39.02257813 -140.9375 38.00390625 C-132.39839582 15.20331211 -114.87892481 -2.04518098 -93.04296875 -12.2734375 C-62.49017496 -25.81496387 -26.20614855 -20.00925303 0 0 Z " fill="#FCEBC9" transform="translate(1087,1150)"/>
<path d="M0 0 C37.81902149 -0.02286498 75.63804195 -0.04049751 113.45706895 -0.05106533 C117.91709871 -0.05231611 122.37712846 -0.05361042 126.8371582 -0.05493164 C128.16908362 -0.05532511 128.16908362 -0.05532511 129.52791662 -0.05572652 C143.92496432 -0.06008351 158.32200804 -0.06797122 172.71905338 -0.0771528 C187.48040995 -0.08648853 202.24176442 -0.09205544 217.00312382 -0.09408849 C226.1192306 -0.09546389 235.23532615 -0.09981536 244.35142947 -0.10791647 C250.59392978 -0.11318294 256.83642424 -0.11480452 263.07892662 -0.11350138 C266.68605785 -0.11285784 270.29316939 -0.11387724 273.90029716 -0.11920547 C277.80169786 -0.12492665 281.70307247 -0.12300111 285.60447693 -0.12025452 C287.33352513 -0.12462378 287.33352513 -0.12462378 289.0975036 -0.12908131 C290.6523429 -0.12609474 290.6523429 -0.12609474 292.2385931 -0.12304783 C293.59134678 -0.12361741 293.59134678 -0.12361741 294.97142881 -0.1241985 C297 0 297 0 298 1 C297.67 11.89 297.34 22.78 297 34 C198.99 34 100.98 34 0 34 C-1.19583104 30.41250689 -1.01782444 27.707443 -0.87890625 23.92578125 C-0.85529526 23.2419487 -0.83168427 22.55811615 -0.80735779 21.8535614 C-0.7308855 19.67298774 -0.64679119 17.49278405 -0.5625 15.3125 C-0.50926281 13.8327003 -0.45652252 12.35288262 -0.40429688 10.87304688 C-0.27529303 7.24847183 -0.13945273 3.62418977 0 0 Z " fill="#443E40" transform="translate(882,718)"/>
<path d="M0 0 C25.08 0 50.16 0 76 0 C76 36.96 76 73.92 76 112 C50.92 112 25.84 112 0 112 C0 75.04 0 38.08 0 0 Z " fill="#A26023" transform="translate(505,1148)"/>
<path d="M0 0 C9.08331593 -0.03109179 18.1666393 -0.05114745 27.25 -0.0625 C27.92999935 -0.06335602 28.6099987 -0.06421204 29.3106041 -0.06509399 C57.21642024 -0.09606874 85.10183479 0.32702187 113 1 C109.19540662 9.01451401 104.87138191 15.33666425 99 22 C98.34523682 22.74733398 98.34523682 22.74733398 97.67724609 23.50976562 C71.87874543 52.81820305 36.49695502 74.39413149 1 90 C-0.17789677 71.86145212 -0.12073686 53.73846425 -0.06866455 35.57226562 C-0.05826409 31.54883358 -0.05383185 27.52539486 -0.04882812 23.50195312 C-0.0382406 15.66795103 -0.02127187 7.83398117 0 0 Z " fill="#B77233" transform="translate(1478,1249)"/>
<path d="M0 0 C9.57 0 19.14 0 29 0 C29 59.4 29 118.8 29 180 C18.44 180 7.88 180 -3 180 C-3.06769773 157.26918486 -3.12297058 134.53845123 -3.15543652 111.80756092 C-3.17091109 101.25342515 -3.19201193 90.69935642 -3.22631836 80.14526367 C-3.2562026 70.94724521 -3.27557071 61.74927529 -3.28226548 52.55120963 C-3.28617939 47.68005755 -3.29538993 42.80904438 -3.31719017 37.93793678 C-3.33753988 33.35383641 -3.34383686 28.76993227 -3.33932304 24.18579102 C-3.34014892 22.50275799 -3.34612362 20.81971846 -3.35761642 19.13672447 C-3.37253706 16.83922465 -3.36895553 14.54246624 -3.36076355 12.24494934 C-3.36352893 10.95904813 -3.36629431 9.67314692 -3.36914349 8.348279 C-3 5 -3 5 0 0 Z " fill="#E0C16E" transform="translate(1132,1234)"/>
<path d="M0 0 C0 18.15 0 36.3 0 55 C-34.06248117 55.03416987 -34.06248117 55.03416987 -45.26660156 55.02685547 C-46.04020287 55.02635122 -46.81380418 55.02584697 -47.61084795 55.02532744 C-78.65842034 55.00153024 -109.70548116 54.80183344 -140.75238633 54.61115968 C-148.05017086 54.56670379 -155.34797595 54.52691296 -162.64579189 54.48800808 C-169.84748385 54.44940023 -177.04915195 54.40748449 -184.25081074 54.36312145 C-188.48223111 54.33710918 -192.7136484 54.31227948 -196.94509506 54.29092598 C-216.3175892 54.19183381 -235.6442037 53.88071524 -255 53 C-255 52.34 -255 51.68 -255 51 C-254.09161377 50.98018066 -253.18322754 50.96036133 -252.24731445 50.93994141 C-167.26185104 49.00614684 -83.26268785 35.01929891 -4.6796875 1.546875 C-1 0 -1 0 0 0 Z " fill="#A15F23" transform="translate(1463,1346)"/>
<path d="M0 0 C9.88837638 8.56097744 17.39321207 17.81759207 19.33984375 31.0546875 C19.7008653 36.95137281 18.77507789 42.26295882 14.81640625 46.81640625 C9.33157483 51.76233502 4.50877025 53.50696376 -2.8671875 53.2890625 C-15.85201019 51.8772649 -25.3749285 42.98924458 -34.53515625 34.4296875 C-53.7191268 16.93661179 -79.0812356 8.91548557 -103.7890625 2.8515625 C-106.59765625 1.9921875 -106.59765625 1.9921875 -108.59765625 -0.0078125 C-108.53515625 -2.4453125 -108.53515625 -2.4453125 -107.59765625 -5.0078125 C-86.02620425 -21.53603702 -20.31149495 -15.69941113 0 0 Z " fill="#D0A379" transform="translate(829.59765625,1174.0078125)"/>
<path d="M0 0 C1.00123901 0.23795288 1.00123901 0.23795288 2.02270508 0.48071289 C2.74469432 0.65236434 3.46668356 0.82401579 4.21055126 1.0008688 C7.52712593 1.56678335 10.67424968 1.62144104 14.03987122 1.63893127 C14.73426369 1.64386925 15.42865616 1.64880723 16.14409083 1.65389484 C18.46405953 1.66921712 20.78400066 1.67761611 23.10400391 1.68603516 C24.76974732 1.69561783 26.43548833 1.70562814 28.10122681 1.71603394 C32.61936622 1.7430469 37.13751604 1.76407599 41.65569139 1.78403592 C46.37893455 1.80591774 51.10214578 1.83329568 55.82536316 1.86009216 C64.7677109 1.90998936 73.7100764 1.95493922 82.65245885 1.99811453 C92.83378065 2.04751231 103.0150704 2.10242102 113.19636118 2.15779412 C134.13844594 2.27156852 155.08056131 2.37841745 176.02270508 2.48071289 C176.39053325 8.54485435 175.13543147 11.79987416 171.18510628 16.37831688 C163.83534471 21.26451203 153.97400901 19.86727101 145.46972656 19.79052734 C143.14492785 19.80572179 140.82015354 19.8251526 138.49542236 19.84849548 C132.19139738 19.89831422 125.88898319 19.88481149 119.58487964 19.8568995 C113.65487357 19.83748126 107.72507988 19.85760548 101.79508639 19.87475052 C89.33573725 19.90840338 76.87711409 19.88008918 64.41785485 19.83096274 C53.7343512 19.79036301 43.05207735 19.80517186 32.36865234 19.85986328 C19.95116055 19.92341758 7.5344189 19.9509265 -4.88322777 19.92238969 C-11.45258671 19.90810497 -18.02100154 19.90908247 -24.5902729 19.94939613 C-30.76597636 19.98507184 -36.93924685 19.9671286 -43.11474609 19.90783119 C-45.38065234 19.89488555 -47.6467546 19.90067074 -49.91254997 19.92655563 C-67.02344073 20.10526203 -67.02344073 20.10526203 -71.90846062 16.04356956 C-74.47770765 12.17944823 -75.97729492 9.15097814 -75.97729492 4.48071289 C-71.14477947 2.28980562 -66.38656326 0.62521789 -61.22729492 -0.64428711 C-60.58791992 -0.8131543 -59.94854492 -0.98202148 -59.28979492 -1.15600586 C-40.15221916 -5.9403998 -18.97427031 -4.67455125 0 0 Z " fill="#443E40" transform="translate(980.977294921875,985.519287109375)"/>
<path d="M0 0 C1.92608039 -0.19991398 3.85216077 -0.39982796 5.77824116 -0.59974194 C7.19560069 -0.75768525 8.60876659 -0.95425559 10.01831055 -1.17114258 C15.56622633 -1.44497112 19.86646258 1.1981184 24 4.6796875 C30.60221192 11.06335422 31.27354832 18.0240899 31.55078125 26.90234375 C31.58563158 31.57033229 31.49866979 36.22544254 31.35894775 40.89031982 C31.29717443 43.61297296 31.31353773 46.33284939 31.32966805 49.05597496 C31.43242503 74.30222939 31.43242503 74.30222939 23.60620117 84.40844727 C21.76554735 86.88597918 21.76554735 86.88597918 21.9465332 89.78100586 C22.89409438 92.67639268 23.95409873 94.64074188 25.53198242 97.20483398 C28.55273856 102.41096542 28.65100645 106.80882558 28.48828125 112.72265625 C28.48120651 113.70874374 28.47413177 114.69483124 28.46684265 115.71080017 C28.43908159 118.82883881 28.37637798 121.94501357 28.3125 125.0625 C28.28739348 127.189427 28.26458446 129.31638244 28.24414062 131.44335938 C28.19358678 136.63018408 28.09570053 141.81303145 28 147 C18.43 147 8.86 147 -1 147 C-1.02274303 131.67259915 -1.0410919 116.34520691 -1.05181217 101.01779366 C-1.05692635 93.89792392 -1.06387361 86.77806555 -1.07543945 79.65820312 C-1.08553794 73.4385648 -1.09188868 67.21893473 -1.09408849 60.99928844 C-1.09537043 57.71874339 -1.09885069 54.43822685 -1.10573006 51.15768814 C-1.14006295 34.0802297 -0.79920113 17.05951647 0 0 Z " fill="#E0C06E" transform="translate(900,1130)"/>
<path d="M0 0 C1.28487305 0.07154297 1.28487305 0.07154297 2.59570312 0.14453125 C4.66812204 0.26030884 6.74033578 0.37975006 8.8125 0.5 C8.8125 6.11 8.8125 11.72 8.8125 17.5 C5.96265996 18.92492002 3.54486516 18.63587092 0.35746765 18.64717102 C-0.31293853 18.65084771 -0.98334472 18.6545244 -1.67406625 18.6583125 C-3.93156288 18.66936825 -6.18901352 18.6731965 -8.4465332 18.67700195 C-10.06118415 18.68326562 -11.67583365 18.68991234 -13.29048157 18.69691467 C-18.60640453 18.71798452 -23.92232786 18.72832583 -29.23828125 18.73828125 C-31.06994326 18.74232895 -32.90160513 18.74644588 -34.73326683 18.75063133 C-43.34620522 18.76969638 -51.95913501 18.78391966 -60.57209045 18.7922433 C-70.49774039 18.80199441 -80.42316606 18.82825259 -90.34873706 18.86874419 C-98.02789978 18.89898957 -105.70699859 18.91372049 -113.38621968 18.91702431 C-117.96811978 18.91936697 -122.54978068 18.92822324 -127.13161659 18.95348549 C-131.45154242 18.9769162 -135.77107418 18.98093978 -140.09104729 18.97072411 C-141.66752057 18.97023211 -143.24401423 18.97645211 -144.82042694 18.99028015 C-153.46872893 19.06182806 -161.06867127 18.43789804 -169.31988811 15.4805479 C-191.23591116 7.98660823 -218.36492913 12.92534355 -239.86328125 19.51171875 C-243.1875 20.5 -243.1875 20.5 -245.1875 20.5 C-245.1875 14.23 -245.1875 7.96 -245.1875 1.5 C-243.41361908 1.48969254 -241.63973816 1.47938507 -239.81210327 1.46876526 C-222.73372698 1.36913588 -205.65537208 1.26633383 -188.57703209 1.16066074 C-179.80608319 1.10646403 -171.03513082 1.05324686 -162.26416016 1.00268555 C-152.07973176 0.94383172 -141.89532446 0.88205508 -131.7109375 0.81640625 C-130.87032493 0.81099335 -130.02971235 0.80558045 -129.16362667 0.80000353 C-100.40822524 0.61302477 -71.65660715 0.27637363 -42.90414429 -0.17295837 C-42.20251223 -0.18386206 -41.50088017 -0.19476575 -40.77798653 -0.20599985 C-37.52832364 -0.25658443 -34.27868498 -0.30820796 -31.02907181 -0.36190224 C-20.66273208 -0.52744438 -10.35263743 -0.60656783 0 0 Z " fill="#443E40" transform="translate(1148.1875,966.5)"/>
<path d="M0 0 C24.09 0 48.18 0 73 0 C73 16.5 73 33 73 50 C48.91 50 24.82 50 0 50 C0 33.5 0 17 0 0 Z " fill="#443E40" transform="translate(994,643)"/>
<path d="M0 0 C44.22 0 88.44 0 134 0 C108.76884819 25.23115181 67.96324654 33.95894708 33.26733398 34.13183594 C29.17719781 34.12216903 25.08951058 34.07259486 21 34 C21 34.66 21 35.32 21 36 C14.07 36 7.14 36 0 36 C0 24.12 0 12.24 0 0 Z " fill="#443E40" transform="translate(992,1024)"/>
<path d="M0 0 C0.68625458 -0.00328308 1.37250916 -0.00656616 2.07955933 -0.00994873 C16.11962728 -0.03163792 28.98755965 1.87085322 42.3125 6.3125 C42.3125 22.1525 42.3125 37.9925 42.3125 54.3125 C34.53877737 54.3125 34.53877737 54.3125 31.0625 52.4375 C22.33142456 48.20031738 12.79749906 47.96945778 3.25 48 C2.23873047 47.98388672 1.22746094 47.96777344 0.18554688 47.95117188 C-7.70340615 47.94609206 -15.01295724 48.86280483 -21.6875 53.3125 C-24.6575 53.3125 -27.6275 53.3125 -30.6875 53.3125 C-30.6875 37.1425 -30.6875 20.9725 -30.6875 4.3125 C-20.01733219 0.7557774 -11.09594526 0.04326677 0 0 Z " fill="#E0C06E" transform="translate(1024.6875,1072.6875)"/>
<path d="M0 0 C3.77189211 1.31577632 5.68131783 3.61000475 7.6875 6.9375 C10.72569045 14.08101391 11.8356388 21.01019249 11.86450195 28.7434082 C11.87107315 29.51513367 11.87764435 30.28685913 11.88441467 31.08197021 C11.90409871 33.63407515 11.91581247 36.18612073 11.92578125 38.73828125 C11.92985678 39.61944296 11.9339323 40.50060467 11.93813133 41.40846825 C11.95899229 46.0915643 11.9732821 50.77463124 11.98266602 55.45776367 C11.99144759 59.28540351 12.0121328 63.11267099 12.04418945 66.94018555 C12.52584416 125.7732758 12.52584416 125.7732758 1.3125 139.9375 C-1.78563441 142.29798336 -3.41316782 143.01707821 -7.3125 142.9375 C-10.42578125 141.41015625 -10.42578125 141.41015625 -13.3125 138.9375 C-14.10130441 136.16375334 -14.4207489 134.13709004 -14.5625 131.3125 C-14.62421387 130.5076416 -14.68592773 129.7027832 -14.74951172 128.87353516 C-14.88637012 126.9960836 -15.00802503 125.11748958 -15.11816406 123.23828125 C-15.29780991 120.18701007 -15.50527594 117.1385894 -15.72064209 114.08966064 C-21.92902901 25.56132122 -21.92902901 25.56132122 -6.1875 2.875 C-3.99410025 0.60848692 -3.1614783 -0.08544536 0 0 Z " fill="#858182" transform="translate(936.3125,808.0625)"/>
<path d="M0 0 C5.81817206 1.16363441 11.2295101 2.24986827 16.859375 3.8828125 C18.11991699 4.24141357 19.38045898 4.60001465 20.67919922 4.96948242 C21.34014587 5.15771576 22.00109253 5.3459491 22.68206787 5.53988647 C41.92544293 10.98472621 61.36909748 15.21441355 81 19 C81.72171387 19.13944031 82.44342773 19.27888062 83.18701172 19.42254639 C122.39713168 26.95370363 162.17259566 31.52102518 202.015625 33.88146973 C203.79325064 33.98765049 205.57048521 34.10033146 207.34765625 34.21386719 C230.8428586 35.67651318 254.4721552 35.09357075 278 35 C278 35.66 278 36.32 278 37 C254.16672027 37.17455562 230.33338551 37.34055592 206.5 37.5 C205.1683709 37.50892281 205.1683709 37.50892281 203.8098402 37.51802588 C152.58128283 37.86077368 101.35477438 38.09649454 50.125 38.0625 C48.82531281 38.06164398 47.52562561 38.06078796 46.18655396 38.05990601 C30.79101757 38.04897244 15.39551304 38.02871473 0 38 C0 25.46 0 12.92 0 0 Z " fill="#A16023" transform="translate(595,1222)"/>
<path d="M0 0 C24.42 0 48.84 0 74 0 C74 22.77 74 45.54 74 69 C38.96160425 55.65203971 18.13645762 35.98475327 1 3 C0.67 2.01 0.34 1.02 0 0 Z " fill="#B77232" transform="translate(507,1148)"/>
<path d="M0 0 C3.27814265 1.31125706 5.90340106 2.41553803 8.85546875 4.171875 C9.56123047 4.58953125 10.26699219 5.0071875 10.99414062 5.4375 C11.71794922 5.870625 12.44175781 6.30375 13.1875 6.75 C13.89197266 7.16765625 14.59644531 7.5853125 15.32226562 8.015625 C18.35653088 9.81696256 21.38427977 11.62879367 24.40625 13.45068359 C28.69678582 16.0359848 33.00252081 18.58446811 37.3515625 21.0703125 C39.109375 22.08854167 40.8671875 23.10677083 42.625 24.125 C43.53378906 24.63675781 44.44257812 25.14851562 45.37890625 25.67578125 C46.23613281 26.17722656 47.09335938 26.67867187 47.9765625 27.1953125 C49.13792725 27.86071045 49.13792725 27.86071045 50.32275391 28.53955078 C50.87624512 29.02149902 51.42973633 29.50344727 52 30 C52 31.32 52 32.64 52 34 C50.50634766 35.44458008 50.50634766 35.44458008 48.4140625 36.76953125 C47.65335449 37.26203369 46.89264648 37.75453613 46.10888672 38.26196289 C44.87936279 39.02947876 44.87936279 39.02947876 43.625 39.8125 C41.95263326 40.88986206 40.28075377 41.96798088 38.609375 43.046875 C37.80435547 43.56056641 36.99933594 44.07425781 36.16992188 44.60351562 C33.69401539 46.19692079 31.27526805 47.85748201 28.875 49.5625 C25.93972375 51.64229434 22.98951313 53.69676356 20.01953125 55.7265625 C18.94952881 56.45830688 18.94952881 56.45830688 17.85791016 57.20483398 C16.44587784 58.16943154 15.0328435 59.13256444 13.61865234 60.09399414 C10.71194687 62.08156769 7.95186181 64.04111374 5.26953125 66.33203125 C3 68 3 68 -1 68 C-1 61.07 -1 54.14 -1 47 C-15.85 47 -30.7 47 -46 47 C-46 37.76 -46 28.52 -46 19 C-30.82 19 -15.64 19 0 19 C0 12.73 0 6.46 0 0 Z " fill="#FDFDFD" transform="translate(1036,850)"/>
<path d="M0 0 C37.81902156 -0.02278909 75.63804191 -0.04049751 113.45706895 -0.05106533 C117.91709871 -0.05231611 122.37712846 -0.05361042 126.8371582 -0.05493164 C128.16908362 -0.05532511 128.16908362 -0.05532511 129.52791662 -0.05572652 C143.92496432 -0.06008351 158.32200804 -0.06797122 172.71905338 -0.0771528 C187.48040995 -0.08648853 202.24176442 -0.09205544 217.00312382 -0.09408849 C226.1192306 -0.09546389 235.23532615 -0.09981536 244.35142947 -0.10791647 C250.59392978 -0.11318294 256.83642424 -0.11480452 263.07892662 -0.11350138 C266.68605785 -0.11285784 270.29316939 -0.11387724 273.90029716 -0.11920547 C277.80169786 -0.12492665 281.70307247 -0.12300111 285.60447693 -0.12025452 C287.33352513 -0.12462378 287.33352513 -0.12462378 289.0975036 -0.12908131 C290.6523429 -0.12609474 290.6523429 -0.12609474 292.2385931 -0.12304783 C293.59134678 -0.12361741 293.59134678 -0.12361741 294.97142881 -0.1241985 C297 0 297 0 298 1 C298.23728814 7.52542373 298.23728814 7.52542373 297 10 C198.99 10 100.98 10 0 10 C0 6.7 0 3.4 0 0 Z " fill="#373334" transform="translate(882,718)"/>
<path d="M0 0 C13.241128 10.6546686 23.78389382 24.6996682 29 41 C27.35 41.66 25.7 42.32 24 43 C23.53851562 42.3709375 23.07703125 41.741875 22.6015625 41.09375 C4.67436211 17.56872814 -24.95979632 9.02130377 -53.0378418 4.68530273 C-60.54757597 3.70200106 -68.12548318 3.71646546 -75.6875 3.6875 C-76.41322205 3.68388458 -77.13894409 3.68026917 -77.88665771 3.67654419 C-89.87985087 3.6526205 -101.17967053 4.83400015 -112.89160156 7.54248047 C-115.91170371 8.19783844 -118.93530437 8.60972375 -122 9 C-110.49329246 -6.56789844 -90.46908134 -15.30723399 -71.8359375 -18.55078125 C-45.73440977 -21.60747747 -21.02291831 -16.05168691 0 0 Z " fill="#BFB298" transform="translate(1087,1150)"/>
<path d="M0 0 C75.9 0 151.8 0 230 0 C228.3906404 4.02339899 226.70698363 8.0170382 225 12 C152.4 12.33 79.8 12.66 5 13 C0 3 0 3 0 0 Z " fill="#443E40" transform="translate(916,1008)"/>
<path d="M0 0 C1.09119644 -0.0004985 2.18239288 -0.00099701 3.30665588 -0.00151062 C5.60509063 0.00081595 7.90352861 0.01045993 10.2019043 0.02709961 C13.65112143 0.05050786 17.09955254 0.04767113 20.54882812 0.04101562 C33.90070787 0.05757803 47.00872606 0.67229768 60.25390625 2.36328125 C62.1397644 2.59809204 62.1397644 2.59809204 64.0637207 2.83764648 C67.28069667 3.26391008 70.48501445 3.73928008 73.69140625 4.23828125 C75.28178711 4.46064453 75.28178711 4.46064453 76.90429688 4.6875 C82.37767004 5.53699514 86.27328145 6.18143805 90.25390625 10.36328125 C90.06640625 13.17578125 90.06640625 13.17578125 89.25390625 16.36328125 C76.62106951 25.74599185 55.1953849 22.78563994 40.50732422 22.68585205 C37.19107894 22.66918192 33.87486488 22.68002657 30.55859375 22.68554688 C-12.95580396 22.63745512 -12.95580396 22.63745512 -24.87109375 15.48828125 C-26.74609375 13.36328125 -26.74609375 13.36328125 -27.30859375 10.92578125 C-26.50149908 7.24901666 -25.60378672 5.88868434 -22.74609375 3.36328125 C-15.27213329 0.46278822 -7.9339239 -0.07178299 0 0 Z " fill="#D0A379" transform="translate(1248.74609375,1257.63671875)"/>
<path d="M0 0 C20.13 0 40.26 0 61 0 C61 11.88 61 23.76 61 36 C53.45467164 36.1380243 45.91375077 36.25738788 38.36816406 36.32958984 C35.80355967 36.35969691 33.2390577 36.40059227 30.67480469 36.45263672 C26.9808623 36.52571316 23.28828526 36.55951931 19.59375 36.5859375 C17.8839093 36.63238907 17.8839093 36.63238907 16.13952637 36.67977905 C14.51875183 36.68045883 14.51875183 36.68045883 12.86523438 36.68115234 C11.92369507 36.69447601 10.98215576 36.70779968 10.01208496 36.7215271 C7 36 7 36 -1 30 C-0.67 20.1 -0.34 10.2 0 0 Z " fill="#443E40" transform="translate(928,1024)"/>
<path d="M0 0 C0.57363281 0.72574219 1.14726563 1.45148438 1.73828125 2.19921875 C10.55209252 13.11373115 20.19902407 22.38696936 32 30 C32.58749023 30.37914551 33.17498047 30.75829102 33.78027344 31.14892578 C60.79025166 48.35634489 95.74998063 59.57664353 127.875 52.625 C129.92127578 52.10101433 131.96359043 51.56110748 134 51 C135.78948465 50.59441625 137.58093928 50.1973371 139.375 49.8125 C140.57125 49.544375 141.7675 49.27625 143 49 C135.20990513 57.30847456 125.2695638 61.87091433 114.625 65.4375 C113.88870361 65.6842749 113.15240723 65.9310498 112.39379883 66.18530273 C89.80923364 73.33186617 63.79019557 69.70558458 43 59 C23.28076198 47.74246763 7.80811273 30.24317936 -0.0625 8.875 C-0.92426738 5.31302818 -1.21159009 3.41448116 0 0 Z " fill="#6FA098" transform="translate(945,1241)"/>
<path d="M0 0 C6.27782876 0.03508888 12.55568939 0.06317897 18.83354902 0.09210706 C30.64694442 0.1475573 42.46029998 0.20902741 54.27365291 0.2728284 C63.71463641 0.32367203 73.15563168 0.37150756 82.59664106 0.41728711 C83.26664167 0.42053683 83.93664227 0.42378655 84.62694593 0.42713474 C87.98994733 0.44343079 91.35294897 0.45967715 94.71595073 0.47589886 C122.37788163 0.60950219 150.03976361 0.75156813 177.70162153 0.89946485 C177.70162153 3.53946485 177.70162153 6.17946485 177.70162153 8.89946485 C155.38912809 8.93080011 133.07663377 8.95067939 110.76412153 8.96196485 C109.93033995 8.96239915 109.09655837 8.96283345 108.23751068 8.96328092 C58.4524448 8.98850478 8.67223667 8.85096626 -41.11087847 8.39946485 C-43.08990223 8.38152812 -43.08990223 8.38152812 -45.10890627 8.36322904 C-60.83884482 8.21968556 -76.56866422 8.06575912 -92.29837847 7.89946485 C-92.29837847 5.58946485 -92.29837847 3.27946485 -92.29837847 0.89946485 C-61.52398647 -0.06226243 -30.78702394 -0.1785446 0 0 Z " fill="#443E40" transform="translate(988.2983784675598,706.1005351543427)"/>
<path d="M0 0 C0.33 0 0.66 0 1 0 C2.33795899 29.88947767 2.12063828 59.8020399 2.07202661 89.71349657 C2.06063804 96.85069796 2.05529799 103.98790055 2.05032361 111.12510884 C2.04000221 125.75008182 2.02253112 140.37504058 2 155 C-1.49384497 152.12046397 -4.74088231 149.39239207 -7.6875 145.9375 C-8.52861328 144.96103516 -8.52861328 144.96103516 -9.38671875 143.96484375 C-9.91910156 143.31644531 -10.45148438 142.66804688 -11 142 C-11.52026764 141.49522629 -12.04053528 140.99045258 -12.5765686 140.47038269 C-14.79332662 136.6231719 -14.41742033 132.87359847 -14.38818359 128.5090332 C-14.39344055 127.54754868 -14.39869751 126.58606415 -14.40411377 125.59544373 C-14.41732697 122.4137247 -14.40856736 119.23250548 -14.3984375 116.05078125 C-14.40045868 113.83603316 -14.40337049 111.62128573 -14.40713501 109.40653992 C-14.41156085 104.76030147 -14.40512189 100.11423593 -14.39111328 95.46801758 C-14.37407128 89.52756282 -14.38382945 83.58751619 -14.40183067 77.64707661 C-14.41270404 73.0701341 -14.409205 68.49328727 -14.4014473 63.91634178 C-14.39945251 61.72719461 -14.40187908 59.53803862 -14.40888596 57.34890175 C-14.41655319 54.27834943 -14.40482011 51.20844395 -14.38818359 48.13793945 C-14.39425629 47.24150726 -14.40032898 46.34507507 -14.40658569 45.42147827 C-14.35439719 40.18992245 -13.5845146 35.89076001 -11.72805214 30.99075603 C-10.85040696 28.72279379 -10.85040696 28.72279379 -10.125 25.125 C-9.08625561 20.76227358 -7.21484691 16.87645562 -5.30859375 12.83203125 C-3.36406213 8.62371654 -1.67750857 4.32028744 0 0 Z " fill="#E0C06D" transform="translate(1124,1255)"/>
<path d="M0 0 C9.24 0 18.48 0 28 0 C28 20.46 28 40.92 28 62 C19.42 62 10.84 62 2 62 C-2 58 -2 58 -2.4699707 55.11279297 C-2.45538818 54.00049316 -2.44080566 52.88819336 -2.42578125 51.7421875 C-2.41812744 50.48809082 -2.41047363 49.23399414 -2.40258789 47.94189453 C-2.37331583 46.58624646 -2.3432701 45.2306149 -2.3125 43.875 C-2.29481292 42.48943691 -2.27846874 41.10385606 -2.26342773 39.71826172 C-2.20867226 35.47788757 -2.10974317 31.23926452 -2 27 C-1.96712891 25.68451172 -1.93425781 24.36902344 -1.90039062 23.01367188 C-1.74353421 17.23958016 -1.5576777 11.46652563 -1.31640625 5.6953125 C-1.27974854 4.80859863 -1.24309082 3.92188477 -1.20532227 3.00830078 C-1 1 -1 1 0 0 Z " fill="#E0C06D" transform="translate(922,1071)"/>
<path d="M0 0 C0 20.79 0 41.58 0 63 C-6.93 63 -13.86 63 -21 63 C-21.99 61.68 -22.98 60.36 -24 59 C-27.60465748 58.18685089 -27.60465748 58.18685089 -31 58 C-31.02507438 53.12939817 -31.04303343 48.25883547 -31.05493164 43.38818359 C-31.05990175 41.7377863 -31.06668017 40.08739326 -31.07543945 38.43701172 C-31.10375661 32.95680972 -31.08006676 27.47969088 -31 22 C-30.99313171 21.29234497 -30.98626343 20.58468994 -30.97918701 19.85559082 C-30.95027208 17.9057165 -30.88057497 15.95657227 -30.80859375 14.0078125 C-30.77435303 12.91355957 -30.7401123 11.81930664 -30.70483398 10.69189453 C-30 8 -30 8 -27.66748047 6.1953125 C-19.34406833 2.46554627 -9.15621432 0 0 0 Z " fill="#E0C06D" transform="translate(1108,1069)"/>
<path d="M0 0 C1.23492188 0.15984375 2.46984375 0.3196875 3.7421875 0.484375 C9.26193735 1.44860938 14.68896456 2.89099114 20.125 4.25 C20.125 23.39 20.125 42.53 20.125 62.25 C10.555 62.25 0.985 62.25 -8.875 62.25 C-8.875 41.79 -8.875 21.33 -8.875 0.25 C-5.82634675 -1.27432662 -3.34693765 -0.45173392 0 0 Z " fill="#E0C06E" transform="translate(1120.875,1069.75)"/>
<path d="M0 0 C13.64315353 1.13692946 13.64315353 1.13692946 18.875 2.375 C19.90367187 2.60960937 20.93234375 2.84421875 21.9921875 3.0859375 C25 4 25 4 31 7 C31 22.84 31 38.68 31 55 C28.36 55.66 25.72 56.32 23 57 C22.01 58.32 21.02 59.64 20 61 C13.4 61 6.8 61 0 61 C0 40.87 0 20.74 0 0 Z " fill="#E0C06E" transform="translate(953,1071)"/>
<path d="M0 0 C0.02948491 3.14581302 0.04695916 6.29158963 0.0625 9.4375 C0.07087891 10.31599609 0.07925781 11.19449219 0.08789062 12.09960938 C0.09442714 13.87100454 0.07681384 15.64264547 0.03564453 17.41357422 C-0.0405681 19.96946941 -0.0405681 19.96946941 0.19482422 22.38720703 C0.27888076 26.11371382 -0.38366107 28.27357971 -2.8210907 31.14634705 C-13.60391858 39.71908996 -26.22623679 38.00620865 -39.328125 37.78125 C-41.88928452 37.76631039 -44.45046706 37.75493151 -47.01165771 37.74694824 C-53.03617337 37.71964795 -59.05927528 37.65677002 -65.08322692 37.57615232 C-71.94898665 37.48629139 -78.81480704 37.44263747 -85.68100977 37.40258884 C-99.78799021 37.31928582 -113.89393009 37.17885118 -128 37 C-128 36.34 -128 35.68 -128 35 C-127.15107178 34.96036133 -126.30214355 34.92072266 -125.42749023 34.87988281 C-89.96259731 33.14767054 -47.76046568 29.79301339 -20.125 4.625 C-14.02387793 -0.53059745 -7.62986484 0 0 0 Z " fill="#373334" transform="translate(1141,1023)"/>
<path d="M0 0 C0 50.16 0 100.32 0 152 C-10 149 -10 149 -11 148 C-11.09648248 146.15238732 -11.12187318 144.3010419 -11.12025452 142.45091248 C-11.12162918 141.24631378 -11.12300385 140.04171509 -11.12442017 138.8006134 C-11.12088056 137.45358252 -11.11724575 136.10655188 -11.11352539 134.75952148 C-11.11324352 133.35052492 -11.11340125 131.94152821 -11.1139679 130.53253174 C-11.11425589 126.6959237 -11.10835894 122.85934666 -11.10139394 119.02274585 C-11.09516063 115.01753059 -11.09455662 111.0123147 -11.09336853 107.00709534 C-11.09025515 99.41747996 -11.08204167 91.82787892 -11.07201904 84.23826987 C-11.06085812 75.59996076 -11.05534751 66.96165099 -11.05032361 58.32333648 C-11.03985906 40.54888285 -11.02225948 22.77444258 -11 5 C-9.35538655 4.16426177 -7.70927487 3.33147118 -6.0625 2.5 C-4.68771484 1.80390625 -4.68771484 1.80390625 -3.28515625 1.09375 C-1 0 -1 0 0 0 Z " fill="#B77232" transform="translate(1204,1247)"/>
<path d="M0 0 C4.82085612 4.55513964 5.98934741 9.18435854 6.25 15.625 C5.81162739 30.9108623 -2.76452456 45.18987451 -13.1875 55.9375 C-19.1340944 60.65216752 -23.47879266 63.35046646 -31.1875 62.9375 C-31.8475 62.2775 -32.5075 61.6175 -33.1875 60.9375 C-33.1875 54.3321449 -30.31799824 50.85313427 -26.1875 45.9375 C-24.60224283 44.02242422 -23.01898686 42.10569052 -21.4375 40.1875 C-20.67953125 39.28515625 -19.9215625 38.3828125 -19.140625 37.453125 C-15.75356737 33.09059477 -14.935159 30.48900192 -15.1875 24.9375 C-19.8455603 22.11814771 -23.69806913 21.51197154 -29.015625 21.24609375 C-31.1875 20.9375 -31.1875 20.9375 -33.1875 18.9375 C-33.86093916 15.79478392 -33.67088281 13.79193019 -32.078125 10.9765625 C-25.7132571 2.75264903 -9.92068283 -6.41926536 0 0 Z " fill="#B8E3DB" transform="translate(1111.1875,1210.0625)"/>
<path d="M0 0 C2.97 0 5.94 0 9 0 C9 50.16 9 100.32 9 152 C6.03 152 3.06 152 0 152 C0 101.84 0 51.68 0 0 Z " fill="#AF6F34" transform="translate(1466,1249)"/>
<path d="M0 0 C0.97099294 -0.00215641 1.94198587 -0.00431282 2.94240284 -0.00653458 C6.18906608 -0.00877738 9.43485017 0.01768835 12.68139648 0.04418945 C14.98483016 0.04862312 17.28826766 0.05135951 19.59170532 0.05250549 C25.79350491 0.06097687 31.99492182 0.09483113 38.19659042 0.13459778 C43.32551135 0.16502217 48.45444172 0.18255864 53.58342075 0.19996834 C66.5181024 0.24405567 79.45247453 0.31535355 92.38694096 0.4011097 C100.54920147 0.45432506 108.71139344 0.49371966 116.8737793 0.52124023 C126.68792521 0.55452643 136.50172229 0.60831567 146.31564331 0.68252563 C149.88036663 0.70912967 153.44499418 0.72770125 157.00979614 0.73959351 C161.15402739 0.75433331 165.29764446 0.78835359 169.4416008 0.83796501 C170.93570184 0.8528025 172.42988639 0.86102861 173.92406082 0.86194038 C175.9437821 0.86428195 177.96341899 0.89349571 179.98291016 0.92407227 C181.10324142 0.93295471 182.22357269 0.94183716 183.37785339 0.95098877 C187.21060373 1.59014067 189.45382519 3.0952039 192.48999023 5.4699707 C192.48999023 5.7999707 192.48999023 6.1299707 192.48999023 6.4699707 C191.15657372 6.32489992 189.8232626 6.17886041 188.48999023 6.0324707 C187.65983398 5.94223633 186.82967773 5.85200195 185.97436523 5.7590332 C183.89099852 5.5166289 181.81420655 5.21860315 179.73999023 4.9074707 C165.04693934 3.05984155 150.15018021 4.64054877 136.80249023 11.1574707 C127.95731868 15.26860678 122.09529766 13.16444672 113.08764648 10.4934082 C93.83830372 5.01748225 69.4074629 4.48862304 50.81811523 12.6418457 C48.12561864 13.59957939 46.81266141 13.48598099 44.05249023 12.8449707 C43.18366211 12.64645508 42.31483398 12.44793945 41.41967773 12.2434082 C38.15232103 11.38082603 34.91759625 10.42973485 31.67749023 9.4699707 C16.74722158 5.17911358 1.93566848 4.91411294 -13.51000977 4.4699707 C-9.85030716 -0.66077988 -5.7727717 -0.08110618 0 0 Z " fill="#DEBF6D" transform="translate(941.510009765625,1062.530029296875)"/>
<path d="M0 0 C1.82863249 3.91510429 2.25456755 7.01883425 2.27124023 11.32470703 C2.28142685 12.58437286 2.29161346 13.8440387 2.30210876 15.14187622 C2.30304976 15.81143467 2.30399075 16.48099312 2.30496025 17.17084122 C2.30865633 19.29375511 2.32547986 21.41621499 2.34571838 23.53903198 C2.40075299 29.57362263 2.43143067 35.60828432 2.45629883 41.64306641 C2.39774879 71.05972648 2.39774879 71.05972648 9.1484375 99.53125 C10.24249921 102.70302522 10.69710515 105.66815666 11 109 C4.90670255 109.37305903 0.27209611 109.26869959 -5 106 C-14.06213666 89.688154 -10.13028932 62.92038407 -10.23117065 44.65844727 C-10.24357422 42.70137693 -10.26096685 40.74433087 -10.28372192 38.78735352 C-10.59197257 10.44651602 -10.59197257 10.44651602 -5.64550781 1.5690918 C-4 0 -4 0 0 0 Z " fill="#EAD6A0" transform="translate(1142,1301)"/>
<path d="M0 0 C0 46.2 0 92.4 0 140 C-2.97 140 -5.94 140 -9 140 C-9 94.13 -9 48.26 -9 1 C-7 0 -7 0 0 0 Z " fill="#B77233" transform="translate(1190,1254)"/>
<path d="M0 0 C15.51 0 31.02 0 47 0 C45 5 45 5 42.91308594 7.97680664 C39.81231838 13.32279955 40.39661257 19.36445945 40.390625 25.37109375 C40.37408875 26.64855972 40.35755249 27.9260257 40.34051514 29.24220276 C40.30029695 32.61742018 40.27688902 35.99188616 40.26177979 39.36724854 C40.24213435 42.81985657 40.20017314 46.27218799 40.16015625 49.72460938 C40.08631749 56.48300511 40.03465094 63.24129583 40 70 C39.34 70 38.68 70 38 70 C36.65994986 65.78841384 35.79747106 61.75517313 35.1875 57.375 C32.49112703 40.86743416 23.1263043 24.60565483 9.79296875 14.29296875 C8.4389737 13.34090173 7.08482004 12.38906019 5.73046875 11.4375 C2.83088971 9.02882035 1.54754184 6.41748822 0 3 C0 2.01 0 1.02 0 0 Z " fill="#E0C06D" transform="translate(1091,1136)"/>
<path d="M0 0 C24.09 0 48.18 0 73 0 C73 16.5 73 33 73 50 C69.74258906 47.8283927 69.36473669 47.01096456 67.875 43.5625 C60.36552724 28.00556241 46.96774316 17.75539526 32 10 C31.04867188 9.50371094 30.09734375 9.00742187 29.1171875 8.49609375 C19.93080105 4.0100304 10.1291736 1.99305624 0 1 C0 0.67 0 0.34 0 0 Z " fill="#383435" transform="translate(994,643)"/>
<path d="M0 0 C1.65 0 3.3 0 5 0 C5 59.4 5 118.8 5 180 C3.35 180 1.7 180 0 180 C0 120.6 0 61.2 0 0 Z " fill="#E0C06E" transform="translate(1164,1234)"/>
<path d="M0 0 C1.98 0 3.96 0 6 0 C6 46.2 6 92.4 6 140 C4.02 140 2.04 140 0 140 C0 93.8 0 47.6 0 0 Z " fill="#B77233" transform="translate(1172,1254)"/>
<path d="M0 0 C1.98 0 3.96 0 6 0 C6.030553 14.20832367 6.05095937 28.416648 6.0625 42.625 C6.06378403 44.19472313 6.06378403 44.19472313 6.06509399 45.79615784 C6.08925081 79.2097059 5.87683331 112.59638221 5 146 C3.35 146 1.7 146 0 146 C0 97.82 0 49.64 0 0 Z " fill="#DFC06D" transform="translate(890,1131)"/>
<path d="M0 0 C2.31 0 4.62 0 7 0 C7 36.63 7 73.26 7 111 C4.69 111 2.38 111 0 111 C0 74.37 0 37.74 0 0 Z " fill="#B77333" transform="translate(585,1149)"/>
<path d="M0 0 C1.11755676 -0.01270432 1.11755676 -0.01270432 2.25769043 -0.02566528 C4.72217853 -0.04907731 7.18604384 -0.05005648 9.65063477 -0.04882812 C11.36312613 -0.05592726 13.0756151 -0.06362589 14.7881012 -0.07189941 C18.37849539 -0.08535391 21.96866967 -0.08690873 25.55908203 -0.08105469 C30.16073834 -0.075158 34.76133979 -0.1057435 39.36279202 -0.14617157 C42.89986356 -0.17201869 46.43668012 -0.17492873 49.97383308 -0.17127991 C51.67032586 -0.17297402 53.36683006 -0.18264454 55.06323051 -0.20042419 C57.4361012 -0.22255624 59.80682431 -0.21294402 62.1796875 -0.1953125 C62.88060013 -0.20857574 63.58151276 -0.22183899 64.30366516 -0.23550415 C68.03468264 -0.17107146 69.41091258 0.18159878 72.12171936 2.83337402 C73.65454102 5.41992188 73.65454102 5.41992188 73.65454102 7.41992188 C45.27454102 7.41992188 16.89454102 7.41992188 -12.34545898 7.41992188 C-9.07871951 0.88644292 -7.1961501 -0.03000136 0 0 Z " fill="#443E40" transform="translate(999.345458984375,696.580078125)"/>
<path d="M0 0 C21.45 0 42.9 0 65 0 C65 2.97 65 5.94 65 9 C43.55 8.67 22.1 8.34 0 8 C0 5.36 0 2.72 0 0 Z " fill="#443E40" transform="translate(997,631)"/>
<path d="M0 0 C0 19.8 0 39.6 0 60 C-2.97 60 -5.94 60 -9 60 C-9 41.52 -9 23.04 -9 4 C-2 0 -2 0 0 0 Z " fill="#A26023" transform="translate(1475,1341)"/>
<path d="M0 0 C0.66 0.33 1.32 0.66 2 1 C2.46708765 3.73321613 2.84310284 6.4387262 3.1875 9.1875 C5.06333733 21.93182514 10.49803029 31.62005059 18.3984375 41.79296875 C20 44 20 44 21 47 C23.00016466 48.20882096 23.00016466 48.20882096 25 49 C25 49.33 25 49.66 25 50 C16.75 50 8.5 50 0 50 C-1.2195756 47.56084879 -1.08586292 46.08884853 -1.02172852 43.36669922 C-1.00163223 42.40585419 -0.98153595 41.44500916 -0.96083069 40.45504761 C-0.93379562 39.41542877 -0.90676056 38.37580994 -0.87890625 37.3046875 C-0.85529526 36.24210724 -0.83168427 35.17952698 -0.80735779 34.08474731 C-0.73060988 30.68136603 -0.64663335 27.27820596 -0.5625 23.875 C-0.50929046 21.57162551 -0.45655 19.26824013 -0.40429688 16.96484375 C-0.27497972 11.30975812 -0.13972279 5.65483758 0 0 Z " fill="#DFBF6D" transform="translate(932,1241)"/>
<path d="M0 0 C1.83832694 1.66785552 2.68036325 3.09913698 3.55859375 5.4140625 C3.18359375 8.1640625 3.18359375 8.1640625 2.55859375 10.4140625 C-2.0991488 10.67089778 -5.23367648 9.93166097 -9.50390625 8.1015625 C-22.03408137 3.05230244 -34.52355924 1.22479505 -47.94140625 1.3515625 C-49.318125 1.35833008 -49.318125 1.35833008 -50.72265625 1.36523438 C-52.96231016 1.37689924 -55.2018217 1.39326636 -57.44140625 1.4140625 C-54.71264658 -1.53473429 -52.69515641 -2.29248996 -48.75390625 -3.2109375 C-47.76003906 -3.45070313 -46.76617188 -3.69046875 -45.7421875 -3.9375 C-31.25605655 -6.78329614 -12.86014685 -8.28824433 0 0 Z " fill="#EAD6A0" transform="translate(1057.44140625,1081.5859375)"/>
<path d="M0 0 C1.875 1.875 1.875 1.875 3 5.3125 C2.875 8.875 2.875 8.875 0.5625 11.25 C-3.90367132 13.95047568 -7.2379479 14.05818315 -12.375 14.0625 C-13.50228516 14.08086914 -13.50228516 14.08086914 -14.65234375 14.09960938 C-19.20861483 14.11153679 -22.83447281 13.60350856 -27.125 11.875 C-28.09789325 8.77943057 -28.29707681 7.30013094 -27.0625 4.25 C-20.59233306 -3.68117238 -8.86355981 -3.19088153 0 0 Z " fill="#D0A378" transform="translate(1383.125,1265.125)"/>
<path d="M0 0 C7.59 0 15.18 0 23 0 C21.95212469 3.14362592 20.75351644 4.21086975 18.4453125 6.453125 C10.322931 15.14626844 5.23098687 27.45705123 0 38 C-1.2414206 34.27573819 -1.01823389 30.91648103 -0.87890625 27.05078125 C-0.85529526 26.27816452 -0.83168427 25.50554779 -0.80735779 24.70951843 C-0.73083079 22.2436536 -0.64675953 19.77811154 -0.5625 17.3125 C-0.50926832 15.63998971 -0.45652799 13.96746371 -0.40429688 12.29492188 C-0.27615297 8.19635092 -0.13781153 4.09830295 0 0 Z " fill="#DFBF6D" transform="translate(934,1149)"/>
<path d="M0 0 C3.65551291 1.51691352 5.76317586 3.68072407 8.4375 6.5625 C17.59697125 15.86970466 28.03100278 21.97398771 40 27 C40.78246094 27.3403125 41.56492187 27.680625 42.37109375 28.03125 C43.90886911 28.69957893 45.45331741 29.35255147 47 30 C47 30.33 47 30.66 47 31 C42.81935528 31.19844229 38.64123001 31.34321495 34.45727539 31.43945312 C33.0358912 31.47957871 31.61483514 31.53409912 30.19458008 31.60351562 C18.44918575 32.16301602 18.44918575 32.16301602 15.08984375 29.46704102 C13.76413714 27.36500349 12.88463244 25.31956968 12 23 C11.23795164 21.64247477 10.45408113 20.29695891 9.6484375 18.96484375 C8.8886526 17.62351117 8.13083518 16.28106219 7.375 14.9375 C6.9934375 14.26912109 6.611875 13.60074219 6.21875 12.91210938 C3.84602541 8.70256869 1.82689339 4.47414338 0 0 Z " fill="#A3A3A3" transform="translate(958,1280)"/>
<path d="M0 0 C3.00418869 0.32477716 4.57970965 0.57970965 6.75 2.75 C10.13768215 8.84782786 9.88282256 17.28335894 8.1875 23.9375 C6.43 28.47 6.43 28.47 4 30 C1.5 30.375 1.5 30.375 -1 30 C-3.5048111 28.12139167 -3.98700625 27.03898126 -5 24 C-5.2980207 21.06770265 -5.32319723 18.13319367 -5.375 15.1875 C-5.41238281 14.39279297 -5.44976563 13.59808594 -5.48828125 12.77929688 C-5.55265455 8.45555716 -5.2995516 5.81755185 -2.4765625 2.42578125 C-1.65929687 1.62527344 -0.84203125 0.82476563 0 0 Z " fill="#858182" transform="translate(935,767)"/>
<path d="M0 0 C1.1223713 3.36711389 0.82933477 4.58040403 0.08203125 7.9765625 C-1.05919376 13.82401871 -1.34417508 19.42812928 -1.3125 25.375 C-1.31193604 26.3743457 -1.31137207 27.37369141 -1.31079102 28.40332031 C-1.22680376 35.17280255 -0.51435944 41.17004062 1.44140625 47.671875 C2 50 2 50 1 53 C-1.71324657 48.69404246 -4.37821064 44.3620363 -7 40 C-7.35707031 39.40767578 -7.71414063 38.81535156 -8.08203125 38.20507812 C-9.09552509 36.50263622 -10.07950887 34.78273447 -11.0625 33.0625 C-11.65160156 32.04285156 -12.24070312 31.02320313 -12.84765625 29.97265625 C-14.26542244 26.31530008 -14.15270146 24.73683137 -13 21 C-11.72189193 18.39340275 -10.23634674 15.95337324 -8.6875 13.5 C-8.29626953 12.86191406 -7.90503906 12.22382812 -7.50195312 11.56640625 C-5.08810074 7.65140188 -2.57142199 3.81300104 0 0 Z " fill="#A3A3A3" transform="translate(939,1194)"/>
<path d="M0 0 C0.99 0 1.98 0 3 0 C3 35.64 3 71.28 3 108 C2.01 108 1.02 108 0 108 C0 72.36 0 36.72 0 0 Z " fill="#B87333" transform="translate(883,1151)"/>
<path d="M0 0 C13.53 0 27.06 0 41 0 C38.29853122 6.75367196 38.29853122 6.75367196 36 9 C31.44802854 9.86239987 26.81149917 9.60198166 22.1875 9.5625 C20.91583984 9.58634766 19.64417969 9.61019531 18.33398438 9.63476562 C7.90591041 9.61837787 7.90591041 9.61837787 4.11328125 6.58984375 C2 4 2 4 2 2 C1.34 2 0.68 2 0 2 C0 1.34 0 0.68 0 0 Z " fill="#DFBF6D" transform="translate(929,1136)"/>
<path d="M0 0 C2.31 0.66 4.62 1.32 7 2 C7 15.2 7 28.4 7 42 C4.69 42 2.38 42 0 42 C0 28.14 0 14.28 0 0 Z " fill="#A16023" transform="translate(585,1218)"/>
<path d="M0 0 C0.99 0.33 1.98 0.66 3 1 C4.37771231 7.11311239 4.44084883 13.25808094 4.6875 19.5 C4.74744141 20.72332031 4.80738281 21.94664063 4.86914062 23.20703125 C4.91619141 24.38652344 4.96324219 25.56601563 5.01171875 26.78125 C5.05772217 27.85439453 5.10372559 28.92753906 5.15112305 30.03320312 C4.99415007 33.11484393 4.31206517 35.22776947 3 38 C1.02 38 -0.96 38 -3 38 C-4.45665141 32.99798255 -4.18424242 27.98227948 -4.1875 22.8125 C-4.19974609 21.80896484 -4.21199219 20.80542969 -4.22460938 19.77148438 C-4.23641605 13.72253332 -4.06018111 7.75324651 -2 2 C-1.34 1.34 -0.68 0.68 0 0 Z " fill="#EAD69F" transform="translate(1133,1088)"/>
<path d="M0 0 C2.70556641 -0.34057617 2.70556641 -0.34057617 6.1015625 -0.29296875 C7.91914062 -0.2784668 7.91914062 -0.2784668 9.7734375 -0.26367188 C11.04445313 -0.23853516 12.31546875 -0.21339844 13.625 -0.1875 C14.90375 -0.17396484 16.1825 -0.16042969 17.5 -0.14648438 C20.66708282 -0.11103196 23.83333541 -0.06161441 27 0 C24.54994033 2.45005967 22.52013191 2.9844418 19.25 4.125 C8.06291817 8.3526044 -1.49930695 13.8734929 -10.109375 22.3125 C-12 24 -12 24 -14 24 C-12.33994727 19.18961992 -9.71778563 15.13804089 -7 10.875 C-6.54882812 10.15957031 -6.09765625 9.44414063 -5.6328125 8.70703125 C-3.78522047 5.78258825 -1.91895637 2.87843455 0 0 Z " fill="#A3A3A3" transform="translate(978,1130)"/>
<path d="M0 0 C3.5 0.3125 3.5 0.3125 5.9375 1.875 C8.10396028 5.25467804 8.06288002 7.37233987 7.5 11.3125 C5.8415525 14.05254369 4.52615311 15.03016186 1.44140625 15.87890625 C-3.74419584 16.70965195 -6.97812907 16.2517161 -11.5 13.3125 C-12.5 12.3125 -12.5 12.3125 -12.875 9.5625 C-12.37712681 5.24759903 -10.84507938 3.9733586 -7.5 1.3125 C-4.98073969 0.22082053 -2.7673619 0.24708588 0 0 Z " fill="#D0A379" transform="translate(696.5,1163.6875)"/>
<path d="M0 0 C1.35330776 4.05992328 0.25277116 5.86798951 -1.45385742 9.66650391 C-3.76558182 14.16280569 -5.83647121 17.98715652 -10 21 C-18.73178823 23.30815685 -28.13947492 22.09852859 -37 21 C-36 19 -36 19 -34.09375 18.24609375 C-33.2378125 17.97925781 -32.381875 17.71242188 -31.5 17.4375 C-20.24214717 13.50828862 -9.18320066 7.62010267 0 0 Z " fill="#A4A4A4" transform="translate(1094,1290)"/>
<path d="M0 0 C3.08888284 2.91469154 5.01366702 6.25416205 7.0625 9.9375 C7.41376953 10.55818359 7.76503906 11.17886719 8.12695312 11.81835938 C9.83026187 14.8418129 11.48874126 17.87568789 13 21 C12.56429688 21.59425781 12.12859375 22.18851563 11.6796875 22.80078125 C7.25612939 28.95737837 3.49100233 35.27374642 0 42 C-0.33 42 -0.66 42 -1 42 C-0.9285376 41.39373779 -0.8570752 40.78747559 -0.78344727 40.1628418 C0.10833281 31.70533979 0.11448893 23.30239057 0.0625 14.8125 C0.05747088 13.36914219 0.05291049 11.92578267 0.04882812 10.48242188 C0.0379438 6.98824495 0.0207585 3.49413388 0 0 Z " fill="#A4A4A4" transform="translate(1123,1202)"/>
<path d="M0 0 C3.87370451 -0.26246434 7.74512381 -0.42153564 11.625 -0.5625 C13.26662109 -0.67561523 13.26662109 -0.67561523 14.94140625 -0.79101562 C22.91527642 -1.00848481 22.91527642 -1.00848481 26.01123047 1.86987305 C27.56434718 4.1827758 28.81210462 6.48261469 30 9 C30.55429688 9.91652344 31.10859375 10.83304688 31.6796875 11.77734375 C32.27136719 12.84662109 32.27136719 12.84662109 32.875 13.9375 C33.28492188 14.66839844 33.69484375 15.39929687 34.1171875 16.15234375 C35 18 35 18 35 20 C30.80878971 19.46730421 28.19370744 16.91241953 25.0625 14.3125 C18.79108926 9.28387741 12.47989387 6.00821819 5 3 C4.05125 2.6184375 3.1025 2.236875 2.125 1.84375 C1.42375 1.5653125 0.7225 1.286875 0 1 C0 0.67 0 0.34 0 0 Z " fill="#A4A4A4" transform="translate(1059,1131)"/>
<path d="M0 0 C4.29 0 8.58 0 13 0 C13 5.61 13 11.22 13 17 C10.27157939 18.36421031 8.39046682 17.87807211 5.375 17.5625 C3.60125 17.376875 1.8275 17.19125 0 17 C0 11.39 0 5.78 0 0 Z " fill="#373334" transform="translate(1144,967)"/>
<path d="M0 0 C0 0.99 0 1.98 0 3 C-2.20253017 5.05810197 -4.37708423 6.90690866 -6.75 8.75 C-7.4308667 9.28351074 -8.1117334 9.81702148 -8.81323242 10.36669922 C-23.19162011 21.44664411 -35.4383471 25.72907254 -53.8125 23.6875 C-59.14153669 22.79932722 -64.24755442 21.36236245 -69.4375 19.875 C-79.02100023 17.28959324 -87.43675868 16.50866854 -96.6640625 20.64453125 C-100.57414641 22.91342609 -103.80538261 25.82322963 -107 29 C-107.66 28.34 -108.32 27.68 -109 27 C-101.52195417 20.00965281 -93.0493901 14.64059234 -82.51953125 14.77734375 C-75.86873421 15.36508861 -69.26555235 17.10389045 -62.83984375 18.8671875 C-49.6119961 22.37900546 -34.657472 23.24059878 -22.34375 16.55859375 C-16.2409555 12.86434596 -10.75629467 8.51512675 -5.3125 3.91796875 C-3 2 -3 2 0 0 Z " fill="#080909" transform="translate(1055,1210)"/>
<path d="M0 0 C5.28 0 10.56 0 16 0 C16 7.01820349 14.68629953 8.83707856 10.37890625 13.984375 C7.69274855 16.26033128 6.4708457 16.64700219 3 16.625 C1.02 16.315625 1.02 16.315625 -1 16 C-0.67 10.72 -0.34 5.44 0 0 Z " fill="#373334" transform="translate(1141,988)"/>
<path d="M0 0 C-2.76301358 1.84200905 -5.35925806 3.07516081 -8.375 4.4375 C-14.02399473 7.22125942 -18.32310528 10.6051591 -22.98388672 14.73974609 C-26.94802333 18.21562433 -31.0571121 21.22512889 -35.5 24.0625 C-36.07540527 24.43221924 -36.65081055 24.80193848 -37.24365234 25.18286133 C-42.16756057 28.26229233 -46.127928 30.33554697 -52 30 C-51.30648438 29.44570312 -50.61296875 28.89140625 -49.8984375 28.3203125 C-47.920418 26.73683058 -45.94663114 25.14805051 -43.9765625 23.5546875 C-13.88353309 -0.61160939 -13.88353309 -0.61160939 0 0 Z " fill="#6F9D95" transform="translate(1084,1200)"/>
<path d="M0 0 C8.25120511 2.440387 16.54558436 3.2536938 25.09667969 3.9309082 C25.09667969 4.5909082 25.09667969 5.2509082 25.09667969 5.9309082 C15.39236122 8.62512456 5.96404664 5.83875417 -3.57714844 3.70825195 C-11.54972179 2.00366999 -18.92080569 0.92954856 -26.90332031 2.9309082 C-29.23632964 2.96979169 -31.57041832 2.9757717 -33.90332031 2.9309082 C-24.85286403 -6.88979968 -11.20026453 -3.41216803 0 0 Z " fill="#6F9E96" transform="translate(988.9033203125,1230.069091796875)"/>
<path d="M0 0 C1.98 0.495 1.98 0.495 4 1 C3.67 16.51 3.34 32.02 3 48 C1.68 48 0.36 48 -1 48 C-1.02526945 41.3247966 -1.04283268 34.64960543 -1.05493164 27.97436523 C-1.05997325 25.70157409 -1.06680637 23.4287862 -1.07543945 21.15600586 C-1.08751261 17.89696449 -1.09322987 14.63796583 -1.09765625 11.37890625 C-1.10281754 10.35599991 -1.10797882 9.33309357 -1.11329651 8.27919006 C-1.11337204 7.33829025 -1.11344757 6.39739044 -1.11352539 5.42797852 C-1.115746 4.59524918 -1.11796661 3.76251984 -1.12025452 2.90455627 C-1 1 -1 1 0 0 Z " fill="#DCBD6C" transform="translate(1071,1079)"/>
<path d="M0 0 C1.32 0 2.64 0 4 0 C4 15.51 4 31.02 4 47 C2.68 47 1.36 47 0 47 C-0.79445112 40.85570971 -1.09199847 34.99406264 -0.87890625 28.80859375 C-0.85529526 27.97787857 -0.83168427 27.14716339 -0.80735779 26.29127502 C-0.73161076 23.67313624 -0.64721188 21.05536245 -0.5625 18.4375 C-0.50918989 16.64780352 -0.45645035 14.85808994 -0.40429688 13.06835938 C-0.27611833 8.71201442 -0.14018716 4.35597438 0 0 Z " fill="#DEBE6C" transform="translate(987,1079)"/>
<path d="M0 0 C2.71800261 1.57819507 2.96259511 2.89246095 4 5.875 C4 9 4 9 2 11.8125 C-1.53092911 14.38713581 -3.64617549 15 -8 15 C-10.5 14.125 -10.5 14.125 -12 12 C-12.22422733 8.10857085 -12.06851598 4.43531998 -9.69140625 1.2421875 C-6.71312773 -0.94509326 -3.532774 -0.5310224 0 0 Z " fill="#B8E3DB" transform="translate(1072,1273)"/>
<path d="M0 0 C0.81831299 0.00128906 1.63662598 0.00257812 2.47973633 0.00390625 C9.54724531 0.11464971 15.96678563 1.26657538 22.75 3.3125 C22.75 3.9725 22.75 4.6325 22.75 5.3125 C8.89 5.3125 -4.97 5.3125 -19.25 5.3125 C-18.92 4.3225 -18.59 3.3325 -18.25 2.3125 C-12.59010359 -0.02621491 -6.03868886 -0.03997064 0 0 Z " fill="#A3A3A3" transform="translate(1028.25,1122.6875)"/>
<path d="M0 0 C14.19 0 28.38 0 43 0 C43 0.66 43 1.32 43 2 C27.89511728 6.80609905 14.78900579 5.75968002 0 1 C0 0.67 0 0.34 0 0 Z " fill="#A3A3A3" transform="translate(1007,1314)"/>
<path d="M0 0 C10.27583566 7.43358324 16.32802262 19.46077876 21 31 C21.39316406 31.86496094 21.78632812 32.72992187 22.19140625 33.62109375 C23 36 23 36 22 39 C18.75851755 33.64242512 15.55972933 28.26275304 12.421875 22.84375 C11.51695313 21.28140625 11.51695313 21.28140625 10.59375 19.6875 C9.34712137 17.53231151 8.10237959 15.37603069 6.859375 13.21875 C5.9621875 11.671875 5.9621875 11.671875 5.046875 10.09375 C4.50901367 9.16240234 3.97115234 8.23105469 3.41699219 7.27148438 C2.06600967 4.91555081 2.06600967 4.91555081 0 3 C0 2.01 0 1.02 0 0 Z " fill="#A2A2A2" transform="translate(1101,1155)"/>
<path d="M0 0 C1.65 0 3.3 0 5 0 C5.12224626 9.0598059 4.83930594 17.97746114 4 27 C0.125 25.125 0.125 25.125 -1 24 C-1.41748684 15.96951792 -0.89547974 7.97936415 0 0 Z " fill="#464142" transform="translate(920,1024)"/>
<path d="M0 0 C0.33 0.99 0.66 1.98 1 3 C-0.47631583 5.58890168 -2.00424619 7.98758257 -3.6875 10.4375 C-8.21184899 17.20580712 -12.52220836 24.06719559 -16.6875 31.0625 C-17.21625732 31.94929443 -17.74501465 32.83608887 -18.28979492 33.74975586 C-19.52901888 35.83170967 -20.76590345 37.91500411 -22 40 C-23.43478065 35.69565806 -21.49788645 33.00084627 -19.625 29.125 C-19.08286865 27.99022217 -19.08286865 27.99022217 -18.52978516 26.83251953 C-13.6675583 16.94342118 -7.40484608 8.16431748 0 0 Z " fill="#A0A0A0" transform="translate(959,1152)"/>
<path d="M0 0 C0.495 1.485 0.495 1.485 1 3 C-6.08368928 9.27872459 -12.96666003 9.18986137 -22.1328125 8.87109375 C-36.02568848 8.4409011 -45.30114855 12.46821732 -57 20 C-57 19.01 -57 18.02 -57 17 C-54.4842629 15.53223502 -51.96301018 14.07577765 -49.4375 12.625 C-48.73302734 12.2125 -48.02855469 11.8 -47.30273438 11.375 C-37.74482198 5.91333577 -29.67485422 5.81544031 -18.89257812 6.25390625 C-12.04453398 6.40025037 -7.83427007 5.66416498 -2 2 C-1.34 1.34 -0.68 0.68 0 0 Z " fill="#090909" transform="translate(1113,1192)"/>
<path d="M0 0 C1 1 1 1 1.375 3.25 C0.83336072 7.22202142 -0.89298495 8.58343274 -4 11 C-6.6875 11.5 -6.6875 11.5 -9 11 C-11.31567384 7.52648925 -11.59587577 6.08600528 -11 2 C-7.32885416 -1.34722121 -4.66427387 -1.27207469 0 0 Z " fill="#D0A379" transform="translate(1408,1268)"/>
<path d="M0 0 C2.00720923 0.28674418 4.0085944 0.61866701 6 1 C6.6875 2.8125 6.6875 2.8125 7 5 C5.8125 6.75 5.8125 6.75 4 8 C2.68 8 1.36 8 0 8 C0 26.15 0 44.3 0 63 C-0.33 63 -0.66 63 -1 63 C-1.02312737 54.93347826 -1.04091709 46.86697028 -1.05181217 38.80042362 C-1.05704014 35.05516963 -1.06413622 31.30993824 -1.07543945 27.56469727 C-1.08627141 23.95318313 -1.09227749 20.34169079 -1.09487724 16.73016167 C-1.09673094 15.34939671 -1.10035049 13.968633 -1.10573006 12.58787727 C-1.11294447 10.66024048 -1.11340809 8.73258193 -1.11352539 6.80493164 C-1.115746 5.70572891 -1.11796661 4.60652618 -1.12025452 3.47401428 C-1 1 -1 1 0 0 Z " fill="#C46868" transform="translate(1599,1321)"/>
<path d="M0 0 C2.91080965 2.70427856 4.85670218 5.20250562 6.65625 8.73828125 C7.12160156 9.64126953 7.58695313 10.54425781 8.06640625 11.47460938 C8.53949219 12.41111328 9.01257813 13.34761719 9.5 14.3125 C10.44671866 16.16337368 11.39461272 18.01364668 12.34375 19.86328125 C12.79234375 20.73936035 13.2409375 21.61543945 13.703125 22.51806641 C15.38286129 25.73271233 17.16910607 28.86934411 19 32 C17.27734375 31.90234375 17.27734375 31.90234375 15 31 C13.34561834 28.87209228 11.95046758 26.85306313 10.5625 24.5625 C10.16998047 23.93013428 9.77746094 23.29776855 9.37304688 22.64624023 C0.53691937 8.23276365 0.53691937 8.23276365 0 0 Z " fill="#A0A0A0" transform="translate(938,1252)"/>
<path d="M0 0 C1.9453125 -0.29296875 1.9453125 -0.29296875 4.125 -0.1875 C5.40375 -0.125625 6.6825 -0.06375 8 0 C6.41037341 4.03520597 4.71767682 8.01811282 3 12 C-0.3 12 -3.6 12 -7 12 C-2.25 3.375 -2.25 3.375 0 0 Z " fill="#373334" transform="translate(1138,1008)"/>
<path d="M0 0 C0.66 0 1.32 0 2 0 C0.75291611 10.53626008 -5.75468369 21.34935131 -13 29 C-14.30932345 30.03123706 -15.6369893 31.04084432 -17 32 C-16.35592803 28.43283217 -14.86881772 26.00413792 -12.875 23 C-10.22391839 18.92225386 -7.65573699 14.81634583 -5.1875 10.625 C-4.62417969 9.66851563 -4.06085938 8.71203125 -3.48046875 7.7265625 C-2.10695919 5.19698552 -1.004256 2.69434536 0 0 Z " fill="#9F9F9F" transform="translate(1119,1254)"/>
<path d="M0 0 C0.33 0 0.66 0 1 0 C1 13.86 1 27.72 1 42 C-0.485 42.495 -0.485 42.495 -2 43 C-2.02715383 41.25008666 -2.04646551 39.50005055 -2.0625 37.75 C-2.07410156 36.77546875 -2.08570313 35.8009375 -2.09765625 34.796875 C-2 32 -2 32 -1.51367188 30.23242188 C-0.83935338 27.30182859 -0.77921646 24.48966025 -0.68359375 21.484375 C-0.64169922 20.23398438 -0.59980469 18.98359375 -0.55664062 17.6953125 C-0.51732422 16.39335938 -0.47800781 15.09140625 -0.4375 13.75 C-0.39431641 12.43257812 -0.35113281 11.11515625 -0.30664062 9.7578125 C-0.20058083 6.50531212 -0.09851976 3.25273608 0 0 Z " fill="#7A6755" transform="translate(1474,1249)"/>
<path d="M0 0 C2.625 0.375 2.625 0.375 5 1 C5.625 3.3125 5.625 3.3125 6 6 C5.01 7.485 5.01 7.485 4 9 C1.5625 8.3125 1.5625 8.3125 -1 7 C-1.9375 4.5 -1.9375 4.5 -2 2 C-1.34 1.34 -0.68 0.68 0 0 Z " fill="#EAD69F" transform="translate(1137,1287)"/>
<path d="M0 0 C2.75 -0.3125 2.75 -0.3125 6 0 C10 4 10 4 10 7 C6.6875 7.3125 6.6875 7.3125 3 7 C1.04421883 4.60259082 0 3.12413392 0 0 Z " fill="#373334" transform="translate(1063,697)"/>
<path d="M0 0 C0.99 0.66 1.98 1.32 3 2 C2.24976563 2.29132813 1.49953125 2.58265625 0.7265625 2.8828125 C-6.276923 5.68773491 -12.65771243 8.91680159 -19 13 C-19 12.01 -19 11.02 -19 10 C-16.39761208 8.51762714 -13.79321772 7.03899869 -11.1875 5.5625 C-10.44951172 5.14162109 -9.71152344 4.72074219 -8.95117188 4.28710938 C-8.23896484 3.88427734 -7.52675781 3.48144531 -6.79296875 3.06640625 C-6.1383667 2.69459229 -5.48376465 2.32277832 -4.80932617 1.93969727 C-3 1 -3 1 0 0 Z " fill="#191E1D" transform="translate(1075,1199)"/>
<path d="M0 0 C-1.96293766 1.96293766 -3.27094455 2.68347281 -5.75 3.8125 C-9.72548469 5.73495154 -12.72468313 8.05221481 -16 11 C-16 10.01 -16 9.02 -16 8 C-14.171875 6.24609375 -14.171875 6.24609375 -11.75 4.4375 C-10.96109375 3.83808594 -10.1721875 3.23867187 -9.359375 2.62109375 C-3.73336939 -1.24445646 -3.73336939 -1.24445646 0 0 Z " fill="#101212" transform="translate(963,1228)"/>
<path d="M0 0 C1.65 0.33 3.3 0.66 5 1 C5 2.65 5 4.3 5 6 C3.35 6.33 1.7 6.66 0 7 C-1.125 2.25 -1.125 2.25 0 0 Z " fill="#FF3A3A" transform="translate(496,1200)"/>
<path d="M0 0 C1.65 0.33 3.3 0.66 5 1 C4.67 2.65 4.34 4.3 4 6 C3.01 6.33 2.02 6.66 1 7 C0.01 6.34 -0.98 5.68 -2 5 C-1.34 3.35 -0.68 1.7 0 0 Z " fill="#EAD59E" transform="translate(999,1086)"/>
<path d="M0 0 C0.66 0 1.32 0 2 0 C0.125 6.875 0.125 6.875 -1 8 C-2.66617115 8.04063832 -4.33388095 8.042721 -6 8 C-5.04956626 6.66102417 -4.08940853 5.32894573 -3.125 4 C-2.59132813 3.2575 -2.05765625 2.515 -1.5078125 1.75 C-1.01023437 1.1725 -0.51265625 0.595 0 0 Z " fill="#CAB272" transform="translate(1108,1284)"/>
<path d="M0 0 C0.66 0.33 1.32 0.66 2 1 C0.7934375 1.9590625 0.7934375 1.9590625 -0.4375 2.9375 C-3.75412763 6.90127449 -3.87952582 9.97294083 -4 15 C-4.33 15 -4.66 15 -5 15 C-5.28783441 11.29013428 -5.45251957 7.70001295 -5 4 C-2.5 1.3125 -2.5 1.3125 0 0 Z " fill="#919191" transform="translate(922,1064)"/>
<path d="M0 0 C1.98 0.495 1.98 0.495 4 1 C4 2.32 4 3.64 4 5 C3.01 5.33 2.02 5.66 1 6 C0.34 5.34 -0.32 4.68 -1 4 C-0.625 1.875 -0.625 1.875 0 0 Z " fill="#EAD69E" transform="translate(1132,1079)"/>
<path d="M0 0 C0.33 0.99 0.66 1.98 1 3 C-1.31 4.65 -3.62 6.3 -6 8 C-6.33 7.01 -6.66 6.02 -7 5 C-6.030625 4.360625 -5.06125 3.72125 -4.0625 3.0625 C-1.23963731 1.3034741 -1.23963731 1.3034741 0 0 Z " fill="#171717" transform="translate(1113,1192)"/>
</svg>
