<?xml version="1.0" encoding="UTF-8"?>
<svg version="1.1" xmlns="http://www.w3.org/2000/svg" width="515" height="1184" viewBox="796 434 515 1184">
<path d="M0 0 C2.5625 0.1875 2.5625 0.1875 4.5625 2.1875 C4.5625 3.8375 4.5625 5.4875 4.5625 7.1875 C31.2925 7.1875 58.0225 7.1875 85.5625 7.1875 C86.71218081 49.72568981 86.71218081 49.72568981 86.85961914 63.44262695 C86.87923375 65.0638304 86.89909538 66.68503087 86.91917419 68.30622864 C86.97115225 72.55594189 87.01983963 76.8056861 87.06775212 81.05544686 C87.11907918 85.55295486 87.17368713 90.05042325 87.22789001 94.54789734 C87.32924649 102.99688973 87.42781609 111.44591204 87.52528423 119.89495009 C87.63672243 129.542568 87.75142005 139.1901464 87.86633885 148.83772337 C88.10191981 168.62094148 88.33357853 188.40420379 88.5625 208.1875 C91.2025 208.5175 93.8425 208.8475 96.5625 209.1875 C96.5625 209.8475 96.5625 210.5075 96.5625 211.1875 C97.7175 211.290625 98.8725 211.39375 100.0625 211.5 C103.63953903 211.95412843 106.74549265 212.88133498 110.1015625 214.234375 C113.36392629 215.49789367 116.67890391 216.5908268 120 217.6875 C120.65564941 217.90486816 121.31129883 218.12223633 121.98681641 218.34619141 C124.73999267 219.25794415 127.49463231 220.16520625 130.25 221.0703125 C136.26360598 223.05396725 142.19361981 225.15380683 148 227.6875 C155.64239995 230.90535261 163.55420575 233.07690282 171.5625 235.1875 C171.5625 235.8475 171.5625 236.5075 171.5625 237.1875 C174.5325 237.5175 177.5025 237.8475 180.5625 238.1875 C180.5625 238.8475 180.5625 239.5075 180.5625 240.1875 C181.655625 240.27 182.74875 240.3525 183.875 240.4375 C188.5453093 241.0035981 192.67933429 242.55289847 197.046875 244.25 C199.21295668 245.05723541 201.31032658 245.68233961 203.5625 246.1875 C203.5625 246.8475 203.5625 247.5075 203.5625 248.1875 C204.614375 248.27 205.66625 248.3525 206.75 248.4375 C212.18171916 249.50603492 214.57306056 251.87770242 217.87890625 256.25390625 C228.43995938 272.28407619 229.39890313 286.14438865 229.65892029 304.9763031 C229.70839034 308.32726155 229.77133679 311.67792886 229.8343811 315.02865601 C229.87408287 317.50528836 229.89113032 319.98136943 229.90698242 322.45825195 C230.07239196 335.06351943 232.09911394 346.08965105 237.9375 357.4375 C246.09790106 374.4466894 248.44056013 388.95780013 248.33203125 407.82421875 C248.34041011 410.20833399 248.35151376 412.59244098 248.36514282 414.97653198 C248.38862236 420.01143429 248.3942659 425.04589347 248.38497925 430.08084106 C248.37078269 437.91793396 248.39759795 445.7545411 248.43188477 453.59155273 C248.46945313 462.70872492 248.49910335 471.825831 248.51552105 480.9430666 C248.54978641 499.70586524 248.69044695 518.46585357 248.94223022 537.22695923 C248.99169474 540.96038057 249.02896372 544.69380901 249.06258011 548.4274025 C249.09488837 551.76551493 249.14002587 555.10342209 249.18359375 558.44140625 C249.19194244 559.61065643 249.20029114 560.77990662 249.20889282 561.98458862 C249.22560028 563.03582916 249.24230774 564.0870697 249.25952148 565.17016602 C249.26982895 566.07493179 249.28013641 566.97969757 249.29075623 567.91188049 C249.42187762 570.46637219 249.42187762 570.46637219 251.5625 573.1875 C253.89067964 573.55510731 256.2243385 573.88991581 258.5625 574.1875 C260.79389155 578.6502831 259.74749699 584.78660332 259.75 589.6875 C259.76224609 590.94949219 259.77449219 592.21148438 259.78710938 593.51171875 C259.79000977 595.31576172 259.79000977 595.31576172 259.79296875 597.15625 C259.79707764 598.26419922 259.80118652 599.37214844 259.80541992 600.51367188 C259.5625 603.1875 259.5625 603.1875 257.5625 605.1875 C256.2425 605.1875 254.9225 605.1875 253.5625 605.1875 C253.294375 605.950625 253.02625 606.71375 252.75 607.5 C251.5625 610.1875 251.5625 610.1875 250.01151943 611.40069294 C247.77983712 614.15261304 248.15401307 617.07434435 248.19068909 620.46391296 C248.18686452 621.21064437 248.18303996 621.95737578 248.1790995 622.72673541 C248.16979085 625.23687592 248.18182105 627.74646821 248.19360352 630.2565918 C248.19113619 632.05371327 248.18729847 633.85083331 248.18218994 635.64794922 C248.17383841 639.524312 248.17467148 643.40052795 248.18237495 647.27689171 C248.19395431 653.41869777 248.18179506 659.56031501 248.16575623 665.70210266 C248.12954256 680.9696436 248.12332183 696.23718077 248.12585449 711.50476074 C248.12757014 723.34757231 248.12029157 735.19022964 248.08587593 747.03299838 C248.06917062 753.12438727 248.07080189 759.21539907 248.08669865 765.30678594 C248.09254287 769.12072258 248.08166999 772.93448501 248.06645203 776.7483902 C248.06276088 778.50097131 248.06573058 780.25358295 248.07632256 782.00613594 C248.16497116 797.73905894 244.99142543 811.22824775 239.4375 826 C239.09074219 826.95197266 238.74398438 827.90394531 238.38671875 828.88476562 C237.00295249 832.63047773 235.78769919 835.84970121 233.5625 839.1875 C232.3688757 843.54579926 232.26232189 848.00805801 232.0625 852.5 C231.99724121 853.80191284 231.99724121 853.80191284 231.93066406 855.13012695 C231.66745307 860.91452466 231.53187791 866.69290861 231.47827148 872.48243713 C231.44424218 876.04789447 231.39301423 879.61305696 231.3425293 883.17831421 C231.3226529 884.96325069 231.31161776 886.74830948 231.30981445 888.53335571 C231.2873863 907.00790077 231.2873863 907.00790077 225.5625 915.1875 C225.07571777 915.92210449 224.58893555 916.65670898 224.08740234 917.41357422 C219.09634172 924.73343202 211.67696801 931.48825723 203.5625 935.1875 C202.2425 935.1875 200.9225 935.1875 199.5625 935.1875 C199.5625 935.8475 199.5625 936.5075 199.5625 937.1875 C195.4428623 938.47993536 191.89418317 939.45002625 187.5625 939.1875 C187.5625 939.8475 187.5625 940.5075 187.5625 941.1875 C186.58023438 941.42533203 186.58023438 941.42533203 185.578125 941.66796875 C179.2491386 943.28597233 173.38614715 945.41731354 167.390625 948 C164.31752215 949.29036363 161.22959938 950.357311 158.0546875 951.36328125 C153.58926531 952.84009016 149.19802209 954.54145334 144.796875 956.19921875 C141.81902379 957.10911773 139.6423643 957.40170109 136.5625 957.1875 C136.5625 957.8475 136.5625 958.5075 136.5625 959.1875 C135.58023438 959.42533203 135.58023438 959.42533203 134.578125 959.66796875 C128.25906829 961.28343381 122.40408201 963.40952871 116.41796875 965.98828125 C112.53190361 967.62032229 108.58845105 968.94874583 104.5625 970.1875 C103.304375 970.579375 102.04625 970.97125 100.75 971.375 C97.5625 972.1875 97.5625 972.1875 93.5625 972.1875 C93.5625 972.8475 93.5625 973.5075 93.5625 974.1875 C91.5825 974.5175 89.6025 974.8475 87.5625 975.1875 C87.5625 1041.5175 87.5625 1107.8475 87.5625 1176.1875 C45.9825 1176.6825 45.9825 1176.6825 3.5625 1177.1875 C3.2325 1178.5075 2.9025 1179.8275 2.5625 1181.1875 C1.9025 1181.8475 1.2425 1182.5075 0.5625 1183.1875 C-3.99305556 1182.63194444 -3.99305556 1182.63194444 -5.4375 1181.1875 C-5.47813832 1179.52132885 -5.480221 1177.85361905 -5.4375 1176.1875 C-5.98833252 1176.19273682 -6.53916504 1176.19797363 -7.10668945 1176.20336914 C-32.55560695 1176.40419468 -57.99630348 1175.73800571 -83.4375 1175.1875 C-84.98348511 1172.09552977 -84.61205936 1168.82556198 -84.63368225 1165.43014526 C-84.64270378 1164.61989305 -84.65172531 1163.80964083 -84.66102022 1162.97483552 C-84.69021722 1160.24480556 -84.71238469 1157.51476287 -84.73461914 1154.78466797 C-84.75405013 1152.83365462 -84.77391195 1150.88264552 -84.79417419 1148.93164062 C-84.84808848 1143.6220465 -84.8959457 1138.31241273 -84.94275212 1133.00275183 C-84.99264302 1127.45867908 -85.04805365 1121.91466163 -85.10289001 1116.37063599 C-85.20594404 1105.86636153 -85.30400165 1095.36204656 -85.40028423 1084.8577081 C-85.5101175 1072.90138246 -85.6254903 1060.94511231 -85.74133885 1048.98884368 C-85.97957615 1024.38845272 -86.21082294 999.788 -86.4375 975.1875 C-91.80894174 972.83323605 -91.80894174 972.83323605 -97.33984375 970.90625 C-97.99887695 970.70547852 -98.65791016 970.50470703 -99.33691406 970.29785156 C-100.00948242 970.09643555 -100.68205078 969.89501953 -101.375 969.6875 C-106.81127341 968.0284262 -112.130883 966.22850654 -117.4375 964.1875 C-118.76686075 963.83866065 -120.09951364 963.50163593 -121.4375 963.1875 C-121.4375 962.5275 -121.4375 961.8675 -121.4375 961.1875 C-122.675 961.043125 -123.9125 960.89875 -125.1875 960.75 C-128.00254499 960.40061498 -130.7076497 959.98370634 -133.4375 959.1875 C-133.4375 958.5275 -133.4375 957.8675 -133.4375 957.1875 C-134.571875 957.084375 -135.70625 956.98125 -136.875 956.875 C-142.90528531 956.11988491 -148.35736337 953.99035975 -154 951.8125 C-158.08666671 950.25019281 -162.25836478 948.97529561 -166.4375 947.6875 C-171.84786138 946.0203035 -177.15613791 944.22592046 -182.4375 942.1875 C-187.72367861 940.34197448 -193.04151802 938.68000565 -198.4375 937.1875 C-198.4375 936.5275 -198.4375 935.8675 -198.4375 935.1875 C-198.97375 935.105 -199.51 935.0225 -200.0625 934.9375 C-203.31090691 933.91168729 -205.72501859 932.22186106 -208.4375 930.1875 C-208.4375 929.5275 -208.4375 928.8675 -208.4375 928.1875 C-209.0046875 927.96191406 -209.571875 927.73632812 -210.15625 927.50390625 C-213.09699526 925.8069351 -214.78436843 923.74636395 -216.9375 921.125 C-217.6903125 920.22652344 -218.443125 919.32804687 -219.21875 918.40234375 C-225.24775861 909.66664994 -225.92347265 902.6363139 -225.625 892.109375 C-225.6094378 890.73443066 -225.59747451 889.3594415 -225.58886719 887.98443604 C-225.55023994 882.20564382 -225.48283919 876.42871912 -225.32470703 870.65185547 C-224.77757123 849.56413456 -227.8033686 834.1386932 -237.08496094 815.08166504 C-240.96167215 806.78627278 -242.55230216 798.97589912 -242.58898926 789.80693054 C-242.59322167 789.08536532 -242.59745408 788.36380009 -242.60181475 787.62036926 C-242.61478148 785.21395164 -242.62085178 782.80756711 -242.62695312 780.40112305 C-242.63490044 778.67101848 -242.64328878 776.94091589 -242.65208435 775.21081543 C-242.67011265 771.49005905 -242.68513869 767.76930694 -242.69786072 764.04852867 C-242.71812572 758.16048269 -242.74577339 752.27248547 -242.77453613 746.38447571 C-242.83457318 733.88134005 -242.88642377 721.37817498 -242.9375 708.875 C-242.99263522 695.38634846 -243.0492205 681.89771176 -243.11504889 668.40910751 C-243.14331293 662.56093873 -243.1669397 656.71277539 -243.18697357 650.86457288 C-243.2004123 647.21928706 -243.21782187 643.57402786 -243.23628426 639.92876434 C-243.24400424 638.24419902 -243.25008941 636.55962524 -243.25437737 634.87504768 C-242.42114253 620.4525147 -242.42114253 620.4525147 -246.4375 607.1875 C-249.96263528 606.44573993 -249.96263528 606.44573993 -253.4375 606.1875 C-254.4375 605.1875 -254.4375 605.1875 -254.55102539 602.50366211 C-254.54578857 601.33585205 -254.54055176 600.16804199 -254.53515625 598.96484375 C-254.53193359 597.70478516 -254.52871094 596.44472656 -254.52539062 595.14648438 C-254.51703403 593.80598891 -254.50856907 592.46549412 -254.5 591.125 C-254.4949866 589.78060058 -254.49042342 588.4361994 -254.48632812 587.09179688 C-254.47449488 583.79032059 -254.45800971 580.48893197 -254.4375 577.1875 C-251.48085481 575.7091774 -248.69520263 576.12717217 -245.4375 576.1875 C-245.1075 574.8675 -244.7775 573.5475 -244.4375 572.1875 C-243.7775 572.1875 -243.1175 572.1875 -242.4375 572.1875 C-242.44026538 571.19597207 -242.44303076 570.20444414 -242.44587994 569.18286991 C-242.5125089 545.04541097 -242.56179169 520.90796398 -242.59293652 496.77043247 C-242.60839864 485.09765413 -242.62947572 473.42493658 -242.66381836 461.75219727 C-242.69374067 451.57702768 -242.71307976 441.40190212 -242.71976548 431.22668976 C-242.72367292 425.84009756 -242.73284246 420.45363133 -242.75469017 415.06707954 C-242.77509997 409.99378931 -242.78132468 404.92067656 -242.77682304 399.84734917 C-242.77764623 397.98861602 -242.78358501 396.12987675 -242.79511642 394.2711792 C-242.89699702 376.99763519 -242.89699702 376.99763519 -239.4375 369.1875 C-239.09847656 368.34171387 -238.75945313 367.49592773 -238.41015625 366.62451172 C-238.10980469 365.96209473 -237.80945313 365.29967773 -237.5 364.6171875 C-236.99339844 363.48990234 -236.99339844 363.48990234 -236.4765625 362.33984375 C-235.96222656 361.21255859 -235.96222656 361.21255859 -235.4375 360.0625 C-234.41585162 357.80027859 -233.39531472 355.53773794 -232.38427734 353.27075195 C-231.5358465 351.4038978 -230.63448871 349.56131047 -229.7265625 347.72265625 C-228.11012185 343.28969022 -227.91294647 339.43379762 -227.8125 334.75 C-227.76186401 333.31744873 -227.76186401 333.31744873 -227.71020508 331.85595703 C-227.51315796 325.85819175 -227.41430318 319.86003808 -227.33654785 313.85978699 C-227.28819726 310.31594041 -227.22639434 306.77236388 -227.16461182 303.22872925 C-227.12578555 300.61537442 -227.10912516 298.00249579 -227.09326172 295.38891602 C-226.93002219 282.3658718 -225.60363699 269.32262861 -216.4375 259.1875 C-215.7775 259.1875 -215.1175 259.1875 -214.4375 259.1875 C-214.1075 258.1975 -213.7775 257.2075 -213.4375 256.1875 C-212.10416667 255.85416667 -210.77083333 255.52083333 -209.4375 255.1875 C-209.1075 254.1975 -208.7775 253.2075 -208.4375 252.1875 C-206.375 251.5 -206.375 251.5 -204.4375 251.1875 C-204.4375 250.5275 -204.4375 249.8675 -204.4375 249.1875 C-202.4575 248.8575 -200.4775 248.5275 -198.4375 248.1875 C-198.4375 247.5275 -198.4375 246.8675 -198.4375 246.1875 C-197.2 245.8575 -195.9625 245.5275 -194.6875 245.1875 C-193.99140625 245.001875 -193.2953125 244.81625 -192.578125 244.625 C-190.4375 244.1875 -190.4375 244.1875 -186.4375 244.1875 C-186.4375 243.5275 -186.4375 242.8675 -186.4375 242.1875 C-185.68984375 241.99414062 -184.9421875 241.80078125 -184.171875 241.6015625 C-183.18703125 241.34117187 -182.2021875 241.08078125 -181.1875 240.8125 C-180.21296875 240.55726563 -179.2384375 240.30203125 -178.234375 240.0390625 C-175.48338754 239.28668959 -175.48338754 239.28668959 -173.25 238.09375 C-170.90302127 236.92026063 -169.02402293 237.04380428 -166.4375 237.1875 C-166.4375 236.5275 -166.4375 235.8675 -166.4375 235.1875 C-165.75945312 235.01734375 -165.08140625 234.8471875 -164.3828125 234.671875 C-158.69568089 233.19101524 -153.33136129 231.41970764 -147.91015625 229.16015625 C-144.68022989 227.8896165 -141.39615626 226.92684889 -138.0546875 225.99609375 C-135.20872662 225.11681927 -132.43851407 224.0771041 -129.65478516 223.01928711 C-123.09134711 220.55709448 -116.44502486 218.31218638 -109.82226562 216.015625 C-107.74976962 215.29593761 -105.67943459 214.57040147 -103.609375 213.84375 C-102.56265625 213.4828125 -101.5159375 213.121875 -100.4375 212.75 C-99.550625 212.44191406 -98.66375 212.13382813 -97.75 211.81640625 C-95.4375 211.1875 -95.4375 211.1875 -91.4375 211.1875 C-91.4375 210.5275 -91.4375 209.8675 -91.4375 209.1875 C-88.7975 208.8575 -86.1575 208.5275 -83.4375 208.1875 C-83.36851037 192.4044784 -83.55681363 176.6292706 -83.80789185 160.84850311 C-83.87717211 156.49215234 -83.94355027 152.13575988 -84.00952148 147.77935791 C-84.1856212 136.17638064 -84.364583 124.5734482 -84.54673672 112.97056437 C-85.52769793 50.47176958 -85.52769793 50.47176958 -85.5625 25.390625 C-85.5650882 24.53178459 -85.56767639 23.67294418 -85.57034302 22.78807831 C-85.57603005 20.45925839 -85.57474643 18.13057759 -85.5703125 15.80175781 C-85.56918457 14.53325989 -85.56805664 13.26476196 -85.56689453 11.95782471 C-85.4375 9.1875 -85.4375 9.1875 -84.4375 8.1875 C-81.9130093 8.06249848 -79.41450383 8.00146462 -76.88842773 7.98217773 C-76.09824249 7.97227814 -75.30805725 7.96237854 -74.493927 7.95217896 C-71.86968022 7.92047152 -69.24541531 7.89577021 -66.62109375 7.87109375 C-64.80647803 7.85053219 -62.9918672 7.82953594 -61.17726135 7.80812073 C-56.3916518 7.75281759 -51.60599844 7.7034448 -46.8203125 7.65527344 C-41.94071536 7.60511843 -37.06118215 7.54940112 -32.18164062 7.49414062 C-22.60031498 7.38645832 -13.01893392 7.28503587 -3.4375 7.1875 C-3.4684375 5.7334375 -3.4684375 5.7334375 -3.5 4.25 C-3.41863208 0.2629717 -3.41863208 0.2629717 0 0 Z " fill="#BFBFBF" transform="translate(1051.4375,434.8125)"/>
<path d="M0 0 C0.67237402 -0.00367669 1.34474805 -0.00735338 2.03749704 -0.01114148 C4.3074356 -0.02222014 6.57732844 -0.02602928 8.84729004 -0.02983093 C10.46828356 -0.03609273 12.08927563 -0.04273927 13.71026611 -0.04974365 C18.12802066 -0.06718672 22.54576435 -0.07771567 26.96354485 -0.08594918 C29.72401494 -0.09109524 32.48448164 -0.09717133 35.24494934 -0.10346031 C43.88244396 -0.12252667 52.51992998 -0.13675139 61.15744162 -0.14507228 C71.12559138 -0.15483318 81.0935184 -0.18111658 91.06158972 -0.22157317 C98.76529804 -0.25176479 106.46894266 -0.26654428 114.17270899 -0.26985329 C118.77349876 -0.27220148 123.37405097 -0.28113079 127.97477722 -0.30631447 C132.30863035 -0.32965172 136.64209054 -0.33380581 140.9759903 -0.32355309 C142.5622056 -0.32305889 144.14844059 -0.32934502 145.73459625 -0.34310913 C154.21416176 -0.41254081 161.12494328 -0.09151964 168.63830566 4.14717102 C170.36186663 4.80060155 172.095341 5.42933091 173.84289551 6.01557922 C175.22766586 6.48387901 175.22766586 6.48387901 176.64041138 6.9616394 C177.61682587 7.28712265 178.59324036 7.6126059 179.59924316 7.94795227 C180.64695892 8.30135178 181.69467468 8.65475128 182.7741394 9.01885986 C185.02037858 9.77625355 187.26723343 10.53182334 189.51464844 11.28572083 C195.46796632 13.2833154 201.41633478 15.29553849 207.36486816 17.30732727 C209.16697754 17.9163942 209.16697754 17.9163942 211.00549316 18.5377655 C222.48974894 22.42438783 233.94437087 26.39358732 245.38830566 30.39717102 C246.25107117 30.69878143 247.11383667 31.00039185 248.00274658 31.31114197 C252.02896552 32.71913313 256.05386221 34.13070043 260.07653809 35.54878235 C263.1928819 36.64569952 266.31577645 37.72075373 269.44421387 38.78266907 C270.21867859 39.04839722 270.99314331 39.31412537 271.79107666 39.58790588 C273.24615259 40.08688461 274.70318693 40.58020603 276.16253662 41.06654358 C285.23977529 44.19920729 291.43152047 50.57227849 295.63830566 59.14717102 C298.65543383 66.91489226 299.05215752 74.13921844 299.05236816 82.40498352 C299.09103275 84.99745735 299.13145614 87.58990543 299.17346191 90.18232727 C299.22792005 94.20551205 299.26323451 98.22757117 299.26965332 102.25117493 C299.32885312 119.97384095 301.22432345 134.42198787 308.53840637 150.65084839 C310.226144 154.48132421 311.64919063 158.40125947 313.07580566 162.33467102 C314.7547987 166.904926 314.7547987 166.904926 316.69578457 171.36410427 C317.88590064 174.87826695 317.92355379 178.15517125 317.91004944 181.82077026 C317.91767969 182.96838149 317.91767969 182.96838149 317.92546409 184.13917679 C317.94010833 186.69861487 317.94065806 189.25786002 317.94128418 191.81733704 C317.94894652 193.65392938 317.95749312 195.49051821 317.96685791 197.32710266 C317.98512932 201.27980497 317.99717249 205.23246003 318.00439644 209.18519783 C318.0158812 215.4330675 318.04133639 221.68083253 318.06871033 227.9286499 C318.1103557 237.80829757 318.14277301 247.68795026 318.17118448 257.56764406 C318.22216563 275.26680403 318.28428623 292.9659203 318.35652488 310.6650061 C318.38146006 316.87835386 318.40088584 323.09168782 318.41590703 329.30506718 C318.4261015 333.16643655 318.4402475 337.02778442 318.4553833 340.88913727 C318.46154561 342.68223248 318.4660011 344.47533448 318.46864128 346.26843834 C318.47244601 348.71251731 318.48225589 351.15650127 318.49354553 353.60055542 C318.4931594 354.31310079 318.49277327 355.02564615 318.49237543 355.7597838 C318.51371798 359.06241108 318.76434058 361.96974497 319.63830566 365.14717102 C272.92432178 365.4554415 226.21032718 365.7620669 179.49632287 366.06722558 C176.83401949 366.08461736 174.17171613 366.102012 171.50941277 366.1194067 C81.96923428 366.70437847 -7.57092718 367.28361057 -97.11169434 367.77217102 C-98.05032586 367.77729627 -98.98895738 367.78242152 -99.95603228 367.78770208 C-122.42457155 367.91033609 -144.89312218 368.03070754 -167.36169434 368.14717102 C-167.03716026 367.47918991 -166.71262619 366.8112088 -166.37825775 366.12298584 C-165.15421086 362.53979878 -165.07916614 359.27245051 -165.09667969 355.53413391 C-165.09229842 354.77540985 -165.08791715 354.01668579 -165.08340311 353.23497009 C-165.07109714 350.69652891 -165.07289031 348.1582948 -165.07458496 345.61982727 C-165.06855951 343.79783828 -165.06163495 341.97585207 -165.05387878 340.15386963 C-165.0389912 336.23064864 -165.03024076 332.30747854 -165.02616882 328.38423157 C-165.01944812 322.1716963 -164.99768241 315.95926942 -164.97363281 309.7467804 C-164.92465834 296.54693605 -164.89237848 283.34706862 -164.86169434 270.14717102 C-164.82857979 255.9234557 -164.79249283 241.69978279 -164.73756361 227.47613239 C-164.7143162 221.31042924 -164.70049897 215.14480087 -164.69406891 208.97905827 C-164.68809481 205.12706654 -164.67396709 201.27513469 -164.65772438 197.4231739 C-164.65188971 195.64837491 -164.64936748 193.87356115 -164.65056419 192.09875298 C-164.66276571 166.76743199 -164.66276571 166.76743199 -159.83044434 156.83857727 C-159.34962402 155.82472961 -158.86880371 154.81088196 -158.37341309 153.76631165 C-157.6251123 152.25327454 -157.6251123 152.25327454 -156.86169434 150.70967102 C-155.86953078 148.64971386 -154.87986312 146.58855232 -153.89294434 144.52607727 C-153.45530762 143.63477112 -153.0176709 142.74346497 -152.56677246 141.82514954 C-150.32030242 136.83294332 -149.11280225 132.58210096 -149.12219238 127.08857727 C-149.11659554 125.32513977 -149.11659554 125.32513977 -149.11088562 123.52607727 C-149.11501968 122.26666321 -149.11915375 121.00724915 -149.12341309 119.70967102 C-149.11193608 117.70363527 -149.10042849 115.69759922 -149.08722401 113.6915741 C-149.05721711 108.77295223 -149.04626863 103.85444488 -149.05627441 98.93574524 C-149.06104059 96.17256925 -149.05234505 93.4100152 -149.02986145 90.64692688 C-149.00950565 88.05797695 -149.0080876 85.46877974 -149.02934265 82.87983704 C-148.8988317 70.99581579 -146.16838205 59.71590732 -137.56872559 51.10029602 C-131.50644298 45.73544416 -125.64078604 42.03956133 -118.00231934 39.26826477 C-117.30153259 39.0100293 -116.60074585 38.75179382 -115.87872314 38.48573303 C-109.21128801 36.04993156 -102.48445227 33.80147447 -95.73846436 31.59397888 C-79.09442492 26.14078111 -62.5351263 20.4453959 -45.98669434 14.70967102 C-44.86508911 14.32122009 -43.74348389 13.93276917 -42.58789062 13.532547 C-35.50921336 11.08011027 -28.43368817 8.61881337 -21.36169434 6.14717102 C-20.56839722 5.87040527 -19.7751001 5.59363953 -18.95776367 5.30848694 C-16.93233376 4.60056697 -14.90837915 3.88864434 -12.88513184 3.17451477 C-11.81956055 2.79931702 -10.75398926 2.42411926 -9.65612793 2.03755188 C-4.44594708 0.01568238 -4.44594708 0.01568238 0 0 Z " fill="#BFBFBF" transform="translate(977.3616943359375,644.8528289794922)"/>
<path d="M0 0 C2.5625 0.1875 2.5625 0.1875 4.5625 2.1875 C4.5625 3.8375 4.5625 5.4875 4.5625 7.1875 C31.2925 7.1875 58.0225 7.1875 85.5625 7.1875 C86.71218081 49.72568981 86.71218081 49.72568981 86.85961914 63.44262695 C86.87923375 65.0638304 86.89909538 66.68503087 86.91917419 68.30622864 C86.97115225 72.55594189 87.01983963 76.8056861 87.06775212 81.05544686 C87.11907918 85.55295486 87.17368713 90.05042325 87.22789001 94.54789734 C87.32924649 102.99688973 87.42781609 111.44591204 87.52528423 119.89495009 C87.63672243 129.542568 87.75142005 139.1901464 87.86633885 148.83772337 C88.10191981 168.62094148 88.33357853 188.40420379 88.5625 208.1875 C91.2025 208.5175 93.8425 208.8475 96.5625 209.1875 C96.5625 209.8475 96.5625 210.5075 96.5625 211.1875 C97.7175 211.290625 98.8725 211.39375 100.0625 211.5 C103.63953903 211.95412843 106.74549265 212.88133498 110.1015625 214.234375 C113.36392629 215.49789367 116.67890391 216.5908268 120 217.6875 C120.65564941 217.90486816 121.31129883 218.12223633 121.98681641 218.34619141 C124.73999267 219.25794415 127.49463231 220.16520625 130.25 221.0703125 C136.26360598 223.05396725 142.19361981 225.15380683 148 227.6875 C155.64239995 230.90535261 163.55420575 233.07690282 171.5625 235.1875 C171.5625 235.8475 171.5625 236.5075 171.5625 237.1875 C174.5325 237.5175 177.5025 237.8475 180.5625 238.1875 C180.5625 238.8475 180.5625 239.5075 180.5625 240.1875 C181.655625 240.27 182.74875 240.3525 183.875 240.4375 C188.5453093 241.0035981 192.67933429 242.55289847 197.046875 244.25 C199.21295668 245.05723541 201.31032658 245.68233961 203.5625 246.1875 C203.5625 246.8475 203.5625 247.5075 203.5625 248.1875 C204.614375 248.27 205.66625 248.3525 206.75 248.4375 C212.18171916 249.50603492 214.57306056 251.87770242 217.87890625 256.25390625 C228.43995938 272.28407619 229.39890313 286.14438865 229.65892029 304.9763031 C229.70839034 308.32726155 229.77133679 311.67792886 229.8343811 315.02865601 C229.87408287 317.50528836 229.89113032 319.98136943 229.90698242 322.45825195 C230.07239196 335.06351943 232.09911394 346.08965105 237.9375 357.4375 C246.09790106 374.4466894 248.44056013 388.95780013 248.33203125 407.82421875 C248.34041011 410.20833399 248.35151376 412.59244098 248.36514282 414.97653198 C248.38862236 420.01143429 248.3942659 425.04589347 248.38497925 430.08084106 C248.37078269 437.91793396 248.39759795 445.7545411 248.43188477 453.59155273 C248.46945313 462.70872492 248.49910335 471.825831 248.51552105 480.9430666 C248.54978641 499.70586524 248.69044695 518.46585357 248.94223022 537.22695923 C248.99169474 540.96038057 249.02896372 544.69380901 249.06258011 548.4274025 C249.09488837 551.76551493 249.14002587 555.10342209 249.18359375 558.44140625 C249.19194244 559.61065643 249.20029114 560.77990662 249.20889282 561.98458862 C249.22560028 563.03582916 249.24230774 564.0870697 249.25952148 565.17016602 C249.26982895 566.07493179 249.28013641 566.97969757 249.29075623 567.91188049 C249.42187762 570.46637219 249.42187762 570.46637219 251.5625 573.1875 C253.89067964 573.55510731 256.2243385 573.88991581 258.5625 574.1875 C260.79389155 578.6502831 259.74749699 584.78660332 259.75 589.6875 C259.76224609 590.94949219 259.77449219 592.21148438 259.78710938 593.51171875 C259.79000977 595.31576172 259.79000977 595.31576172 259.79296875 597.15625 C259.79707764 598.26419922 259.80118652 599.37214844 259.80541992 600.51367188 C259.5625 603.1875 259.5625 603.1875 257.5625 605.1875 C256.2425 605.1875 254.9225 605.1875 253.5625 605.1875 C253.294375 605.950625 253.02625 606.71375 252.75 607.5 C251.5625 610.1875 251.5625 610.1875 250.01151943 611.40069294 C247.77983712 614.15261304 248.15401307 617.07434435 248.19068909 620.46391296 C248.18686452 621.21064437 248.18303996 621.95737578 248.1790995 622.72673541 C248.16979085 625.23687592 248.18182105 627.74646821 248.19360352 630.2565918 C248.19113619 632.05371327 248.18729847 633.85083331 248.18218994 635.64794922 C248.17383841 639.524312 248.17467148 643.40052795 248.18237495 647.27689171 C248.19395431 653.41869777 248.18179506 659.56031501 248.16575623 665.70210266 C248.12954256 680.9696436 248.12332183 696.23718077 248.12585449 711.50476074 C248.12757014 723.34757231 248.12029157 735.19022964 248.08587593 747.03299838 C248.06917062 753.12438727 248.07080189 759.21539907 248.08669865 765.30678594 C248.09254287 769.12072258 248.08166999 772.93448501 248.06645203 776.7483902 C248.06276088 778.50097131 248.06573058 780.25358295 248.07632256 782.00613594 C248.16497116 797.73905894 244.99142543 811.22824775 239.4375 826 C239.09074219 826.95197266 238.74398438 827.90394531 238.38671875 828.88476562 C237.00295249 832.63047773 235.78769919 835.84970121 233.5625 839.1875 C232.3688757 843.54579926 232.26232189 848.00805801 232.0625 852.5 C231.99724121 853.80191284 231.99724121 853.80191284 231.93066406 855.13012695 C231.66745307 860.91452466 231.53187791 866.69290861 231.47827148 872.48243713 C231.44424218 876.04789447 231.39301423 879.61305696 231.3425293 883.17831421 C231.3226529 884.96325069 231.31161776 886.74830948 231.30981445 888.53335571 C231.2873863 907.00790077 231.2873863 907.00790077 225.5625 915.1875 C225.07571777 915.92210449 224.58893555 916.65670898 224.08740234 917.41357422 C219.09634172 924.73343202 211.67696801 931.48825723 203.5625 935.1875 C202.2425 935.1875 200.9225 935.1875 199.5625 935.1875 C199.5625 935.8475 199.5625 936.5075 199.5625 937.1875 C195.4428623 938.47993536 191.89418317 939.45002625 187.5625 939.1875 C187.5625 939.8475 187.5625 940.5075 187.5625 941.1875 C186.58023438 941.42533203 186.58023438 941.42533203 185.578125 941.66796875 C179.2491386 943.28597233 173.38614715 945.41731354 167.390625 948 C164.31752215 949.29036363 161.22959938 950.357311 158.0546875 951.36328125 C153.58926531 952.84009016 149.19802209 954.54145334 144.796875 956.19921875 C141.81902379 957.10911773 139.6423643 957.40170109 136.5625 957.1875 C136.5625 957.8475 136.5625 958.5075 136.5625 959.1875 C135.58023438 959.42533203 135.58023438 959.42533203 134.578125 959.66796875 C128.25906829 961.28343381 122.40408201 963.40952871 116.41796875 965.98828125 C112.53190361 967.62032229 108.58845105 968.94874583 104.5625 970.1875 C103.304375 970.579375 102.04625 970.97125 100.75 971.375 C97.5625 972.1875 97.5625 972.1875 93.5625 972.1875 C93.5625 972.8475 93.5625 973.5075 93.5625 974.1875 C91.5825 974.5175 89.6025 974.8475 87.5625 975.1875 C87.5625 1041.5175 87.5625 1107.8475 87.5625 1176.1875 C45.9825 1176.6825 45.9825 1176.6825 3.5625 1177.1875 C3.2325 1178.5075 2.9025 1179.8275 2.5625 1181.1875 C1.9025 1181.8475 1.2425 1182.5075 0.5625 1183.1875 C-3.99305556 1182.63194444 -3.99305556 1182.63194444 -5.4375 1181.1875 C-5.47813832 1179.52132885 -5.480221 1177.85361905 -5.4375 1176.1875 C-5.98833252 1176.19273682 -6.53916504 1176.19797363 -7.10668945 1176.20336914 C-32.55560695 1176.40419468 -57.99630348 1175.73800571 -83.4375 1175.1875 C-84.98348511 1172.09552977 -84.61205936 1168.82556198 -84.63368225 1165.43014526 C-84.64270378 1164.61989305 -84.65172531 1163.80964083 -84.66102022 1162.97483552 C-84.69021722 1160.24480556 -84.71238469 1157.51476287 -84.73461914 1154.78466797 C-84.75405013 1152.83365462 -84.77391195 1150.88264552 -84.79417419 1148.93164062 C-84.84808848 1143.6220465 -84.8959457 1138.31241273 -84.94275212 1133.00275183 C-84.99264302 1127.45867908 -85.04805365 1121.91466163 -85.10289001 1116.37063599 C-85.20594404 1105.86636153 -85.30400165 1095.36204656 -85.40028423 1084.8577081 C-85.5101175 1072.90138246 -85.6254903 1060.94511231 -85.74133885 1048.98884368 C-85.97957615 1024.38845272 -86.21082294 999.788 -86.4375 975.1875 C-91.80894174 972.83323605 -91.80894174 972.83323605 -97.33984375 970.90625 C-97.99887695 970.70547852 -98.65791016 970.50470703 -99.33691406 970.29785156 C-100.00948242 970.09643555 -100.68205078 969.89501953 -101.375 969.6875 C-106.81127341 968.0284262 -112.130883 966.22850654 -117.4375 964.1875 C-118.76686075 963.83866065 -120.09951364 963.50163593 -121.4375 963.1875 C-121.4375 962.5275 -121.4375 961.8675 -121.4375 961.1875 C-122.675 961.043125 -123.9125 960.89875 -125.1875 960.75 C-128.00254499 960.40061498 -130.7076497 959.98370634 -133.4375 959.1875 C-133.4375 958.5275 -133.4375 957.8675 -133.4375 957.1875 C-134.571875 957.084375 -135.70625 956.98125 -136.875 956.875 C-142.90528531 956.11988491 -148.35736337 953.99035975 -154 951.8125 C-158.08666671 950.25019281 -162.25836478 948.97529561 -166.4375 947.6875 C-171.84786138 946.0203035 -177.15613791 944.22592046 -182.4375 942.1875 C-187.72367861 940.34197448 -193.04151802 938.68000565 -198.4375 937.1875 C-198.4375 936.5275 -198.4375 935.8675 -198.4375 935.1875 C-198.97375 935.105 -199.51 935.0225 -200.0625 934.9375 C-203.31090691 933.91168729 -205.72501859 932.22186106 -208.4375 930.1875 C-208.4375 929.5275 -208.4375 928.8675 -208.4375 928.1875 C-209.0046875 927.96191406 -209.571875 927.73632812 -210.15625 927.50390625 C-213.09699526 925.8069351 -214.78436843 923.74636395 -216.9375 921.125 C-217.6903125 920.22652344 -218.443125 919.32804687 -219.21875 918.40234375 C-225.24775861 909.66664994 -225.92347265 902.6363139 -225.625 892.109375 C-225.6094378 890.73443066 -225.59747451 889.3594415 -225.58886719 887.98443604 C-225.55023994 882.20564382 -225.48283919 876.42871912 -225.32470703 870.65185547 C-224.77757123 849.56413456 -227.8033686 834.1386932 -237.08496094 815.08166504 C-240.96167215 806.78627278 -242.55230216 798.97589912 -242.58898926 789.80693054 C-242.59322167 789.08536532 -242.59745408 788.36380009 -242.60181475 787.62036926 C-242.61478148 785.21395164 -242.62085178 782.80756711 -242.62695312 780.40112305 C-242.63490044 778.67101848 -242.64328878 776.94091589 -242.65208435 775.21081543 C-242.67011265 771.49005905 -242.68513869 767.76930694 -242.69786072 764.04852867 C-242.71812572 758.16048269 -242.74577339 752.27248547 -242.77453613 746.38447571 C-242.83457318 733.88134005 -242.88642377 721.37817498 -242.9375 708.875 C-242.99263522 695.38634846 -243.0492205 681.89771176 -243.11504889 668.40910751 C-243.14331293 662.56093873 -243.1669397 656.71277539 -243.18697357 650.86457288 C-243.2004123 647.21928706 -243.21782187 643.57402786 -243.23628426 639.92876434 C-243.24400424 638.24419902 -243.25008941 636.55962524 -243.25437737 634.87504768 C-242.42114253 620.4525147 -242.42114253 620.4525147 -246.4375 607.1875 C-249.96263528 606.44573993 -249.96263528 606.44573993 -253.4375 606.1875 C-254.4375 605.1875 -254.4375 605.1875 -254.55102539 602.50366211 C-254.54578857 601.33585205 -254.54055176 600.16804199 -254.53515625 598.96484375 C-254.53193359 597.70478516 -254.52871094 596.44472656 -254.52539062 595.14648438 C-254.51703403 593.80598891 -254.50856907 592.46549412 -254.5 591.125 C-254.4949866 589.78060058 -254.49042342 588.4361994 -254.48632812 587.09179688 C-254.47449488 583.79032059 -254.45800971 580.48893197 -254.4375 577.1875 C-251.48085481 575.7091774 -248.69520263 576.12717217 -245.4375 576.1875 C-245.1075 574.8675 -244.7775 573.5475 -244.4375 572.1875 C-243.7775 572.1875 -243.1175 572.1875 -242.4375 572.1875 C-242.44026538 571.19597207 -242.44303076 570.20444414 -242.44587994 569.18286991 C-242.5125089 545.04541097 -242.56179169 520.90796398 -242.59293652 496.77043247 C-242.60839864 485.09765413 -242.62947572 473.42493658 -242.66381836 461.75219727 C-242.69374067 451.57702768 -242.71307976 441.40190212 -242.71976548 431.22668976 C-242.72367292 425.84009756 -242.73284246 420.45363133 -242.75469017 415.06707954 C-242.77509997 409.99378931 -242.78132468 404.92067656 -242.77682304 399.84734917 C-242.77764623 397.98861602 -242.78358501 396.12987675 -242.79511642 394.2711792 C-242.89699702 376.99763519 -242.89699702 376.99763519 -239.4375 369.1875 C-239.09847656 368.34171387 -238.75945313 367.49592773 -238.41015625 366.62451172 C-238.10980469 365.96209473 -237.80945313 365.29967773 -237.5 364.6171875 C-236.99339844 363.48990234 -236.99339844 363.48990234 -236.4765625 362.33984375 C-235.96222656 361.21255859 -235.96222656 361.21255859 -235.4375 360.0625 C-234.41585162 357.80027859 -233.39531472 355.53773794 -232.38427734 353.27075195 C-231.5358465 351.4038978 -230.63448871 349.56131047 -229.7265625 347.72265625 C-228.11012185 343.28969022 -227.91294647 339.43379762 -227.8125 334.75 C-227.76186401 333.31744873 -227.76186401 333.31744873 -227.71020508 331.85595703 C-227.51315796 325.85819175 -227.41430318 319.86003808 -227.33654785 313.85978699 C-227.28819726 310.31594041 -227.22639434 306.77236388 -227.16461182 303.22872925 C-227.12578555 300.61537442 -227.10912516 298.00249579 -227.09326172 295.38891602 C-226.93002219 282.3658718 -225.60363699 269.32262861 -216.4375 259.1875 C-215.7775 259.1875 -215.1175 259.1875 -214.4375 259.1875 C-214.1075 258.1975 -213.7775 257.2075 -213.4375 256.1875 C-212.10416667 255.85416667 -210.77083333 255.52083333 -209.4375 255.1875 C-209.1075 254.1975 -208.7775 253.2075 -208.4375 252.1875 C-206.375 251.5 -206.375 251.5 -204.4375 251.1875 C-204.4375 250.5275 -204.4375 249.8675 -204.4375 249.1875 C-202.4575 248.8575 -200.4775 248.5275 -198.4375 248.1875 C-198.4375 247.5275 -198.4375 246.8675 -198.4375 246.1875 C-197.2 245.8575 -195.9625 245.5275 -194.6875 245.1875 C-193.99140625 245.001875 -193.2953125 244.81625 -192.578125 244.625 C-190.4375 244.1875 -190.4375 244.1875 -186.4375 244.1875 C-186.4375 243.5275 -186.4375 242.8675 -186.4375 242.1875 C-185.68984375 241.99414062 -184.9421875 241.80078125 -184.171875 241.6015625 C-183.18703125 241.34117187 -182.2021875 241.08078125 -181.1875 240.8125 C-180.21296875 240.55726563 -179.2384375 240.30203125 -178.234375 240.0390625 C-175.48338754 239.28668959 -175.48338754 239.28668959 -173.25 238.09375 C-170.90302127 236.92026063 -169.02402293 237.04380428 -166.4375 237.1875 C-166.4375 236.5275 -166.4375 235.8675 -166.4375 235.1875 C-165.75945312 235.01734375 -165.08140625 234.8471875 -164.3828125 234.671875 C-158.69568089 233.19101524 -153.33136129 231.41970764 -147.91015625 229.16015625 C-144.68022989 227.8896165 -141.39615626 226.92684889 -138.0546875 225.99609375 C-135.20872662 225.11681927 -132.43851407 224.0771041 -129.65478516 223.01928711 C-123.09134711 220.55709448 -116.44502486 218.31218638 -109.82226562 216.015625 C-107.74976962 215.29593761 -105.67943459 214.57040147 -103.609375 213.84375 C-102.56265625 213.4828125 -101.5159375 213.121875 -100.4375 212.75 C-99.550625 212.44191406 -98.66375 212.13382813 -97.75 211.81640625 C-95.4375 211.1875 -95.4375 211.1875 -91.4375 211.1875 C-91.4375 210.5275 -91.4375 209.8675 -91.4375 209.1875 C-88.7975 208.8575 -86.1575 208.5275 -83.4375 208.1875 C-83.36851037 192.4044784 -83.55681363 176.6292706 -83.80789185 160.84850311 C-83.87717211 156.49215234 -83.94355027 152.13575988 -84.00952148 147.77935791 C-84.1856212 136.17638064 -84.364583 124.5734482 -84.54673672 112.97056437 C-85.52769793 50.47176958 -85.52769793 50.47176958 -85.5625 25.390625 C-85.5650882 24.53178459 -85.56767639 23.67294418 -85.57034302 22.78807831 C-85.57603005 20.45925839 -85.57474643 18.13057759 -85.5703125 15.80175781 C-85.56918457 14.53325989 -85.56805664 13.26476196 -85.56689453 11.95782471 C-85.4375 9.1875 -85.4375 9.1875 -84.4375 8.1875 C-81.9130093 8.06249848 -79.41450383 8.00146462 -76.88842773 7.98217773 C-76.09824249 7.97227814 -75.30805725 7.96237854 -74.493927 7.95217896 C-71.86968022 7.92047152 -69.24541531 7.89577021 -66.62109375 7.87109375 C-64.80647803 7.85053219 -62.9918672 7.82953594 -61.17726135 7.80812073 C-56.3916518 7.75281759 -51.60599844 7.7034448 -46.8203125 7.65527344 C-41.94071536 7.60511843 -37.06118215 7.54940112 -32.18164062 7.49414062 C-22.60031498 7.38645832 -13.01893392 7.28503587 -3.4375 7.1875 C-3.4684375 5.7334375 -3.4684375 5.7334375 -3.5 4.25 C-3.41863208 0.2629717 -3.41863208 0.2629717 0 0 Z M-90.4375 214.1875 C-92.09103872 214.805043 -93.7514738 215.40464062 -95.42016602 215.97998047 C-96.26958267 216.27535202 -97.11899933 216.57072357 -97.99415588 216.87504578 C-98.8842485 217.18182755 -99.77434113 217.48860931 -100.69140625 217.8046875 C-101.65421005 218.13857986 -102.61701385 218.47247223 -103.60899353 218.81648254 C-106.7384918 219.90092433 -109.86920604 220.98180518 -113 222.0625 C-115.18493632 222.8186493 -117.36983165 223.57491704 -119.5546875 224.33129883 C-135.30476628 229.77944611 -151.069969 235.18323101 -166.84985352 240.54443359 C-170.635577 241.83108105 -174.41948729 243.12289178 -178.20144653 244.42056274 C-179.73444769 244.9463622 -181.2678984 245.47085225 -182.80172729 245.99423218 C-185.12890322 246.79003964 -187.45339553 247.59325975 -189.77734375 248.3984375 C-190.474646 248.63572067 -191.17194824 248.87300385 -191.89038086 249.11747742 C-197.40639306 251.04266102 -201.92420005 253.50897707 -206.4375 257.1875 C-207.15421875 257.75597656 -207.8709375 258.32445312 -208.609375 258.91015625 C-217.06869433 265.93386117 -221.61139283 274.52344807 -222.79956055 285.54644775 C-222.92560923 289.15347269 -222.93916942 292.74252215 -222.90625 296.3515625 C-222.91702351 298.35856045 -222.9278195 300.36555857 -222.93990326 302.37254906 C-222.95560241 305.85255534 -222.94586858 309.33248187 -222.9375 312.8125 C-222.92749617 316.98023944 -222.92226807 321.14758226 -222.9473877 325.3152771 C-222.961269 327.89745775 -222.95792407 330.47980892 -222.93444824 333.06192017 C-222.97814276 340.64686169 -224.05678616 346.39381322 -227.4375 353.1875 C-227.8495166 354.09991455 -228.2615332 355.0123291 -228.68603516 355.95239258 C-229.02940918 356.65517334 -229.3727832 357.3579541 -229.7265625 358.08203125 C-230.30277344 359.29922852 -230.30277344 359.29922852 -230.890625 360.54101562 C-231.66878721 362.17385932 -232.45779905 363.80157863 -233.2578125 365.42382812 C-239.09482913 377.89650724 -238.73369553 391.27460169 -238.72460938 404.75 C-238.73064573 406.58614909 -238.73757302 408.42229543 -238.74531555 410.25843811 C-238.76011013 414.18590089 -238.76892966 418.11331365 -238.77302551 422.040802 C-238.77977913 428.25178023 -238.801576 434.4626517 -238.82556152 440.67358398 C-238.87850213 454.96623036 -238.91209568 469.25890944 -238.94532013 483.55161285 C-238.97601566 496.67998063 -239.01080882 509.80830195 -239.06163073 522.93660927 C-239.08496798 529.11123228 -239.09871675 535.28577978 -239.10512543 541.46044254 C-239.11105837 545.29456126 -239.12514828 549.12861839 -239.14146996 552.96270561 C-239.14735048 554.74087157 -239.14981723 556.51905257 -239.14863014 558.29722786 C-239.14747217 560.72310409 -239.15847734 563.14863374 -239.17248535 565.57446289 C-239.16918638 566.27863846 -239.1658874 566.98281403 -239.16248846 567.70832825 C-239.20043943 571.68686595 -239.87282309 574.55995017 -241.4375 578.1875 C-240.81631593 578.18364778 -240.19513187 578.17979556 -239.55512404 578.17582661 C-190.70452735 577.87288674 -141.85392972 577.57009815 -93.00333124 577.26744545 C-90.19588013 577.25005192 -87.38842903 577.23265812 -84.58097792 577.21526432 C98.63506473 576.08014426 98.63506473 576.08014426 183.75 575.5625 C184.5926623 575.55737475 185.43532459 575.5522495 186.30352211 575.54696894 C206.05651284 575.42683273 225.80950499 575.30693111 245.5625 575.1875 C245.39979174 574.68120591 245.23708347 574.17491182 245.06944466 573.65327549 C244.38901002 570.34364586 244.43322515 567.09762836 244.4513855 563.73509216 C244.45138648 562.98145592 244.45138747 562.22781968 244.45138848 561.45134598 C244.45242222 558.92383581 244.46043883 556.39639405 244.46826172 553.86889648 C244.47014102 552.05679368 244.47148586 550.24469025 244.47233582 548.43258667 C244.47462067 544.52627945 244.47934566 540.61998509 244.48553085 536.71368217 C244.49394582 530.5206119 244.48849265 524.32760352 244.47952271 518.13453674 C244.4780517 517.08803922 244.47658069 516.04154169 244.47506511 514.96333212 C244.47199412 512.82284221 244.46887409 510.68235237 244.46570611 508.54186261 C244.44456055 494.12655298 244.43068897 479.71144395 244.46289062 465.29614258 C244.48451384 455.57118981 244.48112875 445.84659255 244.44948208 436.12166268 C244.43372017 430.98278709 244.43019378 425.84459082 244.45724106 420.7057476 C244.48253488 415.85691911 244.47442108 411.00921991 244.44236183 406.16044235 C244.43634349 404.39621875 244.44187527 402.63190482 244.46085548 400.86777306 C244.58466452 388.4888487 242.2613067 378.59987855 237.41620469 367.20660317 C236.18708276 364.29959797 235.06993441 361.3551154 233.9453125 358.40625 C233.19474545 356.49919699 232.44222378 354.5929118 231.6875 352.6875 C230.91861991 350.73984017 230.15036019 348.79193529 229.3828125 346.84375 C228.89192139 345.60334961 228.89192139 345.60334961 228.39111328 344.33789062 C226.93037721 340.54703521 226.41297133 337.58010719 226.32885742 333.52954102 C226.28827461 331.78611168 226.28827461 331.78611168 226.24687195 330.00746155 C226.20781487 328.11851418 226.20781487 328.11851418 226.16796875 326.19140625 C226.11677741 324.20575038 226.06556307 322.22009481 226.01305866 320.23447323 C225.88424096 315.34414204 225.7626315 310.45378016 225.66381836 305.56274414 C225.60797106 302.82198346 225.54214321 300.08179983 225.46565247 297.34153748 C225.39407707 294.76741038 225.3363885 292.19284611 225.29496765 289.61805725 C224.98721313 279.58210223 223.39830908 269.52039604 216.625 261.6875 C215.97660156 260.9140625 215.32820313 260.140625 214.66015625 259.34375 C209.95706424 254.50928671 205.6067363 252.18575711 199.3203125 250.078125 C198.50092194 249.7944104 197.68153137 249.5106958 196.83731079 249.21838379 C194.12394636 248.28169071 191.40585142 247.35960999 188.6875 246.4375 C186.76956416 245.77852029 184.85192619 245.11867308 182.93457031 244.45800781 C176.81538235 242.35356723 170.68932299 240.26958646 164.5625 238.1875 C162.51981891 237.49229874 160.47717545 236.79698691 158.43457031 236.1015625 C150.41634956 233.37234252 142.39744484 230.64514674 134.37695312 227.92260742 C122.62387041 223.93019908 110.8889144 219.89153951 99.1875 215.75 C98.52971558 215.51817017 97.87193115 215.28634033 97.19421387 215.04748535 C95.39132819 214.41126069 93.59013708 213.77023994 91.7890625 213.12890625 C90.79471191 212.77513916 89.80036133 212.42137207 88.77587891 212.05688477 C86.5625 211.1875 86.5625 211.1875 85.5625 210.1875 C83.44624772 210.08181245 81.32641128 210.047811 79.20753479 210.04032898 C78.53586633 210.03665229 77.86419787 210.0329756 77.17217582 210.0291875 C74.90457124 210.01810874 72.63701242 210.01429966 70.36938477 210.01049805 C68.75001376 210.0042362 67.13064421 209.99758965 65.51127625 209.99058533 C61.09758666 209.97314137 56.68390794 209.96261281 52.27019238 209.9543798 C49.51172461 209.94923334 46.75326023 209.94315723 43.99479485 209.93686867 C35.36210359 209.91780104 26.72942093 209.90357727 18.09671265 209.8952567 C8.13706282 209.88549894 -1.8223639 209.85922436 -11.78193516 209.81875581 C-19.4805636 209.78855058 -27.1791283 209.77378337 -34.87781483 209.77047569 C-39.47472425 209.76812881 -44.07139575 209.75921688 -48.6682415 209.73401451 C-52.99963543 209.71065379 -57.33063624 209.70653253 -61.66207695 209.71677589 C-63.24625967 209.71726954 -64.83046225 209.71099976 -66.41458511 209.69721985 C-75.24691921 209.62473244 -82.42737016 210.24342701 -90.4375 214.1875 Z M-242.4375 604.1875 C-241.7775 605.5075 -241.1175 606.8275 -240.4375 608.1875 C-239.25638659 611.73084023 -239.30378109 614.5456741 -239.29273987 618.28755188 C-239.28921302 619.01527666 -239.28568618 619.74300144 -239.28205246 620.49277848 C-239.27135398 622.93830728 -239.26768235 625.38379713 -239.26391602 627.8293457 C-239.25761115 629.5804511 -239.25084542 631.33155489 -239.24365234 633.08265686 C-239.22897088 636.85911538 -239.21725031 640.63556767 -239.20770454 644.41204262 C-239.19224664 650.39363624 -239.1682936 656.37517703 -239.14280701 662.35673523 C-239.0716316 679.36840467 -239.01199285 696.38010516 -238.96069336 713.3918457 C-238.93229742 722.78337928 -238.89686022 732.17486103 -238.85403961 741.56634015 C-238.82740189 747.50094011 -238.8094134 753.43548145 -238.79800236 759.37012923 C-238.78880903 763.08232777 -238.77141512 766.79445593 -238.75182343 770.50661278 C-238.74441431 772.21487178 -238.74027093 773.92314894 -238.73982811 775.63142395 C-238.73384548 788.41240288 -238.70269714 801.4419731 -233.46875 813.34375 C-233.18777466 814.01998413 -232.90679932 814.69621826 -232.61730957 815.39294434 C-231.73916097 817.4978913 -230.83940068 819.59263733 -229.9375 821.6875 C-229.0408149 823.81283241 -228.14873868 825.94004805 -227.25769043 828.06774902 C-226.70775991 829.3763077 -226.15376177 830.68316775 -225.59484863 831.98791504 C-223.07997635 837.88710172 -221.17151327 842.8529253 -221.27392578 849.32543945 C-221.29351852 851.11308464 -221.29351852 851.11308464 -221.31350708 852.93684387 C-221.33637787 854.21194321 -221.35924866 855.48704254 -221.3828125 856.80078125 C-221.39672588 858.13826573 -221.4091413 859.47576654 -221.4201355 860.8132782 C-221.46876161 866.46787508 -221.53981129 872.12202967 -221.62939453 877.77612305 C-221.68333679 881.24543034 -221.71717408 884.71448373 -221.73913193 888.18413353 C-221.75738368 890.13006256 -221.7981154 892.07573958 -221.83938599 894.02131653 C-221.89910289 904.63664084 -219.53464124 911.58501943 -212.3125 919.3125 C-211.44367187 920.26382812 -210.57484375 921.21515625 -209.6796875 922.1953125 C-201.54440734 930.05238454 -192.71857533 933.94601678 -182.0625 937.375 C-180.65085449 937.84318352 -179.23973378 938.31295193 -177.82910156 938.78417969 C-174.86520832 939.77127398 -171.89841937 940.74880448 -168.92871094 941.71826172 C-163.90306391 943.35938634 -158.88620252 945.02642408 -153.87450981 946.70967388 C-150.21133199 947.93820022 -146.54389008 949.14750711 -142.86080933 950.31510925 C-135.79250431 952.579432 -128.86030101 954.88808893 -122.12827873 958.03209782 C-85.56884597 975.05965561 -45.88507783 972.54953153 -6.48582911 972.22911572 C0.35004369 972.18074893 7.18206544 972.21472037 14.01757812 972.29394531 C75.02322877 973.06364094 75.02322877 973.06364094 132.85839844 955.30401611 C139.35404297 952.31025487 146.08783925 950.08965144 152.87915039 947.87333298 C156.07358856 946.82350371 159.24812989 945.71874467 162.42578125 944.61914062 C166.11759836 943.34881924 169.81043054 942.08192208 173.50830078 940.8293457 C198.47152498 933.12119413 198.47152498 933.12119413 218.5625 917.1875 C219.03042969 916.61128906 219.49835938 916.03507812 219.98046875 915.44140625 C225.69049989 907.9229195 227.00858379 901.56999913 227.0390625 892.27734375 C227.05464203 891.23284561 227.07022156 890.18834747 227.08627319 889.11219788 C227.1335907 885.78314 227.16143905 882.45428605 227.1875 879.125 C227.28011778 870.81194526 227.39017726 862.49932013 227.5625 854.1875 C227.57724365 853.43935028 227.5919873 852.69120056 227.60717773 851.92037964 C227.82247293 843.42098366 229.38822747 836.63779259 232.8125 828.875 C239.77511913 812.66405345 243.31870512 798.68648201 243.14257812 781.0949707 C243.14284554 779.25000344 243.14539085 777.40503535 243.15000916 775.56007385 C243.15536488 771.62542749 243.14554765 767.6912344 243.1235199 763.75664711 C243.08936732 757.53241954 243.09379142 751.30856628 243.1036377 745.08427429 C243.11921472 731.8894368 243.09306049 718.69479914 243.0625 705.5 C243.02947881 691.21288574 243.00370026 676.92598231 243.02637625 662.63883084 C243.03476231 656.45252884 243.01898766 650.26690603 242.98458099 644.08070052 C242.96814307 640.23994112 242.97228691 636.39940368 242.98202705 632.55862999 C242.98228707 630.7792395 242.97395993 628.99982377 242.95638847 627.22052002 C242.93355487 624.7903179 242.94148843 622.3620561 242.95690918 619.93183899 C242.94282532 619.22941379 242.92874146 618.5269886 242.91423082 617.80327779 C243.00238535 612.21577345 244.92246193 610.09191735 248.5625 606.1875 C248.5625 605.5275 248.5625 604.8675 248.5625 604.1875 C86.5325 604.1875 -75.4975 604.1875 -242.4375 604.1875 Z " fill="#B77232" transform="translate(1051.4375,434.8125)"/>
<path d="M0 0 C54.45 0 108.9 0 165 0 C165 65.34 165 130.68 165 198 C109.38365986 198 109.38365986 198 91.76171875 197.81640625 C89.7010761 197.79629283 87.64043255 197.77627123 85.57978821 197.7563324 C81.37975233 197.71509759 77.17974009 197.67206532 72.97973633 197.62768555 C67.65826173 197.57171585 62.33674761 197.52181054 57.01520061 197.47328281 C52.80852757 197.43405085 48.60189874 197.39106865 44.39527321 197.34705925 C42.43210921 197.32705733 40.46893214 197.30828905 38.50574303 197.29092598 C25.97829195 197.17814523 13.50516234 196.76266643 1 196 C0.86671876 179.30406713 0.73628623 162.60811447 0.60884857 145.91213608 C0.54955713 138.15202574 0.48948391 130.39192325 0.42724609 122.63183594 C0.37271609 115.83250098 0.31998145 109.03315435 0.26903296 102.23379159 C0.24224604 98.66600024 0.21481576 95.09821796 0.18519592 91.53044891 C-0.0646308 61.01926903 0 30.51409579 0 0 Z " fill="#B77233" transform="translate(970,1409)"/>
<path d="M0 0 C2.5625 0.1875 2.5625 0.1875 4.5625 2.1875 C4.5625 3.8375 4.5625 5.4875 4.5625 7.1875 C31.2925 7.1875 58.0225 7.1875 85.5625 7.1875 C86.71218081 49.72568981 86.71218081 49.72568981 86.85961914 63.44262695 C86.87923375 65.0638304 86.89909538 66.68503087 86.91917419 68.30622864 C86.97115225 72.55594189 87.01983963 76.8056861 87.06775212 81.05544686 C87.11907918 85.55295486 87.17368713 90.05042325 87.22789001 94.54789734 C87.32924649 102.99688973 87.42781609 111.44591204 87.52528423 119.89495009 C87.63672243 129.542568 87.75142005 139.1901464 87.86633885 148.83772337 C88.10191981 168.62094148 88.33357853 188.40420379 88.5625 208.1875 C91.2025 208.5175 93.8425 208.8475 96.5625 209.1875 C96.5625 209.8475 96.5625 210.5075 96.5625 211.1875 C97.7175 211.290625 98.8725 211.39375 100.0625 211.5 C103.63953903 211.95412843 106.74549265 212.88133498 110.1015625 214.234375 C113.36392629 215.49789367 116.67890391 216.5908268 120 217.6875 C120.65564941 217.90486816 121.31129883 218.12223633 121.98681641 218.34619141 C124.73999267 219.25794415 127.49463231 220.16520625 130.25 221.0703125 C136.26360598 223.05396725 142.19361981 225.15380683 148 227.6875 C155.64239995 230.90535261 163.55420575 233.07690282 171.5625 235.1875 C171.5625 235.8475 171.5625 236.5075 171.5625 237.1875 C174.5325 237.5175 177.5025 237.8475 180.5625 238.1875 C180.5625 238.8475 180.5625 239.5075 180.5625 240.1875 C181.655625 240.27 182.74875 240.3525 183.875 240.4375 C188.5453093 241.0035981 192.67933429 242.55289847 197.046875 244.25 C199.21295668 245.05723541 201.31032658 245.68233961 203.5625 246.1875 C203.5625 246.8475 203.5625 247.5075 203.5625 248.1875 C204.614375 248.27 205.66625 248.3525 206.75 248.4375 C212.18171916 249.50603492 214.57306056 251.87770242 217.87890625 256.25390625 C228.43995938 272.28407619 229.39890313 286.14438865 229.65892029 304.9763031 C229.70839034 308.32726155 229.77133679 311.67792886 229.8343811 315.02865601 C229.87408287 317.50528836 229.89113032 319.98136943 229.90698242 322.45825195 C230.07239196 335.06351943 232.09911394 346.08965105 237.9375 357.4375 C246.09790106 374.4466894 248.44056013 388.95780013 248.33203125 407.82421875 C248.34041011 410.20833399 248.35151376 412.59244098 248.36514282 414.97653198 C248.38862236 420.01143429 248.3942659 425.04589347 248.38497925 430.08084106 C248.37078269 437.91793396 248.39759795 445.7545411 248.43188477 453.59155273 C248.46945313 462.70872492 248.49910335 471.825831 248.51552105 480.9430666 C248.54978641 499.70586524 248.69044695 518.46585357 248.94223022 537.22695923 C248.99169474 540.96038057 249.02896372 544.69380901 249.06258011 548.4274025 C249.09488837 551.76551493 249.14002587 555.10342209 249.18359375 558.44140625 C249.19194244 559.61065643 249.20029114 560.77990662 249.20889282 561.98458862 C249.22560028 563.03582916 249.24230774 564.0870697 249.25952148 565.17016602 C249.26982895 566.07493179 249.28013641 566.97969757 249.29075623 567.91188049 C249.42187762 570.46637219 249.42187762 570.46637219 251.5625 573.1875 C253.89067964 573.55510731 256.2243385 573.88991581 258.5625 574.1875 C260.79389155 578.6502831 259.74749699 584.78660332 259.75 589.6875 C259.76224609 590.94949219 259.77449219 592.21148438 259.78710938 593.51171875 C259.79000977 595.31576172 259.79000977 595.31576172 259.79296875 597.15625 C259.79707764 598.26419922 259.80118652 599.37214844 259.80541992 600.51367188 C259.5625 603.1875 259.5625 603.1875 257.5625 605.1875 C256.2425 605.1875 254.9225 605.1875 253.5625 605.1875 C253.294375 605.950625 253.02625 606.71375 252.75 607.5 C251.5625 610.1875 251.5625 610.1875 250.01151943 611.40069294 C247.77983712 614.15261304 248.15401307 617.07434435 248.19068909 620.46391296 C248.18686452 621.21064437 248.18303996 621.95737578 248.1790995 622.72673541 C248.16979085 625.23687592 248.18182105 627.74646821 248.19360352 630.2565918 C248.19113619 632.05371327 248.18729847 633.85083331 248.18218994 635.64794922 C248.17383841 639.524312 248.17467148 643.40052795 248.18237495 647.27689171 C248.19395431 653.41869777 248.18179506 659.56031501 248.16575623 665.70210266 C248.12954256 680.9696436 248.12332183 696.23718077 248.12585449 711.50476074 C248.12757014 723.34757231 248.12029157 735.19022964 248.08587593 747.03299838 C248.06917062 753.12438727 248.07080189 759.21539907 248.08669865 765.30678594 C248.09254287 769.12072258 248.08166999 772.93448501 248.06645203 776.7483902 C248.06276088 778.50097131 248.06573058 780.25358295 248.07632256 782.00613594 C248.16497116 797.73905894 244.99142543 811.22824775 239.4375 826 C239.09074219 826.95197266 238.74398438 827.90394531 238.38671875 828.88476562 C237.00295249 832.63047773 235.78769919 835.84970121 233.5625 839.1875 C232.3688757 843.54579926 232.26232189 848.00805801 232.0625 852.5 C231.99724121 853.80191284 231.99724121 853.80191284 231.93066406 855.13012695 C231.66745307 860.91452466 231.53187791 866.69290861 231.47827148 872.48243713 C231.44424218 876.04789447 231.39301423 879.61305696 231.3425293 883.17831421 C231.3226529 884.96325069 231.31161776 886.74830948 231.30981445 888.53335571 C231.2873863 907.00790077 231.2873863 907.00790077 225.5625 915.1875 C225.07571777 915.92210449 224.58893555 916.65670898 224.08740234 917.41357422 C219.09634172 924.73343202 211.67696801 931.48825723 203.5625 935.1875 C202.2425 935.1875 200.9225 935.1875 199.5625 935.1875 C199.5625 935.8475 199.5625 936.5075 199.5625 937.1875 C195.4428623 938.47993536 191.89418317 939.45002625 187.5625 939.1875 C187.5625 939.8475 187.5625 940.5075 187.5625 941.1875 C186.58023438 941.42533203 186.58023438 941.42533203 185.578125 941.66796875 C179.2491386 943.28597233 173.38614715 945.41731354 167.390625 948 C164.31752215 949.29036363 161.22959938 950.357311 158.0546875 951.36328125 C153.58926531 952.84009016 149.19802209 954.54145334 144.796875 956.19921875 C141.81902379 957.10911773 139.6423643 957.40170109 136.5625 957.1875 C136.5625 957.8475 136.5625 958.5075 136.5625 959.1875 C135.58023438 959.42533203 135.58023438 959.42533203 134.578125 959.66796875 C128.25906829 961.28343381 122.40408201 963.40952871 116.41796875 965.98828125 C112.53190361 967.62032229 108.58845105 968.94874583 104.5625 970.1875 C103.304375 970.579375 102.04625 970.97125 100.75 971.375 C97.5625 972.1875 97.5625 972.1875 93.5625 972.1875 C93.5625 972.8475 93.5625 973.5075 93.5625 974.1875 C91.5825 974.5175 89.6025 974.8475 87.5625 975.1875 C87.5625 1041.5175 87.5625 1107.8475 87.5625 1176.1875 C45.9825 1176.6825 45.9825 1176.6825 3.5625 1177.1875 C3.2325 1178.5075 2.9025 1179.8275 2.5625 1181.1875 C1.9025 1181.8475 1.2425 1182.5075 0.5625 1183.1875 C-3.99305556 1182.63194444 -3.99305556 1182.63194444 -5.4375 1181.1875 C-5.47813832 1179.52132885 -5.480221 1177.85361905 -5.4375 1176.1875 C-5.98833252 1176.19273682 -6.53916504 1176.19797363 -7.10668945 1176.20336914 C-32.55560695 1176.40419468 -57.99630348 1175.73800571 -83.4375 1175.1875 C-84.98348511 1172.09552977 -84.61205936 1168.82556198 -84.63368225 1165.43014526 C-84.64270378 1164.61989305 -84.65172531 1163.80964083 -84.66102022 1162.97483552 C-84.69021722 1160.24480556 -84.71238469 1157.51476287 -84.73461914 1154.78466797 C-84.75405013 1152.83365462 -84.77391195 1150.88264552 -84.79417419 1148.93164062 C-84.84808848 1143.6220465 -84.8959457 1138.31241273 -84.94275212 1133.00275183 C-84.99264302 1127.45867908 -85.04805365 1121.91466163 -85.10289001 1116.37063599 C-85.20594404 1105.86636153 -85.30400165 1095.36204656 -85.40028423 1084.8577081 C-85.5101175 1072.90138246 -85.6254903 1060.94511231 -85.74133885 1048.98884368 C-85.97957615 1024.38845272 -86.21082294 999.788 -86.4375 975.1875 C-91.80894174 972.83323605 -91.80894174 972.83323605 -97.33984375 970.90625 C-97.99887695 970.70547852 -98.65791016 970.50470703 -99.33691406 970.29785156 C-100.00948242 970.09643555 -100.68205078 969.89501953 -101.375 969.6875 C-106.81127341 968.0284262 -112.130883 966.22850654 -117.4375 964.1875 C-118.76686075 963.83866065 -120.09951364 963.50163593 -121.4375 963.1875 C-121.4375 962.5275 -121.4375 961.8675 -121.4375 961.1875 C-122.675 961.043125 -123.9125 960.89875 -125.1875 960.75 C-128.00254499 960.40061498 -130.7076497 959.98370634 -133.4375 959.1875 C-133.4375 958.5275 -133.4375 957.8675 -133.4375 957.1875 C-134.571875 957.084375 -135.70625 956.98125 -136.875 956.875 C-142.90528531 956.11988491 -148.35736337 953.99035975 -154 951.8125 C-158.08666671 950.25019281 -162.25836478 948.97529561 -166.4375 947.6875 C-171.84786138 946.0203035 -177.15613791 944.22592046 -182.4375 942.1875 C-187.72367861 940.34197448 -193.04151802 938.68000565 -198.4375 937.1875 C-198.4375 936.5275 -198.4375 935.8675 -198.4375 935.1875 C-198.97375 935.105 -199.51 935.0225 -200.0625 934.9375 C-203.31090691 933.91168729 -205.72501859 932.22186106 -208.4375 930.1875 C-208.4375 929.5275 -208.4375 928.8675 -208.4375 928.1875 C-209.0046875 927.96191406 -209.571875 927.73632812 -210.15625 927.50390625 C-213.09699526 925.8069351 -214.78436843 923.74636395 -216.9375 921.125 C-217.6903125 920.22652344 -218.443125 919.32804687 -219.21875 918.40234375 C-225.24775861 909.66664994 -225.92347265 902.6363139 -225.625 892.109375 C-225.6094378 890.73443066 -225.59747451 889.3594415 -225.58886719 887.98443604 C-225.55023994 882.20564382 -225.48283919 876.42871912 -225.32470703 870.65185547 C-224.77757123 849.56413456 -227.8033686 834.1386932 -237.08496094 815.08166504 C-240.96167215 806.78627278 -242.55230216 798.97589912 -242.58898926 789.80693054 C-242.59322167 789.08536532 -242.59745408 788.36380009 -242.60181475 787.62036926 C-242.61478148 785.21395164 -242.62085178 782.80756711 -242.62695312 780.40112305 C-242.63490044 778.67101848 -242.64328878 776.94091589 -242.65208435 775.21081543 C-242.67011265 771.49005905 -242.68513869 767.76930694 -242.69786072 764.04852867 C-242.71812572 758.16048269 -242.74577339 752.27248547 -242.77453613 746.38447571 C-242.83457318 733.88134005 -242.88642377 721.37817498 -242.9375 708.875 C-242.99263522 695.38634846 -243.0492205 681.89771176 -243.11504889 668.40910751 C-243.14331293 662.56093873 -243.1669397 656.71277539 -243.18697357 650.86457288 C-243.2004123 647.21928706 -243.21782187 643.57402786 -243.23628426 639.92876434 C-243.24400424 638.24419902 -243.25008941 636.55962524 -243.25437737 634.87504768 C-242.42114253 620.4525147 -242.42114253 620.4525147 -246.4375 607.1875 C-249.96263528 606.44573993 -249.96263528 606.44573993 -253.4375 606.1875 C-254.4375 605.1875 -254.4375 605.1875 -254.55102539 602.50366211 C-254.54578857 601.33585205 -254.54055176 600.16804199 -254.53515625 598.96484375 C-254.53193359 597.70478516 -254.52871094 596.44472656 -254.52539062 595.14648438 C-254.51703403 593.80598891 -254.50856907 592.46549412 -254.5 591.125 C-254.4949866 589.78060058 -254.49042342 588.4361994 -254.48632812 587.09179688 C-254.47449488 583.79032059 -254.45800971 580.48893197 -254.4375 577.1875 C-251.48085481 575.7091774 -248.69520263 576.12717217 -245.4375 576.1875 C-245.1075 574.8675 -244.7775 573.5475 -244.4375 572.1875 C-243.7775 572.1875 -243.1175 572.1875 -242.4375 572.1875 C-242.44026538 571.19597207 -242.44303076 570.20444414 -242.44587994 569.18286991 C-242.5125089 545.04541097 -242.56179169 520.90796398 -242.59293652 496.77043247 C-242.60839864 485.09765413 -242.62947572 473.42493658 -242.66381836 461.75219727 C-242.69374067 451.57702768 -242.71307976 441.40190212 -242.71976548 431.22668976 C-242.72367292 425.84009756 -242.73284246 420.45363133 -242.75469017 415.06707954 C-242.77509997 409.99378931 -242.78132468 404.92067656 -242.77682304 399.84734917 C-242.77764623 397.98861602 -242.78358501 396.12987675 -242.79511642 394.2711792 C-242.89699702 376.99763519 -242.89699702 376.99763519 -239.4375 369.1875 C-239.09847656 368.34171387 -238.75945313 367.49592773 -238.41015625 366.62451172 C-238.10980469 365.96209473 -237.80945313 365.29967773 -237.5 364.6171875 C-236.99339844 363.48990234 -236.99339844 363.48990234 -236.4765625 362.33984375 C-235.96222656 361.21255859 -235.96222656 361.21255859 -235.4375 360.0625 C-234.41585162 357.80027859 -233.39531472 355.53773794 -232.38427734 353.27075195 C-231.5358465 351.4038978 -230.63448871 349.56131047 -229.7265625 347.72265625 C-228.11012185 343.28969022 -227.91294647 339.43379762 -227.8125 334.75 C-227.76186401 333.31744873 -227.76186401 333.31744873 -227.71020508 331.85595703 C-227.51315796 325.85819175 -227.41430318 319.86003808 -227.33654785 313.85978699 C-227.28819726 310.31594041 -227.22639434 306.77236388 -227.16461182 303.22872925 C-227.12578555 300.61537442 -227.10912516 298.00249579 -227.09326172 295.38891602 C-226.93002219 282.3658718 -225.60363699 269.32262861 -216.4375 259.1875 C-215.7775 259.1875 -215.1175 259.1875 -214.4375 259.1875 C-214.1075 258.1975 -213.7775 257.2075 -213.4375 256.1875 C-212.10416667 255.85416667 -210.77083333 255.52083333 -209.4375 255.1875 C-209.1075 254.1975 -208.7775 253.2075 -208.4375 252.1875 C-206.375 251.5 -206.375 251.5 -204.4375 251.1875 C-204.4375 250.5275 -204.4375 249.8675 -204.4375 249.1875 C-202.4575 248.8575 -200.4775 248.5275 -198.4375 248.1875 C-198.4375 247.5275 -198.4375 246.8675 -198.4375 246.1875 C-197.2 245.8575 -195.9625 245.5275 -194.6875 245.1875 C-193.99140625 245.001875 -193.2953125 244.81625 -192.578125 244.625 C-190.4375 244.1875 -190.4375 244.1875 -186.4375 244.1875 C-186.4375 243.5275 -186.4375 242.8675 -186.4375 242.1875 C-185.68984375 241.99414062 -184.9421875 241.80078125 -184.171875 241.6015625 C-183.18703125 241.34117187 -182.2021875 241.08078125 -181.1875 240.8125 C-180.21296875 240.55726563 -179.2384375 240.30203125 -178.234375 240.0390625 C-175.48338754 239.28668959 -175.48338754 239.28668959 -173.25 238.09375 C-170.90302127 236.92026063 -169.02402293 237.04380428 -166.4375 237.1875 C-166.4375 236.5275 -166.4375 235.8675 -166.4375 235.1875 C-165.75945312 235.01734375 -165.08140625 234.8471875 -164.3828125 234.671875 C-158.69568089 233.19101524 -153.33136129 231.41970764 -147.91015625 229.16015625 C-144.68022989 227.8896165 -141.39615626 226.92684889 -138.0546875 225.99609375 C-135.20872662 225.11681927 -132.43851407 224.0771041 -129.65478516 223.01928711 C-123.09134711 220.55709448 -116.44502486 218.31218638 -109.82226562 216.015625 C-107.74976962 215.29593761 -105.67943459 214.57040147 -103.609375 213.84375 C-102.56265625 213.4828125 -101.5159375 213.121875 -100.4375 212.75 C-99.550625 212.44191406 -98.66375 212.13382813 -97.75 211.81640625 C-95.4375 211.1875 -95.4375 211.1875 -91.4375 211.1875 C-91.4375 210.5275 -91.4375 209.8675 -91.4375 209.1875 C-88.7975 208.8575 -86.1575 208.5275 -83.4375 208.1875 C-83.36851037 192.4044784 -83.55681363 176.6292706 -83.80789185 160.84850311 C-83.87717211 156.49215234 -83.94355027 152.13575988 -84.00952148 147.77935791 C-84.1856212 136.17638064 -84.364583 124.5734482 -84.54673672 112.97056437 C-85.52769793 50.47176958 -85.52769793 50.47176958 -85.5625 25.390625 C-85.5650882 24.53178459 -85.56767639 23.67294418 -85.57034302 22.78807831 C-85.57603005 20.45925839 -85.57474643 18.13057759 -85.5703125 15.80175781 C-85.56918457 14.53325989 -85.56805664 13.26476196 -85.56689453 11.95782471 C-85.4375 9.1875 -85.4375 9.1875 -84.4375 8.1875 C-81.9130093 8.06249848 -79.41450383 8.00146462 -76.88842773 7.98217773 C-76.09824249 7.97227814 -75.30805725 7.96237854 -74.493927 7.95217896 C-71.86968022 7.92047152 -69.24541531 7.89577021 -66.62109375 7.87109375 C-64.80647803 7.85053219 -62.9918672 7.82953594 -61.17726135 7.80812073 C-56.3916518 7.75281759 -51.60599844 7.7034448 -46.8203125 7.65527344 C-41.94071536 7.60511843 -37.06118215 7.54940112 -32.18164062 7.49414062 C-22.60031498 7.38645832 -13.01893392 7.28503587 -3.4375 7.1875 C-3.4684375 5.7334375 -3.4684375 5.7334375 -3.5 4.25 C-3.41863208 0.2629717 -3.41863208 0.2629717 0 0 Z M-81.4375 13.1875 C-80.78336415 76.43562777 -80.78336415 76.43562777 -79.96668625 139.68180847 C-79.93814225 141.7044887 -79.91057781 143.72717985 -79.8833313 145.74987793 C-79.86583832 147.03092407 -79.84834534 148.31197021 -79.83032227 149.63183594 C-79.81550308 150.73243347 -79.8006839 151.83303101 -79.78541565 152.96697998 C-79.50524463 170.72067836 -78.95975903 188.43069307 -78.4375 206.1875 C-24.9775 206.1875 28.4825 206.1875 83.5625 206.1875 C83.86718269 140.69124231 83.86718269 140.69124231 82.9347229 75.20178223 C82.57502244 61.40822981 82.50212758 47.62583364 82.53125 33.828125 C82.53376761 31.71110053 82.53604724 29.59407577 82.53808594 27.47705078 C82.54349698 22.38052627 82.55207095 17.28401661 82.5625 12.1875 C66.64277579 12.16384708 50.72305653 12.14636544 34.80331898 12.13568783 C27.40687778 12.13059213 20.01044777 12.1236558 12.61401367 12.11206055 C4.06168705 12.09890922 -4.49063156 12.09063774 -13.04296875 12.08984375 C-14.08281426 12.08974721 -14.08281426 12.08974721 -15.14366674 12.08964872 C-37.2537458 12.09086226 -59.34239645 12.3344963 -81.4375 13.1875 Z M-90.4375 214.1875 C-92.09103872 214.805043 -93.7514738 215.40464062 -95.42016602 215.97998047 C-96.26958267 216.27535202 -97.11899933 216.57072357 -97.99415588 216.87504578 C-98.8842485 217.18182755 -99.77434113 217.48860931 -100.69140625 217.8046875 C-101.65421005 218.13857986 -102.61701385 218.47247223 -103.60899353 218.81648254 C-106.7384918 219.90092433 -109.86920604 220.98180518 -113 222.0625 C-115.18493632 222.8186493 -117.36983165 223.57491704 -119.5546875 224.33129883 C-135.30476628 229.77944611 -151.069969 235.18323101 -166.84985352 240.54443359 C-170.635577 241.83108105 -174.41948729 243.12289178 -178.20144653 244.42056274 C-179.73444769 244.9463622 -181.2678984 245.47085225 -182.80172729 245.99423218 C-185.12890322 246.79003964 -187.45339553 247.59325975 -189.77734375 248.3984375 C-190.474646 248.63572067 -191.17194824 248.87300385 -191.89038086 249.11747742 C-197.40639306 251.04266102 -201.92420005 253.50897707 -206.4375 257.1875 C-207.15421875 257.75597656 -207.8709375 258.32445312 -208.609375 258.91015625 C-217.06869433 265.93386117 -221.61139283 274.52344807 -222.79956055 285.54644775 C-222.92560923 289.15347269 -222.93916942 292.74252215 -222.90625 296.3515625 C-222.91702351 298.35856045 -222.9278195 300.36555857 -222.93990326 302.37254906 C-222.95560241 305.85255534 -222.94586858 309.33248187 -222.9375 312.8125 C-222.92749617 316.98023944 -222.92226807 321.14758226 -222.9473877 325.3152771 C-222.961269 327.89745775 -222.95792407 330.47980892 -222.93444824 333.06192017 C-222.97814276 340.64686169 -224.05678616 346.39381322 -227.4375 353.1875 C-227.8495166 354.09991455 -228.2615332 355.0123291 -228.68603516 355.95239258 C-229.02940918 356.65517334 -229.3727832 357.3579541 -229.7265625 358.08203125 C-230.30277344 359.29922852 -230.30277344 359.29922852 -230.890625 360.54101562 C-231.66878721 362.17385932 -232.45779905 363.80157863 -233.2578125 365.42382812 C-239.09482913 377.89650724 -238.73369553 391.27460169 -238.72460938 404.75 C-238.73064573 406.58614909 -238.73757302 408.42229543 -238.74531555 410.25843811 C-238.76011013 414.18590089 -238.76892966 418.11331365 -238.77302551 422.040802 C-238.77977913 428.25178023 -238.801576 434.4626517 -238.82556152 440.67358398 C-238.87850213 454.96623036 -238.91209568 469.25890944 -238.94532013 483.55161285 C-238.97601566 496.67998063 -239.01080882 509.80830195 -239.06163073 522.93660927 C-239.08496798 529.11123228 -239.09871675 535.28577978 -239.10512543 541.46044254 C-239.11105837 545.29456126 -239.12514828 549.12861839 -239.14146996 552.96270561 C-239.14735048 554.74087157 -239.14981723 556.51905257 -239.14863014 558.29722786 C-239.14747217 560.72310409 -239.15847734 563.14863374 -239.17248535 565.57446289 C-239.16918638 566.27863846 -239.1658874 566.98281403 -239.16248846 567.70832825 C-239.20043943 571.68686595 -239.87282309 574.55995017 -241.4375 578.1875 C-240.81631593 578.18364778 -240.19513187 578.17979556 -239.55512404 578.17582661 C-190.70452735 577.87288674 -141.85392972 577.57009815 -93.00333124 577.26744545 C-90.19588013 577.25005192 -87.38842903 577.23265812 -84.58097792 577.21526432 C98.63506473 576.08014426 98.63506473 576.08014426 183.75 575.5625 C184.5926623 575.55737475 185.43532459 575.5522495 186.30352211 575.54696894 C206.05651284 575.42683273 225.80950499 575.30693111 245.5625 575.1875 C245.39979174 574.68120591 245.23708347 574.17491182 245.06944466 573.65327549 C244.38901002 570.34364586 244.43322515 567.09762836 244.4513855 563.73509216 C244.45138648 562.98145592 244.45138747 562.22781968 244.45138848 561.45134598 C244.45242222 558.92383581 244.46043883 556.39639405 244.46826172 553.86889648 C244.47014102 552.05679368 244.47148586 550.24469025 244.47233582 548.43258667 C244.47462067 544.52627945 244.47934566 540.61998509 244.48553085 536.71368217 C244.49394582 530.5206119 244.48849265 524.32760352 244.47952271 518.13453674 C244.4780517 517.08803922 244.47658069 516.04154169 244.47506511 514.96333212 C244.47199412 512.82284221 244.46887409 510.68235237 244.46570611 508.54186261 C244.44456055 494.12655298 244.43068897 479.71144395 244.46289062 465.29614258 C244.48451384 455.57118981 244.48112875 445.84659255 244.44948208 436.12166268 C244.43372017 430.98278709 244.43019378 425.84459082 244.45724106 420.7057476 C244.48253488 415.85691911 244.47442108 411.00921991 244.44236183 406.16044235 C244.43634349 404.39621875 244.44187527 402.63190482 244.46085548 400.86777306 C244.58466452 388.4888487 242.2613067 378.59987855 237.41620469 367.20660317 C236.18708276 364.29959797 235.06993441 361.3551154 233.9453125 358.40625 C233.19474545 356.49919699 232.44222378 354.5929118 231.6875 352.6875 C230.91861991 350.73984017 230.15036019 348.79193529 229.3828125 346.84375 C228.89192139 345.60334961 228.89192139 345.60334961 228.39111328 344.33789062 C226.93037721 340.54703521 226.41297133 337.58010719 226.32885742 333.52954102 C226.28827461 331.78611168 226.28827461 331.78611168 226.24687195 330.00746155 C226.20781487 328.11851418 226.20781487 328.11851418 226.16796875 326.19140625 C226.11677741 324.20575038 226.06556307 322.22009481 226.01305866 320.23447323 C225.88424096 315.34414204 225.7626315 310.45378016 225.66381836 305.56274414 C225.60797106 302.82198346 225.54214321 300.08179983 225.46565247 297.34153748 C225.39407707 294.76741038 225.3363885 292.19284611 225.29496765 289.61805725 C224.98721313 279.58210223 223.39830908 269.52039604 216.625 261.6875 C215.97660156 260.9140625 215.32820313 260.140625 214.66015625 259.34375 C209.95706424 254.50928671 205.6067363 252.18575711 199.3203125 250.078125 C198.50092194 249.7944104 197.68153137 249.5106958 196.83731079 249.21838379 C194.12394636 248.28169071 191.40585142 247.35960999 188.6875 246.4375 C186.76956416 245.77852029 184.85192619 245.11867308 182.93457031 244.45800781 C176.81538235 242.35356723 170.68932299 240.26958646 164.5625 238.1875 C162.51981891 237.49229874 160.47717545 236.79698691 158.43457031 236.1015625 C150.41634956 233.37234252 142.39744484 230.64514674 134.37695312 227.92260742 C122.62387041 223.93019908 110.8889144 219.89153951 99.1875 215.75 C98.52971558 215.51817017 97.87193115 215.28634033 97.19421387 215.04748535 C95.39132819 214.41126069 93.59013708 213.77023994 91.7890625 213.12890625 C90.79471191 212.77513916 89.80036133 212.42137207 88.77587891 212.05688477 C86.5625 211.1875 86.5625 211.1875 85.5625 210.1875 C83.44624772 210.08181245 81.32641128 210.047811 79.20753479 210.04032898 C78.53586633 210.03665229 77.86419787 210.0329756 77.17217582 210.0291875 C74.90457124 210.01810874 72.63701242 210.01429966 70.36938477 210.01049805 C68.75001376 210.0042362 67.13064421 209.99758965 65.51127625 209.99058533 C61.09758666 209.97314137 56.68390794 209.96261281 52.27019238 209.9543798 C49.51172461 209.94923334 46.75326023 209.94315723 43.99479485 209.93686867 C35.36210359 209.91780104 26.72942093 209.90357727 18.09671265 209.8952567 C8.13706282 209.88549894 -1.8223639 209.85922436 -11.78193516 209.81875581 C-19.4805636 209.78855058 -27.1791283 209.77378337 -34.87781483 209.77047569 C-39.47472425 209.76812881 -44.07139575 209.75921688 -48.6682415 209.73401451 C-52.99963543 209.71065379 -57.33063624 209.70653253 -61.66207695 209.71677589 C-63.24625967 209.71726954 -64.83046225 209.71099976 -66.41458511 209.69721985 C-75.24691921 209.62473244 -82.42737016 210.24342701 -90.4375 214.1875 Z M-242.4375 604.1875 C-241.7775 605.5075 -241.1175 606.8275 -240.4375 608.1875 C-239.25638659 611.73084023 -239.30378109 614.5456741 -239.29273987 618.28755188 C-239.28921302 619.01527666 -239.28568618 619.74300144 -239.28205246 620.49277848 C-239.27135398 622.93830728 -239.26768235 625.38379713 -239.26391602 627.8293457 C-239.25761115 629.5804511 -239.25084542 631.33155489 -239.24365234 633.08265686 C-239.22897088 636.85911538 -239.21725031 640.63556767 -239.20770454 644.41204262 C-239.19224664 650.39363624 -239.1682936 656.37517703 -239.14280701 662.35673523 C-239.0716316 679.36840467 -239.01199285 696.38010516 -238.96069336 713.3918457 C-238.93229742 722.78337928 -238.89686022 732.17486103 -238.85403961 741.56634015 C-238.82740189 747.50094011 -238.8094134 753.43548145 -238.79800236 759.37012923 C-238.78880903 763.08232777 -238.77141512 766.79445593 -238.75182343 770.50661278 C-238.74441431 772.21487178 -238.74027093 773.92314894 -238.73982811 775.63142395 C-238.73384548 788.41240288 -238.70269714 801.4419731 -233.46875 813.34375 C-233.18777466 814.01998413 -232.90679932 814.69621826 -232.61730957 815.39294434 C-231.73916097 817.4978913 -230.83940068 819.59263733 -229.9375 821.6875 C-229.0408149 823.81283241 -228.14873868 825.94004805 -227.25769043 828.06774902 C-226.70775991 829.3763077 -226.15376177 830.68316775 -225.59484863 831.98791504 C-223.07997635 837.88710172 -221.17151327 842.8529253 -221.27392578 849.32543945 C-221.29351852 851.11308464 -221.29351852 851.11308464 -221.31350708 852.93684387 C-221.33637787 854.21194321 -221.35924866 855.48704254 -221.3828125 856.80078125 C-221.39672588 858.13826573 -221.4091413 859.47576654 -221.4201355 860.8132782 C-221.46876161 866.46787508 -221.53981129 872.12202967 -221.62939453 877.77612305 C-221.68333679 881.24543034 -221.71717408 884.71448373 -221.73913193 888.18413353 C-221.75738368 890.13006256 -221.7981154 892.07573958 -221.83938599 894.02131653 C-221.89910289 904.63664084 -219.53464124 911.58501943 -212.3125 919.3125 C-211.44367187 920.26382812 -210.57484375 921.21515625 -209.6796875 922.1953125 C-201.54440734 930.05238454 -192.71857533 933.94601678 -182.0625 937.375 C-180.65085449 937.84318352 -179.23973378 938.31295193 -177.82910156 938.78417969 C-174.86520832 939.77127398 -171.89841937 940.74880448 -168.92871094 941.71826172 C-163.90306391 943.35938634 -158.88620252 945.02642408 -153.87450981 946.70967388 C-150.21133199 947.93820022 -146.54389008 949.14750711 -142.86080933 950.31510925 C-135.79250431 952.579432 -128.86030101 954.88808893 -122.12827873 958.03209782 C-85.56884597 975.05965561 -45.88507783 972.54953153 -6.48582911 972.22911572 C0.35004369 972.18074893 7.18206544 972.21472037 14.01757812 972.29394531 C75.02322877 973.06364094 75.02322877 973.06364094 132.85839844 955.30401611 C139.35404297 952.31025487 146.08783925 950.08965144 152.87915039 947.87333298 C156.07358856 946.82350371 159.24812989 945.71874467 162.42578125 944.61914062 C166.11759836 943.34881924 169.81043054 942.08192208 173.50830078 940.8293457 C198.47152498 933.12119413 198.47152498 933.12119413 218.5625 917.1875 C219.03042969 916.61128906 219.49835938 916.03507812 219.98046875 915.44140625 C225.69049989 907.9229195 227.00858379 901.56999913 227.0390625 892.27734375 C227.05464203 891.23284561 227.07022156 890.18834747 227.08627319 889.11219788 C227.1335907 885.78314 227.16143905 882.45428605 227.1875 879.125 C227.28011778 870.81194526 227.39017726 862.49932013 227.5625 854.1875 C227.57724365 853.43935028 227.5919873 852.69120056 227.60717773 851.92037964 C227.82247293 843.42098366 229.38822747 836.63779259 232.8125 828.875 C239.77511913 812.66405345 243.31870512 798.68648201 243.14257812 781.0949707 C243.14284554 779.25000344 243.14539085 777.40503535 243.15000916 775.56007385 C243.15536488 771.62542749 243.14554765 767.6912344 243.1235199 763.75664711 C243.08936732 757.53241954 243.09379142 751.30856628 243.1036377 745.08427429 C243.11921472 731.8894368 243.09306049 718.69479914 243.0625 705.5 C243.02947881 691.21288574 243.00370026 676.92598231 243.02637625 662.63883084 C243.03476231 656.45252884 243.01898766 650.26690603 242.98458099 644.08070052 C242.96814307 640.23994112 242.97228691 636.39940368 242.98202705 632.55862999 C242.98228707 630.7792395 242.97395993 628.99982377 242.95638847 627.22052002 C242.93355487 624.7903179 242.94148843 622.3620561 242.95690918 619.93183899 C242.94282532 619.22941379 242.92874146 618.5269886 242.91423082 617.80327779 C243.00238535 612.21577345 244.92246193 610.09191735 248.5625 606.1875 C248.5625 605.5275 248.5625 604.8675 248.5625 604.1875 C86.5325 604.1875 -75.4975 604.1875 -242.4375 604.1875 Z M-81.4375 974.1875 C-81.46597695 1020.96194926 -81.46597695 1020.96194926 -81.23557091 1067.73349285 C-81.20580611 1071.38467287 -81.17884815 1075.03587406 -81.15148926 1078.68707275 C-81.10017743 1085.48495525 -81.0466379 1092.28281792 -80.9921174 1099.08067536 C-80.92977456 1106.86908685 -80.87019021 1114.65751886 -80.81074238 1122.44595289 C-80.68921752 1138.35982511 -80.56453782 1154.27367077 -80.4375 1170.1875 C-66.97061028 1171.00882038 -53.5408394 1171.38459586 -40.05078125 1171.50390625 C-38.01816016 1171.52461584 -35.98554199 1171.54561421 -33.95292664 1171.56687927 C-29.70130413 1171.61050173 -25.4496675 1171.65141414 -21.19799805 1171.69018555 C-15.91096975 1171.73849808 -10.62401708 1171.79229561 -5.33706379 1171.84816074 C-1.12920456 1171.8921466 3.07867757 1171.93354088 7.2865696 1171.97425652 C9.22578335 1171.9931847 11.16499184 1172.01266582 13.10419273 1172.03286934 C36.5905682 1172.27319771 60.07367404 1172.1875 83.5625 1172.1875 C83.5625 1106.8475 83.5625 1041.5075 83.5625 974.1875 C29.1125 974.1875 -25.3375 974.1875 -81.4375 974.1875 Z " fill="#101010" transform="translate(1051.4375,434.8125)"/>
<path d="M0 0 C11.22 0 22.44 0 34 0 C32 4 32 4 30.39739704 5.78227234 C28.4148682 8.92862868 28.59605024 11.88187362 28.64164734 15.48364258 C28.63802719 16.61916392 28.63802719 16.61916392 28.63433391 17.77762508 C28.62972803 20.31680613 28.64641231 22.85540571 28.6628418 25.39453125 C28.66364813 27.214864 28.66305407 29.03519784 28.66116333 30.85552979 C28.65960062 34.77989552 28.66700395 38.70410783 28.68100548 42.62844849 C28.70215699 48.85123198 28.69737104 55.07382834 28.6879425 61.29663086 C28.66508479 78.99402458 28.67679028 96.69130827 28.71508789 114.38867188 C28.73600353 124.16009869 28.73509625 133.93129298 28.71155292 143.70271587 C28.6979798 149.8692744 28.71082588 156.03500094 28.74415052 162.20147514 C28.75865951 166.07029424 28.74771487 169.93875465 28.73016739 173.80754852 C28.72703264 175.57942686 28.73382295 177.35136059 28.75223351 179.12314606 C28.92563936 196.88830184 24.08199281 212.58575853 16.63867188 228.63671875 C10.28478668 243.37575069 12.73709341 262.48205868 12.67407227 278.23046875 C12.65857309 281.48481812 12.6184075 284.73811752 12.57421875 287.9921875 C12.57612717 288.97879364 12.57803558 289.96539978 12.58000183 290.98190308 C12.38240203 302.18807442 6.87300493 309.58207709 -0.515625 317.65625 C-10.75821714 327.3815395 -26.21840172 331.42314735 -39.26028442 335.82391357 C-43.54259224 337.26901362 -47.81739843 338.73573169 -52.09272766 340.20132446 C-54.32469982 340.96634726 -56.5570338 341.73031521 -58.78971863 342.49325562 C-71.07922931 346.69706529 -83.32229362 351.03014426 -95.5625 355.375 C-97.61309877 356.10145539 -99.66371674 356.82785661 -101.71435547 357.55419922 C-103.6234293 358.23128489 -105.53244912 358.90852289 -107.44140625 359.5859375 C-108.72110542 360.03954651 -108.72110542 360.03954651 -110.0266571 360.50231934 C-110.83069473 360.78820923 -111.63473236 361.07409912 -112.46313477 361.36865234 C-113.61883469 361.77512245 -113.61883469 361.77512245 -114.79788208 362.18980408 C-116.21671416 362.71181607 -117.62334332 363.26897173 -119.01144409 363.86793518 C-124.46737627 366.18307394 -129.30233488 366.39429962 -135.1875 366.29296875 C-136.13061035 366.28872391 -137.0737207 366.28447906 -138.04541016 366.28010559 C-141.03057518 366.2634357 -144.01504218 366.22580575 -147 366.1875 C-149.03514644 366.17243804 -151.07030355 366.15875229 -153.10546875 366.14648438 C-158.0705777 366.11357055 -163.03517087 366.06186999 -168 366 C-165.45537409 363.45537409 -162.84081368 362.49373329 -159.5625 361 C-153.37696687 358.04495509 -148.62523653 354.44396111 -143.6953125 349.625 C-141.58891546 347.57355245 -139.46353854 345.6499811 -137.23828125 343.734375 C-125.91432107 333.89439082 -114.98048849 323.03880445 -106 311 C-105.24203125 310.00871094 -104.4840625 309.01742188 -103.703125 307.99609375 C-51.5830713 238.45719051 -25.26510531 143.25107633 -1.40991211 5.80517578 C-1 3 -1 3 0 0 Z " fill="#8F8F8F" transform="translate(1266,1039)"/>
<path d="M0 0 C3.22926136 2.95246753 3.94390752 5.55827175 4.5 9.9375 C4.09503324 16.80887149 -0.07007089 21.62224828 -4.88037109 26.15356445 C-11.03199154 31.51231882 -18.12043122 35.75624048 -25.04248047 40.03466797 C-34.72771117 46.03223812 -43.66380175 52.23699326 -52 60 C-52.72832031 60.64839844 -53.45664062 61.29679688 -54.20703125 61.96484375 C-64.8601715 71.90357222 -72.22051822 84.76632279 -78 98 C-78.46607666 99.0612207 -78.93215332 100.12244141 -79.41235352 101.21582031 C-83.17493524 110.1575271 -85.74436788 119.06932639 -87.89877319 128.51779175 C-88.82705737 132.57951486 -89.79898884 136.63085953 -90.765625 140.68359375 C-90.95577682 141.48452957 -91.14592865 142.28546539 -91.34184265 143.110672 C-103.23966155 193.04804607 -103.23966155 193.04804607 -120 204 C-126.2530439 207.19080558 -132.19700907 207.68621143 -139 206 C-146.65995475 202.17002263 -151.31850808 195.71931968 -154.12304688 187.77783203 C-157.0773301 178.41986029 -157.3881539 168.99883014 -157.375 159.25 C-157.37445618 158.56146942 -157.37391235 157.87293884 -157.37335205 157.1635437 C-157.18808231 105.42511524 -141.98740246 50.59982856 -105.75 12.375 C-76.42436062 -16.08812057 -34.53854403 -24.02681324 0 0 Z " fill="#D5D5D5" transform="translate(993,698)"/>
<path d="M0 0 C0.82122424 0.00080739 1.64244847 0.00161479 2.48855829 0.00244665 C21.76327653 0.02214409 41.03787037 0.06208851 60.3125 0.125 C60.3125 7.055 60.3125 13.985 60.3125 21.125 C-106.6675 21.455 -273.6475 21.785 -445.6875 22.125 C-445.6875 15.855 -445.6875 9.585 -445.6875 3.125 C-412.85080677 2.10685434 -380.01287092 1.84309941 -347.16317999 1.63440685 C-341.68360975 1.59953931 -336.20405201 1.56307099 -330.72449875 1.52563286 C-329.92970081 1.52020537 -329.13490288 1.51477789 -328.31602016 1.50918594 C-326.69718982 1.49812923 -325.07835949 1.48707165 -323.45952916 1.47601321 C-307.40844437 1.36661413 -291.35732564 1.26297139 -275.30618763 1.16171473 C-273.56758053 1.15074657 -271.82897345 1.13977735 -270.09036636 1.12880707 C-268.79674492 1.12064502 -268.79674492 1.12064502 -267.47698972 1.11231809 C-258.75077367 1.05715752 -250.02456824 1.00038753 -241.29836259 0.94361064 C-160.86600387 0.42072532 -80.43448732 -0.07917372 0 0 Z " fill="#BFBFBF" transform="translate(1246.6875,1013.875)"/>
<path d="M0 0 C7.41055664 0.01140549 14.82111447 0.01673263 22.23167777 0.021703 C37.41162377 0.0320128 52.59155325 0.04947284 67.7714864 0.07202661 C67.76886799 1.3133082 67.76624959 2.55458978 67.76355183 3.83348596 C67.72013274 26.43441122 67.72338464 49.02327207 68.19900715 71.6200918 C68.7756994 99.58323122 68.85886289 127.54114573 68.8339864 155.50952661 C68.83313038 156.475081 68.83227437 157.44063539 68.83139241 158.435449 C68.82005241 170.31432757 68.80000387 182.19317703 68.7714864 194.07202661 C67.4514864 193.74202661 66.1314864 193.41202661 64.7714864 193.07202661 C64.63613484 191.76233911 64.50078328 190.45265161 64.36133015 189.10327661 C60.25731237 153.0233746 45.55916812 118.09356313 23.7714864 89.07202661 C23.3191866 88.46568384 22.86688679 87.85934106 22.40088093 87.23462427 C16.01303749 78.73337291 9.14434129 70.73538189 1.7714864 63.07202661 C1.17175007 62.44505884 0.57201375 61.81809106 -0.04589641 61.17212427 C-26.42945078 33.73296216 -57.69284381 14.7980948 -94.2285136 4.07202661 C-94.5585136 9.35202661 -94.8885136 14.63202661 -95.2285136 20.07202661 C-95.5585136 20.07202661 -95.8885136 20.07202661 -96.2285136 20.07202661 C-96.2285136 13.80202661 -96.2285136 7.53202661 -96.2285136 1.07202661 C-64.15770295 -0.12952815 -32.08737136 -0.05030278 0 0 Z " fill="#AA6528" transform="translate(1066.228513598442,446.92797338962555)"/>
<path d="M0 0 C6.17622843 0.62080647 11.68015135 2.40591611 17.53125 4.4296875 C19.05681015 4.94912933 19.05681015 4.94912933 20.6131897 5.47906494 C23.91117916 6.60420788 27.20581083 7.73878254 30.5 8.875 C32.76542207 9.65359995 35.03088449 10.43208254 37.29638672 11.21044922 C41.78973261 12.75563776 46.28143514 14.30550506 50.77246094 15.85742188 C55.38858539 17.45001383 60.01182337 19.01903214 64.64300537 20.56723022 C67.49865311 21.52398619 70.34918114 22.49530208 73.19848633 23.47076416 C75.06503754 24.104637 76.93772344 24.72035525 78.81054688 25.33544922 C87.50032111 28.34528014 94.1740469 32.50629544 99.3125 40.3125 C99.76238281 40.96863281 100.21226563 41.62476563 100.67578125 42.30078125 C104.84191707 50.79281621 105.4138244 58.91487248 105.4140625 68.2578125 C105.45272708 70.85028633 105.49315048 73.44273441 105.53515625 76.03515625 C105.58961438 80.05834103 105.62492885 84.08040015 105.63134766 88.10400391 C105.69054746 105.82666993 107.58601778 120.27481685 114.90010071 136.50367737 C116.58783834 140.33415319 118.01088497 144.25408845 119.4375 148.1875 C121.11649303 152.75775498 121.11649303 152.75775498 123.0574789 157.21693325 C124.24759497 160.73109593 124.28524813 164.00800023 124.27174377 167.67359924 C124.27683061 168.4386734 124.28191745 169.20374755 124.28715843 169.99200577 C124.30180267 172.55144385 124.3023524 175.110689 124.30297852 177.67016602 C124.31064086 179.50675836 124.31918745 181.34334719 124.32855225 183.17993164 C124.34682366 187.13263395 124.35886683 191.08528901 124.36609077 195.03802681 C124.37757553 201.28589648 124.40303073 207.53366151 124.43040466 213.78147888 C124.47205004 223.66112655 124.50446734 233.54077924 124.53287882 243.42047304 C124.58385996 261.119633 124.64598056 278.81874928 124.71821922 296.51783508 C124.74315439 302.73118284 124.76258018 308.9445168 124.77760136 315.15789616 C124.78779584 319.01926553 124.80194183 322.8806134 124.81707764 326.74196625 C124.82323994 328.53506146 124.82769544 330.32816346 124.83033562 332.12126732 C124.83414035 334.56534629 124.84395023 337.00933025 124.85523987 339.4533844 C124.85466067 340.52220245 124.85466067 340.52220245 124.85406977 341.61261278 C124.8759002 344.99073613 125.17169091 347.68676365 126 351 C116.76 351 107.52 351 98 351 C98.20496094 348.04160156 98.40992188 345.08320312 98.62109375 342.03515625 C104.65161502 254.36991825 104.8799756 164.51586916 47.078125 33.32421875 C46.39234375 32.55722656 45.7065625 31.79023437 45 31 C44.41734375 30.34644531 43.8346875 29.69289063 43.234375 29.01953125 C37.77673972 23.24310887 31.19570406 18.39107893 24 15 C24 14.34 24 13.68 24 13 C22.77023437 12.63068359 22.77023437 12.63068359 21.515625 12.25390625 C17.40561515 10.78800274 13.6285066 8.922926 9.75 6.9375 C9.03070312 6.57333984 8.31140625 6.20917969 7.5703125 5.83398438 C5.71188352 4.89258917 3.85577685 3.94661263 2 3 C1.34 2.67 0.68 2.34 0 2 C0 1.34 0 0.68 0 0 Z " fill="#8E8E8E" transform="translate(1171,659)"/>
<path d="M0 0 C10.3957866 7.82642146 17.67770336 17.90739952 24.89355469 28.58544922 C27.39602107 32.2727403 29.95916886 35.91688142 32.52734375 39.55859375 C33.0267749 40.26685303 33.52620605 40.9751123 34.04077148 41.70483398 C55.80327781 72.42187198 80.42085375 95.59289892 112.328125 115.43359375 C114.40234375 116.80859375 114.40234375 116.80859375 116.40234375 118.80859375 C116.47078795 122.36769197 116.26664979 124.81386813 113.875 127.56640625 C107.63096477 133.03158719 102.49537679 133.19900082 94.40234375 132.80859375 C78.16952859 131.23933587 61.99520728 124.81330237 47.40234375 117.80859375 C46.61859375 117.43718262 45.83484375 117.06577148 45.02734375 116.68310547 C29.90723359 109.48038112 15.32173761 101.56121296 2.40234375 90.80859375 C1.83902344 90.38964844 1.27570312 89.97070312 0.6953125 89.5390625 C-16.2646677 76.39209893 -28.18382199 52.74981753 -31.59765625 31.80859375 C-32.5930354 21.5460695 -33.41069096 10.24039128 -26.59765625 1.80859375 C-19.21523689 -6.23465599 -8.88361733 -5.51127753 0 0 Z " fill="#D5D5D5" transform="translate(881.59765625,1261.19140625)"/>
<path d="M0 0 C2.31 0 4.62 0 7 0 C7 65.34 7 130.68 7 198 C-48.61634014 198 -48.61634014 198 -66.23828125 197.81640625 C-68.2989239 197.79629283 -70.35956745 197.77627123 -72.42021179 197.7563324 C-76.62024767 197.71509759 -80.82025991 197.67206532 -85.02026367 197.62768555 C-90.34173827 197.57171585 -95.66325239 197.52181054 -100.98479939 197.47328281 C-105.19147243 197.43405085 -109.39810126 197.39106865 -113.60472679 197.34705925 C-115.56789079 197.32705733 -117.53106786 197.30828905 -119.49425697 197.29092598 C-132.02170805 197.17814523 -144.49483766 196.76266643 -157 196 C-157 194.02 -157 192.04 -157 190 C-155.73285156 190.15855469 -154.46570313 190.31710937 -153.16015625 190.48046875 C-133.45889431 192.64726118 -116.0003715 190.60151981 -98 182 C-96.98808594 181.52046875 -95.97617188 181.0409375 -94.93359375 180.546875 C-78.95418184 172.46893917 -64.48923569 160.67544652 -53 147 C-51.76636719 145.61554688 -51.76636719 145.61554688 -50.5078125 144.203125 C-15.60788717 104.74830392 0.94372327 52.02818964 0 0 Z " fill="#AA6527" transform="translate(1128,1409)"/>
<path d="M0 0 C6.08624564 3.04312282 8.08242485 9.03216341 10.3125 15.1875 C18.2365661 41.13753289 16.96740748 75.99740911 6.46875 101.14453125 C4.58635436 104.53174898 2.65751066 107.79624467 -0.875 109.5625 C-3.75 109.9375 -3.75 109.9375 -6.875 109.5625 C-14.77987314 103.23860149 -14.80519199 87.5772079 -15.94580078 78.23583984 C-17.79409961 61.36465035 -17.35319508 45.00550106 -15.125 28.1875 C-14.96829834 26.99358643 -14.81159668 25.79967285 -14.65014648 24.56958008 C-11.83002096 5.37461931 -11.83002096 5.37461931 -5.875 0.5625 C-2.875 -0.4375 -2.875 -0.4375 0 0 Z " fill="#CFA278" transform="translate(996.875,522.4375)"/>
<path d="M0 0 C6.01111298 3.48691515 10.96066328 8.5623316 14.1875 14.72265625 C17.23567664 26.3057275 16.06777671 38.21581714 10.625 48.97265625 C7.39229197 54.29827252 2.79017921 59.10509651 -3.1875 61.09765625 C-8.44515945 61.49446074 -11.74852842 60.99263771 -16.1875 58.09765625 C-25.02205463 49.47857856 -28.03470005 37.22351744 -28.5 25.22265625 C-28.38979811 19.01127727 -26.76168738 13.07582023 -25.1875 7.09765625 C-24.5275 7.09765625 -23.8675 7.09765625 -23.1875 7.09765625 C-22.98125 6.52015625 -22.775 5.94265625 -22.5625 5.34765625 C-17.66569309 -2.66530051 -7.98753524 -3.29485829 0 0 Z " fill="#D5D5D5" transform="translate(865.1875,923.90234375)"/>
<path d="M0 0 C4.18790197 2.82966349 4.86902554 6.22960773 6 11 C6.2101973 13.75713343 6.33431286 16.37341881 6.3125 19.125 C6.30758545 19.86492187 6.3026709 20.60484375 6.29760742 21.3671875 C6.0536378 32.97763907 3.56362004 43.85073574 -4.375 52.625 C-8.13292791 54.59343843 -9.9677757 54.25137996 -14 53 C-18.20602902 50.57151896 -20.62147995 48.36267218 -21.9375 43.625 C-21.9937977 42.08422075 -22.00696593 40.54179169 -22 39 C-22.04769531 37.7728125 -22.09539063 36.545625 -22.14453125 35.28125 C-22.53393686 22.96133829 -21.06994881 14.77375358 -13.03515625 5.12890625 C-8.80068853 0.69937668 -6.30191213 -0.78773902 0 0 Z " fill="#CFA278" transform="translate(998,1530)"/>
<path d="M0 0 C12.54 0 25.08 0 38 0 C38 6.93 38 13.86 38 21 C-20.08 21 -78.16 21 -138 21 C-138 20.67 -138 20.34 -138 20 C-93.12 20 -48.24 20 -2 20 C-1.67 14.39 -1.34 8.78 -1 3 C-0.67 2.01 -0.34 1.02 0 0 Z " fill="#838383" transform="translate(1269,1014)"/>
<path d="M0 0 C2.76101146 1.82109266 4.52100548 3.04201097 6 6 C6.45914859 10.59148587 6.72130538 13.66979448 3.875 17.4375 C0.65280879 20.30945304 -0.70188068 21.17543344 -5 21 C-9.34608359 18.78434954 -12.1040948 16.52910688 -14 12 C-14.53368563 7.73051497 -14.49446926 5.7581862 -12.125 2.125 C-8.32280389 -1.67719611 -5.0075975 -1.26628902 0 0 Z " fill="#CFA278" transform="translate(998,490)"/>
<path d="M0 0 C0.66 0.66 1.32 1.32 2 2 C1.625 4.625 1.625 4.625 1 7 C-7.27943714 9.95945838 -14.9696194 11.59768399 -23.5 8.6875 C-27 7 -27 7 -29 4 C-28.875 1.4375 -28.875 1.4375 -28 -1 C-20.64010594 -6.08183161 -7.66651398 -3.45309927 0 0 Z " fill="#D5D5D5" transform="translate(1035,1383)"/>
<path d="M0 0 C2.3125 0.875 2.3125 0.875 4.3125 2.875 C4.16892479 6.75153055 3.80341155 9.17369779 1.5625 12.375 C-0.6875 13.875 -0.6875 13.875 -3.25 13.875 C-6.214557 12.65877149 -7.25534475 11.73931051 -8.6875 8.875 C-8.6875 5.28604195 -7.91729065 4.1175568 -5.4375 1.5 C-2.6875 -0.125 -2.6875 -0.125 0 0 Z " fill="#CFA176" transform="translate(989.6875,1510.125)"/>
<path d="M0 0 C21.12 0 42.24 0 64 0 C64 0.33 64 0.66 64 1 C54.76 1.33 45.52 1.66 36 2 C35.67 3.32 35.34 4.64 35 6 C34.34 6.66 33.68 7.32 33 8 C28.44444444 7.44444444 28.44444444 7.44444444 27 6 C27 4.35 27 2.7 27 1 C18.09 1 9.18 1 0 1 C0 0.67 0 0.34 0 0 Z " fill="#F09090" transform="translate(1019,1610)"/>
<path d="M0 0 C2.5625 0.1875 2.5625 0.1875 4.5625 2.1875 C4.6875 4.8125 4.6875 4.8125 4.5625 7.1875 C7.2025 7.1875 9.8425 7.1875 12.5625 7.1875 C12.5625 7.5175 12.5625 7.8475 12.5625 8.1875 C5.6325 8.1875 -1.2975 8.1875 -8.4375 8.1875 C-8.4375 7.8575 -8.4375 7.5275 -8.4375 7.1875 C-6.7875 7.1875 -5.1375 7.1875 -3.4375 7.1875 C-3.458125 6.218125 -3.47875 5.24875 -3.5 4.25 C-3.41863208 0.2629717 -3.41863208 0.2629717 0 0 Z " fill="#FE5454" transform="translate(1051.4375,434.8125)"/>
<path d="M0 0 C0.66 0.33 1.32 0.66 2 1 C1.01 1.66 0.02 2.32 -1 3 C-0.67 2.01 -0.34 1.02 0 0 Z M-3 3 C-2.34 3.33 -1.68 3.66 -1 4 C-3.64 6.64 -6.28 9.28 -9 12 C-9.66 11.67 -10.32 11.34 -11 11 C-9.625 9 -9.625 9 -8 7 C-7.34 7 -6.68 7 -6 7 C-5.67 6.01 -5.34 5.02 -5 4 C-4.34 3.67 -3.68 3.34 -3 3 Z " fill="#656565" transform="translate(843,687)"/>
</svg>
