<svg version="1.1" xmlns="http://www.w3.org/2000/svg" width="495" height="1097" viewBox="787 386 495 1097">
<path d="M0 0 C1.72371871 0.00727815 3.44744598 0.0127241 5.17117596 0.01647997 C8.87382856 0.028342 12.57610507 0.05276406 16.27861691 0.08710337 C22.21054294 0.14205122 28.14240858 0.16949419 34.07453156 0.19294357 C41.29050272 0.22330092 48.50637919 0.26030829 55.72226843 0.30621924 C67.99873426 0.38411105 80.27469077 0.41904401 92.5513916 0.42034912 C93.84717147 0.42055927 93.84717147 0.42055927 95.16912872 0.42077366 C98.64847213 0.42122795 102.12781537 0.42142608 105.60715881 0.42116387 C115.36523047 0.42062846 125.12328421 0.431492 134.88134766 0.4432373 C136.22416558 0.44480521 136.22416558 0.44480521 137.59411114 0.44640478 C163.95039656 0.47736263 190.30665887 0.5253878 216.66291046 0.57727432 C220.72949714 0.58521544 224.79608396 0.59308435 228.8626709 0.60089111 C230.37737934 0.60380317 230.37737934 0.60380317 231.92268795 0.60677406 C248.50802563 0.63823211 265.09334905 0.65491647 281.67871112 0.66656581 C298.88940374 0.67896399 316.10002426 0.70637368 333.31067133 0.74798465 C343.84372593 0.77299246 354.37666119 0.78649836 364.90974593 0.78480116 C372.07005962 0.78477147 379.23024963 0.79934363 386.39051509 0.82553586 C390.51158746 0.84018412 394.632406 0.84838016 398.75349998 0.83917427 C402.52423198 0.8308916 406.29445313 0.84102837 410.06510931 0.8657082 C412.06914388 0.87407688 414.07323092 0.86285514 416.07724714 0.85087323 C423.18806929 0.9188063 427.92892294 1.58814897 433.99108887 5.39337158 C433.99108887 6.05337158 433.99108887 6.71337158 433.99108887 7.39337158 C434.58921387 7.55837158 435.18733887 7.72337158 435.80358887 7.89337158 C438.77537604 9.9311685 439.10368894 12.08690882 440.19812012 15.42462158 C441.24737305 18.02966333 442.92367874 19.53983147 444.99108887 21.39337158 C444.99108887 22.05337158 444.99108887 22.71337158 444.99108887 23.39337158 C445.65108887 23.39337158 446.31108887 23.39337158 446.99108887 23.39337158 C446.99168596 24.16054677 446.99228304 24.92772197 446.99289823 25.71814489 C447.02878547 71.17853766 447.08541414 116.63886397 447.16900982 162.09919533 C447.17902738 167.55662881 447.18887149 173.01406259 447.1986084 178.47149658 C447.20054977 179.55798188 447.20249114 180.64446717 447.20449135 181.76387626 C447.23551969 199.36035369 447.25249433 216.95681809 447.26428309 234.55331773 C447.27669032 252.60647172 447.30418206 270.6595572 447.34570193 288.71266794 C447.37084955 299.85406701 447.38420522 310.99535247 447.38251844 322.13678032 C447.3824887 329.77496204 447.39709983 337.41302797 447.42325315 345.05116457 C447.43791322 349.45920806 447.44608996 353.86701408 447.43689156 358.27507782 C447.42860999 362.31206833 447.43874447 366.34858152 447.46342549 370.38550121 C447.46911338 371.84457356 447.46808699 373.30369109 447.45960131 374.76274985 C447.41669713 382.83235199 447.77808093 388.45155073 451.99108887 395.39337158 C452.3692627 398.66900635 452.3692627 398.66900635 452.19812012 401.83477783 C452.14462402 402.99557861 452.09112793 404.15637939 452.03601074 405.35235596 C451.95931152 406.54151611 451.8826123 407.73067627 451.80358887 408.95587158 C451.71754395 410.7454126 451.71754395 410.7454126 451.62976074 412.57110596 C450.78213269 428.96769596 450.78213269 428.96769596 447.49108887 433.20587158 C445.2973945 436.40965686 444.72279462 438.52232391 444.61608887 442.39337158 C444.3394742 447.57001744 442.46779555 449.77116132 438.90124512 453.38165283 C436.30673859 456.11410858 434.37648292 459.15101458 432.35046387 462.31524658 C431.90187012 463.00102783 431.45327637 463.68680908 430.99108887 464.39337158 C430.57415111 465.08631191 430.15721334 465.77925224 429.72764111 466.49319077 C427.99108887 468.39337158 427.99108887 468.39337158 425.65415668 468.8855629 C424.72775474 468.88187572 423.80135279 468.87818855 422.84687805 468.87438965 C421.78257065 468.87988831 420.71826324 468.88538696 419.6217041 468.89105225 C417.87059326 468.86948059 417.87059326 468.86948059 416.08410645 468.84747314 C414.85471848 468.84805725 413.62533051 468.84864136 412.35868835 468.84924316 C408.98668951 468.84693197 405.61566733 468.82685769 402.24384141 468.79894733 C398.72046673 468.77396082 395.19707937 468.77159387 391.67362976 468.7668457 C385.00123571 468.75440776 378.32910347 468.72157534 371.65682477 468.68144774 C364.06080613 468.63675529 356.46477507 468.6147494 348.86865771 468.594666 C333.24262395 468.55284314 317.61695086 468.47948091 301.99108887 468.39337158 C301.99108887 484.89337158 301.99108887 501.39337158 301.99108887 518.39337158 C289.12108887 518.39337158 276.25108887 518.39337158 262.99108887 518.39337158 C262.99108887 519.38337158 262.99108887 520.37337158 262.99108887 521.39337158 C277.84108887 521.39337158 292.69108887 521.39337158 307.99108887 521.39337158 C308.32108887 522.71337158 308.65108887 524.03337158 308.99108887 525.39337158 C310.22858887 525.51712158 311.46608887 525.64087158 312.74108887 525.76837158 C315.86730857 526.15083463 318.27988124 526.69886681 320.99108887 528.39337158 C320.99108887 529.05337158 320.99108887 529.71337158 320.99108887 530.39337158 C321.79546387 530.70274658 322.59983887 531.01212158 323.42858887 531.33087158 C325.99108887 532.39337158 325.99108887 532.39337158 326.99108887 533.39337158 C327.10221585 534.96316575 327.14403806 536.53791559 327.15844727 538.11157227 C327.16993805 539.13224792 327.18142883 540.15292358 327.19326782 541.20452881 C327.20066986 542.33386841 327.2080719 543.46320801 327.21569824 544.62677002 C327.23278336 546.39984528 327.23278336 546.39984528 327.25021362 548.20874023 C327.28537366 552.14004552 327.31200048 556.07135503 327.33483887 560.00274658 C327.33878473 560.67120511 327.3427306 561.33966364 327.34679604 562.02837849 C327.38322118 568.33119727 327.4146718 574.63402712 327.43590546 580.93691635 C327.46347969 589.00337795 327.51423183 597.06896003 327.59637976 605.1350553 C327.65216016 610.8038878 327.68113985 616.47248164 327.69037867 622.14157891 C327.69663919 625.52862381 327.71478165 628.91463857 327.76176453 632.30138397 C327.80775549 636.08243534 327.80999443 639.86112785 327.80163574 643.64239502 C327.82523163 644.7636377 327.84882751 645.88488037 327.87313843 647.0401001 C327.79427755 654.39303417 327.79427755 654.39303417 325.51893616 657.22687531 C322.09353288 659.85128939 320.42843897 660.39337158 315.99108887 660.39337158 C315.99108887 661.05337158 315.99108887 661.71337158 315.99108887 662.39337158 C306.71227195 665.29300187 297.84836086 665.5339869 288.17858887 665.49102783 C286.96912598 665.48961288 285.75966309 665.48819794 284.5135498 665.48674011 C280.67270372 665.48116868 276.83191717 665.46862142 272.99108887 665.45587158 C270.37780846 665.45085289 267.76452714 665.44629063 265.15124512 665.44219971 C258.764505 665.43206202 252.37780446 665.41330699 245.99108887 665.39337158 C245.99354362 666.00878752 245.99599838 666.62420345 245.99852753 667.25826836 C246.04339431 680.49159235 245.99126333 693.7204938 245.78991699 706.95245361 C245.77962369 707.63118884 245.76933039 708.30992407 245.75872517 709.00922704 C245.71531572 711.85408251 245.67136176 714.698929 245.62682772 717.54376709 C245.16426508 747.09455678 244.86948521 776.64414009 244.70983887 806.19805908 C244.70020994 807.94671893 244.6905664 809.6953787 244.6809082 811.44403839 C244.60348575 825.54135898 244.53198947 839.63870991 244.46502686 853.73608398 C244.41820517 863.59201201 244.36936034 873.44791897 244.31353998 883.3038007 C244.28545976 888.30149826 244.26179453 893.2991899 244.2416153 898.29692531 C244.22827226 901.35518246 244.21087537 904.41340636 244.19230461 907.47163582 C244.18454325 908.88625446 244.17847599 910.30088354 244.1742115 911.71551704 C244.16817898 913.63955725 244.15556117 915.56357349 244.14257812 917.48757935 C244.13742439 918.56252089 244.13227066 919.63746243 244.12696075 920.74497795 C243.99108887 923.39337158 243.99108887 923.39337158 242.99108887 926.39337158 C242.33108887 926.39337158 241.67108887 926.39337158 240.99108887 926.39337158 C240.99108887 929.03337158 240.99108887 931.67337158 240.99108887 934.39337158 C242.31108887 934.72337158 243.63108887 935.05337158 244.99108887 935.39337158 C245.01465666 952.10318105 245.03218344 968.81298496 245.04290104 985.52280712 C245.04801406 993.28492482 245.05495898 1001.04703208 245.06652832 1008.80914307 C245.07663049 1015.59024718 245.08297838 1022.37134372 245.08517736 1029.15245515 C245.0864587 1032.72875904 245.08937436 1036.30504131 245.09681892 1039.88133812 C245.10514519 1043.91555025 245.10507032 1047.94972702 245.10461426 1051.98394775 C245.10820953 1053.11398224 245.11180481 1054.24401672 245.11550903 1055.40829468 C245.09915795 1069.09342925 244.46355168 1082.6919499 243.99108887 1096.39337158 C217.59108887 1096.39337158 191.19108887 1096.39337158 163.99108887 1096.39337158 C162.88889473 1003.37605932 162.88889473 1003.37605932 162.81384277 966.89208984 C162.80797449 964.06429535 162.7975326 961.2365769 162.78308105 958.40881348 C162.7637546 954.53385856 162.76092805 950.65900261 162.76062012 946.78399658 C162.74990227 945.09399033 162.74990227 945.09399033 162.7389679 943.36984253 C162.74352242 941.84283218 162.74352242 941.84283218 162.74816895 940.28497314 C162.74674393 939.40569153 162.74531891 938.52640991 162.74385071 937.6204834 C162.99108887 935.39337158 162.99108887 935.39337158 164.99108887 932.39337158 C165.32452438 929.85129187 165.32452438 929.85129187 164.99108887 927.39337158 C164.33108887 926.73337158 163.67108887 926.07337158 162.99108887 925.39337158 C162.12212343 921.48213448 161.86112903 917.7190575 161.83959961 913.7217865 C161.83125815 912.61178882 161.8229167 911.50179113 161.81432247 910.35815716 C161.81013585 909.15121102 161.80594923 907.94426489 161.80163574 906.70074463 C161.79332261 905.41329 161.78500948 904.12583536 161.77644444 902.79936695 C161.7583403 899.98701566 161.74329399 897.17467033 161.73060799 894.36228943 C161.71014342 889.8276559 161.682965 885.29307656 161.65501404 880.75848389 C161.61558699 874.2518956 161.57932416 867.74529645 161.54525757 861.23867798 C161.49196533 851.08423783 161.43210282 840.92984287 161.37023926 830.77545166 C161.36254766 829.51293455 161.36254766 829.51293455 161.35470068 828.22491205 C161.32871813 823.96665015 161.30260457 819.70838907 161.2763958 815.45012856 C161.25536036 812.02927089 161.2345642 808.60841189 161.21397591 805.1875515 C161.01999553 772.98457174 160.74957499 740.78284932 160.42858887 708.58087158 C160.40611614 706.31031302 160.38365511 704.03975435 160.36120605 701.76919556 C160.24104874 689.64388722 160.11802713 677.51861082 159.99108887 665.39337158 C159.2563736 665.38750534 158.52165833 665.3816391 157.76467896 665.37559509 C150.84851185 665.31774704 143.9326231 665.24571619 137.01677895 665.15765667 C133.46103801 665.11288432 129.90541346 665.07364396 126.3494873 665.04693604 C122.26357737 665.0160072 118.1782934 664.96121655 114.09265137 664.90509033 C112.81242096 664.89870041 111.53219055 664.89231049 110.21316528 664.88572693 C109.03209198 664.86593277 107.85101868 664.84613861 106.63415527 664.82574463 C105.59046783 664.81464157 104.5467804 664.80353851 103.47146606 664.792099 C102.65294159 664.66051895 101.83441711 664.5289389 100.99108887 664.39337158 C100.00108887 662.90837158 100.00108887 662.90837158 98.99108887 661.39337158 C96.54902763 660.51878763 96.54902763 660.51878763 93.74108887 659.95587158 C88.99808433 658.77323266 85.77198009 657.47778284 81.99108887 654.39337158 C80.77240882 651.9560115 80.85727556 650.3803763 80.84391785 647.65534973 C80.83676254 646.65565155 80.82960724 645.65595337 80.82223511 644.6259613 C80.8195462 643.52512711 80.8168573 642.42429291 80.81408691 641.2901001 C80.80751572 640.13395203 80.80094452 638.97780396 80.79417419 637.78662109 C80.77441065 633.94850609 80.76277355 630.1104302 80.75280762 626.27227783 C80.74873209 624.96498152 80.74465656 623.6576852 80.74045753 622.31077385 C80.72140869 616.10911206 80.70717527 609.90746217 80.69884557 603.70577675 C80.68906437 596.5414335 80.66272106 589.37739849 80.62234467 582.21316391 C80.59221978 576.67851258 80.57738029 571.14394981 80.57406455 565.60921806 C80.57171043 562.30190213 80.56074367 558.9949918 80.53760338 555.68774605 C80.51340052 552.00025632 80.51414244 548.31358149 80.52111816 544.6260376 C80.50830811 543.52722763 80.49549805 542.42841766 80.4822998 541.29631042 C80.48924362 540.29379242 80.49618744 539.29127441 80.50334167 538.25837708 C80.50095332 537.38619317 80.49856497 536.51400927 80.49610424 535.61539555 C80.99108887 533.39337158 80.99108887 533.39337158 82.83407307 531.58930874 C84.99108887 530.39337158 84.99108887 530.39337158 87.99108887 530.39337158 C87.99108887 529.73337158 87.99108887 529.07337158 87.99108887 528.39337158 C91.3620627 526.89516099 93.19551006 526.39337158 96.99108887 526.39337158 C96.99108887 525.07337158 96.99108887 523.75337158 96.99108887 522.39337158 C113.16108887 522.39337158 129.33108887 522.39337158 145.99108887 522.39337158 C145.66108887 521.40337158 145.33108887 520.41337158 144.99108887 519.39337158 C127.66608887 518.89837158 127.66608887 518.89837158 109.99108887 518.39337158 C109.66108887 502.22337158 109.33108887 486.05337158 108.99108887 469.39337158 C105.20261475 469.45210449 101.41414062 469.5108374 97.51086426 469.5713501 C84.94221941 469.75363432 72.37434987 469.84201621 59.80451298 469.88302708 C52.18875516 469.91013499 44.57573887 469.96847793 36.96105957 470.10308838 C30.31578488 470.22047968 23.67315254 470.27648283 17.02681154 470.26190895 C13.51334647 470.25626674 10.00583829 470.27920921 6.49357796 470.37597847 C-17.59895894 471.00687365 -17.59895894 471.00687365 -27.03588963 462.49457455 C-36.75129184 452.48695463 -36.75129184 452.48695463 -37.25891113 444.95587158 C-37.19292725 443.99358643 -37.12694336 443.03130127 -37.05895996 442.03985596 C-36.99917709 438.87865462 -37.75434077 437.72976933 -39.45812988 435.11212158 C-42.94997692 428.524252 -42.72727655 421.8629337 -42.60583496 414.60699463 C-42.57140939 412.33075656 -42.58525046 410.05839231 -42.60461426 407.78204346 C-42.59771605 406.30741788 -42.58804387 404.83280213 -42.57531738 403.35821533 C-42.56444092 402.04458008 -42.55356445 400.73094482 -42.5423584 399.37750244 C-42.31908409 396.26611872 -41.50156434 394.28658073 -40.00674534 391.56799507 C-37.07992481 385.12679791 -37.45897547 378.56051711 -37.51011658 371.61526489 C-37.50638552 370.11930328 -37.50089274 368.6233452 -37.49379975 367.12739575 C-37.47939765 363.03374239 -37.48968909 358.94047157 -37.5040828 354.84683204 C-37.51522277 350.42552707 -37.50319545 346.00427802 -37.49389648 341.58297729 C-37.48081965 333.92689385 -37.48196035 326.27091963 -37.49249077 318.61483383 C-37.50744301 307.53788142 -37.4975065 296.46105692 -37.48097158 285.38411178 C-37.45452408 267.40135509 -37.44365121 249.41862713 -37.44470215 231.43585205 C-37.44478963 229.82233676 -37.44478963 229.82233676 -37.44487888 228.1762252 C-37.44514474 223.81752676 -37.44546203 219.45882833 -37.44584214 215.10012989 C-37.44680877 203.09680252 -37.44547994 191.09347601 -37.44274902 179.09014893 C-37.44250913 178.01517886 -37.44226924 176.94020879 -37.44202208 175.83266388 C-37.43761671 157.91372438 -37.42138946 139.99481157 -37.39752823 122.0758878 C-37.38345304 111.02524452 -37.38058167 99.97470261 -37.39215112 88.92405583 C-37.39946956 81.35561788 -37.39642039 73.78723105 -37.38519268 66.21879803 C-37.37911539 61.85134288 -37.37804243 57.4840307 -37.39006996 53.11658478 C-37.40101474 49.11834241 -37.39821579 45.12035366 -37.3845265 41.12212195 C-37.38203115 39.67611131 -37.38461392 38.23008108 -37.39280038 36.78409146 C-37.46337374 23.4571799 -37.46337374 23.4571799 -34.00891113 17.39337158 C-33.34891113 17.39337158 -32.68891113 17.39337158 -32.00891113 17.39337158 C-31.96766113 16.73337158 -31.92641113 16.07337158 -31.88391113 15.39337158 C-30.19566748 9.60510762 -26.88052287 5.67437399 -21.94330597 2.29515457 C-15.17464604 -0.97244392 -7.3378787 -0.09439571 0 0 Z " fill="#090909" transform="translate(830.0089111328125,386.60662841796875)"></path>
<path d="M0 0 C2.6344149 2.6344149 3.37369087 5.61764609 4.5625 9.0625 C16.12727718 41.09364941 38.65326517 66.4110685 66 86 C66.64227539 86.46035645 67.28455078 86.92071289 67.94628906 87.39501953 C82.0080668 97.35697202 96.97300252 104.87843221 112.98168945 111.17382812 C115.1135837 112.04649416 117.19960103 112.99585048 119.29296875 113.95703125 C137.50880524 122.10806379 157.45033837 126.47586745 177 130 C178.72524902 130.31759277 178.72524902 130.31759277 180.48535156 130.64160156 C213.32981621 136.43876441 249.13552388 136.68601926 282 131 C283.21316895 130.80132324 284.42633789 130.60264648 285.67626953 130.39794922 C302.35351845 127.62567586 318.35684618 123.80411959 334.26269531 117.98925781 C336.96281806 117.0134375 339.67519042 116.08876123 342.3984375 115.1796875 C357.08725346 110.25412119 370.5850326 103.84644178 384.25 96.5625 C385.24418945 96.0370459 386.23837891 95.5115918 387.26269531 94.97021484 C396.79128101 89.81351262 405.30815021 83.44861712 413.7890625 76.73828125 C415.22500935 75.60931244 416.67757627 74.50105747 418.1484375 73.41796875 C443.66621722 54.12722401 460.16395241 28.81735187 473 0 C473.33 0 473.66 0 474 0 C476.20533203 85.56688283 451.73348764 175.54536973 382 268 C381.52385254 268.53786133 381.04770508 269.07572266 380.55712891 269.62988281 C368.58055787 283.13339578 355.45485228 295.19802825 341 306 C340.45053711 306.41701172 339.90107422 306.83402344 339.33496094 307.26367188 C293.31235152 342.07251274 239.25724003 355.2272429 182.43530273 355.11352539 C180.40073429 355.11321827 178.36616573 355.11335388 176.33159733 355.11389065 C170.93538306 355.11411429 165.53919145 355.10836345 160.14298248 355.10128021 C155.05955441 355.09554013 149.97613156 355.09531465 144.8927002 355.09460449 C130.07429719 355.08937934 115.2558983 355.07541807 100.4375 355.0625 C67.293125 355.041875 34.14875 355.02125 0 355 C0 237.85 0 120.7 0 0 Z " fill="#AEAEAE" transform="translate(797,415)"></path>
<path d="M0 0 C0.88154898 -0.00156247 1.76309796 -0.00312494 2.67136055 -0.00473475 C5.64823337 -0.00874992 8.62505545 -0.00555938 11.60192871 -0.00241089 C13.74292498 -0.00372983 15.88392103 -0.00547084 18.02491665 -0.00760078 C23.90926681 -0.01210649 29.79360015 -0.01020821 35.67795062 -0.00716496 C40.68758658 -0.0053689 45.69721835 -0.00724988 50.70685405 -0.00917959 C67.05438499 -0.01542533 83.40189839 -0.00967537 99.74942636 -0.00039959 C103.27809135 0.00160214 106.8067564 0.00343932 110.33542151 0.00521564 C136.76491674 0.01853487 163.19440619 0.03694055 189.62388611 0.06878662 C190.33974706 0.06964855 191.05560802 0.07051049 191.79316173 0.07139854 C198.26193741 0.07921189 204.73071295 0.08714428 211.19948828 0.09524226 C231.22898695 0.12020997 251.25844704 0.13169158 271.28796387 0.13284302 C292.15585646 0.13423251 313.02359325 0.156812 333.89142036 0.21047401 C344.51242139 0.23734206 355.13323503 0.25475464 365.75427246 0.24655151 C374.70023714 0.23970477 383.64587686 0.2528544 392.59175867 0.29321909 C397.10107708 0.3129891 401.60987298 0.32333802 406.11921883 0.30744171 C410.21095659 0.29323203 414.30164018 0.30652605 418.39324093 0.34194398 C419.86534145 0.34986141 421.33753858 0.34772084 422.80959988 0.33437324 C430.42518253 0.2709511 436.13706756 0.34209043 442.07542324 5.45103264 C445.7510142 9.78002373 446.16875734 13.92242266 446.06091309 19.46292114 C441.91206834 46.4880348 416.02522395 75.52704094 395.49841309 92.12698364 C394.44724762 93.01324688 393.39650724 93.90001443 392.34606934 94.78713989 C383.27775018 102.34262344 373.69269768 108.74259834 363.60192871 114.85061646 C361.83340062 115.92372055 360.07830739 117.01892195 358.32653809 118.11917114 C295.0938948 156.88042423 208.42601585 164.10513948 137.27185059 147.79104614 C98.89197032 138.53748549 64.58704942 123.53926143 33.23864746 99.45608521 C31.74838136 98.31789656 30.24210539 97.20072288 28.73278809 96.08792114 C24.32568346 92.8050779 20.73728249 89.35688474 17.22497559 85.13088989 C15.52037269 83.1524707 13.71620286 81.41074259 11.81091309 79.62698364 C-4.00752794 63.83902131 -20.07790748 40.02489182 -21.00158691 17.18948364 C-20.82248409 12.06343736 -20.13668196 8.95857031 -16.50158691 5.12698364 C-11.13557549 0.28448553 -6.99692124 -0.01886937 0 0 Z " fill="#828080" transform="translate(821.5015869140625,391.8730163574219)"></path>
<path d="M0 0 C2.34870787 1.79455999 2.95603065 2.68589858 3.37259549 5.66168994 C3.37145633 6.74503204 3.37031717 7.82837414 3.36914349 8.94454479 C3.3751161 10.19448286 3.38108871 11.44442093 3.38724232 12.73223591 C3.37868554 14.12611366 3.36984936 15.51998973 3.36076355 16.91386414 C3.36207529 18.38543871 3.36470507 19.85701261 3.36854553 21.32858276 C3.37529591 25.39056931 3.36320528 29.45232003 3.34821819 33.51427661 C3.33515482 37.95496327 3.3394996 42.39563838 3.34167194 46.836339 C3.34326954 55.46367818 3.32939217 64.09092399 3.31016796 72.71823915 C3.28860357 82.69355709 3.28618567 92.66881862 3.28381348 102.64416504 C3.26804988 128.9919582 3.22616671 155.33973049 3.1875 181.6875 C3.125625 240.530625 3.06375 299.37375 3 360 C-120.75 360 -244.5 360 -372 360 C-372 359.67 -372 359.34 -372 359 C-370.7901796 358.99191315 -369.58035919 358.98382629 -368.33387756 358.97549438 C-356.81883827 358.89732414 -345.30390696 358.80942007 -333.78901005 358.71247292 C-327.87197683 358.66295543 -321.95495774 358.61662961 -316.0378418 358.578125 C-310.30591577 358.54069924 -304.57412298 358.49420206 -298.84231377 358.44193649 C-296.67757999 358.42369129 -294.51281801 358.40847899 -292.34803963 358.39665604 C-272.52788532 358.28474513 -252.34756687 357.8460198 -232.875 353.8125 C-231.81063721 353.59819336 -230.74627441 353.38388672 -229.6496582 353.16308594 C-186.53457435 344.12658871 -146.71218199 323.21141672 -114.4609375 293.27734375 C-112.26040554 291.24097846 -110.02271297 289.26738147 -107.75 287.3125 C-101.2944769 281.68528231 -95.51131336 275.54658769 -90 269 C-89.55414551 268.47325684 -89.10829102 267.94651367 -88.64892578 267.40380859 C-60.3773393 233.84694685 -39.6210094 195.29715304 -25 154 C-24.46898682 152.50581543 -24.46898682 152.50581543 -23.92724609 150.98144531 C-7.69522911 104.59337236 0.2632564 54.39297405 -1.06591797 5.27954102 C-1 3 -1 3 0 0 Z " fill="#7D7D7D" transform="translate(1271,411)"></path>
<path d="M0 0 C25.74 0 51.48 0 78 0 C78 34.78951858 78 34.78951858 77.87307739 51.96157837 C77.86389408 53.21916584 77.85471077 54.47675331 77.84524918 55.77244949 C77.83573101 57.06828335 77.82621284 58.3641172 77.81640625 59.69921875 C77.80161737 61.77277289 77.78697353 63.84632802 77.77233958 65.91988325 C77.71530789 73.99466295 77.65607482 82.06942549 77.59614182 90.14418411 C77.56794071 93.94557433 77.54010459 97.74696711 77.51238817 101.54836088 C77.13204858 153.70071147 76.61768558 205.84968854 76 258 C51.58 258 27.16 258 2 258 C1.74411841 228.74273082 1.48902673 199.4854551 1.23563546 170.22816426 C1.20560113 166.76042649 1.17555739 163.29268881 1.14550781 159.82495117 C1.13653597 158.78956795 1.13653597 158.78956795 1.12738287 157.7332679 C1.03098823 146.6115599 0.93383349 135.48985868 0.83638918 124.36815984 C0.73614043 112.92441046 0.63674463 101.48065396 0.53806591 90.03689092 C0.48272933 83.62255609 0.42702505 77.20822497 0.37039185 70.79390144 C0.31691507 64.73568501 0.26448584 58.67746035 0.21280289 52.61922836 C0.19383013 50.41568491 0.1744999 48.2121445 0.15475082 46.00860786 C0.14556751 44.98177328 0.1363842 43.9549387 0.12692261 42.89698792 C0.11890562 42.0134495 0.11088863 41.12991108 0.10262871 40.21959877 C-0.00368517 26.8107826 0 13.41122229 0 0 Z " fill="#828080" transform="translate(994,1051)"></path>
<path d="M0 0 C-0.33 37.29 -0.66 74.58 -1 113 C-16.44285253 117.75164693 -16.44285253 117.75164693 -23.375 119.1875 C-24.18171143 119.35475586 -24.98842285 119.52201172 -25.81958008 119.69433594 C-33.21636896 121.15748517 -40.45330674 121.81475566 -48 122 C-49.25941406 122.03996094 -50.51882813 122.07992188 -51.81640625 122.12109375 C-65.81310177 122.35738355 -79.54272715 120.87878735 -93.25 118.0625 C-94.02384033 117.90491211 -94.79768066 117.74732422 -95.5949707 117.58496094 C-96.33191162 117.42415039 -97.06885254 117.26333984 -97.828125 117.09765625 C-98.4665332 116.95851807 -99.10494141 116.81937988 -99.76269531 116.67602539 C-102.96393681 115.70873625 -105.94141867 114.35155731 -109 113 C-109.3013206 94.20415841 -109.5773364 75.40821236 -109.81471252 56.6114502 C-109.91906048 48.45117226 -110.0454578 40.29221036 -110.21432495 32.13294983 C-110.29302145 28.11815161 -110.34875746 24.10331209 -110.39697266 20.08804321 C-110.4238734 18.28721281 -110.46137894 16.48650793 -110.50976562 14.68612671 C-110.57435564 12.23554112 -110.60251358 9.7872364 -110.62109375 7.3359375 C-110.64888412 6.63820724 -110.6766745 5.94047699 -110.70530701 5.22160339 C-110.69702148 3.29052734 -110.69702148 3.29052734 -110 0 C-83.89901046 -21.60821439 -28.16780519 -12.51902453 0 0 Z " fill="#AEAEAE" transform="translate(1090,924)"></path>
<path d="M0 0 C2.55602062 2.23307194 4.96168311 4.55144563 7.34765625 6.96484375 C8.14300781 7.73828125 8.93835937 8.51171875 9.7578125 9.30859375 C15.77182547 15.49328822 19.27858896 21.93805236 22.34765625 29.96484375 C22.68796875 30.78984375 23.02828125 31.61484375 23.37890625 32.46484375 C28.39869695 46.96646133 26.56302469 64.20839116 20.34765625 77.96484375 C19.97511719 78.79886719 19.60257813 79.63289062 19.21875 80.4921875 C11.76565358 95.26853546 -1.18651556 106.33687762 -16.65234375 111.96484375 C-22.92418193 114.00963483 -29.07787483 115.43464464 -35.65234375 115.96484375 C-36.30074219 116.01769531 -36.94914062 116.07054687 -37.6171875 116.125 C-53.85822312 116.82061233 -70.31485131 110.29912305 -82.640625 99.8515625 C-96.50264265 86.8508741 -103.54755248 71.4319215 -104.90234375 52.46484375 C-104.63381943 37.06944913 -98.97980727 23.00499241 -89.65234375 10.96484375 C-89.03488281 10.13726563 -88.41742187 9.3096875 -87.78125 8.45703125 C-66.59342006 -16.34633665 -25.56786621 -19.618348 0 0 Z " fill="#28170B" transform="translate(1073.65234375,585.03515625)"></path>
<path d="M0 0 C24.42 0 48.84 0 74 0 C74 50.82 74 101.64 74 154 C36.66452934 155.16673346 36.66452934 155.16673346 22.1237793 155.13037109 C19.44900416 155.124762 16.77438107 155.13051112 14.09960938 155.13671875 C12.38020797 155.13606155 10.66080665 155.13478793 8.94140625 155.1328125 C7.75448936 155.13584885 7.75448936 155.13584885 6.54359436 155.13894653 C1.1150974 155.1150974 1.1150974 155.1150974 0 154 C-0.096708 152.01305149 -0.12187052 150.02260987 -0.12025452 148.03330994 C-0.12162918 146.73615555 -0.12300385 145.43900116 -0.12442017 144.10253906 C-0.12088055 142.6516111 -0.11724573 141.20068337 -0.11352539 139.74975586 C-0.11324353 138.23238629 -0.11340123 136.71501658 -0.1139679 135.19764709 C-0.11425591 131.06559484 -0.10835858 126.93357137 -0.10139394 122.80152583 C-0.09516102 118.48801108 -0.09455665 114.17449573 -0.09336853 109.86097717 C-0.09025503 101.68699883 -0.08204139 93.51303379 -0.07201904 85.33906132 C-0.05877341 74.29760874 -0.05335815 63.25615254 -0.04751682 52.21469402 C-0.03810151 34.80978604 -0.01818272 17.40490614 0 0 Z " fill="#828080" transform="translate(997,1325)"></path>
<path d="M0 0 C0.79978995 0.00090102 1.59957991 0.00180204 2.42360592 0.00273037 C3.3523937 0.00141424 4.28118149 0.00009811 5.23811436 -0.0012579 C6.28295679 0.00251047 7.32779922 0.00627884 8.40430355 0.0101614 C10.08342862 0.01045125 10.08342862 0.01045125 11.79647541 0.01074696 C14.9924045 0.0126814 18.1882844 0.01940478 21.38420081 0.02821136 C24.19414204 0.03519775 27.00408352 0.03855275 29.81403095 0.04202634 C40.94238473 0.05620648 52.07067336 0.08925315 63.19898129 0.12319851 C65.27383835 0.12939547 67.34869542 0.13558788 69.42355251 0.14177608 C98.52730384 0.22936802 127.63095067 0.3390318 156.7345705 0.4625597 C159.3235375 0.47354712 161.9125045 0.48453153 164.50147152 0.49551296 C166.42935117 0.50369279 166.42935117 0.50369279 168.39617789 0.51203787 C178.89049596 0.55622042 189.38482747 0.59610806 199.87916559 0.63519043 C210.17477869 0.67376388 220.47037487 0.71569793 230.76596457 0.76007706 C236.84258382 0.78619997 242.91920066 0.81103653 248.99583912 0.83227253 C291.91696433 0.98459019 291.91696433 0.98459019 311.04752362 1.46266091 C312.51920587 1.49907172 313.99096336 1.53257612 315.46278274 1.56294239 C317.43255158 1.60527503 319.40198898 1.66229591 321.37135983 1.72025967 C323.00204828 1.76437025 323.00204828 1.76437025 324.66567993 1.80937195 C327.19898129 2.12319851 327.19898129 2.12319851 329.19898129 4.12319851 C329.42603207 6.92056179 329.42603207 6.92056179 329.39429379 10.44351101 C329.38784847 11.70034695 329.38140316 12.95718288 329.37476254 14.25210476 C329.35800472 15.5708157 329.34124691 16.88952663 329.32398129 18.24819851 C329.31395111 19.58803572 329.30482532 20.92788003 329.29663754 22.26772976 C329.27300204 25.55306423 329.24005363 28.83804316 329.19898129 32.12319851 C326.60203115 33.42167358 324.72714284 33.24856638 321.81756401 33.24903965 C320.0934602 33.25295127 320.0934602 33.25295127 318.334526 33.25694191 C317.06091182 33.25471119 315.78729763 33.25248047 314.47508907 33.25018215 C313.11701591 33.25133338 311.75894306 33.25292092 310.40087086 33.2549094 C306.65619399 33.25910237 302.91154245 33.25701217 299.16686547 33.25392318 C295.13344053 33.2516692 291.10002009 33.25514867 287.06659603 33.2579031 C279.16034548 33.26235968 271.2541044 33.26138486 263.34785347 33.25849046 C256.92532988 33.25623615 250.50280895 33.25592402 244.08028507 33.25701427 C243.16775093 33.25716751 242.25521678 33.25732074 241.31503009 33.25747862 C239.46150588 33.25779833 237.60798168 33.25812254 235.75445748 33.25845121 C218.35688262 33.26130563 200.95931303 33.25801948 183.56173903 33.25265084 C168.61733082 33.24818209 153.67293037 33.2489594 138.7285223 33.2535696 C121.39353735 33.25891474 104.05855702 33.26103174 86.72357136 33.25795734 C84.87700148 33.25763877 83.03043161 33.2573244 81.18386173 33.25701427 C80.27520014 33.25686 79.36653855 33.25670572 78.43034176 33.25654677 C72.01123986 33.25568149 65.59214088 33.25714472 59.17303944 33.25949383 C51.35655421 33.26229132 43.54007903 33.26155462 35.72359496 33.25621308 C31.73165127 33.25357549 27.73972438 33.25257199 23.7477808 33.25586224 C20.09937933 33.25882397 16.45101033 33.25723446 12.80261184 33.25188468 C10.84497226 33.25022379 8.88733045 33.25351913 6.92969316 33.25694191 C5.78289837 33.25433417 4.63610357 33.25172642 3.45455742 33.24903965 C2.45659738 33.2488773 1.45863733 33.24871495 0.43043607 33.24854767 C-1.80101871 33.12319851 -1.80101871 33.12319851 -2.80101871 32.12319851 C-2.90122801 29.84372059 -2.93183175 27.56112716 -2.93383121 25.27944851 C-2.93478794 24.59515774 -2.93574467 23.91086697 -2.93673038 23.20584011 C-2.93741201 21.75657974 -2.93555894 20.30731633 -2.93138981 18.85806179 C-2.92604124 16.63256923 -2.93133531 14.4072785 -2.93773746 12.18179226 C-2.93707668 10.77684389 -2.93579551 9.37189566 -2.93383121 7.96694851 C-2.93270329 6.6798196 -2.93157536 5.3926907 -2.93041325 4.06655788 C-2.75994086 0.18879348 -2.75994086 0.18879348 0 0 Z " fill="#555555" transform="translate(871.8010187149048,403.8768014907837)"></path>
<path d="M0 0 C1.06355713 0.54446777 2.12711426 1.08893555 3.22290039 1.64990234 C4.0246167 2.0670752 4.82633301 2.48424805 5.65234375 2.9140625 C5.65983005 10.20220974 5.66043373 17.49034404 5.65582848 24.77849293 C5.65330411 28.89117015 5.65243997 33.00383831 5.6541748 37.11651611 C5.65720697 47.71067147 5.63497806 58.3042793 5.57206345 68.89826393 C5.54264354 73.99244487 5.52512284 79.08614831 5.53222656 84.18041992 C5.53879774 89.19383175 5.51653198 94.20634642 5.47378922 99.21957207 C5.46268351 101.11138146 5.4619349 103.00328209 5.47192001 104.89509773 C5.48403029 107.51450291 5.45915986 110.13108727 5.42529297 112.75024414 C5.43751389 113.52251846 5.4497348 114.29479279 5.46232605 115.09046936 C5.41183472 117.24940491 5.41183472 117.24940491 4.65234375 120.9140625 C-4.33364206 128.45184459 -15.79476392 128.91391084 -27.02832031 128.17724609 C-36.17189226 127.1396913 -49.76739397 123.49432478 -56.34765625 116.9140625 C-56.44292331 115.28855035 -56.46649671 113.65881502 -56.46289062 112.03051758 C-56.46228638 110.95476974 -56.46168213 109.87902191 -56.46105957 108.77067566 C-56.45457397 107.56631363 -56.44808838 106.3619516 -56.44140625 105.12109375 C-56.43782104 103.84820999 -56.43423584 102.57532623 -56.43054199 101.26387024 C-56.3667015 83.01521572 -56.11335873 64.76716116 -55.88409424 46.52001953 C-55.82247032 41.58432572 -55.76289767 36.64860714 -55.703125 31.71289062 C-55.5865826 22.11325671 -55.46786188 12.51365119 -55.34765625 2.9140625 C-53.2639717 2.10254707 -51.17931082 1.29353822 -49.09423828 0.4855957 C-47.93344757 0.03481155 -46.77265686 -0.4159726 -45.57669067 -0.88041687 C-30.67752666 -6.44283809 -14.36079165 -7.4036977 0 0 Z " fill="#AEAEAE" transform="translate(1148.34765625,919.0859375)"></path>
<path d="M0 0 C61.05 0 122.1 0 185 0 C185 13.86 185 27.72 185 42 C163.6190042 42.0229965 142.24143771 41.94428523 120.86110163 41.79807091 C116.62516911 41.76932034 112.38922906 41.74172448 108.15328979 41.71398926 C100.18569087 41.66165379 92.21809891 41.60832828 84.25050914 41.5546174 C75.15688402 41.49336617 66.0632514 41.4332638 56.96961808 41.37324238 C38.31307025 41.25007716 19.65653317 41.12536828 1 41 C0.67 27.47 0.34 13.94 0 0 Z " fill="#828080" transform="translate(943,854)"></path>
<path d="M0 0 C0.88171875 -0.01611328 1.7634375 -0.03222656 2.671875 -0.04882812 C10.19891832 -0.05434649 17.27706359 1.08054239 23.625 5.3125 C23.99414349 7.40144539 23.99414349 7.40144539 23.98576355 10.03274536 C23.98988754 11.02836487 23.99401154 12.02398438 23.9982605 13.04977417 C23.98747467 14.14597076 23.97668884 15.24216736 23.96557617 16.37158203 C23.96623329 18.0984021 23.96623329 18.0984021 23.96690369 19.86010742 C23.96480705 23.68034596 23.9414342 27.50015026 23.91796875 31.3203125 C23.91237592 33.96304077 23.90810435 36.60577215 23.90510559 39.24850464 C23.89577235 45.5029732 23.87114145 51.75728489 23.84105712 58.0116843 C23.80755274 65.13128287 23.79103711 72.25088883 23.77597082 79.37054658 C23.74459289 94.0179454 23.69180767 108.6652205 23.625 123.3125 C22.03512909 124.12100155 20.44367499 124.92639034 18.8515625 125.73046875 C17.5224585 126.40372192 17.5224585 126.40372192 16.16650391 127.09057617 C4.70417411 132.6015234 -8.85968573 131.41583379 -20.60546875 127.48046875 C-21.51941406 127.09503906 -22.43335938 126.70960937 -23.375 126.3125 C-24.68062141 125.87383858 -24.68062141 125.87383858 -26.01261902 125.42631531 C-28.85061539 122.88692805 -28.76588988 122.22783938 -28.97627258 118.54792786 C-28.99082188 116.47313471 -28.97735362 114.39803985 -28.94262695 112.32348633 C-28.94335709 111.19163406 -28.94408722 110.0597818 -28.94483948 108.89363098 C-28.94134934 105.14344764 -28.90241789 101.39449826 -28.86328125 97.64453125 C-28.85395828 95.04807718 -28.84683974 92.45161432 -28.84184265 89.85514832 C-28.82468697 83.71388488 -28.78526063 77.57313253 -28.7350952 71.43206185 C-28.67922236 64.44065252 -28.65172055 57.44922204 -28.62661803 50.45764506 C-28.57434464 36.07569117 -28.48638961 21.69411137 -28.375 7.3125 C-26.79296793 6.50259832 -25.20870959 5.69704446 -23.62353516 4.89331055 C-22.74154449 4.4442485 -21.85955383 3.99518646 -20.95083618 3.53251648 C-14.11325666 0.29397213 -7.47815747 -0.02709477 0 0 Z " fill="#AEAEAE" transform="translate(943.375,914.6875)"></path>
<path d="M0 0 C0.9601555 0.00002787 1.92031099 0.00005574 2.90956211 0.00008446 C27.57437395 0.00102129 52.23917853 0.01160263 76.90398598 0.02562964 C91.21072987 0.03367421 105.51747309 0.03905731 119.82421875 0.04272461 C120.84621616 0.04298733 121.86821357 0.04325006 122.92118061 0.04352074 C128.05326262 0.04482671 133.18534465 0.04609019 138.31742668 0.04733264 C180.23245465 0.05753405 222.14747702 0.07499335 264.0625 0.09765625 C261.42578125 4.8828125 261.42578125 4.8828125 260.0625 7.09765625 C259.56919563 7.97709589 259.56919563 7.97709589 259.06592551 8.87430199 C256.8391044 12.48784497 255.86163353 13.89294297 251.61478657 14.98085374 C250.26452434 15.02033455 248.91281118 15.0216142 247.56228542 14.9925108 C246.81216182 15.00418286 246.06203821 15.01585493 245.28918359 15.0278807 C242.76652368 15.05852916 240.2467228 15.03920357 237.72398376 15.02018738 C235.90091301 15.03183018 234.07785952 15.04650909 232.25483519 15.06396848 C227.23815364 15.10298262 222.22231977 15.09809814 217.20553601 15.08602417 C211.79759867 15.08049021 206.38989625 15.11504036 200.98205566 15.14427185 C190.38337319 15.19474657 179.78498479 15.20651361 169.18619525 15.20350846 C160.5703419 15.20137007 151.95458118 15.21102015 143.33874702 15.22905922 C116.25171766 15.28468253 89.16497297 15.29910721 62.07789589 15.28245518 C40.71092159 15.27031347 19.34467561 15.32208541 -2.02213974 15.40243836 C-23.95821388 15.48428995 -45.89396059 15.52151711 -67.8301906 15.51141053 C-80.14697585 15.50658942 -92.46311829 15.51981668 -104.7797718 15.58037376 C-115.26891589 15.63152487 -125.7570755 15.64084765 -136.24626697 15.59626516 C-141.59718163 15.57469104 -146.94625267 15.57231263 -152.29701805 15.62232971 C-157.20037053 15.6676628 -162.10038083 15.65714139 -167.00361424 15.60295395 C-168.77285221 15.59305713 -170.54234618 15.60323305 -172.31130827 15.6360059 C-180.71926851 15.78116081 -187.06591437 15.70117585 -193.45898378 9.7496786 C-199.9375 3.01114372 -199.9375 3.01114372 -199.9375 1.09765625 C-133.29104577 0.26928065 -66.65095523 -0.00267594 0 0 Z " fill="#545454" transform="translate(1000.9375,836.90234375)"></path>
<path d="M0 0 C160.05 0 320.1 0 485 0 C485 3.96 485 7.92 485 12 C439.35041333 12.16953169 393.70080632 12.33301118 348.0511781 12.49095565 C345.44562758 12.49997188 342.84007711 12.50899877 340.23452663 12.51802588 C251.03132063 12.82685913 161.82886973 13.10296439 72.625 13.0625 C71.17739233 13.06186365 71.17739233 13.06186365 69.70054007 13.06121445 C46.46701426 13.05081537 23.2335067 13.03180775 0 13 C0 8.71 0 4.42 0 0 Z " fill="#555555" transform="translate(792,799)"></path>
<path d="M0 0 C1.051875 0.78375 2.10375 1.5675 3.1875 2.375 C3.1875 3.035 3.1875 3.695 3.1875 4.375 C2.23875 4.643125 1.29 4.91125 0.3125 5.1875 C-3.06517273 6.12486588 -3.06517273 6.12486588 -4.8125 9.375 C-4.73082511 12.94676115 -4.73082511 12.94676115 -3.8125 16.375 C-0.32125983 18.70249345 1.07972251 18.87799316 5.1875 18.375 C7.47965045 16.58308968 7.47965045 16.58308968 9.1875 14.375 C9.8475 13.715 10.5075 13.055 11.1875 12.375 C16.94416855 23.12078129 19.22076929 33.67931921 16.3828125 45.81640625 C12.5427624 57.03200084 4.85719831 66.05769969 -5.8125 71.375 C-16.43726245 75.53320316 -27.25410533 75.82413486 -37.8125 71.375 C-43.56003761 68.4508142 -48.54292259 65.27245644 -52.8125 60.375 C-53.8025 59.323125 -53.8025 59.323125 -54.8125 58.25 C-61.46901935 48.68125344 -63.77217708 38.8911249 -62.8125 27.375 C-60.23945605 14.612702 -54.20451697 6.08355206 -43.8125 -1.625 C-29.75024453 -9.44487604 -13.76050454 -8.16424301 0 0 Z " fill="#6B75A7" transform="translate(1057.8125,601.625)"></path>
<path d="M0 0 C0 0.33 0 0.66 0 1 C-0.8971875 1.14695312 -1.794375 1.29390625 -2.71875 1.4453125 C-27.64792937 5.926384 -46.63832564 17.82562188 -65 35 C-65.88816406 35.82242188 -66.77632812 36.64484375 -67.69140625 37.4921875 C-89.05789785 57.97727333 -103.72242958 85.21939303 -105 115 C-105.66 114.67 -106.32 114.34 -107 114 C-107.3013206 95.20415841 -107.5773364 76.40821236 -107.81471252 57.6114502 C-107.91906048 49.45117226 -108.0454578 41.29221036 -108.21432495 33.13294983 C-108.29302145 29.11815161 -108.34875746 25.10331209 -108.39697266 21.08804321 C-108.4238734 19.28721281 -108.46137894 17.48650793 -108.50976562 15.68612671 C-108.57435564 13.23554112 -108.60251358 10.7872364 -108.62109375 8.3359375 C-108.64888412 7.63820724 -108.6766745 6.94047699 -108.70530701 6.22160339 C-108.69702148 4.29052734 -108.69702148 4.29052734 -108 1 C-82.95884505 -19.7308096 -27.48250968 -12.49850569 0 0 Z " fill="#7D7D7D" transform="translate(1088,923)"></path>
<path d="M0 0 C45.41921823 -0.10267885 90.83844884 -0.1982066 136.25775146 -0.25405884 C136.92964404 -0.25488718 137.60153662 -0.25571552 138.29378958 -0.25656897 C152.89475216 -0.27452514 167.49571596 -0.29114641 182.09668161 -0.30639198 C189.25667473 -0.3138762 196.41666752 -0.32165549 203.57666016 -0.32958984 C204.28917708 -0.3303744 205.00169401 -0.33115895 205.73580236 -0.33196728 C228.84325338 -0.35754933 251.95061654 -0.40262752 275.05801431 -0.45778332 C298.79782365 -0.51434592 322.53758434 -0.55130498 346.27745993 -0.56348994 C361.58003716 -0.57138619 376.8823663 -0.59662875 392.18485942 -0.6474988 C402.20626283 -0.67912345 412.22753517 -0.68882128 422.2489849 -0.68100826 C428.03786532 -0.677151 433.82630397 -0.6832176 439.61510658 -0.71523285 C444.90899507 -0.74429842 450.20214214 -0.74599277 455.4960638 -0.72539337 C457.4167293 -0.72284518 459.33743991 -0.73056946 461.25801578 -0.74929909 C463.85903872 -0.77320079 466.45734634 -0.76051834 469.05832291 -0.73828697 C469.81308763 -0.75404905 470.56785235 -0.76981114 471.34548873 -0.78605086 C473.44466805 -0.74519098 473.44466805 -0.74519098 477 0 C481 4.68065343 481 4.68065343 481 8 C321.28 8 161.56 8 -3 8 C-1 2 -1 2 0 0 Z " fill="#555555" transform="translate(796,774)"></path>
<path d="M0 0 C10.25962086 9.82023667 15.33453948 22.99698489 15.8125 36.9375 C15.66536918 50.34479557 10.98183345 62.3120144 1.5625 71.75 C0.88058594 72.44351563 0.19867187 73.13703125 -0.50390625 73.8515625 C-5.91683711 79.02241237 -11.43351763 82.16020413 -18.4375 84.75 C-19.09234375 84.99621094 -19.7471875 85.24242187 -20.421875 85.49609375 C-32.69589556 89.298942 -45.89009788 86.74942313 -57.0625 81.0625 C-69.02570696 74.05134599 -76.9116891 64.28736761 -80.63671875 50.828125 C-83.72148817 37.14308668 -81.46627374 23.83618703 -74.8125 11.625 C-67.44676842 0.20994833 -57.45803685 -7.39613063 -44.37890625 -11.12109375 C-28.2296511 -14.36886351 -12.8447927 -10.3506582 0 0 Z M-65.90234375 12.6796875 C-72.59496555 21.70536067 -74.35199535 31.70461079 -73.4375 42.75 C-71.64606682 52.33696662 -66.81921025 62.71165693 -58.88671875 68.6640625 C-47.6363213 75.63389855 -38.04071267 79.4686526 -24.59375 77.2890625 C-14.98372562 74.99453421 -6.49340476 69.62701215 -0.4375 61.75 C6.02389309 50.650406 8.51125059 40.89562157 5.7734375 28.046875 C3.93423025 21.15325619 3.93423025 21.15325619 -0.4375 15.75 C-0.89125 16.554375 -1.345 17.35875 -1.8125 18.1875 C-3.4375 20.75 -3.4375 20.75 -5.4375 21.75 C-9.00250476 22.13750052 -10.82230006 22.14435894 -13.875 20.1875 C-15.4375 17.75 -15.4375 17.75 -15.3125 14.125 C-14.4375 10.75 -14.4375 10.75 -12.4375 8.75 C-9.8125 8.125 -9.8125 8.125 -7.4375 7.75 C-8.14332684 4.57455955 -8.14332684 4.57455955 -10.87890625 3.21484375 C-31.28467191 -6.77095647 -50.69407721 -5.54251797 -65.90234375 12.6796875 Z " fill="#60391B" transform="translate(1068.4375,598.25)"></path>
<path d="M0 0 C-1.875 4.875 -1.875 4.875 -3 6 C-5.52272161 6.09884129 -8.01806919 6.13177608 -10.54129887 6.12304783 C-11.34443021 6.12420167 -12.14756156 6.12535552 -12.97503021 6.12654433 C-15.70107077 6.1292184 -18.42705379 6.12468237 -21.15309143 6.12025452 C-23.1132348 6.12069006 -25.07337811 6.12156465 -27.03352112 6.12284368 C-32.44701669 6.12509202 -37.86049267 6.12106276 -43.27398574 6.11606562 C-49.1015618 6.11176613 -54.92913667 6.11320719 -60.75671387 6.1139679 C-70.86240973 6.11449345 -80.96809916 6.11134337 -91.07379341 6.10573006 C-105.68511529 6.09761931 -120.29643467 6.09499693 -134.90775847 6.09374207 C-158.61095205 6.09163987 -182.31414229 6.08489754 -206.01733398 6.07543945 C-229.04923484 6.06625981 -252.08113479 6.05917385 -275.11303711 6.05493164 C-275.82258214 6.05480011 -276.53212717 6.05466859 -277.26317357 6.05453308 C-284.38850891 6.05321459 -291.51384425 6.05193877 -298.6391796 6.05069422 C-313.15519998 6.04815779 -327.67122031 6.04533653 -342.1872406 6.04234314 C-342.85471055 6.04220585 -343.5221805 6.04206856 -344.20987681 6.04192711 C-388.80658594 6.03272148 -433.40329319 6.01685496 -478 6 C-478.33 4.68 -478.66 3.36 -479 2 C-437.70686989 1.17762182 -396.42528511 0.81002359 -355.1247948 0.70291888 C-346.84287874 0.68130014 -338.56097877 0.65503675 -330.27907643 0.62875474 C-315.3873944 0.58163901 -300.49570394 0.53830959 -285.60400391 0.49731445 C-271.44676834 0.4583367 -257.28954349 0.41682482 -243.13232422 0.37231445 C-241.38113165 0.36681437 -239.62993908 0.36131433 -237.87874651 0.35581434 C-237.01313544 0.35309539 -236.14752438 0.35037644 -235.25568268 0.34757511 C-233.95863464 0.34350166 -233.95863464 0.34350166 -232.63538361 0.33934593 C-231.77171772 0.33663292 -230.90805183 0.33391991 -230.01821426 0.33112469 C-153.34532536 0.09067884 -76.67333497 -0.07865283 0 0 Z " fill="#393333" transform="translate(1274,816)"></path>
<path d="M0 0 C2.40006339 2.40006339 2.98546586 4.73236002 4.00219727 7.91333008 C13.09892175 36.2504902 28.21501047 63.08247024 46.69628906 86.35400391 C47.8652179 87.82983128 49.00858002 89.32582428 50.1484375 90.82421875 C59.7620988 103.14517548 71.33514469 114.82031372 84 124 C83.01 124.495 83.01 124.495 82 125 C79.37365321 123.83681611 76.89716376 122.61199619 74.375 121.25 C73.61662842 120.84313965 72.85825684 120.4362793 72.0769043 120.01708984 C57.01703023 111.76172384 42.02249157 101.30251855 30 89 C28.95976542 88.00105126 27.91660905 87.00513927 26.87109375 86.01171875 C8.54966275 68.39926369 -11.43122763 43.48492798 -12.5 17.0625 C-12.32089718 11.93645372 -11.63509505 8.83158667 -8 5 C-5.28664979 2.55136689 -3.46956331 1.1565211 0 0 Z " fill="#565555" transform="translate(813,392)"></path>
<path d="M0 0 C0.79978995 0.00090102 1.59957991 0.00180204 2.42360592 0.00273037 C3.3523937 0.00141424 4.28118149 0.00009811 5.23811436 -0.0012579 C6.28295679 0.00251047 7.32779922 0.00627884 8.40430355 0.0101614 C10.08342862 0.01045125 10.08342862 0.01045125 11.79647541 0.01074696 C14.9924045 0.0126814 18.1882844 0.01940478 21.38420081 0.02821136 C24.19414204 0.03519775 27.00408352 0.03855275 29.81403095 0.04202634 C40.94238473 0.05620648 52.07067336 0.08925315 63.19898129 0.12319851 C65.27383835 0.12939547 67.34869542 0.13558788 69.42355251 0.14177608 C98.52730384 0.22936802 127.63095067 0.3390318 156.7345705 0.4625597 C159.3235375 0.47354712 161.9125045 0.48453153 164.50147152 0.49551296 C166.42935117 0.50369279 166.42935117 0.50369279 168.39617789 0.51203787 C178.89049596 0.55622042 189.38482747 0.59610806 199.87916559 0.63519043 C210.17477869 0.67376388 220.47037487 0.71569793 230.76596457 0.76007706 C236.84258382 0.78619997 242.91920066 0.81103653 248.99583912 0.83227253 C291.91696433 0.98459019 291.91696433 0.98459019 311.04752362 1.46266091 C312.51920587 1.49907172 313.99096336 1.53257612 315.46278274 1.56294239 C317.43255158 1.60527503 319.40198898 1.66229591 321.37135983 1.72025967 C323.00204828 1.76437025 323.00204828 1.76437025 324.66567993 1.80937195 C327.19898129 2.12319851 327.19898129 2.12319851 329.19898129 4.12319851 C329.42603207 6.92056179 329.42603207 6.92056179 329.39429379 10.44351101 C329.38784847 11.70034695 329.38140316 12.95718288 329.37476254 14.25210476 C329.35800472 15.5708157 329.34124691 16.88952663 329.32398129 18.24819851 C329.31395111 19.58803572 329.30482532 20.92788003 329.29663754 22.26772976 C329.27300204 25.55306423 329.24005363 28.83804316 329.19898129 32.12319851 C326.60203115 33.42167358 324.72714284 33.24856638 321.81756401 33.24903965 C320.0934602 33.25295127 320.0934602 33.25295127 318.334526 33.25694191 C317.06091182 33.25471119 315.78729763 33.25248047 314.47508907 33.25018215 C313.11701591 33.25133338 311.75894306 33.25292092 310.40087086 33.2549094 C306.65619399 33.25910237 302.91154245 33.25701217 299.16686547 33.25392318 C295.13344053 33.2516692 291.10002009 33.25514867 287.06659603 33.2579031 C279.16034548 33.26235968 271.2541044 33.26138486 263.34785347 33.25849046 C256.92532988 33.25623615 250.50280895 33.25592402 244.08028507 33.25701427 C243.16775093 33.25716751 242.25521678 33.25732074 241.31503009 33.25747862 C239.46150588 33.25779833 237.60798168 33.25812254 235.75445748 33.25845121 C218.35688262 33.26130563 200.95931303 33.25801948 183.56173903 33.25265084 C168.61733082 33.24818209 153.67293037 33.2489594 138.7285223 33.2535696 C121.39353735 33.25891474 104.05855702 33.26103174 86.72357136 33.25795734 C84.87700148 33.25763877 83.03043161 33.2573244 81.18386173 33.25701427 C80.27520014 33.25686 79.36653855 33.25670572 78.43034176 33.25654677 C72.01123986 33.25568149 65.59214088 33.25714472 59.17303944 33.25949383 C51.35655421 33.26229132 43.54007903 33.26155462 35.72359496 33.25621308 C31.73165127 33.25357549 27.73972438 33.25257199 23.7477808 33.25586224 C20.09937933 33.25882397 16.45101033 33.25723446 12.80261184 33.25188468 C10.84497226 33.25022379 8.88733045 33.25351913 6.92969316 33.25694191 C5.78289837 33.25433417 4.63610357 33.25172642 3.45455742 33.24903965 C2.45659738 33.2488773 1.45863733 33.24871495 0.43043607 33.24854767 C-1.80101871 33.12319851 -1.80101871 33.12319851 -2.80101871 32.12319851 C-2.90122801 29.84372059 -2.93183175 27.56112716 -2.93383121 25.27944851 C-2.93478794 24.59515774 -2.93574467 23.91086697 -2.93673038 23.20584011 C-2.93741201 21.75657974 -2.93555894 20.30731633 -2.93138981 18.85806179 C-2.92604124 16.63256923 -2.93133531 14.4072785 -2.93773746 12.18179226 C-2.93707668 10.77684389 -2.93579551 9.37189566 -2.93383121 7.96694851 C-2.93270329 6.6798196 -2.93157536 5.3926907 -2.93041325 4.06655788 C-2.75994086 0.18879348 -2.75994086 0.18879348 0 0 Z M0.19898129 3.12319851 C0.19898129 12.03319851 0.19898129 20.94319851 0.19898129 30.12319851 C107.77898129 30.12319851 215.35898129 30.12319851 326.19898129 30.12319851 C326.19898129 21.87319851 326.19898129 13.62319851 326.19898129 5.12319851 C312.24916574 4.38451527 298.36599602 3.96177453 284.3991766 3.91787624 C282.41242952 3.90825674 280.42568432 3.89824459 278.438941 3.88787746 C273.08728446 3.86110054 267.73561953 3.83990295 262.38393402 3.81987548 C256.66542926 3.79758763 250.94694759 3.77035784 245.22846127 3.74381924 C235.55848969 3.69965257 225.88850857 3.65893205 216.21851254 3.62051296 C206.49388811 3.58185952 196.76928207 3.54040549 187.04468441 3.49551296 C124.76245159 3.20807346 62.48187331 3.0555133 0.19898129 3.12319851 Z " fill="#040404" transform="translate(871.8010187149048,403.8768014907837)"></path>
<path d="M0 0 C8.91 0 17.82 0 27 0 C27 1.32 27 2.64 27 4 C27.62567871 3.98952637 28.25135742 3.97905273 28.89599609 3.96826172 C31.7222901 3.92676809 34.54852011 3.90069527 37.375 3.875 C38.35984375 3.85824219 39.3446875 3.84148437 40.359375 3.82421875 C41.30039063 3.81777344 42.24140625 3.81132813 43.2109375 3.8046875 C44.51490479 3.78897705 44.51490479 3.78897705 45.84521484 3.77294922 C48 4 48 4 50 6 C51.64991582 6.70710678 53.31562256 7.37943989 55 8 C55.0235678 24.70980946 55.04109457 41.41961337 55.05181217 58.12943554 C55.05692519 65.89155324 55.06387011 73.6536605 55.07543945 81.41577148 C55.08554162 88.1968756 55.09188951 94.97797214 55.09408849 101.75908357 C55.09536983 105.33538746 55.0982855 108.91166972 55.10573006 112.48796654 C55.11405632 116.52217867 55.11398146 120.55635544 55.11352539 124.59057617 C55.11712067 125.72061066 55.12071594 126.85064514 55.12442017 128.0149231 C55.10806909 141.70005766 54.47246282 155.29857832 54 169 C27.6 169 1.2 169 -26 169 C-26.17132127 154.54170815 -26.33984083 140.08341573 -26.5 125.625 C-26.51187725 124.55315838 -26.5237545 123.48131676 -26.53599167 122.37699509 C-26.856621 93.27183573 -27.09796399 64.16956809 -27.0625 35.0625 C-27.06164398 34.35460579 -27.06078796 33.64671158 -27.05990601 32.91736603 C-27.04906792 24.61155 -27.02994649 16.30577002 -27 8 C-26.01 8 -25.02 8 -24 8 C-23.34 6.68 -22.68 5.36 -22 4 C-14.74 4 -7.48 4 0 4 C0 2.68 0 1.36 0 0 Z M-23 11 C-23.02911454 38.34667824 -23.02911454 38.34667824 -23.04882812 65.69335938 C-23.05477147 76.83846494 -23.06177412 87.98356298 -23.07543945 99.12866211 C-23.08538526 107.2440536 -23.09185318 115.359439 -23.09408849 123.47483641 C-23.09539578 127.77459788 -23.09848274 132.07434192 -23.10573006 136.37409782 C-23.11248865 140.41642842 -23.11461729 144.45873432 -23.11310768 148.50107002 C-23.11338408 149.98904174 -23.11539016 151.47701423 -23.11920547 152.96498108 C-23.12414014 154.98775138 -23.12239816 157.01053476 -23.12025452 159.03330994 C-23.12117631 160.1680371 -23.1220981 161.30276426 -23.12304783 162.4718771 C-23.28683639 164.93712874 -23.28683639 164.93712874 -22 166 C-19.34410178 166.1019945 -16.71499029 166.13960804 -14.05859375 166.1328125 C-13.22586441 166.13376923 -12.39313507 166.13472595 -11.53517151 166.13571167 C-9.74520799 166.13639584 -7.95524204 166.13452524 -6.1652832 166.13037109 C-3.55608679 166.1252335 -0.94707999 166.13019389 1.66210938 166.13671875 C18.13908003 166.12452713 34.50607601 165.51543512 51 165 C51 114.18 51 63.36 51 11 C26.58 11 2.16 11 -23 11 Z " fill="#0C0C0C" transform="translate(1020,1314)"></path>
<path d="M0 0 C11.01338911 7.59599925 20.64452317 20.04191872 23.74902344 33.26708984 C26.51348147 49.70915039 24.34182334 65.8840387 15.1875 79.875 C6.72099049 91.27292463 -5.94944822 99.66490809 -19.8125 102.875 C-23.08823338 103.17023475 -26.33737067 103.20916375 -29.625 103.1875 C-30.51501709 103.18186035 -31.40503418 103.1762207 -32.32202148 103.17041016 C-38.59044529 103.0542963 -44.06693101 102.55018556 -49.8125 99.875 C-51.14087891 99.27171875 -51.14087891 99.27171875 -52.49609375 98.65625 C-65.86152957 91.98280077 -76.45110424 81.08370972 -81.80859375 67.09765625 C-86.13584168 53.20668527 -86.69726524 36.04585524 -79.8125 22.875 C-62.50941913 -5.41733547 -29.86799805 -17.35461975 0 0 Z M-66.3984375 14.76953125 C-76.2765037 27.47675233 -78.90205621 41.16167239 -77.8125 56.875 C-77.28091203 60.5091287 -76.32387692 63.53491078 -74.8125 66.875 C-74.09900391 68.46248047 -74.09900391 68.46248047 -73.37109375 70.08203125 C-66.92791872 83.16272301 -57.09385718 90.63742844 -43.47265625 95.75390625 C-30.23688636 99.27851536 -16.5526736 96.76910077 -4.6875 90.3125 C3.65255104 84.92962392 11.8091296 77.38728314 15.1875 67.875 C15.46980469 67.1221875 15.75210937 66.369375 16.04296875 65.59375 C20.62961158 52.67362936 20.68851669 39.13047653 14.8996582 26.59326172 C8.23849633 12.94556236 -1.22615143 4.86862076 -15.5390625 -0.4140625 C-34.0929121 -6.21612543 -53.53028725 1.00934108 -66.3984375 14.76953125 Z " fill="#3F2611" transform="translate(1064.8125,588.125)"></path>
<path d="M0 0 C2.5 0.875 2.5 0.875 3.58984375 3.06640625 C9.11178457 20.10621505 7.68653616 40.10370455 7.68530273 57.79223633 C7.68749368 61.30236875 7.70572876 64.81218826 7.72460938 68.32226562 C7.82497258 106.58767959 7.82497258 106.58767959 1.05537415 114.58070374 C-0.5 115.875 -0.5 115.875 -3 116.3125 C-5.5 115.875 -5.5 115.875 -7.1875 114.3125 C-12.53564085 104.38023843 -11.72023462 92.057583 -12.00268555 81.06640625 C-12.06183129 78.7758968 -12.12711266 76.48562639 -12.19335938 74.1953125 C-12.59071009 59.99062339 -12.69228957 45.87322998 -11.6875 31.6875 C-11.58211914 29.93663086 -11.58211914 29.93663086 -11.47460938 28.15039062 C-10.81716017 18.70942009 -9.98238089 8.86717499 -4.5 0.875 C-2.5 -0.125 -2.5 -0.125 0 0 Z " fill="#CACACA" transform="translate(827.5,626.125)"></path>
<path d="M0 0 C3.19719181 9.59157544 -3.12071379 21.7339275 -7.0859375 30.36328125 C-19.18599053 53.83395148 -40.63142578 68.25513079 -64.828125 77.30859375 C-68.40401178 78.44696058 -71.20839361 79 -75 79 C-80.43209877 76.13580247 -80.43209877 76.13580247 -82 73 C-82.41782544 69.3231361 -82.16700188 67.33400376 -80.5 64 C-74.20191826 56.44230191 -65.53576092 52.51488656 -56.875 48.1875 C-35.52834716 37.34409072 -13.77334199 24.67726819 -2 3 C-1.34 2.01 -0.68 1.02 0 0 Z " fill="#ADACAC" transform="translate(1231,426)"></path>
<path d="M0 0 C1.86328125 0.03515625 1.86328125 0.03515625 4 1 C4.90358375 3.51129798 5.5721534 5.8563579 6.1875 8.4375 C9.87974677 21.8024558 19.72560984 28.80407351 30.45703125 36.83984375 C37.09527288 41.87081626 42.72592494 46.24073397 44 55 C42.36422565 59.23376891 40.02049368 61.03878357 36 63 C29.92351243 65.30487459 23.23069192 64.29093633 17.296875 62.1015625 C7.87188857 57.58141594 1.38437573 50.08898628 -2.3125 40.4375 C-6.89878751 26.58348628 -5.80392193 13.17355303 0 0 Z " fill="#ADACAC" transform="translate(1009,1406)"></path>
<path d="M0 0 C0.66 0 1.32 0 2 0 C2.17589828 31.81594038 1.86311511 63.62403667 1.5 95.4375 C1.48804218 96.4854285 1.47608437 97.53335701 1.46376419 98.61304092 C1.31354409 111.74208184 1.15733399 124.87104032 1 138 C-11.87 138 -24.74 138 -38 138 C-36.02 135.69 -34.04 133.38 -32 131 C-4.09716002 93.04868751 0.37195175 45.68711964 0 0 Z " fill="#575656" transform="translate(1069,1171)"></path>
<path d="M0 0 C0 9.57 0 19.14 0 29 C-0.33 29 -0.66 29 -1 29 C-1 20.09 -1 11.18 -1 2 C-20.78248155 5.70921529 -39.72596705 13.00612066 -53 29 C-55.89656094 33.40011929 -58.23657499 38.03034771 -60 43 C-60.33 43 -60.66 43 -61 43 C-61 28.81 -61 14.62 -61 0 C-37.90028388 -8.8845062 -22.5893146 -11.2946573 0 0 Z " fill="#7C7C7C" transform="translate(1154,922)"></path>
<path d="M0 0 C25.74 0 51.48 0 78 0 C78 9.9 78 19.8 78 30 C77.67 30 77.34 30 77 30 C77 26.7 77 23.4 77 20 C75.68 19.67 74.36 19.34 73 19 C71.07281951 18.08430752 69.15743689 17.14363905 67.25 16.1875 C50.97482862 8.64933469 33.58178044 6.01242823 16.24609375 11.6640625 C11.12214228 13.77283675 6.07615589 16.19294955 2 20 C1.14324801 22.61788572 1.14324801 22.61788572 1 25 C0.67 25 0.34 25 0 25 C0 16.75 0 8.5 0 0 Z " fill="#555454" transform="translate(994,1051)"></path>
<path d="M0 0 C9.24 0 18.48 0 28 0 C28 50.82 28 101.64 28 154 C25.36 154 22.72 154 20 154 C20.19916016 153.03513672 20.19916016 153.03513672 20.40234375 152.05078125 C23.06593436 138.42175193 23.18439814 124.77744099 23.23828125 110.9453125 C23.24235678 110.0481741 23.2464323 109.15103569 23.25063133 108.22671127 C23.27135531 103.47340896 23.28571271 98.72013431 23.29516602 93.96679688 C23.30399402 90.09000788 23.32481207 86.213581 23.35668945 82.33691406 C25.63946443 43.07625262 25.63946443 43.07625262 12.11328125 7.8046875 C8.43214976 4.34091806 5.01024024 2.12730405 0 1 C0 0.67 0 0.34 0 0 Z " fill="#575656" transform="translate(1043,1325)"></path>
<path d="M0 0 C8.87695012 6.96000076 13.86988476 14.16820021 17.5625 24.8125 C17.995625 26.00875 18.42875 27.205 18.875 28.4375 C21.08081121 39.26602776 19.1267995 49.99814046 13.5 59.5 C6.28097893 69.96607029 -2.94769052 76.9666019 -15.5703125 79.421875 C-26.88002162 80.96270731 -38.07409347 78.43259269 -47.4375 71.8125 C-57.8013075 63.67395447 -63.19774752 55.58596535 -66.125 42.8125 C-67.49208857 29.68844968 -64.77800949 19.23780431 -56.76953125 8.66796875 C-43.01818326 -8.16994646 -18.35811547 -12.21979823 0 0 Z M-55.90234375 11.7421875 C-62.59496555 20.76786067 -64.35199535 30.76711079 -63.4375 41.8125 C-61.64606682 51.39946662 -56.81921025 61.77415693 -48.88671875 67.7265625 C-37.6363213 74.69639855 -28.04071267 78.5311526 -14.59375 76.3515625 C-4.98372562 74.05703421 3.50659524 68.68951215 9.5625 60.8125 C16.02389309 49.712906 18.51125059 39.95812157 15.7734375 27.109375 C13.93423025 20.21575619 13.93423025 20.21575619 9.5625 14.8125 C9.10875 15.616875 8.655 16.42125 8.1875 17.25 C6.5625 19.8125 6.5625 19.8125 4.5625 20.8125 C0.99749524 21.20000052 -0.82230006 21.20685894 -3.875 19.25 C-5.4375 16.8125 -5.4375 16.8125 -5.3125 13.1875 C-4.4375 9.8125 -4.4375 9.8125 -2.4375 7.8125 C0.1875 7.1875 0.1875 7.1875 2.5625 6.8125 C1.85667316 3.63705955 1.85667316 3.63705955 -0.87890625 2.27734375 C-21.28467191 -7.70845647 -40.69407721 -6.48001797 -55.90234375 11.7421875 Z " fill="#030202" transform="translate(1058.4375,599.1875)"></path>
<path d="M0 0 C18.57195154 -0.71278279 35.57035381 1.47970433 50.1875 14.25 C51.81097002 15.81353453 53.41534917 17.39713479 55 19 C55.79535156 19.7734375 56.59070312 20.546875 57.41015625 21.34375 C63.42416922 27.52844447 66.93093271 33.97320861 70 42 C70.3403125 42.825 70.680625 43.65 71.03125 44.5 C76.0510407 59.00161758 74.21536844 76.24354741 68 90 C67.62746094 90.83402344 67.25492188 91.66804687 66.87109375 92.52734375 C59.41799733 107.30369171 46.46582819 118.37203387 31 124 C24.72816182 126.04479108 18.57446892 127.46980089 12 128 C11.35160156 128.05285156 10.70320313 128.10570312 10.03515625 128.16015625 C-6.20587937 128.85576858 -22.66250756 122.3342793 -34.98828125 111.88671875 C-48.8502989 98.88603035 -55.89520873 83.46707775 -57.25 64.5 C-57.01678327 51.12890739 -52.64288257 35.42442383 -44 25 C-41.7524828 23.08092999 -39.51476119 21.57788938 -37 20 C-38.45579378 23.1482437 -40.24658475 25.78198879 -42.3125 28.5625 C-52.06668505 42.44189247 -55.16071373 58.23622775 -52.3125 75 C-48.58193112 90.87421378 -40.32688232 105.29616265 -26.3125 114.125 C-11.15679006 122.71323563 6.76816813 127.34434792 24.10546875 123.125 C41.30306692 118.15709297 54.74238573 106.89804275 63.4375 91.4453125 C71.07517964 76.12449083 71.8849135 59.2486345 67 43 C60.87428557 26.68221369 49.12766904 14.54299728 33.375 7.1875 C26.10790033 4.33857275 18.7031886 3.65721649 11 3 C9.783125 2.88914062 8.56625 2.77828125 7.3125 2.6640625 C4.54265971 2.42235474 1.77314167 2.19958217 -1 2 C-0.67 1.34 -0.34 0.68 0 0 Z " fill="#040404" transform="translate(1026,573)"></path>
<path d="M0 0 C2.95490059 2.51480901 4.85327776 4.77991663 7 8 C6.625 11.6875 6.625 11.6875 6 15 C5.01 15.33 4.02 15.66 3 16 C2.505 17.485 2.505 17.485 2 19 C-5.89490867 23.26325068 -15.37754711 23.2890857 -24.015625 21.30859375 C-29.51965744 19.33933664 -33.01977608 17.06638066 -36 12 C-36.625 8.4375 -36.625 8.4375 -36 5 C-28.08632595 -5.5515654 -11.05261977 -6.06575445 0 0 Z " fill="#040303" transform="translate(1079,482)"></path>
<path d="M0 0 C0.70036377 0.00684814 1.40072754 0.01369629 2.12231445 0.02075195 C9.60396835 0.25208972 14.3548153 2.24443711 20.125 6.8125 C22.45839104 9.87507574 23.125 11.59234823 23.125 15.4375 C21.27674879 20.00376769 18.38118809 22.10076929 14.125 24.4375 C5.56601341 26.88292474 -4.87680281 26.45240531 -12.875 22.4375 C-15.75483663 20.50545771 -18.29383019 18.59983962 -19.875 15.4375 C-20.3580499 11.17055921 -20.4293027 9.17657027 -17.8125 5.6875 C-12.1459315 1.34714966 -7.08258963 -0.10665266 0 0 Z " fill="#030202" transform="translate(1003.875,477.5625)"></path>
<path d="M0 0 C1.98 0 3.96 0 6 0 C6.17282542 10.74990785 6.33919128 21.49990601 6.5 32.25 C6.51187725 33.04374275 6.5237545 33.8374855 6.53599167 34.65528107 C6.9296847 61.10491741 7.14335828 87.54708912 7 114 C4.36 114 1.72 114 -1 114 C-1.0235864 104.15650393 -1.04114314 94.31301816 -1.05181217 84.46949959 C-1.056943 79.89453226 -1.06385227 75.3195848 -1.07543945 70.74462891 C-1.13366537 47.14209049 -0.87331091 23.58775942 0 0 Z " fill="#525252" transform="translate(971,923)"></path>
<path d="M0 0 C0.99 0.66 1.98 1.32 3 2 C3.5 4.875 3.5 4.875 3 8 C1.3603279 9.36639342 -0.31110128 10.6949419 -2 12 C-4.70619485 15.748332 -6.38039512 19.38490035 -6.0625 24.0625 C-5.49333737 27.16867477 -4.38853968 29.04169 -2.4375 31.5 C-0.33578727 34.14840101 0.37550065 35.85243583 0.4375 39.25 C0 43 0 43 -2 46 C-5.84730843 47.03581381 -8.25683267 47.24266688 -12.0625 46 C-16.95602451 42.66823863 -20.16720452 39.0819887 -22.375 33.5625 C-23.7155795 25.92119686 -23.38506062 19.06724254 -20 12 C-14.6110613 4.58631554 -9.69194841 -0.84277812 0 0 Z " fill="#9EA4C5" transform="translate(1027,609)"></path>
<path d="M0 0 C12.28158171 9.27139012 20.89101743 22.28018647 23.71484375 37.55078125 C25.77690668 55.26192454 21.71368889 70.55195883 10.93359375 84.71484375 C5.74371204 90.8888533 0.02046453 95.0939552 -7 99 C-7.72445313 99.41121094 -8.44890625 99.82242188 -9.1953125 100.24609375 C-20.72248555 106.41652167 -34.93482546 106.63663151 -47.61328125 104.34765625 C-50.56388496 103.43707259 -53.22630717 102.35459417 -56 101 C-56.99 100.525625 -57.98 100.05125 -59 99.5625 C-73.85851601 91.67838946 -83.17784603 79.65989005 -88.23828125 63.859375 C-92.01961291 49.66483769 -90.98828553 34.50971987 -84.375 21.375 C-75.70506522 6.51837102 -61.8996093 -3.78600234 -45.5625 -8.875 C-29.62628484 -12.71065064 -13.4946708 -8.93284764 0 0 Z M-68 5 C-68.75023437 5.65742187 -69.50046875 6.31484375 -70.2734375 6.9921875 C-81.94115685 17.86347549 -87.28421088 29.94294148 -87.9609375 45.80078125 C-88.28460811 60.83080487 -83.99190219 73.76727335 -74 85 C-73.50113281 85.60328125 -73.00226562 86.2065625 -72.48828125 86.828125 C-64.8961571 95.31906486 -52.19417665 102.27771799 -40.81835938 103.17138672 C-22.5443901 104.19104227 -9.5688916 100.05449377 4.6875 88.3125 C13.98173184 79.70240372 20.31550733 68.3161342 21.16113281 55.5715332 C21.20699613 52.81840074 21.23524591 50.06598189 21.25 47.3125 C21.270625 46.36955078 21.29125 45.42660156 21.3125 44.45507812 C21.39446439 29.54780461 14.9140607 17.82168597 5 7 C-7.24604389 -4.99441285 -21.40189926 -7.33475952 -37.83618164 -7.38500977 C-50.35241949 -7.21021517 -58.66129196 -3.38785777 -68 5 Z " fill="#020100" transform="translate(1068,588)"></path>
<path d="M0 0 C-0.43570313 0.72703125 -0.87140625 1.4540625 -1.3203125 2.203125 C-11.39438966 19.21130722 -17.89190955 35.5169946 -21.8125 54.875 C-22.0194751 55.8961792 -22.2264502 56.9173584 -22.43969727 57.96948242 C-23.63213366 64.18571609 -24.34144624 70.28292783 -24.6628418 76.60595703 C-25 79 -25 79 -27 81 C-27 56.58 -27 32.16 -27 7 C-17.16414463 2.08207231 -10.65226946 -0.44384456 0 0 Z " fill="#7E7E7E" transform="translate(942,915)"></path>
<path d="M0 0 C9.94476018 8.46468717 16.88859098 18.9037214 18.5234375 32.11328125 C19.64816298 46.54963113 18.07083828 60.77215391 8.265625 72.25390625 C7.69070313 72.8675 7.11578125 73.48109375 6.5234375 74.11328125 C5.80414062 74.933125 5.08484375 75.75296875 4.34375 76.59765625 C-5.20466911 86.90872864 -16.1845213 91.87132772 -30.09594727 92.44580078 C-46.38902463 92.78047148 -57.97814396 87.26775905 -69.7890625 76.23828125 C-79.95630156 65.59184855 -83.94183506 52.55449998 -83.8203125 38.078125 C-82.69910981 25.14607128 -77.2980601 11.85200185 -67.71484375 2.90625 C-47.1272178 -13.58540848 -21.95862305 -16.72873018 0 0 Z M-69.0625 8.0078125 C-78.9405662 20.71503358 -81.56611871 34.39995364 -80.4765625 50.11328125 C-79.94497453 53.74740995 -78.98793942 56.77319203 -77.4765625 60.11328125 C-76.76306641 61.70076172 -76.76306641 61.70076172 -76.03515625 63.3203125 C-69.59198122 76.40100426 -59.75791968 83.87570969 -46.13671875 88.9921875 C-32.90094886 92.51679661 -19.2167361 90.00738202 -7.3515625 83.55078125 C0.98848854 78.16790517 9.1450671 70.62556439 12.5234375 61.11328125 C12.80574219 60.36046875 13.08804687 59.60765625 13.37890625 58.83203125 C17.96554908 45.91191061 18.02445419 32.36875778 12.2355957 19.83154297 C5.57443383 6.18384361 -3.89021393 -1.89309799 -18.203125 -7.17578125 C-36.7569746 -12.97784418 -56.19434975 -5.75237767 -69.0625 8.0078125 Z " fill="#020101" transform="translate(1067.4765625,594.88671875)"></path>
<path d="M0 0 C36.3 0 72.6 0 110 0 C110 1.65 110 3.3 110 5 C82.28980485 5.69926398 54.59334226 6.0979228 26.875 6.0625 C26.20033188 6.06164398 25.52566376 6.06078796 24.83055115 6.05990601 C16.55367345 6.04861498 8.27683513 6.02868886 0 6 C0 4.02 0 2.04 0 0 Z " fill="#4A4A4A" transform="translate(979,904)"></path>
<path d="M0 0 C3.49029792 1.97277708 6.19844633 4.39689265 8 8 C8.57717357 12.73093088 8.43416625 16.14717343 6.25 20.4375 C3.56791943 23.49209175 1.66568998 24.76361495 -2.3671875 25.3359375 C-8.09465733 25.42515043 -11.56447399 25.00279176 -16 21 C-18.8218117 17.61382596 -19.63925105 14.50428257 -19.49609375 10.06640625 C-18.57136894 6.21459974 -15.89231952 3.58510424 -13 1 C-9.00469193 -0.99765403 -4.33153639 -0.64943255 0 0 Z " fill="#E1C16F" transform="translate(1040,865)"></path>
<path d="M0 0 C4.29239727 4.29239727 4.21220054 10.91339664 4.4375 16.6875 C4.21928046 28.0227926 0.30679539 36.78900832 -7.6171875 44.84375 C-16.96959826 53.30691515 -26.37750775 56.47562565 -38.98046875 56.10546875 C-39.64691406 56.07066406 -40.31335937 56.03585937 -41 56 C-41.33 55.34 -41.66 54.68 -42 54 C-41.39414063 53.92523437 -40.78828125 53.85046875 -40.1640625 53.7734375 C-29.63870244 52.12176561 -22.10763803 47.17885236 -15.23828125 39.1015625 C-6.7023412 27.27340124 -1.37243592 14.54782078 0 0 Z " fill="#576089" transform="translate(1071,620)"></path>
<path d="M0 0 C1.32 0.33 2.64 0.66 4 1 C5.95569485 9.58229509 6.45772902 18.09864366 6.68798828 26.86181641 C6.75009993 29.12864714 6.83331463 31.39406817 6.91796875 33.66015625 C7.15491205 41.05096459 7.11170631 47.83644244 5 55 C2.525 55.495 2.525 55.495 0 56 C-4.425052 47.85970129 -3.21688994 37.34670263 -3.24023438 28.2890625 C-3.24997934 26.00484316 -3.28110466 23.72151083 -3.3125 21.4375 C-3.36634292 13.7767788 -3.08690936 7.1486322 0 0 Z " fill="#CACACA" transform="translate(1140,974)"></path>
<path d="M0 0 C0 3.55858398 -0.7186166 4.2285339 -2.8125 7 C-8.61840744 15.49611514 -9.9920776 24.86178233 -9 35 C-6.81868517 46.5322226 -1.24997255 55.45277327 8.375 62.125 C17.97103406 68.32575955 27.4928688 70.37890313 38.84375 68.5390625 C49.62978271 65.9637457 57.55209729 59.96217923 64 51 C66.2085607 47.08675065 68.16774596 43.10175052 70 39 C70.33 39 70.66 39 71 39 C70.81274434 48.92455017 65.26085453 56.13957892 58.3125 62.875 C50.12954847 69.84612512 40.09383502 73.40003731 29.33203125 73.21484375 C15.59171073 71.94898508 5.41668993 65.81248775 -4 56 C-11.17420592 47.04508425 -13.93300124 35.31695953 -13 24 C-11.40136768 13.71727177 -7.60189195 7.01713103 0 0 Z " fill="#040303" transform="translate(1005,606)"></path>
<path d="M0 0 C1.96453125 -0.05607422 1.96453125 -0.05607422 3.96875 -0.11328125 C7.5 0.3125 7.5 0.3125 9.921875 2.1796875 C11.5 4.3125 11.5 4.3125 12.25 6.75 C11.16654507 10.45180434 8.87194327 11.40595542 5.640625 13.296875 C0.46170315 15.7540277 -4.85615319 15.81991209 -10.5 15.3125 C-14.61275909 13.77021534 -16.05780938 12.97578593 -18.5 9.3125 C-18.5 7.375 -18.5 7.375 -17.5 5.3125 C-11.59928292 0.72305339 -7.36116151 0.13765952 0 0 Z " fill="#8F8F8F" transform="translate(903.5,413.6875)"></path>
<path d="M0 0 C8.91 0 17.82 0 27 0 C27 1.32 27 2.64 27 4 C33.93 4 40.86 4 48 4 C48 4.99 48 5.98 48 7 C24.9 7 1.8 7 -22 7 C-22 6.01 -22 5.02 -22 4 C-14.74 4 -7.48 4 0 4 C0 2.68 0 1.36 0 0 Z " fill="#4A4A4A" transform="translate(1020,1314)"></path>
<path d="M0 0 C2.4375 0.6875 2.4375 0.6875 4.05859375 2.60546875 C6.01794866 6.98487674 5.95125624 10.94159798 5.9375 15.6875 C5.96585938 16.57695313 5.99421875 17.46640625 6.0234375 18.3828125 C6.04250897 24.77175513 6.04250897 24.77175513 4.2890625 27.42578125 C2.90625 28.8125 2.90625 28.8125 0.4375 30.6875 C-3.06003162 29.83674906 -4.3572799 28.98164881 -6.4375 26 C-8.65687778 19.98865674 -7.77702133 12.83974741 -6.5625 6.6875 C-3.35111629 0.89907998 -3.35111629 0.89907998 0 0 Z " fill="#CACACA" transform="translate(826.5625,580.3125)"></path>
<path d="M0 0 C2.7550857 0.63663798 5.51841555 1.12553859 8.31591797 1.53515625 C8.31591797 1.86515625 8.31591797 2.19515625 8.31591797 2.53515625 C-10.0509985 2.6712385 -28.3337143 2.36325734 -46.68408203 1.53515625 C-45.69408203 0.87515625 -44.70408203 0.21515625 -43.68408203 -0.46484375 C-43.11173828 -0.90183594 -42.53939453 -1.33882812 -41.94970703 -1.7890625 C-29.91250897 -9.93050073 -12.94870467 -3.14747799 0 0 Z " fill="#535353" transform="translate(1002.68408203125,1045.46484375)"></path>
<path d="M0 0 C1.67076238 0.75991886 3.3173368 1.57494866 4.9375 2.4375 C8.56210489 4.31210881 12.06563267 5.86110419 16 7 C16 7.33 16 7.66 16 8 C-1.49 8 -18.98 8 -37 8 C-37 7.67 -37 7.34 -37 7 C-35.92363281 6.82984375 -34.84726563 6.6596875 -33.73828125 6.484375 C-23.90038872 4.8724211 -9.0594594 -2.41321844 0 0 Z " fill="#545454" transform="translate(1094,1040)"></path>
<path d="M0 0 C3.0521816 3.0521816 4.76941257 5.22176742 6 9.375 C6 15.08036436 4.69856266 19.25553024 0.6875 23.375 C-4.30945035 26.39641184 -8.30904578 27.4878111 -14.046875 26.53515625 C-18.55963586 25.29865978 -21.33971018 22.74717006 -24.375 19.3125 C-26.4745218 15.03270556 -26.70364312 11.68226716 -26 7 C-23.99470196 2.09816035 -19.92726051 -1.6339451 -15.125 -3.875 C-9.40116478 -4.21169619 -4.5553237 -3.57038884 0 0 Z M-23 5 C-24.60842789 8.21685579 -24.46778535 11.5111009 -24 15 C-21.77864953 19.3604287 -19.59457298 22.20212362 -15 24 C-9.90156489 24.69174748 -6.14231617 24.57115809 -1.5 22.25 C1.38054546 19.65750909 2.67478986 17.69171812 3.40625 13.88671875 C3.60407783 9.24600759 3.1773017 6.61064957 0.125 3 C-3.18592572 -0.45487901 -5.4041717 -1.21977609 -10.1875 -1.4375 C-16.14731235 -1.41400534 -19.25599349 0.45538832 -23 5 Z " fill="#060606" transform="translate(1045,866)"></path>
<path d="M0 0 C4.00134284 2.19121156 6.37363712 4.6951301 7.8046875 8.98828125 C6.8146875 8.98828125 5.8246875 8.98828125 4.8046875 8.98828125 C4.2271875 8.39015625 3.6496875 7.79203125 3.0546875 7.17578125 C0.17486011 4.37594906 -2.46243455 3.42400354 -6.1953125 1.98828125 C-6.1953125 3.63828125 -6.1953125 5.28828125 -6.1953125 6.98828125 C-7.00355469 6.96507812 -7.81179688 6.941875 -8.64453125 6.91796875 C-9.71316406 6.89992188 -10.78179688 6.881875 -11.8828125 6.86328125 C-12.93855469 6.84007812 -13.99429687 6.816875 -15.08203125 6.79296875 C-18.21783109 6.98969396 -20.37176623 7.65770471 -23.1953125 8.98828125 C-23.1953125 10.63828125 -23.1953125 12.28828125 -23.1953125 13.98828125 C-26.1953125 12.98828125 -26.1953125 12.98828125 -27.1328125 11.17578125 C-27.1953125 8.98828125 -27.1953125 8.98828125 -25.4453125 6.73828125 C-23.1953125 4.98828125 -23.1953125 4.98828125 -20.1953125 4.98828125 C-20.1953125 3.66828125 -20.1953125 2.34828125 -20.1953125 0.98828125 C-22.5053125 1.31828125 -24.8153125 1.64828125 -27.1953125 1.98828125 C-22.38971286 -5.22011822 -7.27707847 -2.89710105 0 0 Z " fill="#020202" transform="translate(1077.1953125,481.01171875)"></path>
<path d="M0 0 C-4.25510596 2.83673731 -8.91636054 4.07741564 -13.75 5.68359375 C-16.7620906 6.90363526 -17.89447813 7.69827456 -20 10 C-21.2065625 9.59007812 -22.413125 9.18015625 -23.65625 8.7578125 C-25.27077833 8.21337853 -26.88536478 7.66911688 -28.5 7.125 C-29.68722656 6.72087891 -29.68722656 6.72087891 -30.8984375 6.30859375 C-35.89208823 4.63039965 -40.87263863 3.21128032 -46 2 C-46 1.67 -46 1.34 -46 1 C-40.25254199 0.85679914 -34.50506476 0.71440567 -28.75756836 0.57275391 C-26.8031358 0.52447231 -24.84870864 0.47597174 -22.89428711 0.42724609 C-20.08188247 0.35716838 -17.26945924 0.28788325 -14.45703125 0.21875 C-13.58601273 0.19687622 -12.7149942 0.17500244 -11.81758118 0.15246582 C-7.87733497 0.05631802 -3.94180688 -0.02823138 0 0 Z " fill="#535353" transform="translate(1112,912)"></path>
<path d="M0 0 C0.495 1.485 0.495 1.485 1 3 C0.67 3.66 0.34 4.32 0 5 C-10.56 5 -21.12 5 -32 5 C-32.33 3.68 -32.66 2.36 -33 1 C-30.35977636 -1.64022364 -23.44238539 -0.89021788 -19.875 -1.1875 C-18.74578125 -1.29513672 -17.6165625 -1.40277344 -16.453125 -1.51367188 C-5.42709427 -2.43681145 -5.42709427 -2.43681145 0 0 Z " fill="#030202" transform="translate(1064,1046)"></path>
<path d="M0 0 C12.87 0 25.74 0 39 0 C36.09385341 1.45307329 33.67045533 2.49180598 30.625 3.4375 C27.76679721 4.34671622 25.56964009 5.24591995 22.9375 6.75 C19.06214857 8.39908571 15.95267603 8.14903373 12 7 C9.53047247 5.82646419 7.33157661 4.45173638 5 3 C3.34827188 2.29713697 1.68698082 1.61344757 0 1 C0 0.67 0 0.34 0 0 Z " fill="#535353" transform="translate(959,913)"></path>
<path d="M0 0 C4.02642005 -0.49303103 7.5420642 -0.86992855 11.12109375 1.265625 C16.76856067 6.10295634 16.76856067 6.10295634 17.23828125 9.953125 C17.41671787 15.47526891 16.857487 18.72548737 13 23 C10.25 24.375 10.25 24.375 8 25 C8 24.34 8 23.68 8 23 C8.66 23 9.32 23 10 23 C11.37189547 17.97727528 12.50126048 12.67002704 9.8359375 7.9296875 C7.00666514 4.46201522 4.43120518 2.17296608 0 1 C0 0.67 0 0.34 0 0 Z " fill="#A48C50" transform="translate(1031,865)"></path>
<path d="M0 0 C4.82978133 0.44928198 7.67447217 1.38942693 11 5 C12.0625 8.5 12.0625 8.5 12 12 C9.61785292 15.38997854 6.91536587 16.79527204 3 18 C2.01 18 1.02 18 0 18 C0 16.35 0 14.7 0 13 C1.65 12.34 3.3 11.68 5 11 C3.73053486 6.17557816 3.73053486 6.17557816 0 3 C0 2.01 0 1.02 0 0 Z " fill="#402612" transform="translate(1012,482)"></path>
<path d="M0 0 C4.52823181 0.53273315 7.51293783 2.06769772 11 5 C12.125 7.9375 12.125 7.9375 12 11 C9.88586737 14.87590982 8.44462921 15.84437978 4.25 17.3125 C3.1775 17.539375 2.105 17.76625 1 18 C0.1875 15.8125 0.1875 15.8125 0 13 C2.4375 10.1875 2.4375 10.1875 5 8 C3.7625 6.8553125 3.7625 6.8553125 2.5 5.6875 C0 3 0 3 0 0 Z " fill="#3F2612" transform="translate(1071,483)"></path>
<path d="M0 0 C2.3359375 1.5234375 2.3359375 1.5234375 4 3 C3 6 3 6 1 7 C-1.71760108 7.07181821 -4.40859388 7.09299506 -7.125 7.0625 C-7.87910156 7.05798828 -8.63320312 7.05347656 -9.41015625 7.04882812 C-11.27347127 7.03703499 -13.13674555 7.01909942 -15 7 C-15.66 5.68 -16.32 4.36 -17 3 C-11.66279148 -0.46197309 -6.19634749 -0.95472424 0 0 Z " fill="#61391B" transform="translate(1070,487)"></path>
<path d="M0 0 C0.61875 0.495 1.2375 0.99 1.875 1.5 C0.875 4.5 0.875 4.5 -1.125 5.5 C-3.61753376 5.62419345 -6.06990756 5.68515513 -8.5625 5.6875 C-9.24376953 5.69974609 -9.92503906 5.71199219 -10.62695312 5.72460938 C-14.35329809 5.73555848 -15.94491571 5.62005619 -19.125 3.5 C-18.125 0.5 -18.125 0.5 -16.1875 -0.6875 C-10.64497467 -2.1579659 -5.229812 -2.51030976 0 0 Z " fill="#61391A" transform="translate(1013.125,487.5)"></path>
<path d="M0 0 C0 1.32 0 2.64 0 4 C-1.2065625 4.309375 -1.2065625 4.309375 -2.4375 4.625 C-3.283125 5.07875 -4.12875 5.5325 -5 6 C-5.89830839 9.05272465 -5.89830839 9.05272465 -6 12 C-4.02 12.66 -2.04 13.32 0 14 C0 15.32 0 16.64 0 18 C-3.81136138 17.73409107 -5.76878461 17.17089833 -8.875 14.875 C-11 12 -11 12 -11.6875 8.5 C-11 5 -11 5 -8.3125 2.0625 C-5.03923099 0.02442685 -3.73296197 -0.548965 0 0 Z " fill="#402612" transform="translate(1057,482)"></path>
<path d="M0 0 C0 1.32 0 2.64 0 4 C-1.2065625 4.309375 -1.2065625 4.309375 -2.4375 4.625 C-3.283125 5.07875 -4.12875 5.5325 -5 6 C-5.89830839 9.05272465 -5.89830839 9.05272465 -6 12 C-4.02 12.66 -2.04 13.32 0 14 C0 15.32 0 16.64 0 18 C-3.81136138 17.73409107 -5.76878461 17.17089833 -8.875 14.875 C-11 12 -11 12 -11.8125 8.5 C-10.89412746 4.54393367 -10.4332824 4.17645053 -7.1875 2.0625 C-4.42569057 0.49797772 -3.23551088 0 0 0 Z " fill="#3F2611" transform="translate(998,481)"></path>
<path d="M0 0 C2.625 0.25 2.625 0.25 4.4375 1.375 C6.15349028 4.08445834 5.958728 6.11295684 5.625 9.25 C4.965 9.91 4.305 10.57 3.625 11.25 C0.625 11.125 0.625 11.125 -2.375 10.25 C-3.8125 8.5 -3.8125 8.5 -4.375 6.25 C-3.69346344 0.38878563 -3.69346344 0.38878563 0 0 Z " fill="#ADACAC" transform="translate(1007.375,1386.75)"></path>
<path d="M0 0 C1.875 0.8125 1.875 0.8125 3.875 2.8125 C4.125 5.3125 4.125 5.3125 3.875 7.8125 C1.875 9.8125 1.875 9.8125 -1.125 10.0625 C-4.125 9.8125 -4.125 9.8125 -6.125 7.8125 C-6.5 5.375 -6.5 5.375 -6.125 2.8125 C-4.06860027 0.60921457 -3.05069013 -0.26917854 0 0 Z " fill="#4B4B4B" transform="translate(1061.125,608.1875)"></path>
<path d="M0 0 C2.5625 0.25 2.5625 0.25 5 1 C6.36623674 3.73247348 6.128426 5.98198902 6 9 C5 10 5 10 2.625 10.25 C0 10 0 10 -1.875 8.8125 C-3 7 -3 7 -2.8125 4.4375 C-2 2 -2 2 0 0 Z " fill="#9DA3C5" transform="translate(1032,656)"></path>
<path d="M0 0 C1.9375 0.8125 1.9375 0.8125 3.9375 2.8125 C4.25 5.3125 4.25 5.3125 3.9375 7.8125 C0.9375 9.8125 0.9375 9.8125 -1.6875 9.5 C-4.0625 8.8125 -4.0625 8.8125 -5.0625 7.8125 C-5.36482139 4.94044676 -5.43642386 3.37338579 -3.8125 0.9375 C-2.0625 -0.1875 -2.0625 -0.1875 0 0 Z " fill="#CACACA" transform="translate(827.0625,556.1875)"></path>
<path d="M0 0 C1.9375 0.6875 1.9375 0.6875 4 2 C4.875 4.5 4.875 4.5 5 7 C3 9 3 9 0.5 9.3125 C-0.7375 9.1578125 -0.7375 9.1578125 -2 9 C-4 6 -4 6 -3.8125 3.9375 C-3 2 -3 2 0 0 Z " fill="#ADACAC" transform="translate(1235,411)"></path>
<path d="M0 0 C0 0.66 0 1.32 0 2 C-1.30324219 2.67095703 -1.30324219 2.67095703 -2.6328125 3.35546875 C-8.54429668 6.4566836 -14.10827624 9.38780331 -19 14 C-19.66 13.67 -20.32 13.34 -21 13 C-15.96897214 7.48209848 -7.90093175 0 0 0 Z " fill="#030303" transform="translate(1012,577)"></path>
<path d="M0 0 C0 0.66 0 1.32 0 2 C-0.99 2.66 -1.98 3.32 -3 4 C-3.27028374 7.71640139 -3.180933 10.457201 -2 14 C-5.875 12.125 -5.875 12.125 -7 11 C-7.27331728 7.37854601 -7.42655962 4.83179126 -5.75 1.5625 C-4 0 -4 0 0 0 Z " fill="#EAD59E" transform="translate(1031,869)"></path>
<path d="M0 0 C2.0625 0.4375 2.0625 0.4375 4 1 C3.67 2.32 3.34 3.64 3 5 C1.35 5 -0.3 5 -2 5 C-1.125 1.125 -1.125 1.125 0 0 Z " fill="#8C8C8C" transform="translate(879,426)"></path>
<path d="M0 0 C0 0.66 0 1.32 0 2 C-1.28650706 2.69710731 -2.57940665 3.38242876 -3.875 4.0625 C-4.95394531 4.63677734 -4.95394531 4.63677734 -6.0546875 5.22265625 C-6.69664062 5.47917969 -7.33859375 5.73570312 -8 6 C-8.66 5.67 -9.32 5.34 -10 5 C-7.31217681 1.88778367 -4.19734673 0 0 0 Z " fill="#090908" transform="translate(1012,577)"></path>
<path d="M0 0 C1.98 0.495 1.98 0.495 4 1 C3.67 2.32 3.34 3.64 3 5 C1.68 4.67 0.36 4.34 -1 4 C-0.67 2.68 -0.34 1.36 0 0 Z " fill="#D80000" transform="translate(1032,1046)"></path>
<path d="M0 0 C0.99 0.66 1.98 1.32 3 2 C2.34 3.32 1.68 4.64 1 6 C0.01 5.67 -0.98 5.34 -2 5 C-1.125 1.125 -1.125 1.125 0 0 Z " fill="#C8C8C8" transform="translate(1142,960)"></path>
<path d="M0 0 C0.66 0.66 1.32 1.32 2 2 C-0.475 3.485 -0.475 3.485 -3 5 C-3 4.01 -3 3.02 -3 2 C-2.01 1.34 -1.02 0.68 0 0 Z " fill="#110F0E" transform="translate(990,590)"></path>
</svg>